<svg id="Layer_1" enable-background="new 0 0 511.999 511.999" height="512" viewBox="0 0 511.999 511.999" width="512" xmlns="http://www.w3.org/2000/svg"><g><path d="m255.999 21.994c-135.311 0-245.002 109.691-245.002 245.002 0 104.126 64.963 193.068 156.564 228.54h176.875c91.602-35.472 156.565-124.414 156.565-228.54.001-135.31-109.691-245.002-245.002-245.002z" fill="#e80054"/><path d="m288.367 346.926c-6.732-6.482-16.821-18.769-17.952-34.992-4.325 2.217-9.221 3.476-14.415 3.476-.738 0-1.467-.032-2.192-.082v104.725c.73-.021 1.457-.057 2.192-.057 10.822 0 21.116 2.25 30.448 6.3l7.006-65.278c.562-5.232-1.296-10.442-5.087-14.092z" fill="#ffdd40"/><path d="m286.448 426.296 7.006-65.278c.001-.005.001-.011.001-.016-.002.004-.004.007-.007.011-10.959 18.256-24.948 14.907-32.34 11.265-2.287-1.126-4.845-1.509-7.3-1.098v48.872c.73-.021 1.456-.057 2.192-.057 10.821.001 21.116 2.251 30.448 6.301z" fill="#ffb332"/><path d="m241.574 311.934c-1.129 16.223-11.217 28.511-17.949 34.994-3.79 3.65-5.648 8.86-5.086 14.092l7.013 65.277c9.332-4.051 19.626-6.302 30.447-6.303l-.01-104.586c-5.193.001-10.09-1.257-14.415-3.474z" fill="#ffb332"/><path d="m255.999 419.994-.005-48.984c-1.742-.042-3.488.303-5.106 1.063-20.087 9.439-32.349-11.053-32.349-11.053l7.013 65.277c9.332-4.05 19.626-6.302 30.447-6.303z" fill="#ff9100"/><path d="m227.787 271.6c-2.195 4.308-3.441 9.181-3.441 14.348 0 17.482 14.172 31.654 31.654 31.654s31.654-14.172 31.654-31.654c0-5.167-1.246-10.04-3.442-14.349-17.256 10.261-39.163 10.266-56.425.001z" fill="#ffdd40"/><g><path d="m317.47 448.711c-13.958-18.756-36.293-30.908-61.47-30.908s-47.512 12.152-61.47 30.908z" fill="#ffdd40"/></g><path d="m272.143 419.51c-5.205-1.117-10.605-1.706-16.144-1.706-25.177 0-47.512 12.152-61.47 30.908h74.56c-9.262-7.353-8.508-24.009 3.054-29.202z" fill="#ffb332"/><path d="m132.715 36.888c-.02 0-.039-.003-.058-.003.286 48.133 9.88 157.912 85.57 229.693 20.993 19.908 54.566 19.894 75.545 0 75.689-71.779 85.284-181.555 85.57-229.69h-246.627z" fill="#ffdd40"/><path d="m205.489 114.744c-3.808-28.306 18.091-53.512 46.652-53.511l126.326.001c.597-9.194.834-17.412.875-24.346h-246.627c-.02 0-.039-.003-.058-.003.286 48.133 9.88 157.912 85.57 229.693 15.421 14.624 37.626 18.483 56.645 11.624-45.016-49.976-62.725-113.97-69.383-163.458z" fill="#ffb332"/><g><path d="m379.317 39.081h-246.635c-8.173 0-14.798-6.625-14.798-14.798s6.625-14.798 14.798-14.798h246.635c8.173 0 14.798 6.625 14.798 14.798.001 8.172-6.625 14.798-14.798 14.798z" fill="#ffe98d"/></g><path d="m204.356 24.282c0-8.173 6.625-14.798 14.798-14.798h-86.472c-8.173 0-14.798 6.625-14.798 14.798s6.625 14.798 14.798 14.798h86.472c-8.173.001-14.798-6.625-14.798-14.798z" fill="#ffdd40"/><g><path d="m183.392 287.522c-5.106-3.252-6.609-10.028-3.357-15.134 6.624-10.399-1.216-25.048-14.376-25.048-.163 0-.326.003-.491.007l-.274.007c-10.448.292-20.735-3.776-28.203-11.158-81.739-80.791-105.828-156.088-112.913-193.781-4.059-21.596 12.076-41.79 34.113-42.402 17.685-.476 33.239 12.293 36.217 29.737l.157.907c1.96 11.073 12.01 19.192 23.392 18.871l12.833-.356c6.033-.145 11.094 4.602 11.261 10.653.168 6.052-4.601 11.094-10.653 11.262l-12.833.356c-22.136.634-41.751-15.278-45.589-36.969l-.179-1.027c-1.154-6.759-7.139-11.68-13.999-11.519-8.683.242-14.723 8.2-13.175 16.438 6.613 35.179 29.277 105.634 106.779 182.238 3.236 3.198 7.706 4.967 12.186 4.835l.274-.007c31.391-.866 49.896 33.719 33.964 58.733-3.256 5.113-10.034 6.605-15.134 3.357z" fill="#ffdd40"/></g><path d="m333.828 446.519h-155.657c-7.235 0-13.154 5.919-13.154 13.154v34.863c7.038 2.817 14.236 5.317 21.578 7.483h138.809c7.342-2.166 14.54-4.666 21.578-7.483v-34.863c0-7.234-5.919-13.154-13.154-13.154z" fill="#a05838"/><path d="m165.017 459.673v34.863c7.038 2.817 14.236 5.317 21.578 7.483h67.252v-6.472c0-5.225 3.314-8.9 6.094-11.064 1.725-1.343 2.224-3.754 1.215-5.694-2.401-4.618-.396-8.768 1.297-11.104.952-1.313 1.054-3.027.394-4.508-2.91-6.524-.537-10.853 2.272-13.459.939-.871 1.4-2.032 1.418-3.2h-88.367c-7.234.001-13.153 5.921-13.153 13.155z" fill="#823c26"/><path d="m310.591 473.923h-109.183c-4.357 0-7.89 3.533-7.89 7.89v22.133c19.948 5.246 40.886 8.052 62.482 8.052s42.533-2.806 62.482-8.052v-22.133c0-4.357-3.533-7.89-7.891-7.89z" fill="#e9efff"/><path d="m259.942 484.483c1.725-1.343 2.224-3.754 1.215-5.694-.889-1.709-1.171-3.353-1.092-4.866h-58.657c-4.357 0-7.89 3.533-7.89 7.89v22.133c19.284 5.072 39.496 7.854 60.33 8.035v-16.435c-.001-5.224 3.313-8.899 6.094-11.063z" fill="#d3dcfb"/><path d="m310.592 465.702h-109.184c-8.884 0-16.111 7.227-16.111 16.111v19.811c5.406 1.627 10.887 3.077 16.443 4.333v-23.813h108.52v23.813c5.556-1.256 11.037-2.707 16.443-4.334v-19.811c0-8.883-7.227-16.11-16.111-16.11z" fill="#d3dcfb"/><path d="m261.157 478.789c-2.401-4.618-.396-8.768 1.297-11.104.433-.597.682-1.279.771-1.983h-61.817c-8.884 0-16.111 7.227-16.111 16.111v19.811c5.405 1.627 10.887 3.077 16.442 4.333v-23.813h59.749c.307-1.092.222-2.292-.331-3.355z" fill="#bec8f7"/><g fill="#ffe98d"><circle cx="262.764" cy="296.88" r="10.916"/><circle cx="276.552" cy="121.582" r="10.916"/><circle cx="313.033" cy="98.582" r="19.564"/></g><g><path d="m54.597 17.964c0 1.762-.344 3.441-.948 4.989 1.487-.607 3.112-.976 4.849-1.024 6.86-.161 12.845 4.76 13.999 11.519l.179 1.027c3.838 21.691 23.452 37.603 45.589 36.969l12.833-.356c6.052-.168 10.821-5.21 10.653-11.262-.167-6.051-5.228-10.798-11.261-10.653l-12.833.356c-11.382.32-21.432-7.798-23.392-18.871l-.157-.907c-2.978-17.445-18.532-30.214-36.217-29.738-5.818.162-11.218 1.699-15.951 4.256 7.082.559 12.657 6.47 12.657 13.695z" fill="#ffb332"/></g><g><path d="m328.608 287.522c5.106-3.252 6.609-10.028 3.357-15.134-6.625-10.399 1.216-25.048 14.375-25.048.163 0 .327.003.491.007l.274.007c10.448.292 20.735-3.776 28.203-11.158 81.74-80.792 105.829-156.089 112.913-193.781 4.059-21.597-12.076-41.79-34.113-42.402-17.684-.476-33.238 12.293-36.216 29.737l-.157.907c-1.96 11.073-12.01 19.192-23.392 18.871l-12.833-.356c-6.033-.145-11.095 4.602-11.261 10.653-.168 6.052 4.601 11.094 10.653 11.262l12.833.356c22.137.634 41.751-15.278 45.589-36.969l.179-1.027c1.154-6.759 7.139-11.68 13.999-11.519 8.683.242 14.723 8.2 13.174 16.438-6.612 35.179-29.276 105.634-106.778 182.238-3.236 3.198-7.707 4.967-12.186 4.835l-.274-.007c-31.391-.866-49.896 33.719-33.964 58.733 3.256 5.113 10.034 6.605 15.134 3.357z" fill="#ffdd40"/></g><g><path d="m457.403 17.964c0 1.762.344 3.441.948 4.989-1.487-.607-3.112-.976-4.849-1.024-6.86-.161-12.845 4.76-13.999 11.519l-.179 1.027c-3.838 21.691-23.452 37.603-45.589 36.969l-12.833-.356c-6.052-.168-10.821-5.21-10.653-11.262.167-6.051 5.228-10.798 11.261-10.653l12.833.356c11.382.32 21.432-7.798 23.392-18.871l.158-.907c2.978-17.444 18.532-30.213 36.216-29.737 5.818.162 11.218 1.699 15.951 4.256-7.082.558-12.657 6.469-12.657 13.694z" fill="#ffb332"/></g><path d="m500.98 265.271c-22.747-18.023-68.419-44.584-106.498-6.505-53.049 53.049-86.149 117.33-40.149 144.139 27.953 16.291 35.232 46.986 36.642 68.566 66.293-43.844 110.027-119.044 110.027-204.474 0-.577-.018-1.15-.022-1.726z" fill="#ff4155"/><path d="m117.517 258.766c-38.078-38.078-83.751-11.519-106.497 6.505-.004.576-.022 1.149-.022 1.726 0 85.43 43.734 160.63 110.026 204.474 1.41-21.58 8.69-52.275 36.643-68.566 46-26.809 12.899-91.091-40.15-144.139z" fill="#ff4155"/></g></svg>