<svg xmlns="http://www.w3.org/2000/svg" xmlns:xlink="http://www.w3.org/1999/xlink" viewBox="0 0 500 500" xmlns:v="https://vecta.io/nano"><style><![CDATA[.B{fill:#263238}.C{fill:#4550e6}.D{fill:#fff}.E{fill:#e0e0e0}.F{fill:#455a64}.G{opacity:.3}.H{fill:#ffbe9d}]]></style><path d="M68.73 116.42h125.22v83.84H68.73z" class="D"/><g class="E"><path d="M194 200.26v-22.8l-.1-61 .18.18H68.88l.23-.22v83.84l-.2-.2 116.07.16-116.27.15v-84.27h125.62v.18l-.1 82.35c0 1-.22 1.65-.22 1.65z"/><path d="M68.73 123.9c0-.12 28-.23 62.56-.23l62.56.23c0 .12-28 .22-62.56.22s-62.56-.12-62.56-.22z"/><path d="M73.67 120.12a1 1 0 1 1-1-1 1 1 0 0 1 1 1z" class="G"/><circle cx="76.11" cy="120.12" r="1" class="G"/><path d="M80.5 120.12a1 1 0 1 1-1-1 1 1 0 0 1 1 1z" class="G"/><path d="M79.5 132.64h33.4v33.4H79.5zm97.28 9.44c0 .13-13 .23-29.1.23s-29.1-.1-29.1-.23 13-.22 29.1-.22l29.1.22zm0 6.22c0 .12-13 .22-29.1.22s-29.1-.1-29.1-.22 13-.22 29.1-.22l29.1.22zm0 6.2c0 .12-13 .22-29.1.22s-29.1-.1-29.1-.22 13-.23 29.1-.23l29.1.23zM153 160.7a6.93 6.93 0 0 1-1.35.09l-3.7.07-12.15.07c-4.74 0-9 0-12.16-.07l-3.7-.07a6.93 6.93 0 0 1-1.35-.09 7.64 7.64 0 0 1 1.35-.08l3.7-.07 12.16-.07 12.15.07 3.7.07a7.64 7.64 0 0 1 1.35.08zm-71.4 16.6h15.7V193H81.6zm28.46 0h15.7V193h-15.7zm28.46 0h15.7V193h-15.7zm28.48 0h15.7V193H167zm255.1-39.67a4.77 4.77 0 0 1-.68 1.42 6.43 6.43 0 0 1-6.42 2.69 6.42 6.42 0 0 1-3.09-1.48 6 6 0 0 1-1.23-1.41 6.14 6.14 0 0 1-.79-1.79 6.52 6.52 0 0 1 .2-4.06 6.6 6.6 0 0 1 2.57-3.14 6.2 6.2 0 0 1 1.79-.79 6.28 6.28 0 0 1 1.86-.23 6.46 6.46 0 0 1 5.38 3.16 6.31 6.31 0 0 1 .86 4.17 4.6 4.6 0 0 1-.45 1.5s.2-.53.3-1.52a6.37 6.37 0 0 0-.94-4 6.17 6.17 0 0 0-5.17-2.91 5.94 5.94 0 0 0-1.76.22 6.18 6.18 0 0 0-4.31 7.57 5.85 5.85 0 0 0 .75 1.69 5.79 5.79 0 0 0 1.15 1.35 6.23 6.23 0 0 0 5.78 1.31 6.34 6.34 0 0 0 3.39-2.35 12.15 12.15 0 0 0 .8-1.4zm6 6.04h.22l.67.08 2.65.36h-.06l2.1-5.53v.1l-3-2h-.06v-.06a14.62 14.62 0 0 0-.11-3.83v-.07h.06l2.86-2.15v.16l-2.4-5.4.15.08-3.5.7h-.1l-.06-.08a14.21 14.21 0 0 0-2.77-2.62l-.08-.06v-.1l.5-3.54.1.17-5.52-2.12.2-.06-2.06 3.1h-.1a14.86 14.86 0 0 0-3.81.1h-.1l-.06-.1-2.14-2.86h.22l-5.4 2.4.1-.2.7 3.5v.1l-.1.07a14.42 14.42 0 0 0-2.63 2.76h0l-.17.07h-.44l-.45-.07-.9-.13-1.76-.25.2-.12-2.04 5.5-.07-.2 3.1 2.06v.1a14.27 14.27 0 0 0 .09 3.81v.1l-.1.06-2.87 2.13.06-.2q1.2 2.78 2.4 5.42l-.2-.1 3.5-.7h.1l.06.08a14.27 14.27 0 0 0 2.76 2.63l.08.06v.1l-.53 3.53-.1-.16 5.52 2.14-.17.05 2-3v-.07h.08a14.2 14.2 0 0 0 3.82-.09h.08v.06l2.13 2.88h-.13l5.42-2.37v.1l-.67-3.52a14.68 14.68 0 0 0 2.09-2l.46-.55.15-.18-.13.2c-.1.13-.23.32-.44.57a13.69 13.69 0 0 1-2 2.07v-.06l.7 3.5V150h-.06l-5.4 2.43h-.07l-.06-.07-2.14-2.86.1.05a14.68 14.68 0 0 1-3.89.11l.13-.06-2.06 3.1h-.1l-5.53-2.12h-.1v-.12q.26-1.72.5-3.54l.07.15a14.67 14.67 0 0 1-2.83-2.69l.16.06-3.5.7h-.13l-.06-.12-2.46-5.53.1-.08 2.87-2.14-.07.16a14.94 14.94 0 0 1-.1-3.9l.08.17-3.12-2.08v-.14l2.18-5.65h.14l1.77.25.88.13.45.07h.44c-.35.15-.1 0-.17.08h0a14.77 14.77 0 0 1 2.75-2.75l-.06.18-.7-3.5v-.15l.13-.06 5.54-2.45.1.1 2.13 2.87-.17-.06a14.76 14.76 0 0 1 3.91-.1l-.17.08 2-3 .07-.1h.13l5.52 2.14h.12v.12l-.52 3.54-.06-.15a14.49 14.49 0 0 1 2.81 2.7l-.14-.06 3.5-.68h.1l.05.1 2.4 5.4v.1l-.1.06-2.87 2.13.05-.12a14.6 14.6 0 0 1 .08 3.89l-.05-.1 3 2h.06v.06l-2.16 5.5v.05l-2.62-.4-.68-.12z"/><path d="M459.56 126.83a11.88 11.88 0 0 1-2.21 2.32l.57 2.9-4.48 2-1.78-2.38a11.79 11.79 0 0 1-3.2.08l-1.65 2.47-4.58-1.77.43-2.93a11.88 11.88 0 0 1-2.32-2.21l-2.9.57-2-4.48 2.38-1.78a11.79 11.79 0 0 1-.08-3.2l-2.47-1.65 1.77-4.58 2.93.43a11.88 11.88 0 0 1 2.21-2.32l-.57-2.9 4.48-2 1.78 2.38a11.79 11.79 0 0 1 3.2-.08l1.65-2.47 4.6 1.77-.43 2.93a12.18 12.18 0 0 1 2.32 2.21l2.9-.57 2 4.5-2.38 1.77a11.79 11.79 0 0 1 .08 3.2l2.47 1.65-1.77 4.58-2.93-.43zm-5-5a5.27 5.27 0 1 0-6.81 3 5.27 5.27 0 0 0 6.85-3zm-14.34-22.35a19 19 0 0 1-3.46 3.64l.9 4.56-7 3.12-2.78-3.73a19.14 19.14 0 0 1-5 .13l-2.6 3.86-7.18-2.77.67-4.6a19 19 0 0 1-3.64-3.46l-4.56.9-3.12-7 3.73-2.78a19.14 19.14 0 0 1-.13-5l-3.86-2.6 2.77-7.18 4.6.67a18.94 18.94 0 0 1 3.43-3.69l-.9-4.57 7-3.12 2.78 3.73a19.14 19.14 0 0 1 5-.13l2.6-3.86 7.18 2.77L436 73a18.94 18.94 0 0 1 3.63 3.46l4.57-.9 3.12 7-3.73 2.78a19.14 19.14 0 0 1 .13 5L447.6 93l-2.77 7.18-4.6-.67zm-7.78-7.85a8.26 8.26 0 1 0-10.67 4.74 8.25 8.25 0 0 0 10.67-4.74z" fill-rule="evenodd"/><path d="M369.62 61.36a4.05 4.05 0 0 1 .53-.59l1.52-1.53 5.1-4.94h.05v.25l-5.14-4.84-1.53-1.5a4.05 4.05 0 0 1-.53-.59 3.16 3.16 0 0 1 .62.49l1.6 1.4 5.35 4.9-.14.13-.05.05-5.17 4.86-1.6 1.45a3.16 3.16 0 0 1-.62.45zM354 47.6a3.64 3.64 0 0 1-.53.6L352 49.7l-5.15 5v-.26l5.14 4.84 1.53 1.5a4.41 4.41 0 0 1 .53.58 2.82 2.82 0 0 1-.62-.48l-1.6-1.4-5.2-4.77-.13-.13.13-.13h.05l5.17-4.87 1.6-1.44a3 3 0 0 1 .57-.54zm4 17c-.1 0 1.55-4.64 3.66-10.28s3.9-10.2 4-10.16-1.54 4.64-3.66 10.28-3.9 10.2-4 10.16zm29.36 9.86V63.08l-.08-30 .15.15h-50.76l.18-.18v41.37l-.16-.16 47.12.08-10.36.05-36.92.08v-41.7h51.1v.15l-.08 40.63c0 .5-.18.92-.18.92z"/><path d="M387.76 39.23c0 .1-11.46.18-25.6.18s-25.6-.08-25.6-.18 11.46-.18 25.6-.18l25.6.18zm-47.02-3.03a.69.69 0 1 1-.69-.69.69.69 0 0 1 .69.69z"/><circle cx="342.54" cy="36.21" r=".68"/><path d="M345.72 36.2a.69.69 0 1 1-.69-.69.69.69 0 0 1 .69.69z"/></g><path d="M171.84 53.04h117.38v47.68H171.84z" class="D"/><g class="E"><path d="M289.22 100.72V87.9l-.07-34.87.13.13-117.37.06.1-.23v47.68l-.18-.18 108.6.14h-24.37l-84.46.08V52.68h117.7V53l-.07 34.95v11.9l-.01.86z"/><path d="M172 59.47c0-.1 26.24-.18 58.6-.18l58.6.18c0 .1-26.23.2-58.6.2s-58.6-.08-58.6-.2z"/></g><g fill="#ebebeb"><path d="M176.87 56.6a.85.85 0 1 1-.85-.85.85.85 0 0 1 .85.85zm2.93 0a.85.85 0 1 1-.85-.85.85.85 0 0 1 .85.85z" class="G"/><circle cx="181.81" cy="56.6" r=".85" class="G"/></g><path d="M181.8 67.22h28.35v28.35H181.8zm99.3 7.6c0 .1-14.6.2-32.58.2s-32.6-.1-32.6-.2 14.6-.2 32.6-.2l32.58.2zm0 5.78c0 .1-14.6.18-32.58.18s-32.6-.08-32.6-.18 14.6-.2 32.6-.2l32.58.2zm-23.22 5.77a1.3 1.3 0 0 1-.42 0h-1.23l-4.5.06-14.83.06-14.84-.06-4.5-.06h-1.23a1.3 1.3 0 0 1-.42 0 2.37 2.37 0 0 1 .42 0h1.23l4.5-.06h29.67l4.5.06h1.23a2.37 2.37 0 0 1 .42 0z" class="E"/><path d="M472.86 445.1c0 .14-99.78.26-222.85.26s-222.87-.12-222.87-.26 99.76-.26 222.87-.26l222.85.26z" class="B"/><path d="M295.03 135.4h140.13v114.16H295.03z" class="E"/><path d="M285.07 142.66H425.2v114.16H285.07z" fill="#ebebeb"/><path d="M271.34 150.6H415.2v117.2H271.34z" class="D"/><path d="M415.2 267.82v-8.42l-.05-23.75-.12-85 .22.22H271.4l.26-.26v117.2l-.24-.24 133.5.18-133.7.18v-117.7h144.35v.22l-.17 115.1c0 1.4-.2 2.27-.2 2.27z" class="B"/><path d="M288.88 167.55l-1.55.56 1.55.57v.58l-2.2-.84v-.6l2.2-.84zm3.64-1.05v3.25h-.75v-1.33h-1.48v1.33h-.75v-3.25h.75v1.28h1.48v-1.28zm1.48.6h-1v-.6h2.83v.6h-1v2.64H294zm5.1 2.64v-2l-1 1.6h-.34l-.95-1.56v1.9h-.7v-3.25h.62l1.22 2 1.2-2h.6v3.25zm1.48-3.24h.75v2.64H303v.6h-2.38zm4.9 1.3v.6l-2.2.84v-.58l1.54-.57-1.54-.56V167zm-17.9 88.63L286 257l1.55.56v.58l-2.2-.84v-.6l2.2-.84zm1.65-1.73h.65l-1.53 4.37h-.65zm3.78.67v3.25h-.76v-1.33h-1.44v1.33h-.75v-3.25h.75v1.28h1.47v-1.28zm1.46.63h-1v-.6h2.82v.6h-1v2.64h-.76zm5.14 2.62v-1.95l-1 1.6h-.34l-.95-1.57v1.9h-.7v-3.25h.62l1.2 2 1.2-2h.62v3.25zm1.48-3.25h.75V258h1.63v.6h-2.38zm4.92 1.33v.6l-2.2.84v-.58l1.55-.56-1.55-.57v-.58z" class="C"/><path d="M299.07 176.44l-1.65.63 1.65.64v.38l-2.08-.82v-.4l2.08-.82zm3.58-1v3.25h-.46v-1.45h-1.86v1.45h-.47v-3.25h.47v1.4h1.86v-1.4zm3.35 2.85v.4h-2.36v-3.25h2.3v.4h-1.83v1h1.63v.4h-1.63v1zm2.8-.42h-1.73l-.35.82h-.48l1.47-3.25h.46l1.47 3.25h-.5zm-.16-.37l-.7-1.6-.7 1.6zm1.48-2.06h1.37a1.63 1.63 0 1 1 0 3.25h-1.37zm1.34 2.84a1.22 1.22 0 1 0 0-2.44h-.88v2.44z"/><use xlink:href="#B"/><path d="M299.07 187.56l-1.65.63 1.65.64v.38l-2.08-.82v-.4l2.08-.82zm1.43-.56h-1.12v-.4h2.7v.4H301v2.85h-.46zm2.08-.43h.47v3.25h-.47zm2.08.43h-1.1v-.4h2.68v.4h-1.1v2.85h-.46zm2.08-.43h.46v2.84h1.8v.4h-2.22zm5.1 2.83v.4h-2.36v-3.25h2.3v.4H310v1h1.63v.4H310v1z"/><use xlink:href="#B" x="-1.35" y="11.13"/><path d="M316.54 186.57h.46v2.84h1.76v.4h-2.22z"/><use xlink:href="#C"/><path d="M323.46 187.34v.43h-.1a.74.74 0 0 0-.78.83v1.23h-.44v-2.46h.42v.4a.94.94 0 0 1 .9-.44zm2.74 1.4h-2a.83.83 0 0 0 .89.72.91.91 0 0 0 .71-.3l.24.3a1.34 1.34 0 0 1-2.29-.86 1.21 1.21 0 0 1 1.24-1.25 1.18 1.18 0 0 1 1.21 1.26.66.66 0 0 1 0 .14zm-2-.32h1.58a.79.79 0 0 0-1.58 0zm6.7-.02v1.42h-.45v-1.37c0-.48-.23-.7-.63-.7a.71.71 0 0 0-.74.81v1.27h-.45v-1.37c0-.48-.23-.7-.63-.7a.71.71 0 0 0-.74.81v1.27h-.44v-2.46h.42v.37a1 1 0 0 1 .85-.39.91.91 0 0 1 .86.45 1.08 1.08 0 0 1 .94-.45.94.94 0 0 1 1.01 1.06zm1.98-1.8a.29.29 0 0 1 .3-.29.28.28 0 0 1 .3.28.29.29 0 0 1-.3.3.29.29 0 0 1-.3-.29zm.08.76h.45v2.46h-.4zm3.84 1.24a1.2 1.2 0 0 1-1.24 1.26 1.06 1.06 0 0 1-.86-.4v1.27h-.45v-3.36h.43v.4a1.06 1.06 0 0 1 .88-.41 1.19 1.19 0 0 1 1.24 1.25zm-.45 0a.83.83 0 1 0-1.66 0 .83.83 0 1 0 1.66 0zm.75.96l.2-.35a1.65 1.65 0 0 0 .86.25c.4 0 .6-.12.6-.33 0-.56-1.56-.08-1.56-1.06 0-.44.4-.73 1-.73a1.75 1.75 0 0 1 .89.22l-.2.35a1.31 1.31 0 0 0-.71-.19c-.4 0-.58.14-.58.34 0 .57 1.56.1 1.56 1.06 0 .44-.4.73-1.06.73a1.82 1.82 0 0 1-.99-.29zm4.9-2.2v2.46h-.42v-.37a1 1 0 0 1-.84.4 1 1 0 0 1-1.06-1.08v-1.4h.45v1.36c0 .5.24.73.66.73a.72.72 0 0 0 .76-.82v-1.27zm5 1.04v1.42h-.44v-1.37c0-.48-.23-.7-.64-.7a.71.71 0 0 0-.73.81v1.27h-.45v-1.37c0-.48-.23-.7-.63-.7a.71.71 0 0 0-.74.81v1.27h-.45v-2.46h.43v.37a1 1 0 0 1 .85-.39.9.9 0 0 1 .85.45 1.11 1.11 0 0 1 .95-.45.93.93 0 0 1 1 1.06zm4-.84l-1.64.63 1.64.64v.38l-2.07-.82v-.4l2.07-.82zm1.7-1.66h.4l-1.53 4.37h-.4zm1.5 1.1h-1.1v-.4h2.7v.4h-1.12v2.85h-.46zm2.07-.43h.46v3.25h-.46zm2.08.43h-1.1v-.4h2.68v.4h-1.1v2.85h-.46zm2.08-.43h.46v2.84h1.76v.4h-2.22zm5.1 2.83v.4h-2.36v-3.25h2.3v.4h-1.83v1h1.63v.4h-1.63v1z"/><use xlink:href="#B" x="52.35" y="11.13"/><path d="M299.07 198.68l-1.65.64 1.65.63v.4l-2.08-.83v-.4l2.08-.83zm1.7-1.68h.4l-1.53 4.37h-.4zm3.5.7v3.25h-.46v-1.45H302v1.45h-.47v-3.25h.47v1.4h1.86v-1.4zm3.32 2.83v.4h-2.35v-3.25h2.3v.4h-1.83v1h1.63v.4h-1.63v1zm2.83-.4h-1.73l-.35.8h-.48l1.47-3.25h.46l1.47 3.25h-.48zm-.16-.37l-.7-1.6-.7 1.6zm1.48-2.06h1.37a1.63 1.63 0 1 1 0 3.25h-1.37zm1.34 2.84a1.22 1.22 0 1 0 0-2.43h-.87v2.43zm4.4-1.42v.4l-2.08.83V200l1.65-.63-1.65-.64v-.4zm-27.03 9.2l-1.64.64 1.64.63v.4l-2.08-.82v-.4l2.08-.82zm3.55 1.37c0 .56-.42.88-1.24.88h-1.55v-3.25h1.45c.75 0 1.17.32 1.17.84a.83.83 0 0 0 .17 1.53zm-2.33-2v1h1c.48 0 .74-.18.74-.52s-.26-.52-.74-.52zm1.86 2c0-.38-.28-.55-.8-.55h-1.07v1.08h1.07c.55-.03.83-.2.83-.56zm.97-.7a1.73 1.73 0 1 1 1.73 1.66 1.65 1.65 0 0 1-1.73-1.66zm3 0a1.27 1.27 0 1 0-1.26 1.24 1.22 1.22 0 0 0 1.25-1.24zm1.15-1.66H300a1.63 1.63 0 1 1 0 3.25h-1.37zm1.34 2.85a1.22 1.22 0 1 0 0-2.44h-.88v2.44zm3.6-.72v1.12h-.46v-1.13l-1.3-2.12h.5l1 1.72 1-1.72h.46zm3.66-.7v.4l-2.08.82v-.4l1.65-.63-1.65-.64V208zm-16.8 10.68l-1.64.64 1.64.63v.4l-2.08-.82v-.4l2.08-.82zm3.55-.98v3.24h-.46v-1.44h-1.87v1.44h-.46v-3.24h.46v1.4h1.87v-1.4zm1.75 0v3.24h-.46v-2.84h-.73v-.4zm2.88 1.43v.4l-2.08.82v-.4l1.65-.63-1.65-.64v-.38zm2.07-1.43h.34v2.95h1.82v.3h-2.16z"/><use xlink:href="#D"/><path d="M307.47 219.25v.32h-.08a.79.79 0 0 0-.82.9v1.24h-.33v-2.44h.3v.48a1 1 0 0 1 .92-.5zm2.7 1.35h-2a.91.91 0 0 0 1 .85 1 1 0 0 0 .75-.32l.18.22a1.19 1.19 0 0 1-.94.4 1.21 1.21 0 0 1-1.28-1.25 1.18 1.18 0 0 1 1.19-1.24 1.16 1.16 0 0 1 1.18 1.24zm-2-.24h1.73a.87.87 0 0 0-1.73 0zm6.7-.06v1.4h-.33v-1.38c0-.5-.26-.78-.7-.78a.78.78 0 0 0-.81.88v1.28h-.33v-1.38c0-.5-.26-.78-.7-.78a.79.79 0 0 0-.82.88v1.28h-.33v-2.44h.32v.45a1 1 0 0 1 .9-.47.88.88 0 0 1 .86.52 1.07 1.07 0 0 1 1-.52.93.93 0 0 1 .95 1.05zm2.04-1.8a.24.24 0 0 1 .24-.23.23.23 0 0 1 .24.23.24.24 0 1 1-.48 0zm.07.77h.33v2.44h-.3zm3.7 1.23a1.19 1.19 0 0 1-1.21 1.25 1.06 1.06 0 0 1-.93-.49v1.36h-.33v-3.34h.32v.48a1.07 1.07 0 0 1 .94-.5 1.18 1.18 0 0 1 1.21 1.24zm-.32 0a.91.91 0 1 0-1.82 0 .91.91 0 1 0 1.82 0zm.64.93l.15-.26a1.46 1.46 0 0 0 .87.28c.46 0 .65-.16.65-.4 0-.64-1.58-.14-1.58-1.1 0-.4.35-.7 1-.7a1.64 1.64 0 0 1 .86.23l-.14.27a1.26 1.26 0 0 0-.72-.21c-.44 0-.64.17-.64.4 0 .66 1.58.16 1.58 1.1 0 .42-.37.7-1 .7a1.59 1.59 0 0 1-1.03-.31zm4.82-2.16v2.44h-.32v-.44a1 1 0 0 1-.87.47.94.94 0 0 1-1-1.05v-1.42h.33v1.38c0 .52.26.8.73.8a.79.79 0 0 0 .83-.89v-1.28zm4.94 1.03v1.4h-.32v-1.38c0-.5-.26-.78-.7-.78a.78.78 0 0 0-.81.88v1.28h-.33v-1.38c0-.5-.26-.78-.7-.78a.79.79 0 0 0-.81.88v1.28h-.33v-2.44h.3v.45a1 1 0 0 1 .9-.47.89.89 0 0 1 .87.52 1 1 0 0 1 1-.52.93.93 0 0 1 .94 1.05zm4.34-2.03v3.44h-.3v-.48a1.06 1.06 0 0 1-.94.51 1.25 1.25 0 0 1 0-2.49 1.07 1.07 0 0 1 .93.49v-1.47zm-.32 2.22a.91.91 0 1 0-.9.95.89.89 0 0 0 .9-.95zm.98.01a1.25 1.25 0 1 1 1.25 1.25 1.21 1.21 0 0 1-1.25-1.25zm2.15 0a.91.91 0 1 0-.9.95.89.89 0 0 0 .9-.95zm1-2.23h.32v3.44h-.32z"/><use xlink:href="#D" x="36.82"/><path d="M344.3 219.25v.32h-.08a.79.79 0 0 0-.82.9v1.24h-.33v-2.44h.3v.48a1 1 0 0 1 .92-.5z"/><use xlink:href="#E"/><path d="M348.33 218.5a.24.24 0 0 1 .24-.23.23.23 0 0 1 .24.23.24.24 0 1 1-.48 0zm.08.77h.32v2.44h-.32zm2.53 2.3a.78.78 0 0 1-.52.18.64.64 0 0 1-.71-.71v-1.48h-.44v-.28h.44v-.53h.3v.53h.74v.28H350V221a.39.39 0 0 0 .42.44.56.56 0 0 0 .36-.12zm3.66-1.36v1.5h-.32v-.38a.9.9 0 0 1-.84.41c-.55 0-.9-.3-.9-.7s.24-.7.94-.7h.78v-.14a.6.6 0 0 0-.69-.65 1.21 1.21 0 0 0-.81.29l-.15-.25a1.53 1.53 0 0 1 1-.33.87.87 0 0 1 .98.95zm-.33.78v-.4h-.77c-.47 0-.62.2-.62.44s.23.46.6.46a.78.78 0 0 0 .78-.48zm5.23-.68v1.4h-.33v-1.38c0-.5-.26-.78-.7-.78a.79.79 0 0 0-.82.88v1.28h-.33v-1.38c0-.5-.26-.78-.7-.78a.79.79 0 0 0-.82.88v1.28h-.33v-2.44h.32v.45a1 1 0 0 1 .89-.47.88.88 0 0 1 .87.52 1.05 1.05 0 0 1 1-.52.93.93 0 0 1 .95 1.05z"/><use xlink:href="#F"/><path d="M364.5 221.56a.76.76 0 0 1-.51.18.65.65 0 0 1-.72-.71v-1.48h-.43v-.28h.43v-.53h.33v.53h.74v.28h-.74V221a.39.39 0 0 0 .42.44.54.54 0 0 0 .36-.12zm.92-.08a.71.71 0 0 1-.07.27l-.2.64h-.23l.16-.67a.24.24 0 0 1-.17-.24.25.25 0 0 1 .25-.25.24.24 0 0 1 .25.25zm1.66-.98a1.2 1.2 0 0 1 1.26-1.24 1.09 1.09 0 0 1 1 .49l-.25.16a.83.83 0 0 0-.71-.36 1 1 0 0 0 0 1.9.82.82 0 0 0 .71-.35l.25.16a1.09 1.09 0 0 1-1 .49 1.21 1.21 0 0 1-1.26-1.25zm2.57 0a1.24 1.24 0 1 1 1.25 1.25 1.21 1.21 0 0 1-1.25-1.25zm2.15 0a.89.89 0 0 0-.9-1 1 1 0 0 0 0 1.9.89.89 0 0 0 .9-.9z"/><use xlink:href="#G"/><use xlink:href="#E" x="29.8"/><path d="M380.33 220.6h-2a.91.91 0 0 0 1 .85 1 1 0 0 0 .75-.32l.18.22a1.19 1.19 0 0 1-.94.4 1.21 1.21 0 0 1-1.28-1.25 1.18 1.18 0 0 1 1.19-1.24 1.16 1.16 0 0 1 1.18 1.24zm-2-.24H380a.87.87 0 0 0-1.73 0z"/><path d="M380.76 220.5a1.2 1.2 0 0 1 1.26-1.24 1.06 1.06 0 0 1 1 .49l-.24.16a.85.85 0 0 0-.71-.36 1 1 0 0 0 0 1.9.84.84 0 0 0 .71-.35l.24.16a1.06 1.06 0 0 1-1 .49 1.21 1.21 0 0 1-1.26-1.25z"/><path d="M384.93 221.56a.78.78 0 0 1-.52.18.64.64 0 0 1-.71-.71v-1.48h-.44v-.28h.44v-.53h.3v.53h.74v.28H384V221a.39.39 0 0 0 .42.44.56.56 0 0 0 .36-.12z"/><use xlink:href="#F" x="25.03"/><path d="M389.52 221.56a.78.78 0 0 1-.52.18.65.65 0 0 1-.71-.71v-1.48h-.44v-.28h.44v-.53h.33v.53h.74v.28h-.74V221a.39.39 0 0 0 .42.44.54.54 0 0 0 .36-.12zm2.78-2.3v2.44h-.3v-.44a1 1 0 0 1-.88.47 1 1 0 0 1-1-1.05v-1.42h.33v1.38c0 .52.27.8.73.8a.79.79 0 0 0 .83-.89v-1.28zm3.06 1.33h-2a.9.9 0 0 0 1 .85.93.93 0 0 0 .74-.32l.2.22a1.29 1.29 0 0 1-2.22-.85 1.17 1.17 0 0 1 1.19-1.24 1.16 1.16 0 0 1 1.18 1.24zm-2-.24h1.73a.87.87 0 0 0-1.73 0zm3.9-1.1v.32h-.08a.79.79 0 0 0-.82.9v1.24H396v-2.44h.32v.48a.92.92 0 0 1 .94-.5zm-106.9 6.5v1.5h-.3v-.38a.93.93 0 0 1-.84.41c-.55 0-.9-.3-.9-.7s.24-.7.94-.7h.74v-.15c0-.42-.23-.65-.7-.65a1.23 1.23 0 0 0-.81.29l-.15-.25a1.56 1.56 0 0 1 1-.33.86.86 0 0 1 1.01.95zm-.33.78v-.4h-.76c-.47 0-.63.2-.63.44s.23.46.62.46a.78.78 0 0 0 .74-.5zm3.47-2.7v3.44h-.3v-.48a1.07 1.07 0 0 1-.95.51 1.25 1.25 0 0 1 0-2.49 1.06 1.06 0 0 1 .93.49v-1.47zm-.32 2.22a.91.91 0 1 0-.91.95.89.89 0 0 0 .91-.95z"/><use xlink:href="#H"/><path d="M298.13 226.05a1.19 1.19 0 0 1-1.22 1.25 1.07 1.07 0 0 1-.93-.49v1.36h-.33v-3.34h.35v.5a1.06 1.06 0 0 1 .94-.51 1.19 1.19 0 0 1 1.19 1.24zm-.33 0a.91.91 0 1 0-1.82 0 .91.91 0 1 0 1.82 0zm.92-2a.24.24 0 0 1 .24-.23.23.23 0 0 1 .24.23.24.24 0 0 1-.48 0zm.08.77h.33v2.44h-.33zm.9 2.17l.15-.26a1.46 1.46 0 0 0 .87.28c.46 0 .65-.16.65-.4 0-.64-1.58-.14-1.58-1.1 0-.4.34-.7 1-.7a1.67 1.67 0 0 1 .86.23l-.14.27a1.26 1.26 0 0 0-.72-.21c-.44 0-.64.17-.64.4 0 .66 1.58.16 1.58 1.1 0 .42-.37.7-1 .7a1.59 1.59 0 0 1-1.03-.31zm2.36-.95a1.2 1.2 0 0 1 1.26-1.24 1.09 1.09 0 0 1 1 .49l-.25.16a.85.85 0 0 0-.71-.36 1 1 0 0 0 0 1.9.84.84 0 0 0 .71-.35l.25.16a1.09 1.09 0 0 1-1 .49 1.21 1.21 0 0 1-1.26-1.25zm2.78-2a.24.24 0 0 1 .24-.23.23.23 0 0 1 .24.23.24.24 0 1 1-.48 0zm.08.77h.33v2.44h-.33z"/><use xlink:href="#G" x="-66.65" y="5.56"/><path d="M311.57 224.83V227a1.07 1.07 0 0 1-1.22 1.22 1.72 1.72 0 0 1-1.14-.38l.17-.25a1.43 1.43 0 0 0 1 .33c.62 0 .9-.28.9-.88v-.3a1.1 1.1 0 0 1-.95.47 1.19 1.19 0 1 1 0-2.37 1.09 1.09 0 0 1 1 .49v-.47zm-.32 1.16a.93.93 0 1 0-.93.9.87.87 0 0 0 .93-.89zm4.58.17h-2a.89.89 0 0 0 1 .84.93.93 0 0 0 .74-.32l.2.22a1.29 1.29 0 0 1-2.22-.85 1.17 1.17 0 0 1 1.19-1.24 1.16 1.16 0 0 1 1.18 1.24zm-2-.25h1.73a.87.87 0 0 0-1.73 0zm2.67-2.08h.33v3.44h-.33z"/><use xlink:href="#H" x="23.34"/><path d="M320.28 227.12a.76.76 0 0 1-.51.18.65.65 0 0 1-.72-.71v-1.48h-.44v-.28h.44v-.53h.33v.53h.74v.28h-.74v1.46a.39.39 0 0 0 .42.44.54.54 0 0 0 .36-.12zm.92-.12a.66.66 0 0 1-.06.27l-.2.64h-.22l.16-.67a.24.24 0 0 1-.17-.24.25.25 0 0 1 .25-.25.24.24 0 0 1 .24.25z"/><use xlink:href="#E" x="-23.02" y="5.57"/><path d="M327.5 226.16h-2a.91.91 0 0 0 1 .84 1 1 0 0 0 .75-.32l.18.22a1.29 1.29 0 0 1-2.22-.85 1.17 1.17 0 0 1 1.19-1.24 1.16 1.16 0 0 1 1.18 1.24zm-2-.25h1.73a.87.87 0 0 0-1.73 0zm4.9-2.08v3.44h-.32v-.48a1 1 0 0 1-.94.51 1.25 1.25 0 0 1 0-2.49 1.06 1.06 0 0 1 .93.49v-1.47zm-.32 2.22a.91.91 0 1 0-.91.95.89.89 0 0 0 .91-.95zm4.7-2.22v3.44h-.32v-.48a1.06 1.06 0 0 1-.94.51 1.25 1.25 0 0 1 0-2.49 1.07 1.07 0 0 1 .93.49v-1.47zm-.33 2.22a.91.91 0 1 0-.9.95.89.89 0 0 0 .9-.95zm1.16-2a.24.24 0 1 1 .24.24.23.23 0 0 1-.24-.24zm.07.77h.32v2.44h-.33zm3.1.93v1.5h-.32v-.38a.9.9 0 0 1-.84.41c-.55 0-.9-.3-.9-.7s.24-.7.94-.7h.78v-.15a.6.6 0 0 0-.69-.65 1.21 1.21 0 0 0-.81.29l-.15-.25a1.53 1.53 0 0 1 1-.33.87.87 0 0 1 .98.95zm-.33.78v-.4h-.77c-.47 0-.62.2-.62.44s.23.46.6.46a.78.78 0 0 0 .78-.5zm5.26-.68v1.4h-.33v-1.38c0-.5-.26-.78-.7-.78a.79.79 0 0 0-.82.88v1.28h-.33v-1.38c0-.5-.26-.78-.7-.78a.79.79 0 0 0-.82.88v1.28h-.33v-2.44h.34v.45a1 1 0 0 1 .89-.47.88.88 0 0 1 .87.52 1.05 1.05 0 0 1 1-.52.93.93 0 0 1 .93 1.05zm2.8-.86l-1.65.64 1.65.63v.4l-2.08-.82v-.4l2.08-.82zm1.72-1.63h.4l-1.53 4.37h-.4zm3.5.63v3.24h-.47v-1.44h-1.86v1.44h-.47V224h.47v1.4h1.86V224zm1.7 0v3.24H353v-2.84h-.73v-.4zm2.86 1.45v.4l-2.08.82v-.4l1.66-.63-1.66-.64v-.38zm-65.85 10.7l-1.64.63 1.64.64v.38l-2.08-.82v-.4l2.08-.82zm3.42.14c0 .7-.5 1.13-1.36 1.13h-.8v1h-.46v-3.24h1.26c.85-.02 1.36.4 1.36 1.1zm-.47 0c0-.46-.3-.73-.9-.73h-.8V237h.8c.6 0 .9-.26.9-.72zm3.1.3v.4l-2.07.82v-.38l1.65-.64-1.65-.63v-.4zm3.94-.43l-1.65.63 1.65.64v.38l-2.08-.82v-.4l2.08-.82zm.8-1h.47v3.24h-.47zm4.45 3.25V236l-1.18 2h-.2l-1.18-2v2.35h-.44v-3.24h.38l1.35 2.28 1.34-2.28h.38v3.24zm3.66-1.65h.45V238a1.92 1.92 0 0 1-1.23.41 1.66 1.66 0 1 1 1.26-2.82l-.3.3a1.28 1.28 0 0 0-.94-.38 1.25 1.25 0 1 0 0 2.5 1.34 1.34 0 0 0 .76-.21zm2.28 1.25l.17-.36a1.67 1.67 0 0 0 1.07.38c.57 0 .8-.22.8-.5 0-.8-2-.3-2-1.5 0-.5.4-.93 1.24-.93a1.9 1.9 0 0 1 1.05.29l-.16.37a1.68 1.68 0 0 0-.89-.27c-.55 0-.8.24-.8.52 0 .8 2 .3 2 1.5 0 .5-.4.92-1.26.92a1.94 1.94 0 0 1-1.24-.41zm5.38.4l-.7-1h-1v1h-.46v-3.24h1.26c.85 0 1.36.42 1.36 1.13a1 1 0 0 1-.72 1l.77 1.1zm0-2.1c0-.46-.3-.73-.9-.73h-.8V237h.8c.54 0 .9-.26.9-.72zm.9.47a1.64 1.64 0 0 1 1.72-1.66 1.61 1.61 0 0 1 1.24.51l-.3.3a1.18 1.18 0 0 0-.91-.39 1.25 1.25 0 1 0 0 2.5 1.21 1.21 0 0 0 .91-.39l.3.3a1.61 1.61 0 0 1-1.24.51 1.64 1.64 0 0 1-1.72-1.66zm3.44-.77h2.08v.36h-2.08zm0 1.1h2.08v.36h-2.08zm3.92-1.95h.4v1.25h-.33zm.84 0h.4v1.25h-.33zm1.17 0h.46V238h1.76v.4h-2.22z"/><use xlink:href="#C" x="10.7" y="48.56"/><path d="M334.2 235.9v.43h-.1a.74.74 0 0 0-.78.83v1.22h-.44v-2.45h.42v.4a1 1 0 0 1 .9-.44zm2.73 1.4h-2a.83.83 0 0 0 .89.72.91.91 0 0 0 .71-.29l.25.28a1.35 1.35 0 0 1-2.3-.86 1.21 1.21 0 0 1 1.24-1.25 1.18 1.18 0 0 1 1.21 1.27zm-2-.32h1.58a.8.8 0 0 0-1.58 0zm6.7.02v1.4h-.44V237c0-.48-.24-.72-.64-.72s-.74.28-.74.82v1.26h-.44V237c0-.48-.23-.72-.64-.72a.72.72 0 0 0-.74.82v1.26h-.44v-2.45h.45v.36a1 1 0 0 1 .84-.39.91.91 0 0 1 .86.46 1.1 1.1 0 0 1 .94-.46 1 1 0 0 1 .99 1.12zm1.97-1.82a.3.3 0 0 1 .31-.3.29.29 0 1 1 0 .58.29.29 0 0 1-.31-.28zm.08.76h.45v2.45h-.45zm3.85 1.22a1.19 1.19 0 0 1-1.24 1.26 1 1 0 0 1-.86-.4v1.27H345v-3.35h.42v.4a1 1 0 0 1 .88-.42 1.19 1.19 0 0 1 1.23 1.25zm-.45 0a.83.83 0 1 0-.83.87.81.81 0 0 0 .83-.87zm.76.97l.18-.35a1.56 1.56 0 0 0 .86.26c.42 0 .6-.13.6-.34 0-.55-1.56-.07-1.56-1 0-.44.4-.74 1-.74a1.75 1.75 0 0 1 .89.23l-.18.35a1.26 1.26 0 0 0-.71-.2c-.4 0-.58.15-.58.34 0 .58 1.55.1 1.55 1.06 0 .45-.4.73-1.06.73a1.68 1.68 0 0 1-.98-.34zm4.92-2.2v2.45h-.42v-.4a1 1 0 0 1-.84.4 1 1 0 0 1-1.06-1.07v-1.4h.45v1.36c0 .48.24.72.66.72a.71.71 0 0 0 .76-.81v-1.27zm4.94 1.06v1.4h-.45V237c0-.48-.23-.72-.63-.72s-.74.28-.74.82v1.26h-.45V237c0-.48-.23-.72-.63-.72s-.74.28-.74.82v1.26h-.44v-2.45h.4v.36a1 1 0 0 1 .85-.39.9.9 0 0 1 .85.46 1.12 1.12 0 0 1 .95-.46 1 1 0 0 1 1.04 1.12zm.67-1.85h.4v1.25h-.33zm.84 0h.4v1.25h-.33z"/><use xlink:href="#B" x="46.43" y="59.7"/><path d="M365 236.14l-1.65.63 1.65.64v.38l-2.1-.8v-.4l2.08-.82zm1.7-1.64h.4l-1.53 4.37h-.4zm3.3 1.78c0 .7-.5 1.13-1.36 1.13h-.8v1h-.47v-3.24h1.27c.88-.02 1.36.4 1.36 1.1zm-.47 0c0-.46-.3-.73-.9-.73h-.8V237h.8c.62 0 .93-.26.93-.72zm3.12.3v.4l-2.08.82v-.38l1.66-.64-1.66-.63v-.4zm-82.2 10.7l-1.64.63 1.64.64v.38l-2.08-.82v-.4l2.08-.82zm1.7-1.66h.4L291 250h-.4zm3.5 3.04c0 .56-.42.88-1.24.88h-1.55v-3.25h1.45c.75 0 1.17.3 1.17.84a.76.76 0 0 1-.44.72.79.79 0 0 1 .61.81zm-2.33-2v1h1c.48 0 .75-.17.75-.52s-.27-.52-.75-.52zm1.86 2c0-.37-.28-.54-.8-.54h-1.07v1.08h1.07c.5-.04.8-.18.8-.58zm.92-.74a1.73 1.73 0 1 1 1.73 1.66 1.65 1.65 0 0 1-1.73-1.66zm3 0a1.26 1.26 0 1 0-1.26 1.25 1.22 1.22 0 0 0 1.25-1.25zm1.16-1.63h1.37a1.63 1.63 0 1 1 0 3.25h-1.37zm1.34 2.84a1.22 1.22 0 1 0 0-2.44h-.88v2.44zm3.58-.7v1.13h-.46v-1.14l-1.3-2.1h.5l1 1.7 1-1.7h.46z"/><use xlink:href="#B" x="-6.98" y="70.83"/><g class="B"><path d="M415.2 160.36c0 .15-32.1.26-71.67.26s-71.68-.1-71.68-.26 32.08-.26 71.68-.26l71.67.26zm-139.05-5.12a.92.92 0 1 1-.92-.92.93.93 0 0 1 .92.92z"/><circle cx="278.77" cy="155.24" r=".92"/><path d="M283.24 155.24a.93.93 0 1 1-.92-.92.93.93 0 0 1 .92.92z"/></g><path d="M281 268.78c-.14 0-.26-24.33-.26-54.33l.26-54.34c.14 0 .26 24.32.26 54.34l-.26 54.33z" class="E"/><path d="M80.2 54.78h59.25v42.24H80.2z" class="C"/><g class="D"><path d="M139.93 61.05c0 .14-13.38.26-29.87.26s-29.88-.12-29.88-.26 13.38-.26 29.88-.26l29.87.26zM85.05 58a.81.81 0 1 1-.8-.7.75.75 0 0 1 .8.7zM88 58a.74.74 0 0 1-.79.7.71.71 0 1 1 .79-.7z"/><ellipse cx="90.06" cy="57.96" rx=".8" ry=".7"/><path d="M102.12 77.9c0 2.54-1.83 4.07-4.86 4.07h-3.2v3.76H92.8V73.8h4.46c3.03 0 4.86 1.53 4.86 4.08zm-1.25 0c0-1.9-1.26-3-3.65-3h-3.16v5.95h3.16c2.4.01 3.65-1.08 3.65-2.95zm13.93-4.1v11.9h-1.24v-5.5h-7.45v5.5h-1.26V73.8h1.26v5.3h7.45v-5.3zm13.2 4.1c0 2.54-1.83 4.07-4.86 4.07h-3.2v3.76h-1.26V73.8h4.46c3.02 0 4.86 1.53 4.86 4.08zm-1.26 0c0-1.9-1.26-3-3.64-3h-3.16v5.95h3.16c2.37.01 3.63-1.08 3.63-2.95z"/></g><path d="M402.4 216.3h53.56v38.18H402.4z" class="C"/><path d="M420.45 234v7.58h-1.75v-3.1h-3.44v3.1h-1.76V234h1.76v3h3.44v-3zm3.37 1.46h-2.43V234h6.6v1.43h-2.43v6.15h-1.75zm5.12-1.46h1.76v6.15h3.8v1.43h-5.56zm13.44 7.6v-4.54l-2.23 3.74h-.8l-2.22-3.65v4.45h-1.65V234h1.45l2.84 4.7 2.8-4.7H444v7.58zm14-19.6c0 .1-12.1.17-27 .17s-27-.08-27-.17 12.1-.17 27-.17l27 .17zm-49.6-2.82a.73.73 0 0 1-1.44 0 .73.73 0 0 1 1.44 0zm2.64 0a.73.73 0 0 1-1.44 0 .73.73 0 0 1 1.44 0zm2.6 0a.73.73 0 1 1-.72-.63.68.68 0 0 1 .72.63z" class="D"/><path d="M51.78 215.76h39.5v28.15h-39.5z" class="C"/><path d="M91.57 219.93c0 .07-8.9.13-19.9.13s-19.9-.06-19.9-.13 8.9-.12 19.9-.12l19.9.12zM55 217.88a.5.5 0 0 1-.53.46.49.49 0 0 1-.53-.46.5.5 0 0 1 .53-.47.5.5 0 0 1 .53.47zm1.94 0a.54.54 0 0 1-1.07 0 .54.54 0 0 1 1.07 0zm1.94 0a.54.54 0 1 1-.54-.47.51.51 0 0 1 .54.47z" class="D"/><g class="C"><path d="M287.05 107.3a7.4 7.4 0 0 1 7.67-7.51 7.07 7.07 0 0 1 5.27 2l-.68.7a6.18 6.18 0 0 0-4.54-1.75 6.51 6.51 0 1 0 0 13 6.2 6.2 0 0 0 4.54-1.78l.68.7a7.09 7.09 0 0 1-5.27 2.07 7.39 7.39 0 0 1-7.67-7.43zm14.95 5.48l.48-.8a7.08 7.08 0 0 0 4.88 1.86c3 0 4.27-1.3 4.27-2.9 0-4.44-9.23-1.77-9.23-7.22 0-2.1 1.6-3.94 5.24-3.94a7.89 7.89 0 0 1 4.46 1.34l-.4.86a7.37 7.37 0 0 0-4.06-1.24c-2.88 0-4.16 1.33-4.16 3 0 4.44 9.23 1.82 9.23 7.2 0 2.1-1.67 3.9-5.33 3.9a7.58 7.58 0 0 1-5.38-2.06zm12.88 0l.5-.8a7.06 7.06 0 0 0 4.88 1.86c3 0 4.27-1.3 4.27-2.9 0-4.44-9.23-1.77-9.23-7.22 0-2.1 1.6-3.94 5.24-3.94a7.94 7.94 0 0 1 4.46 1.34l-.4.86a7.37 7.37 0 0 0-4.06-1.24c-2.88 0-4.17 1.33-4.17 3 0 4.44 9.24 1.82 9.24 7.2 0 2.1-1.67 3.9-5.33 3.9a7.62 7.62 0 0 1-5.39-2.06zm23.32 13.74v-3.04l-.06-8.56-.1-31 .2.2h-65.88l.26-.26v42.56l-.24-.24 61.07.18-13.54.06-47.8.12V83.7h.27l66.1.06V84l-.1 31.1-.05 8.52v2.2c0 .52-.1.7-.1.7z"/><path d="M338.2 90.28c0 .14-14.76.26-33 .26s-33-.12-33-.26S287 90 305.23 90l32.96.28zm-61.03-3.1a.81.81 0 1 1-.8-.7.75.75 0 0 1 .8.7zm2.93 0a.81.81 0 1 1-.8-.7.75.75 0 0 1 .8.7zm2.9 0a.81.81 0 1 1-.8-.7.75.75 0 0 1 .8.7z"/></g><path d="M147.88 272L174 360.13a9.23 9.23 0 0 0 8.84 6.61l106 .3a9.81 9.81 0 0 0 9.82-10.32h0a9.81 9.81 0 0 0-9.79-9.28h-40.53L215.88 257h-56.82a11.66 11.66 0 0 0-11.18 15z" class="F"/><path d="M237.56 354.67c0 .2-10.8.37-24.14.37s-24.13-.16-24.13-.37 10.8-.37 24.13-.37 24.14.16 24.14.37zm-81.88-94.9c.2-.06 7.4 21.05 16.12 47.16l15.4 47.4c-.2.06-7.4-21-16.12-47.16l-15.4-47.4z" class="B"/><g class="F"><path d="M233.15 445.1l-6.46-.15v-78.2h6.46v78.35z"/><path d="M199.86 444.73H260l-27.24-9.47h-6.46l-26.43 9.47z"/></g><g class="C"><path d="M184.65 236.76l9.95 49.7-1.78 37.25 66.88-11.12-2.62-32.6-.08-27 16.4 31.78 12.76-24.67-23.37-42.35a39.47 39.47 0 0 0-15.29-9.9 31.37 31.37 0 0 0-9.59-1.84h0a38.35 38.35 0 0 1-23.15 0l-3.9.44h-.3a29.57 29.57 0 0 0-25.81 27.8z"/><path d="M210.9 206.47s-27.48.2-30.88 29.23l-.46 21.3 23.66-.2z"/></g><path d="M276.54 243.8c0 .2-21.62.38-48.3.38S180 244 180 243.8s21.6-.37 48.3-.37l48.25.37zm0 4.6c0 .2-21.62.37-48.3.37s-48.3-.17-48.3-.37 21.6-.38 48.3-.38l48.3.38zM275 240c0 .2-21.27.38-47.5.38S180 240.2 180 240s21.27-.37 47.52-.37L275 240z" fill="#fafafa"/><path d="M256.67 284.77c-.2 0-.12-11.77.2-26.27l.95-26.26c.2 0 .12 11.77-.2 26.27l-.95 26.26z" class="B"/><path d="M247.27 265.7s13 .93 15.34 4.37 5.9 13.23 4.56 13.3a3.68 3.68 0 0 1-2.34-.73l-3.56-6.32s.57 6.1-1.56 6.22-12.7 2.24-12.7 2.24z" class="H"/><path d="M179.56 251.32l-.05 33.5a12.73 12.73 0 0 0 15.42 11.75l52.4-10.8-.1-21.5L202 273l-.6-22.75z" class="C"/><path d="M209.46 293.9a4.51 4.51 0 0 1 .69-.19l2-.46 7.7-1.63 27.3-5.6-.27.32v-22.07l.44.37-9.22 1.77-36 6.85-.4.08V273l.83-24.16.28-6.75c0-.73.07-1.32.1-1.77a2.7 2.7 0 0 1 .07-.61 4.81 4.81 0 0 1 0 .61v1.78l-.1 6.75-.56 24.16-.38-.3 36-7 9.66-1.85v22.8l-.27.05L220 292l-7.74 1.45-2.05.36a3.47 3.47 0 0 1-.75.08zm30.06-87.43s.1.16.2.5a10.15 10.15 0 0 1 .41 1.48 12.09 12.09 0 0 1-.25 5.64 14.82 14.82 0 0 1-4.54 7 14.14 14.14 0 0 1-9.54 3.61 13 13 0 0 1-9.43-3.83 13.25 13.25 0 0 1-3.51-7.59 11.86 11.86 0 0 1 .66-5.61 7.74 7.74 0 0 1 .67-1.38c.18-.3.28-.45.3-.44s-.32.67-.7 1.92a12.65 12.65 0 0 0-.41 5.44 13 13 0 0 0 3.48 7.18 12.42 12.42 0 0 0 8.94 3.56 13.62 13.62 0 0 0 9.08-3.37 14.63 14.63 0 0 0 4.5-6.66 12.67 12.67 0 0 0 .46-5.44l-.33-2z" class="B"/><path d="M242.05 287.56a15.75 15.75 0 0 1 0-3.31l.2-7.94-.1-7.95a16.25 16.25 0 0 1 0-3.31 13.2 13.2 0 0 1 .5 3.28c.2 2 .34 4.86.32 8l-.4 8a13.55 13.55 0 0 1-.5 3.23zm-2.7.54a16.38 16.38 0 0 1-.09-3.29l.08-7.9V269a15.45 15.45 0 0 1 .12-3.28 13.33 13.33 0 0 1 .41 3.26l.22 7.92-.3 7.92a13.58 13.58 0 0 1-.44 3.29z" fill="#fafafa"/><path d="M291.83 421.25l9.9 27.28 14.06 19.3a3 3 0 0 1-.83 4.27h0a3 3 0 0 1-2.71.23c-5.67-2.35-26.47-11.1-27.1-13.14-.7-2.36-14.14-31.7-14.14-31.7z" class="C"/><path d="M315 472.1l-30.5-14.74.45 1.15a4.54 4.54 0 0 0 2 2.32c2.5 1.35 9.5 4.92 25.23 11.53a3 3 0 0 0 2.79-.26zm-28.4-25.6a1.79 1.79 0 0 1 1.31 2 1.73 1.73 0 0 1-2 1.32 1.89 1.89 0 0 1-1.38-2.14 1.8 1.8 0 0 1 2.21-1.14" opacity=".6" class="D"/><path d="M304.18 462.7a8.91 8.91 0 0 1 1.56-3c1.27-1.42 2.9-1.63 2.88-1.8s-.43-.15-1.1 0a4.76 4.76 0 0 0-3.43 3.74c-.1.66.02 1.07.1 1.07zm3.34 2.87c.17.07.7-1.15 1.94-2.1a22.3 22.3 0 0 1 2.51-1.36c0-.17-1.5-.24-2.9.86s-1.72 2.58-1.55 2.6zm-8.72-6.12c.18.08 1-1.8 2.78-3.43s3.7-2.32 3.65-2.5-2.17.24-4.08 2-2.5 3.9-2.35 3.93zm-3.7-8.05c.13.14 1.38-1.07 3.3-1.9s3.64-1 3.63-1.15-1.84-.34-3.9.57-3.13 2.4-3.04 2.48zm-3.1-7.92c.14.12 1.3-1.36 3.38-2.07s3.9-.3 3.94-.5-.4-.3-1.17-.42a6.5 6.5 0 0 0-5.5 1.92c-.54.58-.74 1-.65 1.06zm2.73-3.56a2.66 2.66 0 0 0-.37-1 7.61 7.61 0 0 0-1.85-2.36 3.36 3.36 0 0 0-1.94-1 1.2 1.2 0 0 0-1.16.74 1.93 1.93 0 0 0 0 1.38 4.2 4.2 0 0 0 4.89 2.32 4.86 4.86 0 0 0 3.54-4.11 1.7 1.7 0 0 0-.43-1.34 1.19 1.19 0 0 0-1.37-.14 4.16 4.16 0 0 0-1.42 1.62 8.69 8.69 0 0 0-1 2.82 2.46 2.46 0 0 0 0 1.1 13.23 13.23 0 0 1 1.46-3.68 3.92 3.92 0 0 1 1.27-1.38.62.62 0 0 1 .75.07 1.16 1.16 0 0 1 .24.89 4.36 4.36 0 0 1-3.11 3.53 3.63 3.63 0 0 1-4.14-1.88 1.39 1.39 0 0 1-.08-1 .65.65 0 0 1 .64-.41 3.05 3.05 0 0 1 1.65.8 11.13 11.13 0 0 1 2.43 3.03z" class="B"/><path d="M333.64 414.1l-.85 22.17s22.24 8.32 22.48 12.43l-43-.12-.12-34.6z" class="C"/><path d="M319.48 434.38a1.76 1.76 0 0 0-1.22 2 1.69 1.69 0 0 0 2 1.23 1.86 1.86 0 0 0 1.28-2.13 1.77 1.77 0 0 0-2.2-1.05m-7.1 14.17v-3.45l41.36 1.38s1.9.84 1.7 2.2z" opacity=".6" class="D"/><path d="M333.48 436.06c0 .2-1.05.3-2.1 1s-1.6 1.56-1.78 1.47.12-1.3 1.4-2.1 2.53-.57 2.48-.38zm4.52 1.88c.05.2-.86.56-1.58 1.45s-.92 1.83-1.13 1.82-.34-1.2.57-2.3 2.14-1.18 2.14-.98zm2.54 5.4c-.2 0-.48-1 .07-2.15s1.52-1.6 1.6-1.43-.52.8-1 1.74-.47 1.82-.68 1.84zM333.12 431c-.1.2-1.05-.1-2.24 0s-2.12.45-2.23.27.8-.93 2.2-1 2.38.56 2.28.73z" class="B"/><path d="M333.47 418.5l-.15 3.95-21.15-.25-.02-3.56 21.32-.14z" class="G"/><g class="B"><path d="M333.2 426.52a4.19 4.19 0 0 1-2.16 0 10.17 10.17 0 0 1-2.25-.7 10 10 0 0 1-1.24-.66 3 3 0 0 1-.65-.51.92.92 0 0 1-.09-1.12 1.16 1.16 0 0 1 .92-.48 2.71 2.71 0 0 1 .81.12 8.43 8.43 0 0 1 1.34.46 7.56 7.56 0 0 1 2 1.31c1 .93 1.34 1.7 1.27 1.76s-.58-.6-1.6-1.36a8.37 8.37 0 0 0-1.92-1.09 7.37 7.37 0 0 0-1.23-.38c-.46-.13-.85-.13-1 .07s-.05.1 0 .24a2.23 2.23 0 0 0 .48.38 11 11 0 0 0 1.14.65 12.11 12.11 0 0 0 2.08.8 13.74 13.74 0 0 1 2.1.51z"/><path d="M332.93 426.82a3.59 3.59 0 0 1-.56-2.09 7.2 7.2 0 0 1 .3-2.36 8 8 0 0 1 .55-1.3 1.8 1.8 0 0 1 1.38-1.07 1 1 0 0 1 .9.6 3.12 3.12 0 0 1 .22.8 4.7 4.7 0 0 1 0 1.45 5 5 0 0 1-.93 2.22c-.84 1.1-1.72 1.36-1.74 1.3s.67-.5 1.3-1.58a4.82 4.82 0 0 0 .69-2 4.4 4.4 0 0 0 0-1.25c-.06-.45-.23-.82-.4-.78s-.58.34-.76.7a7.54 7.54 0 0 0-.54 1.16 7.74 7.74 0 0 0-.42 2.15c-.1 1.23.12 2 0 2.05z"/><path d="M312.2 307.84l-59.14 6.1 4.6 41.4s49.52-13.1 49.17-12 2.3 88.06 2.3 88.06h29.82l.56-98.53a24.77 24.77 0 0 0-27.31-25.01z"/><path d="M192.2 324.54v12.83c0 8.74 9.95 18 18.68 18h6.76c5.32 0 13.66-3.88 18-7l2.58-1.9 31.06 96.2s35.53-6.37 35.53-7.5-24.06-78.8-35.17-114.85c-4.54-14.72-20.3-23.28-34.88-18.3a30.08 30.08 0 0 0-1.49.56c-15.96 6.38-41.07 21.92-41.07 21.92z"/></g><path d="M304.78 435.2a1.79 1.79 0 0 1-.15-.34l-.4-1-1.4-4c-1.2-3.47-2.82-8.54-4.8-14.8l-15.06-49.1-8.1-27.1-3.5-11.83q-.84-2.78-1.6-5.35a47.09 47.09 0 0 0-1.62-4.87 20 20 0 0 0-5-7.11 42.9 42.9 0 0 0-5.26-4.09l-4.5-2.86a1.25 1.25 0 0 1-.31-.22 1.28 1.28 0 0 1 .34.16l1 .52c.85.46 2.1 1.17 3.64 2.16a39.78 39.78 0 0 1 5.38 4 20.14 20.14 0 0 1 5.22 7.2 47.09 47.09 0 0 1 1.68 4.91l1.64 5.35 3.58 11.8 23 76.25 4.58 14.87 1.28 4 .32 1.05c.1.28.07.4.05.4zm7.5-104.32c.18.12-1.5 2.66-2.92 6.1l-2.27 6.4c-.22-.04.1-3.14 1.58-6.68s3.46-5.94 3.6-5.82zm5.72 4c.08.2-2.48 1.33-5.15 3.44s-4.4 4.32-4.57 4.2 1.32-2.6 4.1-4.77 5.54-3.04 5.6-2.86zm-48.42 107.8c-.2.06-8.58-25.68-18.74-57.5l-18-57.73c.22-.06 8.58 25.68 18.74 57.5l18 57.72zm-38.1-150.08l101.65.98L352.08 240l-73.94.5-17.16 48.18-29.5.45v3.47z" class="F"/><path d="M308.54 271.4a4.12 4.12 0 1 1 4.65-3.5 4.12 4.12 0 0 1-4.65 3.5z" class="D"/><path d="M223.17 147.57c1-3.57 3.65-5.32 7.14-6.5a11.48 11.48 0 0 1 10.5 1.7c2 1.5 3.5 3.67 5.84 4.48 3.84 1.33 8.34-1.54 12 .18a5.24 5.24 0 0 1-2.48 10c2.5.92 3.28 4.5 1.82 6.72s-4.47 3.07-7.1 2.58a14.72 14.72 0 0 1-6.89-3.86c-2-1.78-3.76-3.8-5.88-5.42a11.41 11.41 0 0 0-7.36-2.7c-3.6.2-6.7 2.9-8.3 6.15s-2 6.92-2.18 10.53-.26 7.27-1.33 10.72c-.13.4-.32.86-.72 1-.6.18-1.1-.44-1.38-1a53 53 0 0 1-6.05-19.71c-.4-4-.3-7.78 1.9-11.15s7.75-5.84 10.47-3.7" class="B"/><path d="M216.2 164.3l-1.85 40.46c-.3 6.88.64 17.06 11.54 17.06h0c9.46-.72 12.25-9.56 12.54-16l.3-5.9s10.34-.5 11.55-10.66c.58-4.9 1-15.13 1.2-24.37a19.07 19.07 0 0 0-17-19.43l-1-.1c-10.67-.5-17.06 8.27-17.27 18.93z" class="H"/><path d="M238.75,199.8a23.76,23.76,0,0,1-12.86-5.18s2.35,7.65,12.6,7.82Z" fill="#eb996e"/><path d="M247.78 171.42a1.46 1.46 0 0 1-1.56 1.32 1.39 1.39 0 0 1-1.35-1.47 1.46 1.46 0 0 1 1.55-1.32 1.39 1.39 0 0 1 1.36 1.47zm.97-1.74c-.2.17-1.2-.76-2.78-.92s-2.8.5-2.94.3.15-.42.7-.73a4.05 4.05 0 0 1 2.38-.47 3.82 3.82 0 0 1 2.18 1c.44.4.57.76.47.83zm-16.35.64a1.46 1.46 0 0 1-1.56 1.32 1.41 1.41 0 0 1-1.36-1.47 1.48 1.48 0 0 1 1.56-1.32 1.4 1.4 0 0 1 1.36 1.47zm.95-1.98c-.2.17-1.2-.76-2.78-.93s-2.8.5-2.94.3.15-.4.7-.72a4 4 0 0 1 2.38-.47 3.89 3.89 0 0 1 2.18 1c.44.4.57.75.47.83zm4.45 12.2a10.23 10.23 0 0 1 2.59-.19c.4 0 .8 0 .9-.3a2.15 2.15 0 0 0-.14-1.22l-.86-3.16-1.8-8.24c.2-.05 1.3 3.57 2.47 8.07l.8 3.18a2.27 2.27 0 0 1 0 1.59 1 1 0 0 1-.71.52 2.74 2.74 0 0 1-.69 0 10.67 10.67 0 0 1-2.54-.25zm-4.72.6c.25 0 .08 1.7 1.4 3.07s3.15 1.36 3.14 1.6-.44.3-1.2.23a4.28 4.28 0 0 1-2.63-1.25 3.69 3.69 0 0 1-1.06-2.56c.01-.7.28-1.1.36-1.1zm1.32-18.88c-.2.4-1.74 0-3.6.07s-3.4.37-3.6 0c-.08-.2.22-.56.86-.9a6.19 6.19 0 0 1 5.48 0c.64.28.95.65.86.84zm14.26 2.85c-.3.32-1.35-.16-2.64-.32s-2.42 0-2.63-.4c-.1-.2.1-.53.63-.82a3.73 3.73 0 0 1 2.21-.35 3.67 3.67 0 0 1 2 .94c.46.4.57.8.43.96z" class="B"/><path d="M216.23 171.92c-.17-.1-6.77-2.8-7.3 4.17s6.6 6.06 6.62 5.86.67-10.03.67-10.03z" class="H"/><path d="M213.63 179.15s-.13.08-.34.16a1.27 1.27 0 0 1-.91-.05 3.05 3.05 0 0 1-1.2-2.81 4.05 4.05 0 0 1 .47-1.71 1.42 1.42 0 0 1 1-.87.63.63 0 0 1 .69.39c.08.2 0 .34.06.35s.16-.1.13-.4a.74.74 0 0 0-.25-.45.9.9 0 0 0-.66-.23 1.73 1.73 0 0 0-1.35 1 4.19 4.19 0 0 0-.56 1.91c-.06 1.4.56 2.78 1.55 3.15a1.3 1.3 0 0 0 1.12-.11c.22-.16.27-.32.25-.33z" fill="#eb996e"/><path d="M253.85 163a14.81 14.81 0 0 1-12.74-4.33c-2.25-2.36-3.84-5.58-6.84-6.87a8.34 8.34 0 0 0-6.41.19 16 16 0 0 0-5.26 3.9c1.4 5.38-.52 11-2.43 16.23a2.79 2.79 0 0 1-1 1.52c-.9.55-2.07-.08-2.7-.9a8.63 8.63 0 0 1-1.4-4.73 28.69 28.69 0 0 1 1.26-11.28 19.68 19.68 0 0 1 6.4-9.26 18.54 18.54 0 0 1 13.49-3.46 22.75 22.75 0 0 1 12.64 6.09 13.33 13.33 0 0 1 3.75 5.38" class="B"/><path d="M58.32 378.08A18.91 18.91 0 0 1 70 376.65c2.12.35 4.34 1 5.8 2.6s1.72 4.4.06 5.78a5.56 5.56 0 0 1-3.65.92c-3.1 0-6.54-.58-9 1.3-1.42 1.06-2.36 2.83-4 3.35a4 4 0 0 1-4.39-1.95 6.86 6.86 0 0 1-.49-5 7.68 7.68 0 0 1 4-5.55zm-8.17-15.78c2.18 3.1 6.42 2.08 8.38.18s2.8-4.65 3.55-7.28c1.73-6 3.47-12.3 2.2-18.4a10.23 10.23 0 0 0-2.36-5 5.34 5.34 0 0 0-5.06-1.69c-2.13.57-3.46 2.66-4.42 4.65a43.87 43.87 0 0 0-4.34 18.83c0 3 .35 6.22 2.06 8.72m-6 4.47a11.34 11.34 0 0 0 1.77-10.43 20.13 20.13 0 0 0-6.18-9 33.15 33.15 0 0 0-11-6.53 11.86 11.86 0 0 0-5-.84 5.22 5.22 0 0 0-4.17 2.52c-1.16 2.22-.05 4.9 1.16 7.1A84.27 84.27 0 0 0 28 360.72c2.18 2.8 4.67 5.57 8 6.84s6.76 1.12 8.52-1.18" class="C"/><g class="B"><path d="M50 409.27a6.52 6.52 0 0 0 .2-1.41l.38-3.86a55.86 55.86 0 0 1 .86-5.66 44.36 44.36 0 0 1 2.06-6.69 24.73 24.73 0 0 1 3.42-6 12.72 12.72 0 0 1 4.31-3.65 11.62 11.62 0 0 1 3.63-1.13 7 7 0 0 0 1.41-.21 7.14 7.14 0 0 0-1.43 0 10.81 10.81 0 0 0-3.79 1 12.58 12.58 0 0 0-4.55 3.61 24.24 24.24 0 0 0-3.5 6.16 40.82 40.82 0 0 0-2 6.8 47.89 47.89 0 0 0-.76 5.73l-.2 3.9a6.56 6.56 0 0 0-.05 1.42z"/><path d="M50.27 406.3a3 3 0 0 0 0-.65v-1.88l.1-6.9c.14-5.82.64-12.1 1.6-20.92.92-8.3 2.15-18 3.45-24.26.27-1.43.55-2.72.82-3.84l.67-2.9.44-1.83a2.62 2.62 0 0 0 .12-.64 2.37 2.37 0 0 0-.23.61l-.55 1.8c-.22.73-.5 1.75-.77 2.87l-.9 3.83a215.52 215.52 0 0 0-3.62 22.51C50.45 383 50 391 50 396.87l.1 6.9c0 .76.1 1.38.12 1.87a2.46 2.46 0 0 0 .05.65z"/><path d="M50.3 390.76a12.76 12.76 0 0 0 0-2 52.54 52.54 0 0 0-.6-5.32 70.48 70.48 0 0 0-1.71-7.7 63.67 63.67 0 0 0-3.24-9.16 48.93 48.93 0 0 0-9.51-14.8A25.58 25.58 0 0 0 33 349.7l-1-.8-.87-.6a12.35 12.35 0 0 0-1.65-1.06 58.19 58.19 0 0 1 5.41 4.83 51.27 51.27 0 0 1 9.27 14.75 72.46 72.46 0 0 1 3.26 9.07c.85 2.85 1.4 5.46 1.84 7.66l.78 5.27a11.71 11.71 0 0 0 .27 1.94zm-15.02 27.42l1.56 21.34h27.42l1.55-21.34H35.28z"/><path d="M32.63 409.77h36.45v8.4H32.63z"/></g><path d="M32.63 438.7v2.33h35.85v-2.33H32.63zm3.4 6.44l-1.68-4.1h32.84l-1.96 4.1h-29.2z" class="F"/><path d="M65.3 425.16a2.07 2.07 0 0 1-.13.19l-.4.55-1.6 2-.07.1-.07-.1-3.92-5.43h.22l-3.98 5.7-.14-.16-4.58-5.45h.26c-.07.1-.16.2-.25.3l-4.23 5.3-.13-.18-3.86-5.47h.22l-4.84 5.57-.07-.1-1.5-2.5-.38-.67-.12-.23s.07.06.16.2l.43.64 1.56 2.46h-.15l4.7-5.48.1-.14.1.15 3.9 5.44h-.26l4.47-5.62.13.16 4.57 5.46h-.26l4.02-5.6.1.16 3.84 5.48H63l1.67-2 .44-.52c.13-.17.2-.23.2-.22z" class="E"/><path d="M66.2 418c0 .1-6.87.17-15.35.17S35.5 418.1 35.5 418s6.87-.17 15.34-.17l15.35.17z" class="F"/><g class="B"><path d="M67.58 441.27c0 .1-7.47.17-16.67.17s-16.68-.08-16.68-.17 7.47-.17 16.68-.17l16.67.17zm324.12-245.7l-19.05 79.67H378l18.76-79.67h-5.04z"/><path d="M384.4 248c-.34 1.46 8.63 44.9 8.63 44.9h-4.32l-6.77-34.42z"/></g><path d="M358.6 350.33h89.23v94.6H358.6z" class="C"/><g class="B"><path d="M447.82 364.15h4.38v4.38h-4.38zm0 13.9h4.38v4.38h-4.38zm0 13.9h4.38v4.38h-4.38zm0 13.9h4.38v4.38h-4.38z"/><path d="M452.37 393.25a7 7 0 0 1 1.34-.29 21.33 21.33 0 0 1 3.76-.36 10.09 10.09 0 0 1 5.42 1.43 6.26 6.26 0 0 1 3 6 7.55 7.55 0 0 1-1.14 3.43 9 9 0 0 1-2.3 2.44 11.75 11.75 0 0 1-5.22 2.06 16.93 16.93 0 0 1-3.77.13 6 6 0 0 1-1.37-.19 8.53 8.53 0 0 1 1.37 0 19.94 19.94 0 0 0 3.71-.29 11.71 11.71 0 0 0 5-2.08 7.69 7.69 0 0 0 3.21-5.53 5.8 5.8 0 0 0-2.75-5.56 9.93 9.93 0 0 0-5.17-1.46 26 26 0 0 0-3.72.19 6.7 6.7 0 0 1-1.37.08z"/><path d="M451.28 379.42a1.84 1.84 0 0 1 .41-.25 9.06 9.06 0 0 1 1.3-.52 10.23 10.23 0 0 1 5.13-.29 4.68 4.68 0 0 1 1.63.65 2.83 2.83 0 0 1 1.15 1.56 4.75 4.75 0 0 1-2.85 5.35 2.91 2.91 0 0 1-2.41-.13 2.47 2.47 0 0 1-1.39-2.1 2.52 2.52 0 0 1 1.42-2.17 3.84 3.84 0 0 1 2.55-.27 5.42 5.42 0 0 1 2.23 1.06 6 6 0 0 1 2.22 4 5.58 5.58 0 0 1-1.14 4 8.08 8.08 0 0 1-2.74 2.31 13 13 0 0 1-5 1.3l-1.4.07a1.56 1.56 0 0 1-.49 0l1.86-.24a13.87 13.87 0 0 0 4.82-1.42 7.85 7.85 0 0 0 2.57-2.25 5.21 5.21 0 0 0 1-3.65 5.53 5.53 0 0 0-2.06-3.63 4.79 4.79 0 0 0-2-.95 3.41 3.41 0 0 0-2.21.22 2 2 0 0 0-1.14 1.71 2 2 0 0 0 1.11 1.65 2.37 2.37 0 0 0 2 .11 3.9 3.9 0 0 0 1.65-1.2 4.06 4.06 0 0 0 1-3.56 3 3 0 0 0-2.45-2 10.56 10.56 0 0 0-5 .12c-1.17.25-1.76.57-1.78.52z"/><path d="M451.32 365.85a2.37 2.37 0 0 1 1-.18 7 7 0 0 1 2.68.33 7.56 7.56 0 0 1 3.33 2.25 7.35 7.35 0 0 1 1.73 4.6 7.45 7.45 0 0 1-1.44 4.7 7.54 7.54 0 0 1-3.22 2.45 7 7 0 0 1-2.65.54 2.31 2.31 0 0 1-1-.12 9.88 9.88 0 0 0 3.48-.75 7.49 7.49 0 0 0 2.95-2.4 7.29 7.29 0 0 0-.26-8.7 7.63 7.63 0 0 0-3.09-2.21 9.85 9.85 0 0 0-3.51-.51z"/><path d="M385.1 300.07a8.61 8.61 0 0 1 .75 1.77 33.75 33.75 0 0 1 1.19 5.37l1 8.64 1.13 11.46a49.01 49.01 0 0 0 .53 3.22 14.18 14.18 0 0 0 1 3.22 11.75 11.75 0 0 0 2.19 2.7 17.1 17.1 0 0 0 10.09 4.68 14.2 14.2 0 0 0 7.88-1.36 9.55 9.55 0 0 0 5.09-6.4 7.35 7.35 0 0 0-.3-4.25 7.51 7.51 0 0 0-2.77-3.35 8.32 8.32 0 0 0-4.22-1.4 6.67 6.67 0 0 0-4.27 1.25 4.68 4.68 0 0 0-1.45 1.71 3.49 3.49 0 0 0-.28 2.18 5.27 5.27 0 0 0 2.77 3.52 12.75 12.75 0 0 0 4.56 1.26 42.11 42.11 0 0 0 4.74.33 75.4 75.4 0 0 0 9.32-.52c6.08-.68 12-1.66 17.63-1.72s11.14.72 15.7 3a18.5 18.5 0 0 1 5.84 4.37 13.39 13.39 0 0 1 3 6 16.16 16.16 0 0 1-1.75 11.25 18.93 18.93 0 0 1-5.93 6.33 22.34 22.34 0 0 1-4.9 2.5 15.14 15.14 0 0 1-1.84.55l.46-.17a35.48 35.48 0 0 0 1.34-.48 23.09 23.09 0 0 0 4.83-2.57 18.94 18.94 0 0 0 5.79-6.3 16 16 0 0 0 1.63-11 13.23 13.23 0 0 0-3-5.82 18.1 18.1 0 0 0-5.73-4.24c-4.5-2.18-9.9-3-15.5-2.87s-11.48 1.05-17.6 1.74a72.3 72.3 0 0 1-9.38.54 43.17 43.17 0 0 1-4.8-.33 13.19 13.19 0 0 1-4.74-1.32 5.81 5.81 0 0 1-3-3.88 4.05 4.05 0 0 1 .32-2.5 5.21 5.21 0 0 1 1.61-1.9 7.2 7.2 0 0 1 4.6-1.36 8.91 8.91 0 0 1 4.49 1.5 8 8 0 0 1 2.95 3.58 7.88 7.88 0 0 1 .32 4.55 10 10 0 0 1-5.36 6.71 14.58 14.58 0 0 1-8.15 1.39 17.27 17.27 0 0 1-7.38-2.54 17.1 17.1 0 0 1-2.95-2.29 12 12 0 0 1-2.26-2.82 14.48 14.48 0 0 1-1-3.33q-.32-1.65-.5-3.24c-.52-4.25-.77-8.1-1.06-11.48s-.57-6.28-.9-8.64a36.24 36.24 0 0 0-1.09-5.37 12.93 12.93 0 0 0-.47-1.35 4.57 4.57 0 0 1-.17-.52zM442.75 441v-6.3l-.06-17.72-.12-62.9.23.23h-80.65l.26-.26v86.92l-.22-.22 79.2.17-4.4.08-16.33.06-58.82.1V353.8H443v.18l-.18 86.5c0 .28-.07.5-.07.5z"/><use xlink:href="#I"/><use xlink:href="#I" x="2.3"/><use xlink:href="#I" x="4.6"/><path d="M426.87 364.73a.42.42 0 1 1-.42-.41.42.42 0 0 1 .42.41z"/><use xlink:href="#J"/><use xlink:href="#J" x="2.28"/><use xlink:href="#J" x="4.55"/><circle cx="432.24" cy="366.27" r=".41"/><circle cx="429.91" cy="366.27" r=".41"/><use xlink:href="#K"/><circle cx="425.25" cy="366.27" r=".41"/><circle cx="422.91" cy="366.27" r=".41"/><use xlink:href="#L"/><use xlink:href="#K" x="-8" y="1.73"/><use xlink:href="#K" x="-5.7" y="1.73"/><use xlink:href="#K" x="-3.4" y="1.73"/><path d="M426.87,368a.42.42,0,0,1-.83,0,.42.42,0,1,1,.83,0Z"/><use xlink:href="#L" x="8.15" y="1.73"/><use xlink:href="#L" x="10.43" y="1.73"/><use xlink:href="#L" x="12.7" y="1.73"/><use xlink:href="#M"/><use xlink:href="#N"/><use xlink:href="#N" x="-2.32"/><use xlink:href="#N" x="-4.66"/><path d="M423.33,369.53a.42.42,0,1,1-.83,0,.42.42,0,0,1,.83,0Z"/><use xlink:href="#M" x="-11.66"/><use xlink:href="#N" x="-10.32" y="1.73"/><use xlink:href="#N" x="-8.02" y="1.73"/><use xlink:href="#N" x="-5.72" y="1.73"/><path d="M426.87,371.26a.42.42,0,1,1-.83,0,.42.42,0,0,1,.83,0Z"/><use xlink:href="#M" x="-3.51" y="1.73"/><use xlink:href="#M" x="-1.23" y="1.73"/><use xlink:href="#M" x="1.04" y="1.73"/><circle cx="432.24" cy="372.8" r=".41"/><circle cx="429.91" cy="372.8" r=".41"/><path d="M428 372.8a.41.41 0 0 1-.41.41.42.42 0 1 1 0-.83.41.41 0 0 1 .41.42z"/><circle cx="425.25" cy="372.8" r=".41"/><circle cx="422.91" cy="372.8" r=".41"/><path d="M421 372.8a.42.42 0 0 1-.42.41.42.42 0 0 1 0-.83.42.42 0 0 1 .42.42z"/></g><g class="E"><path d="M388.5 271.3a5.23 5.23 0 0 1 1.62.29 9.09 9.09 0 0 1 3.94 2.57 17.15 17.15 0 0 1 3.49 6.6 65.44 65.44 0 0 1 2.19 9.67 122 122 0 0 1 .64 25.75 15.11 15.11 0 0 1-2.24 7.14 9.19 9.19 0 0 1-2.82 2.73 6.32 6.32 0 0 1-3.9.93 6.06 6.06 0 0 1-3.71-1.73 4.53 4.53 0 0 1-1.09-1.81 3.84 3.84 0 0 1 0-2.15 4.61 4.61 0 0 1 2.79-3.15 3.29 3.29 0 0 1 2.21 0 3.94 3.94 0 0 1 1.76 1.33 5.46 5.46 0 0 1 1 4.14 11.26 11.26 0 0 1-1.45 3.94 15.23 15.23 0 0 1-20.5 5.94 17.4 17.4 0 0 1-5.4-4.65 22.78 22.78 0 0 1-3.33-5.83 38.5 38.5 0 0 1-2.19-11.8l-.35-9.88a16.89 16.89 0 0 0-.93-3.9 11.13 11.13 0 0 0-1.67-2.92 8.41 8.41 0 0 0-3.72-2.75 12 12 0 0 0-1.59-.38 5.31 5.31 0 0 1 1.63.29 8.18 8.18 0 0 1 3.83 2.71 11.08 11.08 0 0 1 1.75 3 16.88 16.88 0 0 1 1 4c.4 2.9.2 6.24.43 9.9a38.46 38.46 0 0 0 2.23 11.67 22.46 22.46 0 0 0 3.23 5.74 17 17 0 0 0 5.27 4.51 14.75 14.75 0 0 0 19.82-5.78 10.74 10.74 0 0 0 1.38-3.75 4.92 4.92 0 0 0-.87-3.76 3.56 3.56 0 0 0-1.53-1.16 2.76 2.76 0 0 0-1.86 0 4.1 4.1 0 0 0-2.46 2.79 3.59 3.59 0 0 0 1 3.47 5.53 5.53 0 0 0 3.39 1.58 5.8 5.8 0 0 0 3.59-.85 8.65 8.65 0 0 0 2.67-2.58 14.65 14.65 0 0 0 2.17-6.91 123.82 123.82 0 0 0-.52-25.65 67 67 0 0 0-2.11-9.63 17.1 17.1 0 0 0-3.36-6.55 9.12 9.12 0 0 0-3.82-2.61 12.17 12.17 0 0 0-1.61-.5z"/><path d="M347.43 285.76h33.22v6.33h-33.22z"/></g><path d="M97.52 351.2h43.33v93.27H97.52z" class="B"/><path d="M137.13 434.65v-6.03l-.07-16.66-.12-57.53.25.24h-36.25l.26-.26-.07 80.22-.2-.2 33.78.15h-7.2l-26.77.1v-.2l-.08-80.48h36.77v.25l-.2 79.84c0 .27-.13.54-.13.54zm-2.23-73.43v-1l-.06-2.7.1.1-31.52.15.26-.26v3.67l-.25-.26 22.32.1 6.7.07h1.83a3.3 3.3 0 0 1 .66 0 4.08 4.08 0 0 1-.59 0h-1.78l-6.64.07-22.77.1v-3.93l.27-.26 31.56.15v.1l-.06 2.77a8.53 8.53 0 0 1-.05 1.09zm-28.36 2.64c0 .14-.65.26-1.45.26s-1.46-.12-1.46-.26.65-.26 1.46-.26 1.45.1 1.45.26zm27.5 4.8c0 .14-6.7.26-15 .26s-15-.12-15-.26 6.7-.26 15-.26 15 .12 15 .26zm.13 5.8c0 .15-6.6.26-14.73.26s-14.73-.1-14.73-.26 6.6-.26 14.73-.26 14.73.12 14.73.26z" class="F"/><circle cx="119.06" cy="388.07" r="2.38" class="C"/><path d="M112.34 388a10.14 10.14 0 0 1-3.19.26A10.05 10.05 0 0 1 106 388a9.72 9.72 0 0 1 3.18-.26 9.81 9.81 0 0 1 3.16.26zm19.36-.66a8.91 8.91 0 0 1-3 .26 8.88 8.88 0 0 1-3-.26 9.18 9.18 0 0 1 3-.26 9.22 9.22 0 0 1 3 .26z" class="F"/><g class="B"><path d="M99 398a9.25 9.25 0 0 1-1.62-.3 14.19 14.19 0 0 1-4.29-2 18.38 18.38 0 0 1-5.17-5.39 31.16 31.16 0 0 1-3.77-9.16A37.4 37.4 0 0 1 83 369.22a24.5 24.5 0 0 1 4.55-12.94 20.42 20.42 0 0 1 5.43-5.16 18.9 18.9 0 0 1 3.49-1.73 19.39 19.39 0 0 1 3.86-.92c2.64-.37 5.34-.32 8-.48a19.92 19.92 0 0 0 7.91-1.82 8.88 8.88 0 0 0 4.92-6 8.43 8.43 0 0 0-8.42-10.3 6 6 0 0 0-3.34 1.24 3.62 3.62 0 0 0-1.4 3 4.85 4.85 0 0 0 4.46 4.31 7.35 7.35 0 0 0 5.72-2.57 13.76 13.76 0 0 0 2.82-5.45 47 47 0 0 0 1.15-5.61 92.48 92.48 0 0 0 .53-17.31l-.24-4.7q0-.78-.06-1.23a2.21 2.21 0 0 1 0-.42 2.29 2.29 0 0 1 .06.42c0 .3.06.7.1 1.22l.33 4.7a88.2 88.2 0 0 1-.37 17.37 46.56 46.56 0 0 1-1.13 5.67 14.19 14.19 0 0 1-2.83 5.61 7.76 7.76 0 0 1-6.07 2.73 5.3 5.3 0 0 1-4.91-4.74 4.13 4.13 0 0 1 1.57-3.42 6.38 6.38 0 0 1 3.61-1.35 9 9 0 0 1 7.09 14.66 10.3 10.3 0 0 1-3.35 2.61 20.41 20.41 0 0 1-8.12 1.88l-8 .46a19.44 19.44 0 0 0-3.76.89 17.84 17.84 0 0 0-3.39 1.68 20.12 20.12 0 0 0-5.32 5 24.16 24.16 0 0 0-4.5 12.68 37.41 37.41 0 0 0 1.12 11.83 31.49 31.49 0 0 0 3.66 9.09 18.34 18.34 0 0 0 5 5.38 14.78 14.78 0 0 0 4.21 2.06l1.18.3a1.82 1.82 0 0 1 .43.14zM84.25 206.5h102.6v70.46H84.25z"/><path d="M127.62 267.36h13.97v26.58h-13.97z"/><path d="M94.46 292.92v9.56h52.94v142.46h4.87V302.48l221.1 1.1v141.37h4.78V303.3l34.12.27v-11.5l-317.8.83z"/><path d="M128.34 300.62l20.87 15.03-1.8 1.74-21.05-15.85 2-.92zm269.46 1.4l-24.22 17.25 1.82 1.74 24.4-18.07-2-.92zM171.44 289.4h54.72v4.03h-54.72z"/></g><defs ><path id="B" d="M315.85 176.87v.4l-2.08.82v-.38l1.65-.64-1.65-.63v-.4z"/><path id="C" d="M319 188.6a1.28 1.28 0 1 1 1.28 1.26 1.22 1.22 0 0 1-1.28-1.26zm2.1 0a.83.83 0 1 0-1.65 0 .83.83 0 1 0 1.65 0z"/><path id="D" d="M303.1 220.5a1.24 1.24 0 1 1 1.24 1.25 1.2 1.2 0 0 1-1.24-1.25zm2.14 0a.91.91 0 1 0-.9.95.89.89 0 0 0 .9-.95z"/><path id="E" d="M345.8 221.43l.15-.26a1.41 1.41 0 0 0 .87.28c.46 0 .65-.16.65-.4 0-.64-1.58-.14-1.58-1.1 0-.4.34-.7 1-.7a1.68 1.68 0 0 1 .87.23l-.15.27a1.24 1.24 0 0 0-.72-.21c-.44 0-.63.17-.63.4 0 .66 1.58.16 1.58 1.1 0 .42-.37.7-1 .7a1.58 1.58 0 0 1-1.04-.31z"/><path id="F" d="M362.53 220.6h-2a.91.91 0 0 0 1 .85 1 1 0 0 0 .75-.32l.18.22a1.19 1.19 0 0 1-.94.4 1.21 1.21 0 0 1-1.28-1.25 1.19 1.19 0 1 1 2.38 0s-.1.07-.1.1zm-2-.24h1.73a.87.87 0 0 0-1.73 0z"/><path id="G" d="M375.05 220.3v1.4h-.33v-1.38a.68.68 0 0 0-.73-.78.8.8 0 0 0-.86.88v1.28h-.33v-2.44h.32v.45a1 1 0 0 1 .93-.47.94.94 0 0 1 1 1.05z"/><path id="H" d="M294.33,224.06a.24.24,0,0,1,.24-.23.24.24,0,0,1,.25.23.25.25,0,0,1-.49,0Zm.08.77h.33v2.44h-.33Z"/><path id="I" d="M420 364.73a.41.41 0 0 1-.41.42.42.42 0 1 1 0-.83.41.41 0 0 1 .41.41z"/><path id="J" d="M429.15 364.73a.42.42 0 0 1-.42.42.42.42 0 0 1 0-.83.42.42 0 0 1 .42.41z"/><path id="K" d="M428 366.27a.41.41 0 0 1-.41.41.41.41 0 0 1-.42-.41.42.42 0 0 1 .42-.42.41.41 0 0 1 .41.42z"/><path id="L" d="M421 366.27a.41.41 0 0 1-.42.41.41.41 0 0 1-.41-.41.41.41 0 0 1 .41-.42.42.42 0 0 1 .42.42z"/><path id="M" d="M432.66 369.53a.42.42 0 0 1-.42.42.41.41 0 0 1-.41-.42.41.41 0 0 1 .41-.41.41.41 0 0 1 .42.41z"/><path id="N" d="M430.32 369.53a.41.41 0 0 1-.41.42.42.42 0 0 1-.42-.42.41.41 0 0 1 .42-.41.41.41 0 0 1 .41.41z"/></defs></svg>