<svg xmlns="http://www.w3.org/2000/svg" viewBox="0 0 500 500" xmlns:v="https://vecta.io/nano"><style><![CDATA[.B{fill:#263238}.C{fill:#e0e0e0}.D{fill:#455a64}.E{fill:#fff}.F{fill:#ebebeb}.G{fill:#4550e6}.H{fill:#f5f5f5}.I{fill:#eb996e}.J{fill:#d1734a}]]></style><path d="M451.23 87.06v65.68h-94.35l-3.4-65.22 97.75-.46z" class="C"/><path d="M353.48 152.6V87.5h94.35v65.1z" class="E"/><path d="M448.27 153.05H353v-66h95.24zm-94.34-.9h93.45V88h-93.45z" class="C"/><path d="M363.7 95.6h73.9v48.92h-73.9z" class="E"/><g class="C"><path d="M437.6 95.6h-5.48l-15.23.06-53.2.1.2-.22v48.9l-.23-.23h73.9l-.2.2.1-35.6.05-9.92.05 9.8.1 35.9h-.18l-74.14.05V95.3h.22l73.9.16z"/><path d="M353.48 87.33a8.19 8.19 0 0 1 1.62 1l3.7 2.82 3.55 3a7.41 7.41 0 0 1 1.35 1.38 65.13 65.13 0 0 1-5.19-4 50.34 50.34 0 0 1-5.03-4.2zm94.35.2a46.46 46.46 0 0 1-5 4.22 46.26 46.26 0 0 1-5.25 3.86 45.69 45.69 0 0 1 5-4.22 43.07 43.07 0 0 1 5.25-3.86z"/></g><path d="M447.75 152.6l-10.52-8.52" class="E"/><g class="C"><path d="M437.23 144.1a50.41 50.41 0 0 1 5.41 4.08 51 51 0 0 1 5.11 4.44 48.83 48.83 0 0 1-5.41-4.08 49.55 49.55 0 0 1-5.11-4.44zm-83.75 8.5a43.48 43.48 0 0 1 4.91-4.19 44.94 44.94 0 0 1 5.2-3.81 45.35 45.35 0 0 1-4.91 4.18 44.82 44.82 0 0 1-5.2 3.82zm25.22-25.38v-16.38h46.5v16.38zM190.4 50.24s-.08 0-.23-.07l-.67-.26-2.52-1-9.24-4-31.46-13.7h.22l-29.8 12.74-9 3.78-2.46 1a5.25 5.25 0 0 1-.87.31 6.6 6.6 0 0 1 .83-.41l2.4-1.1 9-4 29.84-12.94.1.05 1.05.46 30.34 13.4 9.18 4.12 2.48 1.14.64.3a1.72 1.72 0 0 1 .15.18z"/><path d="M42.55 45.88h195.3V192.1H42.55z"/></g><path d="M49.38 52.68h182.37V186.1H49.38z" fill="#fafafa"/><path d="M89.66 111s.2 22.4 1.33 29.23l28.1-1.33s-2.47-22-1.52-27.9z" class="C"/><g class="E"><path d="M103.5 114.14h.4a6.62 6.62 0 0 1 1.17.06 6.72 6.72 0 0 1 1.79.53 6 6 0 0 1 1.94 1.54 6.84 6.84 0 0 1 1.35 2.71 6.54 6.54 0 0 1-.3 3.47 10.66 10.66 0 0 1-.79 1.73l-.9 1.75a14.93 14.93 0 0 0-1.13 4v.1h-.1l-2.77.05h-3V130a8.3 8.3 0 0 0-1.34-3.84l-1.06-1.66c-.35-.55-.7-1-1-1.6a5.37 5.37 0 0 1-.44-3.42 7.22 7.22 0 0 1 1.08-2.8 5.61 5.61 0 0 1 1.83-1.65 6.85 6.85 0 0 1 1.72-.66 7.42 7.42 0 0 1 1.15-.19h0a8 8 0 0 0-1.13.22 6.92 6.92 0 0 0-1.69.69 5.37 5.37 0 0 0-1.76 1.63 7.11 7.11 0 0 0-1 2.75 5.24 5.24 0 0 0 .44 3.31 18.68 18.68 0 0 0 1 1.59l1.06 1.66a8.46 8.46 0 0 1 1.38 3.94l-.1-.1h5.68l-.1.1a15.18 15.18 0 0 1 1.16-4.05c.27-.62.6-1.2.9-1.77a9 9 0 0 0 .78-1.7A6.28 6.28 0 0 0 110 119a6.64 6.64 0 0 0-1.29-2.65 5.93 5.93 0 0 0-1.88-1.53 6.52 6.52 0 0 0-1.75-.55 8.84 8.84 0 0 0-1.16-.1h-.4zm1.44 15.6a.66.66 0 0 1 0-.09v-.26c0-.23-.1-.57-.16-1l-.44-3.7c0-.4 0-.8-.07-1.23s0-.88 0-1.35a3.7 3.7 0 0 1 .32-1.4 2.07 2.07 0 0 1 1.07-1.07 1.41 1.41 0 0 1 1.53.29 1.09 1.09 0 0 1 .33.77 1.37 1.37 0 0 1-.29.8 1.75 1.75 0 0 1-.68.55 3.36 3.36 0 0 1-.83.27 9.51 9.51 0 0 1-1.77.21 10.63 10.63 0 0 1-1.79-.09 3 3 0 0 1-.84-.24 2.23 2.23 0 0 1-.71-.5 1.63 1.63 0 0 1-.41-.75 1.34 1.34 0 0 1 .1-.84 1.13 1.13 0 0 1 .59-.57 1.05 1.05 0 0 1 .8 0 1.48 1.48 0 0 1 .6.51 2 2 0 0 1 .29.7 7.9 7.9 0 0 1 .15 1.43c0 .92.1 1.78.13 2.57l.2 3.73v1.26a.62.62 0 0 1 0 .09.31.31 0 0 1 0-.09v-.26c0-.1 0-.57-.07-1 0-.88-.12-2.16-.2-3.73 0-.78-.1-1.64-.15-2.57a8.75 8.75 0 0 0-.14-1.42 2.1 2.1 0 0 0-.29-.67 1.53 1.53 0 0 0-.56-.48 1 1 0 0 0-1.28.53 1.16 1.16 0 0 0-.1.78 1.56 1.56 0 0 0 .39.71 2.59 2.59 0 0 0 1.51.72 11.15 11.15 0 0 0 3.52-.12 3.43 3.43 0 0 0 .82-.27 1.81 1.81 0 0 0 .64-.52 1.25 1.25 0 0 0 .27-.75.94.94 0 0 0-.3-.71 1.35 1.35 0 0 0-1.44-.28 2.07 2.07 0 0 0-1 1 3.75 3.75 0 0 0-.32 1.38v1.33l.06 1.24.42 3.7c0 .44.1.77.13 1v.26a.31.31 0 0 0-.01.14z"/><path d="M101.24 129.9s0 .35.07.93.08 1.5.13 2.43v-.06l1.9 2.18h-.1l2.18-.12h-.1l1.1-1.33.54-.67v.1l-.1-3.6.12.1h-5.7a2 2 0 0 1 .39 0l1.15-.06 4.16-.16h.1v.12l.1 3.6-1.63 2-2.2.1h-.06l-1.85-2.2v-2.5a5.49 5.49 0 0 1-.23-.85z"/><path d="M106.88 133.05l-.2-.1a5 5 0 0 0-.57-.22 5.4 5.4 0 0 0-2-.3 5.49 5.49 0 0 0-1.95.42 5 5 0 0 0-.55.26l-.2.1a.59.59 0 0 1 .19-.13 4.8 4.8 0 0 1 .54-.29 5.36 5.36 0 0 1 2-.45 5.52 5.52 0 0 1 2 .33 4.64 4.64 0 0 1 .56.25 1.25 1.25 0 0 1 .2.12zm0-.87l-.2-.1-.57-.23a5.52 5.52 0 0 0-3.92.12l-.56.26-.2.1.2-.13a4.22 4.22 0 0 1 .54-.28 5.17 5.17 0 0 1 2-.45 5 5 0 0 1 2 .33 4.24 4.24 0 0 1 .57.25 1 1 0 0 1 .16.12zm-.05-.84s-.08 0-.2-.08-.32-.14-.57-.23a5.67 5.67 0 0 0-2-.3 5.44 5.44 0 0 0-2 .42l-.56.26a.72.72 0 0 1-.2.1l.2-.13a3.23 3.23 0 0 1 .54-.28 5.3 5.3 0 0 1 2-.46 5.46 5.46 0 0 1 2 .33 4.5 4.5 0 0 1 .56.26z"/></g><path d="M58.37 74.35s.2 22.4 1.33 29.23l28.1-1.32s-2.47-22-1.52-27.9z" class="F"/><path d="M82 83.76a81 81 0 0 1-9.41.84 81 81 0 0 1-9.44.3 79.57 79.57 0 0 1 9.41-.85 82.16 82.16 0 0 1 9.44-.29zm.05 4.74a84 84 0 0 1-9.41.84 82.18 82.18 0 0 1-9.44.29 81 81 0 0 1 9.41-.84 79.52 79.52 0 0 1 9.44-.29zm-4.78 4.66a25.87 25.87 0 0 1-5.35.6 26.65 26.65 0 0 1-5.39 0 26.76 26.76 0 0 1 5.36-.6 26.57 26.57 0 0 1 5.38 0z" class="E"/><path d="M57 140.25s.2 22.4 1.33 29.23l28.1-1.33s-2.47-22-1.52-27.9z" class="F"/><path d="M80.7 149.66a83.7 83.7 0 0 1-9.41.84 82.16 82.16 0 0 1-9.44.29 81 81 0 0 1 9.41-.84 77 77 0 0 1 9.44-.29zm.02 4.74a81.28 81.28 0 0 1-9.41.84 79.54 79.54 0 0 1-9.44.29 81 81 0 0 1 9.41-.84 82.16 82.16 0 0 1 9.44-.29zm-4.78 4.66a26.72 26.72 0 0 1-5.35.6 27.05 27.05 0 0 1-5.39 0 26.36 26.36 0 0 1 5.36-.59 26.57 26.57 0 0 1 5.38-.01z" class="E"/><path d="M133.8 80.3l2.78 64.6 80.65.97-3.62-64.72-79.8-.85z" class="F"/><path d="M132.88 79.83H213v60.5h-80.1z" class="H"/><path d="M213 140.32v-4.35l-.05-12.24-.12-43.9.22.22h-80.1l.27-.27v60.5l-.25-.25 57.78.12 16.54.07-16.38.06-58.2.12V79.37h80.6v.23l-.18 59.37c0 .74-.15 1.35-.15 1.35z" class="C"/><path d="M142.54 92.64H175v40.87h-32.47z" class="H"/><path d="M175 133.5a1.66 1.66 0 0 1 0-.21v-2.8l-.07-8.4-.12-29.46.24.25h-32.47c-.06.06.52-.52.28-.27h0v40.85l-.23-.23 23.5.12 6.6.06h2.36a3.67 3.67 0 0 1-.56 0h-1.7l-6.54.06-23.9.12V92.66l.28-.28h32.72v.24l-.12 29.62-.07 8.33q0 1.4 0 2.2v.55c0 .14-.2.2-.2.2z" class="C"/><path d="M143.78 83.3H206v5.9h-62.23z" class="H"/><path d="M206 89.18a1.87 1.87 0 0 1 0-.4v-1.15l-.06-4.34.1.1-62.23.17.28-.28v5.87l-.28-.28 57.45.2-13.17.08-44.6.1V83.3l.27-.27 62.34.16v.1q0 2.85-.06 4.4v1.12c0 .3-.06.35-.06.34z" class="C"/><path d="M179 92.64h27.03v24.63H179z" class="H"/><path d="M206 117.27a3.16 3.16 0 0 1 0-.47v-1.34l-.06-5-.12-17.8.24.24h-27l.27-.27v24.66l-.33-.3 19.5.12 5.53.07h2a2.56 2.56 0 0 1-.47 0h-1.43l-5.48.06-19.9.13V92.65l.28-.28h27.23v.23l-.12 18-.06 5q0 .8 0 1.3a1.75 1.75 0 0 1-.09.38z" class="C"/><path d="M179 121.13h27.03v12.38H179z" class="H"/><path d="M206 133.5a6 6 0 0 1 0-.9v-2.48l-.1-9 .2.2-27 .08c-.25.25.33-.34.27-.27h0v12.35l-.26-.26 19.33.12 5.63.08h2.07a2.83 2.83 0 0 1-.49 0h-1.46l-5.58.07-19.5.12h-.26V121c-.06 0 .53-.53.28-.28l27.2.07v.2l-.1 9.12-.05 2.44a6.09 6.09 0 0 1-.16.96z" class="C"/><path d="M174.2 92.7c-10.05 13.9-21.62 26.92-31.67 40.8" class="E"/><path d="M142.54 133.5a1.72 1.72 0 0 1 .27-.45l.84-1.25 3.25-4.48c2.8-3.76 6.8-8.84 11.26-14.4l11.38-14.28 3.38-4.37.93-1.2c.22-.26.34-.4.36-.4a1.84 1.84 0 0 1-.27.46l-.84 1.24c-.75 1.08-1.86 2.6-3.25 4.5-2.8 3.75-6.8 8.83-11.26 14.4l-11.38 14.27-3.38 4.38-.93 1.18c-.25.32-.34.4-.36.4z" class="C"/><path d="M142.54 92.64L175 133.5" class="E"/><path d="M175 133.5c-.12.1-7.48-9-16.45-20.26l-16-20.6c.14-.1 7.48 9 16.45 20.27l16 20.6zm-38.4-40.77a5.08 5.08 0 1 1-5.08-5.08 5.08 5.08 0 0 1 5.08 5.08zm83.08-12.33a5.08 5.08 0 1 1-5.08-5.08 5.08 5.08 0 0 1 5.08 5.08z" class="C"/><path d="M367.1,432.66v22.77h-3.8v2.48h3.8v15.24h71.07V459.28h-5.26v-3h5.26v-4.53h2.34v-2.06h-2.78v-17Z" class="H"/><g class="C"><path d="M419.3 432.73v40.16h18.87v-13.87h-5.26v-2.76l5.26.1v-4.53h2.4l-.05-2.34-2.78-.07v-16.75l-18.43.07z"/><path d="M420.64 457.58c0 .14-12.86.25-28.72.25s-28.72-.1-28.72-.25 12.86-.25 28.72-.25l28.72.25zm0-2.3c0 .14-12.86.25-28.72.25s-28.72-.1-28.72-.25 12.86-.26 28.72-.26l28.72.26zm3.7-6.27c0 .14-12.86.25-28.72.25s-28.72-.1-28.72-.25 12.86-.25 28.72-.25l28.72.25zm.37 17c0 .14-12.86.26-28.72.26s-28.73-.12-28.73-.26 12.86-.25 28.73-.25l28.72.25z"/></g><path d="M152.52 360.4h54.22a6.9 6.9 0 0 0 6.9-6.9v-16.7A11.64 11.64 0 0 0 202 325.16h-49.9zm53.3 10.52H99.22a5.26 5.26 0 0 1-5.22-5.25h0a5.27 5.27 0 0 1 5.26-5.26h106.57a5.26 5.26 0 0 1 5.25 5.26h0a5.25 5.25 0 0 1-5.25 5.25z" class="F"/><path d="M77.5 220.44l58.65-1 37.23 140.7-79.37.75-30-123.34a13.84 13.84 0 0 1 13.49-17.12z" class="C"/><path d="M106.7 370.92L89.16 472.9h4.8l23.07-101.98H106.7z" class="F"/><path d="M148.08 370.92L129.43 472.9h4.8l24.17-101.98h-10.33z" class="C"/><path d="M193.84 370.92l20.8 101.98h-4.8L183.5 370.92h10.34zm-64.4-151.52l29 140.86h22.26L157.44 235.8a20.05 20.05 0 0 0-19.71-16.4z" class="F"/><path d="M456.62 473.46c0 .14-92.5.26-206.6.26s-206.63-.12-206.63-.26 92.5-.26 206.63-.26l206.6.26z" class="B"/><path d="M194.53 473.75h-76.46l5.78-55.66 70.68-.46v56.12z" class="G"/><path d="M194.53 473.75h-76.46l5.78-55.66 70.68-.46v56.12z" opacity=".4"/><path d="M129.22 417.63h76.46v56.1h-76.46z" class="G"/><path d="M129.22 417.63h76.46v56.1h-76.46z" opacity=".2"/><g class="B"><path d="M206.32 444.8c0 .14-17.2.26-38.4.26s-38.43-.12-38.43-.26 17.2-.27 38.43-.27l38.4.27z"/><path d="M142.84 450.2a34.13 34.13 0 0 1 0-8.41 34.13 34.13 0 0 1 0 8.41zm53.16-.3a27.25 27.25 0 0 1 0-7.51 27.25 27.25 0 0 1 0 7.51zm-16.84-31.98s0-.6-.18-1.66a10.68 10.68 0 0 0-1.7-4.15 12.15 12.15 0 0 0-5.05-4.24 18 18 0 0 0-8-1.51 19.48 19.48 0 0 0-8 1.79 13.28 13.28 0 0 0-5.11 4.21 11.5 11.5 0 0 0-1.87 4.08l-.3 1.65a2.12 2.12 0 0 1 0-.44 6.8 6.8 0 0 1 .12-1.25 10.89 10.89 0 0 1 1.77-4.25 13.3 13.3 0 0 1 5.2-4.43 19.5 19.5 0 0 1 8.15-1.88 18.05 18.05 0 0 1 8.21 1.6 12.35 12.35 0 0 1 5.15 4.47 10.1 10.1 0 0 1 1.59 4.32 7.11 7.11 0 0 1 0 1.25 1.29 1.29 0 0 1 .02.44z"/></g><path d="M150.48 201.2a18.85 18.85 0 0 1 11.72-1.42c2.13.35 4.35 1 5.8 2.58s1.72 4.4.06 5.78a5.56 5.56 0 0 1-3.65.93c-3.1 0-6.53-.58-9 1.28-1.4 1.06-2.35 2.83-4 3.35a4 4 0 0 1-4.39-1.95 6.78 6.78 0 0 1-.5-5 7.69 7.69 0 0 1 3.97-5.55zm-8.16-15.77c2.18 3.12 6.4 2.1 8.38.2s2.8-4.66 3.55-7.28c1.72-6 3.46-12.3 2.18-18.4a10.25 10.25 0 0 0-2.35-5 5.34 5.34 0 0 0-5.06-1.68c-2.14.56-3.47 2.65-4.43 4.65a43.83 43.83 0 0 0-4.33 18.83c0 3 .34 6.2 2.06 8.7m-6 4.45a11.29 11.29 0 0 0 1.76-10.42 20.06 20.06 0 0 0-6.17-9 33.1 33.1 0 0 0-11.06-6.48 11.67 11.67 0 0 0-5-.85 5.2 5.2 0 0 0-4.17 2.53c-1.17 2.22 0 4.9 1.15 7.1a84.34 84.34 0 0 0 7.27 11.06c2.17 2.8 4.67 5.58 8 6.84s6.77 1.12 8.53-1.18" class="G"/><g class="B"><path d="M142.17 232.4a7.67 7.67 0 0 0 .2-1.42l.37-3.86a56.57 56.57 0 0 1 .87-5.66 42.81 42.81 0 0 1 2.06-6.68 24.53 24.53 0 0 1 3.41-6.05 12.76 12.76 0 0 1 4.32-3.59A12.1 12.1 0 0 1 157 204a6.85 6.85 0 0 0 1.41-.2 6.7 6.7 0 0 0-1.44 0 11.28 11.28 0 0 0-3.78 1 12.75 12.75 0 0 0-4.56 3.62 23.88 23.88 0 0 0-3.53 6.17 41.08 41.08 0 0 0-2 6.79 47.82 47.82 0 0 0-.75 5.74l-.2 3.88a6.63 6.63 0 0 0 .01 1.4z"/><path d="M142.43 229.43a2.44 2.44 0 0 0 0-.66v-1.88l.08-6.9c.14-5.83.65-12.1 1.6-20.93.92-8.3 2.15-18 3.45-24.26a118.89 118.89 0 0 1 .82-3.84l.68-2.9c.2-.8.32-1.34.44-1.82a2.79 2.79 0 0 0 .11-.65 2.59 2.59 0 0 0-.23.62l-.54 1.8c-.24.78-.5 1.75-.77 2.88s-.6 2.4-.9 3.83a211.71 211.71 0 0 0-3.63 22.51c-1 8.85-1.4 16.9-1.44 22.75l.1 6.9c0 .76.08 1.38.1 1.88a3.51 3.51 0 0 0 .12.65z"/><path d="M142.47 213.88a11.78 11.78 0 0 0 0-2c-.07-1.26-.25-3.08-.6-5.3a69.72 69.72 0 0 0-1.73-7.74 63.24 63.24 0 0 0-3.24-9.16 48.67 48.67 0 0 0-9.5-14.8 22.84 22.84 0 0 0-2.24-2.08c-.34-.3-.64-.58-1-.8l-.87-.6a11.49 11.49 0 0 0-1.65-1 56.68 56.68 0 0 1 5.41 4.82 51.41 51.41 0 0 1 9.27 14.75 72.31 72.31 0 0 1 3.25 9.08 76.7 76.7 0 0 1 1.84 7.66l.78 5.26a13.26 13.26 0 0 0 .28 1.93zm-15.02 27.42l1.55 21.34h27.42l1.56-21.34h-30.53z"/><path d="M124.8 232.9h36.45v8.4H124.8z"/></g><g class="D"><path d="M124.8 261.83v2.33h35.85v-2.33H124.8z"/><path d="M128.2 268.27l-1.68-4.1h32.83l-1.96 4.1h-29.2z"/></g><path d="M157.47 248.28s0 .07-.13.2l-.4.54-1.6 2-.08.1-.06-.1-3.93-5.43h.23l-3.87 5.47-.12.18-.13-.17-4.58-5.45h.26l-.25.32-4.1 5.13-.14.17-.12-.18-3.87-5.46h.23l-4.76 5.42-.1.1-.06-.1-1.5-2.5-.38-.66a1 1 0 0 1-.12-.24 1.37 1.37 0 0 1 .16.21l.42.64 1.57 2.46h-.15l4.8-5.63.1.15 3.9 5.44h-.27l4.1-5.15.25-.3.13-.17.14.16 4.57 5.47h-.26l3.9-5.45.12-.16.1.16 3.84 5.5h-.14l1.66-2 .45-.5a.84.84 0 0 1 .16-.12z" class="C"/><path d="M158.36 241.17c0 .1-6.87.17-15.34.17s-15.35-.08-15.35-.17 6.87-.17 15.33-.17l15.36.17z" class="D"/><g class="B"><path d="M159.75 264.4c0 .1-7.47.17-16.68.17s-16.67-.07-16.67-.17 7.46-.17 16.67-.17l16.68.17zm222.13 4.34H301.6v-3.9h80.28z"/><path d="M394.32 268.74l15.06-56.42h-62.7l-13.63 56.42h61.26z"/></g><path d="M336.82 264.47h56l13.04-49.54h-56.3l-12.74 49.54z" class="D"/><path d="M393.2,265h-57l13-50.55h57.32Zm-55.74-1h55l12.77-48.55H350Z" class="B"/><path d="M136.15 279.7h4.05v193.56h-4.05z" class="D"/><path d="M140.2 280.25h4.05v193h-4.05z" class="B"/><path d="M385.92 279.7h4.05v193.56h-4.05z" class="D"/><path d="M389.97 280.25h4.05v193h-4.05z" class="B"/><g class="D"><path d="M89.16 268.45H450.6v15.88H89.16z"/><path d="M252.38 284.33h135.57v26.28H252.38z"/></g><path d="M326.2 295.65a3 3 0 1 1-3-3 3 3 0 0 1 3 3zm91.28-11.32c0 .14-47 .26-104.9.26s-104.9-.12-104.9-.26 47-.26 104.9-.26l104.9.26z" class="B"/><path d="M292.38 97.52c.54 0 7.85 1.22 7.85 1.22l9.9 12.46 1.5 2.36-13.34 8.53-5.9-8.72-5-3.25a5.09 5.09 0 0 1 5.28-.55 15.62 15.62 0 0 0 6.23 1.22l-1.76-5-5.42-1.08z" class="I"/><path d="M293 88.8a1.53 1.53 0 0 1 1.9 1.25l4 25a1.46 1.46 0 0 1-1.06 1.66l-11.77 3.3a1.46 1.46 0 0 1-1.85-1.23L281 93.24a1.54 1.54 0 0 1 1.15-1.69z" class="B"/><path d="M285.1 116.85l12-3.35-3.18-21.24a2.05 2.05 0 0 0-2.56-1.68l-9.6 2.55z" class="F"/><g class="I"><path d="M296.85 101.3l-5.4 4s.45 1.42 1.27 1.52a33 33 0 0 0 5.16-1.1z"/><path d="M296.2 98.08l-5.65 2.48s-.36 1.84 1.75 1.58l-1.9 1.36s.47.82 2.83.92 4.65-3.18 4.65-3.18z"/></g><path d="M301.8 104.37c0 .07-.7-.06-1.44-.76a15.51 15.51 0 0 0-1.3-1.09 1.84 1.84 0 0 0-1.79-.22 33.8 33.8 0 0 1-4.9 2.32 24.45 24.45 0 0 1 4.72-2.81 2.27 2.27 0 0 1 1.21-.14 2.77 2.77 0 0 1 1 .46 8.47 8.47 0 0 1 1.28 1.22 11.43 11.43 0 0 0 1.22 1.02zm-1.1 14.08a7.72 7.72 0 0 1-.9-8.49 18.32 18.32 0 0 0-.31 4.32 18.16 18.16 0 0 0 1.21 4.17zm-.7-17.88c-.07.06-.37-.37-1.1-.6a3.83 3.83 0 0 0-2.87.33l-2.75 1.47c-.75.3-1.28.38-1.3.32s.44-.24 1.12-.65 1.56-1.07 2.7-1.6a4.53 4.53 0 0 1 1.74-.47 3.14 3.14 0 0 1 1.47.27c.75.37.96.92.96.94z" class="J"/><path d="M299.53 136l29.4 18.87-7.8 22.28s-20.1-6.2-19.74-6.86-1.86-34.3-1.86-34.3z" class="G"/><path d="M291.93 437.58l-4.63 21.3s20.1 11.85 19.62 15.86l-41.6-7.48 5.84-33.47z" class="B"/><path d="M265.32,467.25l.72-3.35,39.62,8.43s1.7,1.14,1.26,2.4Z" class="D"/><path d="M244.6 439.92l-.7 21.77s21.9 8 22.17 12.05l-42.27.2-.32-34z" class="B"/><path d="M223.82 473.93l.1-3.43 40.5 1.1s1.9.8 1.68 2.13z" opacity=".6" class="D"/><path d="M250.74 82.86l4.3 50 25-2c.15-2.92-.06-14.22-.06-14.22s10.4-1.62 10.54-12c.06-5.06-.66-15.5-1.42-24.9A19.26 19.26 0 0 0 268.81 62h0a19.26 19.26 0 0 0-18.07 20.86z" class="I"/><path d="M280 116.45a24.24 24.24 0 0 1-13.57-3.86s3.2 7.5 13.6 6.55z" class="J"/><path d="M285.1 87a1.49 1.49 0 0 1-1.44 1.5 1.42 1.42 0 0 1-1.53-1.34 1.49 1.49 0 0 1 1.43-1.5A1.43 1.43 0 0 1 285.1 87zm1.8-2.1c-.18.2-1.3-.64-2.9-.63s-2.77.8-2.94.6.1-.44.6-.8a4.13 4.13 0 0 1 2.36-.73 3.92 3.92 0 0 1 2.32.75c.5.37.66.73.56.8zM269.74 87a1.48 1.48 0 0 1-1.43 1.5 1.43 1.43 0 0 1-1.54-1.34 1.5 1.5 0 0 1 1.44-1.5 1.43 1.43 0 0 1 1.53 1.34zm1.44-1.8c-.18.2-1.3-.64-2.9-.63s-2.77.8-2.94.6.1-.43.6-.8a4 4 0 0 1 2.36-.73 3.87 3.87 0 0 1 2.32.75c.5.37.65.72.56.8zM277 97.06a10.71 10.71 0 0 1 2.6-.47c.4 0 .8-.12.86-.4a2.12 2.12 0 0 0-.27-1.21l-1.2-3.1-2.7-8.13c.18-.06 1.68 3.47 3.36 7.9l1.15 3.13a2.4 2.4 0 0 1 .22 1.61 1 1 0 0 1-.68.59 2.67 2.67 0 0 1-.69.1 10.13 10.13 0 0 1-2.63 0zm-4.72 1.1c.26 0 .26 1.72 1.75 3s3.33 1 3.35 1.3-.4.33-1.2.35a4.32 4.32 0 0 1-2.79-1 3.74 3.74 0 0 1-1.39-2.5c0-.72.16-1.15.28-1.14zm-.68-19.24c-.16.44-1.76.23-3.64.46s-3.4.74-3.64.35c-.1-.2.15-.6.77-1a6.31 6.31 0 0 1 5.54-.61c.7.25 1.03.6.97.8zm14.72 1.34c-.28.37-1.4 0-2.7 0s-2.45.25-2.7-.13c-.1-.2.07-.55.56-.9a3.93 3.93 0 0 1 4.36.14c.47.34.62.72.5.9zM262 71.45h-.06a8.19 8.19 0 0 0-3 5.3v.2l-.77 9c-.44 3-1.46 6-3.66 8-.9.84-2.5 1.42-3.23.44a2.46 2.46 0 0 1-.37-1.36c-.56-7.17-2.52-13.53-2.5-21a6.3 6.3 0 0 1 2.59-5.16c1.57-1.12 3.48-2.3 5.23-1.46s4 4.1 5.35 5.47" class="B"/><path d="M254.25 87.57c-.18-.08-7.15-2.12-6.93 5s7.33 5.42 7.33 5.22-.4-10.22-.4-10.22z" class="I"/><path d="M252.4 95.16s-.12.1-.32.2a1.24 1.24 0 0 1-.93.05 3.07 3.07 0 0 1-1.51-2.7 4.14 4.14 0 0 1 .29-1.79 1.44 1.44 0 0 1 .9-1 .65.65 0 0 1 .75.31c.1.2.06.34.1.35s.14-.12.08-.4a.79.79 0 0 0-.3-.44 1 1 0 0 0-.69-.16 1.78 1.78 0 0 0-1.26 1.15 4.17 4.17 0 0 0-.36 2c.1 1.44.87 2.75 1.9 3a1.33 1.33 0 0 0 1.13-.23c.22-.15.25-.3.22-.32z" class="J"/><path d="M256 66.52c-1.75-2.85 3.05-6.94 6.56-8s8.14.6 11.63 1.76c2.2.73 4.4 1.75 6.73 1.66a16.27 16.27 0 0 0 4.51-1.15 11.4 11.4 0 0 1 4.55-.9 4.28 4.28 0 0 1 3.74 2.37c.6 1.44-.25 3.42-1.8 3.63a3.49 3.49 0 1 1 .94 6.48c1-.77 2.56.5 2.43 1.76a3.67 3.67 0 0 1-2.43 2.7c-3 1.3-6.43.88-9.5-.15s-5.92-2.64-9-3.75-8.15-3.1-11.2-2c-2.25.8-3.82 3.5-5.1 2.9a4.34 4.34 0 0 1-2.25-3.2 12.53 12.53 0 0 1 .14-4" class="B"/><path d="M292.77 65.66c-.06 0-.36.52-1.13 1.35a9.75 9.75 0 0 1-3.95 2.55 9.05 9.05 0 0 1-6.79-.27c-2.42-1.1-4.5-3.3-6.9-5.3a14.76 14.76 0 0 0-8-3.84 8.19 8.19 0 0 0-6.8 2.35 6.19 6.19 0 0 0-1.62 4.6 4.65 4.65 0 0 0 .31 1.31c.13.28.2.42.23.4a11.23 11.23 0 0 1-.27-1.73 6.15 6.15 0 0 1 1.71-4.25 7.81 7.81 0 0 1 6.44-2.06 14.39 14.39 0 0 1 7.6 3.73c2.34 2 4.48 4.23 7.07 5.36a9.66 9.66 0 0 0 11.21-2.69 6.34 6.34 0 0 0 .74-1.1l.15-.43zm-40.34 21.6s.3-.2.58-.76a4.89 4.89 0 0 0 .36-2.58c-.16-2.3-2.2-4.75-2.45-7.92a7.16 7.16 0 0 1 .79-4.25 5.46 5.46 0 0 1 2.64-2.28 4.65 4.65 0 0 1 2.38-.33c.57.1.88.23.9.17a1.75 1.75 0 0 0-.85-.43 4.41 4.41 0 0 0-2.61.12 5.78 5.78 0 0 0-3 2.42 7.6 7.6 0 0 0-.93 4.65 13.15 13.15 0 0 0 1.37 4.48 13.54 13.54 0 0 1 1.25 3.45 5.39 5.39 0 0 1-.44 3.26z" class="D"/><g class="B"><path d="M294.2 455.84l21.7-108.42L277.2 327l-15 124.75zm-48.74 3.56l29.93-184.23v-39.74l-43.34 3.1c-.52 1.55-11.45 221.1-11.45 221.1l4.22-.24h20.64"/><path d="M298.92 232.62l16.97 114.8-37.94-9.2-15.46-101.86 36.43-3.74z"/></g><g class="G"><path d="M307.4 278.43l-1.93-15.63"/><path d="M305.46 282.07s6.6-5.67 7.25-9.94-7.9-73-7.9-73l-4.37-56.82c0 1 .12-7.16-1.2-7.65-4-1.5-12.22-4.25-12.22-4.25l-4.7-4.22 10.08 45.94zm-54.2-159.8l-7.1 4.73-26.63 10.47 11.83 44.6-1.6 25.92-1.5 16.45s-7.93 40.73-14.93 65.48c0 0 7.8 14.8 14.23 16.86l2.67 1.6 9.52-69.7 8.17-11a44.61 44.61 0 0 0 2.21-3.27l10.23-16.43c4.82-7.57 11-24.77 9.17-32.1s-16.27-53.6-16.27-53.6z"/></g><path d="M233.18,276.06a61,61,0,0,0,15.24-18.32" class="B"/><path d="M251.27 122.27l6.4 41.13a59.48 59.48 0 0 1-2.59 15.5l-11.44 37s-9 20.17-5.9 22.75 27.3 0 27.3 0l32.74-4.75a2.88 2.88 0 0 0 2.45-3.12l-4.86-50.22c-1.64-3.47-2.3-10.57-3-13.1L282.3 126.2l-2.06-.27-4.48 3.07-2.36.2-19.8-9.6z" class="F"/><path d="M245.3 210.53c5.3-16.5 12.14-43.3 12.14-43.3 2.13 14-.2 28.35-5.4 41.55-4.26 10.76-9.4 18.9-12.95 29.93l-.1.45s-2 .1-1.86-2.84 3-11.73 4.9-16.6 3.28-9.2 3.28-9.2z" class="C"/><path d="M276.9 132.5h-4.45l-1.33 6.1 3.9 4.7 3.92-.4 1.28-4.37-1.05-2.44-2.26-3.6zm25.96 35.55c1.4.28 16.86 10.68 22.48 9.56s10.17-6.42 10.77-7.13c3.2-3.78 1.2-11.63.27-14.6a10 10 0 0 0-.91-2.07l-23.87-41-14.07 8.55 14.6 26.63zm-115.13 49.57a18.32 18.32 0 0 1 .86-15c3.24-6.4 8.38-16.76 9.46-20.16 1.6-5.05 16.56-43.8 19.5-45l13 43.9-15.1 31.8 17.7 33.35-14.75 15.9s-27.9-38.92-30.2-43.73q-.24-.52-.45-1.05z" class="G"/><path d="M233.84 272.52a49.57 49.57 0 0 0 7.39-8.72.32.32 0 0 1 0-.27.42.42 0 0 1 .3-.18 42.69 42.69 0 0 0 2.32-4.07c-2.47-1.6-5.7-4-2.2-4.54 4.33-.62 7.42-2.72 7.86-3.87s-1-2.18-2.14-1.45a15.69 15.69 0 0 1-4.16 1.44 10.49 10.49 0 0 1-3.53.22c-1.37-.15-7-2.6-8-2.77l-10.53 11.08 12.68 13.13z" class="I"/><path d="M302.76 169.27a5.31 5.31 0 0 1-.37-1.23l-.76-3.43a111.72 111.72 0 0 1-1.63-11.45 109.42 109.42 0 0 1-.42-11.56l.14-3.5a7.22 7.22 0 0 1 .14-1.28 5.47 5.47 0 0 1 .06 1.29v3.5c0 3 .17 7 .57 11.52s1 8.52 1.48 11.43l.6 3.45a6.8 6.8 0 0 1 .2 1.27zm12.24 2.37s-.12 0-.34-.08a5.41 5.41 0 0 1-.89-.42 7.65 7.65 0 0 1-2.54-2.58 16.17 16.17 0 0 1-1.82-5 60.74 60.74 0 0 1-1.19-6.43l-1-11.8-.25-3.58a6.07 6.07 0 0 1 0-1.32 7.31 7.31 0 0 1 .22 1.3l.4 3.56 1.15 11.77c.3 2.28.72 4.44 1.15 6.38a16.94 16.94 0 0 0 1.66 5 8.15 8.15 0 0 0 2.34 2.6l1.1.6z" class="B"/><path d="M306.94 140.48a88.23 88.23 0 0 0-2.52 14.05 21.44 21.44 0 0 0 .44 8.49c.86 2.72 2.87 5.23 5.63 6q-1.9-13.92-3.33-27.9m-82.1 89.28l7.27 14.6c5.4-22.3-1.45-45.8.78-68.63l-3.9 7.87-1.1 18.2-.84 10.68s-.8 11.5-2.2 17.26z" opacity=".3"/><path d="M228.84 137.88a7.7 7.7 0 0 1 .79 1.24l.83 1.52 1 2.07a49.62 49.62 0 0 1 2.11 5.6 49.18 49.18 0 0 1 2.12 14.46 45.87 45.87 0 0 1-.41 6c-.08.85-.24 1.6-.36 2.27l-.35 1.7a7.45 7.45 0 0 1-.41 1.42 8.38 8.38 0 0 1 .21-1.46l.27-1.7.28-2.26a53.89 53.89 0 0 0 .29-5.93 57.49 57.49 0 0 0-.55-7.23 58.44 58.44 0 0 0-1.55-7.09 51.69 51.69 0 0 0-2-5.59c-.3-.8-.65-1.47-.92-2.1l-.75-1.55a7.44 7.44 0 0 1-.6-1.37zm-13.54 75.54c-.07.05-.74-1-2-2.65a25.77 25.77 0 0 0-5.91-5.35 6.06 6.06 0 0 0-4.08-1 8 8 0 0 0-3.23 1.38l-2.68 2a2.92 2.92 0 0 1 .6-.69 17.5 17.5 0 0 1 1.87-1.62 8.11 8.11 0 0 1 3.33-1.49 6.36 6.36 0 0 1 4.42 1 23 23 0 0 1 5.93 5.57 20.65 20.65 0 0 1 1.36 2.06 2.85 2.85 0 0 1 .39.79zM212 202.9a20.32 20.32 0 0 1 3.3 10.15c-.16 0-.55-2.34-1.47-5.13L212 202.9zm12.75 26.87a8.42 8.42 0 0 1 .75 1.28l1.9 3.6 6.26 12.24-1.13 1.13-10.1 10.42-3.1 3.12a9.85 9.85 0 0 1-1.19 1.1 9.58 9.58 0 0 1 1-1.24l3-3.23 10-10.53 1-1v.3l-6-12.15-1.75-3.66a7.7 7.7 0 0 1-.62-1.37zm19.48-20.12a4.85 4.85 0 0 1 0-.87v-2.47l.2-9.1.4-13.47a73.4 73.4 0 0 1 2.24-16.38 38.31 38.31 0 0 1 3.16-7.91l.2.38a5.43 5.43 0 0 1-3.2-1.81 7.86 7.86 0 0 1-1.67-3.11 24.71 24.71 0 0 1-.52-6.48v-19.8a3.1 3.1 0 0 1 0-.66 3.44 3.44 0 0 1 .05.66l.05 1.92.1 7.12.1 10.76a24.26 24.26 0 0 0 .54 6.35 7.41 7.41 0 0 0 1.57 2.9 4.9 4.9 0 0 0 2.9 1.64l.36.06-.17.32a37.57 37.57 0 0 0-3.11 7.8 75 75 0 0 0-2.26 16.26l-.52 13.47-.37 9.08-.12 2.47a8.63 8.63 0 0 1 .05.86zM287.08 131a2.75 2.75 0 0 1 .24.55l.57 1.6 2.07 6 3 9 1.74 5.44a7.06 7.06 0 0 1 .13 3.11 4.16 4.16 0 0 1-1.78 2.73l.08-.37 2.56 4a24 24 0 0 1 2.8 6.48 22.71 22.71 0 0 1 .45 6.56l-.73 11-.55 7.43-.17 2a3.6 3.6 0 0 1-.1.7 3.53 3.53 0 0 1 0-.71l.08-2 .38-7.44.63-11a23.43 23.43 0 0 0-.47-6.41 23.8 23.8 0 0 0-2.76-6.33l-2.54-4-.15-.22.23-.14a3.63 3.63 0 0 0 1.55-2.39 6.61 6.61 0 0 0-.11-2.9c-.48-1.88-1.16-3.7-1.7-5.4l-2.93-9.07-1.9-6-.5-1.64a4.11 4.11 0 0 1-.11-.59z" class="B"/><g class="D"><path d="M248.16 255.26a3.07 3.07 0 0 1-.46.82l-1.4 2.1-5 6.73-5.36 6.44-1.72 1.87c-.42.43-.66.66-.7.64a26.35 26.35 0 0 1 2.13-2.75l5.23-6.52 5.1-6.63a26.48 26.48 0 0 1 2.17-2.71zm15.67-12.9v.56c0 .37-.1.94-.18 1.65l-.72 6.32-2.9 23.24-10.5 76.54-5.56 42.17-1.2 9.48-1.37 8.9-2.42 16-3.4 23.17-.83 6.3-.16 1.64a3.24 3.24 0 0 0 0 .42c0 .12.07 0 .07 0h0s-.08 0-.07-.05a1.55 1.55 0 0 1 0-.42c0-.37.05-.93.12-1.65l.73-6.33 3.22-23.2 2.36-16 1.34-8.9 1.2-9.47 5.5-42.18 10.66-76.52 4.1-31.17c.05-.4 0-.5 0-.5zm22.82 212.5a5.19 5.19 0 0 1 .07-.54l.25-1.6 1-6.1 3.94-22.47L305.15 350a17.3 17.3 0 0 0 .32-5.36l-.8-5.34q-.8-5.3-1.6-10.45l-3.2-19.72-5.9-33.3-4.6-22.34-1.4-6-.36-1.57-.1-.54a5.19 5.19 0 0 1 .16.53l.42 1.56 1.5 6c1.26 5.23 2.9 12.86 4.75 22.3s3.9 20.74 6 33.3l3.22 19.72q.8 5.15 1.62 10.45l.8 5.36a18 18 0 0 1-.33 5.53L292.3 424.2l-5.24 28.54-.3 1.58-.1.54zM275.4 273.87c.15 0-1.62 11.92-3.95 26.58L267 327c-.12 0 1.63-11.92 3.95-26.58l4.44-26.55z"/><path d="M245.82 459.07a4.39 4.39 0 0 1-1 .17l-2.7.25-8.9.4c-3.48.05-6.64 0-8.92-.1-1.14 0-2.06-.1-2.7-.16a3.26 3.26 0 0 1-1-.14 30.5 30.5 0 0 1 3.69-.06l8.9-.05 8.9-.25a27.64 27.64 0 0 1 3.72-.05zm48.38-3.23a6.38 6.38 0 0 1-1.27-.07l-3.44-.36-11.32-1.4-11.3-1.54-3.42-.52a8.19 8.19 0 0 1-1.25-.25 4.81 4.81 0 0 1 1.28.05l3.44.35 11.33 1.4 11.3 1.55 3.42.53a5.37 5.37 0 0 1 1.24.27z"/></g><g class="B"><path d="M252 128.92a6.76 6.76 0 0 1 1.1.71l2.94 2c2.5 1.7 6 4 10 6.28 1.5.86 3 1.66 4.32 2.38l-.36.16 2.12-8.18.66-2.36a3.74 3.74 0 0 1 .29-.83 3.54 3.54 0 0 1-.13.87l-.5 2.4-2.07 8.53-.28-.14a93.86 93.86 0 0 1-4.35-2.37 106.9 106.9 0 0 1-9.94-6.43 77.54 77.54 0 0 1-2.85-2.18 5.7 5.7 0 0 1-.94-.83zm33 7.36a34 34 0 0 1-4.42 3l-.22.14-.12-.24-1.35-2.63-2.58-5.26a11.47 11.47 0 0 1-.94-2.25 11.21 11.21 0 0 1 1.26 2.09l2.72 5.18 1.35 2.7-.34-.1a36.78 36.78 0 0 1 4.64-2.62z"/><path d="M278.48 135.3a5 5 0 0 1-.88.69l-2.2 1.55-2.24 1.5a6.66 6.66 0 0 1-1 .57 5.23 5.23 0 0 1 .88-.7l2.2-1.54 2.24-1.5a6.66 6.66 0 0 1 1-.57z"/><path d="M275.48 137.37a17.47 17.47 0 0 1-2-1.84 17.78 17.78 0 0 1-1.79-2 16.93 16.93 0 0 1 1.94 1.84 17.68 17.68 0 0 1 1.85 2zm-18.84 88.7a23.27 23.27 0 0 0 2.07 7.21 23 23 0 0 0 4.66 5.87 6.15 6.15 0 0 1-1.83-1.31 15.45 15.45 0 0 1-4.9-9.52 6.37 6.37 0 0 1 0-2.25zm5.82 13.18a14 14 0 0 1-8.79-4.13c.1-.12 1.82 1.25 4.24 2.38s4.58 1.6 4.55 1.75zm19.54-32a4.1 4.1 0 0 1 .37 1.07l.78 3c.62 2.53 1.35 6.06 1.93 10a122.61 122.61 0 0 1 1.06 10.13c.07 1.3.1 2.35.1 3.08a4.34 4.34 0 0 1 0 1.13 5.32 5.32 0 0 1-.16-1.12l-.28-3.07a189.53 189.53 0 0 0-1.2-10.07c-.58-3.92-1.26-7.45-1.78-10l-.62-3a5.27 5.27 0 0 1-.21-1.15z"/></g><path d="M275.34 144.3c-1.3 10.4-2.26 33-2.62 43.5-.3 8.76-.27 17.53-.24 26.3 0 2.83 0 5.75 1.2 8.32 2.1 4.63 7.2 7 11.9 8.88z" class="C"/><path d="M287 229.8l5.37-13.16-13.43-73.74-3.92.4.37 77.33z" class="G"/><path d="M278.8 142.9a6.68 6.68 0 0 1-1.87.31 7.19 7.19 0 0 1-1.88 0 12.44 12.44 0 0 1 1.87-.18 15 15 0 0 1 1.88-.13z" class="B"/></svg>