<svg xmlns="http://www.w3.org/2000/svg" viewBox="0 0 500 500"><!--Businessman--><g id="background-complete--inject-1"><polygon points="451.23 87.06 451.23 152.74 356.88 152.74 353.48 87.52 451.23 87.06" style="fill:#e0e0e0"></polygon><rect x="368.11" y="72.89" width="65.09" height="94.35" transform="translate(280.59 520.71) rotate(-90)" style="fill:#fff"></rect><path d="M448.27,153.05H353v-66h95.24Zm-94.34-.89h93.45V88H353.93Z" style="fill:#e0e0e0"></path><rect x="363.7" y="95.6" width="73.91" height="48.92" style="fill:#fff"></rect><path d="M437.61,95.6h-.37l-1.05,0-4.06,0-15.23.06-53.2.11.21-.22c0,15,0,31.51,0,48.91h0l-.23-.23,73.91,0-.19.19c0-14.89.08-27.09.1-35.59,0-4.25,0-7.57.05-9.84,0-1.13,0-2,0-2.59s0-.9,0-.9,0,.29,0,.86,0,1.44,0,2.55c0,2.27,0,5.57.05,9.8,0,8.53.05,20.77.09,35.71v.18h-.18l-73.91.05h-.23v-.23h0c0-17.4,0-34,0-48.91v-.21h.22l53.34.1,15.18.06,4,0h1.37Z" style="fill:#e0e0e0"></path><path d="M353.48,87.33a8.19,8.19,0,0,1,1.62,1c1,.7,2.28,1.69,3.7,2.82s2.67,2.21,3.55,3a7.41,7.41,0,0,1,1.35,1.38,65.13,65.13,0,0,1-5.19-4A50.34,50.34,0,0,1,353.48,87.33Z" style="fill:#e0e0e0"></path><path d="M447.83,87.52a46.46,46.46,0,0,1-5,4.22,46.26,46.26,0,0,1-5.25,3.86,45.69,45.69,0,0,1,5-4.22A43.07,43.07,0,0,1,447.83,87.52Z" style="fill:#e0e0e0"></path><path d="M447.75,152.61l-10.52-8.52" style="fill:#fff"></path><path d="M437.23,144.09a50.41,50.41,0,0,1,5.41,4.08,51,51,0,0,1,5.11,4.44,48.83,48.83,0,0,1-5.41-4.08A49.55,49.55,0,0,1,437.23,144.09Z" style="fill:#e0e0e0"></path><path d="M353.48,152.61a43.48,43.48,0,0,1,4.91-4.19,44.94,44.94,0,0,1,5.2-3.81,45.35,45.35,0,0,1-4.91,4.18A44.82,44.82,0,0,1,353.48,152.61Z" style="fill:#e0e0e0"></path><rect x="393.77" y="95.78" width="16.38" height="46.5" transform="translate(282.93 520.99) rotate(-90)" style="fill:#e0e0e0"></rect><path d="M190.41,50.24s-.08,0-.23-.07l-.67-.26-2.52-1-9.24-4L147.34,31.66l-1.05-.46h.22l-29.8,12.74-9,3.78-2.46,1a5.25,5.25,0,0,1-.87.31,6.6,6.6,0,0,1,.83-.41l2.41-1.1,9-4,29.73-12.89.11-.05.11.05,1.05.46,30.34,13.4,9.18,4.12,2.48,1.14.64.31A1.72,1.72,0,0,1,190.41,50.24Z" style="fill:#e0e0e0"></path><rect x="42.55" y="45.88" width="195.29" height="146.23" style="fill:#e0e0e0"></rect><rect x="49.38" y="52.68" width="182.37" height="133.42" style="fill:#fafafa"></rect><path d="M89.66,111s.19,22.4,1.33,29.23l28.09-1.33s-2.47-22-1.52-27.9Z" style="fill:#e0e0e0"></path><path d="M103.49,114.14s0,0,.11,0h.3a6.62,6.62,0,0,1,1.17.06,6.72,6.72,0,0,1,1.79.53,6,6,0,0,1,1.94,1.54,6.84,6.84,0,0,1,1.35,2.71,6.54,6.54,0,0,1-.3,3.47,10.66,10.66,0,0,1-.79,1.73c-.31.57-.63,1.13-.9,1.75a14.93,14.93,0,0,0-1.13,4l0,.09h-.09l-2.77.05-2.91,0h-.1V130a8.3,8.3,0,0,0-1.34-3.84c-.34-.57-.71-1.11-1.06-1.66s-.71-1-1-1.61a5.37,5.37,0,0,1-.44-3.42,7.22,7.22,0,0,1,1.08-2.8,5.61,5.61,0,0,1,1.83-1.65,6.85,6.85,0,0,1,1.72-.66,7.42,7.42,0,0,1,1.15-.19h.3c.07,0,.1,0,.1,0h-.1l-.3,0a8,8,0,0,0-1.13.22,6.92,6.92,0,0,0-1.69.69,5.37,5.37,0,0,0-1.76,1.63,7.11,7.11,0,0,0-1,2.75,5.24,5.24,0,0,0,.44,3.31,18.68,18.68,0,0,0,1,1.59c.34.53.72,1.08,1.06,1.66a8.46,8.46,0,0,1,1.38,3.94l-.1-.11,2.91,0,2.77,0-.1.1a15.18,15.18,0,0,1,1.16-4.05c.27-.62.6-1.21.91-1.77a9,9,0,0,0,.78-1.7A6.28,6.28,0,0,0,110,119a6.64,6.64,0,0,0-1.29-2.65,5.93,5.93,0,0,0-1.88-1.53,6.52,6.52,0,0,0-1.75-.55,8.84,8.84,0,0,0-1.16-.1h-.41Z" style="fill:#fff"></path><path d="M104.94,129.74a.66.66,0,0,1,0-.09l0-.26c0-.23-.09-.57-.16-1-.12-.87-.31-2.14-.44-3.71,0-.39,0-.8-.07-1.23s0-.88,0-1.35a3.7,3.7,0,0,1,.32-1.4,2.07,2.07,0,0,1,1.07-1.07,1.41,1.41,0,0,1,1.53.29,1.09,1.09,0,0,1,.33.77,1.37,1.37,0,0,1-.29.8,1.75,1.75,0,0,1-.68.55,3.36,3.36,0,0,1-.83.27,9.51,9.51,0,0,1-1.77.21,10.63,10.63,0,0,1-1.79-.09,3,3,0,0,1-.84-.24,2.23,2.23,0,0,1-.71-.5,1.63,1.63,0,0,1-.41-.75,1.34,1.34,0,0,1,.1-.84,1.13,1.13,0,0,1,.59-.57,1.05,1.05,0,0,1,.8,0,1.48,1.48,0,0,1,.6.51,2,2,0,0,1,.29.7,7.9,7.9,0,0,1,.15,1.43c0,.92.09,1.78.13,2.57.08,1.57.14,2.84.19,3.73,0,.43,0,.77,0,1v.26a.62.62,0,0,1,0,.09.31.31,0,0,1,0-.09c0-.06,0-.15,0-.26s0-.57-.07-1c0-.88-.12-2.16-.21-3.73,0-.78-.09-1.64-.15-2.57a8.75,8.75,0,0,0-.14-1.42,2.1,2.1,0,0,0-.29-.67,1.53,1.53,0,0,0-.56-.48,1,1,0,0,0-.74,0,1,1,0,0,0-.54.53,1.16,1.16,0,0,0-.1.78,1.56,1.56,0,0,0,.39.71,2.59,2.59,0,0,0,1.51.72,11.15,11.15,0,0,0,3.52-.12,3.43,3.43,0,0,0,.82-.27,1.81,1.81,0,0,0,.64-.52,1.25,1.25,0,0,0,.27-.75.94.94,0,0,0-.3-.71,1.35,1.35,0,0,0-1.44-.28,2.07,2.07,0,0,0-1,1,3.75,3.75,0,0,0-.32,1.38c0,.46,0,.91,0,1.33s0,.84.06,1.24c.12,1.57.3,2.83.42,3.7,0,.44.1.77.13,1l0,.26A.31.31,0,0,0,104.94,129.74Z" style="fill:#fff"></path><path d="M101.24,129.89s0,.35.07.93.08,1.49.13,2.43l0-.06,1.89,2.18-.09,0,2.18-.12-.09,0,1.09-1.33.54-.67,0,.09c0-1.28-.06-2.5-.09-3.6l.12.11-4.08,0h-1.62a2,2,0,0,1,.39,0l1.15-.06,4.16-.16h.11v.12c0,1.11.07,2.32.1,3.6v0l0,0-.54.66-1.09,1.33,0,0h0l-2.19.11h-.06l0,0-1.85-2.21,0,0v0c0-1,0-1.8,0-2.5A5.49,5.49,0,0,1,101.24,129.89Z" style="fill:#fff"></path><path d="M106.88,133.05l-.21-.09a5,5,0,0,0-.57-.22,5.4,5.4,0,0,0-2-.3,5.49,5.49,0,0,0-1.95.42,5,5,0,0,0-.55.26l-.21.1a.59.59,0,0,1,.19-.13,4.8,4.8,0,0,1,.54-.29,5.36,5.36,0,0,1,2-.45,5.52,5.52,0,0,1,2,.33,4.64,4.64,0,0,1,.56.25A1.25,1.25,0,0,1,106.88,133.05Z" style="fill:#fff"></path><path d="M106.88,132.18l-.21-.09c-.13-.06-.32-.14-.57-.23a5.52,5.52,0,0,0-3.92.12c-.24.1-.43.19-.56.26s-.19.11-.2.1l.19-.13a4.22,4.22,0,0,1,.54-.28,5.17,5.17,0,0,1,2-.45,5,5,0,0,1,2,.33,4.24,4.24,0,0,1,.57.25A1,1,0,0,1,106.88,132.18Z" style="fill:#fff"></path><path d="M106.83,131.34s-.08,0-.21-.08-.32-.14-.57-.23a5.67,5.67,0,0,0-2-.3,5.44,5.44,0,0,0-2,.42c-.24.1-.43.19-.56.26a.72.72,0,0,1-.2.1l.19-.13a3.23,3.23,0,0,1,.54-.28,5.3,5.3,0,0,1,2-.46,5.46,5.46,0,0,1,2,.33,4.5,4.5,0,0,1,.56.26Z" style="fill:#fff"></path><path d="M58.37,74.35s.19,22.4,1.33,29.23l28.09-1.32s-2.47-22-1.52-27.91Z" style="fill:#ebebeb"></path><path d="M82,83.76a81,81,0,0,1-9.41.84,81,81,0,0,1-9.44.3,79.57,79.57,0,0,1,9.41-.85A82.16,82.16,0,0,1,82,83.76Z" style="fill:#fff"></path><path d="M82.05,88.51a84,84,0,0,1-9.41.84,82.18,82.18,0,0,1-9.44.29,81,81,0,0,1,9.41-.84A79.52,79.52,0,0,1,82.05,88.51Z" style="fill:#fff"></path><path d="M77.27,93.16a25.87,25.87,0,0,1-5.35.6,26.65,26.65,0,0,1-5.39,0,26.76,26.76,0,0,1,5.36-.6A26.57,26.57,0,0,1,77.27,93.16Z" style="fill:#fff"></path><path d="M57,140.25s.19,22.39,1.33,29.23l28.09-1.33s-2.47-22-1.52-27.9Z" style="fill:#ebebeb"></path><path d="M80.71,149.66a83.7,83.7,0,0,1-9.41.84,82.16,82.16,0,0,1-9.44.29,81,81,0,0,1,9.41-.84A77,77,0,0,1,80.71,149.66Z" style="fill:#fff"></path><path d="M80.72,154.4a81.28,81.28,0,0,1-9.41.84,79.54,79.54,0,0,1-9.44.29,81,81,0,0,1,9.41-.84A82.16,82.16,0,0,1,80.72,154.4Z" style="fill:#fff"></path><path d="M75.94,159.06a26.72,26.72,0,0,1-5.35.6,27.05,27.05,0,0,1-5.39,0,26.36,26.36,0,0,1,5.36-.59A26.57,26.57,0,0,1,75.94,159.06Z" style="fill:#fff"></path><polygon points="133.81 80.29 136.59 144.89 217.24 145.86 213.62 81.14 133.81 80.29" style="fill:#ebebeb"></polygon><rect x="132.88" y="79.83" width="80.11" height="60.49" style="fill:#f5f5f5"></rect><path d="M213,140.32s0-.39,0-1.13,0-1.82,0-3.22c0-2.84,0-7-.05-12.24,0-10.55-.07-25.64-.12-43.9l.22.22-80.1,0h0l.27-.27c0,21.75,0,42.35,0,60.49l-.25-.25,57.78.12,16.43.07,4.37,0h1.13l.39,0h-.36l-1.1,0-4.32,0-16.38.06-57.94.12h-.25v-.25c0-18.14,0-38.74,0-60.49v-.28h.28l80.1,0h.23v.23c-.05,18.32-.09,33.46-.12,44,0,5.25,0,9.36-.06,12.19,0,1.38,0,2.44,0,3.18S213,140.32,213,140.32Z" style="fill:#e0e0e0"></path><rect x="142.54" y="92.64" width="32.47" height="40.87" style="fill:#f5f5f5"></rect><path d="M175,133.51a1.66,1.66,0,0,1,0-.21v-.58c0-.54,0-1.28,0-2.23,0-2,0-4.81-.07-8.39,0-7.19-.07-17.37-.12-29.46l.24.25-32.47,0c-.06.06.52-.52.28-.27h0v2.8c0,.94,0,1.87,0,2.8v5.51c0,3.63,0,7.17,0,10.6,0,6.87,0,13.3,0,19.14l-.23-.23,23.51.12,6.6.06,1.75,0c.4,0,.61,0,.61,0a3.67,3.67,0,0,1-.56,0l-1.71,0-6.54.06-23.66.12h-.23v-.23c0-5.84,0-12.27,0-19.14,0-3.43,0-7,0-10.6V92.66h0l.28-.28,32.47,0h.25v.24c0,12.16-.09,22.39-.12,29.62,0,3.56,0,6.37-.07,8.33q0,1.4,0,2.19c0,.22,0,.41,0,.55S175,133.52,175,133.51Z" style="fill:#e0e0e0"></path><rect x="143.78" y="83.29" width="62.23" height="5.89" style="fill:#f5f5f5"></rect><path d="M206,89.18a1.87,1.87,0,0,1,0-.4c0-.29,0-.67,0-1.15,0-1,0-2.47-.06-4.34l.11.11c-10.5.1-34.42.17-62.23.17h0l.28-.28h0v5.87l-.28-.28L187.9,89l13.24.08,3.6,0,.94,0,.34,0-.3,0-.91,0-3.54,0-13.17.08-44.32.11h-.27V83.31h0l.27-.27h0c27.81,0,51.73.06,62.23.16h.11v.11q0,2.85-.06,4.41c0,.47,0,.83,0,1.12S206,89.19,206,89.18Z" style="fill:#e0e0e0"></path><rect x="178.99" y="92.64" width="27.03" height="24.63" style="fill:#f5f5f5"></rect><path d="M206,117.27a3.16,3.16,0,0,1,0-.47l0-1.34c0-1.2,0-2.89-.06-5,0-4.33-.07-10.45-.12-17.8l.24.24-27,0,.27-.27h0v13c0,4.13,0,8,0,11.66L179,117l19.5.12,5.53.07,1.47,0,.53,0a2.56,2.56,0,0,1-.47,0l-1.43,0-5.48.06-19.65.13h-.24v-.25c0-3.61,0-7.53,0-11.66V99.26c0-1.08,0-2.18,0-3.28V92.65h0l.28-.28,27,0h.23v.23c-.05,7.41-.09,13.58-.12,18,0,2.1,0,3.77-.06,5q0,.8,0,1.29A1.75,1.75,0,0,1,206,117.27Z" style="fill:#e0e0e0"></path><rect x="178.99" y="121.13" width="27.03" height="12.38" style="fill:#f5f5f5"></rect><path d="M206,133.51a6,6,0,0,1,0-.9l0-2.48c0-2.19-.07-5.24-.11-9l.2.2-27,.08c-.25.25.33-.34.27-.27h0v6.35c0,2.07,0,4.08,0,6l-.26-.26,19.33.12,5.63.08,1.52,0,.55,0a2.83,2.83,0,0,1-.49,0l-1.46,0-5.58.07-19.5.12h-.26v-.26c0-1.92,0-3.93,0-6,0-1,0-2.08,0-3.15v-3.2h0c-.06,0,.53-.53.28-.28l27,.07h.2v.19c-.05,3.81-.08,6.91-.11,9.12,0,1,0,1.83-.05,2.44A6.09,6.09,0,0,1,206,133.51Z" style="fill:#e0e0e0"></path><path d="M174.21,92.71c-10.05,13.89-21.62,26.92-31.67,40.8" style="fill:#fff"></path><path d="M142.54,133.51a1.72,1.72,0,0,1,.27-.45l.84-1.25c.75-1.08,1.86-2.61,3.25-4.48,2.8-3.76,6.79-8.84,11.26-14.39s8.51-10.59,11.38-14.28l3.38-4.37.93-1.19c.22-.26.34-.4.36-.39a1.84,1.84,0,0,1-.27.46c-.23.34-.5.75-.84,1.24-.75,1.08-1.86,2.61-3.25,4.49-2.79,3.75-6.79,8.83-11.26,14.39s-8.51,10.58-11.38,14.27l-3.38,4.38c-.38.47-.68.86-.93,1.18S142.56,133.52,142.54,133.51Z" style="fill:#e0e0e0"></path><line x1="142.54" y1="92.64" x2="175.01" y2="133.51" style="fill:#fff"></line><path d="M175,133.51c-.12.1-7.48-9-16.45-20.26s-16.14-20.51-16-20.61,7.48,9,16.45,20.27S175.13,133.42,175,133.51Z" style="fill:#e0e0e0"></path><path d="M136.59,92.73a5.08,5.08,0,1,1-5.08-5.08A5.08,5.08,0,0,1,136.59,92.73Z" style="fill:#e0e0e0"></path><path d="M219.68,80.4a5.08,5.08,0,1,1-5.08-5.08A5.08,5.08,0,0,1,219.68,80.4Z" style="fill:#e0e0e0"></path><path d="M367.1,432.66v22.77h-3.8v2.48h3.8v15.24h71.07V459.28h-5.26v-3h5.26v-4.53h2.34v-2.06h-2.78v-17Z" style="fill:#f5f5f5"></path><polygon points="419.3 432.73 419.3 472.89 438.17 472.89 438.17 459.02 432.91 459.02 432.91 456.26 438.17 456.35 438.17 451.82 440.56 451.82 440.51 449.48 437.73 449.41 437.73 432.66 419.3 432.73" style="fill:#e0e0e0"></polygon><path d="M420.64,457.58c0,.14-12.86.25-28.72.25s-28.72-.11-28.72-.25,12.86-.25,28.72-.25S420.64,457.44,420.64,457.58Z" style="fill:#e0e0e0"></path><path d="M420.64,455.27c0,.14-12.86.25-28.72.25s-28.72-.11-28.72-.25,12.86-.26,28.72-.26S420.64,455.13,420.64,455.27Z" style="fill:#e0e0e0"></path><path d="M424.33,449c0,.14-12.86.25-28.72.25s-28.72-.11-28.72-.25,12.86-.25,28.72-.25S424.33,448.9,424.33,449Z" style="fill:#e0e0e0"></path><path d="M424.69,466c0,.14-12.86.26-28.72.26s-28.73-.12-28.73-.26,12.86-.25,28.73-.25S424.69,465.87,424.69,466Z" style="fill:#e0e0e0"></path><path d="M152.52,360.41h54.22a6.9,6.9,0,0,0,6.9-6.9V336.8A11.64,11.64,0,0,0,202,325.16H152.11Z" style="fill:#ebebeb"></path><path d="M205.83,370.92H99.22A5.26,5.26,0,0,1,94,365.67h0a5.27,5.27,0,0,1,5.26-5.26H205.83a5.26,5.26,0,0,1,5.25,5.26h0A5.25,5.25,0,0,1,205.83,370.92Z" style="fill:#ebebeb"></path><path d="M77.49,220.44l58.65-1,37.23,140.71L94,360.9,64,237.56A13.84,13.84,0,0,1,77.49,220.44Z" style="fill:#e0e0e0"></path><polygon points="106.71 370.92 89.16 472.9 93.97 472.9 117.04 370.92 106.71 370.92" style="fill:#ebebeb"></polygon><polygon points="148.08 370.92 129.43 472.9 134.24 472.9 158.41 370.92 148.08 370.92" style="fill:#e0e0e0"></polygon><polygon points="193.84 370.92 214.64 472.9 209.83 472.9 183.5 370.92 193.84 370.92" style="fill:#ebebeb"></polygon><path d="M129.43,219.4l29,140.86h22.26L157.44,235.8a20.05,20.05,0,0,0-19.71-16.4Z" style="fill:#ebebeb"></path></g><g id="Floor--inject-1"><path d="M456.62,473.46c0,.14-92.51.26-206.61.26s-206.63-.12-206.63-.26,92.49-.26,206.63-.26S456.62,473.31,456.62,473.46Z" style="fill:#263238"></path></g><g id="Briefcase--inject-1"><polygon points="194.53 473.75 118.07 473.75 123.85 418.09 194.53 417.63 194.53 473.75" style="fill:#4550E6"></polygon><g style="opacity:0.4"><polygon points="194.53 473.75 118.07 473.75 123.85 418.09 194.53 417.63 194.53 473.75"></polygon></g><rect x="129.22" y="417.63" width="76.46" height="56.11" style="fill:#4550E6"></rect><g style="opacity:0.2"><rect x="129.22" y="417.63" width="76.46" height="56.11"></rect></g><path d="M206.32,444.8c0,.14-17.2.26-38.41.26s-38.43-.12-38.43-.26,17.2-.27,38.43-.27S206.32,444.65,206.32,444.8Z" style="fill:#263238"></path><path d="M142.84,450.2a34.13,34.13,0,0,1,0-8.41,34.13,34.13,0,0,1,0,8.41Z" style="fill:#263238"></path><path d="M196,449.9a27.25,27.25,0,0,1,0-7.51,27.25,27.25,0,0,1,0,7.51Z" style="fill:#263238"></path><path d="M179.16,417.92s0-.61-.18-1.66a10.68,10.68,0,0,0-1.7-4.15,12.15,12.15,0,0,0-5.05-4.24,18,18,0,0,0-8-1.51,19.48,19.48,0,0,0-8,1.79,13.28,13.28,0,0,0-5.11,4.21,11.5,11.5,0,0,0-1.87,4.08c-.24,1.05-.25,1.65-.3,1.65a2.12,2.12,0,0,1,0-.44,6.8,6.8,0,0,1,.12-1.25,10.89,10.89,0,0,1,1.77-4.25,13.3,13.3,0,0,1,5.2-4.43,19.5,19.5,0,0,1,8.15-1.88,18.05,18.05,0,0,1,8.21,1.6,12.35,12.35,0,0,1,5.15,4.47,10.1,10.1,0,0,1,1.59,4.32,7.11,7.11,0,0,1,0,1.25A1.29,1.29,0,0,1,179.16,417.92Z" style="fill:#263238"></path></g><g id="Plant--inject-1"><path d="M150.48,201.2a18.85,18.85,0,0,1,11.72-1.42c2.13.35,4.35,1,5.79,2.58s1.72,4.41.06,5.78a5.56,5.56,0,0,1-3.65.93c-3.1,0-6.53-.58-9,1.28-1.41,1.06-2.35,2.83-4,3.35a4,4,0,0,1-4.39-1.95,6.78,6.78,0,0,1-.5-5A7.69,7.69,0,0,1,150.48,201.2Z" style="fill:#4550E6"></path><path d="M142.32,185.43c2.18,3.12,6.41,2.09,8.38.19s2.79-4.66,3.55-7.28c1.72-6,3.46-12.3,2.18-18.41a10.25,10.25,0,0,0-2.35-5,5.34,5.34,0,0,0-5.06-1.68c-2.14.56-3.47,2.65-4.43,4.65a43.83,43.83,0,0,0-4.33,18.83c0,3,.34,6.21,2.06,8.71" style="fill:#4550E6"></path><path d="M136.33,189.9a11.29,11.29,0,0,0,1.76-10.42,20.06,20.06,0,0,0-6.17-9A33.1,33.1,0,0,0,120.86,164a11.67,11.67,0,0,0-5-.85,5.2,5.2,0,0,0-4.17,2.53c-1.17,2.22,0,4.91,1.15,7.1a84.34,84.34,0,0,0,7.27,11.06c2.17,2.81,4.67,5.58,8,6.84s6.77,1.12,8.53-1.18" style="fill:#4550E6"></path><path d="M142.17,232.4a7.67,7.67,0,0,0,.2-1.42c.1-1,.22-2.32.37-3.86a56.57,56.57,0,0,1,.87-5.66,42.81,42.81,0,0,1,2.06-6.68,24.53,24.53,0,0,1,3.41-6.05,12.76,12.76,0,0,1,4.32-3.59A12.1,12.1,0,0,1,157,204a6.85,6.85,0,0,0,1.41-.2,6.7,6.7,0,0,0-1.44,0,11.28,11.28,0,0,0-3.78,1,12.75,12.75,0,0,0-4.56,3.62,23.88,23.88,0,0,0-3.53,6.17,41.08,41.08,0,0,0-2,6.79,47.82,47.82,0,0,0-.75,5.74c-.12,1.64-.17,3-.19,3.88A6.63,6.63,0,0,0,142.17,232.4Z" style="fill:#263238"></path><path d="M142.43,229.43a2.44,2.44,0,0,0,0-.66v-1.88c0-1.62,0-4,.08-6.89.14-5.83.65-12.09,1.61-20.93.92-8.3,2.15-18,3.45-24.26.28-1.43.56-2.71.82-3.84s.47-2.1.68-2.89.32-1.34.44-1.82a2.79,2.79,0,0,0,.11-.65,2.59,2.59,0,0,0-.23.62l-.54,1.79c-.24.78-.49,1.75-.77,2.88s-.61,2.4-.91,3.83a211.71,211.71,0,0,0-3.63,22.51c-1,8.85-1.4,16.91-1.44,22.75,0,2.92,0,5.28.1,6.91,0,.76.08,1.38.11,1.88A3.51,3.51,0,0,0,142.43,229.43Z" style="fill:#263238"></path><path d="M142.47,213.88a11.78,11.78,0,0,0,0-2c-.07-1.26-.25-3.08-.6-5.31a69.72,69.72,0,0,0-1.73-7.74,63.24,63.24,0,0,0-3.24-9.16,48.67,48.67,0,0,0-9.5-14.8,22.84,22.84,0,0,0-2.24-2.08c-.34-.29-.64-.58-1-.81l-.87-.6a11.49,11.49,0,0,0-1.65-1,56.68,56.68,0,0,1,5.41,4.82,51.41,51.41,0,0,1,9.27,14.75,72.31,72.31,0,0,1,3.25,9.08,76.7,76.7,0,0,1,1.84,7.66c.41,2.21.64,4,.78,5.26A13.26,13.26,0,0,0,142.47,213.88Z" style="fill:#263238"></path><polygon points="127.45 241.31 129 262.65 156.42 262.65 157.98 241.31 127.45 241.31" style="fill:#263238"></polygon><rect x="124.8" y="232.89" width="36.45" height="8.41" style="fill:#263238"></rect><polygon points="124.8 261.83 124.8 264.16 126.51 264.16 160.65 264.16 160.65 261.83 124.8 261.83" style="fill:#455a64"></polygon><polygon points="128.19 268.27 126.51 264.16 159.34 264.16 157.38 268.27 128.19 268.27" style="fill:#455a64"></polygon><path d="M157.47,248.28s0,.07-.13.2l-.41.54-1.59,2-.08.1-.06-.1-3.93-5.43h.23l-3.87,5.47-.12.18-.13-.17c-1.43-1.69-3-3.53-4.58-5.45h.26l-.25.32-4.1,5.13-.14.17-.12-.18-3.87-5.46h.23l-4.76,5.42-.09.1-.06-.11-1.49-2.51-.38-.66a1,1,0,0,1-.12-.24,1.37,1.37,0,0,1,.16.21l.42.64,1.57,2.46h-.15l4.68-5.49.12-.14.11.15c1.18,1.65,2.49,3.49,3.9,5.44h-.27l4.09-5.15.25-.31.13-.17.14.16c1.6,1.92,3.14,3.77,4.57,5.47h-.26l3.9-5.45.12-.16.11.16,3.84,5.49h-.14c.7-.83,1.26-1.5,1.66-2l.45-.51A.84.84,0,0,1,157.47,248.28Z" style="fill:#e0e0e0"></path><path d="M158.36,241.17c0,.09-6.87.17-15.34.17s-15.35-.08-15.35-.17S134.54,241,143,241,158.36,241.07,158.36,241.17Z" style="fill:#455a64"></path><path d="M159.75,264.39c0,.1-7.47.17-16.68.17s-16.67-.07-16.67-.17,7.46-.17,16.67-.17S159.75,264.3,159.75,264.39Z" style="fill:#263238"></path></g><g id="Desk--inject-1"><rect x="301.6" y="264.84" width="80.28" height="3.9" transform="translate(683.48 533.58) rotate(180)" style="fill:#263238"></rect><polygon points="394.32 268.74 409.38 212.32 346.69 212.32 333.06 268.74 394.32 268.74" style="fill:#263238"></polygon><polygon points="336.82 264.47 392.81 264.47 405.85 214.93 349.56 214.93 336.82 264.47" style="fill:#455a64"></polygon><path d="M393.2,265h-57l13-50.55h57.32Zm-55.74-1h55l12.77-48.55H350Z" style="fill:#263238"></path><rect x="136.15" y="279.7" width="4.05" height="193.56" style="fill:#455a64"></rect><rect x="140.21" y="280.25" width="4.05" height="193" style="fill:#263238"></rect><rect x="385.92" y="279.7" width="4.05" height="193.56" style="fill:#455a64"></rect><rect x="389.97" y="280.25" width="4.05" height="193" style="fill:#263238"></rect><rect x="89.16" y="268.45" width="361.43" height="15.88" style="fill:#455a64"></rect><rect x="252.38" y="284.33" width="135.57" height="26.28" style="fill:#455a64"></rect><path d="M326.21,295.65a3,3,0,1,1-3-3A3,3,0,0,1,326.21,295.65Z" style="fill:#263238"></path><path d="M417.48,284.33c0,.14-47,.26-104.9.26s-104.9-.12-104.9-.26,47-.26,104.9-.26S417.48,284.19,417.48,284.33Z" style="fill:#263238"></path></g><g id="Character--inject-1"><path d="M292.38,97.52c.54,0,7.85,1.22,7.85,1.22l9.89,12.46,1.49,2.36-13.34,8.53-5.89-8.72-5-3.25a5.09,5.09,0,0,1,5.28-.55,15.62,15.62,0,0,0,6.23,1.22l-1.76-5-5.42-1.08Z" style="fill:#eb996e"></path><path d="M293,88.8a1.53,1.53,0,0,1,1.9,1.25c.81,5.11,3.26,20.49,4,25a1.46,1.46,0,0,1-1.06,1.66L286.07,120a1.46,1.46,0,0,1-1.85-1.23L281,93.24a1.54,1.54,0,0,1,1.15-1.69Z" style="fill:#263238"></path><path d="M285.1,116.85l12-3.35-3.18-21.24a2.05,2.05,0,0,0-2.56-1.68l-9.61,2.55Z" style="fill:#ebebeb"></path><path d="M296.85,101.31l-5.39,4s.45,1.42,1.27,1.52a33,33,0,0,0,5.16-1.1Z" style="fill:#eb996e"></path><path d="M296.2,98.08l-5.65,2.48s-.36,1.84,1.75,1.58l-1.89,1.36s.47.82,2.83.92,4.65-3.18,4.65-3.18Z" style="fill:#eb996e"></path><path d="M301.81,104.37c0,.07-.69-.06-1.44-.76a15.51,15.51,0,0,0-1.3-1.09,1.84,1.84,0,0,0-1.79-.22,33.8,33.8,0,0,1-4.9,2.32,24.45,24.45,0,0,1,4.72-2.81,2.27,2.27,0,0,1,1.21-.14,2.77,2.77,0,0,1,1,.46,8.47,8.47,0,0,1,1.28,1.22A11.43,11.43,0,0,0,301.81,104.37Z" style="fill:#d1734a"></path><path d="M300.7,118.45a7.72,7.72,0,0,1-.9-8.49,18.32,18.32,0,0,0-.31,4.32A18.16,18.16,0,0,0,300.7,118.45Z" style="fill:#d1734a"></path><path d="M300,100.57c-.07.06-.37-.37-1.09-.6a3.83,3.83,0,0,0-2.87.33c-1.06.51-2,1.16-2.75,1.47s-1.28.38-1.29.32.44-.24,1.12-.65,1.56-1.07,2.71-1.61a4.53,4.53,0,0,1,1.74-.47,3.14,3.14,0,0,1,1.47.27C299.79,100,300,100.55,300,100.57Z" style="fill:#d1734a"></path><path d="M299.53,136l29.39,18.87-7.79,22.28s-20.11-6.21-19.74-6.86S299.53,136,299.53,136Z" style="fill:#4550E6"></path><path d="M291.93,437.58l-4.63,21.29s20.09,11.85,19.62,15.86l-41.6-7.48,5.84-33.47Z" style="fill:#263238"></path><path d="M265.32,467.25l.72-3.35,39.62,8.43s1.7,1.14,1.26,2.4Z" style="fill:#455a64"></path><path d="M244.61,439.92l-.69,21.77s21.91,8,22.17,12.05l-42.27.19-.32-34Z" style="fill:#263238"></path><g style="opacity:0.6000000000000001"><path d="M223.82,473.93l.1-3.43,40.49,1.11s1.89.81,1.68,2.13Z" style="fill:#455a64"></path></g><path d="M250.74,82.86l4.31,50,25-2c.15-2.92-.06-14.22-.06-14.22s10.41-1.62,10.54-12c.06-5.06-.66-15.5-1.42-24.91A19.26,19.26,0,0,0,268.81,62h0A19.26,19.26,0,0,0,250.74,82.86Z" style="fill:#eb996e"></path><path d="M280,116.45a24.24,24.24,0,0,1-13.57-3.86s3.21,7.49,13.59,6.55Z" style="fill:#d1734a"></path><path d="M285.1,87a1.49,1.49,0,0,1-1.44,1.5,1.42,1.42,0,0,1-1.53-1.34,1.49,1.49,0,0,1,1.43-1.5A1.43,1.43,0,0,1,285.1,87Z" style="fill:#263238"></path><path d="M286.9,84.9c-.18.2-1.31-.64-2.91-.63s-2.77.8-2.94.61.1-.44.61-.81a4.13,4.13,0,0,1,2.36-.73,3.92,3.92,0,0,1,2.32.75C286.83,84.46,287,84.82,286.9,84.9Z" style="fill:#263238"></path><path d="M269.74,87a1.48,1.48,0,0,1-1.43,1.5,1.43,1.43,0,0,1-1.54-1.34,1.5,1.5,0,0,1,1.44-1.5A1.43,1.43,0,0,1,269.74,87Z" style="fill:#263238"></path><path d="M271.18,85.2c-.18.19-1.31-.64-2.91-.63s-2.77.8-2.94.6.1-.43.61-.8a4,4,0,0,1,2.36-.73,3.87,3.87,0,0,1,2.32.75C271.11,84.76,271.27,85.11,271.18,85.2Z" style="fill:#263238"></path><path d="M277,97.06a10.71,10.71,0,0,1,2.6-.47c.4,0,.79-.12.86-.4a2.12,2.12,0,0,0-.27-1.21c-.39-1-.79-2-1.21-3.11-1.68-4.43-2.89-8.07-2.71-8.13s1.68,3.47,3.36,7.89c.4,1.1.79,2.14,1.15,3.13a2.4,2.4,0,0,1,.22,1.61,1,1,0,0,1-.68.59,2.67,2.67,0,0,1-.69.1A10.13,10.13,0,0,1,277,97.06Z" style="fill:#263238"></path><path d="M272.28,98.17c.26,0,.26,1.72,1.75,3s3.33,1,3.35,1.29-.41.33-1.2.35a4.32,4.32,0,0,1-2.79-1A3.74,3.74,0,0,1,272,99.31C272,98.59,272.16,98.16,272.28,98.17Z" style="fill:#263238"></path><path d="M271.6,78.93c-.16.44-1.76.23-3.64.46s-3.39.74-3.64.35c-.11-.19.15-.6.77-1a6.31,6.31,0,0,1,5.54-.61C271.32,78.38,271.66,78.73,271.6,78.93Z" style="fill:#263238"></path><path d="M286.32,80.27c-.28.37-1.39,0-2.71,0s-2.45.25-2.71-.13c-.11-.19.07-.55.56-.9a3.93,3.93,0,0,1,4.36.14C286.29,79.72,286.44,80.1,286.32,80.27Z" style="fill:#263238"></path><path d="M262,71.45l-.06,0a8.19,8.19,0,0,0-3,5.3l0,.21c-.41,3-.33,6-.77,9s-1.46,6-3.66,8c-.9.84-2.49,1.42-3.23.44a2.46,2.46,0,0,1-.37-1.36c-.56-7.17-2.52-13.53-2.5-21A6.3,6.3,0,0,1,251,66.88c1.57-1.12,3.48-2.29,5.23-1.46s4,4.09,5.35,5.47" style="fill:#263238"></path><path d="M254.25,87.57c-.18-.08-7.15-2.12-6.93,5s7.33,5.42,7.33,5.22S254.25,87.57,254.25,87.57Z" style="fill:#eb996e"></path><path d="M252.39,95.16s-.12.09-.32.19a1.24,1.24,0,0,1-.93.05,3.07,3.07,0,0,1-1.51-2.7,4.14,4.14,0,0,1,.29-1.79,1.44,1.44,0,0,1,.9-1,.65.65,0,0,1,.75.31c.1.2.06.34.1.35s.14-.12.08-.41a.79.79,0,0,0-.3-.44,1,1,0,0,0-.69-.16,1.78,1.78,0,0,0-1.26,1.15,4.17,4.17,0,0,0-.36,2c.09,1.44.87,2.75,1.9,3a1.33,1.33,0,0,0,1.13-.23C252.39,95.33,252.42,95.17,252.39,95.16Z" style="fill:#d1734a"></path><path d="M256,66.52c-1.75-2.85,3.05-6.94,6.56-8s8.14.6,11.63,1.76c2.21.73,4.4,1.75,6.73,1.66a16.27,16.27,0,0,0,4.51-1.15,11.4,11.4,0,0,1,4.55-.9,4.28,4.28,0,0,1,3.74,2.37c.59,1.44-.25,3.42-1.8,3.63a3.49,3.49,0,1,1,.94,6.48c1-.77,2.56.5,2.43,1.76a3.67,3.67,0,0,1-2.43,2.7c-3,1.3-6.43.88-9.5-.15s-5.92-2.64-9-3.75-8.15-3.11-11.2-2c-2.25.8-3.82,3.51-5.09,2.91a4.34,4.34,0,0,1-2.25-3.2,12.53,12.53,0,0,1,.14-4" style="fill:#263238"></path><path d="M292.77,65.66c-.06,0-.36.52-1.13,1.35a9.75,9.75,0,0,1-3.95,2.55,9.05,9.05,0,0,1-6.79-.27C278.48,68.2,276.41,66,274,64a14.76,14.76,0,0,0-8-3.84,8.19,8.19,0,0,0-6.8,2.35,6.19,6.19,0,0,0-1.62,4.6,4.65,4.65,0,0,0,.31,1.31c.13.28.21.42.23.41a11.23,11.23,0,0,1-.27-1.73,6.15,6.15,0,0,1,1.71-4.25A7.81,7.81,0,0,1,266,60.79a14.39,14.39,0,0,1,7.6,3.73c2.34,2,4.48,4.23,7.07,5.36a9.66,9.66,0,0,0,11.21-2.69,6.34,6.34,0,0,0,.74-1.1C292.73,65.82,292.79,65.67,292.77,65.66Z" style="fill:#455a64"></path><path d="M252.43,87.26s.31-.2.58-.76a4.89,4.89,0,0,0,.36-2.58c-.16-2.29-2.19-4.75-2.45-7.92a7.16,7.16,0,0,1,.79-4.25,5.46,5.46,0,0,1,2.64-2.28,4.65,4.65,0,0,1,2.38-.33c.57.1.88.23.91.17a1.75,1.75,0,0,0-.85-.43,4.41,4.41,0,0,0-2.61.12,5.78,5.78,0,0,0-3,2.42,7.6,7.6,0,0,0-.93,4.65,13.15,13.15,0,0,0,1.37,4.48A13.54,13.54,0,0,1,252.87,84,5.39,5.39,0,0,1,252.43,87.26Z" style="fill:#455a64"></path><path d="M294.2,455.84s21.67-106.3,21.69-108.42L277.18,327l-15,124.75Z" style="fill:#263238"></path><path d="M245.46,459.4l29.93-184.23V235.43l-43.34,3.1c-.52,1.55-11.45,221.11-11.45,221.11l4.22-.24h20.64" style="fill:#263238"></path><polygon points="298.92 232.62 315.89 347.42 277.95 338.22 262.49 236.36 298.92 232.62" style="fill:#263238"></polygon><line x1="307.39" y1="278.43" x2="305.46" y2="262.8" style="fill:#4550E6"></line><path d="M305.46,282.07s6.6-5.67,7.25-9.94-7.91-73-7.91-73l-4.37-56.82c0,1,.12-7.16-1.2-7.65-4-1.51-12.22-4.25-12.22-4.25l-4.7-4.22s8.44,36.08,10.08,45.94Z" style="fill:#4550E6"></path><path d="M251.27,122.27l-7.1,4.73-26.63,10.47,11.83,44.61L227.78,208l-1.51,16.45s-7.93,40.73-14.93,65.48c0,0,7.81,14.8,14.23,16.86l2.67,1.59,9.52-69.71,8.17-11c.79-1.06,1.52-2.15,2.21-3.27,2-3.27,6.58-10.7,10.23-16.43,4.82-7.57,11-24.77,9.17-32.11S251.27,122.27,251.27,122.27Z" style="fill:#4550E6"></path><path d="M233.18,276.06a61,61,0,0,0,15.24-18.32" style="fill:#263238"></path><path d="M251.27,122.27l6.41,41.13a59.48,59.48,0,0,1-2.59,15.5l-11.44,37s-9,20.17-5.89,22.75,27.3,0,27.3,0l32.74-4.75a2.88,2.88,0,0,0,2.45-3.12l-4.86-50.22c-1.64-3.47-2.31-10.57-3-13.09l-10.08-41.27-2.06-.27L275.77,129l-2.36.19-19.81-9.59Z" style="fill:#ebebeb"></path><path d="M245.3,210.53c5.29-16.49,12.14-43.3,12.14-43.3,2.13,14-.2,28.35-5.41,41.55-4.26,10.76-9.41,18.9-12.95,29.93l-.11.45s-2,.11-1.86-2.84,3-11.73,4.91-16.59S245.3,210.53,245.3,210.53Z" style="fill:#e0e0e0"></path><polygon points="276.91 132.49 272.46 132.49 271.13 138.58 275.02 143.29 278.94 142.9 280.22 138.53 279.17 136.09 276.91 132.49" style="fill:#4550E6"></polygon><path d="M302.86,168.05c1.4.28,16.86,10.68,22.48,9.56s10.17-6.42,10.77-7.13c3.19-3.78,1.19-11.63.27-14.59a10,10,0,0,0-.91-2.07l-23.87-41-14.07,8.55L312.13,148Z" style="fill:#4550E6"></path><path d="M187.73,217.62a18.32,18.32,0,0,1,.86-15c3.24-6.41,8.38-16.76,9.46-20.16,1.6-5.05,16.56-43.8,19.49-45l13,43.89-15.1,31.8,17.7,33.35L218.39,262.4s-27.91-38.92-30.21-43.73Q187.94,218.15,187.73,217.62Z" style="fill:#4550E6"></path><path d="M233.84,272.52a49.57,49.57,0,0,0,7.39-8.72.32.32,0,0,1,0-.27.42.42,0,0,1,.3-.18,42.69,42.69,0,0,0,2.32-4.07c-2.47-1.61-5.7-4-2.19-4.54,4.33-.62,7.42-2.72,7.86-3.87s-1-2.18-2.14-1.45a15.69,15.69,0,0,1-4.16,1.44,10.49,10.49,0,0,1-3.53.22c-1.37-.15-7-2.59-8-2.77l-10.53,11.08S229.25,268,233.84,272.52Z" style="fill:#eb996e"></path><path d="M302.76,169.27a5.31,5.31,0,0,1-.37-1.23c-.21-.8-.47-2-.76-3.43A111.72,111.72,0,0,1,300,153.16a109.42,109.42,0,0,1-.42-11.56c0-1.48.08-2.67.14-3.5a7.22,7.22,0,0,1,.14-1.28,5.47,5.47,0,0,1,.06,1.29c0,.93,0,2.1,0,3.49,0,3,.17,7,.57,11.52s1,8.52,1.48,11.43c.23,1.37.43,2.53.59,3.45A6.8,6.8,0,0,1,302.76,169.27Z" style="fill:#263238"></path><path d="M315,171.64s-.12,0-.34-.08a5.41,5.41,0,0,1-.89-.42,7.65,7.65,0,0,1-2.54-2.58,16.17,16.17,0,0,1-1.82-5,60.74,60.74,0,0,1-1.19-6.43c-.42-4.62-.77-8.77-1-11.79-.1-1.43-.18-2.63-.25-3.58a6.07,6.07,0,0,1,0-1.32,7.31,7.31,0,0,1,.22,1.3c.1,1,.24,2.14.4,3.56.33,3,.74,7.19,1.15,11.77.29,2.28.72,4.44,1.15,6.38a16.94,16.94,0,0,0,1.66,5,8.15,8.15,0,0,0,2.34,2.6C314.61,171.44,315.05,171.6,315,171.64Z" style="fill:#263238"></path><g style="opacity:0.30000000000000004"><path d="M306.94,140.48a88.23,88.23,0,0,0-2.52,14.05,21.44,21.44,0,0,0,.44,8.49c.86,2.72,2.87,5.23,5.63,6q-1.89-13.92-3.33-27.89"></path></g><g style="opacity:0.30000000000000004"><path d="M225.06,230.39s4.68,9.59,7.27,14.61c5.4-22.31-1.45-45.79.78-68.63l-3.9,7.87-1.1,18.21-.84,10.68S226.47,224.62,225.06,230.39Z"></path></g><path d="M228.84,137.88a7.7,7.7,0,0,1,.79,1.24c.25.41.53.92.83,1.52s.67,1.29,1,2.07a49.62,49.62,0,0,1,2.11,5.6,49.18,49.18,0,0,1,2.12,14.46,45.87,45.87,0,0,1-.41,6c-.08.85-.24,1.61-.36,2.27s-.24,1.24-.35,1.7a7.45,7.45,0,0,1-.41,1.42,8.38,8.38,0,0,1,.21-1.46c.08-.47.18-1,.27-1.71s.21-1.42.28-2.26a53.89,53.89,0,0,0,.29-5.93,57.49,57.49,0,0,0-.55-7.23,58.44,58.44,0,0,0-1.55-7.09,51.69,51.69,0,0,0-2-5.59c-.3-.79-.65-1.47-.92-2.09s-.53-1.13-.75-1.55A7.44,7.44,0,0,1,228.84,137.88Z" style="fill:#263238"></path><path d="M215.3,213.42c-.07.05-.74-1-2-2.65a25.77,25.77,0,0,0-5.91-5.35,6.06,6.06,0,0,0-4.08-1,8,8,0,0,0-3.23,1.38c-1.69,1.16-2.61,2.07-2.68,2a2.92,2.92,0,0,1,.6-.69,17.5,17.5,0,0,1,1.87-1.62A8.11,8.11,0,0,1,203.2,204a6.36,6.36,0,0,1,4.42,1,23,23,0,0,1,5.93,5.57,20.65,20.65,0,0,1,1.36,2.06A2.85,2.85,0,0,1,215.3,213.42Z" style="fill:#263238"></path><path d="M212,202.91a20.32,20.32,0,0,1,3.3,10.15c-.16,0-.55-2.34-1.47-5.13S211.89,203,212,202.91Z" style="fill:#263238"></path><path d="M224.75,229.77a8.42,8.42,0,0,1,.75,1.28l1.9,3.59c1.59,3.05,3.76,7.3,6.17,12.07l.09.17-.13.13-1,1c-3.93,4.09-7.5,7.78-10.11,10.42l-3.11,3.12a9.85,9.85,0,0,1-1.19,1.1,9.58,9.58,0,0,1,1-1.24l3-3.23c2.54-2.72,6.08-6.44,10-10.53l1-1,0,.3c-2.4-4.78-4.52-9-6-12.15l-1.75-3.66A7.7,7.7,0,0,1,224.75,229.77Z" style="fill:#263238"></path><path d="M244.23,209.65a4.85,4.85,0,0,1,0-.87c0-.61,0-1.43,0-2.47.05-2.19.12-5.29.21-9.09s.19-8.4.4-13.47a73.4,73.4,0,0,1,2.24-16.38,38.31,38.31,0,0,1,3.16-7.91l.19.38a5.43,5.43,0,0,1-3.2-1.81,7.86,7.86,0,0,1-1.67-3.11,24.71,24.71,0,0,1-.52-6.48c0-4.07,0-7.71,0-10.75s0-5.41,0-7.13c0-.8,0-1.44,0-1.92a3.1,3.1,0,0,1,0-.66,3.44,3.44,0,0,1,.05.66c0,.48,0,1.12.05,1.92,0,1.72.06,4.13.11,7.12s.07,6.68.11,10.76a24.26,24.26,0,0,0,.54,6.35,7.41,7.41,0,0,0,1.57,2.9,4.9,4.9,0,0,0,2.9,1.64l.36.06-.17.32a37.57,37.57,0,0,0-3.11,7.8,75,75,0,0,0-2.26,16.26c-.23,5.06-.36,9.63-.52,13.47s-.28,6.88-.37,9.08l-.12,2.47A8.63,8.63,0,0,1,244.23,209.65Z" style="fill:#263238"></path><path d="M287.08,131a2.75,2.75,0,0,1,.24.55c.14.42.34,1,.57,1.61l2.07,6c.86,2.57,1.89,5.62,3,9,.55,1.73,1.23,3.49,1.74,5.44a7.06,7.06,0,0,1,.13,3.11,4.16,4.16,0,0,1-1.78,2.73l.08-.37c.84,1.25,1.73,2.58,2.56,4a24,24,0,0,1,2.8,6.48,22.71,22.71,0,0,1,.45,6.56c-.24,4.15-.51,7.88-.73,11s-.41,5.62-.55,7.43c-.07.83-.13,1.5-.17,2a3.6,3.6,0,0,1-.1.7,3.53,3.53,0,0,1,0-.71c0-.51.05-1.19.08-2,.09-1.82.22-4.35.38-7.44s.39-6.89.63-11a23.43,23.43,0,0,0-.47-6.41,23.8,23.8,0,0,0-2.76-6.33c-.82-1.38-1.7-2.7-2.54-4l-.15-.22.23-.14a3.63,3.63,0,0,0,1.55-2.39,6.61,6.61,0,0,0-.11-2.9c-.48-1.88-1.16-3.69-1.7-5.4-1.1-3.43-2.09-6.49-2.93-9.07s-1.45-4.57-1.91-6c-.21-.67-.37-1.22-.5-1.64A4.11,4.11,0,0,1,287.08,131Z" style="fill:#263238"></path><path d="M248.16,255.26a3.07,3.07,0,0,1-.46.82c-.32.51-.8,1.23-1.41,2.11-1.23,1.76-3,4.15-5,6.73s-3.94,4.84-5.36,6.44c-.71.8-1.3,1.44-1.72,1.87s-.66.66-.69.64a26.35,26.35,0,0,1,2.13-2.75c1.35-1.66,3.21-4,5.23-6.52s3.81-4.92,5.11-6.63A26.48,26.48,0,0,1,248.16,255.26Z" style="fill:#455a64"></path><path d="M263.83,242.36s0,.19,0,.56-.1.94-.18,1.65c-.16,1.46-.41,3.59-.72,6.32-.65,5.49-1.62,13.44-2.9,23.24-2.53,19.61-6.37,46.66-10.5,76.54-2.06,14.95-4,29.19-5.56,42.17-.41,3.24-.74,6.41-1.2,9.48s-.93,6-1.37,8.9l-2.42,16c-1.47,9.78-2.63,17.69-3.39,23.17-.38,2.73-.66,4.86-.83,6.31-.08.72-.14,1.27-.16,1.64a3.24,3.24,0,0,0,0,.42c0,.12.07,0,.07,0l0,0s-.08,0-.07-.05a1.55,1.55,0,0,1,0-.42c0-.37.05-.93.12-1.65.13-1.45.38-3.59.73-6.33.7-5.49,1.8-13.41,3.22-23.19.73-4.9,1.52-10.25,2.36-16,.44-2.88.88-5.85,1.34-8.91s.78-6.23,1.19-9.47c1.58-13,3.46-27.23,5.51-42.18,4.13-29.89,8-56.92,10.66-76.52,1.29-9.78,2.33-17.71,3.06-23.21.35-2.73.63-4.85.82-6.32.1-.7.17-1.25.22-1.64S263.83,242.36,263.83,242.36Z" style="fill:#455a64"></path><path d="M286.65,454.85a5.19,5.19,0,0,1,.07-.54c.06-.38.14-.91.25-1.6.25-1.42.6-3.47,1-6.11.93-5.33,2.28-13,3.94-22.47L305.15,350a17.3,17.3,0,0,0,.32-5.36c-.23-1.78-.53-3.58-.79-5.34q-.81-5.31-1.61-10.45c-1.08-6.84-2.15-13.44-3.19-19.72-2.09-12.56-4.11-23.85-5.91-33.31s-3.39-17.09-4.59-22.34c-.57-2.63-1.09-4.66-1.41-6-.15-.67-.27-1.2-.36-1.57s-.11-.54-.11-.54a5.19,5.19,0,0,1,.16.53l.42,1.56c.35,1.37.9,3.39,1.5,6,1.26,5.23,2.9,12.86,4.75,22.31s3.9,20.74,6,33.3c1.06,6.28,2.13,12.88,3.22,19.72q.8,5.15,1.62,10.45c.27,1.78.56,3.54.8,5.36a18,18,0,0,1-.33,5.53c-5.21,28.91-9.92,55.09-13.34,74.06-1.73,9.46-3.13,17.12-4.1,22.44-.49,2.64-.88,4.69-1.14,6.1-.13.68-.24,1.21-.31,1.58S286.65,454.85,286.65,454.85Z" style="fill:#455a64"></path><path d="M275.39,273.87c.15,0-1.62,11.92-3.95,26.58S267.12,327,267,327s1.63-11.92,3.95-26.58S275.25,273.85,275.39,273.87Z" style="fill:#455a64"></path><path d="M245.82,459.07a4.39,4.39,0,0,1-1,.17c-.63.07-1.55.16-2.69.25-2.27.18-5.42.35-8.9.4s-6.64,0-8.92-.11c-1.14,0-2.06-.1-2.69-.16a3.26,3.26,0,0,1-1-.14,30.5,30.5,0,0,1,3.69-.06c2.28,0,5.42,0,8.9-.05s6.61-.16,8.89-.25A27.64,27.64,0,0,1,245.82,459.07Z" style="fill:#455a64"></path><path d="M294.2,455.84a6.38,6.38,0,0,1-1.27-.07l-3.44-.36c-2.9-.33-6.9-.83-11.32-1.4s-8.42-1.12-11.31-1.54l-3.42-.52a8.19,8.19,0,0,1-1.25-.25,4.81,4.81,0,0,1,1.28.05c.81.07,2,.19,3.44.35,2.9.33,6.91.82,11.33,1.39s8.41,1.13,11.3,1.55l3.42.53A5.37,5.37,0,0,1,294.2,455.84Z" style="fill:#455a64"></path><path d="M252,128.92a6.76,6.76,0,0,1,1.1.71l2.94,2c2.5,1.71,6,4,10,6.28,1.5.86,3,1.66,4.32,2.38l-.36.16c.84-3.32,1.58-6.17,2.12-8.18.26-.94.48-1.72.66-2.36a3.74,3.74,0,0,1,.29-.83,3.54,3.54,0,0,1-.13.87c-.14.65-.31,1.44-.51,2.39-.47,2-1.14,4.9-2,8.23l-.07.3-.28-.14c-1.37-.71-2.85-1.51-4.35-2.37a106.9,106.9,0,0,1-9.94-6.43c-1.22-.89-2.19-1.65-2.85-2.18A5.7,5.7,0,0,1,252,128.92Z" style="fill:#263238"></path><path d="M285,136.28a34,34,0,0,1-4.42,3l-.22.14-.12-.24-1.35-2.63c-1-2-1.95-3.9-2.58-5.26a11.47,11.47,0,0,1-.94-2.25,11.21,11.21,0,0,1,1.26,2.09c.72,1.31,1.69,3.14,2.72,5.18L280.7,139l-.34-.1A36.78,36.78,0,0,1,285,136.28Z" style="fill:#263238"></path><path d="M278.48,135.3a5,5,0,0,1-.88.69c-.55.41-1.33,1-2.2,1.55s-1.66,1.12-2.24,1.5a6.66,6.66,0,0,1-1,.57,5.23,5.23,0,0,1,.88-.7c.56-.4,1.34-.95,2.2-1.54l2.24-1.5A6.66,6.66,0,0,1,278.48,135.3Z" style="fill:#263238"></path><path d="M275.48,137.37a17.47,17.47,0,0,1-2-1.84,17.78,17.78,0,0,1-1.79-2,16.93,16.93,0,0,1,1.94,1.84A17.68,17.68,0,0,1,275.48,137.37Z" style="fill:#263238"></path><path d="M256.64,226.08a23.27,23.27,0,0,0,2.07,7.21,23,23,0,0,0,4.66,5.87,6.15,6.15,0,0,1-1.83-1.31,15.45,15.45,0,0,1-4.9-9.52A6.37,6.37,0,0,1,256.64,226.08Z" style="fill:#263238"></path><path d="M262.46,239.26a14,14,0,0,1-8.79-4.13c.1-.12,1.82,1.25,4.24,2.38S262.49,239.1,262.46,239.26Z" style="fill:#263238"></path><path d="M282,207.25a4.1,4.1,0,0,1,.37,1.07c.21.7.48,1.72.78,3,.62,2.53,1.35,6.06,1.93,10s.91,7.52,1.06,10.13c.07,1.3.11,2.35.11,3.08a4.34,4.34,0,0,1,0,1.13,5.32,5.32,0,0,1-.16-1.12c-.08-.84-.17-1.86-.28-3.07-.24-2.58-.62-6.15-1.2-10.07s-1.26-7.45-1.78-10c-.24-1.19-.45-2.2-.62-3A5.27,5.27,0,0,1,282,207.25Z" style="fill:#263238"></path><path d="M275.34,144.31c-1.3,10.39-2.26,33-2.62,43.49-.3,8.76-.27,17.53-.24,26.3,0,2.83,0,5.75,1.21,8.32,2.09,4.63,7.2,7,11.89,8.88Z" style="fill:#e0e0e0"></path><path d="M287,229.8l5.37-13.16L278.94,142.9l-3.92.39s.55,76.64.37,77.33Z" style="fill:#4550E6"></path><path d="M278.8,142.9a6.68,6.68,0,0,1-1.87.31,7.19,7.19,0,0,1-1.88,0,12.44,12.44,0,0,1,1.87-.18A15,15,0,0,1,278.8,142.9Z" style="fill:#263238"></path></g></svg>