<svg xmlns="http://www.w3.org/2000/svg" viewBox="0 0 500 500"><!--Server status--><g id="background-complete--inject-1"><g style="opacity:0.8"><path d="M476.63,400.25a43.35,43.35,0,0,1-4.69,10.58l5.51,9.21L464.61,432.3l-8.95-5.94a43.41,43.41,0,0,1-10.79,4.19L442.25,441l-17.75-.42L422.38,430a43.8,43.8,0,0,1-10.59-4.69l-9.21,5.51L390.32,418l5.94-8.94a43.45,43.45,0,0,1-4.18-10.8l-10.41-2.61.42-17.76,10.52-2.12a43.32,43.32,0,0,1,4.68-10.58L391.78,356l12.85-12.25,8.94,5.94a43.48,43.48,0,0,1,10.8-4.19l2.61-10.4,17.76.42L446.86,346a43.8,43.8,0,0,1,10.59,4.69l9.21-5.51L478.91,358,473,367a43.85,43.85,0,0,1,4.18,10.8l10.4,2.61-.42,17.75-10.51,2.13Zm-23-11a19.05,19.05,0,1,0-19.49,18.59A19,19,0,0,0,453.64,389.26Z" style="fill:#e0e0e0;fill-rule:evenodd"></path></g><path d="M196.09,135.13a5,5,0,0,1-.16,1.56A6.43,6.43,0,0,1,187.4,141a5.74,5.74,0,0,1-1.63-.92,6,6,0,0,1-1.35-1.41,6.47,6.47,0,0,1,.18-7.7,6,6,0,0,1,1.42-1.34,5.83,5.83,0,0,1,1.67-.84,6.4,6.4,0,0,1,6.1,1.11,6.36,6.36,0,0,1,2.21,3.63,4.82,4.82,0,0,1,.09,1.57,14,14,0,0,0-.23-1.54,6.35,6.35,0,0,0-2.23-3.46,6.23,6.23,0,0,0-5.84-1,5.86,5.86,0,0,0-1.57.81,6,6,0,0,0-1.34,1.28,6.14,6.14,0,0,0-.17,7.28,6,6,0,0,0,1.27,1.34,6.25,6.25,0,0,0,1.54.88,6.25,6.25,0,0,0,8.27-4.07C196.06,135.69,196.05,135.12,196.09,135.13Z" style="fill:#e0e0e0"></path><path d="M203.74,138.78l.21-.06.66-.14,2.61-.56,0,0c0-1.51.06-3.5.1-5.9l.07.09-3.46-.86h-.06l0-.07a15.05,15.05,0,0,0-1.39-3.56l0-.06,0-.06,2-3v.16l-4.08-4.26.17,0-3.06,1.84-.07,0-.08,0a14.41,14.41,0,0,0-3.49-1.54l-.09,0,0-.1-.71-3.49.16.13-5.91-.13.17-.13-.87,3.46,0,.1-.11,0a13.83,13.83,0,0,0-3.54,1.37l-.1.05-.08-.06c-.94-.61-1.95-1.29-3-2l.22,0-4.27,4.08,0-.22L177.5,127l.06.1-.06.09a14.75,14.75,0,0,0-1.54,3.47h0l-.13.12h-.06l-.05,0-.11,0-.22,0L175,131l-.88.18-1.74.35.14-.17q-.06,3-.14,5.9l-.13-.18,3.46.87.1,0,0,.11a14.06,14.06,0,0,0,1.37,3.54l.05.1-.06.09-2,3,0-.22,4.08,4.28-.21,0,3.07-1.83.08,0,.09,0a13.93,13.93,0,0,0,3.47,1.55l.1,0,0,.09c.24,1.2.47,2.36.7,3.5l-.15-.12,5.91.15-.14.11.88-3.46,0-.08.07,0a14.41,14.41,0,0,0,3.57-1.37l.06,0,.06,0,3,2h-.14l4.3-4.05,0,.1-1.81-3.08,0,0,0,0a15.26,15.26,0,0,0,1.28-2.59c.11-.29.19-.51.24-.68a1.35,1.35,0,0,1,.09-.22l-.06.23q-.06.23-.21.69a14.11,14.11,0,0,1-1.24,2.63v-.06l1.85,3,0,.06-.05,0-4.26,4.1-.06.06-.07-.05-3-2h.12A14.3,14.3,0,0,1,193.2,149l.1-.09c-.28,1.1-.56,2.25-.86,3.46l0,.11h-.11l-5.91-.13h-.12l0-.12c-.23-1.14-.47-2.3-.71-3.5l.11.12a14.28,14.28,0,0,1-3.57-1.57h.17l-3.06,1.84-.11.07-.1-.1-4.08-4.27-.09-.1.07-.11,2-3v.18a14.64,14.64,0,0,1-1.41-3.63l.13.13-3.46-.87-.14,0v-.15c.05-1.94.09-3.91.14-5.9v-.15l.15,0,1.74-.35.88-.18.44-.08.22-.05.11,0h.1c-.27.25-.07.07-.14.12h0a14.52,14.52,0,0,1,1.57-3.56v.19l-1.83-3.07-.07-.12.1-.1,4.28-4.08.1-.09.12.07c1,.69,2,1.36,3,2h-.18a14.67,14.67,0,0,1,3.63-1.4l-.12.13.87-3.46,0-.14h.14l5.9.14h.13l0,.12c.24,1.22.48,2.42.7,3.5l-.11-.12a14.83,14.83,0,0,1,3.56,1.58h-.16l3.07-1.82.1-.06.07.08,4.07,4.28.07.08,0,.08-2,3v-.12a14.62,14.62,0,0,1,1.39,3.62l-.08-.07,3.46.88.07,0v.07c-.07,2.4-.13,4.39-.18,5.9v.05h0l-2.6.49-.68.13Z" style="fill:#e0e0e0"></path><g style="opacity:0.8"><path d="M259.58,96.24a28.43,28.43,0,0,1-3.08,7l3.63,6.06-8.46,8.07-5.88-3.91a28.28,28.28,0,0,1-7.1,2.75L237,123l-11.68-.28-1.4-6.92a28.5,28.5,0,0,1-7-3.08l-6.06,3.63-8.06-8.46,3.91-5.88a28.28,28.28,0,0,1-2.75-7.1l-6.85-1.72.28-11.68,6.91-1.4a28.53,28.53,0,0,1,3.09-7l-3.63-6.06L212.22,59,218.1,63a28.28,28.28,0,0,1,7.1-2.75l1.72-6.85,11.68.28,1.4,6.91a28.29,28.29,0,0,1,7,3.09L253,60l8.06,8.45-3.91,5.89a28.28,28.28,0,0,1,2.75,7.1l6.85,1.72-.28,11.68-6.92,1.4ZM244.46,89a12.53,12.53,0,1,0-12.82,12.23A12.53,12.53,0,0,0,244.46,89Z" style="fill:#f5f5f5;fill-rule:evenodd"></path></g><path d="M76.74,445.6c20-11.07,26.8-34.8,28.35-56.62.26-3.64,1.06-7.42-.33-10.79s-5.19-6-8.6-4.78c-2.83,1-4.33,4-6.11,6.43a21.3,21.3,0,0,1-9.37,7.23c-2.44,1-5.37,1.39-7.52-.11-3-2.06-2.86-6.42-2.46-10L73,356.77c.41-3.61.8-7.29,0-10.83s-2.9-7-6.24-8.31-7.78.21-8.88,3.66a31.9,31.9,0,0,0-.57,4.48c-.26,1.49-1.13,3.08-2.6,3.34s-2.82-.9-3.79-2.07c-3.34-4-5.37-9-7.25-13.91S40,323.19,37,318.86s-7.3-8-12.44-8.81-11,1.77-12.82,6.71.58,10.42,3.38,14.88A80.71,80.71,0,0,0,30.24,349.4a6.58,6.58,0,0,1,2.49,3.31c.53,2.49-2,4.64-4.46,5.18-2.78.61-5.67,0-8.52.06s-6,.95-7.37,3.5C10.51,365,13.19,369.17,16,372A69.49,69.49,0,0,0,35.14,386c2.55,1.25,5.25,2.39,7.2,4.48s2.89,5.48,1.33,7.88-5,2.87-7.69,2.06-5.06-2.58-7.6-3.86c-4.77-2.39-11.21-2.72-14.83,1.23-2.39,2.6-3,6.5-2.28,10a26.25,26.25,0,0,0,4.53,9.49c7,10.17,16.35,18.75,27.43,23.95s21.63,7.4,33.51,4.43" style="fill:#f5f5f5"></path><path d="M72.56,431.38a323.33,323.33,0,0,0-9.17-36.17q-1.45-4.74-2.89-9.36c-1-3.07-1.9-6.11-3-9a162.71,162.71,0,0,0-7.34-16.41c-2.59-5.11-5.24-9.86-7.74-14.28s-4.93-8.5-7.3-12.12a128.36,128.36,0,0,0-12.42-16.25c-1.61-1.79-2.9-3.14-3.79-4.05l-1-1a2.74,2.74,0,0,0-.36-.33,2.91,2.91,0,0,0,.31.38l1,1.07c.86.93,2.12,2.31,3.7,4.13a135.88,135.88,0,0,1,12.22,16.33c2.33,3.63,4.72,7.71,7.21,12.14s5.1,9.18,7.67,14.29a163.7,163.7,0,0,1,7.28,16.36c1.1,2.9,2,5.92,3,9s1.91,6.19,2.89,9.35A333.78,333.78,0,0,1,72,431.49" style="fill:#e0e0e0"></path><path d="M57.3,376.78a6.92,6.92,0,0,0,.52-1.51c.29-1,.67-2.4,1.11-4.17.89-3.54,2-8.47,3.1-13.91s2.28-10.34,3.22-13.86c.46-1.76.86-3.18,1.14-4.16a6.38,6.38,0,0,0,.36-1.54,7.74,7.74,0,0,0-.61,1.46c-.36,1-.82,2.36-1.34,4.11-1.06,3.5-2.27,8.4-3.42,13.85S59.25,367.28,58.47,371c-.36,1.67-.66,3.09-.9,4.22A7.29,7.29,0,0,0,57.3,376.78Z" style="fill:#e0e0e0"></path><path d="M11.82,363.22a10.38,10.38,0,0,0,1.83.41c1.17.23,2.88.56,5,1,4.2.91,10,2.36,16.25,4.25s11.89,3.85,15.91,5.38c2,.75,3.63,1.41,4.75,1.85a10.65,10.65,0,0,0,1.76.64,8.69,8.69,0,0,0-1.66-.88c-1.09-.52-2.68-1.24-4.68-2-4-1.66-9.59-3.69-15.89-5.59a165.18,165.18,0,0,0-16.35-4.07c-2.11-.41-3.84-.67-5-.82A9.64,9.64,0,0,0,11.82,363.22Z" style="fill:#e0e0e0"></path><path d="M72.08,430.46s.15-.17.38-.53l1-1.59c.84-1.39,2-3.43,3.39-6,2.8-5.08,6.45-12.22,10.36-20.15s7.49-15.1,10.18-20.23c1.32-2.49,2.4-4.54,3.2-6.07.35-.66.63-1.2.86-1.65a3.08,3.08,0,0,0,.27-.6,2.42,2.42,0,0,0-.38.53l-1,1.59c-.84,1.39-2,3.43-3.39,6-2.8,5.08-6.45,12.22-10.36,20.16S79.1,417,76.41,422.14c-1.32,2.49-2.4,4.54-3.2,6.07-.35.66-.63,1.21-.87,1.65A2.6,2.6,0,0,0,72.08,430.46Z" style="fill:#e0e0e0"></path><path d="M12.52,404.1a2.33,2.33,0,0,0,.58.31l1.73.79L21.21,408c5.38,2.39,12.78,5.79,20.95,9.55s15.61,7.09,21.05,9.37c2.71,1.15,4.92,2.05,6.46,2.64l1.78.67c.4.15.62.22.63.19a2.33,2.33,0,0,0-.58-.31l-1.73-.79-6.38-2.84c-5.38-2.39-12.78-5.79-21-9.55s-15.61-7.09-21-9.37c-2.72-1.14-4.93-2.05-6.47-2.64l-1.77-.67A2.33,2.33,0,0,0,12.52,404.1Z" style="fill:#e0e0e0"></path></g><g id="Floor--inject-1"><path d="M471.13,447.06c0,.14-99,.26-221.12.26s-221.14-.12-221.14-.26,99-.26,221.14-.26S471.13,446.91,471.13,447.06Z" style="fill:#263238"></path></g><g id="Servers--inject-1"><path d="M207.92,430.1h-9.24v-1h9.24a11,11,0,0,0,11-11V175.3a13.25,13.25,0,0,1,13.23-13.23h20v1h-20a12.25,12.25,0,0,0-12.23,12.23V418.14A12,12,0,0,1,207.92,430.1Z" style="fill:#263238"></path><rect x="84.23" y="287.39" width="106.5" height="142.2" style="fill:#263238"></rect><rect x="68.67" y="310.76" width="116.43" height="28.89" style="fill:#455a64"></rect><rect x="73.84" y="316.71" width="22.92" height="3.53" style="fill:#263238"></rect><rect x="73.84" y="322.78" width="22.92" height="3.53" style="fill:#263238"></rect><rect x="73.84" y="329.06" width="22.92" height="3.53" style="fill:#263238"></rect><path d="M105.83,318.84a1.32,1.32,0,1,1-1.31-1.31A1.32,1.32,0,0,1,105.83,318.84Z" style="fill:#263238"></path><path d="M111.64,318.84a1.32,1.32,0,1,1-1.32-1.31A1.32,1.32,0,0,1,111.64,318.84Z" style="fill:#263238"></path><path d="M117.44,318.84a1.32,1.32,0,1,1-1.31-1.31A1.32,1.32,0,0,1,117.44,318.84Z" style="fill:#263238"></path><path d="M123.24,318.84a1.32,1.32,0,1,1-1.31-1.31A1.32,1.32,0,0,1,123.24,318.84Z" style="fill:#263238"></path><path d="M168.21,318.84a1.32,1.32,0,1,1-1.31-1.31A1.32,1.32,0,0,1,168.21,318.84Z" style="fill:#263238"></path><path d="M174.13,318.84a1.32,1.32,0,1,1-1.31-1.31A1.32,1.32,0,0,1,174.13,318.84Z" style="fill:#263238"></path><path d="M129.05,318.84a1.32,1.32,0,1,1-1.32-1.31A1.32,1.32,0,0,1,129.05,318.84Z" style="fill:#263238"></path><path d="M157.55,318.84a1.32,1.32,0,1,1-1.32-1.31A1.32,1.32,0,0,1,157.55,318.84Z" style="fill:#263238"></path><path d="M134.85,318.84a1.32,1.32,0,1,1-1.32-1.31A1.32,1.32,0,0,1,134.85,318.84Z" style="fill:#f5f5f5"></path><path d="M140.65,318.84a1.32,1.32,0,1,1-1.31-1.31A1.32,1.32,0,0,1,140.65,318.84Z" style="fill:#f5f5f5"></path><path d="M152.43,318.84a1.32,1.32,0,1,1-1.32-1.31A1.32,1.32,0,0,1,152.43,318.84Z" style="fill:#f5f5f5"></path><path d="M179,318.84a1.32,1.32,0,1,1-1.32-1.31A1.32,1.32,0,0,1,179,318.84Z" style="fill:#f5f5f5"></path><path d="M146.46,318.84a1.32,1.32,0,1,1-1.32-1.31A1.32,1.32,0,0,1,146.46,318.84Z" style="fill:#4550E6"></path><path d="M163.07,318.84a1.32,1.32,0,1,1-1.31-1.31A1.32,1.32,0,0,1,163.07,318.84Z" style="fill:#4550E6"></path><path d="M176.32,325.18a1.32,1.32,0,1,1,1.31,1.32A1.31,1.31,0,0,1,176.32,325.18Z" style="fill:#263238"></path><path d="M170.51,325.18a1.32,1.32,0,1,1,1.32,1.32A1.32,1.32,0,0,1,170.51,325.18Z" style="fill:#263238"></path><path d="M164.71,325.18A1.32,1.32,0,1,1,166,326.5,1.31,1.31,0,0,1,164.71,325.18Z" style="fill:#263238"></path><path d="M158.91,325.18a1.32,1.32,0,1,1,1.31,1.32A1.31,1.31,0,0,1,158.91,325.18Z" style="fill:#263238"></path><path d="M113.94,325.18a1.32,1.32,0,1,1,1.31,1.32A1.31,1.31,0,0,1,113.94,325.18Z" style="fill:#263238"></path><path d="M108,325.18a1.32,1.32,0,1,1,1.31,1.32A1.31,1.31,0,0,1,108,325.18Z" style="fill:#263238"></path><path d="M153.1,325.18a1.32,1.32,0,1,1,1.32,1.32A1.32,1.32,0,0,1,153.1,325.18Z" style="fill:#263238"></path><path d="M124.6,325.18a1.32,1.32,0,1,1,1.32,1.32A1.32,1.32,0,0,1,124.6,325.18Z" style="fill:#263238"></path><path d="M147.3,325.18a1.32,1.32,0,1,1,1.31,1.32A1.31,1.31,0,0,1,147.3,325.18Z" style="fill:#f5f5f5"></path><path d="M141.5,325.18a1.32,1.32,0,1,1,1.31,1.32A1.31,1.31,0,0,1,141.5,325.18Z" style="fill:#f5f5f5"></path><path d="M129.72,325.18A1.32,1.32,0,1,1,131,326.5,1.32,1.32,0,0,1,129.72,325.18Z" style="fill:#f5f5f5"></path><path d="M103.2,325.18a1.32,1.32,0,1,1,1.32,1.32A1.32,1.32,0,0,1,103.2,325.18Z" style="fill:#f5f5f5"></path><path d="M135.69,325.18A1.32,1.32,0,1,1,137,326.5,1.32,1.32,0,0,1,135.69,325.18Z" style="fill:#4550E6"></path><path d="M119.08,325.18a1.32,1.32,0,1,1,1.31,1.32A1.31,1.31,0,0,1,119.08,325.18Z" style="fill:#4550E6"></path><path d="M105.83,330.82a1.32,1.32,0,1,1-1.31-1.32A1.31,1.31,0,0,1,105.83,330.82Z" style="fill:#263238"></path><circle cx="110.32" cy="330.82" r="1.31" style="fill:#263238"></circle><circle cx="116.12" cy="330.82" r="1.32" style="fill:#263238"></circle><path d="M123.24,330.82a1.32,1.32,0,1,1-1.31-1.32A1.31,1.31,0,0,1,123.24,330.82Z" style="fill:#263238"></path><circle cx="166.9" cy="330.82" r="1.31" style="fill:#263238"></circle><circle cx="172.82" cy="330.82" r="1.31" style="fill:#263238"></circle><path d="M129.05,330.82a1.32,1.32,0,1,1-1.32-1.32A1.31,1.31,0,0,1,129.05,330.82Z" style="fill:#263238"></path><path d="M157.55,330.82a1.32,1.32,0,1,1-1.32-1.32A1.31,1.31,0,0,1,157.55,330.82Z" style="fill:#263238"></path><circle cx="133.53" cy="330.82" r="1.31" style="fill:#f5f5f5"></circle><path d="M140.65,330.82a1.32,1.32,0,1,1-1.31-1.32A1.31,1.31,0,0,1,140.65,330.82Z" style="fill:#f5f5f5"></path><path d="M152.43,330.82a1.32,1.32,0,1,1-1.32-1.32A1.31,1.31,0,0,1,152.43,330.82Z" style="fill:#f5f5f5"></path><path d="M179,330.82a1.32,1.32,0,1,1-1.32-1.32A1.31,1.31,0,0,1,179,330.82Z" style="fill:#f5f5f5"></path><path d="M146.46,330.82a1.32,1.32,0,1,1-1.32-1.32A1.31,1.31,0,0,1,146.46,330.82Z" style="fill:#4550E6"></path><circle cx="161.76" cy="330.82" r="1.31" style="fill:#4550E6"></circle><rect x="68.67" y="346.41" width="116.43" height="28.89" style="fill:#455a64"></rect><path d="M105.55,354.2a1.32,1.32,0,1,1-1.32-1.31A1.32,1.32,0,0,1,105.55,354.2Z" style="fill:#263238"></path><path d="M111.35,354.2a1.32,1.32,0,1,1-1.32-1.31A1.32,1.32,0,0,1,111.35,354.2Z" style="fill:#263238"></path><path d="M117.15,354.2a1.32,1.32,0,1,1-1.31-1.31A1.32,1.32,0,0,1,117.15,354.2Z" style="fill:#263238"></path><path d="M123,354.2a1.32,1.32,0,1,1-1.31-1.31A1.31,1.31,0,0,1,123,354.2Z" style="fill:#263238"></path><path d="M167.93,354.2a1.32,1.32,0,1,1-1.32-1.31A1.32,1.32,0,0,1,167.93,354.2Z" style="fill:#263238"></path><path d="M173.84,354.2a1.32,1.32,0,1,1-1.31-1.31A1.32,1.32,0,0,1,173.84,354.2Z" style="fill:#263238"></path><path d="M128.76,354.2a1.32,1.32,0,1,1-1.32-1.31A1.32,1.32,0,0,1,128.76,354.2Z" style="fill:#263238"></path><path d="M157.26,354.2a1.32,1.32,0,1,1-1.32-1.31A1.32,1.32,0,0,1,157.26,354.2Z" style="fill:#263238"></path><path d="M134.56,354.2a1.32,1.32,0,1,1-1.31-1.31A1.32,1.32,0,0,1,134.56,354.2Z" style="fill:#f5f5f5"></path><path d="M140.36,354.2a1.32,1.32,0,1,1-1.31-1.31A1.31,1.31,0,0,1,140.36,354.2Z" style="fill:#f5f5f5"></path><path d="M152.14,354.2a1.32,1.32,0,1,1-1.32-1.31A1.32,1.32,0,0,1,152.14,354.2Z" style="fill:#f5f5f5"></path><path d="M178.66,354.2a1.32,1.32,0,1,1-1.32-1.31A1.32,1.32,0,0,1,178.66,354.2Z" style="fill:#f5f5f5"></path><path d="M146.17,354.2a1.32,1.32,0,1,1-1.32-1.31A1.32,1.32,0,0,1,146.17,354.2Z" style="fill:#4550E6"></path><path d="M162.78,354.2a1.32,1.32,0,1,1-1.31-1.31A1.31,1.31,0,0,1,162.78,354.2Z" style="fill:#4550E6"></path><path d="M176,360.54a1.32,1.32,0,1,1,1.31,1.32A1.31,1.31,0,0,1,176,360.54Z" style="fill:#263238"></path><circle cx="171.54" cy="360.54" r="1.32" style="fill:#263238"></circle><path d="M164.42,360.54a1.32,1.32,0,1,1,1.32,1.32A1.32,1.32,0,0,1,164.42,360.54Z" style="fill:#263238"></path><path d="M158.62,360.54a1.32,1.32,0,1,1,1.31,1.32A1.31,1.31,0,0,1,158.62,360.54Z" style="fill:#263238"></path><path d="M113.65,360.54a1.32,1.32,0,1,1,1.31,1.32A1.31,1.31,0,0,1,113.65,360.54Z" style="fill:#263238"></path><path d="M107.73,360.54a1.32,1.32,0,1,1,1.32,1.32A1.32,1.32,0,0,1,107.73,360.54Z" style="fill:#263238"></path><circle cx="154.13" cy="360.54" r="1.32" style="fill:#263238"></circle><path d="M124.31,360.54a1.32,1.32,0,1,1,1.32,1.32A1.32,1.32,0,0,1,124.31,360.54Z" style="fill:#263238"></path><path d="M147,360.54a1.32,1.32,0,1,1,1.32,1.32A1.32,1.32,0,0,1,147,360.54Z" style="fill:#f5f5f5"></path><path d="M141.21,360.54a1.32,1.32,0,1,1,1.31,1.32A1.31,1.31,0,0,1,141.21,360.54Z" style="fill:#f5f5f5"></path><circle cx="130.75" cy="360.54" r="1.32" style="fill:#f5f5f5"></circle><path d="M102.92,360.54a1.32,1.32,0,1,1,1.31,1.32A1.31,1.31,0,0,1,102.92,360.54Z" style="fill:#f5f5f5"></path><path d="M135.4,360.54a1.32,1.32,0,1,1,1.32,1.32A1.32,1.32,0,0,1,135.4,360.54Z" style="fill:#4550E6"></path><path d="M118.79,360.54a1.32,1.32,0,1,1,1.31,1.32A1.31,1.31,0,0,1,118.79,360.54Z" style="fill:#4550E6"></path><path d="M105.55,366.18a1.32,1.32,0,1,1-1.32-1.32A1.31,1.31,0,0,1,105.55,366.18Z" style="fill:#263238"></path><path d="M111.35,366.18a1.32,1.32,0,1,1-1.32-1.32A1.31,1.31,0,0,1,111.35,366.18Z" style="fill:#263238"></path><path d="M117.15,366.18a1.32,1.32,0,1,1-1.31-1.32A1.31,1.31,0,0,1,117.15,366.18Z" style="fill:#263238"></path><path d="M123,366.18a1.32,1.32,0,0,1-2.63,0,1.32,1.32,0,1,1,2.63,0Z" style="fill:#263238"></path><path d="M167.93,366.18a1.32,1.32,0,1,1-1.32-1.32A1.31,1.31,0,0,1,167.93,366.18Z" style="fill:#263238"></path><path d="M173.84,366.18a1.32,1.32,0,1,1-1.31-1.32A1.31,1.31,0,0,1,173.84,366.18Z" style="fill:#263238"></path><path d="M128.76,366.18a1.32,1.32,0,1,1-1.32-1.32A1.31,1.31,0,0,1,128.76,366.18Z" style="fill:#263238"></path><path d="M157.26,366.18a1.32,1.32,0,1,1-1.32-1.32A1.31,1.31,0,0,1,157.26,366.18Z" style="fill:#263238"></path><path d="M134.56,366.18a1.32,1.32,0,1,1-1.31-1.32A1.31,1.31,0,0,1,134.56,366.18Z" style="fill:#f5f5f5"></path><path d="M140.36,366.18a1.32,1.32,0,0,1-2.63,0,1.32,1.32,0,1,1,2.63,0Z" style="fill:#f5f5f5"></path><path d="M152.14,366.18a1.32,1.32,0,1,1-1.32-1.32A1.31,1.31,0,0,1,152.14,366.18Z" style="fill:#f5f5f5"></path><path d="M178.66,366.18a1.32,1.32,0,1,1-1.32-1.32A1.31,1.31,0,0,1,178.66,366.18Z" style="fill:#f5f5f5"></path><path d="M146.17,366.18a1.32,1.32,0,1,1-1.32-1.32A1.31,1.31,0,0,1,146.17,366.18Z" style="fill:#4550E6"></path><path d="M162.78,366.18a1.32,1.32,0,0,1-2.63,0,1.32,1.32,0,1,1,2.63,0Z" style="fill:#4550E6"></path><rect x="73.84" y="352.36" width="22.92" height="3.53" style="fill:#263238"></rect><rect x="73.84" y="358.43" width="22.92" height="3.53" style="fill:#263238"></rect><rect x="73.84" y="364.7" width="22.92" height="3.53" style="fill:#263238"></rect><rect x="68.67" y="382.06" width="116.43" height="28.89" style="fill:#455a64"></rect><rect x="73.84" y="388.01" width="22.92" height="3.53" style="fill:#263238"></rect><rect x="73.84" y="394.07" width="22.92" height="3.53" style="fill:#263238"></rect><rect x="73.84" y="400.35" width="22.92" height="3.53" style="fill:#263238"></rect><path d="M105.12,389.85a1.32,1.32,0,1,1-1.31-1.32A1.31,1.31,0,0,1,105.12,389.85Z" style="fill:#263238"></path><path d="M110.93,389.85a1.32,1.32,0,1,1-1.32-1.32A1.31,1.31,0,0,1,110.93,389.85Z" style="fill:#263238"></path><path d="M116.73,389.85a1.32,1.32,0,1,1-1.32-1.32A1.31,1.31,0,0,1,116.73,389.85Z" style="fill:#263238"></path><path d="M122.53,389.85a1.32,1.32,0,1,1-1.31-1.32A1.31,1.31,0,0,1,122.53,389.85Z" style="fill:#263238"></path><path d="M167.5,389.85a1.32,1.32,0,1,1-1.31-1.32A1.31,1.31,0,0,1,167.5,389.85Z" style="fill:#263238"></path><path d="M173.42,389.85a1.32,1.32,0,1,1-1.31-1.32A1.31,1.31,0,0,1,173.42,389.85Z" style="fill:#263238"></path><path d="M128.34,389.85a1.32,1.32,0,1,1-1.32-1.32A1.31,1.31,0,0,1,128.34,389.85Z" style="fill:#263238"></path><path d="M156.84,389.85a1.32,1.32,0,1,1-1.32-1.32A1.31,1.31,0,0,1,156.84,389.85Z" style="fill:#263238"></path><path d="M134.14,389.85a1.32,1.32,0,1,1-1.32-1.32A1.31,1.31,0,0,1,134.14,389.85Z" style="fill:#f5f5f5"></path><path d="M139.94,389.85a1.32,1.32,0,1,1-1.31-1.32A1.31,1.31,0,0,1,139.94,389.85Z" style="fill:#f5f5f5"></path><path d="M151.72,389.85a1.32,1.32,0,1,1-1.32-1.32A1.31,1.31,0,0,1,151.72,389.85Z" style="fill:#f5f5f5"></path><path d="M178.24,389.85a1.32,1.32,0,1,1-1.32-1.32A1.31,1.31,0,0,1,178.24,389.85Z" style="fill:#f5f5f5"></path><path d="M145.75,389.85a1.32,1.32,0,1,1-1.32-1.32A1.31,1.31,0,0,1,145.75,389.85Z" style="fill:#4550E6"></path><path d="M162.36,389.85a1.32,1.32,0,1,1-1.31-1.32A1.31,1.31,0,0,1,162.36,389.85Z" style="fill:#4550E6"></path><path d="M175.61,396.19a1.32,1.32,0,1,1,1.31,1.31A1.31,1.31,0,0,1,175.61,396.19Z" style="fill:#263238"></path><path d="M169.8,396.19a1.32,1.32,0,1,1,1.32,1.31A1.32,1.32,0,0,1,169.8,396.19Z" style="fill:#263238"></path><path d="M164,396.19a1.32,1.32,0,1,1,1.31,1.31A1.32,1.32,0,0,1,164,396.19Z" style="fill:#263238"></path><path d="M158.2,396.19a1.32,1.32,0,1,1,1.31,1.31A1.32,1.32,0,0,1,158.2,396.19Z" style="fill:#263238"></path><path d="M113.23,396.19a1.32,1.32,0,1,1,1.31,1.31A1.31,1.31,0,0,1,113.23,396.19Z" style="fill:#263238"></path><path d="M107.31,396.19a1.32,1.32,0,1,1,1.31,1.31A1.32,1.32,0,0,1,107.31,396.19Z" style="fill:#263238"></path><path d="M152.39,396.19a1.32,1.32,0,1,1,1.32,1.31A1.32,1.32,0,0,1,152.39,396.19Z" style="fill:#263238"></path><path d="M123.89,396.19a1.32,1.32,0,1,1,1.32,1.31A1.32,1.32,0,0,1,123.89,396.19Z" style="fill:#263238"></path><path d="M146.59,396.19a1.32,1.32,0,1,1,1.31,1.31A1.32,1.32,0,0,1,146.59,396.19Z" style="fill:#f5f5f5"></path><path d="M140.79,396.19a1.32,1.32,0,1,1,1.31,1.31A1.32,1.32,0,0,1,140.79,396.19Z" style="fill:#f5f5f5"></path><path d="M129,396.19a1.32,1.32,0,1,1,1.32,1.31A1.32,1.32,0,0,1,129,396.19Z" style="fill:#f5f5f5"></path><path d="M102.49,396.19a1.32,1.32,0,1,1,1.32,1.31A1.32,1.32,0,0,1,102.49,396.19Z" style="fill:#f5f5f5"></path><path d="M135,396.19a1.32,1.32,0,1,1,1.32,1.31A1.32,1.32,0,0,1,135,396.19Z" style="fill:#4550E6"></path><path d="M118.37,396.19a1.32,1.32,0,1,1,1.31,1.31A1.32,1.32,0,0,1,118.37,396.19Z" style="fill:#4550E6"></path><path d="M105.12,401.83a1.32,1.32,0,1,1-1.31-1.32A1.31,1.31,0,0,1,105.12,401.83Z" style="fill:#263238"></path><path d="M110.93,401.83a1.32,1.32,0,1,1-1.32-1.32A1.32,1.32,0,0,1,110.93,401.83Z" style="fill:#263238"></path><path d="M116.73,401.83a1.32,1.32,0,1,1-1.32-1.32A1.32,1.32,0,0,1,116.73,401.83Z" style="fill:#263238"></path><path d="M122.53,401.83a1.32,1.32,0,1,1-1.31-1.32A1.31,1.31,0,0,1,122.53,401.83Z" style="fill:#263238"></path><path d="M167.5,401.83a1.32,1.32,0,1,1-1.31-1.32A1.31,1.31,0,0,1,167.5,401.83Z" style="fill:#263238"></path><path d="M173.42,401.83a1.32,1.32,0,1,1-1.31-1.32A1.31,1.31,0,0,1,173.42,401.83Z" style="fill:#263238"></path><path d="M128.34,401.83a1.32,1.32,0,1,1-1.32-1.32A1.32,1.32,0,0,1,128.34,401.83Z" style="fill:#263238"></path><path d="M156.84,401.83a1.32,1.32,0,1,1-1.32-1.32A1.32,1.32,0,0,1,156.84,401.83Z" style="fill:#263238"></path><path d="M134.14,401.83a1.32,1.32,0,1,1-1.32-1.32A1.32,1.32,0,0,1,134.14,401.83Z" style="fill:#f5f5f5"></path><path d="M139.94,401.83a1.32,1.32,0,1,1-1.31-1.32A1.31,1.31,0,0,1,139.94,401.83Z" style="fill:#f5f5f5"></path><path d="M151.72,401.83a1.32,1.32,0,1,1-1.32-1.32A1.32,1.32,0,0,1,151.72,401.83Z" style="fill:#f5f5f5"></path><path d="M178.24,401.83a1.32,1.32,0,1,1-1.32-1.32A1.32,1.32,0,0,1,178.24,401.83Z" style="fill:#f5f5f5"></path><path d="M145.75,401.83a1.32,1.32,0,1,1-1.32-1.32A1.32,1.32,0,0,1,145.75,401.83Z" style="fill:#4550E6"></path><path d="M162.36,401.83a1.32,1.32,0,1,1-1.31-1.32A1.31,1.31,0,0,1,162.36,401.83Z" style="fill:#4550E6"></path><polygon points="202.61 339.6 185.1 339.65 185.1 310.76 202.61 310.72 202.61 339.6" style="fill:#263238"></polygon><polygon points="202.61 375.02 185.1 375.07 185.1 346.18 202.61 346.14 202.61 375.02" style="fill:#263238"></polygon><polygon points="202.61 410.89 185.1 410.94 185.1 382.06 202.61 382.01 202.61 410.89" style="fill:#263238"></polygon><rect x="74.69" y="293.67" width="22.92" height="3.53" style="fill:#263238"></rect><polygon points="202.61 304.48 185.1 304.53 185.1 275.42 202.61 275.37 202.61 304.48" style="fill:#263238"></polygon><rect x="69.52" y="275.37" width="116.43" height="28.89" style="fill:#455a64"></rect><rect x="74.69" y="281.32" width="22.92" height="3.53" style="fill:#263238"></rect><rect x="74.69" y="287.39" width="22.92" height="3.53" style="fill:#263238"></rect><path d="M106.68,283.45a1.32,1.32,0,1,1-1.32-1.31A1.32,1.32,0,0,1,106.68,283.45Z" style="fill:#263238"></path><path d="M112.48,283.45a1.32,1.32,0,1,1-1.32-1.31A1.32,1.32,0,0,1,112.48,283.45Z" style="fill:#263238"></path><path d="M118.28,283.45a1.32,1.32,0,1,1-1.31-1.31A1.32,1.32,0,0,1,118.28,283.45Z" style="fill:#263238"></path><path d="M124.09,283.45a1.32,1.32,0,1,1-1.32-1.31A1.32,1.32,0,0,1,124.09,283.45Z" style="fill:#263238"></path><path d="M169.06,283.45a1.32,1.32,0,1,1-1.32-1.31A1.32,1.32,0,0,1,169.06,283.45Z" style="fill:#263238"></path><path d="M175,283.45a1.32,1.32,0,1,1-1.31-1.31A1.31,1.31,0,0,1,175,283.45Z" style="fill:#263238"></path><path d="M129.89,283.45a1.32,1.32,0,1,1-1.32-1.31A1.32,1.32,0,0,1,129.89,283.45Z" style="fill:#263238"></path><path d="M158.39,283.45a1.32,1.32,0,1,1-1.32-1.31A1.32,1.32,0,0,1,158.39,283.45Z" style="fill:#263238"></path><path d="M135.69,283.45a1.32,1.32,0,1,1-1.31-1.31A1.32,1.32,0,0,1,135.69,283.45Z" style="fill:#f5f5f5"></path><path d="M141.5,283.45a1.32,1.32,0,1,1-1.32-1.31A1.32,1.32,0,0,1,141.5,283.45Z" style="fill:#f5f5f5"></path><path d="M153.27,283.45a1.32,1.32,0,1,1-1.31-1.31A1.32,1.32,0,0,1,153.27,283.45Z" style="fill:#f5f5f5"></path><path d="M179.79,283.45a1.32,1.32,0,1,1-1.32-1.31A1.32,1.32,0,0,1,179.79,283.45Z" style="fill:#f5f5f5"></path><path d="M147.3,283.45a1.32,1.32,0,1,1-1.32-1.31A1.32,1.32,0,0,1,147.3,283.45Z" style="fill:#4550E6"></path><path d="M163.92,283.45a1.32,1.32,0,1,1-1.32-1.31A1.32,1.32,0,0,1,163.92,283.45Z" style="fill:#4550E6"></path><path d="M177.16,289.79a1.32,1.32,0,1,1,1.31,1.32A1.31,1.31,0,0,1,177.16,289.79Z" style="fill:#263238"></path><circle cx="172.67" cy="289.79" r="1.32" style="fill:#263238"></circle><path d="M165.55,289.79a1.32,1.32,0,1,1,1.32,1.32A1.32,1.32,0,0,1,165.55,289.79Z" style="fill:#263238"></path><path d="M159.75,289.79a1.32,1.32,0,1,1,1.31,1.32A1.31,1.31,0,0,1,159.75,289.79Z" style="fill:#263238"></path><path d="M114.78,289.79a1.32,1.32,0,1,1,1.31,1.32A1.31,1.31,0,0,1,114.78,289.79Z" style="fill:#263238"></path><path d="M108.86,289.79a1.32,1.32,0,1,1,1.32,1.32A1.32,1.32,0,0,1,108.86,289.79Z" style="fill:#263238"></path><path d="M154,289.79a1.32,1.32,0,1,1,1.31,1.32A1.31,1.31,0,0,1,154,289.79Z" style="fill:#263238"></path><circle cx="126.76" cy="289.79" r="1.32" style="fill:#263238"></circle><circle cx="149.46" cy="289.79" r="1.32" style="fill:#f5f5f5"></circle><circle cx="143.65" cy="289.79" r="1.32" style="fill:#f5f5f5"></circle><path d="M130.57,289.79a1.32,1.32,0,1,1,1.31,1.32A1.31,1.31,0,0,1,130.57,289.79Z" style="fill:#f5f5f5"></path><circle cx="105.36" cy="289.79" r="1.32" style="fill:#f5f5f5"></circle><path d="M136.54,289.79a1.32,1.32,0,1,1,1.31,1.32A1.31,1.31,0,0,1,136.54,289.79Z" style="fill:#4550E6"></path><path d="M119.92,289.79a1.32,1.32,0,1,1,1.32,1.32A1.32,1.32,0,0,1,119.92,289.79Z" style="fill:#4550E6"></path><path d="M106.68,295.43a1.32,1.32,0,1,1-1.32-1.32A1.31,1.31,0,0,1,106.68,295.43Z" style="fill:#263238"></path><path d="M112.48,295.43a1.32,1.32,0,1,1-1.32-1.32A1.31,1.31,0,0,1,112.48,295.43Z" style="fill:#263238"></path><path d="M118.28,295.43a1.32,1.32,0,1,1-1.31-1.32A1.31,1.31,0,0,1,118.28,295.43Z" style="fill:#263238"></path><path d="M124.09,295.43a1.32,1.32,0,1,1-1.32-1.32A1.31,1.31,0,0,1,124.09,295.43Z" style="fill:#263238"></path><path d="M169.06,295.43a1.32,1.32,0,1,1-1.32-1.32A1.31,1.31,0,0,1,169.06,295.43Z" style="fill:#263238"></path><path d="M175,295.43a1.32,1.32,0,0,1-2.63,0,1.32,1.32,0,1,1,2.63,0Z" style="fill:#263238"></path><path d="M129.89,295.43a1.32,1.32,0,1,1-1.32-1.32A1.31,1.31,0,0,1,129.89,295.43Z" style="fill:#263238"></path><path d="M158.39,295.43a1.32,1.32,0,1,1-1.32-1.32A1.31,1.31,0,0,1,158.39,295.43Z" style="fill:#263238"></path><path d="M135.69,295.43a1.32,1.32,0,1,1-1.31-1.32A1.31,1.31,0,0,1,135.69,295.43Z" style="fill:#f5f5f5"></path><path d="M141.5,295.43a1.32,1.32,0,1,1-1.32-1.32A1.31,1.31,0,0,1,141.5,295.43Z" style="fill:#f5f5f5"></path><path d="M153.27,295.43a1.32,1.32,0,1,1-1.31-1.32A1.31,1.31,0,0,1,153.27,295.43Z" style="fill:#f5f5f5"></path><path d="M179.79,295.43a1.32,1.32,0,1,1-1.32-1.32A1.31,1.31,0,0,1,179.79,295.43Z" style="fill:#f5f5f5"></path><path d="M147.3,295.43a1.32,1.32,0,1,1-1.32-1.32A1.31,1.31,0,0,1,147.3,295.43Z" style="fill:#4550E6"></path><path d="M163.92,295.43a1.32,1.32,0,1,1-1.32-1.32A1.31,1.31,0,0,1,163.92,295.43Z" style="fill:#4550E6"></path><polygon points="201.53 447.04 184.02 447.08 184.02 418.2 201.53 418.15 201.53 447.04" style="fill:#263238"></polygon><rect x="68.44" y="418.2" width="116.43" height="28.89" style="fill:#455a64"></rect><rect x="73.61" y="424.15" width="22.92" height="3.53" style="fill:#263238"></rect><rect x="73.61" y="430.22" width="22.92" height="3.53" style="fill:#263238"></rect><path d="M105.6,426.28a1.32,1.32,0,1,1-1.32-1.32A1.32,1.32,0,0,1,105.6,426.28Z" style="fill:#263238"></path><path d="M111.4,426.28a1.32,1.32,0,1,1-1.31-1.32A1.31,1.31,0,0,1,111.4,426.28Z" style="fill:#263238"></path><path d="M117.2,426.28a1.32,1.32,0,1,1-1.31-1.32A1.31,1.31,0,0,1,117.2,426.28Z" style="fill:#263238"></path><path d="M123,426.28a1.32,1.32,0,1,1-1.32-1.32A1.32,1.32,0,0,1,123,426.28Z" style="fill:#263238"></path><path d="M168,426.28a1.32,1.32,0,1,1-1.32-1.32A1.32,1.32,0,0,1,168,426.28Z" style="fill:#263238"></path><path d="M173.9,426.28a1.32,1.32,0,1,1-1.32-1.32A1.32,1.32,0,0,1,173.9,426.28Z" style="fill:#263238"></path><path d="M128.81,426.28A1.32,1.32,0,1,1,127.5,425,1.31,1.31,0,0,1,128.81,426.28Z" style="fill:#263238"></path><path d="M157.31,426.28A1.32,1.32,0,1,1,156,425,1.31,1.31,0,0,1,157.31,426.28Z" style="fill:#263238"></path><path d="M134.61,426.28A1.32,1.32,0,1,1,133.3,425,1.31,1.31,0,0,1,134.61,426.28Z" style="fill:#f5f5f5"></path><path d="M140.42,426.28A1.32,1.32,0,1,1,139.1,425,1.32,1.32,0,0,1,140.42,426.28Z" style="fill:#f5f5f5"></path><path d="M152.19,426.28a1.32,1.32,0,1,1-1.31-1.32A1.31,1.31,0,0,1,152.19,426.28Z" style="fill:#f5f5f5"></path><path d="M178.71,426.28A1.32,1.32,0,1,1,177.4,425,1.31,1.31,0,0,1,178.71,426.28Z" style="fill:#f5f5f5"></path><path d="M146.22,426.28a1.32,1.32,0,1,1-1.31-1.32A1.31,1.31,0,0,1,146.22,426.28Z" style="fill:#4550E6"></path><path d="M162.84,426.28a1.32,1.32,0,1,1-1.32-1.32A1.32,1.32,0,0,1,162.84,426.28Z" style="fill:#4550E6"></path><path d="M176.08,432.62a1.32,1.32,0,1,1,1.32,1.31A1.32,1.32,0,0,1,176.08,432.62Z" style="fill:#263238"></path><path d="M170.28,432.62a1.32,1.32,0,1,1,1.31,1.31A1.32,1.32,0,0,1,170.28,432.62Z" style="fill:#263238"></path><path d="M164.47,432.62a1.32,1.32,0,1,1,1.32,1.31A1.32,1.32,0,0,1,164.47,432.62Z" style="fill:#263238"></path><path d="M158.67,432.62a1.32,1.32,0,1,1,1.32,1.31A1.32,1.32,0,0,1,158.67,432.62Z" style="fill:#263238"></path><path d="M113.7,432.62a1.32,1.32,0,1,1,1.32,1.31A1.32,1.32,0,0,1,113.7,432.62Z" style="fill:#263238"></path><path d="M107.78,432.62a1.32,1.32,0,1,1,1.32,1.31A1.32,1.32,0,0,1,107.78,432.62Z" style="fill:#263238"></path><path d="M152.87,432.62a1.32,1.32,0,1,1,1.31,1.31A1.32,1.32,0,0,1,152.87,432.62Z" style="fill:#263238"></path><path d="M124.37,432.62a1.32,1.32,0,1,1,1.31,1.31A1.32,1.32,0,0,1,124.37,432.62Z" style="fill:#263238"></path><path d="M147.06,432.62a1.32,1.32,0,1,1,1.32,1.31A1.32,1.32,0,0,1,147.06,432.62Z" style="fill:#f5f5f5"></path><path d="M141.26,432.62a1.32,1.32,0,1,1,1.32,1.31A1.32,1.32,0,0,1,141.26,432.62Z" style="fill:#f5f5f5"></path><path d="M129.49,432.62a1.32,1.32,0,1,1,1.31,1.31A1.32,1.32,0,0,1,129.49,432.62Z" style="fill:#f5f5f5"></path><path d="M103,432.62a1.32,1.32,0,1,1,1.31,1.31A1.32,1.32,0,0,1,103,432.62Z" style="fill:#f5f5f5"></path><path d="M135.46,432.62a1.32,1.32,0,1,1,1.31,1.31A1.32,1.32,0,0,1,135.46,432.62Z" style="fill:#4550E6"></path><path d="M118.84,432.62a1.32,1.32,0,1,1,1.32,1.31A1.32,1.32,0,0,1,118.84,432.62Z" style="fill:#4550E6"></path><path d="M105.6,438.25a1.32,1.32,0,1,1-1.32-1.31A1.32,1.32,0,0,1,105.6,438.25Z" style="fill:#263238"></path><path d="M111.4,438.25a1.32,1.32,0,1,1-1.31-1.31A1.32,1.32,0,0,1,111.4,438.25Z" style="fill:#263238"></path><circle cx="115.89" cy="438.25" r="1.32" style="fill:#263238"></circle><path d="M123,438.25a1.32,1.32,0,1,1-1.32-1.31A1.32,1.32,0,0,1,123,438.25Z" style="fill:#263238"></path><circle cx="166.66" cy="438.25" r="1.32" style="fill:#263238"></circle><circle cx="172.58" cy="438.25" r="1.32" style="fill:#263238"></circle><path d="M128.81,438.25a1.32,1.32,0,1,1-1.31-1.31A1.32,1.32,0,0,1,128.81,438.25Z" style="fill:#263238"></path><path d="M157.31,438.25a1.32,1.32,0,1,1-1.31-1.31A1.32,1.32,0,0,1,157.31,438.25Z" style="fill:#263238"></path><path d="M134.61,438.25a1.32,1.32,0,1,1-1.31-1.31A1.31,1.31,0,0,1,134.61,438.25Z" style="fill:#f5f5f5"></path><circle cx="139.1" cy="438.25" r="1.32" style="fill:#f5f5f5"></circle><path d="M152.19,438.25a1.32,1.32,0,1,1-1.31-1.31A1.32,1.32,0,0,1,152.19,438.25Z" style="fill:#f5f5f5"></path><path d="M178.71,438.25a1.32,1.32,0,1,1-1.31-1.31A1.32,1.32,0,0,1,178.71,438.25Z" style="fill:#f5f5f5"></path><path d="M146.22,438.25a1.32,1.32,0,1,1-1.31-1.31A1.32,1.32,0,0,1,146.22,438.25Z" style="fill:#4550E6"></path><circle cx="161.52" cy="438.25" r="1.32" style="fill:#4550E6"></circle><path d="M219.87,230.41h-1v-1.2a15.36,15.36,0,0,1,15.34-15.34h5.46v1h-5.46a14.36,14.36,0,0,0-14.34,14.34Z" style="fill:#263238"></path><path d="M219.87,287.46h-1v-1.21a15.36,15.36,0,0,1,15.34-15.34h5.46v1h-5.46a14.36,14.36,0,0,0-14.34,14.34Z" style="fill:#263238"></path><path d="M219.87,336.93h-1v-1.21a15.35,15.35,0,0,1,15.34-15.33h5.46v1h-5.46a14.36,14.36,0,0,0-14.34,14.33Z" style="fill:#263238"></path><path d="M219.87,392.3h-1v-1.21a15.36,15.36,0,0,1,15.34-15.34h5.46v1h-5.46a14.37,14.37,0,0,0-14.34,14.34Z" style="fill:#263238"></path></g><g id="Character--inject-1"><path d="M55.28,358.55l.36,19.06s-19.13,5.17-19.41,8.7l36.86,2.21.65-29.71Z" style="fill:#4550E6"></path><path d="M67.1,376.2a1.51,1.51,0,0,1,1,1.74,1.46,1.46,0,0,1-1.72,1,1.6,1.6,0,0,1-1.06-1.85,1.5,1.5,0,0,1,1.9-.87" style="fill:#ebebeb"></path><path d="M73.09,388.52l.07-3-34.94-1.42s-2.06,1.1-2.06,2.25Z" style="fill:#ebebeb"></path><path d="M55.05,377.41c0,.18.9.28,1.78.87s1.34,1.36,1.51,1.29-.09-1.11-1.16-1.81S55,377.24,55.05,377.41Z" style="fill:#263238"></path><path d="M51.14,379c0,.17.74.49,1.34,1.27s.76,1.58.94,1.58.31-1-.45-2S51.15,378.78,51.14,379Z" style="fill:#263238"></path><path d="M48.87,383.55c.16,0,.42-.85,0-1.85s-1.29-1.4-1.37-1.26.44.69.79,1.51S48.69,383.53,48.87,383.55Z" style="fill:#263238"></path><path d="M55.45,373.06c.07.16.9-.07,1.92,0s1.81.43,1.91.27-.66-.81-1.86-.89S55.36,372.91,55.45,373.06Z" style="fill:#263238"></path><path d="M55.44,369.21a3.41,3.41,0,0,0,1.86,0,7.87,7.87,0,0,0,1.94-.56,8.26,8.26,0,0,0,1.07-.54,2.3,2.3,0,0,0,.57-.43.79.79,0,0,0,.1-1,1,1,0,0,0-.78-.43,2.38,2.38,0,0,0-.7.09,6.84,6.84,0,0,0-1.16.37,6.38,6.38,0,0,0-1.72,1.1c-.87.78-1.18,1.45-1.12,1.48s.51-.5,1.39-1.14a7.63,7.63,0,0,1,1.67-.9,6.69,6.69,0,0,1,1.07-.31c.39-.1.73-.09.82.08s0,.1,0,.21a2.29,2.29,0,0,1-.42.31,8.75,8.75,0,0,1-1,.54,10.41,10.41,0,0,1-1.81.66A13.4,13.4,0,0,0,55.44,369.21Z" style="fill:#263238"></path><path d="M55.67,369.48a2.91,2.91,0,0,0,.52-1.78,6.11,6.11,0,0,0-.22-2,5.54,5.54,0,0,0-.45-1.13,1.52,1.52,0,0,0-1.16-.95.88.88,0,0,0-.79.5,2.86,2.86,0,0,0-.2.68,4.27,4.27,0,0,0,.74,3.17c.71,1,1.46,1.2,1.47,1.14s-.56-.45-1.1-1.38a4.35,4.35,0,0,1-.55-1.75,3.88,3.88,0,0,1,0-1.07c.06-.39.21-.71.36-.66s.49.3.64.61a6.73,6.73,0,0,1,.44,1,6.9,6.9,0,0,1,.33,1.86C55.78,368.77,55.58,369.45,55.67,369.48Z" style="fill:#263238"></path><path d="M167,242.45,76.19,259a26.68,26.68,0,0,0-21.38,19.87q-.16.69-.3,1.41c-3,15.37-3.16,85.63-3.16,85.63L76,365.57l4.45-79.34,70-9.57A20.64,20.64,0,0,0,163,270.13C168.92,263.53,170.76,254.6,167,242.45Z" style="fill:#263238"></path><path d="M65.57,321.3l1.67,19s-18.73,6.48-18.77,10L85.4,350,84,320.29Z" style="fill:#4550E6"></path><path d="M78.58,338.09a1.52,1.52,0,0,1,1.13,1.67,1.44,1.44,0,0,1-1.64,1.13,1.59,1.59,0,0,1-1.19-1.77,1.5,1.5,0,0,1,1.84-1" style="fill:#ebebeb"></path><path d="M85.4,350l-.14-3-34.95,1s-1.86,1.49-1.84,2.3Z" style="fill:#ebebeb"></path><path d="M66.64,340.13c0,.18.92.21,1.83.75s1.43,1.26,1.6,1.18-.17-1.1-1.29-1.73S66.59,340,66.64,340.13Z" style="fill:#263238"></path><path d="M62.85,341.93c0,.18.76.45,1.41,1.18s.87,1.52,1,1.51.24-1.05-.58-1.94S62.84,341.76,62.85,341.93Z" style="fill:#263238"></path><path d="M60.89,346.68c.16,0,.37-.88-.15-1.84s-1.37-1.32-1.44-1.16.48.65.89,1.45S60.71,346.67,60.89,346.68Z" style="fill:#263238"></path><path d="M66.73,335.76c.09.16.9-.13,1.92-.11s1.84.29,1.92.13-.71-.76-1.91-.76S66.64,335.62,66.73,335.76Z" style="fill:#263238"></path><path d="M66.47,331.93a3.63,3.63,0,0,0,1.85-.11,8.45,8.45,0,0,0,1.9-.7,9.26,9.26,0,0,0,1-.61,2.23,2.23,0,0,0,.54-.47.78.78,0,0,0,0-1,1,1,0,0,0-.81-.37,2.29,2.29,0,0,0-.69.13,7.19,7.19,0,0,0-1.13.45,6.78,6.78,0,0,0-1.65,1.21c-.81.84-1.07,1.53-1,1.56s.48-.53,1.31-1.23a7.32,7.32,0,0,1,1.61-1,6.38,6.38,0,0,1,1-.38c.39-.12.72-.14.83,0s0,.09,0,.2a1.57,1.57,0,0,1-.4.34,8.32,8.32,0,0,1-.94.61,9.54,9.54,0,0,1-1.76.78A11.42,11.42,0,0,0,66.47,331.93Z" style="fill:#263238"></path><path d="M66.71,332.17c.07,0,.39-.64.4-1.81a6.07,6.07,0,0,0-.36-2,5.83,5.83,0,0,0-.53-1.1,1.51,1.51,0,0,0-1.23-.87.85.85,0,0,0-.74.55,2.94,2.94,0,0,0-.16.69,4.28,4.28,0,0,0,.07,1.25,4.19,4.19,0,0,0,.89,1.87c.77.92,1.53,1.09,1.54,1s-.59-.41-1.19-1.3a4.23,4.23,0,0,1-.67-1.71,3.47,3.47,0,0,1,0-1.07c0-.39.16-.72.31-.68s.51.26.68.57a5.39,5.39,0,0,1,.51,1,6.75,6.75,0,0,1,.46,1.82C66.77,331.46,66.62,332.15,66.71,332.17Z" style="fill:#263238"></path><path d="M165.47,242.87,80.94,224.23a17.65,17.65,0,0,0-8.25-.79h0a17.63,17.63,0,0,0-15,19.71L58.88,327l29.73-1.94-1.14-68.16Z" style="fill:#263238"></path><path d="M57.86,255.71a1.65,1.65,0,0,1,0,.36c0,.25,0,.6,0,1,0,.94,0,2.29.1,4,.07,3.53.17,8.62.29,15,.2,12.77.49,30.58.82,50.9l-.27-.25,17.54-.92L89,325.19l-.25.26c-.53-21.56-1-40.6-1.35-54.28-.14-6.81-.26-12.29-.34-16.09,0-1.87-.06-3.32-.07-4.34,0-.47,0-.84,0-1.12a1.59,1.59,0,0,1,0-.38l0,.38c0,.27,0,.65.05,1.12,0,1,.09,2.47.16,4.34.12,3.79.29,9.27.51,16.08.38,13.68.91,32.72,1.52,54.28v.25h-.26l-12.62.66-17.54.91h-.27V327c-.26-20.32-.48-38.14-.64-50.9-.06-6.36-.11-11.45-.14-15,0-1.74,0-3.09,0-4,0-.44,0-.78,0-1A2.63,2.63,0,0,1,57.86,255.71Z" style="fill:#455a64"></path><path d="M87.3,256c0-.14,7.07-1.79,15.84-3.68s15.92-3.32,16-3.18-7.06,1.79-15.84,3.69S87.34,256.15,87.3,256Z" style="fill:#455a64"></path><path d="M91.18,247.93a2.75,2.75,0,0,1,.27,1.41,7.74,7.74,0,0,1-2.84,6.1,2.86,2.86,0,0,1-1.24.7,13,13,0,0,0,2.89-3.64A12.63,12.63,0,0,0,91.18,247.93Z" style="fill:#455a64"></path><path d="M149.87,154.55,130.69,153c-.12-2.24,0-10.9,0-10.9s-8-1.24-8.07-9.21,1.28-26.29,1.28-26.29h0a27.7,27.7,0,0,1,27.85,3.5L153,111Z" style="fill:#ffbe9d"></path><path d="M130.72,142a18.54,18.54,0,0,0,10.4-3s-2.46,5.74-10.42,5Z" style="fill:#eb996e"></path><path d="M152,119.29c.14-.06,5.48-1.62,5.31,3.83s-5.61,4.15-5.62,4S152,119.29,152,119.29Z" style="fill:#ffbe9d"></path><path d="M153.41,125.11s.1.06.26.14a.92.92,0,0,0,.71,0,2.35,2.35,0,0,0,1.15-2.07,3.19,3.19,0,0,0-.22-1.37,1.11,1.11,0,0,0-.69-.75.48.48,0,0,0-.57.24c-.08.15-.05.26-.08.27s-.11-.1-.06-.32a.57.57,0,0,1,.22-.34.73.73,0,0,1,.53-.12,1.33,1.33,0,0,1,1,.88,3.3,3.3,0,0,1,.28,1.53,2.47,2.47,0,0,1-1.46,2.31,1,1,0,0,1-.87-.17C153.42,125.24,153.4,125.11,153.41,125.11Z" style="fill:#eb996e"></path><path d="M127.27,119a1.15,1.15,0,0,0,1.1,1.15,1.1,1.1,0,0,0,1.18-1,1.15,1.15,0,0,0-1.1-1.15A1.1,1.1,0,0,0,127.27,119Z" style="fill:#263238"></path><path d="M125.45,117.84c.14.15,1-.49,2.23-.49s2.13.62,2.26.47-.08-.34-.47-.62a3.11,3.11,0,0,0-1.81-.56,3,3,0,0,0-1.77.57C125.51,117.5,125.38,117.77,125.45,117.84Z" style="fill:#263238"></path><path d="M139.48,119.41a1.13,1.13,0,0,0,1.1,1.14,1.08,1.08,0,0,0,1.17-1,1.14,1.14,0,0,0-1.1-1.15A1.08,1.08,0,0,0,139.48,119.41Z" style="fill:#263238"></path><path d="M137.5,118.07c.14.14,1-.49,2.23-.49s2.12.62,2.26.47-.08-.34-.47-.62a3.14,3.14,0,0,0-1.81-.56,3,3,0,0,0-1.78.57C137.56,117.73,137.43,118,137.5,118.07Z" style="fill:#263238"></path><path d="M133.05,127.16a7.5,7.5,0,0,0-2-.36c-.31,0-.61-.1-.66-.31a1.63,1.63,0,0,1,.21-.93l.92-2.38a40.28,40.28,0,0,0,2.08-6.24A40.36,40.36,0,0,0,131,123l-.89,2.39a1.81,1.81,0,0,0-.16,1.23.8.8,0,0,0,.51.46,2.21,2.21,0,0,0,.53.07A8.65,8.65,0,0,0,133.05,127.16Z" style="fill:#263238"></path><path d="M136.66,128c-.2,0-.2,1.32-1.34,2.27s-2.56.79-2.57,1,.32.26.92.27a3.3,3.3,0,0,0,2.14-.74,2.93,2.93,0,0,0,1-1.9C136.9,128.32,136.75,128,136.66,128Z" style="fill:#263238"></path><path d="M137.18,113.26c.12.34,1.35.18,2.79.35s2.6.57,2.79.27c.08-.15-.12-.46-.59-.78a4.68,4.68,0,0,0-2.07-.73,4.78,4.78,0,0,0-2.18.26C137.4,112.84,137.13,113.1,137.18,113.26Z" style="fill:#263238"></path><path d="M125.9,114.29c.22.28,1.06,0,2.08,0s1.87.18,2.07-.11c.09-.14-.05-.42-.42-.68a3,3,0,0,0-3.35.1C125.93,113.87,125.81,114.15,125.9,114.29Z" style="fill:#263238"></path><path d="M120.06,101.58A2.94,2.94,0,0,1,121.14,99a2.1,2.1,0,0,1,2.71.2,2.43,2.43,0,0,1,2.1-3c1.3-.08,2.41.9,3.66,1.24a5.88,5.88,0,0,0,3.73-.43c1.18-.47,2.28-1.13,3.47-1.56a10.2,10.2,0,0,1,13.05,6,4.53,4.53,0,0,1,4.8,1.81,7.44,7.44,0,0,1,1.14,5.24,17,17,0,0,1-.91,3.57c0,.11,0,.21,0,.31-.08,4.39-.57,9.54-2.45,9.56-3.26,0-2.48-6.09-2.48-6.09-4-1.55-2.51-7.54-3.51-8.45s-3.1-3-11.47,1.26a16.24,16.24,0,0,1-9.95,1.07l-.2,0h0l-.07,0a7.25,7.25,0,0,1-2.15-.91,4.22,4.22,0,0,1-1.77-2,2.31,2.31,0,0,1,.46-2.49A5.09,5.09,0,0,1,120.06,101.58Z" style="fill:#263238"></path><path d="M187.42,211.15a10.91,10.91,0,0,1-5.56,12.49l-.08,0c-3.35,1.67-8,1.28-11.22-.17l-2.75-1.24.93,23c-13.56,8.83-51,2.16-58.3-13.47,0-4-1.66-36.37-1.66-36.37l-.69-35.94c6.37-6.27,9.78-8.15,18.66-9.2l3.43-.38a34,34,0,0,0,20.45,0h0c3.15.13,5.77,1.1,8.46,1.62,8.46,1.62,14.55,7.78,16.25,13.48,1.39,4.68,10.33,39.42,10.33,39.42Z" style="fill:#4550E6"></path><path d="M117.23,152.61s-8.45,2.88-12,11c-2.31,5.3-5.72,30.83-5.72,30.83l-4.29,8.28a13.93,13.93,0,0,0-1.56,6.42v1.27a13.93,13.93,0,0,0,3.13,8.81h0a14,14,0,0,0,9.59,5.09c4.28.38,9.47.55,10.57-.71,2-2.23,4.89-8.23,4.89-8.23l-12.5-6.64,5.38-10Z" style="fill:#4550E6"></path><path d="M163.16,202.09c.15,0,.28-5.35.28-11.94s-.13-11.94-.28-11.94-.27,5.34-.27,11.94S163,202.09,163.16,202.09Z" style="fill:#263238"></path><path d="M114.37,193.05a42.55,42.55,0,0,0,.28-6.83,42.55,42.55,0,0,0-.28-6.83,43.32,43.32,0,0,0-.27,6.83A43.32,43.32,0,0,0,114.37,193.05Z" style="fill:#263238"></path><path d="M168.68,243.6c1-.16,1.55,1.33,1,2.18a4.94,4.94,0,0,1-2.53,1.56c-3.2,1.27-5.82,3.64-8.85,5.29-6.44,3.5-14.2,3.47-21.48,2.57a40.48,40.48,0,0,1-12.05-3,18.38,18.38,0,0,1-9-8.25c-1-2.05-1.53-4.35-2.83-6.23-.85-1.24-2-2.24-2.92-3.44a5.07,5.07,0,0,1-1.15-4.21c.4-1.45,2.22-2.51,3.5-1.71" style="fill:#4550E6"></path><g style="opacity:0.30000000000000004"><path d="M142.71,251.52a23.09,23.09,0,0,1-13.18-6.31,44.21,44.21,0,0,1-8.72-12c-.32-.6-1-1.31-1.55-.88a1.15,1.15,0,0,0-.32.57,11.83,11.83,0,0,0,2.39,10.48,19.26,19.26,0,0,0,9.26,6,54.37,54.37,0,0,0,11,2"></path></g><path d="M172.11,159.7s0,.06-.05.16a3.51,3.51,0,0,1-.24.46,6,6,0,0,1-1.29,1.51,8,8,0,0,1-2.77,1.48,10.29,10.29,0,0,1-4.15.3,21.33,21.33,0,0,1-4.87-1.28c-1.69-.63-3.45-1.41-5.35-2a22,22,0,0,0-12.8-.19,33.37,33.37,0,0,0-6.19,2.69,19.18,19.18,0,0,1-6,2.15,12.44,12.44,0,0,1-5.74-.73,37,37,0,0,1-4.57-2.08,38.37,38.37,0,0,0-6.55-3c-1.63-.49-2.58-.55-2.57-.61a3.48,3.48,0,0,1,.68,0,12.12,12.12,0,0,1,2,.37,36.09,36.09,0,0,1,6.66,2.86,37.19,37.19,0,0,0,4.54,2,12.09,12.09,0,0,0,5.54.67,18.79,18.79,0,0,0,5.85-2.14,33.54,33.54,0,0,1,6.27-2.73,22.29,22.29,0,0,1,13.1.24c1.93.64,3.68,1.44,5.35,2.08a21.07,21.07,0,0,0,4.76,1.31,10.16,10.16,0,0,0,4-.21,7.91,7.91,0,0,0,2.73-1.36A7.41,7.41,0,0,0,172.11,159.7Z" style="fill:#e0e0e0"></path><path d="M162.64,184.09c0,.06-.69.1-1.93.37a45.66,45.66,0,0,0-5.18,1.45,40.48,40.48,0,0,1-7.77,2,14.09,14.09,0,0,1-4.77-.24,18.91,18.91,0,0,1-4.73-1.95c-3-1.7-5.78-3.61-8.64-4.45a18.62,18.62,0,0,0-7.82-.41,41.23,41.23,0,0,0-5.24,1.15l-1.41.39a2.45,2.45,0,0,1-.5.11s.15-.09.46-.21.78-.29,1.39-.49a34.83,34.83,0,0,1,5.24-1.31,18.46,18.46,0,0,1,8,.31c3,.85,5.75,2.78,8.75,4.46a19.06,19.06,0,0,0,4.6,1.9,13.59,13.59,0,0,0,4.6.26,41.31,41.31,0,0,0,7.71-1.87,40,40,0,0,1,5.25-1.29,10.52,10.52,0,0,1,1.46-.16A1.51,1.51,0,0,1,162.64,184.09Z" style="fill:#e0e0e0"></path><path d="M183.29,195.08a10.1,10.1,0,0,0-3,.11,13.58,13.58,0,0,0-3.1,1.15c-1.13.55-2.33,1.26-3.69,1.87a10.15,10.15,0,0,1-4.07,1,9.43,9.43,0,0,1-3.39-.56,8.38,8.38,0,0,1-2-1.07c-.44-.32-.65-.54-.63-.56a20.79,20.79,0,0,0,2.78,1.28,9.42,9.42,0,0,0,3.25.43,10.05,10.05,0,0,0,3.88-1c1.32-.59,2.53-1.28,3.69-1.83a13,13,0,0,1,3.24-1.07,6.55,6.55,0,0,1,2.31,0A1.94,1.94,0,0,1,183.29,195.08Z" style="fill:#e0e0e0"></path><path d="M114.22,186.92a7.08,7.08,0,0,0-2-.36,8.31,8.31,0,0,0-2.2.35,27.88,27.88,0,0,1-2.74.7,6.54,6.54,0,0,1-5-1.18,3.8,3.8,0,0,1-1.41-1.61c.08-.06.55.62,1.62,1.3a6.65,6.65,0,0,0,4.7,1c1-.16,1.85-.46,2.7-.65a8,8,0,0,1,2.33-.26A2.79,2.79,0,0,1,114.22,186.92Z" style="fill:#e0e0e0"></path><path d="M167.4,227.07c0,.06-.84-.17-2.38-.24a18.7,18.7,0,0,0-6.42,1,65.31,65.31,0,0,0-8.89,3.88,51.24,51.24,0,0,1-5.32,2.27,21.22,21.22,0,0,1-6.09,1.27,14.08,14.08,0,0,1-6.15-1.09,28.28,28.28,0,0,1-5-2.89c-1.52-1-2.93-2.06-4.3-2.92a19.9,19.9,0,0,0-4-2,11.4,11.4,0,0,0-6.37-.57,13.76,13.76,0,0,0-2.23.87,6.17,6.17,0,0,1,2.18-1.06,11.25,11.25,0,0,1,6.54.41,20,20,0,0,1,4.14,1.95c1.4.86,2.82,1.87,4.34,2.9a29.21,29.21,0,0,0,4.95,2.81,13.64,13.64,0,0,0,5.92,1c4.19-.22,7.94-1.91,11.23-3.45a60.77,60.77,0,0,1,9-3.8,22,22,0,0,1,3.68-.78,15.57,15.57,0,0,1,2.85-.06,9.79,9.79,0,0,1,1.77.27A2.21,2.21,0,0,1,167.4,227.07Z" style="fill:#e0e0e0"></path><path d="M119.09,238a9.36,9.36,0,0,0-3.27-1.14,9.18,9.18,0,0,0-3.41.63c0-.05.25-.36.86-.67a5,5,0,0,1,2.59-.47,5.1,5.1,0,0,1,2.48.86C118.9,237.58,119.13,237.93,119.09,238Z" style="fill:#e0e0e0"></path><path d="M162,250.43c-.06,0-.11-.48-.46-1.27a7.15,7.15,0,0,0-2.32-2.76,10,10,0,0,0-5-1.81,16.28,16.28,0,0,0-6.51,1.13c-2.24.81-4.29,1.82-6.21,2.63a27,27,0,0,1-5.29,1.71,13.28,13.28,0,0,1-3.75.22,9.81,9.81,0,0,1-1-.17c-.22-.05-.34-.09-.34-.11a16.46,16.46,0,0,0,5-.3,29.45,29.45,0,0,0,5.18-1.79c1.89-.82,3.95-1.85,6.22-2.68a16.13,16.13,0,0,1,6.73-1.12,10.07,10.07,0,0,1,5.21,2,6.82,6.82,0,0,1,2.28,3,4.55,4.55,0,0,1,.26,1C162,250.31,162.05,250.43,162,250.43Z" style="fill:#e0e0e0"></path><path d="M119,239.24c.05,0,.24.71.87,1.89a14.57,14.57,0,0,0,3.57,4.3c3.62,3.15,10.22,5.12,17.46,5.63A30.09,30.09,0,0,0,151,250a50.68,50.68,0,0,0,7.83-3c2.17-1,3.89-1.93,5.08-2.54l1.38-.7a2.49,2.49,0,0,1,.5-.22s-.14.12-.45.31l-1.33.78c-1.17.67-2.86,1.63-5,2.7a47.34,47.34,0,0,1-7.86,3.14,30,30,0,0,1-10.3,1.16,43.61,43.61,0,0,1-10.2-1.88,21.1,21.1,0,0,1-7.47-4,13.88,13.88,0,0,1-3.51-4.49,9.05,9.05,0,0,1-.57-1.45A1.85,1.85,0,0,1,119,239.24Z" style="fill:#263238"></path><g style="opacity:0.30000000000000004"><path d="M167.82,222.57c-2.27.35-4.68-.86-6.79-1.79s-4.66-1.59-6.61-.37a22.39,22.39,0,0,0-2.46,2.32c-2.31,2-5.69,1.94-8.71,1.59-7.14-.82-14.09-2.73-21-4.64-.68-.19-3.5-1.25-3.5-1.25l3.1-.7,2.84-.89,2.17-.47,21.35,3.27s1.46-1.54,1.46-1.58l-4.84-5.87c7,3.11,22.56,10.13,23,10.08"></path></g><path d="M121.49,195.9l.65-.49a15,15,0,0,1,11.77-2.72h0a20.65,20.65,0,0,1,9.17,4.3l5.12,4.22L142.75,211,139,205.79s-3.46,4.69-4.07,4.2a8,8,0,0,1-1.36-2l2.47-3.46-5.93,1.24-8.66-4,3.71-4.69-3.71,1.23Z" style="fill:#ffbe9d"></path><path d="M168.47,222.57a2.48,2.48,0,0,0-.48-.27l-1.43-.69-5.37-2.51-18.33-8.37.13.38c1.13-2,2.3-4.13,3.51-6.28l2.17-3.9-.26.13,21.91,2.16,6.51.58,1.76.13a3,3,0,0,0,.62,0,3.11,3.11,0,0,0-.61-.11l-1.75-.23-6.49-.75-21.89-2.33h-.18l-.09.15c-.7,1.25-1.44,2.57-2.18,3.91l-3.5,6.28-.14.25.26.12,18.41,8.19,5.43,2.37,1.47.61A2.27,2.27,0,0,0,168.47,222.57Z" style="fill:#263238"></path><path d="M111.69,210.07a3.14,3.14,0,0,0-.91-.14,8.74,8.74,0,0,0-2.53.15,3,3,0,0,0-1.58.9,4.21,4.21,0,0,0-.83,1.9,4.5,4.5,0,0,0,.21,2.28,4.27,4.27,0,0,0,1.51,1.94,11.3,11.3,0,0,0,4.33,1.55,20.35,20.35,0,0,0,3.71.36,6.7,6.7,0,0,0,3.37-.59,17.38,17.38,0,0,1-3.36.2,22.35,22.35,0,0,1-3.62-.47,11.41,11.41,0,0,1-4.11-1.49,3.89,3.89,0,0,1-.86-5.39,2.74,2.74,0,0,1,1.34-.82,10.32,10.32,0,0,1,2.41-.31A3.48,3.48,0,0,0,111.69,210.07Z" style="fill:#263238"></path><path d="M106.73,224.53a6.06,6.06,0,0,0,2.14.26,13.86,13.86,0,0,0,5.17-.86,11.19,11.19,0,0,0,2.57-1.37,6.16,6.16,0,0,0,1.59-1.79,4.85,4.85,0,0,0,.77-2c-.09,0-.37.75-1.1,1.83a6.14,6.14,0,0,1-1.56,1.59,11.9,11.9,0,0,1-2.47,1.27,16,16,0,0,1-5,1A13.43,13.43,0,0,0,106.73,224.53Z" style="fill:#263238"></path><path d="M100.75,198.62a10.17,10.17,0,0,0,1.48,1.78c1,1,2.31,2.48,3.83,4s2.91,2.94,3.94,3.93a10,10,0,0,0,1.75,1.52,9.59,9.59,0,0,0-1.47-1.79c-1-1-2.31-2.49-3.83-4A52.39,52.39,0,0,0,100.75,198.62Z" style="fill:#263238"></path><polygon points="130.63 195 149.66 218.06 148.2 219.64 117.31 214.93 102 191.88 103.42 190.6 130.63 195" style="fill:#263238"></polygon><path d="M110.44,201.09h0a2.93,2.93,0,0,1,2.74,1.87c.46,1.2,1.13,2.59,1.87,3,1.38.75,3.75,1.35,5,.74s6.24-5.1,7.11-4.6,1.62,1.62.75,2.62-5.49,4-4.62,5,10.61-3.4,12.11-3,2.37,1.31,1.49,1.91-7.48,3.1-7.86,4c0,0,10-2.62,10.36-2s1,1.62,0,2-9.61,2.62-10.36,3a17.89,17.89,0,0,1-3.85,1.13,41.6,41.6,0,0,0-4,1.27,8.85,8.85,0,0,1-6.21-.16l-1-.42a4,4,0,0,1-2.46-3.9l.21-3.41-1.09-2.81Z" style="fill:#ffbe9d"></path><path d="M102,192a2.25,2.25,0,0,0,.57.14l1.66.3,6.08,1,9,1.38,5.34.81a10.22,10.22,0,0,1,5.17,2.09,34.82,34.82,0,0,1,3.76,4.33l3.38,4.21,5.75,7.12c1.61,2,2.93,3.58,3.91,4.76l1.08,1.28a3.43,3.43,0,0,0,.41.43,2.85,2.85,0,0,0-.32-.5l-1-1.34L143,213.1l-5.65-7.19L134,201.68a33.76,33.76,0,0,0-3.83-4.41,10.6,10.6,0,0,0-5.43-2.21l-5.35-.78L110.32,193l-6.11-.81-1.67-.19A2.21,2.21,0,0,0,102,192Z" style="fill:#455a64"></path><path d="M116.4,197a2.55,2.55,0,0,1,.86.7.89.89,0,0,1,0,1,1,1,0,0,1-1.28,0,1.32,1.32,0,0,1-.49-.74.88.88,0,0,1,.26-.83.69.69,0,0,1,.84,0" style="fill:#fafafa"></path><g style="opacity:0.30000000000000004"><path d="M111.18,209.43c-3.46-3.22-6.3-6.49-9.76-9.7-.7-.66-1.47-1.64-1-2.48a1.44,1.44,0,0,1,1.41-.62,3.62,3.62,0,0,1,1.5.6c4.17,2.57,5.71,7.89,7.85,12.2"></path></g><path d="M166.51,221.24s0-.3.22-.77a6.57,6.57,0,0,1,1.3-1.71,9.1,9.1,0,0,0,2.91-6,19.15,19.15,0,0,0-.78-6.8,20.63,20.63,0,0,1-.71-2.81,13.58,13.58,0,0,1,1.06,2.7,17.16,17.16,0,0,1,1,7,9.87,9.87,0,0,1-1.14,3.75,9.38,9.38,0,0,1-2,2.45,8.63,8.63,0,0,0-1.39,1.55A7.49,7.49,0,0,1,166.51,221.24Z" style="fill:#e0e0e0"></path><path d="M155.52,202.13a4.87,4.87,0,0,1,.21,2.1,10.19,10.19,0,0,1-1.53,4.88,10.3,10.3,0,0,1-3.7,3.53,4.93,4.93,0,0,1-2,.74c0-.08.72-.36,1.79-1.06a11,11,0,0,0,5.05-8.12C155.51,202.94,155.43,202.14,155.52,202.13Z" style="fill:#e0e0e0"></path><path d="M107,206.17s.12.24.12.71a4.17,4.17,0,0,1-.47,1.91,4.52,4.52,0,0,1-2.1,2,10.39,10.39,0,0,1-3.5.54,5.85,5.85,0,0,0-3,1.27,6.74,6.74,0,0,0-1.73,2.12,10.86,10.86,0,0,0-.76,2.45,1.67,1.67,0,0,1,0-.72,5.3,5.3,0,0,1,.48-1.89,6.52,6.52,0,0,1,1.76-2.33,6,6,0,0,1,3.28-1.41,11.1,11.1,0,0,0,3.35-.47,4.4,4.4,0,0,0,2-1.78A6,6,0,0,0,107,206.17Z" style="fill:#e0e0e0"></path></g><g id="Plant--inject-1"><path d="M454,89.73a15,15,0,0,1,9.37.12,7.76,7.76,0,0,1,4.28,2.65c1,1.41.88,3.65-.57,4.55a4.37,4.37,0,0,1-3,.34c-2.43-.36-5.07-1.15-7.22,0-1.22.69-2.15,2-3.53,2.21a3.16,3.16,0,0,1-3.25-2,5.41,5.41,0,0,1,.15-4A6.09,6.09,0,0,1,454,89.73Z" style="fill:#4550E6"></path><path d="M449.25,76.47c1.38,2.68,4.82,2.32,6.57,1s2.69-3.36,3.56-5.35c2-4.53,4-9.3,3.67-14.24a8.07,8.07,0,0,0-1.32-4.18,4.25,4.25,0,0,0-3.8-1.87c-1.74.22-3,1.73-4,3.19a34.84,34.84,0,0,0-5.41,14.34,12.09,12.09,0,0,0,.7,7.08" style="fill:#4550E6"></path><path d="M444.07,79.34a9,9,0,0,0,2.49-8,16,16,0,0,0-3.91-7.69,26.26,26.26,0,0,0-8-6.31,9.42,9.42,0,0,0-3.82-1.19,4.14,4.14,0,0,0-3.54,1.54c-1.16,1.63-.56,3.86.15,5.72A66.8,66.8,0,0,0,432,72.86c1.41,2.44,3.08,4.88,5.55,6.23s5.2,1.6,6.83,0" style="fill:#4550E6"></path><path d="M444.15,113.38a6.5,6.5,0,0,0,.3-1.1c.19-.79.43-1.8.71-3a42.72,42.72,0,0,1,1.28-4.36,34.9,34.9,0,0,1,2.33-5,19.82,19.82,0,0,1,3.32-4.39,10,10,0,0,1,3.78-2.36,9.65,9.65,0,0,1,3-.51,5,5,0,0,0,1.13,0,5.3,5.3,0,0,0-1.12-.17,8.61,8.61,0,0,0-3.09.38,10.09,10.09,0,0,0-4,2.36,19,19,0,0,0-3.43,4.47,31.43,31.43,0,0,0-2.33,5.13,35.79,35.79,0,0,0-1.2,4.43c-.27,1.27-.45,2.31-.57,3A5.2,5.2,0,0,0,444.15,113.38Z" style="fill:#263238"></path><path d="M444.67,111.07a2.06,2.06,0,0,0,.1-.51c.05-.39.12-.88.2-1.48.16-1.28.42-3.13.79-5.41.73-4.57,1.79-9.44,3.49-16.28,1.61-6.44,3.6-13.91,5.29-18.71.37-1.1.72-2.08,1-2.93s.59-1.61.84-2.2l.54-1.39a2.42,2.42,0,0,0,.16-.5,1.81,1.81,0,0,0-.25.46l-.62,1.36c-.27.58-.57,1.32-.91,2.17s-.73,1.83-1.12,2.92A167.7,167.7,0,0,0,449,85.88c-1.7,6.86-2.9,13.15-3.55,17.74-.34,2.29-.54,4.15-.65,5.44-.05.6-.08,1.1-.11,1.49A2.05,2.05,0,0,0,444.67,111.07Z" style="fill:#263238"></path><path d="M446.35,98.85a10.69,10.69,0,0,0,.2-1.54c.08-1,.13-2.45.09-4.24a54.4,54.4,0,0,0-.54-6.27,50.29,50.29,0,0,0-1.57-7.55,38.62,38.62,0,0,0-5.9-12.64,19.23,19.23,0,0,0-1.54-1.88c-.24-.26-.45-.52-.66-.73l-.62-.56a9,9,0,0,0-1.19-1,46.7,46.7,0,0,1,3.74,4.37,40.69,40.69,0,0,1,5.72,12.58,56.07,56.07,0,0,1,1.6,7.48,60.58,60.58,0,0,1,.63,6.22c.09,1.78.08,3.22.06,4.22A10.8,10.8,0,0,0,446.35,98.85Z" style="fill:#263238"></path></g><g id="speech-bubble--inject-1"><path d="M72.86,106.84H71.23l-3.54-4.93V98.67s-2.51-.16-2.21,4.08,0,3.17,0,3.17-5.33,0-5.77.48-.47,5.63-.52,8.5a3.11,3.11,0,0,0,2.2,3.13,2.24,2.24,0,0,0,.57.08c1.33,0,8.12-1.08,8.12-1.08h2.81Z" style="fill:#4550E6"></path><polygon points="77.5 105.95 76.5 117.06 73.72 117.06 73.72 106.18 77.5 105.95" style="fill:#4550E6"></polygon><path d="M97.87,133.32l-.26,0-.79-.08-3.11-.31-11.83-1.24-.13-.14.23.12a27.62,27.62,0,0,1-13.82,4.85,28,28,0,0,1-17.55-4.78,27.66,27.66,0,0,1-11.37-29,28,28,0,0,1,5.11-10.83,27.7,27.7,0,0,1,40-4,27,27,0,0,1,6.08,7.44,29,29,0,0,1,3,8.25c.11.7.21,1.38.31,2a19.39,19.39,0,0,1,.14,2,22.11,22.11,0,0,1-.07,3.83,27.75,27.75,0,0,1-1.5,6.72V118c1.74,4.83,3.13,8.66,4.09,11.3.45,1.28.81,2.28,1.06,3,.11.32.2.57.27.76s.08.25.08.25a1.65,1.65,0,0,1-.11-.27l-.31-.78c-.26-.7-.64-1.7-1.14-3l-4.22-11.14,0,0,0,0a27,27,0,0,0,1.44-6.65,22.61,22.61,0,0,0,0-3.78c-.06-.65,0-1.32-.15-2s-.21-1.33-.32-2a28.26,28.26,0,0,0-3-8.12,26.54,26.54,0,0,0-6-7.31,27.29,27.29,0,0,0-44.35,14.63,27.54,27.54,0,0,0-.17,11.32,27.23,27.23,0,0,0,11.3,17.21,27.75,27.75,0,0,0,17.26,4.76,27.33,27.33,0,0,0,13.68-4.7l.23.12-.13-.15,11.71,1.41,3.14.38.82.11Z" style="fill:#263238"></path></g><g id="Panel--inject-1"><rect x="239.04" y="88.19" width="209.38" height="314.05" style="fill:#f5f5f5"></rect><rect x="239.04" y="133.15" width="209.38" height="51.51" style="fill:#ebebeb"></rect><rect x="239.04" y="242.71" width="209.38" height="51.51" style="fill:#ebebeb"></rect><circle cx="265.83" cy="159.12" r="10.64" style="fill:#4550E6"></circle><path d="M271.12,156c.3.31-1.78,2.81-4.64,5.57-.59.57-1.16,1.1-1.7,1.58l-.56.5-.47-.51c-1.95-2.08-3.19-3.73-2.95-4s1.9,1,4,2.93h-1c.49-.52,1.05-1.08,1.63-1.64C268.26,157.63,270.82,155.64,271.12,156Z" style="fill:#fff"></path><path d="M287.8,169.39a90.5,90.5,0,0,1-.26-9.63,90.78,90.78,0,0,1,.26-9.64,87.69,87.69,0,0,1,.26,9.64A87.43,87.43,0,0,1,287.8,169.39Z" style="fill:#263238"></path><path d="M308.84,155.22l.36-.76a3.5,3.5,0,0,0,2.25.79c1.18,0,1.69-.46,1.69-1.05,0-1.67-4.14-.62-4.14-3.15,0-1.05.82-2,2.62-2a4,4,0,0,1,2.19.6l-.32.78a3.54,3.54,0,0,0-1.87-.55c-1.16,0-1.66.49-1.66,1.08,0,1.67,4.13.62,4.13,3.13,0,1-.84,1.94-2.64,1.94A4,4,0,0,1,308.84,155.22Z" style="fill:#263238"></path><path d="M320,153.73h-4.19a1.75,1.75,0,0,0,1.87,1.51,1.91,1.91,0,0,0,1.49-.62l.52.6a2.82,2.82,0,0,1-4.82-1.8,2.54,2.54,0,0,1,2.6-2.63,2.49,2.49,0,0,1,2.55,2.66C320.05,153.53,320,153.64,320,153.73Zm-4.19-.67h3.32a1.67,1.67,0,0,0-3.32,0Z" style="fill:#263238"></path><path d="M324.13,150.79v.9h-.21a1.54,1.54,0,0,0-1.63,1.75V156h-.94v-5.17h.9v.87A2,2,0,0,1,324.13,150.79Z" style="fill:#263238"></path><path d="M330.07,150.83,327.81,156h-1l-2.26-5.17h1l1.77,4.15,1.82-4.15Z" style="fill:#263238"></path><path d="M335.46,153.73h-4.2a1.75,1.75,0,0,0,1.88,1.51,1.93,1.93,0,0,0,1.49-.62l.52.6a2.82,2.82,0,0,1-4.82-1.8,2.53,2.53,0,0,1,2.59-2.63,2.49,2.49,0,0,1,2.56,2.66C335.48,153.53,335.47,153.64,335.46,153.73Zm-4.2-.67h3.32a1.67,1.67,0,0,0-3.32,0Z" style="fill:#263238"></path><path d="M339.55,150.79v.9h-.21a1.55,1.55,0,0,0-1.63,1.75V156h-.93v-5.17h.89v.87A2,2,0,0,1,339.55,150.79Z" style="fill:#263238"></path><path d="M345.1,149.18V156h-1v-6h-1.54v-.85Z" style="fill:#263238"></path><path d="M405.63,215.61v5.76H405l-3.46-4.3v4.3h-.82v-5.76h.67l3.47,4.3v-4.3Z" style="fill:#263238"></path><path d="M406.89,218.49a3.07,3.07,0,1,1,3.07,2.95A2.93,2.93,0,0,1,406.89,218.49Zm5.31,0a2.25,2.25,0,1,0-2.24,2.22A2.17,2.17,0,0,0,412.2,218.49Z" style="fill:#263238"></path><path d="M418.14,221.37l-1.24-1.77-.37,0h-1.42v1.75h-.83v-5.76h2.25c1.5,0,2.41.75,2.41,2a1.82,1.82,0,0,1-1.27,1.82l1.37,1.93Zm0-3.75c0-.83-.55-1.3-1.6-1.3h-1.4v2.6h1.4C417.56,218.92,418.11,218.44,418.11,217.62Z" style="fill:#263238"></path><path d="M425.62,221.37v-4.2l-2.08,3.5h-.38l-2.08-3.47v4.17h-.8v-5.76H421l2.41,4,2.37-4h.67v5.76Z" style="fill:#263238"></path><path d="M431.82,219.93h-3.07l-.63,1.44h-.85l2.61-5.76h.82l2.62,5.76h-.87Zm-.29-.66-1.24-2.82L429,219.27Z" style="fill:#263238"></path><path d="M434.18,215.61H435v5h3.12v.71h-3.94Z" style="fill:#263238"></path><path d="M405.63,163.17v5.77H405l-3.46-4.3v4.3h-.82v-5.77h.67l3.47,4.3v-4.3Z" style="fill:#263238"></path><path d="M406.89,166.05A3.07,3.07,0,1,1,410,169,2.94,2.94,0,0,1,406.89,166.05Zm5.31,0a2.25,2.25,0,1,0-2.24,2.22A2.17,2.17,0,0,0,412.2,166.05Z" style="fill:#263238"></path><path d="M418.14,168.94l-1.24-1.77h-1.79v1.76h-.83v-5.77h2.25c1.5,0,2.41.76,2.41,2a1.82,1.82,0,0,1-1.27,1.82l1.37,1.94Zm0-3.76c0-.82-.55-1.29-1.6-1.29h-1.4v2.59h1.4C417.56,166.48,418.11,166,418.11,165.18Z" style="fill:#263238"></path><path d="M425.62,168.94v-4.2l-2.08,3.5h-.38l-2.08-3.48v4.18h-.8v-5.77H421l2.41,4.05,2.37-4.05h.67v5.77Z" style="fill:#263238"></path><path d="M431.82,167.5h-3.07l-.63,1.44h-.85l2.61-5.77h.82l2.62,5.77h-.87Zm-.29-.66L430.29,164,429,166.84Z" style="fill:#263238"></path><path d="M434.18,163.17H435v5.05h3.12v.72h-3.94Z" style="fill:#263238"></path><circle cx="265.14" cy="210.92" r="10.64" transform="translate(-72.63 237.32) rotate(-42.97)" style="fill:#4550E6"></circle><path d="M270.44,207.75c.3.31-1.78,2.81-4.64,5.57-.59.57-1.17,1.1-1.7,1.58l-.56.5-.48-.51c-1.94-2.08-3.18-3.73-2.94-4s1.89,1,4,2.92h-1c.5-.52,1.05-1.08,1.64-1.64C267.57,209.43,270.14,207.44,270.44,207.75Z" style="fill:#fff"></path><path d="M287.12,221.19a87.43,87.43,0,0,1-.26-9.63,87.69,87.69,0,0,1,.26-9.64,90.78,90.78,0,0,1,.26,9.64A90.5,90.5,0,0,1,287.12,221.19Z" style="fill:#263238"></path><path d="M308.84,207l.36-.76a3.5,3.5,0,0,0,2.25.79c1.18,0,1.69-.46,1.69-1.05,0-1.67-4.14-.62-4.14-3.15,0-1.05.82-2,2.62-2a4,4,0,0,1,2.19.6l-.32.78a3.54,3.54,0,0,0-1.87-.55c-1.16,0-1.66.49-1.66,1.08,0,1.67,4.13.62,4.13,3.13,0,1-.84,1.94-2.64,1.94A4,4,0,0,1,308.84,207Z" style="fill:#263238"></path><path d="M320,205.48h-4.19a1.75,1.75,0,0,0,1.87,1.51,1.91,1.91,0,0,0,1.49-.62l.52.6a2.82,2.82,0,0,1-4.82-1.8,2.54,2.54,0,0,1,2.6-2.63,2.49,2.49,0,0,1,2.55,2.66C320.05,205.28,320,205.39,320,205.48Zm-4.19-.67h3.32a1.67,1.67,0,0,0-3.32,0Z" style="fill:#263238"></path><path d="M324.13,202.54v.9h-.21a1.54,1.54,0,0,0-1.63,1.75v2.57h-.94v-5.17h.9v.87A2,2,0,0,1,324.13,202.54Z" style="fill:#263238"></path><path d="M330.07,202.58l-2.26,5.17h-1l-2.26-5.17h1l1.77,4.15,1.82-4.15Z" style="fill:#263238"></path><path d="M335.46,205.48h-4.2a1.75,1.75,0,0,0,1.88,1.51,1.93,1.93,0,0,0,1.49-.62l.52.6a2.82,2.82,0,0,1-4.82-1.8,2.53,2.53,0,0,1,2.59-2.63,2.49,2.49,0,0,1,2.56,2.66C335.48,205.28,335.47,205.39,335.46,205.48Zm-4.2-.67h3.32a1.67,1.67,0,0,0-3.32,0Z" style="fill:#263238"></path><path d="M339.55,202.54v.9h-.21a1.55,1.55,0,0,0-1.63,1.75v2.57h-.93v-5.17h.89v.87A2,2,0,0,1,339.55,202.54Z" style="fill:#263238"></path><path d="M347.78,206.9v.85h-4.91v-.66l2.78-2.68c.72-.7.86-1.13.86-1.56,0-.7-.5-1.13-1.45-1.13a2.15,2.15,0,0,0-1.75.74l-.66-.58a3.16,3.16,0,0,1,2.5-1c1.42,0,2.33.73,2.33,1.9a2.77,2.77,0,0,1-1.12,2.15l-2.08,2Z" style="fill:#263238"></path><rect x="307.75" y="214.19" width="55.76" height="7.19" style="fill:#4550E6"></rect><path d="M406,269.56h.82v5.05h3.12v.71H406Z" style="fill:#263238"></path><path d="M410.86,269.56h.83v5.76h-.83Z" style="fill:#263238"></path><path d="M417.41,272.41h.79v2.25a3.41,3.41,0,0,1-2.18.73,3,3,0,1,1,2.23-5l-.51.51a2.28,2.28,0,0,0-1.67-.67,2.22,2.22,0,1,0,0,4.44,2.45,2.45,0,0,0,1.35-.37Z" style="fill:#263238"></path><path d="M424.74,269.56v5.76h-.82v-2.57H420.6v2.57h-.82v-5.76h.82V272h3.32v-2.48Z" style="fill:#263238"></path><path d="M427.62,270.27h-2v-.71h4.77v.71h-2v5.05h-.81Z" style="fill:#263238"></path><circle cx="265.83" cy="268.46" r="10.64" transform="translate(-111.97 266.6) rotate(-45)" style="fill:#4550E6"></circle><path d="M271.12,265.3c.3.31-1.78,2.8-4.64,5.56-.59.57-1.16,1.1-1.7,1.58l-.56.51-.47-.51c-1.95-2.09-3.19-3.74-2.95-4s1.9,1,4,2.93h-1c.49-.52,1.05-1.07,1.63-1.64C268.26,267,270.82,265,271.12,265.3Z" style="fill:#fff"></path><path d="M287.8,278.74a90.78,90.78,0,0,1-.26-9.64,90.5,90.5,0,0,1,.26-9.63,87.43,87.43,0,0,1,.26,9.63A87.69,87.69,0,0,1,287.8,278.74Z" style="fill:#263238"></path><path d="M308.84,263.51l.36-.77a3.5,3.5,0,0,0,2.25.79c1.18,0,1.69-.45,1.69-1,0-1.67-4.14-.61-4.14-3.15,0-1.05.82-1.95,2.62-1.95a4,4,0,0,1,2.19.61l-.32.78a3.55,3.55,0,0,0-1.87-.56c-1.16,0-1.66.49-1.66,1.08,0,1.67,4.13.63,4.13,3.13,0,1.05-.84,1.94-2.64,1.94A4.07,4.07,0,0,1,308.84,263.51Z" style="fill:#263238"></path><path d="M320,262h-4.19a1.75,1.75,0,0,0,1.87,1.51,1.91,1.91,0,0,0,1.49-.62l.52.61a2.83,2.83,0,0,1-4.82-1.81,2.54,2.54,0,0,1,2.6-2.63,2.49,2.49,0,0,1,2.55,2.66A2.64,2.64,0,0,1,320,262Zm-4.19-.67h3.32a1.67,1.67,0,0,0-3.32,0Z" style="fill:#263238"></path><path d="M324.13,259.07V260h-.21a1.54,1.54,0,0,0-1.63,1.74v2.58h-.94v-5.17h.9V260A2,2,0,0,1,324.13,259.07Z" style="fill:#263238"></path><path d="M330.07,259.12l-2.26,5.17h-1l-2.26-5.17h1l1.77,4.14,1.82-4.14Z" style="fill:#263238"></path><path d="M335.46,262h-4.2a1.75,1.75,0,0,0,1.88,1.51,1.93,1.93,0,0,0,1.49-.62l.52.61a2.61,2.61,0,0,1-2,.83,2.59,2.59,0,0,1-2.78-2.64,2.53,2.53,0,0,1,2.59-2.63,2.49,2.49,0,0,1,2.56,2.66A2.64,2.64,0,0,1,335.46,262Zm-4.2-.67h3.32a1.67,1.67,0,0,0-3.32,0Z" style="fill:#263238"></path><path d="M339.55,259.07V260h-.21a1.54,1.54,0,0,0-1.63,1.74v2.58h-.93v-5.17h.89V260A2,2,0,0,1,339.55,259.07Z" style="fill:#263238"></path><path d="M347.65,262.28c0,1.15-.85,2.08-2.58,2.08a3.86,3.86,0,0,1-2.51-.83l.45-.77a3.08,3.08,0,0,0,2.06.74c1,0,1.61-.47,1.61-1.21s-.52-1.19-1.69-1.19h-.55v-.69l1.72-2.1h-3.29v-.85h4.51v.66l-1.79,2.21C347,260.45,347.65,261.22,347.65,262.28Z" style="fill:#263238"></path><rect x="308.44" y="271.73" width="25.87" height="7.19" style="fill:#4550E6"></rect><path d="M400.2,326.09a3.07,3.07,0,1,1,3.07,3A2.93,2.93,0,0,1,400.2,326.09Zm5.31,0a2.25,2.25,0,1,0-2.24,2.22A2.17,2.17,0,0,0,405.51,326.09Z" style="fill:#263238"></path><path d="M408.42,323.93v2h2.89v.7h-2.89V329h-.83v-5.77h4.07v.72Z" style="fill:#263238"></path><path d="M413.65,323.93v2h2.89v.7h-2.89V329h-.83v-5.77h4.07v.72Z" style="fill:#263238"></path><path d="M418.06,323.21h.82v5.05H422V329h-3.94Z" style="fill:#263238"></path><path d="M423,323.21h.83V329H423Z" style="fill:#263238"></path><path d="M430.47,323.21V329h-.68l-3.46-4.3V329h-.82v-5.77h.67l3.46,4.3v-4.3Z" style="fill:#263238"></path><path d="M436.38,328.26V329H432.2v-5.77h4.07v.72H433v1.77h2.89v.7H433v1.86Z" style="fill:#263238"></path><path d="M276.36,321.46a10.63,10.63,0,1,1-9.09-12A10.63,10.63,0,0,1,276.36,321.46Z" style="fill:#455a64"></path><path d="M287.77,330.52a90.5,90.5,0,0,1-.26-9.63,90.78,90.78,0,0,1,.26-9.64,87.69,87.69,0,0,1,.26,9.64A87.43,87.43,0,0,1,287.77,330.52Z" style="fill:#263238"></path><path d="M308.81,316.35l.36-.76a3.5,3.5,0,0,0,2.25.79c1.18,0,1.69-.46,1.69-1.05,0-1.67-4.14-.62-4.14-3.15,0-1.05.82-1.95,2.62-1.95a4,4,0,0,1,2.19.6l-.32.78a3.54,3.54,0,0,0-1.87-.55c-1.16,0-1.66.48-1.66,1.08,0,1.67,4.13.62,4.13,3.13,0,1-.84,1.94-2.64,1.94A4,4,0,0,1,308.81,316.35Z" style="fill:#263238"></path><path d="M320,314.86h-4.19a1.75,1.75,0,0,0,1.87,1.51,1.91,1.91,0,0,0,1.49-.62l.52.6a2.82,2.82,0,0,1-4.82-1.8,2.54,2.54,0,0,1,2.6-2.64,2.5,2.5,0,0,1,2.55,2.67C320,314.65,320,314.77,320,314.86Zm-4.19-.67h3.32a1.67,1.67,0,0,0-3.32,0Z" style="fill:#263238"></path><path d="M324.1,311.91v.91h-.21a1.54,1.54,0,0,0-1.63,1.75v2.57h-.94V312h.9v.87A2,2,0,0,1,324.1,311.91Z" style="fill:#263238"></path><path d="M330,312l-2.26,5.17h-1L324.56,312h1l1.77,4.15,1.82-4.15Z" style="fill:#263238"></path><path d="M335.43,314.86h-4.2a1.75,1.75,0,0,0,1.88,1.51,1.93,1.93,0,0,0,1.49-.62l.51.6a2.55,2.55,0,0,1-2,.84,2.59,2.59,0,0,1-2.78-2.64,2.54,2.54,0,0,1,2.59-2.64,2.5,2.5,0,0,1,2.56,2.67C335.45,314.65,335.44,314.77,335.43,314.86Zm-4.2-.67h3.32a1.67,1.67,0,0,0-3.32,0Z" style="fill:#263238"></path><path d="M339.52,311.91v.91h-.21a1.55,1.55,0,0,0-1.63,1.75v2.57h-.93V312h.89v.87A2,2,0,0,1,339.52,311.91Z" style="fill:#263238"></path><path d="M348.89,315.45h-1.3v1.68h-.94v-1.68h-3.8v-.68l3.49-4.46h1.06l-3.35,4.31h2.62v-1.49h.92v1.49h1.3Z" style="fill:#263238"></path><path d="M384.15,330.52s0-.16,0-.46,0-.76,0-1.32c0-1.18,0-2.87-.05-5l.1.1c-12.63.09-41.79.16-75.74.16h0l.26-.26h0v6.8l-.26-.26,53.7.11,16.11.08,4.38,0,1.15,0h.4a1.39,1.39,0,0,1-.37,0l-1.11,0-4.32,0-16.05.07-53.89.11h-.26v-7.06h0c-.23.23.31-.32.26-.26h0c33.95,0,63.11.06,75.74.16h.1v.1c0,2.2,0,3.91-.06,5.1,0,.55,0,1,0,1.3A3,3,0,0,1,384.15,330.52Z" style="fill:#263238"></path><path d="M269.25,316.52c.31.3-1,2.11-2.86,4.05s-3.68,3.26-4,2.95,1-2.11,2.87-4S268.94,316.22,269.25,316.52Z" style="fill:#fff"></path><path d="M269.33,323.44c-.3.31-2.11-1-4.05-2.86s-3.26-3.68-3-4,2.12,1,4.05,2.86S269.63,323.14,269.33,323.44Z" style="fill:#fff"></path><rect x="308.44" y="162.66" width="64.37" height="7.01" style="fill:#4550E6"></rect><path d="M384.18,169.67s0-.17,0-.47,0-.76,0-1.32c0-1.18,0-2.87-.05-5l.1.1c-12.63.1-41.79.16-75.74.16h0l.26-.26h0v6.81l-.26-.26,53.7.11,16.11.07,4.38,0,1.15,0a1.87,1.87,0,0,1,.4,0h-.37l-1.11,0-4.32,0-16.05.07-53.89.11h-.26v-7.07h0l.26-.26h0c33.95,0,63.11.06,75.74.16h.1v.1c0,2.2,0,3.91-.06,5.1,0,.55,0,1,0,1.3A3.42,3.42,0,0,1,384.18,169.67Z" style="fill:#263238"></path><path d="M383.5,221.19a4.13,4.13,0,0,1,0-.46q0-.48,0-1.32c0-1.18,0-2.87-.06-5l.11.1c-12.64.09-41.8.16-75.74.16h0l.26-.26h0v6.8l-.26-.26,53.71.11,16.11.08,4.38,0,1.14,0h.41a1.46,1.46,0,0,1-.37,0l-1.11,0-4.32,0-16.05.07-53.9.11h-.25v-.26c0-1.08,0-2.21,0-3.35v-3.45h0c-.23.23.32-.32.27-.26h0c33.94,0,63.1.06,75.74.15h.1v.1c0,2.2-.05,3.91-.06,5.09,0,.56,0,1,0,1.31S383.5,221.2,383.5,221.19Z" style="fill:#263238"></path><path d="M384.18,278.74s0-.17,0-.47,0-.76,0-1.32c0-1.18,0-2.87-.05-5l.1.11c-12.63.09-41.79.15-75.74.15h0l.26-.26h0v6.82l-.26-.26,53.7.11,16.11.07,4.38,0,1.15,0a1.87,1.87,0,0,1,.4,0h-.37l-1.11,0-4.32,0-16.05.08-53.89.11h-.26v-7.08h0l.26-.26h0c33.95,0,63.11.07,75.74.16h.1v.1c0,2.2,0,3.91-.06,5.1,0,.55,0,1,0,1.3A3.42,3.42,0,0,1,384.18,278.74Z" style="fill:#263238"></path><rect x="239.04" y="350.74" width="209.38" height="51.51" style="fill:#ebebeb"></rect><path d="M406,381h.82v5.05h3.12v.72H406Z" style="fill:#263238"></path><path d="M410.86,381h.83v5.77h-.83Z" style="fill:#263238"></path><path d="M417.41,383.85h.79v2.25a3.36,3.36,0,0,1-2.18.73,3,3,0,1,1,2.23-5l-.51.51a2.27,2.27,0,0,0-1.67-.66,2.22,2.22,0,1,0,0,4.43,2.45,2.45,0,0,0,1.35-.37Z" style="fill:#263238"></path><path d="M424.74,381v5.77h-.82V384.2H420.6v2.57h-.82V381h.82v2.48h3.32V381Z" style="fill:#263238"></path><path d="M427.62,381.72h-2V381h4.77v.72h-2v5h-.81Z" style="fill:#263238"></path><circle cx="265.83" cy="376.49" r="10.64" style="fill:#4550E6"></circle><path d="M271.12,373.33c.3.31-1.78,2.8-4.64,5.56-.59.57-1.16,1.1-1.7,1.58l-.56.51-.47-.51c-1.95-2.09-3.19-3.74-2.95-4s1.9,1,4,2.93h-1c.49-.52,1.05-1.07,1.63-1.64C268.26,375,270.82,373,271.12,373.33Z" style="fill:#fff"></path><path d="M287.8,386.77a90.78,90.78,0,0,1-.26-9.64,90.5,90.5,0,0,1,.26-9.63,87.43,87.43,0,0,1,.26,9.63A87.69,87.69,0,0,1,287.8,386.77Z" style="fill:#263238"></path><path d="M308.84,371.54l.36-.77a3.5,3.5,0,0,0,2.25.79c1.18,0,1.69-.45,1.69-1.05,0-1.66-4.14-.61-4.14-3.15,0-1.05.82-1.95,2.62-1.95a4,4,0,0,1,2.19.61l-.32.78a3.55,3.55,0,0,0-1.87-.56c-1.16,0-1.66.49-1.66,1.08,0,1.67,4.13.63,4.13,3.13,0,1.05-.84,1.94-2.64,1.94A4.07,4.07,0,0,1,308.84,371.54Z" style="fill:#263238"></path><path d="M320,370h-4.19a1.76,1.76,0,0,0,1.87,1.52,1.92,1.92,0,0,0,1.49-.63l.52.61a2.83,2.83,0,0,1-4.82-1.81,2.54,2.54,0,0,1,2.6-2.63,2.49,2.49,0,0,1,2.55,2.66A2.64,2.64,0,0,1,320,370Zm-4.19-.67h3.32a1.67,1.67,0,0,0-3.32,0Z" style="fill:#263238"></path><path d="M324.13,367.1V368h-.21a1.54,1.54,0,0,0-1.63,1.74v2.58h-.94v-5.17h.9V368A2,2,0,0,1,324.13,367.1Z" style="fill:#263238"></path><path d="M330.07,367.15l-2.26,5.17h-1l-2.26-5.17h1l1.77,4.14,1.82-4.14Z" style="fill:#263238"></path><path d="M335.46,370h-4.2a1.76,1.76,0,0,0,1.88,1.52,1.93,1.93,0,0,0,1.49-.63l.52.61a2.61,2.61,0,0,1-2,.83,2.59,2.59,0,0,1-2.78-2.64,2.53,2.53,0,0,1,2.59-2.63,2.49,2.49,0,0,1,2.56,2.66A2.64,2.64,0,0,1,335.46,370Zm-4.2-.67h3.32a1.67,1.67,0,0,0-3.32,0Z" style="fill:#263238"></path><path d="M339.55,367.1V368h-.21a1.54,1.54,0,0,0-1.63,1.74v2.58h-.93v-5.17h.89V368A2,2,0,0,1,339.55,367.1Z" style="fill:#263238"></path><path d="M347.65,370.31c0,1.15-.85,2.08-2.58,2.08a3.86,3.86,0,0,1-2.51-.83l.45-.77a3.08,3.08,0,0,0,2.06.74c1,0,1.61-.47,1.61-1.21s-.52-1.19-1.69-1.19h-.55v-.69l1.72-2.1h-3.29v-.85h4.51v.66l-1.79,2.21C347,368.48,347.65,369.25,347.65,370.31Z" style="fill:#263238"></path><rect x="308.44" y="379.76" width="25.87" height="7.19" style="fill:#4550E6"></rect><path d="M384.18,386.77s0-.17,0-.47,0-.76,0-1.32c0-1.18,0-2.87-.05-5l.1.11c-12.63.09-41.79.15-75.74.15h0l.26-.26h0v6.82l-.26-.26,53.7.11,16.11.07,4.38,0,1.15,0,.4,0h-.37l-1.11,0-4.32,0-16.05.08-53.89.11h-.26V380h0l.26-.26h0c33.95,0,63.11.07,75.74.16h.1v.1c0,2.2,0,3.91-.06,5.1,0,.55,0,1,0,1.3A3.42,3.42,0,0,1,384.18,386.77Z" style="fill:#263238"></path><path d="M268.65,114l.44-.91a4.34,4.34,0,0,0,2.75.94c1.44,0,2.06-.55,2.06-1.26,0-2-5-.74-5-3.78,0-1.26,1-2.34,3.19-2.34a5,5,0,0,1,2.68.73l-.4.93a4.38,4.38,0,0,0-2.28-.67c-1.42,0-2,.59-2,1.3,0,2,5,.75,5,3.76,0,1.25-1,2.33-3.22,2.33A5,5,0,0,1,268.65,114Z" style="fill:#263238"></path><path d="M282.31,112.18h-5.12a2.13,2.13,0,0,0,2.29,1.81,2.34,2.34,0,0,0,1.82-.75l.63.73a3.21,3.21,0,0,1-2.49,1,3.14,3.14,0,0,1-3.39-3.18,3.07,3.07,0,0,1,3.17-3.16,3,3,0,0,1,3.12,3.2C282.34,111.93,282.32,112.07,282.31,112.18Zm-5.12-.81h4.05a2,2,0,0,0-4.05,0Z" style="fill:#263238"></path><path d="M287.31,108.64v1.09h-.26a1.87,1.87,0,0,0-2,2.1v3.09h-1.14V108.7H285v1A2.42,2.42,0,0,1,287.31,108.64Z" style="fill:#263238"></path><path d="M294.56,108.7l-2.76,6.21h-1.17l-2.76-6.21h1.19l2.17,5,2.21-5Z" style="fill:#263238"></path><path d="M301.13,112.18H296A2.13,2.13,0,0,0,298.3,114a2.34,2.34,0,0,0,1.82-.75l.63.73a3.21,3.21,0,0,1-2.49,1,3.14,3.14,0,0,1-3.39-3.18,3.07,3.07,0,0,1,3.17-3.16,3,3,0,0,1,3.12,3.2C301.16,111.93,301.14,112.07,301.13,112.18Zm-5.12-.81h4.05a2,2,0,0,0-4.05,0Z" style="fill:#263238"></path><path d="M306.13,108.64v1.09h-.26a1.87,1.87,0,0,0-2,2.1v3.09h-1.14V108.7h1.1v1A2.42,2.42,0,0,1,306.13,108.64Z" style="fill:#263238"></path><path d="M306.79,114.25l.47-.89a4.09,4.09,0,0,0,2.22.64c1.06,0,1.5-.31,1.5-.84,0-1.39-4-.19-4-2.65,0-1.12,1-1.87,2.63-1.87a4.58,4.58,0,0,1,2.3.57l-.49.89a3.28,3.28,0,0,0-1.82-.5c-1,0-1.49.37-1.49.86,0,1.46,4,.27,4,2.68,0,1.12-1.05,1.84-2.72,1.84A4.6,4.6,0,0,1,306.79,114.25Z" style="fill:#263238"></path><path d="M316.16,114l.44-.91a4.34,4.34,0,0,0,2.75.94c1.44,0,2-.55,2-1.26,0-2-5-.74-5-3.78,0-1.26,1-2.34,3.19-2.34a5,5,0,0,1,2.68.73l-.4.93a4.38,4.38,0,0,0-2.28-.67c-1.42,0-2,.59-2,1.3,0,2,5,.75,5,3.76,0,1.25-1,2.33-3.22,2.33A5,5,0,0,1,316.16,114Z" style="fill:#263238"></path><path d="M327.69,114.54a2.15,2.15,0,0,1-1.38.44,1.79,1.79,0,0,1-2-2v-3.4h-1.07v-.93h1.07v-1.35h1.14v1.35h1.81v.93h-1.81V113a.92.92,0,0,0,1,1,1.48,1.48,0,0,0,.89-.29Z" style="fill:#263238"></path><path d="M334.07,111.16v3.75H333v-.82a2.37,2.37,0,0,1-2.07.89c-1.43,0-2.34-.75-2.34-1.83s.66-1.81,2.54-1.81h1.81v-.23c0-.94-.56-1.49-1.69-1.49a3.22,3.22,0,0,0-2,.66l-.48-.84a4.31,4.31,0,0,1,2.61-.8C333.09,108.64,334.07,109.46,334.07,111.16ZM332.93,113v-.87h-1.76c-1.13,0-1.46.44-1.46,1s.53,1,1.4,1A1.85,1.85,0,0,0,332.93,113Z" style="fill:#263238"></path><path d="M339.74,114.54a2.15,2.15,0,0,1-1.38.44,1.78,1.78,0,0,1-2-2v-3.4h-1.07v-.93h1.07v-1.35h1.14v1.35h1.81v.93H337.5V113a.92.92,0,0,0,1,1,1.5,1.5,0,0,0,.89-.29Z" style="fill:#263238"></path><path d="M347,108.7v6.21h-1.08V114a2.61,2.61,0,0,1-2.15,1,2.46,2.46,0,0,1-2.71-2.71V108.7h1.14v3.44c0,1.22.62,1.83,1.7,1.83a1.85,1.85,0,0,0,2-2.06V108.7Z" style="fill:#263238"></path><path d="M348.38,114.25l.48-.89a4,4,0,0,0,2.21.64c1.06,0,1.5-.31,1.5-.84,0-1.39-4-.19-4-2.65,0-1.12,1-1.87,2.63-1.87a4.58,4.58,0,0,1,2.3.57l-.49.89a3.28,3.28,0,0,0-1.82-.5c-1,0-1.49.37-1.49.86,0,1.46,4,.27,4,2.68,0,1.12-1,1.84-2.72,1.84A4.6,4.6,0,0,1,348.38,114.25Z" style="fill:#263238"></path><rect x="253.45" y="106.08" width="10.2" height="2.94" rx="0.17" style="fill:#263238"></rect><rect x="253.45" y="109.76" width="10.2" height="2.94" rx="0.17" style="fill:#263238"></rect><rect x="253.45" y="113.43" width="10.2" height="2.94" rx="0.17" style="fill:#263238"></rect><circle cx="437.46" cy="105.5" r="1.57" style="fill:#263238"></circle><path d="M439,109.76a1.57,1.57,0,1,1-1.56-1.56A1.56,1.56,0,0,1,439,109.76Z" style="fill:#263238"></path><circle cx="437.46" cy="114.27" r="1.57" style="fill:#263238"></circle><path d="M448.43,402.25c0-2.14-.1-129.12-.24-314.06l.24.24-209.36,0h0l.26-.26c0,118.4,0,227.6-.05,314.06L239,402l209.39.21-209.39.2h-.2v-.2c0-86.46,0-195.66-.06-314.06v-.26h.29l209.36,0h.23v.24C448.52,273.13,448.43,400.11,448.43,402.25Z" style="fill:#263238"></path></g></svg>