<svg xmlns="http://www.w3.org/2000/svg" xmlns:xlink="http://www.w3.org/1999/xlink" viewBox="0 0 500 500" xmlns:v="https://vecta.io/nano"><style><![CDATA[.B{fill:#263238}.C{fill:#4550e6}.D{fill:#f5f5f5}.E{fill:#455a64}.F{fill:#e0e0e0}.G{fill:#ebebeb}.H{fill:#ffbe9d}.I{fill-rule:evenodd}]]></style><g class="F"><path d="M476.63 400.25a43.35 43.35 0 0 1-4.69 10.58l5.5 9.2-12.84 12.26-8.95-5.94a43.41 43.41 0 0 1-10.79 4.19L442.25 441l-17.75-.42-2.12-10.58a43.8 43.8 0 0 1-10.59-4.69l-9.2 5.5L390.32 418l5.94-8.94a43.45 43.45 0 0 1-4.18-10.8l-10.4-2.6.42-17.76 10.52-2.12a43.32 43.32 0 0 1 4.68-10.58l-5.5-9.2 12.85-12.25 8.94 5.94a43.48 43.48 0 0 1 10.8-4.19l2.6-10.4 17.76.42 2.12 10.48a43.8 43.8 0 0 1 10.59 4.69l9.2-5.5L478.9 358l-5.9 9a43.85 43.85 0 0 1 4.18 10.8l10.4 2.6-.42 17.75-10.5 2.13zm-23-11a19.05 19.05 0 1 0-19.49 18.59 19 19 0 0 0 19.5-18.58z" opacity=".8" class="I"/><path d="M196.1 135.13a5 5 0 0 1-.16 1.56 6.43 6.43 0 0 1-8.53 4.31 5.74 5.74 0 0 1-1.63-.92 6 6 0 0 1-1.35-1.41 6.47 6.47 0 0 1 .18-7.7 6 6 0 0 1 1.42-1.34 5.83 5.83 0 0 1 1.67-.84 6.4 6.4 0 0 1 6.1 1.11 6.36 6.36 0 0 1 2.21 3.63 4.82 4.82 0 0 1 .09 1.57 14 14 0 0 0-.23-1.54 6.35 6.35 0 0 0-2.23-3.46 6.23 6.23 0 0 0-5.84-1 5.86 5.86 0 0 0-1.57.81 6 6 0 0 0-1.34 1.28 6.14 6.14 0 0 0-.17 7.28 6 6 0 0 0 1.27 1.34 6.25 6.25 0 0 0 9.81-3.19c.27-.93.26-1.5.3-1.5zm7.64 3.65l.2-.06.66-.14 2.6-.56.1-5.9.07.1-3.46-.86h-.06v-.07a15.05 15.05 0 0 0-1.39-3.56v-.12l2-3v.16l-4.08-4.26h.17l-3.06 1.84h-.15a14.41 14.41 0 0 0-3.49-1.54h-.1v-.1l-.7-3.5.16.13-5.9-.13.17-.13-.87 3.46v.1h-.1a13.83 13.83 0 0 0-3.54 1.37l-.1.05-.08-.06-3-2h.22l-4.27 4.08v-.22l1.76 3.14.06.1-.06.1a14.75 14.75 0 0 0-1.54 3.47h0l-.13.12h-.44l-.4.22-.88.18-1.74.35.14-.17q-.06 3-.14 5.9l-.13-.18 3.46.87h.1v.1a14.06 14.06 0 0 0 1.37 3.54l.05.1-2.06 3.1v-.22l4.08 4.28h-.2l3.07-1.83h.17a13.93 13.93 0 0 0 3.47 1.55h.1v.1l.7 3.5-.15-.12 5.9.15-.14.1.88-3.46v-.08h.07a14.41 14.41 0 0 0 3.57-1.37h.12l3 2h-.14l4.3-4.05v.1l-1.8-3.08a15.26 15.26 0 0 0 1.28-2.59l.24-.68a1.35 1.35 0 0 1 .09-.22l-.06.23q-.06.23-.2.7a14.11 14.11 0 0 1-1.24 2.63v-.06l1.85 3v.06h-.05l-4.32 4.16-.07-.05-3-2h.12a14.3 14.3 0 0 1-3.59 1.47l.1-.1-.86 3.46v.1h-.1l-6.03-.13v-.12l-.7-3.5.1.12a14.28 14.28 0 0 1-3.57-1.57h.17l-3.06 1.84-.1.07-.1-.1-4.17-4.37.07-.1 2-3v.18a14.64 14.64 0 0 1-1.41-3.63l.13.13-3.46-.87h-.14v-.15l.14-5.9v-.15h.15l1.74-.35.88-.18.44-.08.22-.05h.2c-.27.25-.07.07-.14.12h0a14.52 14.52 0 0 1 1.57-3.56v.2l-1.9-3.2.1-.1 4.38-4.17.12.07 3 2h-.18a14.67 14.67 0 0 1 3.63-1.4l-.12.13.87-3.46v-.14h.14l5.9.14h.13v.12l.7 3.5-.1-.12a14.83 14.83 0 0 1 3.56 1.58h-.16l3.17-1.88.07.08 4.14 4.36v.08l-2 3v-.12a14.62 14.62 0 0 1 1.39 3.62l-.08-.07 3.46.88h.07v.07l-.18 5.95-3.28.62z"/></g><g class="D"><path d="M259.58 96.24a28.43 28.43 0 0 1-3.08 7l3.63 6.06-8.46 8.07-5.88-3.9a28.28 28.28 0 0 1-7.1 2.75L237 123l-11.68-.28-1.4-6.92a28.5 28.5 0 0 1-7-3.08l-6.06 3.63-8.06-8.46 3.9-5.88a28.28 28.28 0 0 1-2.75-7.1l-6.85-1.72.28-11.68 6.9-1.4a28.53 28.53 0 0 1 3.09-7l-3.63-6.06 8.46-8.05 5.88 4a28.28 28.28 0 0 1 7.1-2.75l1.72-6.85 11.68.28 1.4 6.9a28.29 28.29 0 0 1 7 3.09l6-3.68 8.06 8.45-3.9 5.9a28.28 28.28 0 0 1 2.75 7.1l6.85 1.72-.28 11.68-6.92 1.4zM244.46 89a12.53 12.53 0 1 0-12.82 12.23A12.53 12.53 0 0 0 244.46 89z" opacity=".8" class="I"/><path d="M76.74 445.6c20-11.07 26.8-34.8 28.35-56.62.26-3.64 1.06-7.42-.33-10.8s-5.2-6-8.6-4.78c-2.83 1-4.33 4-6.1 6.43a21.3 21.3 0 0 1-9.37 7.23c-2.44 1-5.37 1.4-7.52-.1-3-2.06-2.86-6.42-2.46-10l2.3-20.2c.4-3.6.8-7.3 0-10.83s-2.9-7-6.24-8.3-7.78.2-8.88 3.66a31.9 31.9 0 0 0-.57 4.48c-.26 1.5-1.13 3.08-2.6 3.34s-2.82-.9-3.8-2.07c-3.34-4-5.37-9-7.25-13.9S40 323.2 37 318.86s-7.3-8-12.44-8.8-11 1.77-12.82 6.7.58 10.42 3.38 14.88a80.71 80.71 0 0 0 15.12 17.76 6.58 6.58 0 0 1 2.49 3.31c.53 2.5-2 4.64-4.46 5.18-2.78.6-5.67 0-8.52.06s-6 .95-7.37 3.5C10.5 365 13.2 369.17 16 372a69.49 69.49 0 0 0 19.14 14c2.55 1.25 5.25 2.4 7.2 4.48s2.9 5.48 1.33 7.88-5 2.87-7.7 2.06-5.06-2.58-7.6-3.86c-4.77-2.4-11.2-2.72-14.83 1.23-2.4 2.6-3 6.5-2.28 10a26.25 26.25 0 0 0 4.53 9.49c7 10.17 16.35 18.75 27.43 23.95s21.63 7.4 33.5 4.43"/></g><g class="F"><path d="M72.56 431.38a323.33 323.33 0 0 0-9.17-36.17q-1.45-4.74-2.9-9.36l-3-9a162.71 162.71 0 0 0-7.34-16.41c-2.6-5.1-5.24-9.86-7.74-14.28s-4.93-8.5-7.3-12.12a128.36 128.36 0 0 0-12.42-16.25 132.52 132.52 0 0 0-3.79-4.05l-1-1a2.74 2.74 0 0 0-.36-.33 2.91 2.91 0 0 0 .31.38l1 1.07c.86.93 2.12 2.3 3.7 4.13a135.88 135.88 0 0 1 12.22 16.33c2.33 3.63 4.72 7.7 7.2 12.14s5.1 9.18 7.67 14.3a163.7 163.7 0 0 1 7.28 16.36c1.1 2.9 2 5.92 3 9l2.9 9.35A333.78 333.78 0 0 1 72 431.49"/><path d="M57.3 376.78a6.92 6.92 0 0 0 .52-1.51l1.1-4.17c.9-3.54 2-8.47 3.1-13.9s2.28-10.34 3.22-13.86l1.14-4.16a6.38 6.38 0 0 0 .36-1.54 7.74 7.74 0 0 0-.61 1.46c-.36 1-.82 2.36-1.34 4.1-1.06 3.5-2.27 8.4-3.42 13.85L58.47 371l-.9 4.22a7.29 7.29 0 0 0-.27 1.56z"/><path d="M11.82 363.22a10.38 10.38 0 0 0 1.83.41l5 1c4.2.9 10 2.36 16.25 4.25s11.9 3.85 15.9 5.38l4.75 1.85a10.65 10.65 0 0 0 1.76.64 8.69 8.69 0 0 0-1.66-.88c-1.1-.52-2.68-1.24-4.68-2-4-1.66-9.6-3.7-15.9-5.6a165.18 165.18 0 0 0-16.35-4.07c-2.1-.4-3.84-.67-5-.82a9.64 9.64 0 0 0-1.92-.17zm60.26 67.24s.15-.17.38-.53l1-1.6 3.4-6c2.8-5.08 6.45-12.22 10.36-20.15l10.18-20.23 3.2-6.07.86-1.65a3.08 3.08 0 0 0 .27-.6 2.42 2.42 0 0 0-.38.53l-1 1.6c-.84 1.4-2 3.43-3.4 6-2.8 5.08-6.45 12.22-10.36 20.16l-10.2 20.22-4.07 7.72a2.6 2.6 0 0 0-.26.6z"/><path d="M12.52 404.1a2.33 2.33 0 0 0 .58.31l1.73.8 6.38 2.8 20.95 9.55 21.05 9.37 6.46 2.64 1.78.67c.4.15.62.22.63.2a2.33 2.33 0 0 0-.58-.31l-1.73-.8-6.38-2.84-21-9.55-21-9.37-6.47-2.64-1.77-.67a2.33 2.33 0 0 0-.63-.15z"/></g><path d="M471.13 447.06c0 .14-99 .26-221.12.26s-221.14-.12-221.14-.26 99-.26 221.14-.26l221.12.26zm-263.2-16.96h-9.24v-1h9.24a11 11 0 0 0 11-11V175.3a13.25 13.25 0 0 1 13.23-13.23h20v1h-20a12.25 12.25 0 0 0-12.23 12.23v242.84a12 12 0 0 1-12 11.96zM84.23 287.4h106.5v142.2H84.23z" class="B"/><path d="M68.67 310.76H185.1v28.9H68.67z" class="E"/><g class="B"><use xlink:href="#B"/><use xlink:href="#B" y="6.08"/><use xlink:href="#B" y="12.36"/><use xlink:href="#C"/><use xlink:href="#D"/><use xlink:href="#C" x="11.61"/><use xlink:href="#C" x="17.41"/><use xlink:href="#C" x="62.37"/><use xlink:href="#C" x="68.3"/><use xlink:href="#D" x="17.41"/><use xlink:href="#D" x="45.91"/></g><g class="D"><use xlink:href="#D" x="23.21"/><use xlink:href="#C" x="34.82"/><use xlink:href="#D" x="40.79"/><use xlink:href="#D" x="67.36"/></g><g class="C"><use xlink:href="#D" x="34.82"/><use xlink:href="#C" x="57.24"/></g><g class="B"><use xlink:href="#E"/><use xlink:href="#F"/><path d="M164.7 325.18a1.32 1.32 0 1 1 1.29 1.32 1.31 1.31 0 0 1-1.29-1.32z"/><use xlink:href="#E" x="-17.42"/><use xlink:href="#E" x="-62.38"/><use xlink:href="#E" x="-68.32"/><use xlink:href="#F" x="-17.4"/><use xlink:href="#F" x="-45.9"/></g><g class="D"><use xlink:href="#E" x="-29.02"/><use xlink:href="#E" x="-34.82"/><path d="M129.72 325.18a1.32 1.32 0 1 1 1.28 1.32 1.32 1.32 0 0 1-1.28-1.32z"/><use xlink:href="#F" x="-67.3"/></g><g class="C"><path d="M135.7 325.18a1.32 1.32 0 1 1 1.31 1.32 1.32 1.32 0 0 1-1.31-1.32z"/><use xlink:href="#E" x="-57.24"/></g><g class="B"><use xlink:href="#G"/><circle cx="110.32" cy="330.82" r="1.31"/><circle cx="116.12" cy="330.82" r="1.32"/><use xlink:href="#G" x="17.41"/><circle cx="166.9" cy="330.82" r="1.31"/><circle cx="172.82" cy="330.82" r="1.31"/><use xlink:href="#H"/><use xlink:href="#H" x="28.5"/></g><g class="D"><circle cx="133.53" cy="330.82" r="1.31"/><use xlink:href="#G" x="34.82"/><use xlink:href="#H" x="23.38"/><use xlink:href="#H" x="49.95"/></g><g class="C"><use xlink:href="#H" x="17.41"/><circle cx="161.76" cy="330.82" r="1.31"/></g><path d="M68.67 346.4H185.1v28.9H68.67z" class="E"/><g class="B"><use xlink:href="#D" x="-6.09" y="35.36"/><use xlink:href="#D" x="-0.29" y="35.36"/><use xlink:href="#C" x="11.32" y="35.36"/><path d="M123,354.2a1.32,1.32,0,1,1-1.31-1.31A1.31,1.31,0,0,1,123,354.2Z"/><use xlink:href="#D" x="56.29" y="35.36"/><use xlink:href="#C" x="68.01" y="35.36"/><use xlink:href="#D" x="17.12" y="35.36"/><use xlink:href="#D" x="45.62" y="35.36"/></g><g class="D"><use xlink:href="#C" x="28.73" y="35.36"/><use xlink:href="#I"/><use xlink:href="#D" x="40.5" y="35.36"/><use xlink:href="#D" x="67.02" y="35.36"/></g><g class="C"><use xlink:href="#D" x="34.53" y="35.36"/><use xlink:href="#I" x="22.42"/></g><g class="B"><use xlink:href="#E" x="-0.32" y="35.36"/><circle cx="171.54" cy="360.54" r="1.32"/><use xlink:href="#F" x="-6.08" y="35.36"/><use xlink:href="#E" x="-17.7" y="35.36"/><use xlink:href="#E" x="-62.67" y="35.36"/><use xlink:href="#F" x="-62.77" y="35.36"/><circle cx="154.13" cy="360.54" r="1.32"/><use xlink:href="#F" x="-46.2" y="35.36"/></g><g class="D"><use xlink:href="#F" x="-23.5" y="35.36"/><use xlink:href="#E" x="-35.12" y="35.36"/><circle cx="130.75" cy="360.54" r="1.32"/><use xlink:href="#E" x="-73.4" y="35.36"/></g><g class="C"><use xlink:href="#F" x="-35.1" y="35.36"/><use xlink:href="#E" x="-57.52" y="35.36"/></g><g class="B"><use xlink:href="#H" x="-23.5" y="35.36"/><use xlink:href="#H" x="-17.7" y="35.36"/><use xlink:href="#G" x="11.32" y="35.36"/><use xlink:href="#J"/><use xlink:href="#H" x="38.88" y="35.36"/><use xlink:href="#G" x="68.01" y="35.36"/><use xlink:href="#H" x="-0.29" y="35.36"/><use xlink:href="#H" x="28.21" y="35.36"/></g><g class="D"><use xlink:href="#G" x="28.73" y="35.36"/><use xlink:href="#J" x="17.36"/><use xlink:href="#H" x="23.09" y="35.36"/><use xlink:href="#H" x="49.61" y="35.36"/></g><g class="C"><use xlink:href="#H" x="17.12" y="35.36"/><use xlink:href="#J" x="39.78"/></g><g class="B"><use xlink:href="#B" y="35.66"/><use xlink:href="#B" y="41.73"/><use xlink:href="#B" y="48"/></g><path d="M68.67 382.06H185.1v28.9H68.67z" class="E"/><g class="B"><use xlink:href="#B" y="71.3"/><use xlink:href="#B" y="77.37"/><use xlink:href="#B" y="83.65"/><use xlink:href="#G" x="-0.71" y="59.03"/><use xlink:href="#H" x="-18.12" y="59.03"/><use xlink:href="#H" x="-12.32" y="59.03"/><use xlink:href="#G" x="16.7" y="59.03"/><use xlink:href="#G" x="61.67" y="59.03"/><use xlink:href="#G" x="67.59" y="59.03"/><use xlink:href="#H" x="-0.71" y="59.03"/><use xlink:href="#H" x="27.79" y="59.03"/></g><g class="D"><use xlink:href="#H" x="5.09" y="59.03"/><use xlink:href="#G" x="34.11" y="59.03"/><use xlink:href="#H" x="22.67" y="59.03"/><use xlink:href="#H" x="49.19" y="59.03"/></g><g class="C"><use xlink:href="#H" x="16.7" y="59.03"/><use xlink:href="#G" x="56.53" y="59.03"/></g><g class="B"><path d="M175.6 396.2a1.32 1.32 0 1 1 1.31 1.31 1.31 1.31 0 0 1-1.31-1.31z"/><use xlink:href="#K"/><use xlink:href="#L"/><use xlink:href="#L" x="-5.8"/><path d="M113.23 396.2a1.32 1.32 0 1 1 1.31 1.31 1.31 1.31 0 0 1-1.31-1.31z"/><use xlink:href="#L" x="-56.7"/><use xlink:href="#K" x="-17.4"/><use xlink:href="#K" x="-45.9"/></g><g class="D"><use xlink:href="#L" x="-17.4"/><use xlink:href="#L" x="-23.2"/><use xlink:href="#K" x="-40.8"/><use xlink:href="#K" x="-67.3"/></g><g class="C"><use xlink:href="#K" x="-34.8"/><use xlink:href="#L" x="-45.63"/></g><g class="B"><use xlink:href="#G" x="-0.71" y="71.01"/><use xlink:href="#M"/><use xlink:href="#M" x="5.8"/><use xlink:href="#G" x="16.7" y="71.01"/><use xlink:href="#G" x="61.67" y="71.01"/><use xlink:href="#G" x="67.59" y="71.01"/><use xlink:href="#M" x="17.41"/><use xlink:href="#M" x="45.91"/></g><g class="D"><use xlink:href="#M" x="23.21"/><use xlink:href="#G" x="34.11" y="71.01"/><use xlink:href="#M" x="40.79"/><use xlink:href="#M" x="67.31"/></g><g class="C"><use xlink:href="#M" x="34.82"/><use xlink:href="#G" x="56.53" y="71.01"/></g><path d="M202.6 339.6l-17.5.05v-28.9l17.5-.04v28.88zm0 35.42l-17.5.05v-28.9l17.5-.04V375zm0 35.88l-17.5.05v-28.88l17.5-.05v28.88zM74.7 293.67h22.9v3.53H74.7zm127.9 10.8l-17.5.05v-29.1l17.5-.05v29.1z" class="B"/><path d="M69.52 275.37h116.43v28.9H69.52z" class="E"/><g class="B"><path d="M74.7 281.32h22.9v3.53H74.7zm0 6.08h22.9v3.53H74.7z"/><use xlink:href="#D" x="-4.96" y="-35.39"/><use xlink:href="#D" x="0.84" y="-35.39"/><use xlink:href="#C" x="12.45" y="-35.39"/><use xlink:href="#D" x="12.46" y="-35.39"/><use xlink:href="#D" x="57.42" y="-35.39"/><use xlink:href="#I" x="34.64" y="-70.75"/><use xlink:href="#D" x="18.26" y="-35.39"/><use xlink:href="#D" x="46.76" y="-35.39"/></g><g class="D"><use xlink:href="#C" x="29.87" y="-35.39"/><use xlink:href="#D" x="29.86" y="-35.39"/><use xlink:href="#C" x="47.44" y="-35.39"/><use xlink:href="#D" x="68.16" y="-35.39"/></g><g class="C"><use xlink:href="#D" x="35.66" y="-35.39"/><use xlink:href="#D" x="52.28" y="-35.39"/></g><g class="B"><use xlink:href="#E" x="0.84" y="-35.38"/><circle cx="172.67" cy="289.79" r="1.32"/><use xlink:href="#F" x="-4.95" y="-35.38"/><use xlink:href="#E" x="-16.57" y="-35.38"/><use xlink:href="#E" x="-61.54" y="-35.38"/><use xlink:href="#F" x="-61.64" y="-35.38"/><use xlink:href="#E" x="-22.32" y="-35.38"/><circle cx="126.76" cy="289.79" r="1.32"/></g><g class="D"><circle cx="149.46" cy="289.79" r="1.32"/><circle cx="143.65" cy="289.79" r="1.32"/><use xlink:href="#E" x="-45.75" y="-35.38"/><circle cx="105.36" cy="289.79" r="1.32"/></g><g class="C"><use xlink:href="#E" x="-39.78" y="-35.38"/><use xlink:href="#F" x="-50.58" y="-35.38"/></g><g class="B"><use xlink:href="#H" x="-22.37" y="-35.39"/><use xlink:href="#H" x="-16.57" y="-35.39"/><use xlink:href="#G" x="12.45" y="-35.39"/><use xlink:href="#H" x="-4.95" y="-35.39"/><use xlink:href="#H" x="40.01" y="-35.39"/><path d="M175,295.43a1.32,1.32,0,0,1-2.63,0,1.32,1.32,0,1,1,2.63,0Z"/><use xlink:href="#H" x="0.85" y="-35.39"/><use xlink:href="#H" x="29.35" y="-35.39"/></g><g class="D"><use xlink:href="#G" x="29.87" y="-35.39"/><use xlink:href="#H" x="12.45" y="-35.39"/><use xlink:href="#G" x="47.44" y="-35.39"/><use xlink:href="#H" x="50.75" y="-35.39"/></g><g class="C"><use xlink:href="#H" x="18.25" y="-35.39"/><use xlink:href="#H" x="34.87" y="-35.39"/></g><path d="M201.53 447.04l-17.5.04V418.2l17.5-.05v28.9z" class="B"/><path d="M68.44 418.2h116.43v28.9H68.44z" class="E"/><g class="B"><path d="M73.6 424.15h22.92v3.53H73.6zm0 6.07h22.92v3.53H73.6z"/><use xlink:href="#M" x="-5.33" y="24.45"/><use xlink:href="#G" x="5.57" y="95.46"/><use xlink:href="#G" x="11.37" y="95.46"/><use xlink:href="#M" x="12.07" y="24.45"/><use xlink:href="#M" x="57.07" y="24.45"/><use xlink:href="#M" x="62.97" y="24.45"/><use xlink:href="#N"/><path d="M157.3 426.28A1.32 1.32 0 1 1 156 425a1.31 1.31 0 0 1 1.31 1.28z"/></g><g class="D"><use xlink:href="#N" x="5.8"/><path d="M140.42 426.28a1.32 1.32 0 1 1-1.32-1.28 1.32 1.32 0 0 1 1.32 1.28z"/><use xlink:href="#G" x="46.37" y="95.46"/><use xlink:href="#N" x="49.9"/></g><g class="C"><use xlink:href="#G" x="40.39" y="95.46"/><use xlink:href="#M" x="51.91" y="24.45"/></g><g class="B"><use xlink:href="#K" x="6.28" y="36.42"/><use xlink:href="#L" x="6.28" y="36.42"/><use xlink:href="#K" x="-5.33" y="36.42"/><use xlink:href="#K" x="-11.13" y="36.42"/><use xlink:href="#K" x="-56.1" y="36.42"/><use xlink:href="#K" x="-62.02" y="36.42"/><use xlink:href="#L" x="-11.13" y="36.42"/><use xlink:href="#L" x="-39.63" y="36.42"/></g><g class="D"><use xlink:href="#K" x="-22.74" y="36.42"/><use xlink:href="#K" x="-28.54" y="36.42"/><use xlink:href="#L" x="-34.5" y="36.42"/><use xlink:href="#L" x="-61" y="36.42"/></g><g class="C"><use xlink:href="#L" x="-28.54" y="36.42"/><use xlink:href="#K" x="-50.96" y="36.42"/></g><g class="B"><use xlink:href="#D" x="-6.04" y="119.41"/><use xlink:href="#C" x="5.57" y="119.41"/><circle cx="115.89" cy="438.25" r="1.32"/><use xlink:href="#D" x="11.36" y="119.41"/><circle cx="166.66" cy="438.25" r="1.32"/><circle cx="172.58" cy="438.25" r="1.32"/><use xlink:href="#C" x="22.97" y="119.41"/><use xlink:href="#C" x="51.47" y="119.41"/></g><g class="D"><use xlink:href="#I" x="-5.76" y="84.05"/><circle cx="139.1" cy="438.25" r="1.32"/><use xlink:href="#C" x="46.37" y="119.41"/><use xlink:href="#C" x="72.87" y="119.41"/></g><g class="C"><use xlink:href="#C" x="40.39" y="119.41"/><circle cx="161.52" cy="438.25" r="1.32"/></g><g class="B"><use xlink:href="#O"/><use xlink:href="#O" y="57.06"/><path d="M219.87 336.93h-1v-1.2a15.35 15.35 0 0 1 15.34-15.33h5.46v1h-5.46a14.36 14.36 0 0 0-14.34 14.33zm0 55.37h-1v-1.2a15.36 15.36 0 0 1 15.34-15.34h5.46v1h-5.46a14.37 14.37 0 0 0-14.34 14.34z"/></g><path d="M55.28 358.55l.36 19.06s-19.13 5.17-19.4 8.7l36.86 2.2.65-29.7z" class="C"/><path d="M67.1 376.2a1.51 1.51 0 0 1 1 1.74 1.46 1.46 0 0 1-1.72 1 1.6 1.6 0 0 1-1.06-1.85 1.5 1.5 0 0 1 1.9-.87m5.88 12.3l.07-3-34.94-1.42s-2.06 1.1-2.06 2.25z" class="G"/><g class="B"><path d="M55.05 377.4c0 .18.9.28 1.78.87s1.34 1.36 1.5 1.3-.1-1.1-1.16-1.8-2.18-.52-2.13-.35zm-3.9 1.6c0 .17.74.5 1.34 1.27s.76 1.58.94 1.58.3-1-.45-2-1.82-1.07-1.83-.85zm-2.27 4.55c.16 0 .42-.85 0-1.85s-1.3-1.4-1.37-1.26.44.7.8 1.5.4 1.58.58 1.6zm6.58-10.5c.07.16.9-.07 1.92 0s1.8.43 1.9.27-.66-.8-1.86-.9-2.06.47-1.97.62zm-.01-3.86a3.41 3.41 0 0 0 1.86 0 7.87 7.87 0 0 0 1.94-.56 8.26 8.26 0 0 0 1.07-.54 2.3 2.3 0 0 0 .57-.43.79.79 0 0 0 .1-1 1 1 0 0 0-.78-.43 2.38 2.38 0 0 0-.7.09 6.84 6.84 0 0 0-1.16.37 6.38 6.38 0 0 0-1.72 1.1c-.87.78-1.18 1.45-1.12 1.48s.5-.5 1.4-1.14a7.63 7.63 0 0 1 1.67-.9 6.69 6.69 0 0 1 1.07-.31c.4-.1.73-.1.82.08s0 .1 0 .2a2.29 2.29 0 0 1-.42.31 8.75 8.75 0 0 1-1 .54 10.41 10.41 0 0 1-1.81.66 13.4 13.4 0 0 0-1.78.47z"/><path d="M55.67 369.48a2.91 2.91 0 0 0 .52-1.78 6.11 6.11 0 0 0-.22-2 5.54 5.54 0 0 0-.45-1.13 1.52 1.52 0 0 0-1.16-.95.88.88 0 0 0-.79.5 2.86 2.86 0 0 0-.2.68 4.27 4.27 0 0 0 .74 3.17c.7 1 1.46 1.2 1.47 1.14s-.56-.45-1.1-1.38a4.35 4.35 0 0 1-.55-1.75 3.88 3.88 0 0 1 0-1.07c.06-.4.2-.7.36-.66s.5.3.64.6a6.73 6.73 0 0 1 .44 1 6.9 6.9 0 0 1 .33 1.86c.08 1.05-.12 1.73-.03 1.76z"/><path d="M167 242.45L76.2 259a26.68 26.68 0 0 0-21.38 19.87q-.16.7-.3 1.4c-3 15.37-3.16 85.63-3.16 85.63l24.65-.34 4.45-79.34 70-9.57a20.64 20.64 0 0 0 12.55-6.53c5.92-6.6 7.76-15.53 4-27.68z"/></g><path d="M65.57 321.3l1.67 19s-18.73 6.48-18.77 10l36.93-.3-1.4-29.7z" class="C"/><path d="M78.58 338.1a1.52 1.52 0 0 1 1.13 1.67 1.44 1.44 0 0 1-1.64 1.13 1.59 1.59 0 0 1-1.19-1.77 1.5 1.5 0 0 1 1.84-1M85.4 350l-.14-3-34.95 1s-1.86 1.5-1.84 2.3z" class="G"/><g class="B"><path d="M66.64 340.13c0 .18.92.2 1.83.75s1.43 1.26 1.6 1.18-.17-1.1-1.3-1.73-2.2-.33-2.14-.2zm-3.8 1.8c0 .18.76.45 1.4 1.18s.87 1.52 1 1.5.24-1.05-.58-1.94-1.84-.92-1.83-.75zm-1.95 4.75c.16 0 .37-.88-.15-1.84s-1.37-1.32-1.44-1.16.48.65.9 1.45.52 1.54.7 1.55zm5.83-10.92c.1.16.9-.13 1.92-.1s1.84.3 1.92.13-.7-.76-1.9-.76-2.02.6-1.93.74zm-.26-3.83a3.63 3.63 0 0 0 1.85-.11 8.45 8.45 0 0 0 1.9-.7 9.26 9.26 0 0 0 1-.61 2.23 2.23 0 0 0 .54-.47.78.78 0 0 0 0-1 1 1 0 0 0-.81-.37 2.29 2.29 0 0 0-.69.13 7.19 7.19 0 0 0-1.13.45 6.78 6.78 0 0 0-1.65 1.21c-.8.84-1.07 1.53-1 1.56s.48-.53 1.3-1.23a7.32 7.32 0 0 1 1.61-1 6.38 6.38 0 0 1 1-.38c.4-.12.72-.14.83 0s0 .1 0 .2a1.57 1.57 0 0 1-.4.34 8.32 8.32 0 0 1-.94.61 9.54 9.54 0 0 1-1.76.78 11.42 11.42 0 0 0-1.66.59z"/><path d="M66.7 332.17c.07 0 .4-.64.4-1.8a6.07 6.07 0 0 0-.36-2 5.83 5.83 0 0 0-.53-1.1 1.51 1.51 0 0 0-1.23-.87.85.85 0 0 0-.74.55 2.94 2.94 0 0 0-.16.69 4.28 4.28 0 0 0 .07 1.25 4.19 4.19 0 0 0 .89 1.87c.77.92 1.53 1.1 1.54 1s-.6-.4-1.2-1.3a4.23 4.23 0 0 1-.67-1.71 3.47 3.47 0 0 1 0-1.07c0-.4.16-.72.3-.68a1.36 1.36 0 0 1 .68.57 5.39 5.39 0 0 1 .51 1 6.75 6.75 0 0 1 .46 1.82c.08 1.08-.07 1.77.02 1.8z"/><path d="M165.47,242.87,80.94,224.23a17.65,17.65,0,0,0-8.25-.79h0a17.63,17.63,0,0,0-15,19.71L58.88,327l29.73-1.94-1.14-68.16Z"/></g><g class="E"><path d="M57.86 255.7a1.65 1.65 0 0 1 0 .36v1l.1 4 .3 15 .82 50.9-.27-.25 17.54-.92 12.66-.6-.25.26-1.35-54.28-.34-16.1-.07-4.34v-1.12a1.59 1.59 0 0 1 0-.38v.38l.05 1.12.16 4.34.5 16.08 1.52 54.53h-.26l-12.62.66-17.54.9h-.27V327l-.78-65.9v-5a2.63 2.63 0 0 1 .1-.39zm29.44.3c0-.14 7.07-1.8 15.84-3.68l16-3.18c.08.14-7.06 1.8-15.84 3.7s-15.96 3.32-16 3.17z"/><path d="M91.18 247.93a2.75 2.75 0 0 1 .27 1.41 7.74 7.74 0 0 1-2.84 6.1 2.86 2.86 0 0 1-1.24.7 13 13 0 0 0 2.89-3.64 12.63 12.63 0 0 0 .92-4.57z"/></g><path d="M149.87 154.55L130.7 153c-.12-2.24 0-10.9 0-10.9s-8-1.24-8.07-9.2 1.28-26.3 1.28-26.3h0a27.7 27.7 0 0 1 27.85 3.5l1.25.9z" class="H"/><path d="M130.72,142a18.54,18.54,0,0,0,10.4-3s-2.46,5.74-10.42,5Z" fill="#eb996e"/><path d="M152 119.3c.14-.06 5.48-1.62 5.3 3.83s-5.6 4.15-5.62 4 .3-7.83.3-7.83z" class="H"/><path d="M153.4 125.1l.26.14a.92.92 0 0 0 .71 0 2.35 2.35 0 0 0 1.15-2.07 3.19 3.19 0 0 0-.22-1.37 1.11 1.11 0 0 0-.69-.75.48.48 0 0 0-.57.24c-.08.15-.05.26-.08.27s-.1-.1-.06-.32a.57.57 0 0 1 .22-.34.73.73 0 0 1 .53-.12 1.33 1.33 0 0 1 1 .88 3.3 3.3 0 0 1 .28 1.53 2.47 2.47 0 0 1-1.46 2.31 1 1 0 0 1-.87-.17c-.2-.1-.2-.23-.2-.23z" fill="#eb996e"/><g class="B"><path d="M127.27 119a1.15 1.15 0 0 0 1.1 1.15 1.1 1.1 0 0 0 1.18-1 1.15 1.15 0 0 0-1.1-1.15 1.1 1.1 0 0 0-1.18 1zm-1.82-1.16c.14.15 1-.5 2.23-.5s2.13.62 2.26.47-.08-.34-.47-.62a3.11 3.11 0 0 0-1.81-.56 3 3 0 0 0-1.77.57c-.38.3-.5.56-.44.63zm14.03 1.56a1.13 1.13 0 0 0 1.1 1.14 1.08 1.08 0 0 0 1.17-1 1.14 1.14 0 0 0-1.1-1.15 1.08 1.08 0 0 0-1.17 1.01zm-1.98-1.33c.14.14 1-.5 2.23-.5s2.12.62 2.26.47-.08-.34-.47-.62a3.14 3.14 0 0 0-1.81-.56 3 3 0 0 0-1.78.57c-.37.3-.5.56-.43.63z"/><path d="M133.05 127.16a7.5 7.5 0 0 0-2-.36c-.3 0-.6-.1-.66-.3a1.63 1.63 0 0 1 .21-.93l.92-2.38a40.28 40.28 0 0 0 2.08-6.24A40.36 40.36 0 0 0 131 123l-.9 2.4a1.81 1.81 0 0 0-.16 1.23.8.8 0 0 0 .51.46 2.21 2.21 0 0 0 .53.07 8.65 8.65 0 0 0 2.06.01zm3.6.84c-.2 0-.2 1.32-1.34 2.27s-2.56.8-2.57 1 .32.26.92.27a3.3 3.3 0 0 0 2.14-.74 2.93 2.93 0 0 0 1-1.9c.1-.58-.06-.9-.15-.9zm.52-14.74c.12.34 1.35.18 2.8.35s2.6.57 2.8.27c.08-.15-.12-.46-.6-.78a4.68 4.68 0 0 0-2.07-.73 4.78 4.78 0 0 0-2.18.26c-.52.2-.8.47-.74.63zm-11.28 1.04c.22.28 1.06 0 2.08 0s1.87.18 2.07-.1c.1-.14-.05-.42-.42-.68a3 3 0 0 0-3.35.1c-.35.27-.47.55-.38.7zm-5.84-12.72a2.94 2.94 0 0 1 1.08-2.58 2.1 2.1 0 0 1 2.71.2 2.43 2.43 0 0 1 2.1-3c1.3-.08 2.4.9 3.66 1.24a5.88 5.88 0 0 0 3.73-.43l3.47-1.56a10.2 10.2 0 0 1 13.05 6 4.53 4.53 0 0 1 4.8 1.81 7.44 7.44 0 0 1 1.14 5.24 17 17 0 0 1-.91 3.57v.3c-.08 4.4-.57 9.54-2.45 9.56-3.26 0-2.48-6.1-2.48-6.1-4-1.55-2.5-7.54-3.5-8.45s-3.1-3-11.47 1.26a16.24 16.24 0 0 1-9.95 1.07h-.27a7.25 7.25 0 0 1-2.15-.91 4.22 4.22 0 0 1-1.77-2 2.31 2.31 0 0 1 .46-2.49 5.09 5.09 0 0 1-1.24-2.75z"/></g><g class="C"><path d="M187.42 211.15a10.91 10.91 0 0 1-5.56 12.49h-.08c-3.35 1.67-8 1.28-11.22-.17l-2.75-1.24.93 23c-13.56 8.83-51 2.16-58.3-13.47 0-4-1.66-36.37-1.66-36.37l-.7-35.94c6.37-6.27 9.78-8.15 18.66-9.2l3.43-.38a34 34 0 0 0 20.45 0h0c3.15.13 5.77 1.1 8.46 1.62 8.46 1.62 14.55 7.78 16.25 13.48 1.4 4.68 10.33 39.42 10.33 39.42z"/><path d="M117.23 152.6s-8.45 2.88-12 11c-2.3 5.3-5.72 30.83-5.72 30.83l-4.3 8.28a13.93 13.93 0 0 0-1.56 6.42v1.27a13.93 13.93 0 0 0 3.13 8.81h0a14 14 0 0 0 9.59 5.09c4.28.38 9.47.55 10.57-.7 2-2.23 4.9-8.23 4.9-8.23l-12.5-6.64 5.38-10z"/></g><path d="M163.16 202.1c.15 0 .28-5.35.28-11.94s-.13-11.94-.28-11.94-.27 5.34-.27 11.94.1 11.94.27 11.94zm-48.8-9.05a42.55 42.55 0 0 0 .28-6.83 42.55 42.55 0 0 0-.28-6.83 43.32 43.32 0 0 0-.27 6.83 43.32 43.32 0 0 0 .27 6.83z" class="B"/><path d="M168.68 243.6c1-.16 1.55 1.33 1 2.18a4.94 4.94 0 0 1-2.53 1.56c-3.2 1.27-5.82 3.64-8.85 5.3-6.44 3.5-14.2 3.47-21.48 2.57a40.48 40.48 0 0 1-12.05-3 18.38 18.38 0 0 1-9-8.25c-1-2.05-1.53-4.35-2.83-6.23-.85-1.24-2-2.24-2.92-3.44a5.07 5.07 0 0 1-1.15-4.21c.4-1.45 2.22-2.5 3.5-1.7" class="C"/><path d="M142.7 251.52a23.09 23.09 0 0 1-13.18-6.31 44.21 44.21 0 0 1-8.72-12c-.32-.6-1-1.3-1.55-.88a1.15 1.15 0 0 0-.32.57 11.83 11.83 0 0 0 2.39 10.48 19.26 19.26 0 0 0 9.26 6 54.37 54.37 0 0 0 11 2" opacity=".3"/><path d="M172.1 159.7s0 .06-.05.16a3.51 3.51 0 0 1-.24.46 6 6 0 0 1-1.29 1.51 8 8 0 0 1-2.77 1.48 10.29 10.29 0 0 1-4.15.3 21.33 21.33 0 0 1-4.87-1.28l-5.35-2a22 22 0 0 0-12.8-.19 33.37 33.37 0 0 0-6.19 2.69 19.18 19.18 0 0 1-6 2.15 12.44 12.44 0 0 1-5.74-.73 37 37 0 0 1-4.57-2.08 38.37 38.37 0 0 0-6.55-3c-1.63-.5-2.58-.55-2.57-.6a3.48 3.48 0 0 1 .68 0 12.12 12.12 0 0 1 2 .37 36.09 36.09 0 0 1 6.66 2.86 37.19 37.19 0 0 0 4.54 2 12.09 12.09 0 0 0 5.54.67 18.79 18.79 0 0 0 5.85-2.14 33.54 33.54 0 0 1 6.27-2.73 22.29 22.29 0 0 1 13.1.24c1.93.64 3.68 1.44 5.35 2.08a21.07 21.07 0 0 0 4.76 1.31 10.16 10.16 0 0 0 4-.21 7.91 7.91 0 0 0 2.73-1.36 7.41 7.41 0 0 0 1.66-1.95zm-9.46 24.4c0 .06-.7.1-1.93.37a45.66 45.66 0 0 0-5.18 1.45 40.48 40.48 0 0 1-7.77 2 14.09 14.09 0 0 1-4.77-.24 18.91 18.91 0 0 1-4.73-1.95c-3-1.7-5.78-3.6-8.64-4.45a18.62 18.62 0 0 0-7.82-.41 41.23 41.23 0 0 0-5.24 1.15l-1.4.4a2.45 2.45 0 0 1-.5.11s.15-.1.46-.2l1.4-.5a34.83 34.83 0 0 1 5.24-1.31 18.46 18.46 0 0 1 8 .31c3 .85 5.75 2.78 8.75 4.46a19.06 19.06 0 0 0 4.6 1.9 13.59 13.59 0 0 0 4.6.26 41.31 41.31 0 0 0 7.71-1.87 40 40 0 0 1 5.25-1.29 10.52 10.52 0 0 1 1.46-.16 1.51 1.51 0 0 1 .53-.02zm20.66 10.98a10.1 10.1 0 0 0-3 .11 13.58 13.58 0 0 0-3.1 1.15l-3.7 1.87a10.15 10.15 0 0 1-4.07 1 9.43 9.43 0 0 1-3.39-.56 8.38 8.38 0 0 1-2-1.07c-.44-.32-.65-.54-.63-.56a20.79 20.79 0 0 0 2.78 1.28 9.42 9.42 0 0 0 3.25.43 10.05 10.05 0 0 0 3.88-1l3.7-1.83a13 13 0 0 1 3.24-1.07 6.55 6.55 0 0 1 2.31 0 1.94 1.94 0 0 1 .73.25zm-69.08-8.16a7.08 7.08 0 0 0-2-.36 8.31 8.31 0 0 0-2.2.35 27.88 27.88 0 0 1-2.74.7 6.54 6.54 0 0 1-5-1.18 3.8 3.8 0 0 1-1.41-1.61c.08-.06.55.62 1.62 1.3a6.65 6.65 0 0 0 4.7 1c1-.16 1.85-.46 2.7-.65a8 8 0 0 1 2.33-.26 2.79 2.79 0 0 1 2 .71zm53.18 40.15c0 .06-.84-.17-2.38-.24a18.7 18.7 0 0 0-6.42 1 65.31 65.31 0 0 0-8.89 3.88 51.24 51.24 0 0 1-5.32 2.27 21.22 21.22 0 0 1-6.09 1.27 14.08 14.08 0 0 1-6.15-1.09 28.28 28.28 0 0 1-5-2.89l-4.3-2.92a19.9 19.9 0 0 0-4-2 11.4 11.4 0 0 0-6.37-.57 13.76 13.76 0 0 0-2.23.87 6.17 6.17 0 0 1 2.18-1.06 11.25 11.25 0 0 1 6.54.41 20 20 0 0 1 4.14 1.95l4.34 2.9a29.21 29.21 0 0 0 4.95 2.81 13.64 13.64 0 0 0 5.92 1c4.2-.22 7.94-1.9 11.23-3.45a60.77 60.77 0 0 1 9-3.8 22 22 0 0 1 3.68-.78 15.57 15.57 0 0 1 2.85-.06 9.79 9.79 0 0 1 1.77.27 2.21 2.21 0 0 1 .55.23zM119.1 238a9.36 9.36 0 0 0-3.27-1.14 9.18 9.18 0 0 0-3.41.63c0-.05.25-.36.86-.67a5 5 0 0 1 2.59-.47 5.1 5.1 0 0 1 2.48.86c.56.37.8.72.75.8zm42.9 12.43c-.06 0-.1-.48-.46-1.27a7.15 7.15 0 0 0-2.32-2.76 10 10 0 0 0-5-1.81 16.28 16.28 0 0 0-6.51 1.13c-2.24.8-4.3 1.82-6.2 2.63a27 27 0 0 1-5.29 1.71 13.28 13.28 0 0 1-3.75.22 9.81 9.81 0 0 1-1-.17c-.22-.05-.34-.1-.34-.1a16.46 16.46 0 0 0 5-.3 29.45 29.45 0 0 0 5.18-1.79l6.22-2.68a16.13 16.13 0 0 1 6.73-1.12 10.07 10.07 0 0 1 5.21 2 6.82 6.82 0 0 1 2.28 3 4.55 4.55 0 0 1 .26 1c0 .2.05.32 0 .32z" class="F"/><path d="M119 239.24c.05 0 .24.7.87 1.9a14.57 14.57 0 0 0 3.57 4.3c3.62 3.15 10.22 5.12 17.46 5.63A30.09 30.09 0 0 0 151 250a50.68 50.68 0 0 0 7.83-3c2.17-1 3.9-1.93 5.08-2.54l1.38-.7a2.49 2.49 0 0 1 .5-.22s-.14.12-.45.3l-1.33.78c-1.17.67-2.86 1.63-5 2.7a47.34 47.34 0 0 1-7.86 3.14 30 30 0 0 1-10.3 1.16 43.61 43.61 0 0 1-10.2-1.88 21.1 21.1 0 0 1-7.47-4 13.88 13.88 0 0 1-3.51-4.49 9.05 9.05 0 0 1-.57-1.45 1.85 1.85 0 0 1-.1-.57z" class="B"/><path d="M167.82 222.57c-2.27.35-4.68-.86-6.8-1.8s-4.66-1.6-6.6-.37a22.39 22.39 0 0 0-2.46 2.32c-2.3 2-5.7 1.94-8.7 1.6-7.14-.82-14.1-2.73-21-4.64-.68-.2-3.5-1.25-3.5-1.25l3.1-.7 2.84-.9 2.17-.47 21.35 3.27 1.46-1.58-4.84-5.87 23 10.08" opacity=".3"/><path d="M121.5 195.9l.65-.5a15 15 0 0 1 11.77-2.72h0a20.65 20.65 0 0 1 9.17 4.3l5.12 4.22-5.45 9.8-3.75-5.2s-3.46 4.7-4.07 4.2a8 8 0 0 1-1.36-2l2.47-3.46-5.93 1.24-8.66-4 3.7-4.7-3.7 1.23z" class="H"/><g class="B"><path d="M168.47 222.57a2.48 2.48 0 0 0-.48-.27l-1.43-.7-5.37-2.5-18.33-8.37.13.38 3.5-6.28 2.17-3.9-.26.13 21.9 2.16 6.5.58 1.76.13a3 3 0 0 0 .62 0 3.11 3.11 0 0 0-.61-.11l-1.75-.23-6.5-.75-22.07-2.33-.1.15-5.82 10.44.26.12 18.4 8.2 5.43 2.37 1.47.6a2.27 2.27 0 0 0 .52.18zm-56.77-12.5a3.14 3.14 0 0 0-.91-.14 8.74 8.74 0 0 0-2.53.15 3 3 0 0 0-1.58.9 4.21 4.21 0 0 0-.83 1.9 4.5 4.5 0 0 0 .21 2.28 4.27 4.27 0 0 0 1.51 1.94 11.3 11.3 0 0 0 4.33 1.55 20.35 20.35 0 0 0 3.71.36 6.7 6.7 0 0 0 3.37-.59 17.38 17.38 0 0 1-3.36.2 22.35 22.35 0 0 1-3.62-.47 11.41 11.41 0 0 1-4.11-1.49 3.89 3.89 0 0 1-.86-5.39 2.74 2.74 0 0 1 1.34-.82 10.32 10.32 0 0 1 2.41-.31 3.48 3.48 0 0 0 .92-.07zm-4.97 14.46a6.06 6.06 0 0 0 2.14.26 13.86 13.86 0 0 0 5.17-.86 11.19 11.19 0 0 0 2.57-1.37 6.16 6.16 0 0 0 1.59-1.79 4.85 4.85 0 0 0 .77-2c-.1 0-.37.75-1.1 1.83a6.14 6.14 0 0 1-1.56 1.59 11.9 11.9 0 0 1-2.47 1.27 16 16 0 0 1-5 1 13.43 13.43 0 0 0-2.11.07zm-5.98-25.9a10.17 10.17 0 0 0 1.48 1.78l3.83 4 3.94 3.93a10 10 0 0 0 1.75 1.52 9.59 9.59 0 0 0-1.47-1.79l-3.83-4a52.39 52.39 0 0 0-5.7-5.44z"/><path d="M130.63 195l19.03 23.06-1.46 1.58-30.9-4.7-15.3-23.05 1.42-1.28 27.2 4.4z"/></g><path d="M110.44 201.1h0a2.93 2.93 0 0 1 2.74 1.87c.46 1.2 1.13 2.6 1.87 3 1.38.75 3.75 1.35 5 .74s6.24-5.1 7.1-4.6 1.62 1.62.75 2.62-5.5 4-4.62 5 10.6-3.4 12.1-3 2.37 1.3 1.5 1.9-7.48 3.1-7.86 4c0 0 10-2.62 10.36-2s1 1.62 0 2-9.6 2.62-10.36 3a17.89 17.89 0 0 1-3.85 1.13 41.6 41.6 0 0 0-4 1.27 8.85 8.85 0 0 1-6.21-.16l-1-.42a4 4 0 0 1-2.46-3.9l.2-3.4-1.1-2.8z" class="H"/><path d="M102 192a2.25 2.25 0 0 0 .57.14l1.66.3 6.08 1 14.34 2.2a10.22 10.22 0 0 1 5.17 2.09 34.82 34.82 0 0 1 3.76 4.33l3.38 4.2 5.75 7.12 3.9 4.76 1.08 1.28a3.43 3.43 0 0 0 .41.43 2.85 2.85 0 0 0-.32-.5l-1-1.34-3.8-4.9-5.65-7.2-3.35-4.23a33.76 33.76 0 0 0-3.83-4.41 10.6 10.6 0 0 0-5.43-2.21l-5.35-.78-9.07-1.28-6.1-.8-1.67-.2a2.21 2.21 0 0 0-.54 0z" class="E"/><path d="M116.4,197a2.55,2.55,0,0,1,.86.7.89.89,0,0,1,0,1,1,1,0,0,1-1.28,0,1.32,1.32,0,0,1-.49-.74.88.88,0,0,1,.26-.83.69.69,0,0,1,.84,0" fill="#fafafa"/><path d="M111.18 209.43c-3.46-3.22-6.3-6.5-9.76-9.7-.7-.66-1.47-1.64-1-2.48a1.44 1.44 0 0 1 1.41-.62 3.62 3.62 0 0 1 1.5.6c4.17 2.57 5.7 7.9 7.85 12.2" opacity=".3"/><path d="M166.5 221.24s0-.3.22-.77a6.57 6.57 0 0 1 1.3-1.71 9.1 9.1 0 0 0 2.91-6 19.15 19.15 0 0 0-.78-6.8 20.63 20.63 0 0 1-.71-2.81 13.58 13.58 0 0 1 1.06 2.7 17.16 17.16 0 0 1 1 7 9.87 9.87 0 0 1-1.14 3.75 9.38 9.38 0 0 1-2 2.45 8.63 8.63 0 0 0-1.39 1.55 7.49 7.49 0 0 1-.47.64zm-10.98-19.1a4.87 4.87 0 0 1 .21 2.1 10.19 10.19 0 0 1-1.53 4.88 10.3 10.3 0 0 1-3.7 3.53 4.93 4.93 0 0 1-2 .74c0-.08.72-.36 1.8-1.06a11 11 0 0 0 5.05-8.12l.18-2.07zM107 206.17s.12.24.12.7a4.17 4.17 0 0 1-.47 1.91 4.52 4.52 0 0 1-2.1 2 10.39 10.39 0 0 1-3.5.54 5.85 5.85 0 0 0-3 1.27 6.74 6.74 0 0 0-1.73 2.12 10.86 10.86 0 0 0-.76 2.45 1.67 1.67 0 0 1 0-.72 5.3 5.3 0 0 1 .48-1.89 6.52 6.52 0 0 1 1.76-2.33 6 6 0 0 1 3.28-1.41 11.1 11.1 0 0 0 3.35-.47 4.4 4.4 0 0 0 2-1.78 6 6 0 0 0 .57-2.4z" class="F"/><path d="M454 89.73a15 15 0 0 1 9.37.12 7.76 7.76 0 0 1 4.28 2.65c1 1.4.88 3.65-.57 4.55a4.37 4.37 0 0 1-3 .34c-2.43-.36-5.07-1.15-7.22 0-1.22.7-2.15 2-3.53 2.2a3.16 3.16 0 0 1-3.25-2 5.41 5.41 0 0 1 .15-4 6.09 6.09 0 0 1 3.77-3.87zm-4.75-13.26c1.38 2.68 4.82 2.32 6.57 1s2.7-3.36 3.56-5.35c2-4.53 4-9.3 3.67-14.24a8.07 8.07 0 0 0-1.32-4.18 4.25 4.25 0 0 0-3.8-1.87c-1.74.22-3 1.73-4 3.2a34.84 34.84 0 0 0-5.41 14.34 12.09 12.09 0 0 0 .7 7.08m-5.15 2.9a9 9 0 0 0 2.49-8 16 16 0 0 0-3.91-7.69 26.26 26.26 0 0 0-8-6.31 9.42 9.42 0 0 0-3.82-1.19 4.14 4.14 0 0 0-3.54 1.54c-1.16 1.63-.56 3.86.15 5.72a66.8 66.8 0 0 0 4.56 9.45c1.4 2.44 3.08 4.88 5.55 6.23s5.2 1.6 6.83 0" class="C"/><g class="B"><path d="M444.15 113.38a6.5 6.5 0 0 0 .3-1.1l.7-3a42.72 42.72 0 0 1 1.28-4.36 34.9 34.9 0 0 1 2.33-5 19.82 19.82 0 0 1 3.32-4.39 10 10 0 0 1 3.78-2.36 9.65 9.65 0 0 1 3-.51 5 5 0 0 0 1.13 0 5.3 5.3 0 0 0-1.12-.17 8.61 8.61 0 0 0-3.09.38 10.09 10.09 0 0 0-4 2.36 19 19 0 0 0-3.43 4.47 31.43 31.43 0 0 0-2.33 5.13 35.79 35.79 0 0 0-1.2 4.43l-.57 3a5.2 5.2 0 0 0-.11 1.12z"/><path d="M444.67 111.07a2.06 2.06 0 0 0 .1-.51l.2-1.48.8-5.4c.73-4.57 1.8-9.44 3.5-16.28 1.6-6.44 3.6-13.9 5.3-18.7l1-2.93a28.39 28.39 0 0 1 .84-2.2l.54-1.4a2.42 2.42 0 0 0 .16-.5 1.81 1.81 0 0 0-.25.46l-.62 1.36a45.95 45.95 0 0 0-.91 2.17l-1.12 2.92A167.7 167.7 0 0 0 449 85.88c-1.7 6.86-2.9 13.15-3.55 17.74a89.42 89.42 0 0 0-.65 5.44l-.1 1.5a2.05 2.05 0 0 0-.02.52z"/><path d="M446.35 98.85a10.69 10.69 0 0 0 .2-1.54c.08-1 .13-2.45.1-4.24a54.4 54.4 0 0 0-.54-6.27 50.29 50.29 0 0 0-1.57-7.55 38.62 38.62 0 0 0-5.9-12.64 19.23 19.23 0 0 0-1.54-1.88l-.66-.73-.62-.56a9 9 0 0 0-1.19-1 46.7 46.7 0 0 1 3.74 4.37 40.69 40.69 0 0 1 5.72 12.58 56.07 56.07 0 0 1 1.6 7.48 60.58 60.58 0 0 1 .63 6.22l.06 4.22a10.8 10.8 0 0 0-.02 1.54z"/></g><path d="M72.86 106.84h-1.63l-3.54-4.93v-3.24s-2.5-.16-2.2 4.08 0 3.17 0 3.17-5.33 0-5.77.48-.47 5.63-.52 8.5a3.11 3.11 0 0 0 2.2 3.13 2.24 2.24 0 0 0 .57.08c1.33 0 8.12-1.08 8.12-1.08h2.8zm4.64-.9l-1 11.1h-2.78v-10.88l3.78-.23z" class="C"/><path d="M97.87 133.32h-.26l-.8-.08-3.1-.3-11.83-1.24-.13-.14.23.12a27.62 27.62 0 0 1-13.82 4.85 28 28 0 0 1-17.55-4.78 27.66 27.66 0 0 1-11.37-29 28 28 0 0 1 5.11-10.83 27.7 27.7 0 0 1 40-4 27 27 0 0 1 6.08 7.44 29 29 0 0 1 3 8.25l.3 2a19.39 19.39 0 0 1 .14 2 22.11 22.11 0 0 1-.07 3.83 27.75 27.75 0 0 1-1.5 6.72V118l4.1 11.3 1.33 3.76.08.25a1.65 1.65 0 0 1-.11-.27l-.3-.78-1.14-3-4.22-11.14a27 27 0 0 0 1.44-6.65 22.61 22.61 0 0 0 0-3.78c-.06-.65 0-1.32-.15-2s-.2-1.33-.32-2a28.26 28.26 0 0 0-3-8.12 26.54 26.54 0 0 0-6-7.31 27.29 27.29 0 0 0-44.35 14.63 27.54 27.54 0 0 0-.17 11.32 27.23 27.23 0 0 0 11.3 17.21 27.75 27.75 0 0 0 17.26 4.76 27.33 27.33 0 0 0 13.68-4.7l.23.12-.13-.15 14.85 1.8.82.1z" class="B"/><path d="M239.04 88.2h209.38v314.05H239.04z" class="D"/><path d="M239.04 133.15h209.38v51.5H239.04zm0 109.55h209.38v51.5H239.04z" class="G"/><circle cx="265.83" cy="159.12" r="10.64" class="C"/><path d="M271.12 156c.3.3-1.78 2.8-4.64 5.57l-1.7 1.58-.56.5-.47-.5c-1.95-2.08-3.2-3.73-2.95-4s1.9 1 4 2.93h-1l1.63-1.64c2.83-2.8 5.4-4.8 5.7-4.43z" fill="#fff"/><g class="B"><use xlink:href="#P"/><use xlink:href="#Q"/><use xlink:href="#R"/><path d="M324.13 150.8v.9h-.2a1.54 1.54 0 0 0-1.63 1.75V156h-.94v-5.17h.9v.87a2 2 0 0 1 1.88-.91zm5.94.03L327.8 156h-1l-2.26-5.17h1l1.77 4.15 1.82-4.15z"/><use xlink:href="#S"/><path d="M339.55 150.8v.9h-.2a1.55 1.55 0 0 0-1.63 1.75V156h-.93v-5.17h.9v.87a2 2 0 0 1 1.88-.91zm5.55-1.62V156h-1v-6h-1.54v-.85zm60.53 66.42v5.76H405l-3.46-4.3v4.3h-.82v-5.76h.67l3.47 4.3v-4.3zm1.27 2.9a3.07 3.07 0 1 1 3.07 2.95 2.93 2.93 0 0 1-3.07-2.95zm5.3 0a2.25 2.25 0 1 0-2.24 2.22 2.17 2.17 0 0 0 2.24-2.22zm5.94 2.87l-1.24-1.77h-1.8v1.75h-.83v-5.76h2.25c1.5 0 2.4.75 2.4 2a1.82 1.82 0 0 1-1.27 1.82l1.37 1.93zm0-3.75c0-.83-.55-1.3-1.6-1.3h-1.4v2.6h1.4c1.02 0 1.57-.48 1.57-1.3zm7.48 3.75v-4.2l-2.08 3.5h-.38l-2.08-3.47v4.17h-.8v-5.76h.72l2.4 4 2.37-4h.67v5.76zm6.2-1.44h-3.07l-.63 1.44h-.85l2.6-5.76h.82l2.62 5.76h-.87zm-.3-.66l-1.24-2.82-1.3 2.82zm2.66-3.67h.82v5h3.12v.7h-3.94z"/><path d="M405.63 163.17v5.77H405l-3.46-4.3v4.3h-.82v-5.77h.67l3.47 4.3v-4.3zm1.27 2.88A3.07 3.07 0 1 1 410 169a2.94 2.94 0 0 1-3.11-2.95zm5.3 0a2.25 2.25 0 1 0-2.24 2.22 2.17 2.17 0 0 0 2.24-2.22zm5.94 2.9l-1.24-1.77h-1.8v1.76h-.83v-5.77h2.25c1.5 0 2.4.76 2.4 2a1.82 1.82 0 0 1-1.27 1.82l1.37 1.94zm0-3.76c0-.82-.55-1.3-1.6-1.3h-1.4v2.6h1.4c1.02 0 1.57-.48 1.57-1.3zm7.48 3.76v-4.2l-2.08 3.5h-.38l-2.08-3.48v4.18h-.8v-5.77h.72l2.4 4.05 2.37-4.05h.67v5.77zm6.2-1.44h-3.07l-.63 1.44h-.85l2.6-5.77h.82l2.62 5.77h-.87zm-.3-.66L430.3 164l-1.3 2.84zm2.66-3.67h.82v5.05h3.12v.72h-3.94z"/></g><circle cx="265.14" cy="210.92" r="10.64" transform="matrix(.731711 -.681615 .681615 .731711 -72.63 237.32)" class="C"/><path d="M270.44 207.75c.3.3-1.78 2.8-4.64 5.57l-1.7 1.58-.56.5-.48-.5c-1.94-2.08-3.18-3.73-2.94-4s1.9 1 4 2.92h-1l1.64-1.64c2.8-2.74 5.38-4.73 5.68-4.42z" fill="#fff"/><g class="B"><path d="M287.12 221.2a87.43 87.43 0 0 1-.26-9.63 87.69 87.69 0 0 1 .26-9.64 90.78 90.78 0 0 1 .26 9.64 90.5 90.5 0 0 1-.26 9.63z"/><use xlink:href="#Q" y="51.78"/><use xlink:href="#R" y="51.75"/><path d="M324.13 202.54v.9h-.2a1.54 1.54 0 0 0-1.63 1.75v2.57h-.94v-5.17h.9v.87a2 2 0 0 1 1.88-.92zm5.94.04l-2.26 5.17h-1l-2.26-5.17h1l1.77 4.15 1.82-4.15z"/><use xlink:href="#S" y="51.75"/><path d="M339.55 202.54v.9h-.2a1.55 1.55 0 0 0-1.63 1.75v2.57h-.93v-5.17h.9v.87a2 2 0 0 1 1.88-.92zm8.23 4.36v.85h-4.9v-.66l2.78-2.68c.72-.7.86-1.13.86-1.56 0-.7-.5-1.13-1.45-1.13a2.15 2.15 0 0 0-1.75.74l-.66-.58a3.16 3.16 0 0 1 2.5-1c1.42 0 2.33.73 2.33 1.9a2.77 2.77 0 0 1-1.12 2.15l-2.08 2z"/></g><path d="M307.75 214.2h55.76v7.2h-55.76z" class="C"/><path d="M406 269.56h.82v5.05h3.12v.7H406zm4.86 0h.83v5.76h-.83zm6.54 2.84h.8v2.25a3.41 3.41 0 0 1-2.18.73 3 3 0 1 1 2.23-5l-.5.5a2.28 2.28 0 0 0-1.67-.67 2.22 2.22 0 1 0 0 4.44 2.45 2.45 0 0 0 1.35-.37zm7.34-2.84v5.76h-.82v-2.57h-3.32v2.57h-.82v-5.76h.82V272h3.32v-2.48zm2.88.7h-2v-.7h4.77v.7h-2v5.05h-.8z" class="B"/><circle cx="265.83" cy="268.46" r="10.64" transform="matrix(.707107 -.707107 .707107 .707107 -111.97 266.6)" class="C"/><path d="M271.12 265.3c.3.3-1.78 2.8-4.64 5.56l-1.7 1.58-.56.5-.47-.5c-1.95-2.1-3.2-3.74-2.95-4s1.9 1 4 2.93h-1l1.63-1.64c2.83-2.73 5.4-4.73 5.7-4.43z" fill="#fff"/><g class="B"><use xlink:href="#T"/><path d="M308.84 263.5l.36-.77a3.5 3.5 0 0 0 2.25.79c1.18 0 1.7-.45 1.7-1 0-1.67-4.14-.6-4.14-3.15 0-1.05.82-1.95 2.62-1.95a4 4 0 0 1 2.19.61l-.32.78a3.55 3.55 0 0 0-1.87-.56c-1.16 0-1.66.5-1.66 1.08 0 1.67 4.13.63 4.13 3.13 0 1.05-.84 1.94-2.64 1.94a4.07 4.07 0 0 1-2.61-.9zM320 262h-4.2a1.75 1.75 0 0 0 1.87 1.51 1.91 1.91 0 0 0 1.49-.62l.52.6a2.83 2.83 0 0 1-4.82-1.81 2.54 2.54 0 0 1 2.6-2.63 2.49 2.49 0 0 1 2.55 2.66 2.64 2.64 0 0 1-.02.28zm-4.2-.67h3.32a1.67 1.67 0 0 0-3.32 0zm8.33-2.26v.93h-.2a1.54 1.54 0 0 0-1.63 1.74v2.58h-.94v-5.17h.9v.85a2 2 0 0 1 1.88-.93zm5.94.05l-2.26 5.17h-1l-2.26-5.17h1l1.77 4.14 1.82-4.14zm5.4 2.88h-4.2a1.75 1.75 0 0 0 1.88 1.51 1.93 1.93 0 0 0 1.49-.62l.52.6a2.61 2.61 0 0 1-2 .83 2.59 2.59 0 0 1-2.78-2.64 2.53 2.53 0 0 1 2.59-2.63 2.49 2.49 0 0 1 2.56 2.66 2.64 2.64 0 0 1-.06.28zm-4.2-.67h3.32a1.67 1.67 0 0 0-3.32 0zm8.3-2.26v.93h-.2a1.54 1.54 0 0 0-1.63 1.74v2.58h-.93v-5.17h.9v.85a2 2 0 0 1 1.88-.93z"/><use xlink:href="#U"/></g><path d="M308.44 271.73h25.87v7.2h-25.87z" class="C"/><path d="M400.2 326.1a3.07 3.07 0 1 1 3.07 3 2.93 2.93 0 0 1-3.07-3zm5.3 0a2.25 2.25 0 1 0-2.24 2.22 2.17 2.17 0 0 0 2.24-2.22zm2.92-2.17v2h2.9v.7h-2.9V329h-.83v-5.77h4.07v.72zm5.23 0v2h2.9v.7h-2.9V329h-.83v-5.77h4.07v.72zm4.4-.73h.82v5.05H422v.74h-3.94zm4.94 0h.83v5.8H423zm7.47 0v5.8h-.68l-3.46-4.3v4.3h-.82v-5.77h.67l3.46 4.3v-4.3zm5.9 5.06v.74h-4.18v-5.77h4.07v.72H433v1.77h2.9v.7H433v1.86z" class="B"/><path d="M276.36 321.46a10.63 10.63 0 1 1-9.09-12 10.63 10.63 0 0 1 9.09 12z" class="E"/><g class="B"><use xlink:href="#P" x="-0.03" y="161.12"/><path d="M308.8 316.35l.36-.76a3.5 3.5 0 0 0 2.25.79c1.18 0 1.7-.46 1.7-1.05 0-1.67-4.14-.62-4.14-3.15 0-1.05.82-1.95 2.62-1.95a4 4 0 0 1 2.19.6l-.32.78a3.54 3.54 0 0 0-1.87-.55c-1.16 0-1.66.48-1.66 1.08 0 1.67 4.13.62 4.13 3.13 0 1-.84 1.94-2.64 1.94a4 4 0 0 1-2.61-.86zm11.2-1.5h-4.2a1.75 1.75 0 0 0 1.87 1.51 1.91 1.91 0 0 0 1.49-.62l.52.6a2.82 2.82 0 0 1-4.82-1.8 2.54 2.54 0 0 1 2.6-2.64 2.5 2.5 0 0 1 2.55 2.67c-.02.07-.02.2-.02.28zm-4.2-.67h3.32a1.67 1.67 0 0 0-3.32 0zm8.3-2.3v.9h-.2a1.54 1.54 0 0 0-1.63 1.75v2.57h-.94V312h.9v.87a2 2 0 0 1 1.88-.96zm5.9.1l-2.26 5.17h-1l-2.18-5.17h1l1.77 4.15 1.82-4.15zm5.43 2.86h-4.2a1.75 1.75 0 0 0 1.88 1.51 1.93 1.93 0 0 0 1.49-.62l.5.6a2.55 2.55 0 0 1-2 .84 2.59 2.59 0 0 1-2.78-2.64 2.54 2.54 0 0 1 2.59-2.64 2.5 2.5 0 0 1 2.56 2.67c-.03.07-.04.2-.05.28zm-4.2-.67h3.32a1.67 1.67 0 0 0-3.32 0zm8.3-2.3v.9h-.2a1.55 1.55 0 0 0-1.63 1.75v2.57h-.93V312h.9v.87a2 2 0 0 1 1.88-.96zm9.38 3.55h-1.3v1.68h-.94v-1.68h-3.8v-.68l3.5-4.46h1.06l-3.35 4.3h2.62v-1.5h.92v1.5h1.3zm35.25 15.07v-1.78l-.05-5 .1.1-75.74.16.26-.26v6.8l-.26-.26 53.7.1 16.1.08h5.93a1.39 1.39 0 0 1-.37 0h-5.43l-16.05.07-54.15.1v-7.06c-.23.23.3-.32.26-.26h0l75.84.16v.1l-.06 5.1v1.3a3 3 0 0 1-.09.53z"/></g><g fill="#fff"><path d="M269.25 316.52c.3.3-1 2.1-2.86 4.05s-3.68 3.26-4 2.95 1-2.1 2.87-4 3.68-3.3 4-3z"/><path d="M269.33 323.44c-.3.3-2.1-1-4.05-2.86s-3.26-3.68-3-4 2.12 1 4.05 2.86 3.3 3.7 3 4z"/></g><path d="M308.44 162.66h64.37v7h-64.37z" class="C"/><path d="M384.18 169.67v-1.8l-.05-5 .1.1-75.74.16.26-.26v6.8l-.26-.26 75.33.17a1.87 1.87 0 0 1 .4 0h-5.8l-16.05.07-54.15.1v-7.07l.26-.26 75.84.16v.1l-.06 5.1v1.3a3.42 3.42 0 0 1-.09.55zm-.68 51.53a4.13 4.13 0 0 1 0-.46q0-.48 0-1.32l-.06-5 .1.1-75.74.16.26-.26v6.8l-.26-.26 53.7.1 16.1.08h5.93a1.46 1.46 0 0 1-.37 0h-5.43l-16.05.07-54.15.1v-7.06c-.23.23.32-.32.27-.26h0l75.84.15v.1l-.06 5.1v1.3c0 .3-.1.55-.1.54zm.68 57.54v-1.8l-.05-5 .1.1-75.74.15.26-.26v6.82l-.26-.26 75.33.17a1.87 1.87 0 0 1 .4 0h-5.8l-16.05.08-54.15.1v-7.08l.26-.26 75.84.16v.1l-.06 5.1v1.3a3.42 3.42 0 0 1-.09.54z" class="B"/><path d="M239.04 350.74h209.38v51.5H239.04z" class="G"/><path d="M406 381h.82v5.05h3.12v.72H406zm4.86 0h.83v5.77h-.83zm6.54 2.85h.8v2.25a3.36 3.36 0 0 1-2.18.73 3 3 0 1 1 2.23-5l-.5.5a2.27 2.27 0 0 0-1.67-.66 2.22 2.22 0 1 0 0 4.43 2.45 2.45 0 0 0 1.35-.37zm7.34-2.85v5.77h-.82v-2.57h-3.32v2.57h-.82V381h.82v2.48h3.32V381zm2.88.72h-2V381h4.77v.72h-2v5h-.8z" class="B"/><circle cx="265.83" cy="376.49" r="10.64" class="C"/><path d="M271.12 373.33c.3.3-1.78 2.8-4.64 5.56l-1.7 1.58-.56.5-.47-.5c-1.95-2.1-3.2-3.74-2.95-4s1.9 1 4 2.93h-1l1.63-1.64c2.83-2.76 5.4-4.76 5.7-4.43z" fill="#fff"/><g class="B"><use xlink:href="#T" y="108.03"/><path d="M308.84 371.54l.36-.77a3.5 3.5 0 0 0 2.25.79c1.18 0 1.7-.45 1.7-1.05 0-1.66-4.14-.6-4.14-3.15 0-1.05.82-1.95 2.62-1.95a4 4 0 0 1 2.19.61l-.32.78a3.55 3.55 0 0 0-1.87-.56c-1.16 0-1.66.5-1.66 1.08 0 1.67 4.13.63 4.13 3.13 0 1.05-.84 1.94-2.64 1.94a4.07 4.07 0 0 1-2.61-.85zM320 370h-4.2a1.76 1.76 0 0 0 1.87 1.52 1.92 1.92 0 0 0 1.49-.63l.52.6a2.83 2.83 0 0 1-4.82-1.81 2.54 2.54 0 0 1 2.6-2.63 2.49 2.49 0 0 1 2.55 2.66 2.64 2.64 0 0 1-.02.28zm-4.2-.67h3.32a1.67 1.67 0 0 0-3.32 0zm8.33-2.23v.9h-.2a1.54 1.54 0 0 0-1.63 1.74v2.58h-.94v-5.17h.9v.85a2 2 0 0 1 1.88-.9zm5.94.05l-2.26 5.17h-1l-2.26-5.17h1l1.77 4.14 1.82-4.14zm5.4 2.85h-4.2a1.76 1.76 0 0 0 1.88 1.52 1.93 1.93 0 0 0 1.49-.63l.52.6a2.61 2.61 0 0 1-2 .83 2.59 2.59 0 0 1-2.78-2.64 2.53 2.53 0 0 1 2.59-2.63 2.49 2.49 0 0 1 2.56 2.66 2.64 2.64 0 0 1-.06.28zm-4.2-.67h3.32a1.67 1.67 0 0 0-3.32 0zm8.3-2.23v.9h-.2a1.54 1.54 0 0 0-1.63 1.74v2.58h-.93v-5.17h.9v.85a2 2 0 0 1 1.88-.9z"/><use xlink:href="#U" y="108.02"/></g><path d="M308.44 379.76h25.87v7.2h-25.87z" class="C"/><g class="B"><path d="M384.18 386.77v-1.8l-.05-5 .1.1-75.74.15.26-.26v6.82l-.26-.26 69.94.17-16.05.08-54.15.1V380l.26-.26 75.84.16v.1l-.06 5.1v1.3a3.42 3.42 0 0 1-.09.37zM268.65 114l.44-.9a4.34 4.34 0 0 0 2.75.94c1.44 0 2.06-.55 2.06-1.26 0-2-5-.74-5-3.78 0-1.26 1-2.34 3.2-2.34a5 5 0 0 1 2.68.73l-.4.93a4.38 4.38 0 0 0-2.28-.67c-1.42 0-2 .6-2 1.3 0 2 5 .75 5 3.76 0 1.25-1 2.33-3.22 2.33a5 5 0 0 1-3.22-1.03zm13.65-1.82h-5.12a2.13 2.13 0 0 0 2.29 1.81 2.34 2.34 0 0 0 1.82-.75l.63.73a3.21 3.21 0 0 1-2.49 1 3.14 3.14 0 0 1-3.39-3.18 3.07 3.07 0 0 1 3.17-3.16 3 3 0 0 1 3.12 3.2c0 .1-.02.24-.03.35zm-5.12-.8h4.05a2.025 2.025 0 0 0-4.05 0zm10.12-2.74v1.1h-.26a1.87 1.87 0 0 0-2 2.1v3.1h-1.14v-6.22h1.1v1a2.42 2.42 0 0 1 2.31-1.06zm7.26.06l-2.76 6.2h-1.17l-2.76-6.2h1.2l2.17 5 2.2-5zm6.57 3.48H296a2.13 2.13 0 0 0 2.3 1.82 2.34 2.34 0 0 0 1.82-.75l.63.73a3.21 3.21 0 0 1-2.49 1 3.14 3.14 0 0 1-3.39-3.18 3.07 3.07 0 0 1 3.17-3.16 3 3 0 0 1 3.12 3.2c0 .1-.02.23-.03.34zm-5.12-.8h4.05a2.025 2.025 0 0 0-4.05 0zm10.12-2.74v1.1h-.26a1.87 1.87 0 0 0-2 2.1v3.1h-1.14v-6.22h1.1v1a2.42 2.42 0 0 1 2.3-1.06zm.67 5.6l.47-.9a4.09 4.09 0 0 0 2.22.64c1.06 0 1.5-.3 1.5-.84 0-1.4-4-.2-4-2.65 0-1.12 1-1.87 2.63-1.87a4.58 4.58 0 0 1 2.3.57l-.5.9a3.28 3.28 0 0 0-1.82-.5c-1 0-1.5.37-1.5.86 0 1.46 4 .27 4 2.68 0 1.12-1.05 1.84-2.72 1.84a4.6 4.6 0 0 1-2.6-.73zm9.36-.25l.44-.9a4.34 4.34 0 0 0 2.75.94c1.44 0 2-.55 2-1.26 0-2-5-.74-5-3.78 0-1.26 1-2.34 3.2-2.34a5 5 0 0 1 2.68.73l-.4.93a4.38 4.38 0 0 0-2.28-.67c-1.42 0-2 .6-2 1.3 0 2 5 .75 5 3.76 0 1.25-1 2.33-3.22 2.33a5 5 0 0 1-3.16-1.03zm11.54.54a2.15 2.15 0 0 1-1.38.44 1.79 1.79 0 0 1-2-2v-3.4h-1.07v-.93h1.07v-1.35h1.14v1.35h1.8v.93h-1.8V113a.92.92 0 0 0 1 1 1.48 1.48 0 0 0 .89-.29zm6.37-3.38v3.75H333v-.82a2.37 2.37 0 0 1-2.07.89c-1.43 0-2.34-.75-2.34-1.83s.66-1.8 2.54-1.8h1.8v-.23c0-.94-.56-1.5-1.7-1.5a3.22 3.22 0 0 0-2 .66l-.48-.84a4.31 4.31 0 0 1 2.61-.8c1.7 0 2.7.82 2.7 2.52zm-1.14 1.84v-.87h-1.76c-1.13 0-1.46.44-1.46 1s.53 1 1.4 1a1.85 1.85 0 0 0 1.82-1.13zm6.8 1.54a2.15 2.15 0 0 1-1.38.44 1.78 1.78 0 0 1-2-2v-3.4h-1.07v-.93h1.07v-1.35h1.14v1.35h1.8v.93h-1.8V113a.92.92 0 0 0 1 1 1.5 1.5 0 0 0 .89-.29zm7.26-5.84v6.2h-1.08v-.9a2.61 2.61 0 0 1-2.15 1 2.46 2.46 0 0 1-2.71-2.71v-3.6h1.14v3.44c0 1.22.62 1.83 1.7 1.83a1.85 1.85 0 0 0 2-2.06v-3.2zm1.38 5.55l.48-.9a4 4 0 0 0 2.21.64c1.06 0 1.5-.3 1.5-.84 0-1.4-4-.2-4-2.65 0-1.12 1-1.87 2.63-1.87a4.58 4.58 0 0 1 2.3.57l-.5.9a3.28 3.28 0 0 0-1.82-.5c-1 0-1.5.37-1.5.86 0 1.46 4 .27 4 2.68 0 1.12-1 1.84-2.72 1.84a4.6 4.6 0 0 1-2.6-.73z"/><rect x="253.45" y="106.08" width="10.2" height="2.94" rx=".17"/><rect x="253.45" y="109.76" width="10.2" height="2.94" rx=".17"/><rect x="253.45" y="113.43" width="10.2" height="2.94" rx=".17"/><circle cx="437.46" cy="105.5" r="1.57"/><path d="M439 109.76a1.57 1.57 0 1 1-1.56-1.56 1.56 1.56 0 0 1 1.56 1.56z"/><circle cx="437.46" cy="114.27" r="1.57"/><path d="M448.43 402.25L448.2 88.2l.24.24H239.07l.26-.26-.05 314.06-.28-.23 209.4.2-209.6.2-.06-314.52h209.88l-.2 314.36z"/></g><defs ><path id="B" d="M73.84 316.7h22.92v3.53H73.84z"/><path id="C" d="M105.83 318.84a1.32 1.32 0 1 1-1.31-1.31 1.32 1.32 0 0 1 1.31 1.31z"/><path id="D" d="M111.64 318.84a1.32 1.32 0 1 1-1.32-1.31 1.32 1.32 0 0 1 1.32 1.31z"/><path id="E" d="M176.32 325.18a1.32 1.32 0 1 1 1.31 1.32 1.31 1.31 0 0 1-1.31-1.32z"/><path id="F" d="M170.5 325.18a1.32 1.32 0 1 1 1.32 1.32 1.32 1.32 0 0 1-1.32-1.32z"/><path id="G" d="M105.83 330.82a1.32 1.32 0 1 1-1.31-1.32 1.31 1.31 0 0 1 1.31 1.32z"/><path id="H" d="M129.05 330.82a1.32 1.32 0 1 1-1.32-1.32 1.31 1.31 0 0 1 1.32 1.32z"/><path id="I" d="M140.36 354.2a1.32 1.32 0 1 1-1.31-1.31 1.31 1.31 0 0 1 1.31 1.31z"/><path id="J" d="M123,366.18a1.32,1.32,0,0,1-2.63,0,1.32,1.32,0,1,1,2.63,0Z"/><path id="K" d="M169.8 396.2a1.32 1.32 0 1 1 1.32 1.31 1.32 1.32 0 0 1-1.32-1.31z"/><path id="L" d="M164 396.2a1.32 1.32 0 1 1 1.31 1.31 1.32 1.32 0 0 1-1.31-1.31z"/><path id="M" d="M110.93 401.83a1.32 1.32 0 1 1-1.32-1.32 1.32 1.32 0 0 1 1.32 1.32z"/><path id="N" d="M128.8 426.28a1.32 1.32 0 1 1-1.31-1.28 1.31 1.31 0 0 1 1.31 1.28z"/><path id="O" d="M219.87 230.4h-1v-1.2a15.36 15.36 0 0 1 15.34-15.34h5.46v1h-5.46a14.36 14.36 0 0 0-14.34 14.34z"/><path id="P" d="M287.8 169.4a90.5 90.5 0 0 1-.26-9.63 90.78 90.78 0 0 1 .26-9.64 87.69 87.69 0 0 1 .26 9.64 87.43 87.43 0 0 1-.26 9.63z"/><path id="Q" d="M308.84 155.22l.36-.76a3.5 3.5 0 0 0 2.25.79c1.18 0 1.7-.46 1.7-1.05 0-1.67-4.14-.62-4.14-3.15 0-1.05.82-2 2.62-2a4 4 0 0 1 2.19.6l-.32.78a3.54 3.54 0 0 0-1.87-.55c-1.16 0-1.66.5-1.66 1.08 0 1.67 4.13.62 4.13 3.13 0 1-.84 1.94-2.64 1.94a4 4 0 0 1-2.61-.81z"/><path id="R" d="M320 153.73h-4.2a1.75 1.75 0 0 0 1.87 1.51 1.91 1.91 0 0 0 1.49-.62l.52.6a2.82 2.82 0 0 1-4.82-1.8 2.54 2.54 0 0 1 2.6-2.63 2.49 2.49 0 0 1 2.55 2.66c.03.08-.02.2-.02.28zm-4.2-.67h3.32a1.67 1.67 0 0 0-3.32 0z"/><path id="S" d="M335.46 153.73h-4.2a1.75 1.75 0 0 0 1.88 1.51 1.93 1.93 0 0 0 1.49-.62l.52.6a2.82 2.82 0 0 1-4.82-1.8 2.53 2.53 0 0 1 2.59-2.63 2.49 2.49 0 0 1 2.56 2.66c0 .08-.01.2-.02.28zm-4.2-.67h3.32a1.67 1.67 0 0 0-3.32 0z"/><path id="T" d="M287.8 278.74a90.78 90.78 0 0 1-.26-9.64 90.5 90.5 0 0 1 .26-9.63 87.43 87.43 0 0 1 .26 9.63 87.69 87.69 0 0 1-.26 9.64z"/><path id="U" d="M347.65 262.28c0 1.15-.85 2.08-2.58 2.08a3.86 3.86 0 0 1-2.51-.83l.45-.77a3.08 3.08 0 0 0 2.06.74c1 0 1.6-.47 1.6-1.2s-.52-1.2-1.7-1.2h-.55v-.7l1.72-2.1h-3.3v-.85h4.5v.66l-1.8 2.2c1.4.12 2.06.9 2.06 1.95z"/></defs></svg>