<svg xmlns="http://www.w3.org/2000/svg" viewBox="0 0 750 500"><g id="background-complete--inject-1"><polygon points="74.7 297.52 182.21 297.52 182.21 453.39 75.44 453.39 74.7 297.52" style="fill:#e0e0e0"></polygon><rect x="66.64" y="298.25" width="106.53" height="154.41" transform="translate(239.81 750.91) rotate(180)" style="fill:#fff"></rect><path d="M173.9,297.52V453.39h-108V297.52Zm-1.46,154.41V299H67.37v153Z" style="fill:#e0e0e0"></path><rect x="79.88" y="314.98" width="80.06" height="120.96" style="fill:#fff"></rect><path d="M79.88,315s0,.2,0,.59,0,1,0,1.72c0,1.53,0,3.76,0,6.64,0,5.82.05,14.26.09,24.93,0,21.33.1,51.53.18,87.08l-.35-.35,80,0h0l-.38.39c0-45.63.06-87.7.08-121l.3.3-58.25-.16L85.58,315l-4.24,0-1.46,0s.46,0,1.4,0l4.18,0,16-.08,58.44-.16h.31V315c0,33.26,0,75.33.07,121v.38h-.39l-80,0h-.36v-.35c.07-35.65.13-65.92.17-87.31,0-10.63.07-19.05.09-24.85,0-2.85,0-5,0-6.57,0-.72,0-1.28,0-1.68S79.88,315,79.88,315Z" style="fill:#e0e0e0"></path><path d="M66.34,452.66A13.65,13.65,0,0,1,68.06,450c1.14-1.57,2.76-3.73,4.62-6.05s3.62-4.36,4.93-5.8a12.23,12.23,0,0,1,2.27-2.21c.16.14-2.9,3.85-6.61,8.49S66.52,452.8,66.34,452.66Z" style="fill:#e0e0e0"></path><path d="M66.64,298.25c.17-.13,3.26,3.51,6.92,8.13s6.48,8.46,6.32,8.6-3.27-3.51-6.92-8.13S66.47,298.38,66.64,298.25Z" style="fill:#e0e0e0"></path><path d="M173.18,298.37l-14,17.22" style="fill:#fff"></path><path d="M159.23,315.59c-.16-.13,2.83-4.09,6.68-8.85s7.11-8.5,7.27-8.37-2.82,4.1-6.68,8.85S159.39,315.72,159.23,315.59Z" style="fill:#e0e0e0"></path><path d="M173.17,452.66c-.17.13-3.23-3.47-6.85-8s-6.41-8.38-6.24-8.51,3.23,3.47,6.84,8S173.33,452.53,173.17,452.66Z" style="fill:#e0e0e0"></path><path d="M125.07,377.22H111l-1.68,3.88a8.66,8.66,0,0,0-.82,3.21,2.66,2.66,0,0,0,1.35,2.47,11.5,11.5,0,0,0,3.91.71v1.08H100.48v-1.08a6,6,0,0,0,3.53-1.78,23.65,23.65,0,0,0,3.41-6l14.26-31.82h.56l14.38,32.7c1.38,3.1,2.5,5.05,3.39,5.86a4.64,4.64,0,0,0,2.82,1.06v1.08H123.54v-1.08h.79a6.08,6.08,0,0,0,3.27-.65,1.57,1.57,0,0,0,.64-1.35,3.8,3.8,0,0,0-.17-1.09c0-.18-.34-.91-.89-2.21Zm-1-2.18-5.94-13.73L112,375Z" style="fill:#e0e0e0"></path><path d="M158,131.63a2.52,2.52,0,0,1,1.09-.12h.37l-.12.12c0-.42.06-.72.12-.72s.1.3.12.72v.12H159A2.43,2.43,0,0,1,158,131.63Z" style="fill:#e0e0e0"></path><path d="M155,131.63c0-.07.32-.12.73-.12s.72.05.72.12-.32.13-.72.13S155,131.7,155,131.63Z" style="fill:#e0e0e0"></path><path d="M152.12,131.63c0-.07.33-.12.73-.12s.73.05.73.12-.33.13-.73.13S152.12,131.7,152.12,131.63Z" style="fill:#e0e0e0"></path><path d="M149.21,131.63c0-.07.32-.12.72-.12s.73.05.73.12-.32.13-.73.13S149.21,131.7,149.21,131.63Z" style="fill:#e0e0e0"></path><path d="M146.29,131.63c0-.07.33-.12.73-.12s.73.05.73.12-.33.13-.73.13S146.29,131.7,146.29,131.63Z" style="fill:#e0e0e0"></path><path d="M143.38,131.63c0-.07.32-.12.72-.12s.73.05.73.12-.32.13-.73.13S143.38,131.7,143.38,131.63Z" style="fill:#e0e0e0"></path><path d="M140.46,131.63c0-.07.33-.12.73-.12s.73.05.73.12-.33.13-.73.13S140.46,131.7,140.46,131.63Z" style="fill:#e0e0e0"></path><path d="M137.54,131.63c0-.07.33-.12.73-.12s.73.05.73.12-.32.13-.73.13S137.54,131.7,137.54,131.63Z" style="fill:#e0e0e0"></path><path d="M134.63,131.63c0-.07.33-.12.73-.12s.73.05.73.12-.33.13-.73.13S134.63,131.7,134.63,131.63Z" style="fill:#e0e0e0"></path><path d="M131.71,131.63c0-.07.33-.12.73-.12s.73.05.73.12-.32.13-.73.13S131.71,131.7,131.71,131.63Z" style="fill:#e0e0e0"></path><path d="M128.8,131.63c0-.07.32-.12.73-.12s.73.05.73.12-.33.13-.73.13S128.8,131.7,128.8,131.63Z" style="fill:#e0e0e0"></path><path d="M125.88,131.63c0-.07.33-.12.73-.12s.73.05.73.12-.33.13-.73.13S125.88,131.7,125.88,131.63Z" style="fill:#e0e0e0"></path><path d="M123,131.63c0-.07.32-.12.73-.12s.73.05.73.12-.33.13-.73.13S123,131.7,123,131.63Z" style="fill:#e0e0e0"></path><path d="M120.05,131.63c0-.07.33-.12.73-.12s.73.05.73.12-.33.13-.73.13S120.05,131.7,120.05,131.63Z" style="fill:#e0e0e0"></path><path d="M117.14,131.63c0-.07.32-.12.73-.12s.72.05.72.12-.32.13-.72.13S117.14,131.7,117.14,131.63Z" style="fill:#e0e0e0"></path><path d="M114.22,131.63c0-.07.33-.12.73-.12s.73.05.73.12-.33.13-.73.13S114.22,131.7,114.22,131.63Z" style="fill:#e0e0e0"></path><path d="M111.31,131.63c0-.07.32-.12.72-.12s.73.05.73.12-.32.13-.73.13S111.31,131.7,111.31,131.63Z" style="fill:#e0e0e0"></path><path d="M108.39,131.63c0-.07.33-.12.73-.12s.73.05.73.12-.33.13-.73.13S108.39,131.7,108.39,131.63Z" style="fill:#e0e0e0"></path><path d="M107.48,129.63c.07,0,.13.32.13.73s-.06.73-.13.73-.13-.33-.13-.73S107.41,129.63,107.48,129.63Z" style="fill:#e0e0e0"></path><path d="M107.48,126.71c.07,0,.13.33.13.73s-.06.73-.13.73-.13-.33-.13-.73S107.41,126.71,107.48,126.71Z" style="fill:#e0e0e0"></path><path d="M107.48,123.8c.07,0,.13.32.13.73s-.06.72-.13.72-.13-.32-.13-.72S107.41,123.8,107.48,123.8Z" style="fill:#e0e0e0"></path><path d="M107.48,120.88c.07,0,.13.33.13.73s-.06.73-.13.73-.13-.33-.13-.73S107.41,120.88,107.48,120.88Z" style="fill:#e0e0e0"></path><path d="M107.48,118c.07,0,.13.32.13.73s-.06.72-.13.72-.13-.32-.13-.72S107.41,118,107.48,118Z" style="fill:#e0e0e0"></path><path d="M107.48,115.05c.07,0,.13.33.13.73s-.06.73-.13.73-.13-.33-.13-.73S107.41,115.05,107.48,115.05Z" style="fill:#e0e0e0"></path><path d="M107.48,112.14c.07,0,.13.32.13.72s-.06.73-.13.73-.13-.32-.13-.73S107.41,112.14,107.48,112.14Z" style="fill:#e0e0e0"></path><path d="M107.48,109.22c.07,0,.13.33.13.73s-.06.73-.13.73-.13-.33-.13-.73S107.41,109.22,107.48,109.22Z" style="fill:#e0e0e0"></path><path d="M107.48,106.3c.07,0,.13.33.13.73s-.06.73-.13.73-.13-.32-.13-.73S107.41,106.3,107.48,106.3Z" style="fill:#e0e0e0"></path><path d="M107.48,103.39c.07,0,.13.33.13.73s-.06.73-.13.73-.13-.33-.13-.73S107.41,103.39,107.48,103.39Z" style="fill:#e0e0e0"></path><path d="M107.48,100.47c.07,0,.13.33.13.73s-.06.73-.13.73-.13-.32-.13-.73S107.41,100.47,107.48,100.47Z" style="fill:#e0e0e0"></path><path d="M107.48,97.56c.07,0,.13.33.13.73s-.06.73-.13.73-.13-.33-.13-.73S107.41,97.56,107.48,97.56Z" style="fill:#e0e0e0"></path><path d="M107.48,94.64c.07,0,.13.33.13.73s-.06.73-.13.73-.13-.33-.13-.73S107.41,94.64,107.48,94.64Z" style="fill:#e0e0e0"></path><path d="M107.48,91.73c.07,0,.13.32.13.73s-.06.73-.13.73-.13-.33-.13-.73S107.41,91.73,107.48,91.73Z" style="fill:#e0e0e0"></path><path d="M107.48,88.81c.07,0,.13.33.13.73s-.06.73-.13.73-.13-.33-.13-.73S107.41,88.81,107.48,88.81Z" style="fill:#e0e0e0"></path><path d="M107.48,85.9c.07,0,.13.32.13.73s-.06.73-.13.73-.13-.33-.13-.73S107.41,85.9,107.48,85.9Z" style="fill:#e0e0e0"></path><path d="M107.48,83c.07,0,.13.33.13.73s-.06.73-.13.73-.13-.33-.13-.73S107.41,83,107.48,83Z" style="fill:#e0e0e0"></path><path d="M107.48,80.07c.07,0,.13.32.13.73s-.06.72-.13.72-.13-.32-.13-.72S107.41,80.07,107.48,80.07Z" style="fill:#e0e0e0"></path><path d="M110,79.7c0,.07-.32.13-.72.13s-.73-.06-.73-.13.32-.12.73-.12S110,79.63,110,79.7Z" style="fill:#e0e0e0"></path><path d="M113,79.7c0,.07-.33.13-.73.13s-.73-.06-.73-.13.33-.12.73-.12S113,79.63,113,79.7Z" style="fill:#e0e0e0"></path><path d="M115.87,79.7c0,.07-.33.13-.73.13s-.73-.06-.73-.13.32-.12.73-.12S115.87,79.63,115.87,79.7Z" style="fill:#e0e0e0"></path><path d="M118.78,79.7c0,.07-.33.13-.73.13s-.73-.06-.73-.13.33-.12.73-.12S118.78,79.63,118.78,79.7Z" style="fill:#e0e0e0"></path><ellipse cx="120.97" cy="79.7" rx="0.73" ry="0.13" style="fill:#e0e0e0"></ellipse><path d="M124.61,79.7c0,.07-.33.13-.73.13s-.73-.06-.73-.13.33-.12.73-.12S124.61,79.63,124.61,79.7Z" style="fill:#e0e0e0"></path><path d="M127.53,79.7c0,.07-.33.13-.73.13s-.73-.06-.73-.13.33-.12.73-.12S127.53,79.63,127.53,79.7Z" style="fill:#e0e0e0"></path><ellipse cx="129.71" cy="79.7" rx="0.73" ry="0.13" style="fill:#e0e0e0"></ellipse><path d="M133.36,79.7c0,.07-.33.13-.73.13s-.73-.06-.73-.13.33-.12.73-.12S133.36,79.63,133.36,79.7Z" style="fill:#e0e0e0"></path><path d="M136.27,79.7c0,.07-.32.13-.73.13s-.73-.06-.73-.13.33-.12.73-.12S136.27,79.63,136.27,79.7Z" style="fill:#e0e0e0"></path><ellipse cx="138.46" cy="79.7" rx="0.73" ry="0.13" style="fill:#e0e0e0"></ellipse><path d="M142.1,79.7c0,.07-.32.13-.73.13s-.72-.06-.72-.13.32-.12.72-.12S142.1,79.63,142.1,79.7Z" style="fill:#e0e0e0"></path><path d="M145,79.7c0,.07-.33.13-.73.13s-.73-.06-.73-.13.33-.12.73-.12S145,79.63,145,79.7Z" style="fill:#e0e0e0"></path><ellipse cx="147.21" cy="79.7" rx="0.73" ry="0.13" style="fill:#e0e0e0"></ellipse><path d="M150.85,79.7c0,.07-.33.13-.73.13s-.73-.06-.73-.13.33-.12.73-.12S150.85,79.63,150.85,79.7Z" style="fill:#e0e0e0"></path><path d="M153.76,79.7c0,.07-.32.13-.72.13s-.73-.06-.73-.13.32-.12.73-.12S153.76,79.63,153.76,79.7Z" style="fill:#e0e0e0"></path><ellipse cx="155.95" cy="79.7" rx="0.73" ry="0.13" style="fill:#e0e0e0"></ellipse><path d="M159.41,79.89s-.06-.07-.08-.19l.08.09a3.74,3.74,0,0,1-.54,0c-.41,0-.73-.06-.73-.13s.32-.12.73-.12a2.7,2.7,0,0,1,.54,0l.1,0,0,.06C159.47,79.82,159.44,79.89,159.41,79.89Z" style="fill:#e0e0e0"></path><ellipse cx="159.41" cy="82.08" rx="0.13" ry="0.73" style="fill:#e0e0e0"></ellipse><path d="M159.41,85.72c-.07,0-.13-.32-.13-.73s.06-.73.13-.73.13.33.13.73S159.48,85.72,159.41,85.72Z" style="fill:#e0e0e0"></path><path d="M159.41,88.64c-.07,0-.13-.33-.13-.73s.06-.73.13-.73.13.33.13.73S159.48,88.64,159.41,88.64Z" style="fill:#e0e0e0"></path><ellipse cx="159.41" cy="90.82" rx="0.13" ry="0.73" style="fill:#e0e0e0"></ellipse><path d="M159.41,94.47c-.07,0-.13-.33-.13-.73s.06-.73.13-.73.13.33.13.73S159.48,94.47,159.41,94.47Z" style="fill:#e0e0e0"></path><path d="M159.41,97.38c-.07,0-.13-.32-.13-.73s.06-.72.13-.72.13.32.13.72S159.48,97.38,159.41,97.38Z" style="fill:#e0e0e0"></path><ellipse cx="159.41" cy="99.57" rx="0.13" ry="0.73" style="fill:#e0e0e0"></ellipse><path d="M159.41,103.21c-.07,0-.13-.32-.13-.73s.06-.72.13-.72.13.32.13.72S159.48,103.21,159.41,103.21Z" style="fill:#e0e0e0"></path><path d="M159.41,106.13c-.07,0-.13-.33-.13-.73s.06-.73.13-.73.13.33.13.73S159.48,106.13,159.41,106.13Z" style="fill:#e0e0e0"></path><ellipse cx="159.41" cy="108.32" rx="0.13" ry="0.73" style="fill:#e0e0e0"></ellipse><path d="M159.41,112c-.07,0-.13-.33-.13-.73s.06-.73.13-.73.13.33.13.73S159.48,112,159.41,112Z" style="fill:#e0e0e0"></path><path d="M159.41,114.88c-.07,0-.13-.33-.13-.73s.06-.73.13-.73.13.32.13.73S159.48,114.88,159.41,114.88Z" style="fill:#e0e0e0"></path><ellipse cx="159.41" cy="117.06" rx="0.13" ry="0.73" style="fill:#e0e0e0"></ellipse><ellipse cx="159.41" cy="119.98" rx="0.13" ry="0.73" style="fill:#e0e0e0"></ellipse><path d="M159.41,123.62c-.07,0-.13-.33-.13-.73s.06-.73.13-.73.13.33.13.73S159.48,123.62,159.41,123.62Z" style="fill:#e0e0e0"></path><ellipse cx="159.41" cy="125.81" rx="0.13" ry="0.73" style="fill:#e0e0e0"></ellipse><ellipse cx="159.41" cy="128.72" rx="0.13" ry="0.73" style="fill:#e0e0e0"></ellipse><rect x="157.49" y="129.18" width="3.85" height="3.85" style="fill:#e0e0e0"></rect><rect x="105.56" y="129.71" width="3.85" height="3.85" style="fill:#e0e0e0"></rect><rect x="157.49" y="77.41" width="3.85" height="3.85" style="fill:#e0e0e0"></rect><rect x="105.56" y="77.78" width="3.85" height="3.85" style="fill:#e0e0e0"></rect><circle cx="689.26" cy="284.11" r="5.96" style="fill:#e0e0e0"></circle><path d="M701.32,252.39A3.71,3.71,0,1,1,705,256.1,3.71,3.71,0,0,1,701.32,252.39Z" style="fill:#e0e0e0"></path><path d="M685.43,226.14a3.4,3.4,0,1,1,4.31,2.13A3.4,3.4,0,0,1,685.43,226.14Z" style="fill:#e0e0e0"></path><circle cx="664.92" cy="344.7" r="5.54" style="fill:#e0e0e0"></circle><circle cx="666.25" cy="387.98" r="3.97" style="fill:#e0e0e0"></circle><path d="M664.71,433.59a2.83,2.83,0,1,1-2.83-2.82A2.83,2.83,0,0,1,664.71,433.59Z" style="fill:#e0e0e0"></path><circle cx="681.41" cy="344.7" r="5.54" style="fill:#e0e0e0"></circle><circle cx="701.24" cy="384.01" r="3.97" style="fill:#e0e0e0"></circle><path d="M689.62,428.13a2.82,2.82,0,1,1-2.12-3.38A2.83,2.83,0,0,1,689.62,428.13Z" style="fill:#e0e0e0"></path><circle cx="671.1" cy="311.75" r="9.16" transform="translate(-23.88 565.85) rotate(-45)" style="fill:#e0e0e0"></circle><circle cx="671.17" cy="272.68" r="5.96" style="fill:#e0e0e0"></circle><path d="M657.11,284.11a6,6,0,1,1-6-5.95A6,6,0,0,1,657.11,284.11Z" style="fill:#e0e0e0"></path><path d="M639.09,315.84a3.71,3.71,0,1,1-3.71-3.71A3.71,3.71,0,0,1,639.09,315.84Z" style="fill:#e0e0e0"></path><path d="M655,342.09a3.4,3.4,0,1,1-4.31-2.13A3.4,3.4,0,0,1,655,342.09Z" style="fill:#e0e0e0"></path><path d="M708.34,256.48s-9.5,21.4-13.36,26a21.34,21.34,0,0,1-7-4.17s11.37-21.73,13.32-25.41Z" style="fill:#f5f5f5"></path><path d="M707.58,247.91c-.14-.45-15-23-15-23l-6.54,4.5,14.23,23.46Z" style="fill:#f5f5f5"></path><path d="M692,223.48s9.63-10.83,2.89-14.53-8.54,9.06-7.93,12.73l5.32,2" style="fill:#f5f5f5"></path><path d="M697.3,453.4H650.43a14.83,14.83,0,0,1,14.84-14.84h17.19A14.84,14.84,0,0,1,697.3,453.4Z" style="fill:#e0e0e0"></path><path d="M671.91,318.67c.15,0,.26,26.94.26,60.17s-.11,60.17-.26,60.17-.26-26.94-.26-60.17S671.77,318.67,671.91,318.67Z" style="fill:#e0e0e0"></path><path d="M661.32,314.87s-5.49,8.9-4,26.51h28.78s1.78-20.94-5-27Z" style="fill:#f5f5f5"></path><polygon points="658.5 349.34 671.71 349.34 670.46 386.57 661.42 386.57 658.5 349.34" style="fill:#f5f5f5"></polygon><polygon points="661.24 389.13 658.5 431.86 665.11 433.11 671.01 390.38 661.24 389.13" style="fill:#f5f5f5"></polygon><path d="M655.62,438.56s.08-5.25,5.4-5.45,5.91,5.45,5.91,5.45Z" style="fill:#f5f5f5"></path><polygon points="677.75 350.78 689.76 345.28 704.13 379.66 695.91 383.42 677.75 350.78" style="fill:#f5f5f5"></polygon><polygon points="696.14 384.01 683.96 425.06 690.12 427.75 705.39 387.4 696.14 384.01" style="fill:#f5f5f5"></polygon><path d="M681.06,431.38c.34.57,16.24,6.53,16.24,6.53s3.78-3.37-8.12-8.78L686.64,428a3.76,3.76,0,0,0-5.13,2.16Z" style="fill:#f5f5f5"></path><path d="M656.43,276c-.44.1.37,23.55,5.51,32.24,0,0,18.49-.6,18.94,0s6.43-20.4,5.89-31.68C686.77,276.55,673.78,271.9,656.43,276Z" style="fill:#f5f5f5"></path><path d="M668.63,239.59s-11.8.26-9.62,15.27,4.61,15,4.68,15.4,14.83-1,14.83-1S686.6,239,668.63,239.59Z" style="fill:#f5f5f5"></path><path d="M632.07,311.75s9.5-21.4,13.36-26a21.34,21.34,0,0,1,7,4.17s-11.37,21.73-13.32,25.4Z" style="fill:#f5f5f5"></path><path d="M632.83,320.32c.14.44,15,23,15,23l6.54-4.5-14.23-23.47Z" style="fill:#f5f5f5"></path><path d="M648.11,345.49s-9.63,10.84-2.89,14.54,8.54-9.07,7.93-12.74l-5.32-2" style="fill:#f5f5f5"></path><rect x="629.25" y="106.97" width="43.81" height="75.15" style="fill:#fff"></rect><rect x="629.25" y="106.97" width="43.81" height="6.33" style="fill:#e0e0e0"></rect><polygon points="639.78 121.2 640.31 128.22 642.27 125.66 645.54 125.53 639.78 121.2" style="fill:#e0e0e0"></polygon><path d="M658.71,121.2l.11.07.31.23,1.2.87,4.2,3.09.18.14h-.23l-3.16.13h-.11l.06,0-2,2.56-.13.17,0-.21c-.13-2-.25-3.78-.33-5.09q-.06-.86-.09-1.44c0-.14,0-.26,0-.37s0-.13,0-.13,0,.06,0,.15l0,.4c0,.39.07.87.13,1.46.11,1.29.25,3,.42,5l-.14,0,2-2.56,0,0h.15l3.17-.12-.05.14-4.08-3.12-1.2-.92-.32-.25Z" style="fill:#e0e0e0"></path><path d="M638.5,151.73s2.17-2.34,4.91-5.16,5-5.08,5-5-2.16,2.34-4.9,5.16S638.54,151.76,638.5,151.73Z" style="fill:#e0e0e0"></path><path d="M668.92,146.55a10.26,10.26,0,0,0-.23-1.56,6.43,6.43,0,0,0-2.28-3.55,6.11,6.11,0,0,0-6-.94,5.86,5.86,0,0,0-1.59.9,6,6,0,0,0-1.32,1.38,6.58,6.58,0,0,0,0,7.55,6,6,0,0,0,1.32,1.38,5.86,5.86,0,0,0,1.59.9,6.11,6.11,0,0,0,6-.94,6.46,6.46,0,0,0,2.28-3.55,10.1,10.1,0,0,0,.23-1.57V147a3.2,3.2,0,0,1,0,.49,5.16,5.16,0,0,1-.12.68,6.57,6.57,0,0,1-2.27,3.63,6.23,6.23,0,0,1-6.13,1,6.39,6.39,0,0,1-3-2.32,6.72,6.72,0,0,1,0-7.75,6.25,6.25,0,0,1,1.35-1.41,5.76,5.76,0,0,1,1.64-.91,6.21,6.21,0,0,1,3.41-.29,6.36,6.36,0,0,1,2.72,1.27,6.54,6.54,0,0,1,2.27,3.63,5.34,5.34,0,0,1,.12.67,3.41,3.41,0,0,1,0,.5Z" style="fill:#e0e0e0"></path><path d="M663.24,163.25s.06,0,.16.12l.45.38,1.72,1.49,0,0,0,0-7.37,8.45,0,0h0l-.89.14-1.59.24-.12,0,0-.12c.2-1,.4-2,.58-2.9v0h0c2-2.35,3.73-4.36,5-5.75a13.88,13.88,0,0,1,2.09-2.13l-.15.13c-.09.1-.23.23-.4.42-.35.38-.85.94-1.46,1.64-1.24,1.42-3,3.43-4.94,5.79l0,0c-.18.92-.37,1.9-.57,2.9l-.1-.1,1.6-.24.88-.13,0,0c3-3.43,5.7-6.45,7.42-8.41v.07l-1.66-1.51-.44-.4Z" style="fill:#e0e0e0"></path><path d="M647.22,173.5a1.87,1.87,0,0,1,0-.21v-.57c0-.53,0-1.25,0-2.16,0-1.87,0-4.5,0-7.63l.07.07H637l.08-.08h0v5.57c0,1.77,0,3.44,0,5l-.07-.08,7.42,0,2.1,0h0l-2.08,0-7.47,0h-.08v-5c0-.89,0-1.81,0-2.74V163h0l.09-.09h10.34v.08c0,3.15,0,5.79,0,7.68,0,.9,0,1.62,0,2.14,0,.23,0,.41,0,.56A1.31,1.31,0,0,1,647.22,173.5Z" style="fill:#e0e0e0"></path><path d="M638.5,162.93a16.19,16.19,0,0,1-2.22.08,16.4,16.4,0,0,1-2.23-.08,13.87,13.87,0,0,1,2.23-.09A13.69,13.69,0,0,1,638.5,162.93Z" style="fill:#e0e0e0"></path><path d="M637,165a35,35,0,0,1,0-5,39.42,39.42,0,0,1,0,5Z" style="fill:#e0e0e0"></path><path d="M673.06,182.12s0-.13,0-.37v-1.07c0-1,0-2.34,0-4.14,0-3.61,0-8.88,0-15.52,0-13.27,0-32-.06-54.05l.13.13H629.25l.14-.14c0,28.67,0,55,0,75.15l-.11-.11,32,.05,8.77,0h2.29l.79,0h-3l-8.75,0-32,.05h-.11v-.1c0-20.19,0-46.48,0-75.15v-.14h44.08V107c0,22-.05,40.84-.06,54.14,0,6.63,0,11.88,0,15.49,0,1.79,0,3.17,0,4.11,0,.46,0,.81,0,1S673.06,182.12,673.06,182.12Z" style="fill:#e0e0e0"></path><path d="M604.55,65.74h-4.23l-9.25-12.88V44.41s-6.54-.41-5.77,10.66-.07,8.25-.07,8.25-13.89.06-15.05,1.27c-.84.87-1.22,14.68-1.36,22.17a8.08,8.08,0,0,0,5.74,8.16,6,6,0,0,0,1.5.2c3.46,0,21.17-2.81,21.17-2.81h7.32Z" style="fill:#ebebeb"></path><polygon points="616.67 63.42 614.07 92.39 606.82 92.39 606.82 64 616.67 63.42" style="fill:#ebebeb"></polygon><path d="M71.19,185.54h3l6.52,9.09v6s4.62.28,4.08-7.53,0-5.83,0-5.83,9.81,0,10.62-.89c.59-.62.86-10.36,1-15.65a5.71,5.71,0,0,0-4-5.76,4.29,4.29,0,0,0-1.06-.14c-2.44,0-15,2-15,2H71.19Z" style="fill:#ebebeb"></path><polygon points="62.63 187.18 64.47 166.73 69.59 166.73 69.59 186.76 62.63 187.18" style="fill:#ebebeb"></polygon></g><g id="Floor--inject-1"><path d="M717.44,453.14c0,.15-148.37.26-331.35.26s-331.38-.11-331.38-.26,148.34-.26,331.38-.26S717.44,453,717.44,453.14Z" style="fill:#263238"></path></g><g id="Character--inject-1"><path d="M448.9,316.54c0,.54,2.88,4,1.73,7.85-.33,1.09-3.16,3.28-3.16,3.28l3,5.29-17.64,7.55-8.87-17.31,17.75-5Z" style="fill:#ffbe9d"></path><path d="M438.48,296.37a7.77,7.77,0,0,0,1.72-11.12c-1.92-2.27-5.14-3.33-6.58-5.94-1.07-1.92-.92-4.28-.49-6.43a27.9,27.9,0,0,0,1.05-6.49c-.08-2.2-1.16-4.55-3.21-5.33-2.87-1.08-5.87,1.34-7.47,3.95a19.67,19.67,0,0,0-.95,18.43c1.2,2.51,2.93,4.73,4.23,7.18s2.19,5.31,1.5,8" style="fill:#f5f5f5"></path><path d="M430.31,269a13.71,13.71,0,0,0-1.21,3.65,10.36,10.36,0,0,0,.22,4.12,11.2,11.2,0,0,0,.9,2.26,9.92,9.92,0,0,0,1.58,2.06c1.3,1.25,2.85,2.2,3.83,3.55a7.88,7.88,0,0,1,1.48,4,7.39,7.39,0,0,1-.33,2.88,2.93,2.93,0,0,1-.45,1,10,10,0,0,0,.41-3.8,7.59,7.59,0,0,0-1.5-3.79c-.92-1.25-2.44-2.16-3.8-3.46a9.87,9.87,0,0,1-1.66-2.2,10.68,10.68,0,0,1-.92-2.39,10.33,10.33,0,0,1-.13-4.29,8.7,8.7,0,0,1,1-2.72A3.55,3.55,0,0,1,430.31,269Z" style="fill:#263238"></path><path d="M425.61,269.39a13.56,13.56,0,0,0-1.22,3.64,10.56,10.56,0,0,0,.23,4.12,11,11,0,0,0,.9,2.26,9.72,9.72,0,0,0,1.58,2.07c1.29,1.24,2.85,2.19,3.83,3.55a7.82,7.82,0,0,1,1.48,4,7.33,7.33,0,0,1-.33,2.87,2.93,2.93,0,0,1-.45,1,10.18,10.18,0,0,0,.41-3.8,7.69,7.69,0,0,0-1.5-3.78c-.92-1.25-2.44-2.17-3.8-3.47a9.81,9.81,0,0,1-1.66-2.19,10.68,10.68,0,0,1-.92-2.39A10.38,10.38,0,0,1,424,273a8.64,8.64,0,0,1,1-2.72A3.11,3.11,0,0,1,425.61,269.39Z" style="fill:#263238"></path><path d="M433,238.61a4.26,4.26,0,0,1,2.62,2.8,6.31,6.31,0,0,1-.14,3.91,6.06,6.06,0,0,1-1.76,2.73,4,4,0,0,1-3,1,4.85,4.85,0,0,1-3.37-2.42,6.3,6.3,0,0,1-.22-6.57c1.25-1.94,4.13-2.79,6-1.48" style="fill:#f5f5f5"></path><path d="M448.63,293.06l3.16,28.33a4.15,4.15,0,0,1-3.45,4.56l-17.27,2.87a4.17,4.17,0,0,1-4.78-3.35l-5.06-27.34Z" style="fill:#455a64"></path><path d="M435.15,300.32l1-.14.9,6.45-1,.15Z" style="fill:#263238"></path><path d="M437.73,321.57l-1,.12-.32-1.15-1.24.15,0,1.19-.93.11.26-6.59,1.48-.18Zm-2.56-1.78,1-.11-.88-3.22Z" style="fill:#263238"></path><path d="M440.33,321.26a2.06,2.06,0,0,1-.19-.79l-.12-1c-.07-.6-.3-.8-.76-.75l-.36.05.32,2.63-1,.12-.77-6.47,1.53-.18a1.31,1.31,0,0,1,1.69,1.31l.06.5a1.31,1.31,0,0,1-.51,1.4c.53.15.76.62.84,1.29l.12,1a1.94,1.94,0,0,0,.2.77Zm-1.77-5.42.23,2,.4-.05c.38,0,.59-.23.53-.75l-.08-.64c-.05-.46-.23-.65-.59-.6Z" style="fill:#263238"></path><path d="M440.85,314.63l3.14-.37.11.92-1.06.13.66,5.54-1,.12-.66-5.54-1.06.13Z" style="fill:#263238"></path><path d="M437.38,309.63a5.78,5.78,0,0,0-1.76-1.59,1.46,1.46,0,0,0-1.89.38,1.43,1.43,0,0,0,0,1.35,3.35,3.35,0,0,0,.91,1.07,17.4,17.4,0,0,0,3.48,2.28,8.76,8.76,0,0,0,2.11-3.6,2.47,2.47,0,0,0,.11-1.26,1,1,0,0,0-.87-.82,1.81,1.81,0,0,0-1.15.46,3.66,3.66,0,0,0-.93,1.73" style="fill:#4550E6"></path><path d="M448.93,295.76s-9,9.74-7.48,12.86c.88,1.81,3.28,1.64,4.65-.08s3.16-3.8,4.38-5.26C452.08,301.35,451.85,295.53,448.93,295.76Z" style="fill:#ffbe9d"></path><path d="M450.69,302.58s-8.19,8-6.85,10.64,3.75,1.07,4.94-.42,2-2.76,3-4C453.2,307.11,453.5,301.61,450.69,302.58Z" style="fill:#ffbe9d"></path><path d="M451.31,309s-5.83,6.34-4.81,8.37,2.26,1.58,3.16.45,2.07-2.49,2.87-3.45C453.59,313.08,453.19,308.5,451.31,309Z" style="fill:#ffbe9d"></path><path d="M423.92,322.91,419.26,312l10.89-12.35s2.74,1.73,1.11,5.36-5.74,7-5.74,7l.3,10.92Z" style="fill:#ffbe9d"></path><path d="M427.69,301.91c0,.28-2.17-.2-5.16,1.06a10.47,10.47,0,0,0-4.29,3.39,9.87,9.87,0,0,0,.9,12.33,10.41,10.41,0,0,0,4.75,2.74c3.13.8,5.19,0,5.25.3,0,.08-.43.39-1.37.64a9.71,9.71,0,0,1-4.12.14,10.81,10.81,0,0,1-5.52-2.8,10.91,10.91,0,0,1-1-14.21,10.8,10.8,0,0,1,5.05-3.56,9.49,9.49,0,0,1,4.1-.47C427.21,301.58,427.71,301.82,427.69,301.91Z" style="fill:#455a64"></path><path d="M451,302.16a55.25,55.25,0,0,1-6.73,8.12,27.06,27.06,0,0,1,3.16-4.23A26.39,26.39,0,0,1,451,302.16Z" style="fill:#eb996e"></path><path d="M452,308.67a14,14,0,0,1-2.29,3.44,13.56,13.56,0,0,1-2.87,3,20.6,20.6,0,0,1,2.46-3.3A21,21,0,0,1,452,308.67Z" style="fill:#eb996e"></path><path d="M446.26,328.6a21.71,21.71,0,0,1-4.28,1.89,21.45,21.45,0,0,1-4.47,1.4,21,21,0,0,1,4.28-1.89A21.45,21.45,0,0,1,446.26,328.6Z" style="fill:#eb996e"></path><path d="M432.21,398.78s3-35.48,1.36-40-6.46-21.47-6.46-21.47l26.06-7.78s13.31,35.1,17.88,65.89Z" style="fill:#263238"></path><path d="M424.54,422.37l-32.15-36-.32,43.75,9,23.28H304.42L301.5,399l-6.92-58.27a15.82,15.82,0,0,1,9.91-16.59L331,313.72l37.28,6.83,15,5.7a41.13,41.13,0,0,1,16.34,11.37l45.14,51.62" style="fill:#263238"></path><path d="M390.14,377.77a49.55,49.55,0,0,0,5.43-.38,22.05,22.05,0,0,0,18.07-16.67,48.81,48.81,0,0,0,.82-5.38,4.75,4.75,0,0,1,.14,1.48,19,19,0,0,1-.42,4,21.55,21.55,0,0,1-18.53,17.09,19.12,19.12,0,0,1-4,.1A4.41,4.41,0,0,1,390.14,377.77Z" style="fill:#fff"></path><path d="M392.33,428.27c.22,0,.56-15.15.75-33.84s.16-33.86-.07-33.86-.56,15.15-.75,33.85S392.1,428.27,392.33,428.27Z" style="fill:#455a64"></path><path d="M389.43,439.39,331.32,416A13.25,13.25,0,0,1,323,404.7L318.79,349s.5-23.7-14.3-24.85l-8.42,3.31c-10.88,5.78-13.58,21.63-12.09,33.86,2.1,17.38,3,42,5.33,57.06,1.93,12.33,9,23.19,21.07,26.37l70.73,9Z" style="fill:#263238"></path><path d="M319.62,357.48a7.39,7.39,0,0,1,.18,1.28c.09.91.22,2.13.38,3.67.29,3.27.71,7.86,1.22,13.51s1.08,12.52,1.73,20.05c.16,1.88.32,3.82.48,5.79a44.74,44.74,0,0,0,.75,6,9.86,9.86,0,0,0,2.88,5.22,19.84,19.84,0,0,0,5.37,3.34c16,6.93,30.79,12.65,41.5,16.67l12.73,4.69,3.46,1.27a7,7,0,0,1,1.19.5,9.89,9.89,0,0,1-1.24-.35l-3.51-1.14c-3-1-7.42-2.51-12.82-4.45C363.14,429.6,348.35,424,332.28,417a20.23,20.23,0,0,1-5.57-3.48,10.75,10.75,0,0,1-3.1-5.61,45,45,0,0,1-.74-6.07c-.15-2-.31-3.9-.46-5.79-.58-7.54-1.11-14.33-1.55-20.07s-.75-10.26-1-13.53c-.09-1.54-.17-2.77-.22-3.68A7,7,0,0,1,319.62,357.48Z" style="fill:#455a64"></path><path d="M311.18,426.75a8.37,8.37,0,0,1,1.05-3.09A20,20,0,0,1,324,413.59a8.65,8.65,0,0,1,3.23-.56c0,.13-1.2.37-3.05,1.08a22.54,22.54,0,0,0-11.48,9.81C311.73,425.63,311.3,426.8,311.18,426.75Z" style="fill:#263238"></path><path d="M322.6,384.39s.14,0,.37.16l1,.54a36.72,36.72,0,0,0,4.15,1.76,32.79,32.79,0,0,0,16.29,1.39,32.13,32.13,0,0,0,20.24-12.57A26.75,26.75,0,0,0,370,362.5a18,18,0,0,0-.77-7.45,15.17,15.17,0,0,0-4.19-6.4,12.69,12.69,0,0,0-6.82-3.31,8.12,8.12,0,0,0-6.84,1.92,4.33,4.33,0,0,0-1.33,3.09,5.29,5.29,0,0,0,1.12,3.19,8.72,8.72,0,0,0,5.91,3.09,24,24,0,0,0,12.7-1.82,23.58,23.58,0,0,0,13.38-15,25.16,25.16,0,0,0,1.11-7,27.67,27.67,0,0,0-.33-4.48c-.09-.47-.16-.85-.21-1.16s-.07-.39-.05-.4a18.92,18.92,0,0,1,.89,6,25.24,25.24,0,0,1-1,7.12A24.58,24.58,0,0,1,357,357.34a9.48,9.48,0,0,1-6.4-3.35,6.18,6.18,0,0,1-1.28-3.64,5.15,5.15,0,0,1,1.55-3.63,8.85,8.85,0,0,1,7.48-2.15,13.38,13.38,0,0,1,7.24,3.51,15.89,15.89,0,0,1,4.4,6.73,18.73,18.73,0,0,1,.8,7.76,27.4,27.4,0,0,1-5.48,13.52,32.09,32.09,0,0,1-37.21,11.05A23.7,23.7,0,0,1,322.6,384.39Z" style="fill:#fff"></path><path d="M284.54,369.53a5.15,5.15,0,0,1,1-1.19,20.9,20.9,0,0,1,3.14-2.73,26.36,26.36,0,0,1,12.85-4.56,24.86,24.86,0,0,1,7.58.32,23,23,0,0,1,5.83,2.05,26,26,0,0,1,3.55,2.16,5.35,5.35,0,0,1,1.17,1c-.08.13-1.82-1.19-4.95-2.64a24.33,24.33,0,0,0-13.1-2.1A27.58,27.58,0,0,0,289,366.06C286.07,368,284.65,369.64,284.54,369.53Z" style="fill:#fff"></path><path d="M293.84,329.69a23.62,23.62,0,0,0,4.7,3.42,17.14,17.14,0,0,0,6,1.76,15,15,0,0,0,13.54-5.6,16.9,16.9,0,0,0,3-5.48,23,23,0,0,0,.91-5.74,5.06,5.06,0,0,1,.2,1.58,14.34,14.34,0,0,1-.58,4.32,16.49,16.49,0,0,1-3,5.76,15.3,15.3,0,0,1-14.17,5.87,16.6,16.6,0,0,1-6.17-2,14.69,14.69,0,0,1-3.46-2.65A4.82,4.82,0,0,1,293.84,329.69Z" style="fill:#fff"></path><path d="M344.47,421.3a6,6,0,0,1,.12-1.1,12.55,12.55,0,0,1,1-3,16.57,16.57,0,0,1,8.7-7.55c4.54-2,10.79-2.44,17.08-.61,3.07.91,6.6,2,8.91,5a5.4,5.4,0,0,1,.65,5.46,8.68,8.68,0,0,1-4.14,3.91,13,13,0,0,1-5.5,1.36,8,8,0,0,1-5.28-1.64,6.74,6.74,0,0,1-2.37-4.78,12.11,12.11,0,0,1,.79-5,22.64,22.64,0,0,1,12-12.12,23.41,23.41,0,0,1,11.43-2,16,16,0,0,1,4.18.88c0,.1-1.48-.4-4.2-.58a23.87,23.87,0,0,0-11.18,2.16,23.39,23.39,0,0,0-6.53,4.43,20.89,20.89,0,0,0-5,7.44,11.27,11.27,0,0,0-.73,4.73,6,6,0,0,0,2.11,4.26,7.3,7.3,0,0,0,4.79,1.45,12.41,12.41,0,0,0,5.16-1.29,8,8,0,0,0,3.79-3.53,4.64,4.64,0,0,0-.57-4.7,10.82,10.82,0,0,0-3.89-3.08,26.53,26.53,0,0,0-4.59-1.71c-6.17-1.82-12.22-1.5-16.68.43a16.57,16.57,0,0,0-8.64,7.18A17,17,0,0,0,344.47,421.3Z" style="fill:#fff"></path><path d="M305.78,442.28c0-.15,2.22-.34,5.58-1.54A27.74,27.74,0,0,0,329.18,421c.85-3.46.82-5.7,1-5.69a5,5,0,0,1,.09,1.57,24.4,24.4,0,0,1-.51,4.25,26.76,26.76,0,0,1-18.19,20.11,23,23,0,0,1-4.18.94A5.86,5.86,0,0,1,305.78,442.28Z" style="fill:#fff"></path><path d="M287,399a3.26,3.26,0,0,1,.7-.28c.47-.15,1.17-.37,2.08-.6a24.87,24.87,0,0,1,7.91-.8,16.24,16.24,0,0,1,5.38,1.33,12.29,12.29,0,0,1,5,3.94,10.32,10.32,0,0,1,2,6.77,8.37,8.37,0,0,1-1.16,3.64,5.76,5.76,0,0,1-3,2.54,4,4,0,0,1-3.93-.77,5.25,5.25,0,0,1-1.35-3.62,15.52,15.52,0,0,1,1.37-6.92,15.12,15.12,0,0,1,8.47-8,15.34,15.34,0,0,1,7.91-.78,13.58,13.58,0,0,1,2.1.53,2.63,2.63,0,0,1,.69.31c0,.07-1-.31-2.84-.54a15.75,15.75,0,0,0-7.66,1,14.71,14.71,0,0,0-8,7.82,14.89,14.89,0,0,0-1.26,6.59,4.55,4.55,0,0,0,1.12,3.09,3.25,3.25,0,0,0,3.16.6,5,5,0,0,0,2.62-2.21,7.5,7.5,0,0,0,1.06-3.29,9.69,9.69,0,0,0-1.78-6.3,11.91,11.91,0,0,0-4.7-3.77,16.52,16.52,0,0,0-5.16-1.37,26.63,26.63,0,0,0-7.8.56C288,398.76,287,399,287,399Z" style="fill:#fff"></path><g style="opacity:0.30000000000000004"><path d="M372.73,432.75c-6.22-3.51-12.29-6.2-18.79-9.16s-12.86-6.74-17.11-12.47c-8-10.81-7.11-26.41-15.32-37.07q.81,10.76,1.61,21.51c.49,6.58-.52,13.08,3.72,17.54,3.56,3.77,10.52,6.65,15.44,8.28,9.9,3.26,20.55,8.11,30.45,11.37"></path></g><path d="M459.53,346.1a4.68,4.68,0,0,1-.72.45c-.49.27-1.19.71-2.07,1.29a31.21,31.21,0,0,0-6.57,6,29.8,29.8,0,0,0-5.89,11.69,14.65,14.65,0,0,0-.06,7.64,8.32,8.32,0,0,0,2,3.44,7.23,7.23,0,0,0,3.53,2,5.27,5.27,0,0,0,3.93-.64,6.5,6.5,0,0,0,2.57-3,6.36,6.36,0,0,0,.49-3.78,7.6,7.6,0,0,0-1.52-3.35,9.11,9.11,0,0,0-5.87-3.38,12.05,12.05,0,0,0-6,.67,15.87,15.87,0,0,0-4.38,2.49,22.82,22.82,0,0,0-2.79,2.62c-.71.78-1.22,1.43-1.57,1.86a5,5,0,0,1-.54.66s0-.07.11-.19.19-.3.35-.53c.32-.46.81-1.12,1.5-1.93a21,21,0,0,1,2.76-2.72,15.76,15.76,0,0,1,4.43-2.61,12.53,12.53,0,0,1,6.19-.75,9.58,9.58,0,0,1,6.18,3.51,8.06,8.06,0,0,1,1.63,3.57,6.88,6.88,0,0,1-.51,4.06,7.08,7.08,0,0,1-2.77,3.22,5.83,5.83,0,0,1-4.31.7,7.66,7.66,0,0,1-3.79-2.18,8.73,8.73,0,0,1-2.14-3.66,15,15,0,0,1,.09-7.89,29.9,29.9,0,0,1,12.81-17.75,24.22,24.22,0,0,1,2.13-1.21A6.55,6.55,0,0,1,459.53,346.1Z" style="fill:#fff"></path><path d="M349.26,453.41a5.49,5.49,0,0,1-.86-.16l-2.44-.52-9-1.78c-3.81-.74-8.36-1.61-13.39-2.66-2.52-.52-5.15-1.09-7.88-1.74a52.21,52.21,0,0,1-8.32-2.52,27.9,27.9,0,0,1-12.77-10.63,42.25,42.25,0,0,1-5-12.71,60.19,60.19,0,0,1-1.4-9.12c-.07-1.08-.12-1.93-.12-2.5a6.39,6.39,0,0,1,0-.87,5.53,5.53,0,0,1,.1.87c0,.57.12,1.41.22,2.49a69.42,69.42,0,0,0,1.55,9A43.14,43.14,0,0,0,295,433.15a27.63,27.63,0,0,0,12.57,10.41,53.38,53.38,0,0,0,8.23,2.49c2.72.66,5.35,1.24,7.86,1.77L337,450.59c3.8.79,6.88,1.44,9,1.94,1.06.25,1.88.45,2.43.62A4.41,4.41,0,0,1,349.26,453.41Z" style="fill:#455a64"></path><path d="M391.18,441.68l3.47-1.58,5.35-6.33a8.24,8.24,0,0,1,7.85-2.78l12.45,2.36-3.36,16.42H390.08Z" style="fill:#ffbe9d"></path><path d="M404.46,235.53c-5.27-3.08-12.4.61-18-1.91-3.38-1.54-5.38-5-8.11-7.5-4.09-3.75-10.66-5.75-16-4.45s-9.11,3.18-11,8.39c-3.78-3.55-12.39.23-16.14,5s-4.42,10.38-4.36,16.41a79.65,79.65,0,0,0,6.37,30.32c.36.84,1,1.84,1.92,1.65.62-.13,1-.78,1.21-1.37,2.07-5,2.67-10.49,3.46-15.86s1.86-10.84,4.7-15.46,7.85-8.27,13.28-8.06c4,.15,7.68,2.33,10.63,5s5.33,6,8.06,8.92,5.93,5.63,9.78,6.72,8.47.24,11-2.89,1.82-8.59-1.81-10.31a7.88,7.88,0,0,0,5.08-14.6Z" style="fill:#263238"></path><path d="M338.62,255l-8.29,60.27a18.1,18.1,0,0,0,16.35,20.5h0a18.11,18.11,0,0,0,19.51-15.59c.62-4.54,1.15-8.32,1.24-8.79,0,0,15.55.67,18.74-14.36,1.55-7.27,3.51-22.49,5.13-36.28a28.63,28.63,0,0,0-22.84-31.4L367,229C351.15,226.82,340.4,239.06,338.62,255Z" style="fill:#ffbe9d"></path><path d="M367.5,311.16A35.74,35.74,0,0,1,349,301.65s2.48,11.78,17.79,13.42Z" style="fill:#eb996e"></path><path d="M384.89,269.94a2.19,2.19,0,0,1-2.51,1.76,2.11,2.11,0,0,1-1.83-2.38,2.19,2.19,0,0,1,2.51-1.76A2.09,2.09,0,0,1,384.89,269.94Z" style="fill:#263238"></path><path d="M386.58,267.48c-.32.22-1.71-1.31-4-1.77s-4.24.37-4.44,0c-.09-.15.28-.6,1.13-1a6,6,0,0,1,3.62-.37,5.84,5.84,0,0,1,3.14,1.75C386.6,266.82,386.74,267.38,386.58,267.48Z" style="fill:#263238"></path><path d="M362,266.19a2.2,2.2,0,0,1-2.51,1.76,2.1,2.1,0,0,1-1.83-2.39,2.19,2.19,0,0,1,2.51-1.75A2.09,2.09,0,0,1,362,266.19Z" style="fill:#263238"></path><path d="M363.73,263.36c-.32.23-1.71-1.31-4-1.76s-4.24.36-4.44,0c-.1-.15.27-.61,1.12-1a6.09,6.09,0,0,1,3.63-.37,5.84,5.84,0,0,1,3.14,1.75C363.75,262.7,363.89,263.26,363.73,263.36Z" style="fill:#263238"></path><path d="M368.71,282.21a15.92,15.92,0,0,1,3.89.08c.61,0,1.19,0,1.37-.34a3.17,3.17,0,0,0,0-1.83c-.27-1.54-.56-3.16-.85-4.85-1.15-6.9-1.86-12.52-1.58-12.56s1.44,5.51,2.58,12.4c.27,1.7.53,3.32.77,4.87a3.47,3.47,0,0,1-.15,2.38,1.51,1.51,0,0,1-1.15.67,4.14,4.14,0,0,1-1-.06C370.15,282.63,368.69,282.35,368.71,282.21Z" style="fill:#263238"></path><path d="M361.57,282.45c.38.06-.12,2.57,1.68,4.79s4.52,2.47,4.47,2.82c0,.17-.69.37-1.83.18a6.41,6.41,0,0,1-3.76-2.22,5.55,5.55,0,0,1-1.25-4C361,283,361.4,282.41,361.57,282.45Z" style="fill:#263238"></path><path d="M366.14,254.4c-.35.59-2.6-.17-5.39-.39s-5.12.09-5.37-.55c-.11-.3.39-.82,1.4-1.25a9.36,9.36,0,0,1,8.2.72C365.9,253.53,366.3,254.12,366.14,254.4Z" style="fill:#263238"></path><path d="M387.07,260.6c-.51.45-2-.42-3.91-.83s-3.61-.35-3.88-1c-.11-.3.25-.77,1.06-1.13a5.82,5.82,0,0,1,6.28,1.46C387.19,259.8,387.3,260.38,387.07,260.6Z" style="fill:#263238"></path><path d="M337.62,266.38c-.23-.16-9.74-5.13-11.47,5.24s9,10,9.11,9.67S337.62,266.38,337.62,266.38Z" style="fill:#ffbe9d"></path><path d="M332.74,276.84s-.2.09-.53.18a1.77,1.77,0,0,1-1.35-.2c-1-.58-1.66-2.47-1.4-4.35a6,6,0,0,1,.94-2.5,2.08,2.08,0,0,1,1.59-1.16.93.93,0,0,1,1,.67c.09.31,0,.51,0,.54s.25-.14.24-.58a1.17,1.17,0,0,0-.3-.72,1.33,1.33,0,0,0-.95-.43,2.59,2.59,0,0,0-2.16,1.29,6.22,6.22,0,0,0-1.11,2.79c-.28,2.1.47,4.23,1.89,4.91a2,2,0,0,0,1.7,0C332.68,277.08,332.78,276.86,332.74,276.84Z" style="fill:#eb996e"></path><path d="M395.12,258.23A22.19,22.19,0,0,1,376.65,250c-3-3.84-5-8.87-9.29-11.2a12.49,12.49,0,0,0-9.62-.59,24.14,24.14,0,0,0-8.4,5.1c1.38,8.24-2.28,16.4-5.85,24a4.17,4.17,0,0,1-1.68,2.13c-1.41.7-3.08-.4-3.92-1.72-1.35-2.12-1.51-4.77-1.46-7.28a43.34,43.34,0,0,1,3.44-16.69,29.36,29.36,0,0,1,10.84-13,27.89,27.89,0,0,1,20.63-3.42,34.25,34.25,0,0,1,18.07,10.85,20,20,0,0,1,4.88,8.56" style="fill:#263238"></path><path d="M408.06,240a2.18,2.18,0,0,1-.27.87,4.22,4.22,0,0,1-1.86,1.84,6.72,6.72,0,0,1-4.11.52,11.52,11.52,0,0,1-2.52-.67,5.7,5.7,0,0,1-2.39-1.74,3.71,3.71,0,0,1-.7-3.17,3.23,3.23,0,0,1,2.71-2.19,4,4,0,0,1,1.9.13,3.37,3.37,0,0,1,1.61,1.15,4.77,4.77,0,0,1,.82,3.91,5.55,5.55,0,0,1-2.38,3.45,8.44,8.44,0,0,1-4.16,1.38,13.87,13.87,0,0,1-8.61-2.72,40.24,40.24,0,0,1-6.71-6.11,51,51,0,0,0-6-5.8,15.61,15.61,0,0,0-6.74-3.13,14.79,14.79,0,0,0-6.48.35,18.61,18.61,0,0,0-8.08,4.85,25,25,0,0,0-1.75,1.92c-.37.46-.57.71-.58.7s0-.07.11-.2.21-.32.39-.56a20.12,20.12,0,0,1,1.69-2,18.4,18.4,0,0,1,8.12-5.06,15.18,15.18,0,0,1,6.65-.42,16.06,16.06,0,0,1,7,3.18,50.45,50.45,0,0,1,6.11,5.83,39.42,39.42,0,0,0,6.62,6,13.44,13.44,0,0,0,8.29,2.64,8,8,0,0,0,3.91-1.28,5,5,0,0,0,2.19-3.14,4.34,4.34,0,0,0-.71-3.53,3.16,3.16,0,0,0-3.08-1.14,2.87,2.87,0,0,0-2.4,1.88,3.34,3.34,0,0,0,.62,2.84,5.28,5.28,0,0,0,2.21,1.65,10.78,10.78,0,0,0,2.45.69,6.55,6.55,0,0,0,4-.41,4.28,4.28,0,0,0,1.86-1.7A7.52,7.52,0,0,0,408.06,240Z" style="fill:#455a64"></path><path d="M331.56,243.53a17.42,17.42,0,0,0,3,1.45,9.24,9.24,0,0,0,3.52.33,15.25,15.25,0,0,0,4.24-1.09,12.31,12.31,0,0,0,5.81-5.22,26.06,26.06,0,0,0,1.33-3.06,2.81,2.81,0,0,1-.13.91,10.18,10.18,0,0,1-.87,2.32,12,12,0,0,1-5.94,5.53,14.92,14.92,0,0,1-4.4,1.09,9.11,9.11,0,0,1-3.68-.46,8.78,8.78,0,0,1-2.2-1.18A2.82,2.82,0,0,1,331.56,243.53Z" style="fill:#455a64"></path><path d="M330.52,251.08c0-.09,1.18.41,3.15.69a14.37,14.37,0,0,0,13.61-5.54c1.21-1.58,1.68-2.74,1.77-2.7a2.68,2.68,0,0,1-.28.83,13,13,0,0,1-1.19,2.09,13.93,13.93,0,0,1-14,5.69,12.36,12.36,0,0,1-2.3-.66A2.72,2.72,0,0,1,330.52,251.08Z" style="fill:#455a64"></path><path d="M354.07,271.67a.29.29,0,1,1,.26-.29A.28.28,0,0,1,354.07,271.67Z" style="fill:#eb996e"></path><path d="M358.69,271.55a.34.34,0,1,1,.27-.33A.31.31,0,0,1,358.69,271.55Z" style="fill:#eb996e"></path><path d="M361.69,272.07c-.14,0-.25-.21-.23-.44s.15-.42.29-.41.25.21.23.44S361.83,272.08,361.69,272.07Z" style="fill:#eb996e"></path><path d="M355.69,274.88c-.14,0-.24-.12-.22-.21s.14-.14.29-.12.24.13.22.22S355.83,274.91,355.69,274.88Z" style="fill:#eb996e"></path><path d="M359.94,274.75a.28.28,0,0,1-.23-.32.26.26,0,1,1,.52.05A.28.28,0,0,1,359.94,274.75Z" style="fill:#eb996e"></path><ellipse cx="381.56" cy="276.15" rx="0.26" ry="0.29" style="fill:#eb996e"></ellipse><path d="M384.63,276.77a.33.33,0,0,1,.07-.65.3.3,0,0,1,.22.35C384.9,276.65,384.77,276.79,384.63,276.77Z" style="fill:#eb996e"></path><path d="M378.88,276a.25.25,0,0,1-.26-.23.25.25,0,0,1,.26-.23.25.25,0,0,1,.26.23A.24.24,0,0,1,378.88,276Z" style="fill:#eb996e"></path><path d="M380.51,279.45a.27.27,0,0,1-.31-.23.26.26,0,1,1,.31.23Z" style="fill:#eb996e"></path><path d="M383.19,279.45a.23.23,0,0,1-.13-.31.24.24,0,0,1,.33-.08.22.22,0,1,1-.2.39Z" style="fill:#eb996e"></path><path d="M328.06,278.81a6.53,6.53,0,0,0-.75,2.28,3.46,3.46,0,0,0,.69,2.38,3.17,3.17,0,0,0,2.63,1.29,2.9,2.9,0,0,0,2.41-1.6,3.75,3.75,0,0,0,0-2.49,5.26,5.26,0,0,0-1.14-2.1c0-.08,1,.45,1.5,2a4,4,0,0,1,0,2.79,3.32,3.32,0,0,1-2.81,1.92,3.57,3.57,0,0,1-3.05-1.52,3.79,3.79,0,0,1-.68-2.7,4.19,4.19,0,0,1,.65-1.75C327.84,278.94,328,278.79,328.06,278.81Z" style="fill:#263238"></path><path d="M328.44,277.07s.35.21.43.82a1.5,1.5,0,0,1-.26,1,1.55,1.55,0,0,1-1.14.67,1.41,1.41,0,0,1-1.22-.57,1.19,1.19,0,0,1-.18-1.08c.21-.61.68-.69.68-.63s-.26.26-.32.72a.85.85,0,0,0,.2.7,1,1,0,0,0,.8.34,1.15,1.15,0,0,0,.8-.44,1.27,1.27,0,0,0,.27-.73C328.53,277.42,328.37,277.11,328.44,277.07Z" style="fill:#263238"></path><polygon points="512.43 388.43 483.13 453.41 355.54 453.41 356.06 450.11 400.27 449.36 422.57 388.72 512.43 388.43" style="fill:#455a64"></polygon><path d="M454.06,417.87A5,5,0,0,1,461.3,421a4.87,4.87,0,0,1-4.62,5.82,4.66,4.66,0,0,1-4.68-3.09c-.56-1.94.06-4.83,2.06-5.85" style="fill:#ebebeb"></path></g><g id="Books--inject-1"><rect x="188.62" y="378.6" width="17.63" height="20.96" style="fill:#f5f5f5"></rect><rect x="109.54" y="377.23" width="79.68" height="23.65" style="fill:#4550E6"></rect><path d="M206.79,379.22h-19.7v-2h19.7a1,1,0,0,1,1,1h0A1,1,0,0,1,206.79,379.22Z" style="fill:#4550E6"></path><path d="M206.79,400.88h-19.7v-2h19.7a1,1,0,0,1,1,1h0A1,1,0,0,1,206.79,400.88Z" style="fill:#4550E6"></path><g style="opacity:0.4"><rect x="173.55" y="377.23" width="9.41" height="23.65"></rect></g><g style="opacity:0.4"><rect x="116.61" y="377.23" width="9.41" height="23.65"></rect></g><path d="M206.25,382.07c0,.05-3.82.1-8.52.1s-8.53-.05-8.53-.1,3.82-.11,8.53-.11S206.25,382,206.25,382.07Z" style="fill:#e0e0e0"></path><path d="M206.25,385.21c0,.06-3.82.1-8.52.1s-8.53,0-8.53-.1,3.82-.11,8.53-.11S206.25,385.15,206.25,385.21Z" style="fill:#e0e0e0"></path><path d="M206.25,389.08c0,.06-3.82.1-8.52.1s-8.53,0-8.53-.1,3.82-.1,8.53-.1S206.25,389,206.25,389.08Z" style="fill:#e0e0e0"></path><path d="M206.25,393c0,.06-3.82.11-8.52.11s-8.53-.05-8.53-.11,3.82-.1,8.53-.1S206.25,392.89,206.25,393Z" style="fill:#e0e0e0"></path><path d="M206.25,396.82c0,.06-3.82.11-8.52.11s-8.53-.05-8.53-.11,3.82-.1,8.53-.1S206.25,396.76,206.25,396.82Z" style="fill:#e0e0e0"></path><g style="opacity:0.2"><rect x="132.64" y="386.95" width="35.85" height="4.26"></rect></g><rect x="188.17" y="401.34" width="17.9" height="12.77" style="fill:#fafafa"></rect><rect x="112.18" y="400.88" width="76.19" height="13.7" style="fill:#455a64"></rect><path d="M187.82,401.81h19.24a.47.47,0,0,0,.46-.47h0a.47.47,0,0,0-.46-.46H187.82Z" style="fill:#455a64"></path><path d="M187.82,413.65H207.1a.42.42,0,0,1,.42.42v.09a.42.42,0,0,1-.42.42H187.82a0,0,0,0,1,0,0v-.93A0,0,0,0,1,187.82,413.65Z" style="fill:#455a64"></path><path d="M206.07,403.77c0,.06-4,.1-8.85.1s-8.85,0-8.85-.1,4-.11,8.85-.11S206.07,403.71,206.07,403.77Z" style="fill:#e0e0e0"></path><path d="M206.07,406.19c0,.05-4,.1-8.85.1s-8.85-.05-8.85-.1,4-.11,8.85-.11S206.07,406.13,206.07,406.19Z" style="fill:#e0e0e0"></path><path d="M206.07,408.6c0,.06-4,.11-8.85.11s-8.85,0-8.85-.11,4-.1,8.85-.1S206.07,408.54,206.07,408.6Z" style="fill:#e0e0e0"></path><path d="M206.07,411c0,.06-4,.1-8.85.1s-8.85,0-8.85-.1,4-.11,8.85-.11S206.07,411,206.07,411Z" style="fill:#e0e0e0"></path><rect x="190.51" y="415.8" width="18.27" height="34.62" style="fill:#ebebeb"></rect><rect x="104.74" y="414.58" width="85.77" height="37.54" style="fill:#4550E6"></rect><path d="M210.22,452.12H188.17v-2.43h22.05a1.21,1.21,0,0,1,1.21,1.21h0A1.22,1.22,0,0,1,210.22,452.12Z" style="fill:#4550E6"></path><path d="M188.17,414.58h22.16a1.1,1.1,0,0,1,1.1,1.1v.23a1.1,1.1,0,0,1-1.1,1.1H188.17a0,0,0,0,1,0,0v-2.43A0,0,0,0,1,188.17,414.58Z" style="fill:#4550E6"></path><path d="M208.79,420.44c0,.06-4.09.1-9.14.1s-9.14,0-9.14-.1,4.09-.11,9.14-.11S208.79,420.38,208.79,420.44Z" style="fill:#e0e0e0"></path><path d="M208.79,424.88c0,.06-4.09.1-9.14.1s-9.14,0-9.14-.1,4.09-.11,9.14-.11S208.79,424.82,208.79,424.88Z" style="fill:#e0e0e0"></path><path d="M208.79,429.32c0,.06-4.09.1-9.14.1s-9.14,0-9.14-.1,4.09-.11,9.14-.11S208.79,429.26,208.79,429.32Z" style="fill:#e0e0e0"></path><path d="M208.79,433.76c0,.06-4.09.1-9.14.1s-9.14,0-9.14-.1,4.09-.11,9.14-.11S208.79,433.7,208.79,433.76Z" style="fill:#e0e0e0"></path><path d="M208.79,438.2c0,.06-4.09.1-9.14.1s-9.14,0-9.14-.1,4.09-.1,9.14-.1S208.79,438.14,208.79,438.2Z" style="fill:#e0e0e0"></path><path d="M208.79,442.64c0,.06-4.09.11-9.14.11s-9.14-.05-9.14-.11,4.09-.1,9.14-.1S208.79,442.58,208.79,442.64Z" style="fill:#e0e0e0"></path><path d="M208.79,447.08c0,.06-4.09.11-9.14.11s-9.14-.05-9.14-.11,4.09-.1,9.14-.1S208.79,447,208.79,447.08Z" style="fill:#e0e0e0"></path><path d="M134.09,435.4v2.09c0,2.52-1.26,4-3.68,4s-3.69-1.44-3.69-4v-8.17c0-2.52,1.26-4,3.69-4s3.68,1.44,3.68,4v1.52h-2.34v-1.68c0-1.12-.49-1.55-1.28-1.55s-1.28.43-1.28,1.55v8.49c0,1.12.5,1.53,1.28,1.53s1.28-.41,1.28-1.53V435.4Z" style="fill:#ebebeb"></path><path d="M135.39,429.32c0-2.52,1.33-4,3.75-4s3.75,1.44,3.75,4v8.17c0,2.52-1.32,4-3.75,4s-3.75-1.44-3.75-4Zm2.47,8.33c0,1.12.5,1.55,1.28,1.55s1.28-.43,1.28-1.55v-8.49c0-1.12-.49-1.55-1.28-1.55s-1.28.43-1.28,1.55Z" style="fill:#ebebeb"></path><path d="M144.49,425.54H147V439H151v2.25h-6.53Z" style="fill:#ebebeb"></path><path d="M151.9,429.32c0-2.52,1.32-4,3.75-4s3.75,1.44,3.75,4v8.17c0,2.52-1.33,4-3.75,4s-3.75-1.44-3.75-4Zm2.47,8.33c0,1.12.49,1.55,1.28,1.55s1.28-.43,1.28-1.55v-8.49c0-1.12-.5-1.55-1.28-1.55s-1.28.43-1.28,1.55Z" style="fill:#ebebeb"></path><path d="M163.35,425.54v12.13c0,1.13.49,1.53,1.28,1.53s1.28-.4,1.28-1.53V425.54h2.34v12c0,2.52-1.26,4-3.69,4s-3.68-1.44-3.68-4v-12Z" style="fill:#ebebeb"></path><path d="M175.09,441.27a5,5,0,0,1-.22-1.94v-2.47c0-1.46-.49-2-1.62-2h-.85v6.41h-2.47V425.54h3.73c2.56,0,3.66,1.19,3.66,3.62v1.23c0,1.62-.52,2.68-1.62,3.19,1.24.52,1.64,1.71,1.64,3.35v2.43a4.61,4.61,0,0,0,.27,1.91Zm-2.69-13.48v4.83h1c.92,0,1.48-.41,1.48-1.66v-1.55c0-1.13-.38-1.62-1.26-1.62Z" style="fill:#ebebeb"></path><path d="M133.56,406.27h-1.81l.1-.46H136l-.1.46h-1.79l-.93,4.64h-.53Z" style="fill:#263238"></path><path d="M139.45,407.08l-2.8,4.33c-.47.73-.83.95-1.38.95a1.23,1.23,0,0,1-.91-.34l.27-.38a.89.89,0,0,0,.68.28c.33,0,.59-.15.88-.62l.27-.41-1-3.81H136l.8,3.26,2.09-3.26Z" style="fill:#263238"></path><path d="M143.72,408.67a2.16,2.16,0,0,1-2.17,2.28,1.44,1.44,0,0,1-1.46-.84l-.44,2.22h-.52l1-5.25h.5l-.12.61a1.92,1.92,0,0,1,1.49-.64A1.55,1.55,0,0,1,143.72,408.67Zm-.53,0a1.12,1.12,0,0,0-1.26-1.2,1.67,1.67,0,0,0-1.65,1.8,1.12,1.12,0,0,0,1.26,1.19A1.67,1.67,0,0,0,143.19,408.7Z" style="fill:#263238"></path><path d="M144.32,409.32a2.18,2.18,0,0,1,2.22-2.27,1.57,1.57,0,0,1,1.74,1.62,2.17,2.17,0,0,1-2.21,2.28A1.58,1.58,0,0,1,144.32,409.32Zm3.45-.62a1.13,1.13,0,0,0-1.27-1.2,1.69,1.69,0,0,0-1.66,1.8,1.12,1.12,0,0,0,1.26,1.19A1.68,1.68,0,0,0,147.77,408.7Z" style="fill:#263238"></path><path d="M153.25,407.08l-.67,3.37a2,2,0,0,1-2.24,1.91,2.42,2.42,0,0,1-1.7-.57l.3-.4a2,2,0,0,0,1.44.52,1.5,1.5,0,0,0,1.66-1.38l.09-.42a2,2,0,0,1-1.53.66,1.52,1.52,0,0,1-1.69-1.55,2.12,2.12,0,0,1,2.19-2.17,1.47,1.47,0,0,1,1.49.87l.16-.84Zm-.88,1.54c0-.7-.47-1.12-1.27-1.12a1.63,1.63,0,0,0-1.67,1.69c0,.7.47,1.12,1.27,1.12A1.63,1.63,0,0,0,152.37,408.62Z" style="fill:#263238"></path><path d="M156.63,407.05l-.1.5h-.14a1.51,1.51,0,0,0-1.55,1.43l-.39,1.94h-.52l.76-3.83h.5l-.14.7A1.73,1.73,0,0,1,156.63,407.05Z" style="fill:#263238"></path><path d="M161,407.08l-.77,3.83h-.5l.13-.6a2,2,0,0,1-1.5.64,1.55,1.55,0,0,1-1.67-1.63,2.16,2.16,0,0,1,2.17-2.27,1.45,1.45,0,0,1,1.46.83l.16-.8Zm-.86,1.62a1.13,1.13,0,0,0-1.27-1.2,1.69,1.69,0,0,0-1.66,1.8,1.12,1.12,0,0,0,1.26,1.19A1.68,1.68,0,0,0,160.17,408.7Z" style="fill:#263238"></path><path d="M166,408.67a2.16,2.16,0,0,1-2.18,2.28,1.44,1.44,0,0,1-1.46-.84l-.43,2.22h-.52l1-5.25h.5l-.13.61a2,2,0,0,1,1.5-.64A1.55,1.55,0,0,1,166,408.67Zm-.53,0a1.12,1.12,0,0,0-1.26-1.2,1.67,1.67,0,0,0-1.66,1.8,1.12,1.12,0,0,0,1.26,1.19A1.67,1.67,0,0,0,165.48,408.7Z" style="fill:#263238"></path><path d="M170.65,408.3a3.44,3.44,0,0,1,0,.43l-.44,2.18h-.52l.44-2.19a2.14,2.14,0,0,0,0-.34c0-.55-.32-.87-1-.87a1.5,1.5,0,0,0-1.56,1.35l-.41,2.05h-.52l1.08-5.41h.52l-.43,2.15a1.9,1.9,0,0,1,1.47-.6A1.2,1.2,0,0,1,170.65,408.3Z" style="fill:#263238"></path><path d="M175.5,407.08l-2.8,4.33c-.48.73-.84.95-1.39.95a1.23,1.23,0,0,1-.91-.34l.28-.38a.85.85,0,0,0,.67.28c.33,0,.59-.15.89-.62l.27-.41-1-3.81h.53l.79,3.26,2.09-3.26Z" style="fill:#263238"></path><g style="opacity:0.30000000000000004"><polygon points="126.03 414.58 114.22 452.12 104.74 452.12 104.74 414.58 126.03 414.58"></polygon></g></g><g id="Plant--inject-1"><path d="M152.15,359.36c-5.55-3.22-8.53-10.71-8.75-16.85s2.33-12.53,7.36-16.05a16.86,16.86,0,0,1,18.29-.15,19,19,0,0,1,8.39,16.53,21.89,21.89,0,0,1-9,16.46" style="fill:#4550E6"></path><path d="M161,360a8,8,0,0,1-.1-1.41c0-1-.06-2.28-.11-3.82-.08-3.23-.21-7.69-.42-12.62s-.49-9.38-.69-12.6c-.09-1.54-.17-2.82-.23-3.82a8.9,8.9,0,0,1,0-1.41,6.57,6.57,0,0,1,.23,1.39c.11.9.24,2.2.39,3.81.3,3.22.62,7.68.84,12.61s.28,9.4.27,12.63c0,1.62,0,2.93-.06,3.83A6.91,6.91,0,0,1,161,360Z" style="fill:#fff"></path><path d="M145.05,341.12c0,.15-.9.19-2,.1s-1.95-.28-1.94-.42.9-.19,2-.1S145.06,341,145.05,341.12Z" style="fill:#263238"></path><path d="M145.35,335.62c-.06.13-.82-.08-1.71-.47s-1.55-.82-1.49-.95.82.08,1.7.47S145.41,335.49,145.35,335.62Z" style="fill:#263238"></path><path d="M148.18,331.53c-.07.12-.93-.28-1.83-1S144.9,329,145,328.9s.82.49,1.69,1.21S148.26,331.41,148.18,331.53Z" style="fill:#263238"></path><path d="M151,327.68c-.13.06-.54-.59-.92-1.44s-.58-1.59-.44-1.65.54.59.92,1.44S151.16,327.62,151,327.68Z" style="fill:#263238"></path><path d="M155.5,324.94c-.13.06-.57-.62-.87-1.57s-.32-1.77-.18-1.79.39.72.68,1.63S155.63,324.88,155.5,324.94Z" style="fill:#263238"></path><path d="M163,321.86c.14.05.06.63-.18,1.31s-.54,1.18-.68,1.13-.05-.63.19-1.31S162.82,321.81,163,321.86Z" style="fill:#263238"></path><path d="M168.49,324.23c.09.11-.26.6-.8,1.09s-1.05.81-1.14.71.25-.59.79-1.09S168.39,324.13,168.49,324.23Z" style="fill:#263238"></path><path d="M173.35,327.38c.09.12-.35.55-1,1s-1.18.65-1.26.54.35-.56,1-1S173.27,327.26,173.35,327.38Z" style="fill:#263238"></path><path d="M176.81,332.07c.06.13-.62.55-1.52.93s-1.67.59-1.73.45.63-.55,1.52-.93S176.76,331.93,176.81,332.07Z" style="fill:#263238"></path><path d="M178.17,337.18c0,.14-.67.35-1.55.45s-1.59.08-1.61-.06.68-.34,1.55-.45S178.16,337,178.17,337.18Z" style="fill:#263238"></path><path d="M178.88,343.47c-.06.14-.79-.06-1.65-.43s-1.5-.78-1.44-.91.79.06,1.65.43S178.94,343.34,178.88,343.47Z" style="fill:#263238"></path><path d="M178.26,348.87c0,.14-1-.09-2-.73s-1.56-1.4-1.46-1.5.82.47,1.75,1.07S178.31,348.74,178.26,348.87Z" style="fill:#263238"></path><path d="M175.45,353.79c-.09.11-.83-.32-1.55-1.09s-1.09-1.55-1-1.62.68.53,1.36,1.26S175.54,353.68,175.45,353.79Z" style="fill:#263238"></path><path d="M148.74,354.37c.07.13-.71.67-1.74,1.2s-1.92.87-2,.74.72-.66,1.75-1.2S148.68,354.24,148.74,354.37Z" style="fill:#263238"></path><path d="M146.3,349.92c.06.13-.56.55-1.39.92s-1.56.58-1.62.45.57-.54,1.4-.92S146.25,349.79,146.3,349.92Z" style="fill:#263238"></path><path d="M144.51,346c0,.15-.75.37-1.72.51s-1.78.13-1.8,0,.76-.37,1.73-.51S144.49,345.84,144.51,346Z" style="fill:#263238"></path><path d="M150.39,343.81c.05.14-.71.49-1.71.6s-1.81-.06-1.8-.2.79-.21,1.74-.32S150.35,343.67,150.39,343.81Z" style="fill:#263238"></path><path d="M155.28,339c0,.14-.56.44-1.37.52s-1.45-.1-1.43-.24.63-.21,1.38-.28S155.24,338.81,155.28,339Z" style="fill:#263238"></path><path d="M156.21,335.06c-.05.13-.69,0-1.45-.23s-1.32-.58-1.27-.71.69,0,1.44.22S156.26,334.92,156.21,335.06Z" style="fill:#263238"></path><path d="M158,331.12c-.1.1-.54-.19-.86-.75s-.35-1.08-.21-1.12.38.37.66.86S158.11,331,158,331.12Z" style="fill:#263238"></path><path d="M155.84,347.24c0,.14-.52.4-1.25.58a4.93,4.93,0,0,1-1.05.15l-.11-.3c.19,0,.31,0,.34,0s-.05.15-.21.26l-.1-.3a4.46,4.46,0,0,1,1-.35C155.19,347.13,155.81,347.1,155.84,347.24Z" style="fill:#263238"></path><path d="M156.85,354.15c.05.13-.66.54-1.6.9s-1.73.56-1.79.43.67-.54,1.6-.91S156.8,354,156.85,354.15Z" style="fill:#263238"></path><path d="M151.33,351.08c0,.13-.43.42-1.06.64s-1.19.28-1.24.14.43-.42,1.07-.64S151.28,350.94,151.33,351.08Z" style="fill:#263238"></path><path d="M151.75,337c0,.13-.86.05-1.82-.29s-1.66-.8-1.6-.93.84.11,1.77.44S151.79,336.88,151.75,337Z" style="fill:#263238"></path><path d="M165.11,335.5c.08.12-.39.57-1.05,1s-1.25.68-1.33.56.39-.56,1.05-1S165,335.38,165.11,335.5Z" style="fill:#263238"></path><path d="M165.83,342.43c0,.14-.46.36-1.09.49s-1.18.13-1.21,0,.46-.36,1.1-.5S165.81,342.29,165.83,342.43Z" style="fill:#263238"></path><path d="M166.68,350.23c-.06.13-.77-.07-1.58-.45s-1.43-.79-1.36-.92.76.07,1.58.45S166.74,350.1,166.68,350.23Z" style="fill:#263238"></path><path d="M164.89,357.82c-.11.09-.57-.29-1-.84s-.74-1.08-.63-1.17.57.28,1,.84S165,357.72,164.89,357.82Z" style="fill:#263238"></path><path d="M164.53,330.39c.08.11-.22.5-.74.76s-1,.27-1,.14.34-.37.81-.61S164.44,330.28,164.53,330.39Z" style="fill:#263238"></path><path d="M171.07,337.39c.05.13-.56.46-1.38.58s-1.51,0-1.5-.18.65-.23,1.42-.34S171,337.25,171.07,337.39Z" style="fill:#263238"></path><path d="M169.77,331.11c.06.12-.54.55-1.39.83s-1.6.27-1.62.13.64-.37,1.46-.63S169.7,331,169.77,331.11Z" style="fill:#263238"></path><path d="M172.5,347.11a6.32,6.32,0,0,1-4.39-.8,7.1,7.1,0,0,1,2.21.29A6.91,6.91,0,0,1,172.5,347.11Z" style="fill:#263238"></path><path d="M170.07,356.23c-.09.11-.85-.34-1.6-1.1s-1.2-1.52-1.09-1.6.73.5,1.46,1.23S170.16,356.11,170.07,356.23Z" style="fill:#263238"></path><path d="M159.37,323.69a23.42,23.42,0,0,0-4.56,3.61,22.28,22.28,0,0,0-5.69,12.57,28.15,28.15,0,0,0,.35,7.7,56.7,56.7,0,0,0,1.44,6.18c.5,1.74,1,3.13,1.27,4.1a9.47,9.47,0,0,1,.43,1.51,8.62,8.62,0,0,1-.63-1.44c-.36-.95-.88-2.33-1.42-4.07a51.5,51.5,0,0,1-1.57-6.2,27.92,27.92,0,0,1-.38-7.85A21.93,21.93,0,0,1,154.54,327a16.21,16.21,0,0,1,3.41-2.66,10.9,10.9,0,0,1,1-.54C159.24,323.72,159.37,323.67,159.37,323.69Z" style="fill:#fff"></path><path d="M166.48,359.7a59.71,59.71,0,0,0,2.34-5.59,31.8,31.8,0,0,0,1.4-14.39,27.33,27.33,0,0,0-2.22-7.66,18.19,18.19,0,0,0-3.78-5.27,13.8,13.8,0,0,0-3.71-2.34c-1-.4-1.54-.5-1.53-.54a1.17,1.17,0,0,1,.43,0,7.75,7.75,0,0,1,1.18.32,12.91,12.91,0,0,1,3.87,2.25,17.78,17.78,0,0,1,4,5.34,26.63,26.63,0,0,1,2.3,7.8,30.55,30.55,0,0,1-1.57,14.58c-.29.9-.67,1.67-.95,2.36s-.61,1.26-.87,1.72A10.66,10.66,0,0,1,166.48,359.7Z" style="fill:#fff"></path><polygon points="146.31 358.47 175.01 358.47 175.19 364.21 146.31 364.21 146.31 358.47" style="fill:#263238"></polygon><polygon points="148.74 361.34 150.39 378.88 171.38 378.88 173.06 361.53 148.74 361.34" style="fill:#263238"></polygon><path d="M175.19,364.28c0,.15-6.47.26-14.44.26s-14.44-.11-14.44-.26,6.46-.26,14.44-.26S175.19,364.14,175.19,364.28Z" style="fill:#455a64"></path><path d="M172.27,369.62a4.37,4.37,0,0,1-.62,1.1,15.72,15.72,0,0,1-2.22,2.63l-.13.13-.13-.14a42.39,42.39,0,0,0-5.63-4.93h.32l-2.5,2.19-2.94,2.57-.17.14-.16-.14-4.79-4,.27,0c-1,1.21-1.82,2.22-2.47,3a7,7,0,0,1-1,1.06,7.71,7.71,0,0,1,.8-1.2l2.35-3.13.12-.16.16.13,4.86,3.94h-.33L161,370.2l2.5-2.18.16-.14.16.12a37.29,37.29,0,0,1,5.6,5.09h-.26A28.73,28.73,0,0,0,172.27,369.62Z" style="fill:#455a64"></path></g><g id="Window--inject-1"><rect x="548.65" y="357.13" width="99.86" height="72.92" style="fill:#fff"></rect><rect x="548.65" y="357.13" width="99.86" height="9.11" style="fill:#4550E6"></rect><path d="M554.07,362a1,1,0,1,1-1-1.14A1.09,1.09,0,0,1,554.07,362Z" style="fill:#fff"></path><path d="M558.3,362a1,1,0,1,1-1-1.14A1.1,1.1,0,0,1,558.3,362Z" style="fill:#fff"></path><path d="M562.52,362a1,1,0,1,1-1-1.14A1.09,1.09,0,0,1,562.52,362Z" style="fill:#fff"></path><rect x="558.15" y="375.17" width="14.23" height="35.8" style="fill:#4550E6"></rect><rect x="580.09" y="375.17" width="14.23" height="35.8" style="fill:#ebebeb"></rect><rect x="602.03" y="375.17" width="14.23" height="35.8" style="fill:#fafafa"></rect><rect x="623.98" y="375.46" width="14.23" height="35.8" style="fill:#e0e0e0"></rect><rect x="556.5" y="414.93" width="86.26" height="8.18" style="fill:#4550E6"></rect><polygon points="636.19 421.43 638.05 431.28 639.57 428.53 642.85 433.44 644.49 432.34 641.21 427.43 644.22 426.97 636.19 421.43" style="fill:#263238"></polygon><path d="M648.51,430.05s0-.46,0-1.34,0-2.18,0-3.87c0-3.4,0-8.37-.05-14.72,0-12.7-.06-30.91-.1-53l.19.19-99.85,0h0l.23-.23c0,26.16,0,51,0,72.92l-.21-.2,72,.1,20.49.05,5.45,0h1.43l-1.39,0-5.4,0-20.45.06-72.16.1h-.2v-.21c0-22,0-46.76,0-72.92v-.23h.24l99.85.05h.18v.18c0,22.13-.07,40.38-.09,53.1,0,6.34,0,11.3-.05,14.68,0,1.68,0,3,0,3.84S648.51,430.05,648.51,430.05Z" style="fill:#263238"></path></g><g id="design-tool--inject-1"><path d="M657.18,262.15c0,.35-25.66.63-57.3.63s-57.32-.28-57.32-.63,25.66-.63,57.32-.63S657.18,261.8,657.18,262.15Z" style="fill:#4550E6"></path><rect x="598.56" y="259.7" width="6.77" height="6.77" style="fill:#4550E6"></rect><path d="M658.47,262.15a2,2,0,1,1-2-2A2,2,0,0,1,658.47,262.15Z" style="fill:#4550E6"></path><circle cx="542.56" cy="262.15" r="2.01" style="fill:#4550E6"></circle><path d="M592.23,243.61l8.57,16,1.1,0-.3-12.82a1.42,1.42,0,1,1,1.67-1.42,1.41,1.41,0,0,1-1.13,1.4l.3,12.82,1,0,8.09-16.74c-6.22-.2-7-6.15-7-6.15l-6,.09C598.71,242.76,592.23,243.61,592.23,243.61Z" style="fill:#4550E6"></path><path d="M648.46,318.29a2.24,2.24,0,0,1,0-.42l0-1.22c0-1.08-.1-2.66-.25-4.7A72.45,72.45,0,0,0,645,295a50.35,50.35,0,0,0-4.91-10.82A38.79,38.79,0,0,0,625,269.87a45.25,45.25,0,0,0-7.09-3,54.24,54.24,0,0,0-7.77-1.79,68.69,68.69,0,0,0-8.2-.68c-11.09-.42-21.77,2.93-29.41,8.76a38.8,38.8,0,0,0-9.25,9.95,46.14,46.14,0,0,0-5.13,10.71c-.33.85-.54,1.71-.78,2.55s-.48,1.64-.67,2.44c-.31,1.61-.7,3.12-.91,4.55s-.42,2.77-.58,4-.2,2.37-.29,3.39-.14,1.92-.16,2.71-.06,1.44-.08,2,0,.93-.06,1.23a2.18,2.18,0,0,1,0,.41,1.85,1.85,0,0,1,0-.41c0-.3,0-.71,0-1.23s0-1.21,0-2,0-1.7.11-2.72.17-2.16.26-3.4.34-2.57.53-4,.57-2.95.88-4.58c.18-.8.43-1.61.65-2.46s.44-1.71.77-2.57a46.38,46.38,0,0,1,5.12-10.83,39.07,39.07,0,0,1,9.32-10.09c7.73-5.92,18.51-9.32,29.72-8.9a68.15,68.15,0,0,1,8.26.69,53.05,53.05,0,0,1,7.85,1.82,45.74,45.74,0,0,1,7.17,3,40.85,40.85,0,0,1,6.21,4.13,40.1,40.1,0,0,1,9,10.39,49.8,49.8,0,0,1,4.9,10.94,70.8,70.8,0,0,1,3,17.05c.11,2,.15,3.63.14,4.71,0,.52,0,.92,0,1.22A1.91,1.91,0,0,1,648.46,318.29Z" style="fill:#4550E6"></path></g><g id="Clock--inject-1"><rect x="518.08" y="134.81" width="4.36" height="6.8" transform="translate(35.69 372.65) rotate(-40.7)" style="fill:#263238"></rect><path d="M522.8,134.23,516,140.09l-4.78-5.56a17.06,17.06,0,0,1,6.81-5.86Z" style="fill:#455a64"></path><path d="M517.13,139.11a14.16,14.16,0,0,1-2.7-2.72,14.73,14.73,0,0,1-2.32-3,14.48,14.48,0,0,1,2.71,2.71A14.09,14.09,0,0,1,517.13,139.11Z" style="fill:#263238"></path><path d="M518.43,138a15.45,15.45,0,0,1-2.68-2.86,21.27,21.27,0,0,1-2.33-3.15c.14-.13,1.36,1.15,2.73,2.81A14.5,14.5,0,0,1,518.43,138Z" style="fill:#263238"></path><path d="M520.15,136.5a15.36,15.36,0,0,1-2.68-2.9,18,18,0,0,1-2.32-3.21,13.37,13.37,0,0,1,2.72,2.88A14.37,14.37,0,0,1,520.15,136.5Z" style="fill:#263238"></path><path d="M521.73,135.11a14.68,14.68,0,0,1-2.69-2.75,14.61,14.61,0,0,1-2.29-3.08,14.34,14.34,0,0,1,2.69,2.75A14.61,14.61,0,0,1,521.73,135.11Z" style="fill:#263238"></path><rect x="572.13" y="135.53" width="4.36" height="6.8" transform="translate(277.98 -372.27) rotate(46.3)" style="fill:#263238"></rect><path d="M578.42,141.25l-6.2-6.49,5.3-5.07a17.22,17.22,0,0,1,6.21,6.5Z" style="fill:#455a64"></path><path d="M573.26,135.85a28,28,0,0,1,5.49-5.31,14.61,14.61,0,0,1-2.56,2.84A14.35,14.35,0,0,1,573.26,135.85Z" style="fill:#263238"></path><path d="M574.44,137.09a15.18,15.18,0,0,1,2.72-2.83,21.32,21.32,0,0,1,3-2.49c.14.13-1.07,1.42-2.67,2.88A14.59,14.59,0,0,1,574.44,137.09Z" style="fill:#263238"></path><path d="M576,138.73a15.63,15.63,0,0,1,2.76-2.84,18.61,18.61,0,0,1,3.08-2.48c.12.12-1.11,1.41-2.73,2.87A15.22,15.22,0,0,1,576,138.73Z" style="fill:#263238"></path><path d="M577.49,140.23a28.55,28.55,0,0,1,5.56-5.27,14.09,14.09,0,0,1-2.6,2.82A14.11,14.11,0,0,1,577.49,140.23Z" style="fill:#263238"></path><rect x="545.32" y="123.1" width="5.16" height="8.05" style="fill:#263238"></rect><path d="M553.25,125.51H542.62v-8.68a20.37,20.37,0,0,1,10.63,0Z" style="fill:#4550E6"></path><path d="M553.37,116.87a11.51,11.51,0,0,1-10.8,0,18.09,18.09,0,0,0,10.8,0Z" style="fill:#263238"></path><path d="M546.13,125.49a13.73,13.73,0,0,1-.26-3.72,13.77,13.77,0,0,1,.26-3.73,13.77,13.77,0,0,1,.26,3.73A13.73,13.73,0,0,1,546.13,125.49Z" style="fill:#263238"></path><path d="M548.15,125.54a13.82,13.82,0,0,1-.26-3.74,13.88,13.88,0,0,1,.26-3.74,13.41,13.41,0,0,1,.26,3.74A13.36,13.36,0,0,1,548.15,125.54Z" style="fill:#263238"></path><path d="M550.18,125.51a13.41,13.41,0,0,1-.26-3.74,13.36,13.36,0,0,1,.26-3.74,13.82,13.82,0,0,1,.26,3.74A13.88,13.88,0,0,1,550.18,125.51Z" style="fill:#263238"></path><path d="M551.86,125.51a16.13,16.13,0,0,1-.26-4,16.18,16.18,0,0,1,.26-4,16.18,16.18,0,0,1,.26,4A16.13,16.13,0,0,1,551.86,125.51Z" style="fill:#263238"></path><path d="M544.22,125.45a15.52,15.52,0,0,1-.26-4,15.59,15.59,0,0,1,.26-4,16.13,16.13,0,0,1,.26,4A16.06,16.06,0,0,1,544.22,125.45Z" style="fill:#263238"></path><circle cx="547.28" cy="166.22" r="37.55" style="fill:#4550E6"></circle><circle cx="547.28" cy="165.92" r="31.53" transform="translate(42.97 435.58) rotate(-45)" style="fill:#fafafa"></circle><path d="M578.81,165.92a5,5,0,0,1,0-.51c0-.36-.06-.86-.1-1.5,0-.33,0-.7-.07-1.1s-.13-.84-.2-1.32a23.42,23.42,0,0,0-.66-3.25,30.17,30.17,0,0,0-3.5-8.35,31.51,31.51,0,0,0-21.17-14.73,28.74,28.74,0,0,0-4-.46c-.68,0-1.36-.09-2-.08l-2.08.11c-.34,0-.69,0-1,.07l-1.05.16c-.69.11-1.4.2-2.1.34a33.57,33.57,0,0,0-4.17,1.23,32,32,0,0,0-4.08,1.79c-.66.36-1.3.78-1.95,1.17a15.09,15.09,0,0,0-1.89,1.3,28.16,28.16,0,0,0-6.61,6.64,30.18,30.18,0,0,0-4.47,8.62,30.94,30.94,0,0,0,0,19.73,30.2,30.2,0,0,0,4.48,8.62,33.55,33.55,0,0,0,3.06,3.63,35.9,35.9,0,0,0,3.55,3,15.09,15.09,0,0,0,1.89,1.3c.65.39,1.29.81,1.95,1.17a32,32,0,0,0,4.08,1.79,33.57,33.57,0,0,0,4.17,1.23c.7.14,1.41.22,2.11.34l1,.16c.35.05.7,0,1,.07l2.07.11c.68,0,1.36-.06,2-.08a30.17,30.17,0,0,0,4-.46A31.45,31.45,0,0,0,574.23,182a30.22,30.22,0,0,0,3.5-8.36,23.42,23.42,0,0,0,.66-3.25c.07-.47.16-.91.2-1.31s0-.77.07-1.11c0-.64.07-1.13.1-1.49a5,5,0,0,1,0-.51s0,.17,0,.51,0,.86,0,1.5c0,.33,0,.7,0,1.11s-.12.84-.18,1.32a23.16,23.16,0,0,1-.62,3.28,29.69,29.69,0,0,1-3.44,8.45,31.71,31.71,0,0,1-21.34,15,29.25,29.25,0,0,1-4,.47c-.68,0-1.37.1-2.07.09l-2.1-.11c-.35,0-.71,0-1.06-.06l-1.06-.16c-.71-.12-1.43-.2-2.14-.34a35.16,35.16,0,0,1-4.24-1.24A32.81,32.81,0,0,1,532.3,194c-.67-.37-1.31-.79-2-1.18a18.71,18.71,0,0,1-1.92-1.32,29.09,29.09,0,0,1-6.73-6.74,31.18,31.18,0,0,1-4.55-8.76,31.43,31.43,0,0,1,0-20.07,30.48,30.48,0,0,1,4.55-8.75,29.31,29.31,0,0,1,6.72-6.74,17.24,17.24,0,0,1,1.92-1.32c.67-.39,1.31-.82,2-1.18a32.07,32.07,0,0,1,4.14-1.81,33.43,33.43,0,0,1,4.24-1.24c.71-.14,1.43-.23,2.14-.34l1.06-.16c.35-.05.71,0,1.06-.07l2.1-.1c.7,0,1.39.06,2.07.08a31.09,31.09,0,0,1,4,.48,31.74,31.74,0,0,1,21.34,15,29.92,29.92,0,0,1,3.44,8.45,23.43,23.43,0,0,1,.62,3.28c.06.48.14.92.18,1.33s0,.77,0,1.11c0,.64,0,1.14,0,1.5S578.81,165.92,578.81,165.92Z" style="fill:#263238"></path><path d="M574.21,165.43c-2.88,0-5.22-.1-5.23-.31s2.32-.53,5.19-.69,5.21,0,5.22.3S577.08,165.38,574.21,165.43Z" style="fill:#263238"></path><path d="M566.77,184.5c-2.08-2-3.64-3.73-3.5-3.89s2,1.26,4.18,3.16,3.72,3.64,3.49,3.89S568.84,186.49,566.77,184.5Z" style="fill:#263238"></path><path d="M548.07,192.84c-.08-2.88,0-5.21.25-5.22s.55,2.3.75,5.17.08,5.22-.25,5.23S548.14,195.71,548.07,192.84Z" style="fill:#263238"></path><path d="M528.91,185.62c2-2.1,3.69-3.69,3.85-3.55s-1.23,2-3.11,4.21-3.6,3.77-3.85,3.54S526.94,187.71,528.91,185.62Z" style="fill:#263238"></path><path d="M520.37,167c2.87-.11,5.21,0,5.22.19s-2.3.57-5.17.8-5.2.15-5.23-.19S517.49,167.11,520.37,167Z" style="fill:#263238"></path><path d="M527.38,147.77c2.12,1.94,3.72,3.65,3.58,3.81s-2-1.21-4.24-3.06-3.81-3.56-3.58-3.81S525.26,145.82,527.38,147.77Z" style="fill:#263238"></path><path d="M545.89,139c.14,2.87.08,5.21-.13,5.23s-.6-2.29-.86-5.16-.2-5.21.13-5.23S545.76,136.15,545.89,139Z" style="fill:#263238"></path><path d="M565.21,145.82c-1.92,2.14-3.61,3.77-3.78,3.63s1.19-2.06,3-4.28,3.52-3.84,3.77-3.62S567.13,143.68,565.21,145.82Z" style="fill:#263238"></path><path d="M574.16,164.24c-2.87.17-5.22.13-5.23-.08s2.29-.62,5.15-.92,5.2-.25,5.23.08S577,164.07,574.16,164.24Z" style="fill:#263238"></path><path d="M535,131.8a13.73,13.73,0,0,1-1.63.74,36.49,36.49,0,0,0-21.82,27.81,39.11,39.11,0,0,0-.5,4.84A14.28,14.28,0,0,1,511,167a1.47,1.47,0,0,1-.06-.47c0-.3-.06-.75-.05-1.33a32.81,32.81,0,0,1,.33-4.88,35.33,35.33,0,0,1,17.68-25.86,31.49,31.49,0,0,1,4.43-2.09c.54-.22,1-.34,1.26-.43A1.73,1.73,0,0,1,535,131.8Z" style="fill:#fff"></path><path d="M545.51,129.77a17.25,17.25,0,0,1-3.69.61,17.67,17.67,0,0,1-3.72.35,10.93,10.93,0,0,1,3.66-.86A11,11,0,0,1,545.51,129.77Z" style="fill:#fff"></path><g style="opacity:0.4"><path d="M522.07,184.87s16.34,25.79,41.7,12.58c26.45-13.78,11.84-45.39,11.84-45.39s12.45,25.19-13.35,41.61c-6.42,4.09-13.41,4.09-18.75,3.56C529.87,195.86,522.07,184.87,522.07,184.87Z"></path></g><path d="M556.07,149.16a110.55,110.55,0,0,1-.42,13.86,17.29,17.29,0,0,1-1,4.9,6.56,6.56,0,0,1-3.29,3.63,4.07,4.07,0,0,1-4.6-.9Z" style="fill:#e0e0e0"></path><polygon points="546.59 163.43 558.05 144.13 551.13 165.92 547.6 166.98 546.59 163.43" style="fill:#4550E6"></polygon><g style="opacity:0.4"><polygon points="558.05 144.13 549.55 163.85 551.13 165.92 558.05 144.13"></polygon></g><path d="M551.29,167a3.69,3.69,0,1,1-3.69-3.69A3.69,3.69,0,0,1,551.29,167Z" style="fill:#fafafa"></path><path d="M551.29,167s0-.33-.21-.88a3.75,3.75,0,0,0-1.36-1.91,3.47,3.47,0,1,0,0,5.57,3.75,3.75,0,0,0,1.36-1.91,8.43,8.43,0,0,1,.21-.87,1.87,1.87,0,0,1,0,.92,3.66,3.66,0,0,1-1.33,2.15,3.84,3.84,0,0,1-3.68.62,3.91,3.91,0,0,1,0-7.38,3.82,3.82,0,0,1,3.68.61,3.66,3.66,0,0,1,1.33,2.15A1.92,1.92,0,0,1,551.29,167Z" style="fill:#263238"></path><circle cx="547.6" cy="166.98" r="2.75" style="fill:#455a64"></circle></g><g id="light-bulb--inject-1"><path d="M448,94.08a28,28,0,1,0-38.16,27.82c.21,3.3.45,7,.45,7l24.46-1.58s-.11-4-.28-7.49A28,28,0,0,0,448,94.08Z" style="fill:#4550E6"></path><path d="M425.9,127.81s0-.12,0-.34,0-.58,0-1c.05-.89.12-2.2.26-3.89s.34-3.76.72-6.14a41.35,41.35,0,0,1,2-7.93,27,27,0,0,1,2-4.32,5.19,5.19,0,0,1,1.8-1.84,2.9,2.9,0,0,1,2.66-.08,1.9,1.9,0,0,1,.95,1,1.94,1.94,0,0,1,0,1.44,4,4,0,0,1-2,2,7.65,7.65,0,0,1-5.83,0,7.75,7.75,0,0,1-4.24-4.4,5.89,5.89,0,0,1-.37-3.2A2.52,2.52,0,0,1,426.31,97a1.81,1.81,0,0,1,1.48.9,2.48,2.48,0,0,1,.34,1.7,5.47,5.47,0,0,1-1.78,2.9,8.35,8.35,0,0,1-6.38,2.31,7.26,7.26,0,0,1-5.66-3.68,4.21,4.21,0,0,1-.41-3.36,2.18,2.18,0,0,1,1.15-1.32,2.13,2.13,0,0,1,1.73,0A2.79,2.79,0,0,1,418,97.63a4.35,4.35,0,0,1,.53,1.58,7.93,7.93,0,0,1-.22,3.22,8.33,8.33,0,0,1-3.63,4.93,8.46,8.46,0,0,1-5.72,1.17,4.5,4.5,0,0,1-2.6-1.17,2.18,2.18,0,0,1-.33-2.68,1.87,1.87,0,0,1,1.22-.7,2.59,2.59,0,0,1,1.35.18,4,4,0,0,1,1.83,1.8c.8,1.47,1.45,2.9,2.12,4.27,2.59,5.48,4.47,10,5.74,13.15.63,1.58,1.11,2.8,1.42,3.64.16.4.27.72.36,1l.11.33s-.06-.11-.15-.32l-.38-.94c-.35-.84-.84-2.05-1.48-3.61-1.31-3.12-3.22-7.64-5.84-13.09-.67-1.36-1.34-2.81-2.13-4.24a3.78,3.78,0,0,0-1.71-1.69,1.9,1.9,0,0,0-2.23.44,1.87,1.87,0,0,0,.32,2.3,4.12,4.12,0,0,0,2.43,1.08,8.21,8.21,0,0,0,5.51-1.14,8.05,8.05,0,0,0,3.48-4.75,7.61,7.61,0,0,0,.2-3.08,3,3,0,0,0-1.59-2.47,1.77,1.77,0,0,0-1.46-.05,1.85,1.85,0,0,0-1,1.12,3.92,3.92,0,0,0,.39,3.09,6.92,6.92,0,0,0,5.39,3.5,8,8,0,0,0,6.11-2.22,5.12,5.12,0,0,0,1.68-2.7,2.23,2.23,0,0,0-.28-1.48,1.48,1.48,0,0,0-1.21-.73,2,2,0,0,0-1.36.54,2.36,2.36,0,0,0-.71,1.3,5.5,5.5,0,0,0,.35,3,7.39,7.39,0,0,0,9.63,4.28,3.71,3.71,0,0,0,1.89-1.83,1.65,1.65,0,0,0-.78-2.13,2.64,2.64,0,0,0-2.4.07,5,5,0,0,0-1.7,1.74,25.38,25.38,0,0,0-2,4.27,41.54,41.54,0,0,0-2.07,7.87c-.4,2.37-.62,4.43-.78,6.12s-.25,3-.32,3.89c0,.43-.07.77-.08,1S425.9,127.81,425.9,127.81Z" style="fill:#263238"></path><path d="M433.17,132l-21,1.35a1.58,1.58,0,0,1-1.68-1.47h0a1.59,1.59,0,0,1,1.48-1.68l21-1.36a1.59,1.59,0,0,1,1.68,1.48h0A1.58,1.58,0,0,1,433.17,132Z" style="fill:#263238"></path><path d="M433.26,133.38l-21,1.36a1.58,1.58,0,1,0,.2,3.15l2.31-.15,3.43,5.62a2,2,0,0,0,1.86,1l7.51-.48a2.05,2.05,0,0,0,1.73-1.22l2.59-6,1.57-.1a1.58,1.58,0,0,0-.2-3.15Z" style="fill:#263238"></path><g style="opacity:0.2"><path d="M401,79.26a20.51,20.51,0,0,1,5.35-4.07,15.05,15.05,0,0,1,4.22-1.53c1-.18,1.65-.11,1.72.11.15.49-1.91,1.38-4.64,3.47a23,23,0,0,0-9,23.21c.6,3.38,1.53,5.43,1.08,5.69-.2.12-.69-.24-1.34-1.08a14.88,14.88,0,0,1-2.09-4,20.43,20.43,0,0,1-1.2-6.61,21.86,21.86,0,0,1,1.43-8.19" style="fill:#fff"></path></g><g style="opacity:0.2"><path d="M419.11,74.54c-1.77.09-3.37-.29-3.61-1.21-.1-.46.19-1,.8-1.41a5.26,5.26,0,0,1,2.6-.81,5.15,5.15,0,0,1,2.68.5c.66.35,1,.83,1,1.3" style="fill:#fff"></path></g><path d="M428.94,143.15a14.59,14.59,0,0,1-1.47-.35,12,12,0,0,0-3.6-.22,12.28,12.28,0,0,0-3.48.88,14,14,0,0,1-1.38.62,4.18,4.18,0,0,1,1.27-.84,10.3,10.3,0,0,1,3.56-1,10.42,10.42,0,0,1,3.68.32A4.61,4.61,0,0,1,428.94,143.15Z" style="fill:#455a64"></path><path d="M431.94,136.7c0,.1-3.78.42-8.47.72s-8.48.47-8.48.38,3.78-.42,8.46-.72S431.94,136.61,431.94,136.7Z" style="fill:#455a64"></path><path d="M430.79,139.28a12.74,12.74,0,0,1-2.06.34c-1.27.17-3,.35-5,.51s-3.73.24-5,.28a11.13,11.13,0,0,1-2.08,0,15.07,15.07,0,0,1,2.07-.22l5-.38,5-.41A12.86,12.86,0,0,1,430.79,139.28Z" style="fill:#455a64"></path></g><g id="Photos--inject-1"><rect x="221.2" y="102.74" width="41.55" height="51.97" transform="translate(82.1 351.36) rotate(-82.33)" style="fill:#ebebeb"></rect><path d="M270.5,111.61l-.25,0-.72-.09-2.81-.36-10.55-1.38L219,104.81l.16-.12c-1.65,12.26-3.54,26.31-5.53,41.18h0l-.13-.17,51.5,7-.14.11c1.7-12.39,3.1-22.67,4.09-29.86.49-3.59.89-6.41,1.15-8.34.14-1,.24-1.69.31-2.2l.12-.76s0,.25-.09.74-.15,1.23-.27,2.18c-.26,1.92-.62,4.74-1.09,8.32-1,7.21-2.32,17.52-4,30l0,.12-.12,0L213.43,146l-.15,0,0-.15h0c2-14.87,3.9-28.92,5.56-41.18l0-.13.13,0,37.27,5.09,10.51,1.45,2.77.39.71.1Z" style="fill:#263238"></path><rect x="223.78" y="104.57" width="36.32" height="48.32" transform="translate(82.08 351.32) rotate(-82.33)" style="fill:#4550E6"></rect><polygon points="215.57 143.5 235.31 123.38 243.79 138.77 251.82 132.23 263.46 149.95 215.57 143.5" style="fill:#4550E6"></polygon><path d="M250.44,122.62a3.8,3.8,0,1,1-3.26-4.27A3.81,3.81,0,0,1,250.44,122.62Z" style="fill:#4550E6"></path><g style="opacity:0.2"><polygon points="215.57 143.5 235.31 123.38 243.79 138.77 251.82 132.23 263.46 149.95 215.57 143.5"></polygon></g><g style="opacity:0.2"><path d="M250.44,122.62a3.8,3.8,0,1,1-3.26-4.27A3.81,3.81,0,0,1,250.44,122.62Z"></path></g><rect x="258.08" y="67.35" width="62.79" height="78.53" transform="translate(141.26 377.16) rotate(-81.51)" style="fill:#ebebeb"></rect><path d="M332.94,81.37l-.38-.05-1.09-.15-4.22-.61-15.91-2.32L255.24,70l.23-.18c-2.75,18.49-5.91,39.68-9.25,62.1h0l-.19-.25,77.66,11.63-.21.16c2.83-18.69,5.18-34.18,6.82-45,.83-5.42,1.49-9.67,1.93-12.58.23-1.44.4-2.55.52-3.32s.19-1.14.19-1.14,0,.37-.14,1.11-.27,1.86-.47,3.29c-.43,2.9-1,7.14-1.83,12.55l-6.65,45.17,0,.19-.19,0L246,132.09l-.22,0,0-.22h0c3.36-22.42,6.53-43.6,9.3-62.09l0-.2.2,0,56.2,8.5,15.85,2.42,4.17.65,1.07.17Z" style="fill:#263238"></path><rect x="261.98" y="70.1" width="54.88" height="73.02" transform="translate(141.23 377.1) rotate(-81.51)" style="fill:#4550E6"></rect><polygon points="249.26 128.35 279.52 98.38 291.99 121.82 304.27 112.12 321.47 139.14 249.26 128.35" style="fill:#4550E6"></polygon><path d="M302.39,97.57A5.75,5.75,0,1,1,297.56,91,5.75,5.75,0,0,1,302.39,97.57Z" style="fill:#4550E6"></path><g style="opacity:0.2"><polygon points="249.26 128.35 279.52 98.38 291.99 121.82 304.27 112.12 321.47 139.14 249.26 128.35"></polygon></g><g style="opacity:0.2"><path d="M302.39,97.57A5.75,5.75,0,1,1,297.56,91,5.75,5.75,0,0,1,302.39,97.57Z"></path></g></g><g id="color-palette--inject-1"><path d="M116.64,260.91l17.12,17.82a3,3,0,0,0,4.21.13l68.11-65.43a3,3,0,0,0,0-4.21L189,191.4a3,3,0,0,0-4.21-.13L116.68,256.7A3,3,0,0,0,116.64,260.91Z" style="fill:#f5f5f5"></path><path d="M116.64,260.91a2.21,2.21,0,0,1-.42-.51,3,3,0,0,1-.47-1.88,2.92,2.92,0,0,1,.47-1.37,9.37,9.37,0,0,1,1.2-1.27l3.1-3,19.8-19.14,29.42-28.34,8.51-8.18,4.39-4.23c.76-.71,1.45-1.42,2.27-2.14a3.24,3.24,0,0,1,3.22-.35,4,4,0,0,1,1.32,1l1.09,1.14,2.2,2.29,4.46,4.63,9.1,9.48a3.29,3.29,0,0,1,.75,3.34,3.38,3.38,0,0,1-1,1.44L204.87,215l-4.71,4.52L191,228.32,173.55,245c-11.11,10.63-21.1,20.21-29.5,28.26l-6,5.73a3.12,3.12,0,0,1-3.73.36,7.5,7.5,0,0,1-1.36-1.26l-1.22-1.27-8.17-8.58-5.16-5.43c-.57-.62-1-1.09-1.33-1.42l-.44-.5s.17.15.48.46l1.37,1.39,5.22,5.36,8.24,8.52,1.22,1.26a7,7,0,0,0,1.31,1.2,2.78,2.78,0,0,0,3.34-.33l6-5.76,29.42-28.34L190.6,228l9.2-8.84,4.71-4.52,1.18-1.15a2.72,2.72,0,0,0,.23-4l-9.1-9.48-4.45-4.63-2.2-2.3-1.09-1.14a3.38,3.38,0,0,0-1.16-.89,2.72,2.72,0,0,0-2.7.28c-.74.64-1.49,1.41-2.23,2.11l-4.4,4.22-8.52,8.17L140.58,234l-19.92,19-3.13,3a9.15,9.15,0,0,0-1.2,1.23,2.94,2.94,0,0,0-.47,1.31,3,3,0,0,0,.4,1.84C116.49,260.74,116.66,260.9,116.64,260.91Z" style="fill:#263238"></path><rect x="179.98" y="196.13" width="17.26" height="25.17" transform="translate(-92.12 190.65) rotate(-44.22)" style="fill:#4550E6"></rect><rect x="139.68" y="235.33" width="17.26" height="25.17" transform="translate(-130.87 173.66) rotate(-44.22)" style="fill:#4550E6"></rect><rect x="153.13" y="222.25" width="17.26" height="25.17" transform="translate(-117.94 179.33) rotate(-44.22)" style="fill:#4550E6"></rect><rect x="166.59" y="209.16" width="17.26" height="25.17" transform="translate(-105 185) rotate(-44.22)" style="fill:#4550E6"></rect><g style="opacity:0.8"><rect x="179.98" y="196.13" width="17.26" height="25.17" transform="translate(-92.12 190.65) rotate(-44.22)"></rect></g><g style="opacity:0.5"><rect x="139.68" y="235.33" width="17.26" height="25.17" transform="translate(-130.87 173.66) rotate(-44.22)"></rect></g><g style="opacity:0.6000000000000001"><rect x="153.13" y="222.25" width="17.26" height="25.17" transform="translate(-117.94 179.33) rotate(-44.22)"></rect></g><g style="opacity:0.7000000000000001"><rect x="166.59" y="209.16" width="17.26" height="25.17" transform="translate(-105 185) rotate(-44.22)"></rect></g><path d="M117.79,257.86l12,21.63a3,3,0,0,0,4,1.23l81.47-45.05a3,3,0,0,0,1.08-4l-12-21.62a3,3,0,0,0-4-1.24l-81.48,45A3,3,0,0,0,117.79,257.86Z" style="fill:#f5f5f5"></path><path d="M117.79,257.86a2.66,2.66,0,0,1-.28-.59,3,3,0,0,1,0-1.92,2.82,2.82,0,0,1,.78-1.2,8.64,8.64,0,0,1,1.46-.91l3.73-2.09,23.8-13.25,35.32-19.6,10.22-5.66,5.27-2.92,1.34-.74a7,7,0,0,1,1.43-.69,3.2,3.2,0,0,1,3.09.81,5.18,5.18,0,0,1,.91,1.35l.76,1.36c.5.92,1,1.83,1.52,2.75,1,1.84,2,3.7,3.08,5.57q3.09,5.61,6.29,11.37a3.32,3.32,0,0,1-.1,3.39,3.26,3.26,0,0,1-1.32,1.13l-1.42.79L208,239.93,197,246l-20.88,11.53-35.39,19.5c-2.53,1.38-4.89,2.72-7.21,3.94a3.11,3.11,0,0,1-3.58-1c-.7-1.06-1.19-2.1-1.76-3.1-2.2-4-4.09-7.45-5.63-10.28s-2.73-5-3.54-6.5l-.91-1.7c-.21-.38-.3-.59-.3-.59s.13.19.34.56.55.95,1,1.68c.84,1.49,2.06,3.66,3.62,6.45l5.71,10.24c.57,1,1.11,2.07,1.75,3a2.8,2.8,0,0,0,3.21.88c2.25-1.21,4.66-2.58,7.16-4l35.33-19.6,20.88-11.56,11-6.11,5.65-3.12,1.42-.79a2.75,2.75,0,0,0,1.13-1,2.8,2.8,0,0,0,.08-2.85l-6.29-11.37-3.07-5.57-1.52-2.75-.76-1.36a5,5,0,0,0-.81-1.23,2.7,2.7,0,0,0-2.61-.69,7.57,7.57,0,0,0-1.32.64l-1.33.74-5.28,2.92-10.22,5.64-35.38,19.5L123.6,251.33l-3.75,2a8.42,8.42,0,0,0-1.45.88,2.69,2.69,0,0,0-.77,1.13,3,3,0,0,0-.07,1.87C117.69,257.66,117.81,257.86,117.79,257.86Z" style="fill:#263238"></path><rect x="189.83" y="215.33" width="17.26" height="25.17" transform="translate(-86.11 126.18) rotate(-29.28)" style="fill:#4550E6"></rect><rect x="140.8" y="242.82" width="17.26" height="25.17" transform="translate(-105.82 105.71) rotate(-29.28)" style="fill:#4550E6"></rect><rect x="157.16" y="233.65" width="17.26" height="25.17" transform="translate(-99.25 112.54) rotate(-29.28)" style="fill:#4550E6"></rect><rect x="173.53" y="224.46" width="17.26" height="25.17" transform="translate(-92.66 119.38) rotate(-29.28)" style="fill:#4550E6"></rect><g style="opacity:0.5"><rect x="189.83" y="215.33" width="17.26" height="25.17" transform="translate(-86.11 126.18) rotate(-29.28)"></rect></g><g style="opacity:0.2"><rect x="140.8" y="242.82" width="17.26" height="25.17" transform="translate(-105.82 105.71) rotate(-29.28)"></rect></g><g style="opacity:0.30000000000000004"><rect x="157.16" y="233.65" width="17.26" height="25.17" transform="translate(-99.25 112.54) rotate(-29.28)"></rect></g><g style="opacity:0.4"><rect x="173.53" y="224.46" width="17.26" height="25.17" transform="translate(-92.66 119.38) rotate(-29.28)"></rect></g><path d="M114.79,257.67l5.28,24.14a3,3,0,0,0,3.62,2.29l95.55-20.88a3,3,0,0,0,2.33-3.6l-5.27-24.13a3,3,0,0,0-3.62-2.3l-95.55,20.89A3,3,0,0,0,114.79,257.67Z" style="fill:#f5f5f5"></path><path d="M114.79,257.67a2.35,2.35,0,0,1-.09-.68,3,3,0,0,1,.65-1.88,3.18,3.18,0,0,1,1.18-.91,11.47,11.47,0,0,1,1.73-.45l4.33-1,27.63-6.12,41-9,11.85-2.6,6.12-1.34,3.11-.68a3.78,3.78,0,0,1,1.68-.09,3.28,3.28,0,0,1,1.55.76,3.2,3.2,0,0,1,1,1.44c.16.57.25,1.07.37,1.6.23,1.06.47,2.13.7,3.19q.71,3.21,1.41,6.46,1.42,6.5,2.88,13.18a3.27,3.27,0,0,1-1.21,3.29,3.76,3.76,0,0,1-1.65.7l-1.65.36-6.55,1.43L198,268.13l-24.22,5.28-41,8.9-8.33,1.81c-.33.06-.65.15-1,.19a3.2,3.2,0,0,1-2.76-1.06,3.44,3.44,0,0,1-.79-1.75c-.12-.6-.25-1.19-.38-1.77-1-4.64-1.85-8.63-2.55-11.9s-1.23-5.79-1.6-7.53c-.17-.85-.3-1.5-.4-2s-.12-.67-.12-.67.07.22.17.66l.46,1.95c.39,1.73,1,4.26,1.69,7.5s1.61,7.26,2.64,11.89c.13.57.26,1.16.39,1.76a3.12,3.12,0,0,0,.72,1.61,2.87,2.87,0,0,0,1.56.9,4,4,0,0,0,1.9-.15l8.32-1.84,41-9,24.21-5.31,12.81-2.8,6.55-1.43,1.65-.36a3.13,3.13,0,0,0,1.45-.6,2.77,2.77,0,0,0,1-2.77q-1.47-6.68-2.88-13.18-.72-3.26-1.41-6.46c-.24-1.06-.47-2.13-.7-3.19-.12-.51-.22-1.08-.35-1.55a2.73,2.73,0,0,0-.81-1.22,2.88,2.88,0,0,0-2.79-.55l-3.1.67-6.12,1.34-11.85,2.58-41,8.9-27.66,6-4.35.92a13,13,0,0,0-1.71.42,3.13,3.13,0,0,0-1.15.86,3.05,3.05,0,0,0-.68,1.81C114.74,257.44,114.81,257.67,114.79,257.67Z" style="fill:#263238"></path><path d="M114.59,257.77c0,.09-1.2,0-3.3.4a17.82,17.82,0,0,0-8,3.81,17.09,17.09,0,0,0-5.92,11.41,16.76,16.76,0,0,0,31.23,9.74,17.37,17.37,0,0,0,2.32-8.55c0-.53,0-1,0-1.42s-.08-.75-.11-1a2.77,2.77,0,0,1,0-.87,3.39,3.39,0,0,1,.24.84c.06.28.15.62.21,1s.09.9.14,1.44a17,17,0,0,1-2.09,8.92,17.31,17.31,0,0,1-10.57,8.4,17.44,17.44,0,0,1-16-3.42,18.11,18.11,0,0,1-3-3.27,17.54,17.54,0,0,1,3.22-23.79,17.34,17.34,0,0,1,8.42-3.64,15.08,15.08,0,0,1,2.5-.12A2.19,2.19,0,0,1,114.59,257.77Z" style="fill:#263238"></path><path d="M133.51,267.46a3.76,3.76,0,1,1-4.48-2.87A3.77,3.77,0,0,1,133.51,267.46Z" style="fill:#263238"></path><rect x="199" y="237.97" width="17.26" height="25.17" transform="translate(-48.71 50.11) rotate(-12.33)" style="fill:#4550E6"></rect><rect x="180.75" y="241.96" width="17.26" height="25.17" transform="translate(-49.98 46.3) rotate(-12.33)" style="fill:#4550E6"></rect><rect x="162.41" y="245.97" width="17.26" height="25.17" transform="translate(-51.26 42.48) rotate(-12.33)" style="fill:#4550E6"></rect><rect x="144.08" y="249.97" width="17.26" height="25.17" transform="translate(-52.53 38.66) rotate(-12.33)" style="fill:#4550E6"></rect><g style="opacity:0.8"><rect x="144.08" y="249.97" width="17.26" height="25.17" transform="translate(-52.53 38.66) rotate(-12.33)" style="fill:#fff"></rect></g><g style="opacity:0.6000000000000001"><rect x="162.41" y="245.97" width="17.26" height="25.17" transform="translate(-51.26 42.48) rotate(-12.33)" style="fill:#fff"></rect></g><g style="opacity:0.4"><rect x="180.75" y="241.96" width="17.26" height="25.17" transform="translate(-49.98 46.3) rotate(-12.33)" style="fill:#fff"></rect></g></g><g id="Day--inject-1"><circle cx="274.16" cy="251.88" r="13.93" transform="translate(-34.26 460.4) rotate(-76.64)" style="fill:#4550E6"></circle><path d="M274.16,234.46a38.54,38.54,0,0,1-.26-6.27,38.36,38.36,0,0,1,.26-6.26,38.36,38.36,0,0,1,.26,6.26A38.54,38.54,0,0,1,274.16,234.46Z" style="fill:#4550E6"></path><path d="M273.45,284.33a53.51,53.51,0,0,1-.26-7.4,53.63,53.63,0,0,1,.26-7.4,53.63,53.63,0,0,1,.26,7.4A53.51,53.51,0,0,1,273.45,284.33Z" style="fill:#4550E6"></path><path d="M253.11,252.1a46,46,0,0,1-9.77,0,46,46,0,0,1,9.77,0Z" style="fill:#4550E6"></path><path d="M305.15,250.25a35,35,0,0,1-6.08.26,34.9,34.9,0,0,1-6.07-.26,36.13,36.13,0,0,1,6.07-.26A36.2,36.2,0,0,1,305.15,250.25Z" style="fill:#4550E6"></path><path d="M294.85,235.46a32.39,32.39,0,0,1-5.81,5.81,15.71,15.71,0,0,1,2.72-3.09A16.57,16.57,0,0,1,294.85,235.46Z" style="fill:#4550E6"></path><path d="M293,269.53a11.73,11.73,0,0,1-2.69-2.32,12.53,12.53,0,0,1-2.33-2.69,12,12,0,0,1,2.69,2.32A12.53,12.53,0,0,1,293,269.53Z" style="fill:#4550E6"></path><path d="M260.78,264.53a15.83,15.83,0,0,1-2.72,3,15.49,15.49,0,0,1-3.09,2.58,15.69,15.69,0,0,1,2.73-3A15.29,15.29,0,0,1,260.78,264.53Z" style="fill:#4550E6"></path><path d="M261,238.93c-.14.07-1-1.27-2.29-2.63s-2.63-2.23-2.55-2.37a6.65,6.65,0,0,1,2.93,2A6.58,6.58,0,0,1,261,238.93Z" style="fill:#4550E6"></path><path d="M473.6,251.88a19.48,19.48,0,0,1,16.75-19.29,20.67,20.67,0,0,0-2.74-.19,19.48,19.48,0,0,0,0,39,20.67,20.67,0,0,0,2.74-.19A19.48,19.48,0,0,1,473.6,251.88Z" style="fill:#4550E6"></path><path d="M494.54,249.8l.52.87a6,6,0,0,0,2.47,2.28l.91.45-.87.52a5.94,5.94,0,0,0-2.27,2.47l-.46.92-.52-.88a6,6,0,0,0-2.47-2.27l-.91-.45.87-.53a5.88,5.88,0,0,0,2.27-2.47Z" style="fill:#4550E6"></path><path d="M456.68,261.13l.26.45a3.11,3.11,0,0,0,1.26,1.15l.46.23-.44.27a3,3,0,0,0-1.16,1.25l-.23.46-.26-.44a3,3,0,0,0-1.26-1.15l-.46-.23.44-.27a3,3,0,0,0,1.16-1.25Z" style="fill:#4550E6"></path><path d="M447.23,252.61l.14.22a1.55,1.55,0,0,0,.62.57l.23.11-.22.14a1.37,1.37,0,0,0-.57.62l-.12.23-.13-.22a1.42,1.42,0,0,0-.62-.57l-.23-.12.22-.13a1.62,1.62,0,0,0,.57-.62Z" style="fill:#4550E6"></path><path d="M512.45,263.27l.13.22a1.51,1.51,0,0,0,.62.58l.23.11-.22.13a1.51,1.51,0,0,0-.57.63l-.12.23-.13-.22a1.51,1.51,0,0,0-.62-.58l-.23-.11.22-.13a1.51,1.51,0,0,0,.57-.63Z" style="fill:#4550E6"></path><path d="M501.87,246.45l.14.22a1.42,1.42,0,0,0,.62.57l.23.12-.22.13a1.42,1.42,0,0,0-.57.62l-.12.23-.13-.22a1.55,1.55,0,0,0-.62-.57l-.23-.11.22-.14a1.55,1.55,0,0,0,.57-.62Z" style="fill:#4550E6"></path><path d="M283,241.32a6.27,6.27,0,0,1-1.12,2.26c-.74,1.16-1.43,2-1.56,2a6.35,6.35,0,0,1,1.12-2.25C282.14,242.13,282.84,241.24,283,241.32Z" style="fill:#4550E6"></path><path d="M288.86,233.26c.12.09-.47,1.05-1.31,2.14s-1.62,1.91-1.73,1.83.47-1,1.31-2.14S288.75,233.17,288.86,233.26Z" style="fill:#4550E6"></path><path d="M295.47,225.77c.1.1-.57,1-1.5,2s-1.78,1.76-1.89,1.66.57-1,1.5-2S295.37,225.67,295.47,225.77Z" style="fill:#4550E6"></path><path d="M302.71,218.88c.09.11-.66,1-1.67,1.87s-1.93,1.6-2,1.49.65-.94,1.68-1.87S302.61,218.77,302.71,218.88Z" style="fill:#4550E6"></path><path d="M310.52,212.63c.08.12-.74.89-1.83,1.73a6.17,6.17,0,0,1-2.14,1.31c-.1-.11.72-.88,1.82-1.73S310.43,212.51,310.52,212.63Z" style="fill:#4550E6"></path><path d="M318.83,207.06c.07.13-.81.83-2,1.57a6.31,6.31,0,0,1-2.25,1.13c-.08-.12.8-.82,2-1.57A6.48,6.48,0,0,1,318.83,207.06Z" style="fill:#4550E6"></path><path d="M327.58,202.22c.07.13-.87.75-2.09,1.39a6.28,6.28,0,0,1-2.33.94c-.07-.13.86-.75,2.09-1.4A6.27,6.27,0,0,1,327.58,202.22Z" style="fill:#4550E6"></path><path d="M336.72,198.13a6.16,6.16,0,0,1-2.21,1.21,6.27,6.27,0,0,1-2.4.74,6,6,0,0,1,2.2-1.21A6.34,6.34,0,0,1,336.72,198.13Z" style="fill:#4550E6"></path><path d="M346.16,194.84a6.15,6.15,0,0,1-2.3,1,6.35,6.35,0,0,1-2.46.53,6,6,0,0,1,2.3-1A6.4,6.4,0,0,1,346.16,194.84Z" style="fill:#4550E6"></path><path d="M355.85,192.39a11.88,11.88,0,0,1-4.87,1.12,6.18,6.18,0,0,1,2.37-.81A6.29,6.29,0,0,1,355.85,192.39Z" style="fill:#4550E6"></path><path d="M365.72,190.82a6.3,6.3,0,0,1-2.44.59,6.05,6.05,0,0,1-2.52.08,6.37,6.37,0,0,1,2.44-.59A6.24,6.24,0,0,1,365.72,190.82Z" style="fill:#4550E6"></path><path d="M375.69,190.16a6.3,6.3,0,0,1-2.49.35,6.65,6.65,0,0,1-2.5-.14,5.93,5.93,0,0,1,2.48-.38A6.27,6.27,0,0,1,375.69,190.16Z" style="fill:#4550E6"></path><path d="M385.69,190.43a6.38,6.38,0,0,1-2.51.13,6.46,6.46,0,0,1-2.49-.38,11.95,11.95,0,0,1,5,.25Z" style="fill:#4550E6"></path><path d="M395.61,191.6a6.33,6.33,0,0,1-2.51-.09,6.25,6.25,0,0,1-2.44-.61,6.31,6.31,0,0,1,2.51.09A6,6,0,0,1,395.61,191.6Z" style="fill:#4550E6"></path><path d="M405.39,193.63a6.12,6.12,0,0,1-2.49-.3,6.27,6.27,0,0,1-2.38-.82,6.29,6.29,0,0,1,2.5.31A6.18,6.18,0,0,1,405.39,193.63Z" style="fill:#4550E6"></path><path d="M415,196.51a6.44,6.44,0,0,1-2.46-.52,6.34,6.34,0,0,1-2.3-1,6.07,6.07,0,0,1,2.46.52A6.13,6.13,0,0,1,415,196.51Z" style="fill:#4550E6"></path><path d="M424.27,200.19a12.07,12.07,0,0,1-4.61-1.94,6.06,6.06,0,0,1,2.41.73A6,6,0,0,1,424.27,200.19Z" style="fill:#4550E6"></path><path d="M433.23,204.64a12.29,12.29,0,0,1-4.43-2.32,6.09,6.09,0,0,1,2.34.93C432.37,203.89,433.3,204.51,433.23,204.64Z" style="fill:#4550E6"></path><path d="M441.79,209.83a6.31,6.31,0,0,1-2.25-1.13c-1.17-.74-2.05-1.44-2-1.56a6.35,6.35,0,0,1,2.25,1.12C441,209,441.87,209.71,441.79,209.83Z" style="fill:#4550E6"></path><path d="M449.86,215.73a6.37,6.37,0,0,1-2.14-1.31c-1.1-.84-1.92-1.61-1.83-1.73A6.18,6.18,0,0,1,448,214C449.13,214.84,450,215.62,449.86,215.73Z" style="fill:#4550E6"></path><path d="M457.39,222.3c-.1.11-1-.56-2-1.49s-1.77-1.77-1.67-1.88,1,.56,2,1.5S457.49,222.2,457.39,222.3Z" style="fill:#4550E6"></path><path d="M464.3,229.52c-.11.1-.95-.65-1.88-1.67a6.3,6.3,0,0,1-1.5-2c.11-.1.95.65,1.88,1.67S464.41,229.43,464.3,229.52Z" style="fill:#4550E6"></path><path d="M469.61,236.1c-.12.09-.68-.46-1.26-1.21s-1-1.44-.85-1.53.68.45,1.26,1.21S469.72,236,469.61,236.1Z" style="fill:#4550E6"></path></g></svg>