<svg xmlns="http://www.w3.org/2000/svg" xmlns:xlink="http://www.w3.org/1999/xlink" viewBox="0 0 750 500" xmlns:v="https://vecta.io/nano"><style><![CDATA[.B{fill:#263238}.C{fill:#4550e6}.D{fill:#fff}.E{fill:#455a64}.F{fill:#e0e0e0}.G{fill:#f5f5f5}.H{fill:#ebebeb}.I{fill:#ffbe9d}.J{opacity:.4}.K{opacity:.2}.L{fill:#eb996e}.M{fill:#fafafa}]]></style><path d="M74.7 297.52h107.5V453.4H75.44l-.74-155.87z" class="F"/><path d="M173.17 452.66H66.64v-154.4h106.53z" class="D"/><path d="M173.9 297.52V453.4h-108V297.52zm-1.46 154.4V299H67.37v153z" class="F"/><path d="M79.88 314.98h80.06v120.96H79.88z" class="D"/><g class="F"><path d="M79.88 315v8.95l.1 24.93.18 87.08-.35-.35h80l-.38.4.08-121 .3.3-58.25-.16-16.1-.14 16-.08 58.75-.16v.24l.07 121.38H79.53v-.35l.17-87.3.1-24.85v-8.25c0-.4.1-.62.1-.62z"/><path d="M66.34 452.66a13.65 13.65 0 0 1 1.72-2.66l4.62-6.05 4.93-5.8a12.23 12.23 0 0 1 2.27-2.21c.16.14-2.9 3.85-6.6 8.5s-6.75 8.37-6.93 8.23zm.3-154.4c.17-.13 3.26 3.5 6.92 8.13s6.48 8.46 6.32 8.6-3.27-3.5-6.92-8.13-6.5-8.47-6.32-8.6z"/></g><path d="M173.18,298.37l-14,17.22" class="D"/><g class="F"><path d="M159.23 315.6c-.16-.13 2.83-4.1 6.68-8.85s7.1-8.5 7.27-8.37-2.82 4.1-6.68 8.85-7.1 8.5-7.27 8.37zm13.94 137.06c-.17.13-3.23-3.47-6.85-8s-6.4-8.38-6.24-8.5 3.23 3.47 6.84 8 6.4 8.38 6.25 8.5zm-48.1-75.44H111l-1.68 3.88a8.66 8.66 0 0 0-.82 3.21 2.66 2.66 0 0 0 1.35 2.47 11.5 11.5 0 0 0 3.91.71v1.08h-13.28v-1.08a6 6 0 0 0 3.53-1.78 23.65 23.65 0 0 0 3.41-6l14.26-31.82h.56l14.38 32.7c1.38 3.1 2.5 5.05 3.4 5.86a4.64 4.64 0 0 0 2.82 1.06v1.08h-19.3v-1.08h.8a6.08 6.08 0 0 0 3.27-.65 1.57 1.57 0 0 0 .64-1.35 3.8 3.8 0 0 0-.17-1.09c0-.18-.34-.9-.9-2.2zm-1-2.18l-5.94-13.73L112 375zM158 131.63a2.52 2.52 0 0 1 1.09-.12h.37l-.12.12c0-.42.06-.72.12-.72s.1.3.12.72v.12H159a2.43 2.43 0 0 1-1-.12zm-3 0c0-.07.32-.12.73-.12s.72.05.72.12-.32.13-.72.13-.73-.06-.73-.13z"/><use xlink:href="#B"/><use xlink:href="#C"/><use xlink:href="#B" x="-5.82"/><use xlink:href="#C" x="-5.82"/><use xlink:href="#B" x="-11.66"/><path d="M137.54 131.63c0-.07.33-.12.73-.12s.73.05.73.12-.32.13-.73.13-.73-.06-.73-.13z"/><use xlink:href="#B" x="-17.49"/><path d="M131.7 131.63c0-.07.33-.12.73-.12s.73.05.73.12-.32.13-.73.13-.73-.06-.73-.13zm-2.9 0c0-.07.32-.12.73-.12s.73.05.73.12-.33.13-.73.13-.73-.06-.73-.13z"/><use xlink:href="#B" x="-26.24"/><path d="M123 131.63c0-.07.32-.12.73-.12s.73.05.73.12-.33.13-.73.13-.73-.06-.73-.13z"/><use xlink:href="#B" x="-32.07"/><path d="M117.14 131.63c0-.07.32-.12.73-.12s.72.05.72.12-.32.13-.72.13-.73-.06-.73-.13z"/><use xlink:href="#B" x="-37.9"/><use xlink:href="#C" x="-37.9"/><use xlink:href="#B" x="-43.72"/><use xlink:href="#D"/><use xlink:href="#E"/><use xlink:href="#F"/><use xlink:href="#E" y="-5.82"/><use xlink:href="#F" y="-5.8"/><use xlink:href="#E" y="-11.65"/><path d="M107.48 112.14c.07 0 .13.32.13.72s-.06.73-.13.73-.13-.32-.13-.73.06-.72.13-.72z"/><use xlink:href="#E" y="-17.48"/><path d="M107.48 106.3c.07 0 .13.33.13.73s-.06.73-.13.73-.13-.32-.13-.73.06-.73.13-.73z"/><use xlink:href="#E" y="-23.3"/><path d="M107.48 100.47c.07 0 .13.33.13.73s-.06.73-.13.73-.13-.32-.13-.73.06-.73.13-.73z"/><use xlink:href="#E" y="-29.14"/><use xlink:href="#E" y="-32.06"/><use xlink:href="#D" y="-37.9"/><use xlink:href="#E" y="-37.9"/><use xlink:href="#D" y="-43.73"/><use xlink:href="#E" y="-43.7"/><use xlink:href="#F" y="-43.73"/><path d="M110 79.7c0 .07-.32.13-.72.13s-.73-.06-.73-.13.32-.12.73-.12.72.05.72.12z"/><use xlink:href="#G"/><path d="M115.87 79.7c0 .07-.33.13-.73.13s-.73-.06-.73-.13.32-.12.73-.12.73.05.73.12z"/><use xlink:href="#G" x="5.78"/><ellipse cx="120.97" cy="79.7" rx=".73" ry=".13"/><use xlink:href="#G" x="11.6"/><use xlink:href="#G" x="14.53"/><ellipse cx="129.71" cy="79.7" rx=".73" ry=".13"/><use xlink:href="#G" x="20.36"/><path d="M136.27 79.7c0 .07-.32.13-.73.13s-.73-.06-.73-.13.33-.12.73-.12.73.05.73.12z"/><ellipse cx="138.46" cy="79.7" rx=".73" ry=".13"/><path d="M142.1 79.7c0 .07-.32.13-.73.13s-.72-.06-.72-.13.32-.12.72-.12.73.05.73.12z"/><use xlink:href="#G" x="32"/><ellipse cx="147.21" cy="79.7" rx=".73" ry=".13"/><use xlink:href="#G" x="37.85"/><path d="M153.76 79.7c0 .07-.32.13-.72.13s-.73-.06-.73-.13.32-.12.73-.12.72.05.72.12z"/><ellipse cx="155.95" cy="79.7" rx=".73" ry=".13"/><path d="M159.4 79.9s-.06-.07-.08-.2l.08.1a3.74 3.74 0 0 1-.54 0c-.4 0-.73-.06-.73-.13s.32-.12.73-.12a2.7 2.7 0 0 1 .54 0h.1v.06c-.04.22-.07.3-.1.3z"/><ellipse cx="159.41" cy="82.08" rx=".13" ry=".73"/><path d="M159.4 85.72c-.07 0-.13-.32-.13-.73s.06-.73.13-.73.13.33.13.73-.06.73-.13.73z"/><use xlink:href="#H"/><ellipse cx="159.41" cy="90.82" rx=".13" ry=".73"/><use xlink:href="#H" y="5.83"/><path d="M159.4 97.38c-.07 0-.13-.32-.13-.73s.06-.72.13-.72.13.32.13.72-.06.73-.13.73z"/><ellipse cx="159.41" cy="99.57" rx=".13" ry=".73"/><path d="M159.4 103.2c-.07 0-.13-.32-.13-.73s.06-.72.13-.72.13.32.13.72-.06.73-.13.73z"/><use xlink:href="#H" y="17.49"/><ellipse cx="159.41" cy="108.32" rx=".13" ry=".73"/><use xlink:href="#H" y="23.36"/><path d="M159.4 114.88c-.07 0-.13-.33-.13-.73s.06-.73.13-.73.13.32.13.73-.06.73-.13.73z"/><ellipse cx="159.41" cy="117.06" rx=".13" ry=".73"/><ellipse cx="159.41" cy="119.98" rx=".13" ry=".73"/><use xlink:href="#H" y="34.98"/><ellipse cx="159.41" cy="125.81" rx=".13" ry=".73"/><ellipse cx="159.41" cy="128.72" rx=".13" ry=".73"/><path d="M157.5 129.18h3.85v3.85h-3.85zm-51.94.52h3.85v3.85h-3.85zm51.94-52.3h3.85v3.85h-3.85zm-51.94.38h3.85v3.85h-3.85z"/><circle cx="689.26" cy="284.11" r="5.96"/><path d="M701.32 252.4a3.71 3.71 0 1 1 3.68 3.71 3.71 3.71 0 0 1-3.68-3.71zm-15.9-26.26a3.4 3.4 0 1 1 4.31 2.13 3.4 3.4 0 0 1-4.31-2.13z"/><circle cx="664.92" cy="344.7" r="5.54"/><circle cx="666.25" cy="387.98" r="3.97"/><path d="M664.7 433.6a2.83 2.83 0 1 1-2.83-2.82 2.83 2.83 0 0 1 2.83 2.82z"/><circle cx="681.41" cy="344.7" r="5.54"/><circle cx="701.24" cy="384.01" r="3.97"/><path d="M689.62 428.13a2.82 2.82 0 1 1-2.12-3.38 2.83 2.83 0 0 1 2.12 3.38z"/><circle cx="671.1" cy="311.75" r="9.16" transform="matrix(.707107 -.707107 .707107 .707107 -23.88 565.85)"/><circle cx="671.17" cy="272.68" r="5.96"/><path d="M657.1 284.1a6 6 0 1 1-6-5.95 6 6 0 0 1 6 5.95zm-18 31.74a3.71 3.71 0 1 1-3.71-3.71 3.71 3.71 0 0 1 3.71 3.71zM655 342.1a3.4 3.4 0 1 1-4.31-2.13 3.4 3.4 0 0 1 4.31 2.13z"/></g><path d="M708.34 256.48s-9.5 21.4-13.36 26a21.34 21.34 0 0 1-7-4.17l13.32-25.4zm-.76-8.58c-.14-.45-15-23-15-23l-6.54 4.5 14.23 23.46zM692 223.48s9.63-10.83 2.9-14.53-8.54 9.06-7.93 12.73l5.32 2" class="G"/><g class="F"><path d="M697.3 453.4h-46.87a14.83 14.83 0 0 1 14.84-14.84h17.2a14.84 14.84 0 0 1 14.84 14.84z"/><path d="M671.9 318.67c.15 0 .26 26.94.26 60.17L671.9 439c-.15 0-.26-26.94-.26-60.17l.26-60.17z"/></g><path d="M661.32 314.87s-5.5 8.9-4 26.5h28.78s1.78-20.94-5-27zm-2.82 34.47h13.2l-1.25 37.23h-9.04l-2.92-37.23zm2.74 39.8l-2.74 42.73 6.6 1.25 5.9-42.73-9.77-1.25zm-5.62 49.43s.08-5.25 5.4-5.45 5.9 5.45 5.9 5.45zm22.13-87.78l12-5.5 14.37 34.38-8.22 3.76-18.16-32.64zm18.4 33.22l-12.18 41.05 6.16 2.7 15.27-40.35-9.25-3.4zm-15.08 47.38c.34.57 16.24 6.53 16.24 6.53s3.78-3.37-8.12-8.78l-2.54-1.13a3.76 3.76 0 0 0-5.13 2.16zM656.43 276c-.44.1.37 23.55 5.5 32.24 0 0 18.5-.6 18.94 0s6.43-20.4 5.9-31.68c0-.01-13-4.66-30.34-.56zm12.2-36.4s-11.8.26-9.62 15.27 4.6 15 4.68 15.4 14.83-1 14.83-1 8.08-30.26-9.9-29.67zm-36.56 72.15s9.5-21.4 13.36-26a21.34 21.34 0 0 1 7 4.17l-13.32 25.4zm.76 8.57c.14.44 15 23 15 23l6.54-4.5-14.23-23.47zm15.27 25.18s-9.63 10.84-2.9 14.54 8.54-9.07 7.93-12.74l-5.32-2" class="G"/><path d="M629.25 106.97h43.8v75.15h-43.8z" class="D"/><g class="F"><path d="M629.25 106.97h43.8v6.33h-43.8zm10.53 14.23l.53 7.02 1.96-2.56 3.27-.13-5.76-4.33zm18.92 0l.1.07.3.23 1.2.87 4.2 3.1.18.14h-.23l-3.16.13h-.05l-2 2.56-.13.17v-.2l-.33-5.1q-.06-.86-.1-1.44v-.35.4c0 .4.07.87.13 1.46l.42 5h-.14l2-2.56h.15l3.17-.12-.05.14-4.08-3.12-1.2-.92-.32-.25zm-20.2 30.53l4.9-5.16 5-5c0 .08-2.16 2.34-4.9 5.16l-5 5zm30.42-5.18a10.26 10.26 0 0 0-.23-1.56 6.43 6.43 0 0 0-2.28-3.55 6.11 6.11 0 0 0-6-.94 5.86 5.86 0 0 0-1.59.9 6 6 0 0 0-1.32 1.38 6.58 6.58 0 0 0 0 7.55 6 6 0 0 0 1.32 1.38 5.86 5.86 0 0 0 1.59.9 6.11 6.11 0 0 0 6-.94 6.46 6.46 0 0 0 2.28-3.55 10.1 10.1 0 0 0 .23-1.57v.45a3.2 3.2 0 0 1 0 .49 5.16 5.16 0 0 1-.12.68 6.57 6.57 0 0 1-2.27 3.63 6.23 6.23 0 0 1-6.13 1 6.39 6.39 0 0 1-3-2.32 6.72 6.72 0 0 1 0-7.75 6.25 6.25 0 0 1 1.35-1.41 5.76 5.76 0 0 1 1.64-.91 6.21 6.21 0 0 1 3.41-.29 6.36 6.36 0 0 1 2.72 1.27 6.54 6.54 0 0 1 2.27 3.63 5.34 5.34 0 0 1 .12.67 3.41 3.41 0 0 1 0 .5zm-5.68 16.7s.06 0 .16.12l.45.38 1.72 1.5-7.37 8.45-.9.14-1.6.24h-.12v-.12l.58-2.9 5-5.75a13.88 13.88 0 0 1 2.09-2.13l-.15.13-.4.42-1.46 1.64-4.94 5.8-.57 2.9-.1-.1 1.6-.24.88-.13 7.42-8.4v.07l-1.66-1.5-.44-.4zm-16.02 10.25a1.87 1.87 0 0 1 0-.21v-10.36l.07.07H637l.08-.08v10.57l-.07-.08h7.44-7.55V163l.1-.1h10.34v10.46a1.31 1.31 0 0 1-.11.13z"/><path d="M638.5 162.93a16.19 16.19 0 0 1-2.22.08 16.4 16.4 0 0 1-2.23-.08 13.87 13.87 0 0 1 2.23-.09 13.69 13.69 0 0 1 2.22.09z"/><path d="M637 165a35 35 0 0 1 0-5 39.42 39.42 0 0 1 0 5zm36.06 17.12v-21.1l-.06-54.05.13.13h-43.88l.14-.14v75.15l-.1-.1 32.1.05-32.1.05v-75.4h44.08v.3l-.06 74.74c0 .2-.23.38-.23.38z"/></g><path d="M604.55 65.74h-4.23l-9.25-12.88V44.4s-6.54-.4-5.77 10.66-.07 8.25-.07 8.25-13.9.06-15.05 1.27c-.84.87-1.22 14.68-1.36 22.17a8.08 8.08 0 0 0 5.74 8.16 6 6 0 0 0 1.5.2c3.46 0 21.17-2.8 21.17-2.8h7.32zm12.12-2.32l-2.6 28.97h-7.25V64l9.85-.58zM71.2 185.54h3l6.52 9.1v6s4.62.28 4.08-7.53 0-5.83 0-5.83 9.8 0 10.62-.9c.6-.62.86-10.36 1-15.65a5.71 5.71 0 0 0-4-5.76 4.29 4.29 0 0 0-1.06-.14c-2.44 0-15 2-15 2H71.2zm-8.57 1.64l1.84-20.45h5.12v20.03l-6.96.42z" class="H"/><path d="M717.44 453.14c0 .15-148.37.26-331.35.26s-331.38-.1-331.38-.26 148.34-.26 331.38-.26l331.35.26z" class="B"/><path d="M448.9 316.54c0 .54 2.88 4 1.73 7.85-.33 1.1-3.16 3.28-3.16 3.28l3 5.3-17.64 7.55-8.87-17.3 17.75-5z" class="I"/><path d="M438.48 296.37a7.77 7.77 0 0 0 1.72-11.12c-1.92-2.27-5.14-3.33-6.58-5.94-1.07-1.92-.92-4.28-.5-6.43a27.9 27.9 0 0 0 1.05-6.49c-.08-2.2-1.16-4.55-3.2-5.33-2.87-1.08-5.87 1.34-7.47 3.95a19.67 19.67 0 0 0-.95 18.43c1.2 2.5 2.93 4.73 4.23 7.18s2.2 5.3 1.5 8" class="G"/><path d="M430.3 269a13.71 13.71 0 0 0-1.21 3.65 10.36 10.36 0 0 0 .22 4.12 11.2 11.2 0 0 0 .9 2.26 9.92 9.92 0 0 0 1.58 2.06c1.3 1.25 2.85 2.2 3.83 3.55a7.88 7.88 0 0 1 1.48 4 7.39 7.39 0 0 1-.33 2.88 2.93 2.93 0 0 1-.45 1 10 10 0 0 0 .41-3.8 7.59 7.59 0 0 0-1.5-3.79c-.92-1.25-2.44-2.16-3.8-3.46a9.87 9.87 0 0 1-1.66-2.2 10.68 10.68 0 0 1-.92-2.39 10.33 10.33 0 0 1-.13-4.29 8.7 8.7 0 0 1 1-2.72 3.55 3.55 0 0 1 .58-.87zm-4.7.4a13.56 13.56 0 0 0-1.22 3.64 10.56 10.56 0 0 0 .23 4.12 11 11 0 0 0 .9 2.26 9.72 9.72 0 0 0 1.58 2.07c1.3 1.24 2.85 2.2 3.83 3.55a7.82 7.82 0 0 1 1.48 4 7.33 7.33 0 0 1-.33 2.87 2.93 2.93 0 0 1-.45 1 10.18 10.18 0 0 0 .41-3.8 7.69 7.69 0 0 0-1.5-3.78c-.92-1.25-2.44-2.17-3.8-3.47a9.81 9.81 0 0 1-1.66-2.19 10.68 10.68 0 0 1-.92-2.39A10.38 10.38 0 0 1 424 273a8.64 8.64 0 0 1 1-2.72 3.11 3.11 0 0 1 .61-.89z" class="B"/><path d="M433 238.6a4.26 4.26 0 0 1 2.62 2.8 6.31 6.31 0 0 1-.14 3.91 6.06 6.06 0 0 1-1.76 2.73 4 4 0 0 1-3 1 4.85 4.85 0 0 1-3.37-2.42 6.3 6.3 0 0 1-.22-6.57c1.25-1.94 4.13-2.8 6-1.48" class="G"/><path d="M448.63,293.06l3.16,28.33a4.15,4.15,0,0,1-3.45,4.56l-17.27,2.87a4.17,4.17,0,0,1-4.78-3.35l-5.06-27.34Z" class="E"/><g class="B"><path d="M435.15 300.32l1-.14.9 6.45-1 .15zm2.58 21.25l-1 .12-.32-1.15-1.24.15v1.2l-.93.1.26-6.6 1.48-.18zm-2.56-1.78l1-.1-.88-3.22zm5.16 1.47a2.06 2.06 0 0 1-.19-.79l-.12-1c-.07-.6-.3-.8-.76-.75l-.36.05.32 2.63-1 .12-.77-6.47 1.53-.18a1.31 1.31 0 0 1 1.69 1.31l.06.5a1.31 1.31 0 0 1-.51 1.4c.53.15.76.62.84 1.3l.12 1a1.94 1.94 0 0 0 .2.77zm-1.77-5.42l.23 2 .4-.05c.38 0 .6-.23.53-.75l-.08-.64c-.05-.46-.23-.65-.6-.6z"/><path d="M440.85 314.63l3.14-.37.1.92-1.06.13.66 5.54-1 .12-.66-5.54-1.06.13z"/></g><path d="M437.38,309.63a5.78,5.78,0,0,0-1.76-1.59,1.46,1.46,0,0,0-1.89.38,1.43,1.43,0,0,0,0,1.35,3.35,3.35,0,0,0,.91,1.07,17.4,17.4,0,0,0,3.48,2.28,8.76,8.76,0,0,0,2.11-3.6,2.47,2.47,0,0,0,.11-1.26,1,1,0,0,0-.87-.82,1.81,1.81,0,0,0-1.15.46,3.66,3.66,0,0,0-.93,1.73" class="C"/><g class="I"><path d="M448.93 295.76s-9 9.74-7.48 12.86c.88 1.8 3.28 1.64 4.65-.08s3.16-3.8 4.38-5.26c1.6-1.93 1.37-7.75-1.55-7.52z"/><path d="M450.7 302.58s-8.2 8-6.85 10.64 3.75 1.07 4.94-.42 2-2.76 3-4c1.42-1.7 1.72-7.2-1.1-6.22z"/><path d="M451.3 309s-5.83 6.34-4.8 8.37 2.26 1.58 3.16.45l2.87-3.45c1.06-1.3.66-5.87-1.22-5.37zm-27.38 13.9l-4.66-10.9 10.9-12.35s2.74 1.73 1.1 5.36-5.74 7-5.74 7l.3 10.92z"/></g><path d="M427.7 301.9c0 .28-2.17-.2-5.16 1.06a10.47 10.47 0 0 0-4.29 3.39 9.87 9.87 0 0 0 .9 12.33 10.41 10.41 0 0 0 4.75 2.74c3.13.8 5.2 0 5.25.3 0 .08-.43.4-1.37.64a9.71 9.71 0 0 1-4.12.14 10.81 10.81 0 0 1-5.52-2.8 10.91 10.91 0 0 1-1-14.21 10.8 10.8 0 0 1 5.05-3.56 9.49 9.49 0 0 1 4.1-.47c.93.1 1.43.35 1.4.44z" class="E"/><path d="M451 302.16a55.25 55.25 0 0 1-6.73 8.12 27.06 27.06 0 0 1 3.16-4.23 26.39 26.39 0 0 1 3.57-3.89zm1 6.5a14 14 0 0 1-2.29 3.44 13.56 13.56 0 0 1-2.87 3 20.6 20.6 0 0 1 2.46-3.3 21 21 0 0 1 2.7-3.14zm-5.74 19.93a21.71 21.71 0 0 1-4.28 1.89 21.45 21.45 0 0 1-4.47 1.4 21 21 0 0 1 4.28-1.89 21.45 21.45 0 0 1 4.47-1.4z" class="L"/><g class="B"><path d="M432.2 398.78s3-35.48 1.36-40-6.46-21.47-6.46-21.47l26.06-7.78s13.3 35.1 17.88 65.9z"/><path d="M424.54,422.37l-32.15-36-.32,43.75,9,23.28H304.42L301.5,399l-6.92-58.27a15.82,15.82,0,0,1,9.91-16.59L331,313.72l37.28,6.83,15,5.7a41.13,41.13,0,0,1,16.34,11.37l45.14,51.62"/></g><path d="M390.14 377.77a49.55 49.55 0 0 0 5.43-.38 22.05 22.05 0 0 0 18.07-16.67 48.81 48.81 0 0 0 .82-5.38 4.75 4.75 0 0 1 .14 1.48 19 19 0 0 1-.42 4 21.55 21.55 0 0 1-18.53 17.09 19.12 19.12 0 0 1-4 .1 4.41 4.41 0 0 1-1.51-.24z" class="D"/><path d="M392.33 428.27c.22 0 .56-15.15.75-33.84l-.07-33.86c-.23 0-.56 15.15-.75 33.85l.07 33.85z" class="E"/><path d="M389.43 439.4l-58.1-23.4a13.25 13.25 0 0 1-8.32-11.3l-4.2-55.7s.5-23.7-14.3-24.85l-8.42 3.3c-10.88 5.78-13.58 21.63-12.1 33.86 2.1 17.38 3 42 5.33 57.06 1.93 12.33 9 23.2 21.07 26.37l70.73 9z" class="B"/><path d="M319.62 357.48a7.39 7.39 0 0 1 .18 1.28l.38 3.67 1.22 13.5 2.2 25.84a44.74 44.74 0 0 0 .75 6 9.86 9.86 0 0 0 2.88 5.22 19.84 19.84 0 0 0 5.37 3.34c16 6.93 30.8 12.65 41.5 16.67l16.2 5.96a7 7 0 0 1 1.19.5 9.89 9.89 0 0 1-1.24-.35l-3.5-1.14-12.82-4.45c-10.78-3.93-25.57-9.53-41.64-16.53a20.23 20.23 0 0 1-5.57-3.48 10.75 10.75 0 0 1-3.1-5.61 45 45 0 0 1-.74-6.07l-.46-5.8-1.55-20.07-1-13.53-.22-3.68a7 7 0 0 1-.02-1.29z" class="E"/><path d="M311.18 426.75a8.37 8.37 0 0 1 1.05-3.09A20 20 0 0 1 324 413.59a8.65 8.65 0 0 1 3.23-.56c0 .13-1.2.37-3.05 1.08a22.54 22.54 0 0 0-11.48 9.81l-1.52 2.83z" class="B"/><path d="M322.6 384.4s.14 0 .37.16l1 .54a36.72 36.72 0 0 0 4.15 1.76 32.79 32.79 0 0 0 16.29 1.39 32.13 32.13 0 0 0 20.24-12.57A26.75 26.75 0 0 0 370 362.5a18 18 0 0 0-.77-7.45 15.17 15.17 0 0 0-4.19-6.4 12.69 12.69 0 0 0-6.82-3.31 8.12 8.12 0 0 0-6.84 1.92 4.33 4.33 0 0 0-1.33 3.09 5.29 5.29 0 0 0 1.12 3.19 8.72 8.72 0 0 0 5.91 3.09 24 24 0 0 0 12.7-1.82 23.58 23.58 0 0 0 13.38-15 25.16 25.16 0 0 0 1.11-7 27.67 27.67 0 0 0-.33-4.48l-.2-1.16-.05-.4a18.92 18.92 0 0 1 .89 6 25.24 25.24 0 0 1-1 7.12A24.58 24.58 0 0 1 357 357.34a9.48 9.48 0 0 1-6.4-3.35 6.18 6.18 0 0 1-1.28-3.64 5.15 5.15 0 0 1 1.55-3.63 8.85 8.85 0 0 1 7.48-2.15 13.38 13.38 0 0 1 7.24 3.51 15.89 15.89 0 0 1 4.4 6.73 18.73 18.73 0 0 1 .8 7.76 27.4 27.4 0 0 1-5.48 13.52 32.09 32.09 0 0 1-37.21 11.05 23.7 23.7 0 0 1-5.5-2.75zm-38.06-14.87a5.15 5.15 0 0 1 1-1.19 20.9 20.9 0 0 1 3.14-2.73 26.36 26.36 0 0 1 12.85-4.56 24.86 24.86 0 0 1 7.58.32 23 23 0 0 1 5.83 2.05 26 26 0 0 1 3.55 2.16 5.35 5.35 0 0 1 1.17 1c-.08.13-1.82-1.2-4.95-2.64a24.33 24.33 0 0 0-13.1-2.1 27.58 27.58 0 0 0-12.61 4.22c-2.93 1.94-4.35 3.58-4.46 3.47zm9.3-39.83a23.62 23.62 0 0 0 4.7 3.42 17.14 17.14 0 0 0 6 1.76 15 15 0 0 0 13.54-5.6 16.9 16.9 0 0 0 3-5.48 23 23 0 0 0 .91-5.74 5.06 5.06 0 0 1 .2 1.58 14.34 14.34 0 0 1-.58 4.32 16.49 16.49 0 0 1-3 5.76 15.3 15.3 0 0 1-14.17 5.87 16.6 16.6 0 0 1-6.17-2 14.69 14.69 0 0 1-3.46-2.65 4.82 4.82 0 0 1-.97-1.24zm50.63 91.6a6 6 0 0 1 .12-1.1 12.55 12.55 0 0 1 1-3 16.57 16.57 0 0 1 8.7-7.55c4.54-2 10.8-2.44 17.08-.6 3.07.9 6.6 2 8.9 5a5.4 5.4 0 0 1 .65 5.46 8.68 8.68 0 0 1-4.14 3.91 13 13 0 0 1-5.5 1.36 8 8 0 0 1-5.28-1.64 6.74 6.74 0 0 1-2.37-4.78 12.11 12.11 0 0 1 .79-5 22.64 22.64 0 0 1 12-12.12 23.41 23.41 0 0 1 11.43-2 16 16 0 0 1 4.18.88c0 .1-1.48-.4-4.2-.58a23.87 23.87 0 0 0-11.18 2.16 23.39 23.39 0 0 0-6.53 4.43 20.89 20.89 0 0 0-5 7.44 11.27 11.27 0 0 0-.73 4.73 6 6 0 0 0 2.11 4.26 7.3 7.3 0 0 0 4.79 1.45 12.41 12.41 0 0 0 5.16-1.29 8 8 0 0 0 3.79-3.53 4.64 4.64 0 0 0-.57-4.7 10.82 10.82 0 0 0-3.89-3.08 26.53 26.53 0 0 0-4.59-1.71c-6.17-1.82-12.22-1.5-16.68.43a16.57 16.57 0 0 0-8.64 7.18 17 17 0 0 0-1.41 4zm-38.7 20.98c0-.15 2.22-.34 5.58-1.54A27.74 27.74 0 0 0 329.18 421c.85-3.46.82-5.7 1-5.7a5 5 0 0 1 .09 1.57 24.4 24.4 0 0 1-.51 4.25 26.76 26.76 0 0 1-18.19 20.11 23 23 0 0 1-4.18.94 5.86 5.86 0 0 1-1.61.1zM287 399a3.26 3.26 0 0 1 .7-.28l2.08-.6a24.87 24.87 0 0 1 7.91-.8 16.24 16.24 0 0 1 5.38 1.33 12.29 12.29 0 0 1 5 3.94 10.32 10.32 0 0 1 2 6.77 8.37 8.37 0 0 1-1.16 3.64 5.76 5.76 0 0 1-3 2.54 4 4 0 0 1-3.93-.77 5.25 5.25 0 0 1-1.35-3.62 15.52 15.52 0 0 1 1.37-6.92 15.12 15.12 0 0 1 8.47-8 15.34 15.34 0 0 1 7.91-.78 13.58 13.58 0 0 1 2.1.53 2.63 2.63 0 0 1 .69.31c0 .07-1-.3-2.84-.54a15.75 15.75 0 0 0-7.66 1 14.71 14.71 0 0 0-8 7.82 14.89 14.89 0 0 0-1.26 6.59 4.55 4.55 0 0 0 1.12 3.09 3.25 3.25 0 0 0 3.16.6 5 5 0 0 0 2.62-2.21 7.5 7.5 0 0 0 1.06-3.29 9.69 9.69 0 0 0-1.78-6.3 11.91 11.91 0 0 0-4.7-3.77 16.52 16.52 0 0 0-5.16-1.37 26.63 26.63 0 0 0-7.8.56L287 399z" class="D"/><path d="M372.73 432.75c-6.22-3.5-12.3-6.2-18.8-9.16s-12.86-6.74-17.1-12.47c-8-10.8-7.1-26.4-15.32-37.07q.8 10.76 1.6 21.5c.5 6.58-.52 13.08 3.72 17.54 3.56 3.77 10.52 6.65 15.44 8.28 9.9 3.26 20.55 8.1 30.45 11.37" opacity=".3"/><path d="M459.53 346.1a4.68 4.68 0 0 1-.72.45c-.5.27-1.2.7-2.07 1.3a31.21 31.21 0 0 0-6.57 6 29.8 29.8 0 0 0-5.89 11.69 14.65 14.65 0 0 0-.06 7.64 8.32 8.32 0 0 0 2 3.44 7.23 7.23 0 0 0 3.53 2 5.27 5.27 0 0 0 3.93-.64 6.5 6.5 0 0 0 2.57-3 6.36 6.36 0 0 0 .49-3.78 7.6 7.6 0 0 0-1.52-3.35 9.11 9.11 0 0 0-5.87-3.38 12.05 12.05 0 0 0-6 .67 15.87 15.87 0 0 0-4.38 2.49 22.82 22.82 0 0 0-2.79 2.62l-1.57 1.86a5 5 0 0 1-.54.66s0-.07.1-.2.2-.3.35-.53c.32-.46.8-1.12 1.5-1.93a21 21 0 0 1 2.76-2.72 15.76 15.76 0 0 1 4.43-2.61 12.53 12.53 0 0 1 6.19-.75 9.58 9.58 0 0 1 6.18 3.51 8.06 8.06 0 0 1 1.63 3.57 6.88 6.88 0 0 1-.51 4.06 7.08 7.08 0 0 1-2.77 3.22 5.83 5.83 0 0 1-4.31.7 7.66 7.66 0 0 1-3.79-2.18 8.73 8.73 0 0 1-2.14-3.66 15 15 0 0 1 .09-7.89 29.9 29.9 0 0 1 12.81-17.75 24.22 24.22 0 0 1 2.13-1.21 6.55 6.55 0 0 1 .8-.3z" class="D"/><path d="M349.26 453.4a5.49 5.49 0 0 1-.86-.16l-2.44-.52-22.4-4.44-7.88-1.74a52.21 52.21 0 0 1-8.32-2.52 27.9 27.9 0 0 1-12.77-10.63 42.25 42.25 0 0 1-5-12.71 60.19 60.19 0 0 1-1.4-9.12l-.12-2.5a6.39 6.39 0 0 1 0-.87 5.53 5.53 0 0 1 .1.87c0 .57.12 1.4.22 2.5a69.42 69.42 0 0 0 1.55 9 43.14 43.14 0 0 0 5.05 12.59 27.63 27.63 0 0 0 12.57 10.41 53.38 53.38 0 0 0 8.23 2.49l7.86 1.77L337 450.6l9 1.94 2.43.62a4.41 4.41 0 0 1 .83.26z" class="E"/><path d="M391.18,441.68l3.47-1.58,5.35-6.33a8.24,8.24,0,0,1,7.85-2.78l12.45,2.36-3.36,16.42H390.08Z" class="I"/><path d="M404.46 235.53c-5.27-3.08-12.4.6-18-1.9-3.38-1.54-5.38-5-8.1-7.5-4.1-3.75-10.66-5.75-16-4.45s-9.1 3.18-11 8.4c-3.78-3.55-12.4.23-16.14 5s-4.42 10.38-4.36 16.4a79.65 79.65 0 0 0 6.37 30.32c.36.84 1 1.84 1.92 1.65.62-.13 1-.78 1.2-1.37 2.07-5 2.67-10.5 3.46-15.86s1.86-10.84 4.7-15.46 7.85-8.27 13.28-8.06c4 .15 7.68 2.33 10.63 5s5.33 6 8.06 8.92 5.93 5.63 9.78 6.72 8.47.24 11-2.9 1.82-8.6-1.8-10.3a7.88 7.88 0 0 0 5.08-14.6z" class="B"/><path d="M338.62 255l-8.3 60.27a18.1 18.1 0 0 0 16.35 20.5h0a18.11 18.11 0 0 0 19.51-15.59l1.24-8.8s15.55.67 18.74-14.36c1.55-7.27 3.5-22.5 5.13-36.28a28.63 28.63 0 0 0-22.84-31.4L367 229c-15.85-2.18-26.6 10.06-28.38 26z" class="I"/><path d="M367.5 311.16a35.74 35.74 0 0 1-18.5-9.51s2.48 11.78 17.8 13.42z" class="L"/><path d="M384.9 269.94a2.19 2.19 0 0 1-2.51 1.76 2.11 2.11 0 0 1-1.83-2.38 2.19 2.19 0 0 1 2.51-1.76 2.09 2.09 0 0 1 1.83 2.38zm1.68-2.46c-.32.22-1.7-1.3-4-1.77s-4.24.37-4.44 0c-.1-.15.28-.6 1.13-1a6 6 0 0 1 3.62-.37 5.84 5.84 0 0 1 3.14 1.75c.57.73.7 1.3.55 1.4zM362 266.2a2.2 2.2 0 0 1-2.51 1.76 2.1 2.1 0 0 1-1.83-2.39 2.19 2.19 0 0 1 2.51-1.75 2.09 2.09 0 0 1 1.83 2.38zm1.73-2.84c-.32.23-1.7-1.3-4-1.76s-4.24.36-4.44 0c-.1-.15.27-.6 1.12-1a6.09 6.09 0 0 1 3.63-.37 5.84 5.84 0 0 1 3.14 1.75c.57.72.7 1.28.55 1.38zm4.97 18.84a15.92 15.92 0 0 1 3.89.08c.6 0 1.2 0 1.37-.34a3.17 3.17 0 0 0 0-1.83l-.85-4.85c-1.15-6.9-1.86-12.52-1.58-12.56s1.44 5.5 2.58 12.4l.77 4.87a3.47 3.47 0 0 1-.15 2.38 1.51 1.51 0 0 1-1.15.67 4.14 4.14 0 0 1-1-.06c-2.44-.34-3.9-.62-3.88-.76zm-7.13.25c.38.06-.12 2.57 1.68 4.8s4.52 2.47 4.47 2.82c0 .17-.7.37-1.83.18a6.41 6.41 0 0 1-3.76-2.22 5.55 5.55 0 0 1-1.25-4c.12-1.02.52-1.6.7-1.57zm4.57-28.05c-.35.6-2.6-.17-5.4-.4s-5.12.1-5.37-.55c-.1-.3.4-.82 1.4-1.25a9.36 9.36 0 0 1 8.2.72c.92.6 1.32 1.2 1.16 1.47zm20.93 6.2c-.5.45-2-.42-3.9-.83s-3.6-.35-3.88-1c-.1-.3.25-.77 1.06-1.13a5.82 5.82 0 0 1 6.28 1.46c.57.7.68 1.28.45 1.5z" class="B"/><path d="M337.62 266.38c-.23-.16-9.74-5.13-11.47 5.24s9 10 9.1 9.67 2.36-14.9 2.36-14.9z" class="I"/><path d="M332.74 276.84s-.2.1-.53.18a1.77 1.77 0 0 1-1.35-.2c-1-.58-1.66-2.47-1.4-4.35a6 6 0 0 1 .94-2.5 2.08 2.08 0 0 1 1.59-1.16.93.93 0 0 1 1 .67c.1.3 0 .5 0 .54s.25-.14.24-.58a1.17 1.17 0 0 0-.3-.72 1.33 1.33 0 0 0-.95-.43 2.59 2.59 0 0 0-2.16 1.29 6.22 6.22 0 0 0-1.11 2.79c-.28 2.1.47 4.23 1.9 4.9a2 2 0 0 0 1.7 0c.38-.2.48-.42.44-.44z" class="L"/><path d="M395.12 258.23a22.19 22.19 0 0 1-18.47-8.23c-3-3.84-5-8.87-9.3-11.2a12.49 12.49 0 0 0-9.62-.59 24.14 24.14 0 0 0-8.4 5.1c1.38 8.24-2.28 16.4-5.85 24a4.17 4.17 0 0 1-1.68 2.13c-1.4.7-3.08-.4-3.92-1.72-1.35-2.12-1.5-4.77-1.46-7.28a43.34 43.34 0 0 1 3.44-16.69 29.36 29.36 0 0 1 10.84-13 27.89 27.89 0 0 1 20.63-3.42 34.25 34.25 0 0 1 18.07 10.85 20 20 0 0 1 4.88 8.56" class="B"/><path d="M408.06 240a2.18 2.18 0 0 1-.27.87 4.22 4.22 0 0 1-1.86 1.84 6.72 6.72 0 0 1-4.11.52 11.52 11.52 0 0 1-2.52-.67 5.7 5.7 0 0 1-2.39-1.74 3.71 3.71 0 0 1-.7-3.17 3.23 3.23 0 0 1 2.71-2.19 4 4 0 0 1 1.9.13 3.37 3.37 0 0 1 1.61 1.15 4.77 4.77 0 0 1 .82 3.91 5.55 5.55 0 0 1-2.38 3.45 8.44 8.44 0 0 1-4.16 1.38 13.87 13.87 0 0 1-8.61-2.72 40.24 40.24 0 0 1-6.71-6.11 51 51 0 0 0-6-5.8 15.61 15.61 0 0 0-6.74-3.13 14.79 14.79 0 0 0-6.48.35 18.61 18.61 0 0 0-8.08 4.85 25 25 0 0 0-1.75 1.92l-.58.7c-.01-.01 0-.07.1-.2s.2-.32.4-.56a20.12 20.12 0 0 1 1.69-2 18.4 18.4 0 0 1 8.12-5.06 15.18 15.18 0 0 1 6.65-.42 16.06 16.06 0 0 1 7 3.18 50.45 50.45 0 0 1 6.11 5.83 39.42 39.42 0 0 0 6.62 6 13.44 13.44 0 0 0 8.29 2.64 8 8 0 0 0 3.91-1.28 5 5 0 0 0 2.19-3.14 4.34 4.34 0 0 0-.71-3.53 3.16 3.16 0 0 0-3.08-1.14 2.87 2.87 0 0 0-2.4 1.88 3.34 3.34 0 0 0 .62 2.84 5.28 5.28 0 0 0 2.21 1.65 10.78 10.78 0 0 0 2.45.69 6.55 6.55 0 0 0 4-.41 4.28 4.28 0 0 0 1.86-1.7 7.52 7.52 0 0 0 .27-.81zm-76.5 3.53a17.42 17.42 0 0 0 3 1.45 9.24 9.24 0 0 0 3.52.33 15.25 15.25 0 0 0 4.24-1.09 12.31 12.31 0 0 0 5.81-5.22 26.06 26.06 0 0 0 1.33-3.06 2.81 2.81 0 0 1-.13.91 10.18 10.18 0 0 1-.87 2.32 12 12 0 0 1-5.94 5.53 14.92 14.92 0 0 1-4.4 1.09 9.11 9.11 0 0 1-3.68-.46 8.78 8.78 0 0 1-2.2-1.18 2.82 2.82 0 0 1-.68-.62zm-1.04 7.55c0-.1 1.18.4 3.15.7a14.37 14.37 0 0 0 13.61-5.54c1.2-1.58 1.68-2.74 1.77-2.7a2.68 2.68 0 0 1-.28.83 13 13 0 0 1-1.19 2.09 13.93 13.93 0 0 1-14 5.69 12.36 12.36 0 0 1-2.3-.66 2.72 2.72 0 0 1-.76-.4z" class="E"/><g class="L"><path d="M354.07 271.67a.29.29 0 1 1 .26-.29.28.28 0 0 1-.26.29zm4.63-.12a.34.34 0 1 1 .27-.33.31.31 0 0 1-.27.33zm3 .52c-.14 0-.25-.2-.23-.44s.15-.42.3-.4.25.2.23.44-.15.42-.3.4zm-6 2.8c-.14 0-.24-.12-.22-.2s.14-.14.3-.12.24.13.22.22-.15.14-.3.1zm4.24-.13a.28.28 0 0 1-.23-.32.261.261 0 1 1 .52.05.28.28 0 0 1-.29.27z"/><ellipse cx="381.56" cy="276.15" rx=".26" ry=".29"/><path d="M384.63 276.77a.33.33 0 0 1 .07-.65.3.3 0 0 1 .22.35c-.02.18-.15.32-.3.3zm-5.75-.77a.25.25 0 0 1-.26-.23.25.25 0 0 1 .26-.23.25.25 0 0 1 .26.23.24.24 0 0 1-.26.23zm1.62 3.45a.27.27 0 0 1-.31-.23.26.26 0 1 1 .31.23zm2.7 0a.23.23 0 0 1-.13-.31.24.24 0 0 1 .33-.08.22.22 0 1 1-.2.39z"/></g><g class="B"><path d="M328.06 278.8a6.53 6.53 0 0 0-.75 2.28 3.46 3.46 0 0 0 .69 2.38 3.17 3.17 0 0 0 2.63 1.29 2.9 2.9 0 0 0 2.41-1.6 3.75 3.75 0 0 0 0-2.49 5.26 5.26 0 0 0-1.14-2.1c0-.08 1 .45 1.5 2a4 4 0 0 1 0 2.79 3.32 3.32 0 0 1-2.81 1.92 3.57 3.57 0 0 1-3.05-1.52 3.79 3.79 0 0 1-.68-2.7 4.19 4.19 0 0 1 .65-1.75c.33-.37.5-.52.55-.5z"/><path d="M328.44 277.07s.35.2.43.82a1.5 1.5 0 0 1-.26 1 1.55 1.55 0 0 1-1.14.67 1.41 1.41 0 0 1-1.22-.57 1.19 1.19 0 0 1-.18-1.08c.2-.6.68-.7.68-.63s-.26.26-.32.72a.85.85 0 0 0 .2.7 1 1 0 0 0 .8.34 1.15 1.15 0 0 0 .8-.44 1.27 1.27 0 0 0 .27-.73c.03-.45-.13-.76-.06-.8z"/></g><path d="M512.43 388.43l-29.3 64.98h-127.6l.52-3.3 44.2-.75 22.3-60.64 89.86-.3z" class="E"/><path d="M454.06,417.87A5,5,0,0,1,461.3,421a4.87,4.87,0,0,1-4.62,5.82,4.66,4.66,0,0,1-4.68-3.09c-.56-1.94.06-4.83,2.06-5.85" class="H"/><path d="M188.62 378.6h17.63v20.96h-17.63z" class="G"/><g class="C"><path d="M109.54 377.23h79.68v23.65h-79.68z"/><path d="M206.8 379.22h-19.7v-2h19.7a1 1 0 0 1 1 1h0a1 1 0 0 1-1 1zm0 21.66h-19.7v-2h19.7a1 1 0 0 1 1 1h0a1 1 0 0 1-1 1z"/></g><path d="M173.55 377.23h9.4v23.65h-9.4zm-56.95 0h9.4v23.65h-9.4z" class="J"/><path d="M206.25 382.07c0 .05-3.82.1-8.52.1s-8.53-.05-8.53-.1 3.82-.1 8.53-.1l8.52.1zm0 3.13c0 .06-3.82.1-8.52.1s-8.53 0-8.53-.1 3.82-.1 8.53-.1l8.52.1zm0 3.88c0 .06-3.82.1-8.52.1s-8.53 0-8.53-.1 3.82-.1 8.53-.1l8.52.1zm0 3.92c0 .06-3.82.1-8.52.1s-8.53-.05-8.53-.1 3.82-.1 8.53-.1l8.52.1zm0 3.82c0 .06-3.82.1-8.52.1s-8.53-.05-8.53-.1 3.82-.1 8.53-.1l8.52.1z" class="F"/><path d="M132.64 386.95h35.85v4.26h-35.85z" class="K"/><path d="M188.17 401.34h17.9v12.77h-17.9z" class="M"/><g class="E"><path d="M112.18 400.88h76.2v13.7h-76.2z"/><path d="M187.82 401.8h19.24a.47.47 0 0 0 .46-.47h0a.47.47 0 0 0-.46-.46h-19.24zm0 11.85h19.28a.42.42 0 0 1 .42.42v.1a.42.42 0 0 1-.42.42h-19.28a0 0 0 0 1 0 0v-.93a0 0 0 0 1 0 0z"/></g><g class="F"><use xlink:href="#I"/><path d="M206.07 406.2c0 .05-4 .1-8.85.1s-8.85-.05-8.85-.1 4-.1 8.85-.1l8.85.1z"/><use xlink:href="#I" y="4.83"/><use xlink:href="#I" y="7.23"/></g><path d="M190.5 415.8h18.27v34.62H190.5z" class="H"/><g class="C"><path d="M104.74 414.58h85.77v37.54h-85.77z"/><path d="M210.22 452.12h-22.05v-2.43h22.05a1.21 1.21 0 0 1 1.21 1.21h0a1.22 1.22 0 0 1-1.21 1.22zm-22.05-37.54h22.16a1.1 1.1 0 0 1 1.1 1.1v.23a1.1 1.1 0 0 1-1.1 1.1h-22.16a0 0 0 0 1 0 0v-2.43a0 0 0 0 1 0 0z"/></g><g class="F"><use xlink:href="#J"/><use xlink:href="#J" y="4.44"/><use xlink:href="#J" y="8.88"/><use xlink:href="#J" y="13.32"/><use xlink:href="#J" y="17.76"/><path d="M208.8 442.64c0 .06-4.1.1-9.14.1s-9.14-.05-9.14-.1 4.1-.1 9.14-.1l9.14.1zm0 4.44c0 .06-4.1.1-9.14.1s-9.14-.05-9.14-.1 4.1-.1 9.14-.1l9.14.1z"/></g><path d="M134.1 435.4v2.1c0 2.52-1.26 4-3.68 4s-3.7-1.44-3.7-4v-8.17c0-2.52 1.26-4 3.7-4s3.68 1.44 3.68 4v1.52h-2.34v-1.68c0-1.12-.5-1.55-1.28-1.55s-1.28.43-1.28 1.55v8.5c0 1.12.5 1.53 1.28 1.53s1.28-.4 1.28-1.53v-2.25zm1.3-6.08c0-2.52 1.33-4 3.75-4s3.75 1.44 3.75 4v8.17c0 2.52-1.32 4-3.75 4s-3.75-1.44-3.75-4zm2.47 8.33c0 1.12.5 1.55 1.28 1.55s1.28-.43 1.28-1.55v-8.5c0-1.12-.5-1.55-1.28-1.55s-1.28.43-1.28 1.55zm6.63-12.1h2.5V439h4v2.25h-6.53zm7.4 3.78c0-2.52 1.32-4 3.75-4s3.75 1.44 3.75 4v8.17c0 2.52-1.33 4-3.75 4s-3.75-1.44-3.75-4zm2.47 8.33c0 1.12.5 1.55 1.28 1.55s1.28-.43 1.28-1.55v-8.5c0-1.12-.5-1.55-1.28-1.55s-1.28.43-1.28 1.55zm8.98-12.1v12.13c0 1.13.5 1.53 1.28 1.53s1.28-.4 1.28-1.53v-12.13h2.34v12c0 2.52-1.26 4-3.7 4s-3.68-1.44-3.68-4v-12zm11.75 15.73a5 5 0 0 1-.22-1.94v-2.47c0-1.46-.5-2-1.62-2h-.85v6.4h-2.47v-15.73h3.73c2.56 0 3.66 1.2 3.66 3.62v1.23c0 1.62-.52 2.68-1.62 3.2 1.24.52 1.64 1.7 1.64 3.35v2.43a4.61 4.61 0 0 0 .27 1.91zm-2.7-13.48v4.83h1c.92 0 1.48-.4 1.48-1.66v-1.55c0-1.13-.38-1.62-1.26-1.62z" class="H"/><path d="M133.56 406.27h-1.8l.1-.46H136l-.1.46h-1.8l-.93 4.64h-.53zm5.9.8l-2.8 4.33c-.47.73-.83.95-1.38.95a1.23 1.23 0 0 1-.91-.34l.27-.38a.89.89 0 0 0 .68.28c.33 0 .6-.15.88-.62l.27-.4-1-3.8h.54l.8 3.26 2.1-3.26zm4.27 1.6a2.16 2.16 0 0 1-2.17 2.28 1.44 1.44 0 0 1-1.46-.84l-.44 2.22h-.52l1-5.25h.5l-.12.6a1.92 1.92 0 0 1 1.49-.64 1.55 1.55 0 0 1 1.72 1.62zm-.53 0a1.12 1.12 0 0 0-1.26-1.2 1.67 1.67 0 0 0-1.65 1.8 1.12 1.12 0 0 0 1.26 1.19 1.67 1.67 0 0 0 1.65-1.76zm1.13.65a2.18 2.18 0 0 1 2.22-2.27 1.57 1.57 0 0 1 1.74 1.62 2.17 2.17 0 0 1-2.21 2.28 1.58 1.58 0 0 1-1.75-1.63zm3.45-.62a1.13 1.13 0 0 0-1.27-1.2 1.69 1.69 0 0 0-1.66 1.8 1.12 1.12 0 0 0 1.26 1.19 1.68 1.68 0 0 0 1.67-1.79zm5.48-1.62l-.67 3.37a2 2 0 0 1-2.24 1.91 2.42 2.42 0 0 1-1.7-.57l.3-.4a2 2 0 0 0 1.44.52 1.5 1.5 0 0 0 1.66-1.38l.1-.42a2 2 0 0 1-1.53.66 1.52 1.52 0 0 1-1.69-1.55 2.12 2.12 0 0 1 2.19-2.17 1.47 1.47 0 0 1 1.49.87l.16-.84zm-.88 1.54c0-.7-.47-1.12-1.27-1.12a1.63 1.63 0 0 0-1.67 1.69c0 .7.47 1.12 1.27 1.12a1.63 1.63 0 0 0 1.67-1.69zm4.26-1.57l-.1.5h-.14a1.51 1.51 0 0 0-1.55 1.43l-.4 1.94h-.52l.76-3.83h.5l-.14.7a1.73 1.73 0 0 1 1.58-.74zm4.37.03l-.77 3.83h-.5l.13-.6a2 2 0 0 1-1.5.64 1.55 1.55 0 0 1-1.67-1.63 2.16 2.16 0 0 1 2.17-2.27 1.45 1.45 0 0 1 1.46.83l.16-.8zm-.86 1.62a1.13 1.13 0 0 0-1.27-1.2 1.69 1.69 0 0 0-1.66 1.8 1.12 1.12 0 0 0 1.26 1.19 1.68 1.68 0 0 0 1.7-1.79zm5.86-.03a2.16 2.16 0 0 1-2.18 2.28 1.44 1.44 0 0 1-1.46-.84l-.43 2.22h-.52l1-5.25h.5l-.13.6a2 2 0 0 1 1.5-.64 1.55 1.55 0 0 1 1.72 1.62zm-.53 0a1.12 1.12 0 0 0-1.26-1.2 1.67 1.67 0 0 0-1.66 1.8 1.12 1.12 0 0 0 1.26 1.19 1.67 1.67 0 0 0 1.67-1.76zm5.18-.37a3.44 3.44 0 0 1 0 .43l-.44 2.18h-.52l.44-2.2a2.14 2.14 0 0 0 0-.34c0-.55-.32-.87-1-.87a1.5 1.5 0 0 0-1.56 1.35l-.4 2.05h-.52l1.08-5.4h.52l-.43 2.15a1.9 1.9 0 0 1 1.47-.6 1.2 1.2 0 0 1 1.37 1.25zm4.85-1.22l-2.8 4.33c-.48.73-.84.95-1.4.95a1.23 1.23 0 0 1-.91-.34l.28-.38a.85.85 0 0 0 .67.28c.33 0 .6-.15.9-.62l.27-.4-1-3.8h.53l.8 3.26 2.1-3.26z" class="B"/><path d="M126.03 414.58l-11.8 37.54h-9.48v-37.54h21.3z" opacity=".3"/><path d="M152.15 359.36c-5.55-3.22-8.53-10.7-8.75-16.85s2.33-12.53 7.36-16.05a16.86 16.86 0 0 1 18.29-.15 19 19 0 0 1 8.39 16.53 21.89 21.89 0 0 1-9 16.46" class="C"/><path d="M161 360a8 8 0 0 1-.1-1.41l-.1-3.82-.42-12.62-.7-12.6-.23-3.82a8.9 8.9 0 0 1 0-1.41 6.57 6.57 0 0 1 .23 1.39l.4 3.8c.3 3.22.62 7.68.84 12.6a271.98 271.98 0 0 1 .27 12.63c0 1.62 0 2.93-.06 3.83A6.91 6.91 0 0 1 161 360z" class="D"/><path d="M145.05 341.12c0 .15-.9.2-2 .1s-1.95-.28-1.94-.42.9-.2 2-.1 1.95.3 1.94.42zm.3-5.5c-.06.13-.82-.08-1.7-.47s-1.55-.82-1.5-.95.82.08 1.7.47 1.56.82 1.5.95zm2.83-4.1c-.07.12-.93-.28-1.83-1S144.9 329 145 328.9s.82.5 1.7 1.2 1.57 1.3 1.5 1.42zm2.82-3.85c-.13.06-.54-.6-.92-1.44s-.58-1.6-.44-1.65.54.6.92 1.44.6 1.6.44 1.65zm4.5-2.74c-.13.06-.57-.62-.87-1.57s-.32-1.77-.18-1.8.4.72.68 1.63.5 1.67.37 1.73zm7.5-3.08c.14.05.06.63-.18 1.3s-.54 1.18-.68 1.13-.05-.63.2-1.3.5-1.18.67-1.13zm5.5 2.37c.1.1-.26.6-.8 1.1s-1.05.8-1.14.7.25-.6.8-1.1 1.05-.8 1.15-.7zm4.85 3.15c.1.12-.35.55-1 1s-1.18.65-1.26.54.35-.56 1-1 1.18-.66 1.26-.54zm3.45 4.7c.06.13-.62.55-1.52.93s-1.67.6-1.73.45.63-.55 1.52-.93 1.68-.6 1.73-.45zm1.37 5.1c0 .14-.67.35-1.55.45s-1.6.08-1.6-.06.68-.34 1.55-.45 1.6-.12 1.6.06zm.7 6.3c-.06.14-.8-.06-1.65-.43s-1.5-.78-1.44-.9.8.06 1.65.43 1.5.78 1.44.9zm-.62 5.4c0 .14-1-.1-2-.73s-1.56-1.4-1.46-1.5.82.47 1.75 1.07 1.76 1.03 1.7 1.16zm-2.8 4.93c-.1.1-.83-.32-1.55-1.1s-1.1-1.55-1-1.62.68.53 1.36 1.26 1.28 1.34 1.2 1.45zm-26.7.57c.07.13-.7.67-1.74 1.2s-1.92.87-2 .74.72-.66 1.75-1.2 1.93-.87 2-.74zm-2.44-4.45c.06.13-.56.55-1.4.92s-1.56.58-1.62.45.57-.54 1.4-.92 1.56-.58 1.6-.45zm-1.8-3.92c0 .15-.75.37-1.72.5s-1.78.13-1.8 0 .76-.37 1.73-.5 1.77-.16 1.8 0zm5.9-2.2c.05.14-.7.5-1.7.6s-1.8-.06-1.8-.2.8-.2 1.74-.32 1.73-.22 1.77-.08zm4.88-4.8c0 .14-.56.44-1.37.52s-1.45-.1-1.43-.24.63-.2 1.38-.28 1.38-.2 1.42 0zm.92-3.94c-.05.13-.7 0-1.45-.23s-1.32-.58-1.27-.7.7 0 1.44.22 1.33.58 1.28.72zm1.8-3.94c-.1.1-.54-.2-.86-.75s-.35-1.08-.2-1.12.38.37.66.86.52.9.4 1zm-2.16 16.12c0 .14-.52.4-1.25.58a4.93 4.93 0 0 1-1.05.15l-.1-.3h.34c.03 0-.05.15-.2.26l-.1-.3a4.46 4.46 0 0 1 1-.35c.73-.15 1.35-.18 1.38-.04zm1 6.9c.05.13-.66.54-1.6.9s-1.73.56-1.8.43.67-.54 1.6-.9 1.74-.57 1.8-.42zm-5.52-3.07c0 .13-.43.42-1.06.64s-1.2.28-1.24.14.43-.42 1.07-.64 1.18-.28 1.23-.14zm.42-14.08c0 .13-.86.05-1.82-.3s-1.66-.8-1.6-.93.84.1 1.77.44 1.7.66 1.65.78zm13.35-1.5c.08.12-.4.57-1.05 1s-1.25.68-1.33.56.4-.56 1.05-1 1.22-.68 1.33-.56zm.73 6.93c0 .14-.46.36-1.1.5s-1.18.13-1.2 0 .46-.36 1.1-.5 1.18-.13 1.2.01zm.85 7.8c-.06.13-.77-.07-1.58-.45s-1.43-.8-1.36-.92.76.07 1.58.45 1.42.8 1.36.92zm-1.78 7.6c-.1.1-.57-.3-1-.84s-.74-1.08-.63-1.17.57.28 1 .84.74 1.07.63 1.17zm-.37-27.42c.08.1-.22.5-.74.76s-1 .27-1 .14.34-.37.8-.6.84-.4.93-.3zm6.54 7c.05.13-.56.46-1.38.58s-1.5 0-1.5-.18.65-.23 1.42-.34 1.4-.2 1.46-.06zm-1.3-6.3c.06.12-.54.55-1.4.83s-1.6.27-1.62.13.64-.37 1.46-.63 1.48-.44 1.55-.33zm2.73 16a6.32 6.32 0 0 1-4.39-.8 7.1 7.1 0 0 1 2.21.29 6.91 6.91 0 0 1 2.18.51zm-2.43 9.13c-.1.1-.85-.34-1.6-1.1s-1.2-1.52-1.1-1.6.73.5 1.46 1.23 1.32 1.35 1.23 1.47z" class="B"/><g class="D"><path d="M159.37 323.7a23.42 23.42 0 0 0-4.56 3.61 22.28 22.28 0 0 0-5.69 12.57 28.15 28.15 0 0 0 .35 7.7 56.7 56.7 0 0 0 1.44 6.18l1.27 4.1a9.47 9.47 0 0 1 .43 1.51 8.62 8.62 0 0 1-.63-1.44l-1.42-4.07a51.5 51.5 0 0 1-1.57-6.2 27.92 27.92 0 0 1-.38-7.85 21.93 21.93 0 0 1 5.93-12.8 16.21 16.21 0 0 1 3.41-2.66 10.9 10.9 0 0 1 1-.54l.42-.1z"/><path d="M166.48 359.7a59.71 59.71 0 0 0 2.34-5.59 31.8 31.8 0 0 0 1.4-14.39 27.33 27.33 0 0 0-2.22-7.66 18.19 18.19 0 0 0-3.78-5.27 13.8 13.8 0 0 0-3.71-2.34l-1.53-.54a1.17 1.17 0 0 1 .43 0 7.75 7.75 0 0 1 1.18.32 12.91 12.91 0 0 1 3.87 2.25 17.78 17.78 0 0 1 4 5.34 26.63 26.63 0 0 1 2.3 7.8 30.55 30.55 0 0 1-1.57 14.58c-.3.9-.67 1.67-.95 2.36s-.6 1.26-.87 1.72a10.66 10.66 0 0 1-.89 1.42z"/></g><g class="B"><path d="M146.3 358.47H175l.18 5.74H146.3v-5.74z"/><path d="M148.74 361.34l1.65 17.54h21l1.68-17.35-24.32-.2z"/></g><path d="M175.2 364.28c0 .15-6.47.26-14.44.26s-14.44-.1-14.44-.26 6.46-.26 14.44-.26 14.44.12 14.44.26zm-2.93 5.34a4.37 4.37 0 0 1-.62 1.1 15.72 15.72 0 0 1-2.22 2.63l-.13.13-.13-.14a42.39 42.39 0 0 0-5.63-4.93h.32l-2.5 2.2-2.94 2.57-.17.14-.16-.14-4.8-4h.27l-2.47 3a7 7 0 0 1-1 1.06 7.71 7.71 0 0 1 .8-1.2l2.47-3.3.16.13 4.86 3.94h-.33l2.94-2.6 2.66-2.32.16.12a37.29 37.29 0 0 1 5.6 5.09h-.26a28.73 28.73 0 0 0 3.11-3.47z" class="E"/><path d="M548.65 357.13h99.86v72.92h-99.86z" class="D"/><path d="M548.65 357.13h99.86v9.1h-99.86z" class="C"/><path d="M554.07 362a1 1 0 1 1-1-1.14 1.09 1.09 0 0 1 1 1.14zm4.23 0a1 1 0 1 1-1-1.14 1.1 1.1 0 0 1 1 1.14zm4.22 0a1 1 0 1 1-1-1.14 1.09 1.09 0 0 1 1 1.14z" class="D"/><path d="M558.15 375.17h14.23v35.8h-14.23z" class="C"/><path d="M580.1 375.17h14.23v35.8H580.1z" class="H"/><path d="M602.03 375.17h14.23v35.8h-14.23z" class="M"/><path d="M623.98 375.46h14.23v35.8h-14.23z" class="F"/><path d="M556.5 414.93h86.26v8.18H556.5z" class="C"/><g class="B"><path d="M636.2 421.43l1.86 9.85 1.52-2.75 3.28 4.9 1.64-1.1-3.28-4.9 3-.46-8.03-5.54z"/><path d="M648.5 430.05v-5.2l-.05-14.72-.1-53 .2.2H548.7l.23-.23V430l-.2-.2 72 .1 20.58.05-20.45.06-72.36.1v-73.36l100.27.05v.18l-.1 53.1-.05 14.68v3.84c0 .84-.1 1.45-.1 1.45z"/></g><g class="C"><path d="M657.18 262.15c0 .35-25.66.63-57.3.63s-57.32-.28-57.32-.63 25.66-.63 57.32-.63l57.3.63z"/><path d="M598.56 259.7h6.77v6.77h-6.77zm59.9 2.45a2 2 0 1 1-2-2 2 2 0 0 1 2 2z"/><circle cx="542.56" cy="262.15" r="2.01"/><path d="M592.23 243.6l8.57 16h1.1l-.3-12.82a1.42 1.42 0 1 1 1.67-1.42 1.41 1.41 0 0 1-1.13 1.4l.3 12.82h1l8.1-16.74c-6.22-.2-7-6.15-7-6.15l-6 .1c.18 5.97-6.3 6.82-6.3 6.82zm56.23 74.7a2.24 2.24 0 0 1 0-.42v-1.22c0-1.08-.1-2.66-.25-4.7A72.45 72.45 0 0 0 645 295a50.35 50.35 0 0 0-4.91-10.82A38.79 38.79 0 0 0 625 269.87a45.25 45.25 0 0 0-7.09-3 54.24 54.24 0 0 0-7.77-1.79 68.69 68.69 0 0 0-8.2-.68c-11.1-.42-21.77 2.93-29.4 8.76a38.8 38.8 0 0 0-9.25 9.95 46.14 46.14 0 0 0-5.13 10.71c-.33.85-.54 1.7-.78 2.55s-.48 1.64-.67 2.44c-.3 1.6-.7 3.12-.9 4.55l-.58 4c-.16 1.23-.2 2.37-.3 3.4a37.3 37.3 0 0 0-.16 2.7l-.08 2c-.02.56 0 .93-.06 1.23a2.18 2.18 0 0 1 0 .41 1.85 1.85 0 0 1 0-.41v-3.23c0-.8 0-1.7.1-2.72s.17-2.16.26-3.4.34-2.57.53-4 .57-2.95.88-4.58c.18-.8.43-1.6.65-2.46s.44-1.7.77-2.57a46.38 46.38 0 0 1 5.12-10.83 39.07 39.07 0 0 1 9.32-10.09c7.73-5.92 18.5-9.32 29.72-8.9a68.15 68.15 0 0 1 8.26.69 53.05 53.05 0 0 1 7.85 1.82 45.74 45.74 0 0 1 7.17 3 40.85 40.85 0 0 1 6.21 4.13 40.1 40.1 0 0 1 9 10.39 49.8 49.8 0 0 1 4.9 10.94 70.8 70.8 0 0 1 3 17.05c.1 2 .15 3.63.14 4.7v1.22a1.91 1.91 0 0 1-.05.43z"/></g><path d="M516.374 137.015l3.305-2.843 4.434 5.155-3.305 2.843z" class="B"/><path d="M522.8 134.23l-6.8 5.86-4.78-5.56a17.06 17.06 0 0 1 6.81-5.86z" class="E"/><path d="M517.13 139.1a14.16 14.16 0 0 1-2.7-2.72 14.73 14.73 0 0 1-2.32-3 14.48 14.48 0 0 1 2.71 2.71 14.09 14.09 0 0 1 2.31 3.01zm1.3-1.1a15.45 15.45 0 0 1-2.68-2.86 21.27 21.27 0 0 1-2.33-3.15c.14-.13 1.36 1.15 2.73 2.8a14.5 14.5 0 0 1 2.28 3.2zm1.72-1.5a15.36 15.36 0 0 1-2.68-2.9 18 18 0 0 1-2.32-3.21 13.37 13.37 0 0 1 2.72 2.88 14.37 14.37 0 0 1 2.28 3.23zm1.58-1.4a14.68 14.68 0 0 1-2.69-2.75 14.61 14.61 0 0 1-2.29-3.08 14.34 14.34 0 0 1 2.69 2.75 14.61 14.61 0 0 1 2.29 3.08zm53.54-.104l3.012 3.152-4.916 4.698-3.012-3.152z" class="B"/><path d="M578.42 141.25l-6.2-6.5 5.3-5.07a17.22 17.22 0 0 1 6.21 6.5z" class="E"/><path d="M573.26 135.85a28 28 0 0 1 5.49-5.31 14.61 14.61 0 0 1-2.56 2.84 14.35 14.35 0 0 1-2.93 2.47zm1.18 1.25a15.18 15.18 0 0 1 2.72-2.83 21.32 21.32 0 0 1 3-2.49c.14.13-1.07 1.42-2.67 2.88a14.59 14.59 0 0 1-3.05 2.44zm1.56 1.63a15.63 15.63 0 0 1 2.76-2.84 18.61 18.61 0 0 1 3.08-2.48c.12.12-1.1 1.4-2.73 2.87a15.22 15.22 0 0 1-3.11 2.45zm1.5 1.5a28.55 28.55 0 0 1 5.56-5.27 14.09 14.09 0 0 1-2.6 2.82 14.11 14.11 0 0 1-2.96 2.45zm-32.18-17.13h5.16v8.05h-5.16z" class="B"/><path d="M553.25 125.5h-10.63v-8.68a20.37 20.37 0 0 1 10.63 0z" class="C"/><g class="B"><path d="M553.37,116.87a11.51,11.51,0,0,1-10.8,0,18.09,18.09,0,0,0,10.8,0Z"/><path d="M546.13 125.5a13.73 13.73 0 0 1-.26-3.72 13.77 13.77 0 0 1 .26-3.73 13.77 13.77 0 0 1 .26 3.73 13.73 13.73 0 0 1-.26 3.72zm2.02.04a13.82 13.82 0 0 1-.26-3.74 13.88 13.88 0 0 1 .26-3.74 13.41 13.41 0 0 1 .26 3.74 13.36 13.36 0 0 1-.26 3.74zm2.03-.04a13.41 13.41 0 0 1-.26-3.74 13.36 13.36 0 0 1 .26-3.74 13.82 13.82 0 0 1 .26 3.74 13.88 13.88 0 0 1-.26 3.74zm1.68 0a16.13 16.13 0 0 1-.26-4 16.18 16.18 0 0 1 .26-4 16.18 16.18 0 0 1 .26 4 16.13 16.13 0 0 1-.26 4zm-7.64-.05a15.52 15.52 0 0 1-.26-4 15.59 15.59 0 0 1 .26-4 16.13 16.13 0 0 1 .26 4 16.06 16.06 0 0 1-.26 4z"/></g><circle cx="547.28" cy="166.22" r="37.55" class="C"/><circle cx="547.28" cy="165.92" r="31.53" transform="matrix(.707107 -.707107 .707107 .707107 42.97 435.58)" class="M"/><g class="B"><path d="M578.8 165.92a5 5 0 0 1 0-.51c0-.36-.06-.86-.1-1.5 0-.33 0-.7-.07-1.1l-.2-1.32a23.42 23.42 0 0 0-.66-3.25 30.17 30.17 0 0 0-3.5-8.35 31.51 31.51 0 0 0-21.17-14.73 28.74 28.74 0 0 0-4-.46c-.68 0-1.36-.1-2-.08l-2.08.1c-.34 0-.7 0-1 .07l-1.05.16-2.1.34a33.57 33.57 0 0 0-4.17 1.23 32 32 0 0 0-4.08 1.79l-1.95 1.17a15.09 15.09 0 0 0-1.89 1.3 28.16 28.16 0 0 0-6.61 6.64 30.18 30.18 0 0 0-4.47 8.62 30.94 30.94 0 0 0 0 19.73 30.2 30.2 0 0 0 4.48 8.62 33.55 33.55 0 0 0 3.06 3.63 35.9 35.9 0 0 0 3.55 3 15.09 15.09 0 0 0 1.89 1.3l1.95 1.17a32 32 0 0 0 4.08 1.79 33.57 33.57 0 0 0 4.17 1.23l2.1.34 1 .16c.35.05.7 0 1 .07l2.07.1 2-.08a30.17 30.17 0 0 0 4-.46A31.45 31.45 0 0 0 574.23 182a30.22 30.22 0 0 0 3.5-8.36 23.42 23.42 0 0 0 .66-3.25l.2-1.3c.04-.4 0-.77.07-1.1 0-.64.07-1.13.1-1.5a5 5 0 0 1 0-.51v3.12c0 .4-.12.84-.18 1.32a23.16 23.16 0 0 1-.62 3.28 29.69 29.69 0 0 1-3.44 8.45 31.71 31.71 0 0 1-21.34 15 29.25 29.25 0 0 1-4 .47l-2.07.1-2.1-.1c-.35 0-.7 0-1.06-.06l-1.06-.16-2.14-.34a35.16 35.16 0 0 1-4.24-1.24 32.81 32.81 0 0 1-4.21-1.79l-2-1.18a18.71 18.71 0 0 1-1.92-1.32 29.09 29.09 0 0 1-6.73-6.74 31.18 31.18 0 0 1-4.55-8.76 31.43 31.43 0 0 1 0-20.07 30.48 30.48 0 0 1 4.55-8.75 29.31 29.31 0 0 1 6.72-6.74 17.24 17.24 0 0 1 1.92-1.32l2-1.18a32.07 32.07 0 0 1 4.14-1.81 33.43 33.43 0 0 1 4.24-1.24l2.14-.34 1.06-.16c.35-.05.7 0 1.06-.07l2.1-.1 2.07.08a31.09 31.09 0 0 1 4 .48 31.74 31.74 0 0 1 21.34 15 29.92 29.92 0 0 1 3.44 8.45 23.43 23.43 0 0 1 .62 3.28l.18 1.33c.04.4 0 .77 0 1.1v1.5c0 .36.13.47.13.47z"/><path d="M574.2 165.43c-2.88 0-5.22-.1-5.23-.3s2.32-.53 5.2-.7 5.2 0 5.22.3-2.3.65-5.18.7zm-7.43 19.07c-2.08-2-3.64-3.73-3.5-3.9s2 1.26 4.18 3.16 3.72 3.64 3.5 3.9-2.1-1.17-4.17-3.16zm-18.7 8.34c-.08-2.88 0-5.2.25-5.22s.55 2.3.75 5.17.08 5.22-.25 5.23-.68-2.3-.75-5.18zm-19.17-7.22c2-2.1 3.7-3.7 3.85-3.55s-1.23 2-3.1 4.2-3.6 3.77-3.85 3.54 1.14-2.1 3.1-4.2zM520.37 167c2.87-.1 5.2 0 5.22.2s-2.3.57-5.17.8-5.2.15-5.23-.2 2.3-.7 5.18-.8zm7-19.23c2.12 1.94 3.72 3.65 3.58 3.8s-2-1.2-4.24-3.06-3.8-3.56-3.58-3.8 2.12 1.1 4.24 3.06zM545.9 139c.14 2.87.08 5.2-.13 5.23s-.6-2.3-.86-5.16-.2-5.2.13-5.23.73 2.3.86 5.16zm19.3 6.82c-1.92 2.14-3.6 3.77-3.78 3.63s1.2-2.06 3-4.28 3.52-3.84 3.77-3.62-1.07 2.13-3 4.27zm8.96 18.42c-2.87.17-5.22.13-5.23-.08s2.3-.62 5.15-.92 5.2-.25 5.23.08-2.3.75-5.15.92z"/></g><path d="M535 131.8a13.73 13.73 0 0 1-1.63.74 36.49 36.49 0 0 0-21.82 27.81 39.11 39.11 0 0 0-.5 4.84A14.28 14.28 0 0 1 511 167a1.47 1.47 0 0 1-.06-.47l-.05-1.33a32.81 32.81 0 0 1 .33-4.88 35.33 35.33 0 0 1 17.68-25.86 31.49 31.49 0 0 1 4.43-2.09c.54-.22 1-.34 1.26-.43a1.73 1.73 0 0 1 .41-.14zm10.5-2.03a17.25 17.25 0 0 1-3.69.61 17.67 17.67 0 0 1-3.72.35 10.93 10.93 0 0 1 3.66-.86 11 11 0 0 1 3.75-.1z" class="D"/><path d="M522.07 184.87s16.34 25.8 41.7 12.58c26.45-13.78 11.84-45.4 11.84-45.4s12.45 25.2-13.35 41.6c-6.42 4.1-13.4 4.1-18.75 3.56-13.64-1.37-21.44-12.36-21.44-12.36z" class="J"/><path d="M556.07,149.16a110.55,110.55,0,0,1-.42,13.86,17.29,17.29,0,0,1-1,4.9,6.56,6.56,0,0,1-3.29,3.63,4.07,4.07,0,0,1-4.6-.9Z" class="F"/><path d="M546.6 163.43l11.46-19.3-6.92 21.8-3.53 1.06-1-3.55z" class="C"/><path d="M558.05 144.13l-8.5 19.72 1.58 2.07 6.92-21.8z" class="J"/><path d="M551.3 167a3.69 3.69 0 1 1-3.69-3.69 3.69 3.69 0 0 1 3.69 3.69z" class="M"/><path d="M551.3 167s0-.33-.2-.88a3.75 3.75 0 0 0-1.36-1.91 3.47 3.47 0 1 0 0 5.57 3.75 3.75 0 0 0 1.36-1.91 8.43 8.43 0 0 1 .21-.87 1.87 1.87 0 0 1 0 .92 3.66 3.66 0 0 1-1.33 2.15 3.84 3.84 0 0 1-3.68.62 3.91 3.91 0 0 1 0-7.38 3.82 3.82 0 0 1 3.68.61 3.66 3.66 0 0 1 1.33 2.15 1.92 1.92 0 0 1 0 .93z" class="B"/><circle cx="547.6" cy="166.98" r="2.75" class="E"/><path d="M448 94.08a28 28 0 1 0-38.16 27.82l.45 7 24.46-1.58-.28-7.5A28 28 0 0 0 448 94.08z" class="C"/><path d="M425.9 127.8v-1.34l.26-3.9.72-6.14a41.35 41.35 0 0 1 2-7.93 27 27 0 0 1 2-4.32 5.19 5.19 0 0 1 1.8-1.84 2.9 2.9 0 0 1 2.66-.08 1.9 1.9 0 0 1 .95 1 1.94 1.94 0 0 1 0 1.44 4 4 0 0 1-2 2 7.65 7.65 0 0 1-5.83 0 7.75 7.75 0 0 1-4.24-4.4 5.89 5.89 0 0 1-.37-3.2 2.52 2.52 0 0 1 2.46-2.11 1.81 1.81 0 0 1 1.48.9 2.48 2.48 0 0 1 .34 1.7 5.47 5.47 0 0 1-1.78 2.9 8.35 8.35 0 0 1-6.38 2.31 7.26 7.26 0 0 1-5.66-3.68 4.21 4.21 0 0 1-.41-3.36 2.18 2.18 0 0 1 1.15-1.32 2.13 2.13 0 0 1 1.73 0 2.79 2.79 0 0 1 1.22 1.18 4.35 4.35 0 0 1 .53 1.58 7.93 7.93 0 0 1-.22 3.22 8.33 8.33 0 0 1-3.63 4.93 8.46 8.46 0 0 1-5.72 1.17 4.5 4.5 0 0 1-2.6-1.17 2.18 2.18 0 0 1-.33-2.68 1.87 1.87 0 0 1 1.22-.7 2.59 2.59 0 0 1 1.35.18 4 4 0 0 1 1.83 1.8l2.12 4.27a242.42 242.42 0 0 1 5.74 13.15l1.42 3.64a14.8 14.8 0 0 1 .36 1l.1.33s-.06-.1-.15-.32l-.38-.94-1.48-3.6c-1.3-3.12-3.22-7.64-5.84-13.1-.67-1.36-1.34-2.8-2.13-4.24a3.78 3.78 0 0 0-1.71-1.69 1.9 1.9 0 0 0-2.23.44 1.87 1.87 0 0 0 .32 2.3 4.12 4.12 0 0 0 2.43 1.08 8.21 8.21 0 0 0 5.51-1.14 8.05 8.05 0 0 0 3.48-4.75 7.61 7.61 0 0 0 .2-3.08 3 3 0 0 0-1.59-2.47 1.77 1.77 0 0 0-1.46-.05 1.85 1.85 0 0 0-1 1.12 3.92 3.92 0 0 0 .39 3.09 6.92 6.92 0 0 0 5.39 3.5 8 8 0 0 0 6.11-2.22 5.12 5.12 0 0 0 1.68-2.7 2.23 2.23 0 0 0-.28-1.48 1.48 1.48 0 0 0-1.21-.73 2 2 0 0 0-1.36.54 2.36 2.36 0 0 0-.71 1.3 5.5 5.5 0 0 0 .35 3 7.39 7.39 0 0 0 9.63 4.28 3.71 3.71 0 0 0 1.89-1.83 1.65 1.65 0 0 0-.78-2.13 2.64 2.64 0 0 0-2.4.07 5 5 0 0 0-1.7 1.74 25.38 25.38 0 0 0-2 4.27 41.54 41.54 0 0 0-2.07 7.87c-.4 2.37-.62 4.43-.78 6.12l-.32 3.9c0 .43-.07.77-.08 1s0 .32 0 .32zm7.27 4.2l-21 1.35a1.58 1.58 0 0 1-1.68-1.47h0a1.59 1.59 0 0 1 1.48-1.68l21-1.36a1.59 1.59 0 0 1 1.68 1.48h0a1.58 1.58 0 0 1-1.48 1.68zm.1 1.38l-21 1.36a1.58 1.58 0 1 0 .2 3.15l2.3-.15 3.43 5.62a2 2 0 0 0 1.86 1l7.5-.48a2.05 2.05 0 0 0 1.73-1.22l2.6-6 1.57-.1a1.58 1.58 0 0 0-.2-3.15z" class="B"/><path d="M401 79.26a20.51 20.51 0 0 1 5.35-4.07 15.05 15.05 0 0 1 4.22-1.53c1-.18 1.65-.1 1.72.1.15.5-1.9 1.38-4.64 3.47a23 23 0 0 0-9 23.21c.6 3.38 1.53 5.43 1.08 5.7-.2.12-.7-.24-1.34-1.08a14.88 14.88 0 0 1-2.09-4 20.43 20.43 0 0 1-1.2-6.61 21.86 21.86 0 0 1 1.43-8.19m22.57-11.72c-1.77.1-3.37-.3-3.6-1.2-.1-.46.2-1 .8-1.4a5.26 5.26 0 0 1 2.6-.81 5.15 5.15 0 0 1 2.68.5c.66.35 1 .83 1 1.3" class="K D"/><path d="M428.94 143.15a14.59 14.59 0 0 1-1.47-.35 12 12 0 0 0-3.6-.22 12.28 12.28 0 0 0-3.48.88 14 14 0 0 1-1.38.62 4.18 4.18 0 0 1 1.27-.84 10.3 10.3 0 0 1 3.56-1 10.42 10.42 0 0 1 3.68.32 4.61 4.61 0 0 1 1.42.59zm3-6.45c0 .1-3.78.42-8.47.72l-8.48.38c0-.1 3.78-.42 8.46-.72l8.5-.38zm-1.14 2.58a12.74 12.74 0 0 1-2.06.34l-5 .5-5 .28a11.13 11.13 0 0 1-2.08 0 15.07 15.07 0 0 1 2.07-.22l5-.38 5-.4a12.86 12.86 0 0 1 2.07-.12z" class="E"/><path d="M213.444 145.85l5.546-41.178 51.505 6.936-5.546 41.178z" class="H"/><path d="M270.5 111.6h-.25l-.72-.1-2.8-.36-10.55-1.38L219 104.8l.16-.12-5.53 41.18-.13-.17 51.5 7-.14.1 4.1-29.86 1.15-8.34.3-2.2.12-.76s0 .25-.1.74-.15 1.23-.27 2.18l-1.1 8.32-4 30.12h-.12l-51.53-7h-.15v-.15l5.56-41.3h.13l51.26 7.03z" class="B"/><g class="C"><path d="M215.582 143.5l4.848-35.995 47.888 6.45-4.848 35.995z"/><path d="M215.57 143.5l19.74-20.12 8.48 15.4 8.03-6.54 11.64 17.72-47.9-6.45zm34.87-20.88a3.8 3.8 0 1 1-3.26-4.27 3.81 3.81 0 0 1 3.26 4.27z"/></g><path d="M215.57 143.5l19.74-20.12 8.48 15.4 8.03-6.54 11.64 17.72-47.9-6.45zm34.87-20.88a3.8 3.8 0 1 1-3.26-4.27 3.81 3.81 0 0 1 3.26 4.27z" class="K"/><path d="M245.974 131.85l9.27-62.102 77.67 11.594-9.27 62.102z" class="H"/><path d="M332.94 81.37l-.38-.05-1.1-.15-4.22-.6-15.9-2.32-56.1-8.24.23-.18-9.25 62.1-.2-.25 77.66 11.63-.2.16 9.27-60.9.2-1.14s0 .37-.14 1.1-.27 1.86-.47 3.3l-1.83 12.55-6.65 45.17v.2h-.2l-77.88-11.64v-.22l9.3-62.1v-.2h.2l72.05 10.92 5.24.82z" class="B"/><g class="C"><path d="M249.24 128.34l8.102-54.28 72.22 10.78-8.102 54.28z"/><path d="M249.26 128.35l30.26-29.97L292 121.82l12.28-9.7 17.2 27.02-72.2-10.8zm53.14-30.78a5.75 5.75 0 1 1-4.83-6.57 5.75 5.75 0 0 1 4.83 6.57z"/></g><path d="M249.26 128.35l30.26-29.97L292 121.82l12.28-9.7 17.2 27.02-72.2-10.8zm53.14-30.78a5.75 5.75 0 1 1-4.83-6.57 5.75 5.75 0 0 1 4.83 6.57z" class="K"/><path d="M116.64 260.9l17.12 17.82a3 3 0 0 0 4.21.13l68.1-65.43a3 3 0 0 0 0-4.21L189 191.4a3 3 0 0 0-4.21-.13l-68.1 65.43a3 3 0 0 0-.04 4.21z" class="G"/><path d="M116.64 260.9a2.21 2.21 0 0 1-.42-.51 3 3 0 0 1-.47-1.88 2.92 2.92 0 0 1 .47-1.37 9.37 9.37 0 0 1 1.2-1.27l22.9-22.14L182.64 193l2.27-2.14a3.24 3.24 0 0 1 3.22-.35 4 4 0 0 1 1.32 1l1.1 1.14 15.76 16.4a3.29 3.29 0 0 1 .75 3.34 3.38 3.38 0 0 1-1 1.44l-1.18 1.18-4.7 4.52-9.16 8.8L173.55 245l-35.5 34a3.12 3.12 0 0 1-3.73.36 7.5 7.5 0 0 1-1.36-1.26l-1.22-1.27-8.17-8.58-5.16-5.43-1.33-1.42-.44-.5a11.94 11.94 0 0 0 .48.46l1.37 1.4 5.22 5.36 9.46 9.78a7 7 0 0 0 1.31 1.2 2.78 2.78 0 0 0 3.34-.33l6-5.76 29.42-28.34 32.45-31.16a2.72 2.72 0 0 0 .23-4l-16.84-17.55a3.38 3.38 0 0 0-1.16-.89 2.72 2.72 0 0 0-2.7.28l-2.23 2.1-12.92 12.4L117.53 256a9.15 9.15 0 0 0-1.2 1.23 2.94 2.94 0 0 0-.47 1.31 3 3 0 0 0 .4 1.84c.23.36.4.52.38.53z" class="B"/><g class="C"><use xlink:href="#K"/><use xlink:href="#K" x="-40.293" y="39.208"/><use xlink:href="#K" x="-26.846" y="26.124"/><use xlink:href="#K" x="-13.39" y="13.026"/></g><use xlink:href="#K" opacity=".8"/><use xlink:href="#K" x="-40.293" y="39.208" opacity=".5"/><use xlink:href="#K" x="-26.846" y="26.124" opacity=".6"/><use xlink:href="#K" x="-13.39" y="13.026" opacity=".7"/><path d="M117.8 257.86l12 21.63a3 3 0 0 0 4 1.23l81.47-45.05a3 3 0 0 0 1.08-4l-12-21.62a3 3 0 0 0-4-1.24l-81.48 45a3 3 0 0 0-1.07 4.05z" class="G"/><path d="M117.8 257.86a2.66 2.66 0 0 1-.28-.59 3 3 0 0 1 0-1.92 2.82 2.82 0 0 1 .78-1.2 8.64 8.64 0 0 1 1.46-.91l3.73-2.1 23.8-13.25 35.32-19.6 16.83-9.32a7 7 0 0 1 1.43-.69 3.2 3.2 0 0 1 3.09.81 5.18 5.18 0 0 1 .91 1.35l.76 1.36 4.6 8.32q3.1 5.6 6.3 11.37a3.32 3.32 0 0 1-.1 3.39 3.26 3.26 0 0 1-1.32 1.13l-1.42.8-5.67 3.12-31.88 17.6-35.4 19.5-7.2 3.94a3.11 3.11 0 0 1-3.58-1c-.7-1.06-1.2-2.1-1.76-3.1l-5.63-10.28-3.54-6.5-.9-1.7-.3-.6s.13.2.34.56.55.95 1 1.68l3.62 6.45 5.7 10.24 1.75 3a2.8 2.8 0 0 0 3.21.88l7.16-4 74.28-41.18a2.75 2.75 0 0 0 1.13-1 2.8 2.8 0 0 0 .08-2.85l-11.64-21.05a5 5 0 0 0-.81-1.23 2.7 2.7 0 0 0-2.61-.69 7.57 7.57 0 0 0-1.32.64l-1.33.74-5.28 2.92-10.22 5.64-35.38 19.5-23.9 13.28-3.75 2a8.42 8.42 0 0 0-1.45.88 2.69 2.69 0 0 0-.77 1.13 3 3 0 0 0-.07 1.87c.13.45.25.65.23.65z" class="B"/><g class="C"><use xlink:href="#L"/><use xlink:href="#L" x="-49.03" y="27.487"/><use xlink:href="#L" x="-32.676" y="18.317"/><use xlink:href="#L" x="-16.302" y="9.135"/></g><use xlink:href="#L" opacity=".5"/><use xlink:href="#L" x="-49.03" y="27.487" class="K"/><use xlink:href="#L" x="-32.676" y="18.317" opacity=".3"/><use xlink:href="#L" x="-16.302" y="9.135" class="J"/><path d="M114.8 257.67l5.28 24.14a3 3 0 0 0 3.62 2.29l95.55-20.88a3 3 0 0 0 2.33-3.6l-5.27-24.13a3 3 0 0 0-3.62-2.3l-95.55 20.9a3 3 0 0 0-2.34 3.59z" class="G"/><g class="B"><path d="M114.8 257.67a2.35 2.35 0 0 1-.09-.68 3 3 0 0 1 .65-1.88 3.18 3.18 0 0 1 1.18-.91 11.47 11.47 0 0 1 1.73-.45l4.33-1 27.63-6.12L212.3 233a3.78 3.78 0 0 1 1.68-.09 3.28 3.28 0 0 1 1.55.76 3.2 3.2 0 0 1 1 1.44l.37 1.6.7 3.2q.7 3.2 1.4 6.46 1.42 6.5 2.88 13.18a3.27 3.27 0 0 1-1.21 3.29 3.76 3.76 0 0 1-1.65.7l-94.58 20.58-1 .2a3.2 3.2 0 0 1-2.76-1.06 3.44 3.44 0 0 1-.79-1.75l-2.93-13.67-1.6-7.53-.4-2-.12-.67a9.04 9.04 0 0 0 .17.66l.46 1.95 1.7 7.5 3.03 13.65a3.12 3.12 0 0 0 .72 1.61 2.87 2.87 0 0 0 1.56.9 4 4 0 0 0 1.9-.15l8.32-1.84 86.22-18.9a3.13 3.13 0 0 0 1.45-.6 2.77 2.77 0 0 0 1-2.77q-1.47-6.68-2.88-13.18-.72-3.26-1.4-6.46l-.7-3.2-.35-1.55a2.73 2.73 0 0 0-.81-1.22 2.88 2.88 0 0 0-2.79-.55l-3.1.67-6.12 1.34-11.85 2.58-73 15.82a13 13 0 0 0-1.71.42 3.13 3.13 0 0 0-1.15.86 3.05 3.05 0 0 0-.68 1.81c-.07.45 0 .68-.02.68z"/><path d="M114.6 257.77c0 .1-1.2 0-3.3.4a17.82 17.82 0 0 0-8 3.81 17.09 17.09 0 0 0-5.92 11.41 16.76 16.76 0 0 0 31.23 9.74 17.37 17.37 0 0 0 2.32-8.55v-1.42c0-.42-.08-.75-.1-1a2.77 2.77 0 0 1 0-.87 3.39 3.39 0 0 1 .24.84l.2 1c.06.38.1.9.14 1.44a17 17 0 0 1-2.09 8.92 17.31 17.31 0 0 1-10.57 8.4 17.44 17.44 0 0 1-16-3.42 18.11 18.11 0 0 1-3-3.27 17.54 17.54 0 0 1 3.22-23.79 17.34 17.34 0 0 1 8.42-3.64 15.08 15.08 0 0 1 2.5-.12 2.19 2.19 0 0 1 .71.12z"/><path d="M133.5 267.46a3.76 3.76 0 1 1-4.48-2.87 3.77 3.77 0 0 1 4.48 2.87z"/></g><g class="C"><use xlink:href="#M"/><use xlink:href="#M" x="-18.246" y="3.984"/><use xlink:href="#M" x="-36.586" y="7.999"/><use xlink:href="#M" x="-54.91" y="12.001"/></g><g class="D"><use xlink:href="#M" x="-54.91" y="12.001" opacity=".8"/><use xlink:href="#M" x="-36.586" y="7.999" opacity=".6"/><use xlink:href="#M" x="-18.246" y="3.984" class="J"/></g><g class="C"><circle cx="274.16" cy="251.88" r="13.93" transform="matrix(.231069 -.972937 .972937 .231069 -34.26 460.4)"/><path d="M274.16 234.46a38.54 38.54 0 0 1-.26-6.27 38.36 38.36 0 0 1 .26-6.26 38.36 38.36 0 0 1 .26 6.26 38.54 38.54 0 0 1-.26 6.27zm-.7 49.87a53.51 53.51 0 0 1-.26-7.4 53.63 53.63 0 0 1 .26-7.4 53.63 53.63 0 0 1 .26 7.4 53.51 53.51 0 0 1-.26 7.4zM253.1 252.1a46 46 0 0 1-9.77 0 46 46 0 0 1 9.77 0zm52.05-1.85a35 35 0 0 1-6.08.26 34.9 34.9 0 0 1-6.07-.26 36.13 36.13 0 0 1 6.07-.26 36.2 36.2 0 0 1 6.08.26zm-10.3-14.8a32.39 32.39 0 0 1-5.81 5.81 15.71 15.71 0 0 1 2.72-3.09 16.57 16.57 0 0 1 3.09-2.72zM293 269.53a11.73 11.73 0 0 1-2.69-2.32 12.53 12.53 0 0 1-2.33-2.69 12 12 0 0 1 2.69 2.32 12.53 12.53 0 0 1 2.33 2.69zm-32.22-5a15.83 15.83 0 0 1-2.72 3 15.49 15.49 0 0 1-3.09 2.58 15.69 15.69 0 0 1 2.73-3 15.29 15.29 0 0 1 3.08-2.58zm.22-25.6c-.14.07-1-1.27-2.3-2.63s-2.63-2.23-2.55-2.37a6.65 6.65 0 0 1 2.93 2 6.58 6.58 0 0 1 1.91 3zm212.6 12.95a19.48 19.48 0 0 1 16.75-19.29 20.67 20.67 0 0 0-2.74-.19 19.5 19.5 0 0 0 0 39 20.67 20.67 0 0 0 2.74-.19 19.48 19.48 0 0 1-16.75-19.33zm20.94-2.08l.52.87a6 6 0 0 0 2.47 2.28l.9.45-.87.52a5.94 5.94 0 0 0-2.27 2.47l-.46.92-.52-.88a6 6 0 0 0-2.47-2.27l-.9-.45.87-.53a5.88 5.88 0 0 0 2.27-2.47zm-37.86 11.33l.26.45a3.11 3.11 0 0 0 1.26 1.15l.46.23-.44.27a3 3 0 0 0-1.16 1.25l-.23.46-.26-.44a3 3 0 0 0-1.26-1.15l-.46-.23.44-.27a3 3 0 0 0 1.16-1.25zm-9.45-8.53l.14.22a1.55 1.55 0 0 0 .62.57l.23.1-.22.14a1.37 1.37 0 0 0-.57.62l-.12.23-.13-.22a1.42 1.42 0 0 0-.62-.57l-.23-.12.22-.13a1.62 1.62 0 0 0 .57-.62zm65.22 10.67l.13.22a1.51 1.51 0 0 0 .62.58l.23.1-.22.13a1.51 1.51 0 0 0-.57.63l-.12.23-.13-.22a1.51 1.51 0 0 0-.62-.58l-.23-.1.22-.13a1.51 1.51 0 0 0 .57-.63zm-10.58-16.82l.14.22a1.42 1.42 0 0 0 .62.57l.23.12-.22.13a1.42 1.42 0 0 0-.57.62l-.12.23-.13-.22a1.55 1.55 0 0 0-.62-.57l-.23-.1.22-.14a1.55 1.55 0 0 0 .57-.62zM283 241.32a6.27 6.27 0 0 1-1.12 2.26c-.74 1.16-1.43 2-1.56 2a6.35 6.35 0 0 1 1.12-2.25c.7-1.2 1.4-2.1 1.56-2zm5.86-8.06c.12.1-.47 1.05-1.3 2.14s-1.62 1.9-1.73 1.83.47-1 1.3-2.14 1.62-1.92 1.73-1.83zm6.6-7.5c.1.1-.57 1-1.5 2s-1.78 1.76-1.9 1.66.57-1 1.5-2 1.8-1.76 1.9-1.66zm7.23-6.9c.1.1-.66 1-1.67 1.87s-1.93 1.6-2 1.5.65-.94 1.68-1.87 1.9-1.6 2-1.5zm7.82-6.25c.08.12-.74.9-1.83 1.73a6.17 6.17 0 0 1-2.14 1.31c-.1-.1.72-.88 1.82-1.73s2.06-1.43 2.15-1.3zm8.3-5.57c.07.13-.8.83-2 1.57a6.31 6.31 0 0 1-2.25 1.13c-.08-.12.8-.82 2-1.57a6.48 6.48 0 0 1 2.25-1.13zm8.75-4.84c.07.13-.87.75-2.1 1.4a6.28 6.28 0 0 1-2.33.94c-.07-.13.86-.75 2.1-1.4a6.27 6.27 0 0 1 2.33-.93zm9.14-4.1a6.16 6.16 0 0 1-2.21 1.21 6.27 6.27 0 0 1-2.4.74 6 6 0 0 1 2.2-1.21 6.34 6.34 0 0 1 2.41-.74zm9.44-3.3a6.15 6.15 0 0 1-2.3 1 6.35 6.35 0 0 1-2.46.53 6 6 0 0 1 2.3-1 6.4 6.4 0 0 1 2.46-.53zm9.7-2.44a11.88 11.88 0 0 1-4.87 1.12 6.18 6.18 0 0 1 2.37-.81 6.29 6.29 0 0 1 2.5-.31zm9.87-1.58a6.3 6.3 0 0 1-2.44.59 6.05 6.05 0 0 1-2.52.08 6.37 6.37 0 0 1 2.44-.59 6.24 6.24 0 0 1 2.52-.08zm9.98-.66a6.3 6.3 0 0 1-2.49.35 6.65 6.65 0 0 1-2.5-.14 5.93 5.93 0 0 1 2.48-.38 6.27 6.27 0 0 1 2.51.17zm10 .27a6.38 6.38 0 0 1-2.51.13 6.46 6.46 0 0 1-2.49-.38 11.95 11.95 0 0 1 5 .25zm9.9 1.17a6.33 6.33 0 0 1-2.51-.09 6.25 6.25 0 0 1-2.44-.61 6.31 6.31 0 0 1 2.51.09 6 6 0 0 1 2.44.61zm9.8 2.03a6.12 6.12 0 0 1-2.49-.3 6.27 6.27 0 0 1-2.38-.82 6.29 6.29 0 0 1 2.5.31 6.18 6.18 0 0 1 2.37.81zm9.6 2.87a6.44 6.44 0 0 1-2.46-.52 6.34 6.34 0 0 1-2.3-1 6.07 6.07 0 0 1 2.46.52 6.13 6.13 0 0 1 2.3 1zm9.27 3.7a12.07 12.07 0 0 1-4.61-1.94 6.06 6.06 0 0 1 2.41.73 6 6 0 0 1 2.2 1.21zm8.96 4.44a12.29 12.29 0 0 1-4.43-2.32 6.09 6.09 0 0 1 2.34.93c1.23.64 2.16 1.26 2.1 1.4zm8.57 5.2a6.31 6.31 0 0 1-2.25-1.13c-1.17-.74-2.05-1.44-2-1.56a6.35 6.35 0 0 1 2.25 1.12c1.2.74 2.08 1.45 2 1.57zm8.06 5.9a6.37 6.37 0 0 1-2.14-1.31c-1.1-.84-1.92-1.6-1.83-1.73A6.18 6.18 0 0 1 448 214c1.13.84 2 1.62 1.86 1.73zm7.54 6.57c-.1.1-1-.56-2-1.5s-1.77-1.77-1.67-1.88 1 .56 2 1.5 1.77 1.77 1.67 1.87zm6.9 7.22c-.1.1-.95-.65-1.88-1.67a6.3 6.3 0 0 1-1.5-2c.1-.1.95.65 1.88 1.67s1.6 1.9 1.5 2zm5.3 6.58c-.12.1-.68-.46-1.26-1.2s-1-1.44-.85-1.53.68.45 1.26 1.2.96 1.43.85 1.53z"/></g><defs ><path id="B" d="M152.12 131.63c0-.07.33-.12.73-.12s.73.05.73.12-.33.13-.73.13-.73-.06-.73-.13z"/><path id="C" d="M149.2 131.63c0-.07.32-.12.72-.12s.73.05.73.12-.32.13-.73.13-.72-.06-.72-.13z"/><path id="D" d="M107.48 129.63c.07 0 .13.32.13.73s-.06.73-.13.73-.13-.33-.13-.73.06-.73.13-.73z"/><path id="E" d="M107.48 126.7c.07 0 .13.33.13.73s-.06.73-.13.73-.13-.33-.13-.73.06-.73.13-.73z"/><path id="F" d="M107.48 123.8c.07 0 .13.32.13.73s-.06.72-.13.72-.13-.32-.13-.72.06-.73.13-.73z"/><path id="G" d="M113 79.7c0 .07-.33.13-.73.13s-.73-.06-.73-.13.33-.12.73-.12.73.05.73.12z"/><path id="H" d="M159.4 88.64c-.07 0-.13-.33-.13-.73s.06-.73.13-.73.13.33.13.73-.06.73-.13.73z"/><path id="I" d="M206.07 403.77c0 .06-4 .1-8.85.1s-8.85 0-8.85-.1 4-.1 8.85-.1l8.85.1z"/><path id="J" d="M208.8 420.44c0 .06-4.1.1-9.14.1s-9.14 0-9.14-.1 4.1-.1 9.14-.1l9.14.1z"/><path id="K" d="M173.65 205.69l12.37-12.037 17.554 18.04-12.37 12.037z"/><path id="L" d="M184.78 221.158l15.055-8.44 12.3 21.954-15.055 8.44z"/><path id="M" d="M196.516 240.096l16.862-3.686 5.375 24.59-16.862 3.686z"/></defs></svg>