<svg xmlns="http://www.w3.org/2000/svg" xmlns:xlink="http://www.w3.org/1999/xlink" viewBox="0 0 500 500" xmlns:v="https://vecta.io/nano"><style><![CDATA[.B{fill:#263238}.C{fill:#4550e6}.D{opacity:.2}.E{fill:#455a64}.F{fill:#ffbe9d}.G{fill:#eb996e}.H{fill:#ebebeb}.I{fill:#f5f5f5}.J{fill:#fafafa}]]></style><g class="H"><path d="M261.16 219.33l-62.55-53.48.65-.75L261 217.9l74.8-95.68 29.44 21.3 60.1-79.23.8.6-60.7 80L336 123.6l-74.85 95.74zm-217 85.92a3.39 3.39 0 1 1-3.39-3.39 3.39 3.39 0 0 1 3.39 3.39z"/><circle cx="198.93" cy="165.48" r="6.69"/><path d="M41.15 305.58l-.74-.67 72.93-80.56 16.48 14.33 65.72-70.7.73.68-66.38 71.4-16.47-14.32-72.27 79.83z"/><circle cx="426.08" cy="61.67" r="8.72"/></g><path d="M430.34 58.7a33.14 33.14 0 0 1-3.81 4.57l-1.44 1.56-.15.16-.17-.13a17.87 17.87 0 0 1-2.95-2.46 18.79 18.79 0 0 1 3.23 2.07h-.32l1.4-1.58a34.77 34.77 0 0 1 4.2-4.19z" fill="#fff"/><path d="M144.07 150.23c.85-6.24-7.94-11.36-14.55-11.9-3.15-.25-6.42.23-9.4-.8-6.47-2.25-9-10.6-15.36-13.27-4.72-2-10.16-.22-14.73 2.08s-9.1 5.2-14.2 5.53c-4.44.28-9.27-1.37-13.16.8-2.9 1.6-4.42 5-7.1 6.92s-6 2.34-9.26 2.52-6.6.2-9.56 1.56-5.4 4.47-4.78 7.66z" class="H"/><path d="M379.56 45.8c.53-3.9-4.95-7.1-9.07-7.42-2-.16-4 .14-5.87-.5-4-1.4-5.65-6.6-9.6-8.28-2.94-1.24-6.33-.13-9.18 1.3s-5.68 3.25-8.86 3.45c-2.78.18-5.8-.85-8.22.5-1.8 1-2.75 3.1-4.42 4.32a10.46 10.46 0 0 1-5.78 1.56 16.61 16.61 0 0 0-6 1c-1.84.84-3.36 2.8-3 4.78zm73.74 87.97c.3-2.1-2.66-3.8-4.88-4a12.74 12.74 0 0 1-3.16-.28c-2.17-.75-3-3.56-5.15-4.45-1.58-.67-3.4-.07-4.94.7s-3.05 1.74-4.77 1.85c-1.5.1-3.1-.45-4.4.28-1 .54-1.48 1.66-2.38 2.32a5.63 5.63 0 0 1-3.11.84 8.64 8.64 0 0 0-3.2.53 2.52 2.52 0 0 0-1.6 2.57z" class="I"/><path d="M120.9 79.92c.28-2.1-2.67-3.8-4.88-4a12.74 12.74 0 0 1-3.16-.28c-2.17-.75-3-3.56-5.15-4.45-1.6-.67-3.4-.07-4.94.7s-3 1.74-4.77 1.85c-1.5.1-3.1-.45-4.4.27-1 .55-1.48 1.67-2.38 2.33a5.66 5.66 0 0 1-3.11.84 8.61 8.61 0 0 0-3.2.53 2.54 2.54 0 0 0-1.61 2.59z" class="J"/><path d="M140.75 293.07L160.6 249l20.38-12.24 12.66-27.55 36.36 8.5 27.12 83.2-41.98 20.63-34.16 20.83-40.22-49.3z" class="I"/><path d="M487.7 420.82l-35.9-71.64-16.6-24.86-19.58-90.55-23.58-19.6-23.7 33-32.36 8.06-29.84 28.54 60.06 63.73 35.4 37.33 27.65 51.64 53.07 50.17c-.54-.5 5.37-65.8 5.37-65.8zM18.48 492.87l3.66-48.62 19.55-30.4L54.5 356l23.27-13.66L106.5 294l27.38-18.53 56.8 56.18 37.5-40.4 28.9 9.63-11.9 14.8-30.07 5.82-59.23 51.65-46.06 25.4-12.28 22.18-26.65 3.9-52.43 68.22z" class="H"/><use xlink:href="#B" class="C"/><use xlink:href="#B" class="D"/><path d="M149.45 350.5a13.94 13.94 0 0 0-8.65-1.05 7.18 7.18 0 0 0-4.27 1.91c-1.07 1.18-1.27 3.25 0 4.26a4.1 4.1 0 0 0 2.69.69c2.3 0 4.82-.43 6.65.94 1 .8 1.73 2.1 3 2.48a3 3 0 0 0 3.24-1.45 5 5 0 0 0 .37-3.71 5.68 5.68 0 0 0-3.03-4.07zm10.45-8.34a8.39 8.39 0 0 1-1.3-7.69 14.9 14.9 0 0 1 4.56-6.61 24.49 24.49 0 0 1 8.16-4.81 8.59 8.59 0 0 1 3.67-.62 3.84 3.84 0 0 1 3.08 1.86c.85 1.64 0 3.62-.86 5.24a61.36 61.36 0 0 1-5.36 8.16c-1.6 2.07-3.44 4.12-5.9 5.05s-5 .83-6.3-.87" class="C"/><g class="B"><path d="M155.6 373.52a5.09 5.09 0 0 1-.15-1l-.28-2.85a41 41 0 0 0-.64-4.18 31.62 31.62 0 0 0-1.52-4.93 17.83 17.83 0 0 0-2.52-4.46 9.21 9.21 0 0 0-3.18-2.65 8.93 8.93 0 0 0-2.68-.84 5.09 5.09 0 0 1-1-.15 5.07 5.07 0 0 1 1.06 0 7.93 7.93 0 0 1 2.79.72 9.34 9.34 0 0 1 3.36 2.67 17.49 17.49 0 0 1 2.61 4.56 30.3 30.3 0 0 1 1.51 5 35.66 35.66 0 0 1 .56 4.23l.14 2.87a6.65 6.65 0 0 1-.06 1.01z"/><path d="M155.4 371.33a1.56 1.56 0 0 1 0-.49v-1.38l-.06-5.1c-.1-4.3-.47-10.23-1.2-16.75s-1.67-12.38-2.54-16.6l-.6-2.83c-.2-.83-.34-1.56-.5-2.14s-.23-1-.32-1.34a1.59 1.59 0 0 1-.08-.48 2.32 2.32 0 0 1 .16.45l.4 1.33c.17.54.36 1.3.57 2.12s.44 1.77.67 2.83a156.13 156.13 0 0 1 2.67 16.61c.72 6.53 1 12.48 1.07 16.78 0 2.16 0 3.9-.08 5.1 0 .57-.06 1-.08 1.4a3.23 3.23 0 0 1-.09.48z"/><path d="M155.36 359.86a10.07 10.07 0 0 1 0-1.45c0-.93.18-2.27.44-3.92a52.39 52.39 0 0 1 1.28-5.71 49.69 49.69 0 0 1 2.39-6.76 36 36 0 0 1 7-10.92 17.09 17.09 0 0 1 1.65-1.53l.7-.6.64-.44a8.92 8.92 0 0 1 1.21-.78 43.35 43.35 0 0 0-4 3.56 38 38 0 0 0-6.84 10.88 55.21 55.21 0 0 0-2.4 6.7c-.63 2.1-1 4-1.36 5.65s-.47 3-.57 3.88a9.69 9.69 0 0 1-.15 1.44z"/></g><path d="M443.86 402.68a6.87 6.87 0 0 0-4.93 2.19 12.16 12.16 0 0 0-2.71 4.78c-1.1 3.4-.76 7.5 0 11 3.8-1.13 6.33-5 7.5-7 1.82-3.22 3.17-10.15.12-10.94m-13.57 22.05a5.89 5.89 0 0 0 1-5.81 7.82 7.82 0 0 0-4.19-4.34 3.25 3.25 0 0 0-2.76-.22 2.52 2.52 0 0 0-1.26 2.21 5.13 5.13 0 0 0 .77 2.54c1.5 2.67 3.42 5 6.42 5.62" class="C"/><g class="B"><path d="M429.5 435.94a2.44 2.44 0 0 0 .23-.71l.46-2a25.46 25.46 0 0 0 .6-6.73 12.68 12.68 0 0 0-2.13-6.39 8.49 8.49 0 0 0-1.38-1.53 2 2 0 0 0-.62-.44 17.23 17.23 0 0 1 1.76 2.13 13.22 13.22 0 0 1 2 6.26 29.24 29.24 0 0 1-.48 6.65 22.92 22.92 0 0 0-.44 2.76z"/><path d="M442.23 407.84a6.4 6.4 0 0 0-.62 1.07l-1.55 3c-1.28 2.54-3 6.1-4.78 10.05s-3.32 7.6-4.38 10.24c-.54 1.32-1 2.4-1.23 3.14a7.24 7.24 0 0 0-.4 1.17 6.22 6.22 0 0 0 .54-1.11l1.35-3.1 4.5-10.18 4.67-10.1 1.43-3.06a8.37 8.37 0 0 0 .48-1.13z"/></g><path d="M434.5 428.8a13.74 13.74 0 0 1 10.89-6.27c1.1 0 2.43.2 2.9 1.2s-.24 2.17-1 3a11.76 11.76 0 0 1-12.81 2.42" class="C"/><path d="M443.74 425.44a2.49 2.49 0 0 0-.72 0 5.53 5.53 0 0 0-.85.06 11.11 11.11 0 0 0-1.11.15 14 14 0 0 0-2.79.83 16.32 16.32 0 0 0-3.14 1.72 16.85 16.85 0 0 0-2.65 2.4 14.37 14.37 0 0 0-1.69 2.38 8.64 8.64 0 0 0-.51 1 5 5 0 0 0-.32.78 2.85 2.85 0 0 0-.21.69c.08 0 .42-.94 1.28-2.32a15.26 15.26 0 0 1 1.73-2.28 16.32 16.32 0 0 1 5.65-4 15.44 15.44 0 0 1 2.71-.89c1.6-.43 2.62-.44 2.62-.52zm-86.2 21.78a3.29 3.29 0 0 1-.58 0l-1.67.05-6.2.08-21 .08.2-.1-3.68 4.48-15.9 19.24-4.87 5.8-1.34 1.56a3.32 3.32 0 0 1-.5.52 4.45 4.45 0 0 1 .42-.59l1.27-1.62 4.73-5.9 19.55-23.92h.12l21 .1 6.2.08h1.67a2.65 2.65 0 0 1 .58.13z" class="B"/><path d="M251.53 403l-62.15-2.04-17.22 22.3-27.28 12.14-14.8 31.43 17.24-20 33.18-5.56 23.63-24.63 47.4-13.63z" class="I"/><path d="M18.48 492.87l.9-1.2 2.66-3.5 10.3-13.5 38.43-50.18h.07l26.65-3.92-.14.1 12.26-22.2h.06l46-25.4 59.38-51.72h.07l30.06-5.82-.15.1 15.32-19.07 14.6-18.12h.16l32.73 7.28h.08l.05.06 93.8 99 27.6 51.66 49.36 46.85 2.66 2.55.9.87-.92-.84-2.7-2.5-10.42-9.8-39.16-36.9L401.42 385l-93.74-98.82-32.68-7.32.26-.1-29.92 37.17h-.1l-30.07 5.8.12-.06-59.25 51.64-46.07 25.36.1-.08-12.3 22.18v.08h-.1L71 424.77l.1-.07-52.64 68.17zm238.62-90.64l-.25.1-.76.23-2.93.84-11 3.07-38 10.4.12-.06-23.7 24.67h-.08L147.35 447l.12-.07-18.54 21.33-1.07 1.2-.38.4s.1-.15.34-.43l1-1.23 3.94-4.66 14.46-16.9h.07l33.16-5.6-.14.07 8.64-9 15-15.6h.1l38-10.24 11-2.92 3-.76.76-.2zM332.18 381c0 .14-13.52.26-30.2.26s-30.2-.12-30.2-.26 13.52-.26 30.2-.26l30.2.26z" class="B"/><g class="F"><path d="M337.22 220l-.3-5.73-11.7 2.6c-.12.74-1.6 10.07-1.34 11L337 231.5l.22-11.5z"/><path d="M337.23 230.63s0-.1.06-.25c.14-1.28 0-6.84-.62-7.07s-2.66.16-2.8.9.32 7 .32 7 .13 1 1.8 1.22c1.02.14 1.25-1.8 1.25-1.8zm-3.33 2s0-.1.06-.25c.13-1.28.05-6.84-.63-7.07s-2.66.16-2.8.9.3 7 .3 7 .14 1 1.8 1.22c1.02.14 1.25-1.8 1.25-1.8z"/><path d="M330.64 233.63s0-.1.05-.26c.14-1.27.06-6.83-.62-7.07s-2.66.17-2.8.9.3 7 .3 7 .14 1 1.8 1.23c1.03.14 1.26-1.8 1.26-1.8z"/><path d="M327.4 234.57s0-.1.06-.26c.13-1.27.05-6.83-.63-7.07s-2.66.17-2.8.9.32 7 .32 7 .13 1 1.8 1.23c1.02.13 1.25-1.8 1.25-1.8z"/></g><g class="G"><path d="M333.85 225.83a11.45 11.45 0 0 1 .26 2.71 10 10 0 0 1-.09 2.68 11.45 11.45 0 0 1-.26-2.71 9.93 9.93 0 0 1 .09-2.68zm-3.28-.03a42.58 42.58 0 0 1 .27 7.71 22.87 22.87 0 0 1-.31-3.85 21.6 21.6 0 0 1 .04-3.86z"/><path d="M327.24 226.1a42.58 42.58 0 0 1 .27 7.71 22.87 22.87 0 0 1-.31-3.85 21.49 21.49 0 0 1 .04-3.86z" opacity=".78"/></g><path d="M325.15 217.18s-4.63 10.5-3.95 11.16A15.53 15.53 0 0 0 324 230zm-25.6-141l-3.4 39.3-19.7-1.57c-.12-2.3 0-11.2 0-11.2s-8.2-1.28-8.3-9.47c-.05-4 .52-12.2 1.12-19.6a15.15 15.15 0 0 1 16-13.91h0a15.15 15.15 0 0 1 14.25 16.44z" class="F"/><path d="M276.5 102.6a19 19 0 0 0 10.68-3s-2.52 5.9-10.7 5.16z" class="G"/><path d="M272.52 79.4a1.19 1.19 0 0 0 1.13 1.19 1.14 1.14 0 0 0 1.21-1.06 1.17 1.17 0 0 0-1.13-1.18 1.12 1.12 0 0 0-1.21 1.05zm-1.42-1.62c.14.16 1-.5 2.3-.5s2.18.64 2.32.48-.08-.34-.5-.63a3.17 3.17 0 0 0-3.67 0c-.4.3-.55.58-.45.65zm13.5 1.62a1.18 1.18 0 0 0 1.13 1.18 1.12 1.12 0 0 0 1.2-1.06 1.16 1.16 0 0 0-1.12-1.18 1.12 1.12 0 0 0-1.21 1.06zm-1.13-1.4c.15.15 1-.5 2.3-.5s2.18.63 2.32.48-.08-.35-.48-.64a3.26 3.26 0 0 0-1.86-.57 3 3 0 0 0-1.82.59c-.4.3-.52.64-.45.64zm-4.57 9.35a8.7 8.7 0 0 0-2-.37c-.32 0-.63-.1-.68-.3a1.63 1.63 0 0 1 .21-1l1-2.45a42.1 42.1 0 0 0 2.13-6.4 41.52 41.52 0 0 0-2.65 6.21l-.9 2.46a1.84 1.84 0 0 0-.16 1.26.77.77 0 0 0 .53.47 1.86 1.86 0 0 0 .54.08 8 8 0 0 0 1.99.05zm3.7.87c-.2 0-.2 1.36-1.38 2.33s-2.62.82-2.63 1 .32.26.94.28a3.39 3.39 0 0 0 2.2-.77 2.91 2.91 0 0 0 1.06-1.94c.05-.57-.1-.9-.2-.9zm.55-15.14c.12.35 1.38.18 2.86.36s2.67.58 2.86.28-.12-.47-.6-.8a4.83 4.83 0 0 0-2.12-.75 5 5 0 0 0-2.24.26c-.54.22-.82.5-.76.65zm-11.6 1.06c.22.3 1.1 0 2.13 0s1.93.2 2.13-.1-.05-.43-.43-.7a3.11 3.11 0 0 0-3.44.1c-.36.28-.5.57-.4.7zm33.8-8.44a3.1 3.1 0 0 0-2.57-3.26 3.78 3.78 0 0 0-5.41-4.76 4.91 4.91 0 0 0-8.65-1.75 5.2 5.2 0 0 0-8.79 1.39 5.71 5.71 0 0 0-8.44 1.2 7.68 7.68 0 0 0-2.8-.45 3.4 3.4 0 0 0-2.95 1.87 2.23 2.23 0 0 0 .84 2.64 2.72 2.72 0 1 0-1.23 5.28 1.56 1.56 0 0 0-.85 1.43 2.92 2.92 0 0 0 1.92 2.12 10.52 10.52 0 0 0 7.47-.12c2.42-.8 4.66-2.08 7.06-3s6.4-2.45 8.82-1.6a4.42 4.42 0 0 1 1 .51 6.49 6.49 0 0 1 2.38 4.16.88.88 0 0 1 0 .16l.6 7a10.6 10.6 0 0 0 2.87 6.31c.7.66 2 1.12 2.55.34a1.87 1.87 0 0 0 .29-1.07c.32-4.07 1.2-7.8 1.67-11.8a11.79 11.79 0 0 1 2.22-2.7 6.35 6.35 0 0 0 1.99-3.91z" class="B"/><path d="M280.93 61.57a1.91 1.91 0 0 1-.11-1.09 4.16 4.16 0 0 1 1.31-2.69 4.27 4.27 0 0 1 4.3-.85 3.32 3.32 0 0 1 2 1.81 2.3 2.3 0 0 1 .06 1.51 1.78 1.78 0 0 1-1.06 1.18 1.7 1.7 0 0 1-1.59-.18 1.58 1.58 0 0 1-.58-1.45 2 2 0 0 1 .66-1.3 3.1 3.1 0 0 1 1.2-.66 5 5 0 0 1 4.36.71 3 3 0 0 1 1.06 1.4 2.43 2.43 0 0 1 .07 1.32c-.2.72-.6.94-.6.92a2.76 2.76 0 0 0 .4-1 2.3 2.3 0 0 0-.14-1.18 2.82 2.82 0 0 0-1-1.2 4.72 4.72 0 0 0-4-.56 2 2 0 0 0-1.5 1.56 1.07 1.07 0 0 0 .39 1 1.16 1.16 0 0 0 1.09.11 1.54 1.54 0 0 0 .72-2 2.9 2.9 0 0 0-1.71-1.55 4 4 0 0 0-3.9.67A4.23 4.23 0 0 0 281 60.5c-.1.68 0 1.07-.07 1.07zm9.95-5.23a2.13 2.13 0 0 1 .74-.14 8.26 8.26 0 0 1 2.06.06 4.78 4.78 0 0 1 2.76 1.4 3.07 3.07 0 0 1 .43 3.71 2.41 2.41 0 0 1-.44.51l-.27-.44a2.15 2.15 0 0 1 1.95.26 2.4 2.4 0 0 1 1.05 1.47 3.54 3.54 0 0 1-.64 2.84 5.38 5.38 0 0 1-1.4 1.31c-.38.25-.6.35-.62.32s.17-.18.5-.47a6.59 6.59 0 0 0 1.23-1.36 3.26 3.26 0 0 0 .47-2.52 1.93 1.93 0 0 0-.86-1.17 1.68 1.68 0 0 0-1.49-.2l-1.34.54 1.08-1a2 2 0 0 0 .35-.4 2.45 2.45 0 0 0 .33-1.65 2.73 2.73 0 0 0-.69-1.45 4.61 4.61 0 0 0-2.47-1.36c-1.6-.3-2.73-.15-2.73-.26zM302.74 65c.06 0 .2.28.2.78a2.79 2.79 0 0 1-2.45 2.73c-.5 0-.8-.06-.8-.13a5 5 0 0 0 2.14-1.12 4.92 4.92 0 0 0 .89-2.26zm-35-4.26a2.26 2.26 0 0 1 .77-.63 5.35 5.35 0 0 1 6.32.84 3.12 3.12 0 0 1 1 2.26 1.9 1.9 0 0 1-1.96 1.79 1.44 1.44 0 0 1-1.17-.89 2 2 0 0 1-.09-1.37 2.62 2.62 0 0 1 1.77-1.74 3.34 3.34 0 0 1 2.21 0 4.77 4.77 0 0 1 1.62 1 8.09 8.09 0 0 1 1.62 2.16 3.17 3.17 0 0 1 .39.9 5.34 5.34 0 0 1-.57-.8 8.85 8.85 0 0 0-1.68-2 3.6 3.6 0 0 0-3.43-.85 2.19 2.19 0 0 0-1.44 1.4c-.2.66.12 1.56.82 1.6a1.4 1.4 0 0 0 1.37-1.3 2.66 2.66 0 0 0-.81-1.89 5 5 0 0 0-3.37-1.47 5.47 5.47 0 0 0-2.51.48 8.42 8.42 0 0 1-.86.5z" class="E"/><path d="M296.8 79.88c.14-.06 5.63-1.66 5.45 3.94s-5.76 4.26-5.77 4.1.32-8.04.32-8.04z" class="F"/><path d="M298.26 85.86a2.26 2.26 0 0 0 .26.15 1 1 0 0 0 .73 0 2.42 2.42 0 0 0 1.18-2.13 3.38 3.38 0 0 0-.22-1.41 1.15 1.15 0 0 0-.71-.77.49.49 0 0 0-.59.25c-.08.15-.05.26-.08.27s-.1-.1-.06-.32a.65.65 0 0 1 .23-.35.75.75 0 0 1 .54-.12 1.38 1.38 0 0 1 1 .9 3.34 3.34 0 0 1 .28 1.57 2.52 2.52 0 0 1-1.5 2.37 1.06 1.06 0 0 1-.88-.17c-.17-.1-.2-.23-.18-.24z" class="G"/><path d="M262.07 352.08l3.64 16.76s-15.8 9.32-15.44 12.48l32.73-5.88-4.6-26.34z" class="B"/><path d="M283 375.44l-.57-2.64-31.18 6.63s-1.34.9-1 1.9z" class="E"/><path d="M299.3 353.92l.54 17.14s-17.24 6.3-17.45 9.48l33.27.15.25-26.74z" class="B"/><path d="M315.67 380.7l-.08-2.7-31.87.87s-1.48.64-1.32 1.68z" opacity=".6" class="E"/><g class="B"><path d="M260.27 366.45l-17.06-85.33L273.67 265l11.8 98.17zm38.37 2.8l-23.56-145V193l32.18 3c.4 1.22 10.94 173.47 10.94 173.47l-3.32-.2h-16.24"/><path d="M256.56 190.78l-13.35 90.34 29.85-7.24 12.17-80.16-28.67-2.94z"/></g><g class="E"><path d="M284.18 198.44v.44l.14 1.3.57 5 2.28 18.3 8.26 60.23 4.38 33.2 1 7.46 1.07 7 1.9 12.58 2.67 18.24.65 5 .13 1.3a1.79 1.79 0 0 1 0 .33c0 .1-.05 0-.05 0h.06a1.57 1.57 0 0 0 0-.34c0-.3 0-.73-.1-1.3l-.57-5-2.54-18.25-1.86-12.6q-.5-3.4-1.06-7l-.93-7.46-4.34-33.2-8.38-60.22-3.3-25zm-17.96 167.24s0-.15-.05-.43L266 364l-.82-4.8-3.1-17.68-10.38-58.32a13.42 13.42 0 0 1-.25-4.23l.62-4.2q.65-4.17 1.27-8.22l2.5-15.52 4.65-26.22 3.6-17.58 1.1-4.75.28-1.24.1-.42s-.05.13-.13.4l-.32 1.23-1.18 4.73c-1 4.13-2.3 10.13-3.75 17.57l-4.73 26.2-2.54 15.53-1.28 8.22-.62 4.22a14.16 14.16 0 0 0 .26 4.35l10.5 58.3 3.22 17.66.9 4.8.25 1.24c.06.3.05.42.05.42zm8.86-142.44c-.1 0 1.28 9.4 3.1 20.92l3.5 20.84c.1 0-1.28-9.4-3.1-20.92l-3.5-20.84zM298.35 369a3.77 3.77 0 0 0 .77.13l2.12.2 7 .32 7-.1c.9 0 1.63-.08 2.13-.13a2.57 2.57 0 0 0 .77-.11 21.89 21.89 0 0 0-2.9-.05h-7c-2.73 0-5.2-.14-7-.2a21.15 21.15 0 0 0-2.89-.07z"/><path d="M260.27 366.45a4.45 4.45 0 0 0 1-.05l2.7-.28 8.92-1.1 8.9-1.2 2.7-.4a4.53 4.53 0 0 0 1-.2 4.74 4.74 0 0 0-1 0l-2.7.28-8.92 1.1-8.9 1.22-2.7.4a4.85 4.85 0 0 0-1 .25z"/></g><path d="M109 50.42s13.22-5.16 22.25-2.58S143 56 149.77 55.55c5.38-.38 9.2-2.7 11.13-8.43s1.94-12.86 20.3-12.18c14.06.52 15.48 2.58 15.48 2.58l1.5 37.4c-8-1.26-16.1-2.17-24.83-.94a10.48 10.48 0 0 0-8.19 9c-1 8-9.23 11.1-14.15 11.1-7 0-10.6-4.76-16.57-6.14-9.37-2.17-25.46 4.4-25.46 4.4z" class="C"/><path d="M203.92 128.63l-8.08-.57.2 12.68 8.67 6.33.88-.32.5-14.42-2.18-3.7z" class="G"/><path d="M159.5 79.25c-.14 0-.38-6.2-.53-13.85s-.15-13.86 0-13.86.38 6.2.53 13.85.14 13.85 0 13.86zM144.7 63c.15 0 .26 6.4.26 14.3s-.1 14.3-.26 14.3-.26-6.4-.26-14.3.12-14.3.26-14.3z" class="B"/><path d="M144.7 85.3v6.68c2.1 1.4 6.43 2.25 8.84 1.5h.07a9.74 9.74 0 0 0 6.5-7 11 11 0 0 0 .38-3.33c-.8-9.5-1.83-21.36-1.53-30.9a15.9 15.9 0 0 1-14.62 3.15z" class="D"/><path d="M143.4 56.72a7.14 7.14 0 0 1-1.23-.7l-3.27-2a35.43 35.43 0 0 0-11.55-4.88 26.06 26.06 0 0 0-12.43.74 51.58 51.58 0 0 0-4.85 2 8 8 0 0 1 1.2-.76 23.22 23.22 0 0 1 3.54-1.56 25.06 25.06 0 0 1 12.64-.9 33.48 33.48 0 0 1 11.65 5.07l3.18 2.17a7.26 7.26 0 0 1 1.12.82zm32.48-19.1c0 .1-1 0-2.56.16a12.44 12.44 0 0 0-9.63 6.7c-.72 1.4-.94 2.37-1 2.34a6.29 6.29 0 0 1 .7-2.5 11.76 11.76 0 0 1 9.93-6.91 6.35 6.35 0 0 1 2.56.21z" opacity=".6" fill="#fff"/><path d="M197.4 33.68l10.67 296.44-1.84.44-10.96-296.74 2.13-.14z" class="B"/><g class="F"><path d="M217.13 145.4l-4-14.4-14.22-10s-1.66 1 .88 4.75l3.2 4.4s-.1 5.73 2.63 9.1l-.88 7.76zm-21.33-14.72a15.47 15.47 0 0 1 4 3.76 2.8 2.8 0 0 1 .3 1.36 1.07 1.07 0 0 1-.56 1 1 1 0 0 1-.92-.09 3.13 3.13 0 0 1-.74-.62l-2.74-2.83a3.16 3.16 0 0 1-.95-1.56 1.09 1.09 0 0 1 1.57-1"/><path d="M195.8 134.35a15.81 15.81 0 0 1 4 3.76 2.85 2.85 0 0 1 .3 1.36 1.07 1.07 0 0 1-.56 1 1.1 1.1 0 0 1-.93-.09 3.08 3.08 0 0 1-.73-.62l-2.7-2.76a3.21 3.21 0 0 1-.94-1.56 1.1 1.1 0 0 1 1.57-1"/><path d="M196.38 138.35a15.47 15.47 0 0 1 4 3.76 2.69 2.69 0 0 1 .3 1.36 1.08 1.08 0 0 1-.55 1 1.06 1.06 0 0 1-.93-.09 3.34 3.34 0 0 1-.74-.62l-2.74-2.83a3.31 3.31 0 0 1-.95-1.56 1.09 1.09 0 0 1 1.57-1m.12-10.22a5.21 5.21 0 0 1 1.66 1.19 1.9 1.9 0 0 1 .34 2 .84.84 0 0 1-.64.49 1 1 0 0 1-.56-.14 5.32 5.32 0 0 1-1.09-.67 8.17 8.17 0 0 1-.91-1 1 1 0 0 1-.26-1.28c.2-.48.42-.76 1.46-.64m19.84 10.12l21.6 19.4-7.02 15.48-24.77-26.43 10.2-8.44z"/></g><path d="M215.44 137.38l19.2 14.62 19.45-32.37c1.58-1.9 5.6-3.92 5.6-3.92l-2.22 39.07s-9.66 24.67-22.93 23.33c-10.16-1-27.7-27.82-27.7-27.82z" class="C"/><path d="M234.3 151.52a16.87 16.87 0 0 0-1.94 14 2.06 2.06 0 0 0 .78 1.24 1.51 1.51 0 0 0 1.92-.64 4.52 4.52 0 0 0 .5-2.16 5 5 0 0 0 1.41 1.86 1.73 1.73 0 0 0 2.17-.08c.64-.7.28-1.8-.1-2.68q-2.46-5.56-4.9-11.12" class="D"/><g class="B"><path d="M220.27 141.75a70.76 70.76 0 0 1-4.4 7.37 71.88 71.88 0 0 1-4.83 7.09 68.68 68.68 0 0 1 4.4-7.37 71.31 71.31 0 0 1 4.83-7.09zm-4.9-.53c0-.05.2-.3.64-.14a.83.83 0 0 1 .51.6.88.88 0 0 1-1.46.77.83.83 0 0 1-.2-.76c.1-.46.46-.52.47-.45s-.12.2-.1.5.24.56.58.38a.39.39 0 0 0 0-.7c-.2-.17-.4-.13-.44-.2zm19.3 20.02a13.74 13.74 0 0 1-.14-9.24c.15 0-.26 2.08-.2 4.63s.5 4.57.35 4.6z"/><path d="M238.4 161.1a22.49 22.49 0 0 1-3.91-9.07 48.49 48.49 0 0 1 1.93 4.55l1.98 4.52z"/></g><path d="M299.88 112l-2.88-5.77h-21l-3.3 6.52-13 2.94-5.6 83.68a5.82 5.82 0 0 0 .74 3h0l51 2 2.07.85c1.83-1.13.7-5.8.7-8l.66-41.44 10.1-33.12z" class="C"/><path d="M278.1 114.87l3.7-3.7 4.18 10.06a105.19 105.19 0 0 0 13.66-9.56l-14.13 4.53q-1.8-4.74-3.58-9.5a36.59 36.59 0 0 1-3.56 8.23" class="D"/><path d="M337.3 216.9l-13.75.7v-39.46l-14.22-22.36 10.1-33.12c2.08.82 17.75 40.16 21.74 50.85a11.83 11.83 0 0 1 .74 4.82z" class="C"/><g class="B"><path d="M259.7 133c.15 0-.54 8.1-1.52 18.07l-2 18c-.1 0 .54-8.1 1.52-18.08l2-18zm22.23-26.3a50.34 50.34 0 0 1-2.5 6.73l-.28.68a1.71 1.71 0 0 1-.46.69.81.81 0 0 1-.91.06c-.24-.12-.4-.25-.6-.36l-1.9-1.28a8.47 8.47 0 0 1-1.66-1.29 9 9 0 0 1 1.86 1l1.95 1.18c.37.24.75.5.92.3a4 4 0 0 0 .58-1.17 48.59 48.59 0 0 1 2.98-6.55zm16.7 5.14a21.76 21.76 0 0 1-3.21 1.29l-7.86 2.77-1.9.65-.1-.22-2.67-6.62a16.8 16.8 0 0 1-.95-2.72 18.84 18.84 0 0 1 1.27 2.59l2.83 6.55-.33-.14 1.68-.58 7.9-2.63a23.34 23.34 0 0 1 3.33-.94zm18.6 12.02c0 .15-2.9 1-6.34 2.48l-6.1 3a6.62 6.62 0 0 1 1.6-1.22 33 33 0 0 1 8.86-3.94 6.5 6.5 0 0 1 1.98-.32z"/><path d="M281.93 106.7a.87.87 0 0 1 0 .25v.74l.07 2.83c0 2.45 0 6-.16 10.4-.3 8.78-1.4 20.88-3.16 34.15l-2.42 18.72a122.1 122.1 0 0 0-.84 15.36 77.36 77.36 0 0 0 .82 10.33c.15 1.22.34 2.15.44 2.8 0 .3.08.53.1.73a.93.93 0 0 1 0 .25 1 1 0 0 1-.07-.24l-.17-.72c-.12-.63-.35-1.56-.53-2.78a70.17 70.17 0 0 1-1-10.36 115.5 115.5 0 0 1 .72-15.41c.6-5.78 1.53-12.1 2.38-18.73 1.75-13.27 2.9-25.34 3.3-34.1a297.28 297.28 0 0 0 .33-10.38v-3.56a.9.9 0 0 1 .17-.26zm56.13 104.16a51.65 51.65 0 0 1-7.29-.1 51.06 51.06 0 0 1-7.26-.61 50.52 50.52 0 0 1 7.28.09 52.34 52.34 0 0 1 7.27.62zm-12.2 1.54v.37c0 .18.22.3.4.14s.12-.3-.05-.42-.3-.07-.36-.12.1-.3.47-.23a.65.65 0 0 1 .5.39.72.72 0 0 1-1.05.85.7.7 0 0 1-.28-.58c.07-.38.34-.47.37-.4z"/></g><path d="M309.5 155.68q-2.25-4.05-4.48-8.1a111.35 111.35 0 0 0 3 42.69q.7-17.2 1.4-34.4m-62.5-24.63a10.71 10.71 0 0 0 12.41 3.92 3.66 3.66 0 0 0 3 1.66 8.59 8.59 0 0 0 3.45-.67 26.91 26.91 0 0 0 16.73-19.47c-6.47 2.27-10.83 8.54-17.18 11.14a16.2 16.2 0 0 1-15.41-1.59z" class="D"/><path d="M286.75 140.8a3.92 3.92 0 0 1 .81-.06l2.4-.06 8.68-.1h.24v.24l-.8 10.72v.14l-.13.07-.53.28-5.8 3.06-.15.07-.13-.1-5.4-4.4-.08-.07v-.1l.62-7.1.2-1.92a2.91 2.91 0 0 1 .09-.64 4.66 4.66 0 0 1 0 .73l-.1 2-.4 7-.08-.18 5.44 4.35h-.27l5.8-3.07.54-.28-.14.2.85-10.7.23.24c-3.5 0-6.45-.07-8.54-.1l-2.44-.06a7 7 0 0 1-.92-.12z" class="B"/><path d="M298.3 145.6a68.11 68.11 0 0 1-11.89-.22 33.57 33.57 0 0 1 5.95-.15 34.39 34.39 0 0 1 5.94.37zm-.08 2.07a33.57 33.57 0 0 1-6 .15 33.52 33.52 0 0 1-5.95-.37 34.91 34.91 0 0 1 6-.15 34.62 34.62 0 0 1 5.95.37z" class="J"/><path d="M261.52 202.82c0 .14-1.07 0-1.76-1.1s-.48-2.1-.34-2 .18.9.77 1.75 1.38 1.2 1.33 1.34zm1.33-.56a3.62 3.62 0 0 1-1.44-2.36 3.58 3.58 0 0 1 .15-2.77c.15 0 0 1.23.36 2.64s1.08 2.4.93 2.5zm38.5-5.76a8.54 8.54 0 0 1-3.53 7.51 28.67 28.67 0 0 0 2.27-3.52 28.53 28.53 0 0 0 1.26-3.99z" class="B"/><g class="E"><path d="M280.4 110.98h2.76l1.18 2.05-1.16 3.2-2.75-.3-1.08-2.3 1.05-2.63z"/><path d="M280.42 115.92s-16.6 10.7-25.08 6.42-19-9.5-28.47-8.25a45.24 45.24 0 0 0-15.83 5l-3 7.2 7.67 2.76s11.18-5.4 19.3-3.95c5.68 1 16.6 6.8 23.94 6.25s17.5-5.78 24.18-15.17z"/></g><g class="B"><path d="M282.43 117.1a3.46 3.46 0 0 1-1.08-.49 3.65 3.65 0 0 1-1-.68 3.36 3.36 0 0 1 1.09.5 3.41 3.41 0 0 1 .99.67zm1.64-4.43a14.52 14.52 0 0 1-1.84 1.67 14.77 14.77 0 0 1-2 1.51 14.52 14.52 0 0 1 1.84-1.67 14.77 14.77 0 0 1 2-1.51z"/><path d="M282.9 113.72a7.92 7.92 0 0 1-2.63-2.77c.05 0 .57.64 1.3 1.4l1.34 1.37z"/></g><path d="M269.2 128.18a3.79 3.79 0 0 1-.37-.86l-.76-2.12-.7-2.14a5.54 5.54 0 0 1-.23-.91 4.08 4.08 0 0 1 .37.86l.76 2.12.7 2.14a5.1 5.1 0 0 1 .24.91zm4.14-2.48a17.57 17.57 0 0 1-1.52-2.29 19 19 0 0 1-1.34-2.4 35.81 35.81 0 0 1 2.86 4.69zm3.76-2.93a11.72 11.72 0 0 1-1.7-1.53 11.84 11.84 0 0 1-1.54-1.69 26.4 26.4 0 0 1 3.24 3.22zm3.1-3.07a6.69 6.69 0 0 1-1.28-.94 6.52 6.52 0 0 1-1.15-1.1 5.53 5.53 0 0 1 1.28.94 5.47 5.47 0 0 1 1.15 1.1zm-16.92 11.05a32.92 32.92 0 0 1-.29-3.62 30.29 30.29 0 0 1-.09-3.63 31.39 31.39 0 0 1 .3 3.62 31.46 31.46 0 0 1 .08 3.63zm-5.68.9l.46-4.14.66-4.12a39.14 39.14 0 0 1-.45 4.14 39.3 39.3 0 0 1-.67 4.12zm-3.37-9.94c.05 0-.48 2-1.2 4.46l-1.4 4.4c-.06-.01.48-2 1.2-4.46l1.4-4.4zm-3.87-1.83c.06 0-.58 2.07-1.4 4.57l-1.62 4.5c-.06-.02.58-2.06 1.42-4.57l1.6-4.5zm-5.6-2.62l-1.25 5-1.44 4.9c-.05-.01.5-2.24 1.24-5l1.45-4.9zm-6-1.63c.06 0-.38 2.2-1 4.9l-1.18 4.86c-.06-.02.38-2.2 1-4.9l1.18-4.87zm-6.04-1.04c.06 0 .13 2.33.15 5.2l-.06 5.23c-.06 0-.12-2.34-.14-5.22l.05-5.22zm-4.84 10.64a3 3 0 0 1-.12-.42l-.25-1.18-.66-3.9-.48-3.93c0-.4-.07-.8-.1-1.2a1.26 1.26 0 0 1 0-.44 2.26 2.26 0 0 1 .08.43c0 .4.1.8.16 1.2l.54 3.9.78 5.08a1.46 1.46 0 0 1 .04.44zm-5.38 1.1c-.05 0-.87-2.3-1.83-5.18l-1.63-5.25c.05-.02.88 2.3 1.83 5.18l1.63 5.25zm-4.87 1.72c-.05 0-1.12-2.12-2.4-4.8l-2.2-4.9c.05-.03 1.13 2.13 2.4 4.8l2.2 4.9zm-6.32-.55a6.84 6.84 0 0 1-1.18-1.86 6.22 6.22 0 0 1-.71-2.08c.06 0 .37.9.9 2l1 1.94z" class="J"/><defs ><path id="B" d="M155.48 338.87c-1.6 2.3-4.74 1.53-6.2.13s-2.06-3.43-2.62-5.37c-1.27-4.43-2.56-9.07-1.6-13.58a7.52 7.52 0 0 1 1.74-3.7 3.93 3.93 0 0 1 3.73-1.24c1.58.42 2.56 2 3.27 3.43a32.45 32.45 0 0 1 3.2 13.89 11.34 11.34 0 0 1-1.52 6.44"/></defs></svg>