<svg xmlns="http://www.w3.org/2000/svg" viewBox="0 0 500 500"><!--Goal--><g id="background-complete--inject-1"><polygon points="261.16 219.33 198.61 165.85 199.26 165.1 261.01 217.89 335.82 122.21 365.26 143.52 425.37 64.29 426.17 64.89 365.46 144.9 336.01 123.59 261.16 219.33" style="fill:#ebebeb"></polygon><path d="M44.17,305.25a3.39,3.39,0,1,1-3.39-3.39A3.39,3.39,0,0,1,44.17,305.25Z" style="fill:#ebebeb"></path><circle cx="198.93" cy="165.48" r="6.69" style="fill:#ebebeb"></circle><polygon points="41.15 305.58 40.41 304.91 113.34 224.35 129.82 238.68 195.54 167.98 196.27 168.66 129.89 240.07 113.42 225.75 41.15 305.58" style="fill:#ebebeb"></polygon><circle cx="426.08" cy="61.67" r="8.72" style="fill:#ebebeb"></circle><path d="M430.34,58.69a33.14,33.14,0,0,1-3.81,4.57l-1.44,1.56-.15.16-.17-.13a17.87,17.87,0,0,1-2.95-2.46,18.79,18.79,0,0,1,3.23,2.07l-.32,0,1.41-1.58A34.77,34.77,0,0,1,430.34,58.69Z" style="fill:#fff"></path><path d="M144.07,150.23c.85-6.24-7.94-11.36-14.55-11.9-3.15-.25-6.42.23-9.41-.81-6.47-2.25-9-10.61-15.36-13.27-4.72-2-10.16-.22-14.73,2.08s-9.1,5.2-14.21,5.53c-4.44.28-9.27-1.37-13.16.81-2.9,1.61-4.42,5-7.09,6.92s-6,2.34-9.26,2.52-6.6.21-9.56,1.56-5.39,4.47-4.78,7.66Z" style="fill:#ebebeb"></path><path d="M379.56,45.81c.53-3.89-4.95-7.09-9.07-7.42-2-.16-4,.14-5.87-.51-4-1.4-5.65-6.61-9.59-8.28-2.94-1.24-6.33-.13-9.18,1.3s-5.68,3.25-8.86,3.45c-2.78.18-5.79-.85-8.22.51-1.8,1-2.75,3.09-4.42,4.32a10.46,10.46,0,0,1-5.78,1.56,16.61,16.61,0,0,0-6,1c-1.84.84-3.36,2.79-3,4.78Z" style="fill:#f5f5f5"></path><path d="M453.3,133.77c.29-2.09-2.66-3.8-4.88-4a12.74,12.74,0,0,1-3.16-.28c-2.17-.75-3-3.56-5.15-4.45-1.58-.67-3.41-.07-4.94.7s-3.05,1.74-4.77,1.85c-1.49.1-3.11-.45-4.41.28-1,.54-1.48,1.66-2.38,2.32a5.63,5.63,0,0,1-3.11.84,8.64,8.64,0,0,0-3.2.53,2.52,2.52,0,0,0-1.6,2.57Z" style="fill:#f5f5f5"></path><path d="M120.91,79.92c.28-2.09-2.67-3.81-4.88-4a12.74,12.74,0,0,1-3.16-.28c-2.17-.75-3-3.56-5.15-4.45-1.59-.67-3.41-.07-4.94.7s-3,1.74-4.77,1.85c-1.49.1-3.11-.45-4.41.27-1,.55-1.48,1.67-2.38,2.33a5.66,5.66,0,0,1-3.11.84,8.61,8.61,0,0,0-3.2.53A2.54,2.54,0,0,0,83.3,80.3Z" style="fill:#fafafa"></path><polygon points="140.75 293.07 160.59 248.99 180.97 236.75 193.63 209.2 229.99 217.71 257.11 300.9 215.13 321.53 180.97 342.36 140.75 293.07" style="fill:#f5f5f5"></polygon><path d="M487.71,420.82l-35.89-71.64-16.61-24.86-19.58-90.55-23.58-19.61-23.69,33L336,255.22l-29.84,28.54,60.06,63.73,35.4,37.33,27.65,51.64,53.07,50.17C481.8,486.14,487.71,420.82,487.71,420.82Z" style="fill:#ebebeb"></path><polygon points="18.48 492.87 22.14 444.25 41.69 413.86 54.49 356.02 77.76 342.36 106.51 294.01 133.89 275.48 190.7 331.66 228.2 291.27 257.11 300.9 245.2 315.71 215.13 321.53 155.9 373.18 109.84 398.57 97.56 420.75 70.91 424.65 18.48 492.87" style="fill:#ebebeb"></polygon></g><g id="Plants--inject-1"><path d="M155.48,338.87c-1.61,2.29-4.74,1.53-6.19.13s-2.06-3.43-2.62-5.37c-1.27-4.43-2.56-9.07-1.61-13.58a7.52,7.52,0,0,1,1.74-3.7,3.93,3.93,0,0,1,3.73-1.24c1.58.42,2.56,2,3.27,3.43a32.45,32.45,0,0,1,3.2,13.89,11.34,11.34,0,0,1-1.52,6.44" style="fill:#4550E6"></path><g style="opacity:0.2"><path d="M155.48,338.87c-1.61,2.29-4.74,1.53-6.19.13s-2.06-3.43-2.62-5.37c-1.27-4.43-2.56-9.07-1.61-13.58a7.52,7.52,0,0,1,1.74-3.7,3.93,3.93,0,0,1,3.73-1.24c1.58.42,2.56,2,3.27,3.43a32.45,32.45,0,0,1,3.2,13.89,11.34,11.34,0,0,1-1.52,6.44"></path></g><path d="M149.45,350.5a13.94,13.94,0,0,0-8.65-1.05,7.18,7.18,0,0,0-4.27,1.91c-1.07,1.18-1.27,3.25,0,4.26a4.1,4.1,0,0,0,2.69.69c2.29,0,4.82-.43,6.65.94,1,.79,1.73,2.09,3,2.48a3,3,0,0,0,3.24-1.45,5,5,0,0,0,.37-3.71A5.68,5.68,0,0,0,149.45,350.5Z" style="fill:#4550E6"></path><path d="M159.89,342.16a8.39,8.39,0,0,1-1.3-7.69,14.9,14.9,0,0,1,4.56-6.61,24.49,24.49,0,0,1,8.16-4.81,8.59,8.59,0,0,1,3.67-.62,3.84,3.84,0,0,1,3.08,1.86c.85,1.64,0,3.62-.86,5.24a61.36,61.36,0,0,1-5.36,8.16c-1.6,2.07-3.44,4.12-5.89,5.05s-5,.83-6.29-.87" style="fill:#4550E6"></path><path d="M155.59,373.52a5.09,5.09,0,0,1-.15-1c-.07-.76-.17-1.72-.28-2.85a41,41,0,0,0-.64-4.18,31.62,31.62,0,0,0-1.52-4.93,17.83,17.83,0,0,0-2.52-4.46,9.21,9.21,0,0,0-3.18-2.65,8.93,8.93,0,0,0-2.68-.84,5.09,5.09,0,0,1-1-.15,5.07,5.07,0,0,1,1.06,0,7.93,7.93,0,0,1,2.79.72,9.34,9.34,0,0,1,3.36,2.67,17.49,17.49,0,0,1,2.61,4.56,30.3,30.3,0,0,1,1.51,5,35.66,35.66,0,0,1,.56,4.23c.09,1.21.12,2.19.14,2.87A6.65,6.65,0,0,1,155.59,373.52Z" style="fill:#263238"></path><path d="M155.39,371.33a1.56,1.56,0,0,1,0-.49v-1.38c0-1.2,0-2.94-.06-5.09-.1-4.3-.47-10.23-1.19-16.75s-1.67-12.38-2.54-16.59c-.21-1-.41-2-.61-2.83s-.34-1.56-.5-2.14-.23-1-.32-1.34a1.59,1.59,0,0,1-.08-.48,2.32,2.32,0,0,1,.16.45c.11.35.24.79.41,1.33s.36,1.29.57,2.12.44,1.77.67,2.83a156.13,156.13,0,0,1,2.67,16.61c.72,6.53,1,12.48,1.07,16.78,0,2.16,0,3.9-.08,5.1,0,.57-.06,1-.08,1.39A3.23,3.23,0,0,1,155.39,371.33Z" style="fill:#263238"></path><path d="M155.36,359.86a10.07,10.07,0,0,1,0-1.45c0-.93.18-2.27.44-3.92a52.39,52.39,0,0,1,1.28-5.71,49.69,49.69,0,0,1,2.39-6.76,36,36,0,0,1,7-10.92,17.09,17.09,0,0,1,1.65-1.53c.25-.22.48-.43.71-.6l.64-.44a8.92,8.92,0,0,1,1.21-.78,43.35,43.35,0,0,0-4,3.56,38,38,0,0,0-6.84,10.88,55.21,55.21,0,0,0-2.4,6.7c-.63,2.1-1,4-1.36,5.65s-.47,3-.57,3.88A9.69,9.69,0,0,1,155.36,359.86Z" style="fill:#263238"></path><path d="M443.86,402.68a6.87,6.87,0,0,0-4.93,2.19,12.16,12.16,0,0,0-2.71,4.78c-1.11,3.4-.76,7.51,0,11,3.81-1.13,6.33-5,7.49-7,1.82-3.22,3.17-10.15.12-10.94" style="fill:#4550E6"></path><path d="M430.27,424.76a5.89,5.89,0,0,0,1-5.81,7.82,7.82,0,0,0-4.19-4.34,3.25,3.25,0,0,0-2.76-.22,2.52,2.52,0,0,0-1.26,2.21,5.13,5.13,0,0,0,.77,2.54c1.49,2.67,3.42,5,6.42,5.62" style="fill:#4550E6"></path><path d="M429.5,435.94a2.44,2.44,0,0,0,.23-.71c.12-.47.28-1.15.46-2a25.46,25.46,0,0,0,.6-6.73,12.68,12.68,0,0,0-2.13-6.39,8.49,8.49,0,0,0-1.38-1.53,2,2,0,0,0-.62-.44,17.23,17.23,0,0,1,1.76,2.13,13.22,13.22,0,0,1,2,6.26,29.24,29.24,0,0,1-.48,6.65A22.92,22.92,0,0,0,429.5,435.94Z" style="fill:#263238"></path><path d="M442.23,407.84a6.4,6.4,0,0,0-.62,1.07c-.38.71-.91,1.73-1.55,3-1.28,2.54-3,6.09-4.78,10.05s-3.32,7.59-4.38,10.24c-.54,1.32-1,2.39-1.23,3.14a7.24,7.24,0,0,0-.4,1.17,6.22,6.22,0,0,0,.54-1.11l1.35-3.09c1.13-2.62,2.7-6.22,4.49-10.18s3.46-7.52,4.67-10.1l1.43-3.06A8.37,8.37,0,0,0,442.23,407.84Z" style="fill:#263238"></path><path d="M434.5,428.79a13.74,13.74,0,0,1,10.89-6.27c1.1,0,2.43.19,2.89,1.19s-.24,2.17-1,3a11.76,11.76,0,0,1-12.81,2.42" style="fill:#4550E6"></path><path d="M443.74,425.44a2.49,2.49,0,0,0-.72,0,5.53,5.53,0,0,0-.85.06,11.11,11.11,0,0,0-1.11.15,14,14,0,0,0-2.79.83,16.32,16.32,0,0,0-3.14,1.72,16.85,16.85,0,0,0-2.65,2.4,14.37,14.37,0,0,0-1.69,2.38,8.64,8.64,0,0,0-.51,1,5,5,0,0,0-.32.78,2.85,2.85,0,0,0-.21.69c.08,0,.42-.94,1.28-2.32a15.26,15.26,0,0,1,1.73-2.28,16.32,16.32,0,0,1,5.65-4,15.44,15.44,0,0,1,2.71-.89C442.71,425.53,443.74,425.52,443.74,425.44Z" style="fill:#263238"></path></g><g id="Mountain--inject-1"><path d="M357.55,447.22a3.29,3.29,0,0,1-.58,0l-1.67.05-6.21.08-21,.08.2-.09-3.68,4.48-15.9,19.24-4.87,5.79-1.34,1.56a3.32,3.32,0,0,1-.5.52,4.45,4.45,0,0,1,.42-.59l1.27-1.62,4.73-5.89,15.79-19.34c1.26-1.53,2.5-3,3.68-4.48l.08-.09h.12l21,.09,6.21.08,1.67,0A2.65,2.65,0,0,1,357.55,447.22Z" style="fill:#263238"></path><polygon points="251.53 403 189.38 400.96 172.16 423.26 144.88 435.4 130.07 466.83 147.31 446.82 180.49 441.26 204.12 416.63 251.53 403" style="fill:#f5f5f5"></polygon><path d="M18.48,492.87s.29-.41.89-1.2l2.66-3.5,10.31-13.5c9-11.75,22.09-28.82,38.43-50.12l0-.06h.07l26.65-3.92-.14.09c3.85-7,8-14.43,12.26-22.19l0,0,.06,0,46-25.41,0,0L215,321.34l.05,0h.07l30.06-5.82-.15.09,15.32-19.07,14.5-18,.1-.12.16,0,32.73,7.28h.08l.05.06,93.81,99,0,0v0c10.4,19.48,19.65,36.78,27.6,51.66l0,0,39,37,10.36,9.85,2.66,2.55c.6.57.89.87.89.87l-.92-.84-2.69-2.51-10.42-9.8-39.16-36.9,0,0v0l-27.68-51.63,0,0-93.87-98.9.13.08L275,278.87l.26-.09-14.5,18L245.4,315.87l-.06.08-.09,0-30.07,5.81.12-.06-59.25,51.64,0,0h0l-46.07,25.36.09-.08-12.3,22.18,0,.08h-.1l-26.66,3.89.11-.07c-16.38,21.27-29.51,38.3-38.55,50L22.11,488.23l-2.7,3.47C18.8,492.48,18.48,492.87,18.48,492.87Z" style="fill:#263238"></path><path d="M257.11,402.23l-.25.09-.76.23-2.93.84-11,3.07-38,10.41.12-.06c-4.68,4.87-9.74,10.15-15,15.61l-8.65,9-.06.06h-.08L147.35,447l.12-.07-14.54,16.73-4,4.59-1.07,1.19c-.24.26-.38.39-.38.39s.11-.15.34-.43.58-.71,1-1.23c.92-1.1,2.25-2.66,3.94-4.66l14.41-16.85.05-.06h.07L180.45,441l-.14.07c2.81-2.93,5.7-5.94,8.64-9l15-15.6.05,0,.06,0,38-10.24,11-2.92,3-.76.76-.19Z" style="fill:#263238"></path><path d="M332.18,381c0,.14-13.52.26-30.2.26s-30.21-.12-30.21-.26,13.52-.26,30.21-.26S332.18,380.89,332.18,381Z" style="fill:#263238"></path></g><g id="Character--inject-1"><path d="M337.22,220s-.07-5.69-.31-5.73l-11.69,2.6c-.12.74-1.59,10.07-1.34,11L337,231.5S337.22,220.33,337.22,220Z" style="fill:#ffbe9d"></path><path d="M337.23,230.63s0-.1.06-.25c.14-1.28,0-6.84-.62-7.07s-2.66.16-2.8.9.32,7,.32,7,.13,1,1.79,1.22C337,232.57,337.23,230.63,337.23,230.63Z" style="fill:#ffbe9d"></path><path d="M333.9,232.63s0-.1.06-.25c.13-1.28.05-6.84-.63-7.07s-2.66.16-2.79.9.31,7,.31,7,.14,1,1.8,1.22C333.67,234.57,333.9,232.63,333.9,232.63Z" style="fill:#ffbe9d"></path><path d="M330.64,233.63s0-.1.05-.26c.14-1.27.06-6.83-.62-7.07s-2.66.17-2.79.9.31,7,.31,7,.14,1,1.79,1.23C330.41,235.57,330.64,233.63,330.64,233.63Z" style="fill:#ffbe9d"></path><path d="M327.39,234.57s0-.1.06-.26c.13-1.27.05-6.83-.63-7.07s-2.66.17-2.79.9.32,7,.32,7,.13,1,1.79,1.23C327.16,236.5,327.39,234.57,327.39,234.57Z" style="fill:#ffbe9d"></path><path d="M333.85,225.83a11.45,11.45,0,0,1,.26,2.71,10,10,0,0,1-.09,2.68,11.45,11.45,0,0,1-.26-2.71A9.93,9.93,0,0,1,333.85,225.83Z" style="fill:#eb996e"></path><path d="M330.57,225.81a42.58,42.58,0,0,1,.27,7.71,22.87,22.87,0,0,1-.31-3.85A21.6,21.6,0,0,1,330.57,225.81Z" style="fill:#eb996e"></path><g style="opacity:0.78"><path d="M327.24,226.09a42.58,42.58,0,0,1,.27,7.71,22.87,22.87,0,0,1-.31-3.85A21.49,21.49,0,0,1,327.24,226.09Z" style="fill:#eb996e"></path></g><path d="M325.15,217.18s-4.63,10.51-3.95,11.16A15.53,15.53,0,0,0,324,230Z" style="fill:#ffbe9d"></path><path d="M299.56,76.18l-3.39,39.31-19.69-1.57c-.12-2.3,0-11.19,0-11.19s-8.19-1.28-8.29-9.47c-.05-4,.52-12.2,1.12-19.61a15.15,15.15,0,0,1,16-13.91h0A15.15,15.15,0,0,1,299.56,76.18Z" style="fill:#ffbe9d"></path><path d="M276.51,102.61a19,19,0,0,0,10.68-3s-2.52,5.9-10.7,5.16Z" style="fill:#eb996e"></path><path d="M272.52,79.39a1.19,1.19,0,0,0,1.13,1.19,1.14,1.14,0,0,0,1.21-1.06,1.17,1.17,0,0,0-1.13-1.18A1.12,1.12,0,0,0,272.52,79.39Z" style="fill:#263238"></path><path d="M271.1,77.78c.14.16,1-.5,2.29-.5s2.18.64,2.32.48-.08-.34-.49-.63a3.17,3.17,0,0,0-3.67,0C271.16,77.44,271,77.71,271.1,77.78Z" style="fill:#263238"></path><path d="M284.61,79.4a1.18,1.18,0,0,0,1.13,1.18,1.12,1.12,0,0,0,1.2-1.06,1.16,1.16,0,0,0-1.12-1.18A1.12,1.12,0,0,0,284.61,79.4Z" style="fill:#263238"></path><path d="M283.47,78c.15.15,1-.51,2.29-.5s2.18.63,2.32.48-.08-.35-.48-.64a3.26,3.26,0,0,0-1.86-.57,3,3,0,0,0-1.82.59C283.53,77.67,283.4,78,283.47,78Z" style="fill:#263238"></path><path d="M278.9,87.35a8.7,8.7,0,0,0-2-.37c-.32,0-.63-.09-.68-.31a1.63,1.63,0,0,1,.21-1c.31-.78.62-1.6,1-2.45a42.1,42.1,0,0,0,2.13-6.4,41.52,41.52,0,0,0-2.65,6.21c-.31.86-.62,1.68-.91,2.46a1.84,1.84,0,0,0-.16,1.26.77.77,0,0,0,.53.47,1.86,1.86,0,0,0,.54.08A8,8,0,0,0,278.9,87.35Z" style="fill:#263238"></path><path d="M282.61,88.22c-.21,0-.21,1.36-1.38,2.33s-2.62.82-2.63,1,.32.26.94.28a3.39,3.39,0,0,0,2.2-.77,2.91,2.91,0,0,0,1.06-1.94C282.85,88.55,282.7,88.22,282.61,88.22Z" style="fill:#263238"></path><path d="M283.15,73.08c.12.35,1.38.18,2.86.36s2.67.58,2.86.28-.12-.47-.6-.8a4.83,4.83,0,0,0-2.12-.75,5,5,0,0,0-2.24.26C283.37,72.65,283.09,72.92,283.15,73.08Z" style="fill:#263238"></path><path d="M271.56,74.14c.22.29,1.09,0,2.13,0s1.93.19,2.13-.11-.05-.43-.43-.7a3.11,3.11,0,0,0-3.44.1C271.59,73.71,271.46,74,271.56,74.14Z" style="fill:#263238"></path><path d="M305.35,65.69a3.1,3.1,0,0,0-2.57-3.26,3.78,3.78,0,0,0-5.41-4.76,4.91,4.91,0,0,0-8.65-1.75,5.2,5.2,0,0,0-8.79,1.39,5.71,5.71,0,0,0-8.44,1.2,7.68,7.68,0,0,0-2.8-.45,3.4,3.4,0,0,0-2.95,1.87,2.23,2.23,0,0,0,.84,2.64,2.72,2.72,0,1,0-1.23,5.28,1.56,1.56,0,0,0-.85,1.43,2.92,2.92,0,0,0,1.92,2.12,10.52,10.52,0,0,0,7.47-.12c2.42-.81,4.66-2.08,7.06-3s6.41-2.45,8.82-1.6a4.42,4.42,0,0,1,1,.51,6.49,6.49,0,0,1,2.38,4.16.88.88,0,0,1,0,.16c.32,2.34.27,4.71.61,7a10.6,10.6,0,0,0,2.87,6.31c.71.66,2,1.12,2.55.34a1.87,1.87,0,0,0,.29-1.07c.32-4.07,1.2-7.81,1.67-11.79a11.79,11.79,0,0,1,2.22-2.7A6.35,6.35,0,0,0,305.35,65.69Z" style="fill:#263238"></path><path d="M280.93,61.57a1.91,1.91,0,0,1-.11-1.09,4.16,4.16,0,0,1,1.31-2.69,4.27,4.27,0,0,1,4.3-.85,3.32,3.32,0,0,1,2,1.81,2.3,2.3,0,0,1,.06,1.51,1.78,1.78,0,0,1-1.06,1.18,1.7,1.7,0,0,1-1.59-.18,1.58,1.58,0,0,1-.58-1.45,2,2,0,0,1,.66-1.3,3.1,3.1,0,0,1,1.2-.66,5,5,0,0,1,4.36.71,3,3,0,0,1,1.06,1.4,2.43,2.43,0,0,1,.07,1.32c-.19.72-.6.94-.6.92a2.76,2.76,0,0,0,.4-1,2.3,2.3,0,0,0-.14-1.18,2.82,2.82,0,0,0-1-1.2,4.72,4.72,0,0,0-4-.56,2,2,0,0,0-1.5,1.56,1.07,1.07,0,0,0,.39,1,1.16,1.16,0,0,0,1.09.11,1.54,1.54,0,0,0,.72-2,2.9,2.9,0,0,0-1.71-1.55,4,4,0,0,0-3.9.67A4.23,4.23,0,0,0,281,60.5C280.91,61.18,281,61.57,280.93,61.57Z" style="fill:#455a64"></path><path d="M290.88,56.34a2.13,2.13,0,0,1,.74-.14,8.26,8.26,0,0,1,2.06.06,4.78,4.78,0,0,1,2.76,1.4,3.07,3.07,0,0,1,.43,3.71,2.41,2.41,0,0,1-.44.51l-.27-.44a2.15,2.15,0,0,1,1.95.26,2.4,2.4,0,0,1,1.05,1.47,3.54,3.54,0,0,1-.64,2.84,5.38,5.38,0,0,1-1.4,1.31c-.38.25-.6.35-.62.32s.17-.18.5-.47a6.59,6.59,0,0,0,1.23-1.36,3.26,3.26,0,0,0,.47-2.52,1.93,1.93,0,0,0-.86-1.17,1.68,1.68,0,0,0-1.49-.2l-1.34.54,1.08-1a2,2,0,0,0,.35-.4,2.45,2.45,0,0,0,.33-1.65,2.73,2.73,0,0,0-.69-1.45,4.61,4.61,0,0,0-2.47-1.36C292,56.3,290.88,56.45,290.88,56.34Z" style="fill:#455a64"></path><path d="M302.74,65c.06,0,.21.28.21.78a2.79,2.79,0,0,1-2.45,2.73c-.5,0-.8-.06-.79-.13a5,5,0,0,0,2.14-1.12A4.92,4.92,0,0,0,302.74,65Z" style="fill:#455a64"></path><path d="M267.75,60.74a2.26,2.26,0,0,1,.77-.63,5.35,5.35,0,0,1,6.32.84,3.12,3.12,0,0,1,1,2.26A1.9,1.9,0,0,1,273.88,65a1.44,1.44,0,0,1-1.17-.89,2,2,0,0,1-.09-1.37A2.62,2.62,0,0,1,274.39,61a3.34,3.34,0,0,1,2.21,0,4.77,4.77,0,0,1,1.62,1,8.09,8.09,0,0,1,1.62,2.16,3.17,3.17,0,0,1,.39.9,5.34,5.34,0,0,1-.57-.8,8.85,8.85,0,0,0-1.68-2,3.6,3.6,0,0,0-3.43-.85,2.19,2.19,0,0,0-1.44,1.4c-.19.66.12,1.56.82,1.61a1.4,1.4,0,0,0,1.37-1.3,2.66,2.66,0,0,0-.81-1.89,5,5,0,0,0-3.37-1.47,5.47,5.47,0,0,0-2.51.48A8.42,8.42,0,0,1,267.75,60.74Z" style="fill:#455a64"></path><path d="M296.8,79.88c.14-.06,5.63-1.66,5.45,3.94s-5.76,4.26-5.77,4.1S296.8,79.88,296.8,79.88Z" style="fill:#ffbe9d"></path><path d="M298.26,85.86s.1.07.26.15a1,1,0,0,0,.73,0,2.42,2.42,0,0,0,1.18-2.13,3.38,3.38,0,0,0-.22-1.41,1.15,1.15,0,0,0-.71-.77.49.49,0,0,0-.59.25c-.08.15-.05.26-.08.27s-.11-.09-.06-.32a.65.65,0,0,1,.23-.35.75.75,0,0,1,.54-.12,1.38,1.38,0,0,1,1,.9,3.34,3.34,0,0,1,.28,1.57,2.52,2.52,0,0,1-1.5,2.37,1.06,1.06,0,0,1-.88-.17C298.27,86,298.24,85.87,298.26,85.86Z" style="fill:#eb996e"></path><path d="M262.07,352.08l3.64,16.76s-15.81,9.32-15.44,12.48L283,375.44l-4.6-26.34Z" style="fill:#263238"></path><path d="M283,375.44l-.57-2.64-31.18,6.63s-1.34.9-1,1.89Z" style="fill:#455a64"></path><path d="M299.31,353.92l.54,17.14s-17.24,6.31-17.45,9.48l33.27.15.25-26.74Z" style="fill:#263238"></path><g style="opacity:0.6000000000000001"><path d="M315.67,380.69l-.08-2.7-31.87.87s-1.48.64-1.32,1.68Z" style="fill:#455a64"></path></g><path d="M260.27,366.45s-17-83.65-17.06-85.33L273.67,265l11.8,98.17Z" style="fill:#263238"></path><path d="M298.64,369.26l-23.56-145V193l32.18,3c.41,1.22,10.94,173.47,10.94,173.47l-3.32-.19H298.64" style="fill:#263238"></path><polygon points="256.56 190.78 243.21 281.12 273.06 273.88 285.23 193.72 256.56 190.78" style="fill:#263238"></polygon><path d="M284.18,198.44s0,.15,0,.44l.14,1.3c.13,1.15.32,2.83.57,5,.51,4.32,1.28,10.57,2.28,18.29,2,15.43,5,36.71,8.26,60.23,1.62,11.77,3.11,23,4.38,33.19.33,2.55.59,5.05,1,7.46s.73,4.75,1.07,7c.69,4.52,1.33,8.74,1.91,12.58,1.16,7.7,2.07,13.93,2.67,18.24.3,2.15.52,3.82.65,5,.07.57.11,1,.13,1.3a1.79,1.79,0,0,1,0,.33c0,.09-.05,0-.05,0v0s.07,0,.06,0a1.57,1.57,0,0,0,0-.34c0-.29,0-.73-.09-1.3-.1-1.14-.3-2.82-.57-5-.55-4.31-1.42-10.55-2.54-18.25-.57-3.85-1.19-8.07-1.86-12.59q-.51-3.39-1.06-7c-.35-2.41-.6-4.91-.93-7.46-1.24-10.21-2.72-21.43-4.34-33.19-3.25-23.52-6.32-44.8-8.38-60.22-1-7.7-1.84-13.94-2.41-18.27l-.65-5c-.07-.56-.13-1-.17-1.29S284.18,198.44,284.18,198.44Z" style="fill:#455a64"></path><path d="M266.22,365.68s0-.15-.05-.43L266,364c-.19-1.11-.46-2.73-.82-4.81-.73-4.19-1.79-10.23-3.1-17.68l-10.38-58.32a13.42,13.42,0,0,1-.25-4.23c.18-1.4.41-2.81.62-4.2q.65-4.17,1.27-8.22c.85-5.39,1.68-10.58,2.51-15.52,1.64-9.89,3.23-18.77,4.65-26.22s2.66-13.45,3.61-17.58c.45-2.07.86-3.67,1.11-4.75.12-.53.21-1,.28-1.24s.09-.42.09-.42-.05.13-.13.41-.18.7-.32,1.23c-.28,1.08-.71,2.67-1.18,4.73-1,4.13-2.29,10.13-3.75,17.57s-3.07,16.32-4.73,26.2c-.84,4.95-1.68,10.14-2.54,15.53-.42,2.69-.84,5.44-1.28,8.22-.2,1.4-.43,2.78-.62,4.22a14.16,14.16,0,0,0,.26,4.35c4.1,22.75,7.81,43.36,10.5,58.29,1.36,7.44,2.46,13.47,3.22,17.66l.9,4.8c.11.53.19.95.25,1.24S266.22,365.68,266.22,365.68Z" style="fill:#455a64"></path><path d="M275.08,223.24c-.11,0,1.28,9.39,3.11,20.92S281.59,265,281.7,265s-1.28-9.39-3.11-20.92S275.19,223.22,275.08,223.24Z" style="fill:#455a64"></path><path d="M298.35,369a3.77,3.77,0,0,0,.77.13c.5.06,1.23.13,2.12.2,1.79.14,4.27.27,7,.32s5.22,0,7-.09c.9,0,1.63-.08,2.13-.13a2.57,2.57,0,0,0,.77-.11,21.89,21.89,0,0,0-2.9-.05c-1.8,0-4.27,0-7,0s-5.21-.14-7-.2A21.15,21.15,0,0,0,298.35,369Z" style="fill:#455a64"></path><path d="M260.27,366.45a4.45,4.45,0,0,0,1-.05l2.71-.28c2.29-.27,5.44-.65,8.92-1.11s6.62-.88,8.89-1.21l2.7-.41a4.53,4.53,0,0,0,1-.2,4.74,4.74,0,0,0-1,0l-2.71.28c-2.29.26-5.44.65-8.92,1.1s-6.62.88-8.9,1.22l-2.69.41A4.85,4.85,0,0,0,260.27,366.45Z" style="fill:#455a64"></path><path d="M109,50.42s13.22-5.16,22.25-2.58S143,56,149.77,55.55c5.38-.38,9.19-2.71,11.13-8.43s1.94-12.86,20.31-12.18c14.06.52,15.48,2.58,15.48,2.58l1.51,37.41c-8-1.26-16.1-2.17-24.83-.94a10.48,10.48,0,0,0-8.19,9c-1,8-9.23,11.1-14.15,11.1-7,0-10.6-4.76-16.57-6.14C125.09,85.78,109,92.34,109,92.34Z" style="fill:#4550E6"></path><polygon points="203.92 128.63 195.84 128.06 196.05 140.74 204.72 147.07 205.6 146.75 206.1 132.33 203.92 128.63" style="fill:#eb996e"></polygon><path d="M159.51,79.25c-.14,0-.38-6.2-.53-13.85s-.15-13.86,0-13.86.38,6.19.53,13.85S159.65,79.24,159.51,79.25Z" style="fill:#263238"></path><path d="M144.71,63c.15,0,.26,6.41.26,14.3s-.11,14.31-.26,14.31-.26-6.41-.26-14.31S144.57,63,144.71,63Z" style="fill:#263238"></path><g style="opacity:0.2"><path d="M144.71,85.3c-.1,2.87,0,6.68,0,6.68,2.1,1.4,6.43,2.25,8.84,1.5l.07,0a9.74,9.74,0,0,0,6.5-7,11,11,0,0,0,.38-3.33c-.8-9.51-1.83-21.36-1.53-30.9a15.9,15.9,0,0,1-14.62,3.15Z"></path></g><g style="opacity:0.6000000000000001"><path d="M143.39,56.72a7.14,7.14,0,0,1-1.23-.7l-3.27-2a35.43,35.43,0,0,0-11.55-4.88,26.06,26.06,0,0,0-12.43.74,51.58,51.58,0,0,0-4.85,2,8,8,0,0,1,1.2-.76,23.22,23.22,0,0,1,3.54-1.56,25.06,25.06,0,0,1,12.64-.9,33.48,33.48,0,0,1,11.65,5.07c1.37.88,2.44,1.64,3.18,2.17A7.26,7.26,0,0,1,143.39,56.72Z" style="fill:#fff"></path></g><g style="opacity:0.6000000000000001"><path d="M175.88,37.62c0,.09-1,0-2.56.16a12.44,12.44,0,0,0-9.63,6.7c-.72,1.4-.94,2.37-1,2.34a6.29,6.29,0,0,1,.7-2.5,11.76,11.76,0,0,1,9.93-6.91A6.35,6.35,0,0,1,175.88,37.62Z" style="fill:#fff"></path></g><polygon points="197.4 33.68 208.07 330.12 206.23 330.56 195.27 33.82 197.4 33.68" style="fill:#263238"></polygon><path d="M217.13,145.41l-4-14.39-14.22-10s-1.66,1,.88,4.75l3.19,4.4s-.1,5.73,2.63,9.09l-.88,7.76Z" style="fill:#ffbe9d"></path><path d="M195.81,130.68a15.47,15.47,0,0,1,4,3.76,2.8,2.8,0,0,1,.3,1.36,1.07,1.07,0,0,1-.56,1,1,1,0,0,1-.92-.09,3.13,3.13,0,0,1-.74-.62l-2.74-2.83a3.16,3.16,0,0,1-.95-1.56,1.09,1.09,0,0,1,1.57-1" style="fill:#ffbe9d"></path><path d="M195.79,134.35a15.81,15.81,0,0,1,4,3.76,2.85,2.85,0,0,1,.3,1.36,1.07,1.07,0,0,1-.56,1,1.1,1.1,0,0,1-.93-.09,3.08,3.08,0,0,1-.73-.62L195.16,137a3.21,3.21,0,0,1-.94-1.56,1.1,1.1,0,0,1,1.57-1" style="fill:#ffbe9d"></path><path d="M196.38,138.35a15.47,15.47,0,0,1,4,3.76,2.69,2.69,0,0,1,.3,1.36,1.08,1.08,0,0,1-.55,1,1.06,1.06,0,0,1-.93-.09,3.34,3.34,0,0,1-.74-.62l-2.74-2.83a3.31,3.31,0,0,1-.95-1.56,1.09,1.09,0,0,1,1.57-1" style="fill:#ffbe9d"></path><path d="M196.46,128.15a5.21,5.21,0,0,1,1.66,1.19,1.9,1.9,0,0,1,.34,2,.84.84,0,0,1-.64.49,1,1,0,0,1-.56-.14,5.32,5.32,0,0,1-1.09-.67,8.17,8.17,0,0,1-.91-1,1,1,0,0,1-.26-1.28c.21-.48.42-.76,1.46-.64" style="fill:#ffbe9d"></path><polygon points="216.3 138.22 237.89 157.61 230.87 173.09 206.1 146.66 216.3 138.22" style="fill:#ffbe9d"></polygon><path d="M215.44,137.38,234.65,152s17.87-30.48,19.45-32.37,5.59-3.92,5.59-3.92l-2.22,39.07s-9.66,24.67-22.93,23.33c-10.16-1-27.71-27.82-27.71-27.82Z" style="fill:#4550E6"></path><g style="opacity:0.2"><path d="M234.29,151.52a16.87,16.87,0,0,0-1.94,14,2.06,2.06,0,0,0,.78,1.24,1.51,1.51,0,0,0,1.92-.64,4.52,4.52,0,0,0,.5-2.16,5,5,0,0,0,1.41,1.86,1.73,1.73,0,0,0,2.17-.08c.64-.7.28-1.81-.1-2.68q-2.46-5.56-4.91-11.12"></path></g><path d="M220.27,141.75a70.76,70.76,0,0,1-4.4,7.37,71.88,71.88,0,0,1-4.83,7.09,68.68,68.68,0,0,1,4.4-7.37A71.31,71.31,0,0,1,220.27,141.75Z" style="fill:#263238"></path><path d="M215.38,141.22c0-.05.2-.3.64-.14a.83.83,0,0,1,.51.6.88.88,0,0,1-1.46.77.83.83,0,0,1-.2-.76c.11-.46.46-.52.47-.45s-.12.21-.1.49.24.56.58.38a.39.39,0,0,0,0-.7C215.63,141.24,215.42,141.28,215.38,141.22Z" style="fill:#263238"></path><path d="M234.67,161.24a13.74,13.74,0,0,1-.14-9.24c.15,0-.26,2.08-.21,4.63S234.82,161.2,234.67,161.24Z" style="fill:#263238"></path><path d="M238.39,161.11a22.49,22.49,0,0,1-3.91-9.07,48.49,48.49,0,0,1,1.93,4.55C237.48,159.08,238.52,161,238.39,161.11Z" style="fill:#263238"></path><path d="M299.88,112,297,106.23H276l-3.3,6.52-13,2.94-5.59,83.68a5.82,5.82,0,0,0,.74,3h0l51,2,2.07.85c1.83-1.13.69-5.79.71-8l.66-41.44,10.09-33.12Z" style="fill:#4550E6"></path><g style="opacity:0.2"><path d="M278.11,114.87l3.71-3.71L286,121.22a105.19,105.19,0,0,0,13.66-9.56l-14.13,4.53q-1.8-4.74-3.58-9.5a36.59,36.59,0,0,1-3.56,8.23"></path></g><path d="M337.31,216.9l-13.75.71,0-39.46-14.22-22.36,10.09-33.12c2.08.82,17.75,40.16,21.74,50.85a11.83,11.83,0,0,1,.74,4.82Z" style="fill:#4550E6"></path><path d="M259.69,133c.15,0-.54,8.11-1.52,18.07s-1.9,18-2,18,.54-8.11,1.52-18.08S259.55,132.94,259.69,133Z" style="fill:#263238"></path><path d="M281.93,106.71a50.34,50.34,0,0,1-2.5,6.73l-.28.68a1.71,1.71,0,0,1-.46.69.81.81,0,0,1-.91.06c-.24-.12-.41-.25-.59-.36l-1.89-1.28a8.47,8.47,0,0,1-1.66-1.29,9,9,0,0,1,1.86,1l1.95,1.18c.37.24.75.51.92.31a4,4,0,0,0,.58-1.17A48.59,48.59,0,0,1,281.93,106.71Z" style="fill:#263238"></path><path d="M298.63,111.84a21.76,21.76,0,0,1-3.21,1.29c-2,.74-4.78,1.72-7.86,2.77l-1.68.57-.23.08-.09-.22c-1.08-2.62-2-4.94-2.67-6.62a16.8,16.8,0,0,1-.95-2.72,18.84,18.84,0,0,1,1.27,2.59c.73,1.64,1.72,3.94,2.83,6.55l-.33-.14,1.68-.58c3.08-1,5.88-2,7.91-2.63A23.34,23.34,0,0,1,298.63,111.84Z" style="fill:#263238"></path><path d="M317.24,123.86c0,.15-2.91,1-6.34,2.48s-6,3.18-6.1,3a6.62,6.62,0,0,1,1.6-1.22,33,33,0,0,1,8.86-3.94A6.5,6.5,0,0,1,317.24,123.86Z" style="fill:#263238"></path><path d="M281.93,106.71a.87.87,0,0,1,0,.25c0,.2,0,.44,0,.74,0,.65.06,1.6.07,2.83,0,2.45,0,6-.16,10.39-.31,8.78-1.41,20.88-3.16,34.15-.85,6.65-1.79,13-2.42,18.72a122.1,122.1,0,0,0-.84,15.36,77.36,77.36,0,0,0,.82,10.33c.15,1.22.34,2.15.44,2.79,0,.29.08.53.11.73a.93.93,0,0,1,0,.25,1,1,0,0,1-.07-.24c-.05-.2-.1-.43-.17-.72-.12-.63-.35-1.56-.53-2.78a70.17,70.17,0,0,1-1-10.36,115.5,115.5,0,0,1,.72-15.41c.61-5.78,1.53-12.09,2.38-18.73,1.75-13.27,2.9-25.34,3.31-34.1.22-4.38.29-7.93.33-10.38,0-1.2,0-2.14,0-2.83,0-.3,0-.54,0-.73A.9.9,0,0,1,281.93,106.71Z" style="fill:#263238"></path><path d="M338.06,210.86a51.65,51.65,0,0,1-7.29-.1,51.06,51.06,0,0,1-7.26-.61,50.52,50.52,0,0,1,7.28.09A52.34,52.34,0,0,1,338.06,210.86Z" style="fill:#263238"></path><path d="M325.86,212.4s0,.19,0,.37.22.29.4.14.12-.3-.05-.42-.31-.07-.36-.12.09-.29.47-.23a.65.65,0,0,1,.5.39.72.72,0,0,1-1.05.85.7.7,0,0,1-.28-.58C325.56,212.42,325.83,212.33,325.86,212.4Z" style="fill:#263238"></path><g style="opacity:0.2"><path d="M309.51,155.68q-2.25-4.05-4.48-8.1a111.35,111.35,0,0,0,3,42.69q.7-17.21,1.39-34.41"></path></g><g style="opacity:0.2"><path d="M246.92,131.24a10.71,10.71,0,0,0,12.41,3.92,3.66,3.66,0,0,0,3,1.66,8.59,8.59,0,0,0,3.45-.67,26.91,26.91,0,0,0,16.73-19.47c-6.47,2.27-10.83,8.54-17.18,11.14a16.2,16.2,0,0,1-15.41-1.59Z"></path></g><path d="M286.75,140.81a3.92,3.92,0,0,1,.81-.06l2.39-.06c2.08,0,5.07-.09,8.68-.11h.24v.24c-.24,3.16-.5,6.82-.79,10.72v.14l-.13.07-.53.28-5.81,3.06-.15.07-.13-.1-5.39-4.41-.08-.07v-.11c.26-2.9.47-5.31.62-7.1.08-.77.14-1.41.2-1.92a2.91,2.91,0,0,1,.09-.64,4.66,4.66,0,0,1,0,.73c0,.52-.06,1.18-.09,2-.1,1.76-.23,4.14-.39,7l-.08-.18,5.44,4.35-.27,0,5.79-3.07.54-.28-.14.21.85-10.71.23.24c-3.51,0-6.45-.07-8.54-.11l-2.44-.06A7,7,0,0,1,286.75,140.81Z" style="fill:#263238"></path><path d="M298.31,145.61a68.11,68.11,0,0,1-11.89-.22,33.57,33.57,0,0,1,5.95-.15A34.39,34.39,0,0,1,298.31,145.61Z" style="fill:#fafafa"></path><path d="M298.22,147.67a33.57,33.57,0,0,1-6,.15,33.52,33.52,0,0,1-5.95-.37,34.91,34.91,0,0,1,6-.15A34.62,34.62,0,0,1,298.22,147.67Z" style="fill:#fafafa"></path><path d="M261.52,202.82c0,.14-1.07,0-1.76-1.09s-.48-2.09-.34-2,.18.9.77,1.75S261.57,202.68,261.52,202.82Z" style="fill:#263238"></path><path d="M262.85,202.26a3.62,3.62,0,0,1-1.44-2.36,3.58,3.58,0,0,1,.15-2.77c.15,0,0,1.23.36,2.64S263,202.17,262.85,202.26Z" style="fill:#263238"></path><path d="M301.36,196.51a8.54,8.54,0,0,1-3.53,7.51,28.67,28.67,0,0,0,2.27-3.52A28.53,28.53,0,0,0,301.36,196.51Z" style="fill:#263238"></path><polygon points="280.39 110.98 283.15 110.98 284.33 113.03 283.17 116.23 280.42 115.92 279.34 113.61 280.39 110.98" style="fill:#455a64"></polygon><path d="M280.42,115.92s-16.6,10.69-25.08,6.42-19-9.5-28.47-8.25a45.24,45.24,0,0,0-15.83,5l-3,7.21,7.67,2.76s11.18-5.4,19.31-3.95c5.68,1,16.59,6.8,23.94,6.25s17.5-5.78,24.18-15.17Z" style="fill:#455a64"></path><path d="M282.43,117.11a3.46,3.46,0,0,1-1.08-.49,3.65,3.65,0,0,1-1-.68,3.36,3.36,0,0,1,1.09.5A3.41,3.41,0,0,1,282.43,117.11Z" style="fill:#263238"></path><path d="M284.07,112.67a14.52,14.52,0,0,1-1.84,1.67,14.77,14.77,0,0,1-2,1.51,14.52,14.52,0,0,1,1.84-1.67A14.77,14.77,0,0,1,284.07,112.67Z" style="fill:#263238"></path><path d="M282.9,113.72a7.92,7.92,0,0,1-2.63-2.77c.05,0,.57.64,1.29,1.4S282.93,113.67,282.9,113.72Z" style="fill:#263238"></path><path d="M269.19,128.18a3.79,3.79,0,0,1-.37-.86c-.21-.54-.48-1.29-.76-2.12s-.53-1.59-.7-2.14a5.54,5.54,0,0,1-.23-.91,4.08,4.08,0,0,1,.37.86c.21.54.48,1.29.76,2.12s.53,1.59.69,2.14A5.1,5.1,0,0,1,269.19,128.18Z" style="fill:#fafafa"></path><path d="M273.34,125.69a17.57,17.57,0,0,1-1.52-2.29,19,19,0,0,1-1.34-2.4,35.81,35.81,0,0,1,2.86,4.69Z" style="fill:#fafafa"></path><path d="M277.1,122.77a11.72,11.72,0,0,1-1.7-1.53,11.84,11.84,0,0,1-1.54-1.69,26.4,26.4,0,0,1,3.24,3.22Z" style="fill:#fafafa"></path><path d="M280.21,119.71a6.69,6.69,0,0,1-1.28-.94,6.52,6.52,0,0,1-1.15-1.1,5.53,5.53,0,0,1,1.28.94A5.47,5.47,0,0,1,280.21,119.71Z" style="fill:#fafafa"></path><path d="M263.28,130.75a32.92,32.92,0,0,1-.29-3.62,30.29,30.29,0,0,1-.09-3.63,31.39,31.39,0,0,1,.3,3.62A31.46,31.46,0,0,1,263.28,130.75Z" style="fill:#fafafa"></path><path d="M257.59,131.64s.15-1.86.46-4.14.61-4.13.66-4.12a39.14,39.14,0,0,1-.45,4.14A39.3,39.3,0,0,1,257.59,131.64Z" style="fill:#fafafa"></path><path d="M254.23,121.69c.05,0-.48,2-1.2,4.46s-1.33,4.41-1.39,4.4.48-2,1.19-4.46S254.17,121.68,254.23,121.69Z" style="fill:#fafafa"></path><path d="M250.36,119.87c.06,0-.58,2.07-1.41,4.57s-1.56,4.53-1.62,4.51.58-2.06,1.42-4.57S250.31,119.85,250.36,119.87Z" style="fill:#fafafa"></path><path d="M244.77,117.25s-.51,2.24-1.25,5-1.39,4.92-1.44,4.91.5-2.24,1.24-5S244.71,117.24,244.77,117.25Z" style="fill:#fafafa"></path><path d="M238.78,115.62c.06,0-.38,2.21-1,4.91s-1.12,4.88-1.18,4.86.38-2.21,1-4.9S238.73,115.61,238.78,115.62Z" style="fill:#fafafa"></path><path d="M232.74,114.58c.06,0,.13,2.33.15,5.21s0,5.23-.06,5.23-.12-2.34-.14-5.22S232.69,114.58,232.74,114.58Z" style="fill:#fafafa"></path><path d="M227.89,125.22a3,3,0,0,1-.12-.42c-.08-.39-.16-.78-.25-1.18-.2-1-.44-2.37-.66-3.9s-.39-2.92-.48-3.93c0-.4-.07-.79-.1-1.19a1.26,1.26,0,0,1,0-.44,2.26,2.26,0,0,1,.08.43c0,.39.11.79.16,1.19.18,1.25.35,2.52.54,3.91s.41,2.66.61,3.91l.18,1.18A1.46,1.46,0,0,1,227.89,125.22Z" style="fill:#fafafa"></path><path d="M222.52,126.33c-.05,0-.87-2.31-1.83-5.18s-1.68-5.23-1.63-5.25.88,2.3,1.83,5.18S222.58,126.31,222.52,126.33Z" style="fill:#fafafa"></path><path d="M217.65,128.05c-.05,0-1.12-2.12-2.39-4.8s-2.26-4.86-2.21-4.89,1.13,2.13,2.4,4.8S217.7,128,217.65,128.05Z" style="fill:#fafafa"></path><path d="M211.33,127.49a6.84,6.84,0,0,1-1.18-1.86,6.22,6.22,0,0,1-.71-2.08c.06,0,.37.91.89,2S211.38,127.45,211.33,127.49Z" style="fill:#fafafa"></path></g></svg>