<svg xmlns="http://www.w3.org/2000/svg" viewBox="0 0 500 500" xmlns:v="https://vecta.io/nano"><style><![CDATA[.B{fill:#e0e0e0}.C{fill:#263238}.D{fill:#ffbe9d}.E{fill:#eb996e}.F{fill:#ebebeb}.G{fill:#4550e6}]]></style><path d="M99.24 400.06c13.84-11.33 15.63-30.37 13.67-47.2-.33-2.8-.26-5.8-1.82-8.16s-4.86-3.8-7.32-2.4c-2 1.16-2.76 3.67-3.78 5.78a16.77 16.77 0 0 1-6.18 6.9c-1.74 1.08-3.94 1.83-5.82 1-2.57-1.14-3.13-4.47-3.34-7.27q-.6-7.83-1.18-15.67a26.15 26.15 0 0 0-1.54-8.25c-1.1-2.58-3.25-4.9-6-5.4s-6 1.28-6.32 4.07a25.77 25.77 0 0 0 .2 3.5 3 3 0 0 1-1.52 2.91c-1.1.42-2.3-.28-3.22-1-3.16-2.58-5.45-6.06-7.6-9.53s-4.26-7-7.17-9.9-6.8-5-10.87-4.9-8.2 2.95-8.9 7 1.95 7.85 4.75 10.83a63.17 63.17 0 0 0 14.2 11.22 5.19 5.19 0 0 1 2.39 2.16c.77 1.82-.87 3.82-2.68 4.6-2.06.87-4.38.84-6.57 1.28s-4.5 1.6-5.18 3.73c-.92 3 1.75 5.76 4.3 7.53a54.9 54.9 0 0 0 16.81 7.83c2.15.58 4.4 1.06 6.2 2.37s3 3.74 2.17 5.8-3.4 2.9-5.63 2.68-4.27-1.23-6.42-1.83c-4-1.13-9-.45-11.26 3.08a8.79 8.79 0 0 0-.31 7.92 20.51 20.51 0 0 0 4.86 6.56 54.67 54.67 0 0 0 24.62 14.24c9.3 2.35 17.75 2.5 26.48-1.48" class="F"/><g class="B"><path d="M100.45 412.55a121.92 121.92 0 0 0-6.53-22.69 248 248 0 0 0-12.31-26.18L78 357l-3.63-6.44a125.32 125.32 0 0 0-8-11.41c-2.73-3.5-5.46-6.75-8-9.75s-5-5.75-7.37-8.17a101.64 101.64 0 0 0-11.91-10.56c-1.5-1.14-2.7-2-3.5-2.54l-.93-.64a3.47 3.47 0 0 0-.33-.2s.1.1.3.24l.9.67c.8.58 2 1.44 3.46 2.6a105.61 105.61 0 0 1 11.79 10.64c2.33 2.42 4.77 5.18 7.33 8.2s5.26 6.25 8 9.76a125.57 125.57 0 0 1 8 11.39c1.27 2.05 2.43 4.22 3.6 6.42l3.58 6.7A257.71 257.71 0 0 1 93.56 390a124.49 124.49 0 0 1 6.6 22.6"/><path d="M74.3 350.5a6.17 6.17 0 0 0 .16-1.22l.24-3.34c.17-2.82.27-6.72.37-11s.26-8.2.5-11c.1-1.4.2-2.54.3-3.33a7.87 7.87 0 0 0 .08-1.22 6.07 6.07 0 0 0-.25 1.2c-.13.78-.28 1.92-.42 3.32-.3 2.82-.52 6.72-.62 11l-.23 11-.1 3.34a6.47 6.47 0 0 0 0 1.25z"/><path d="M37.26 346.8h1.47l4 .05c3.37.07 8 .33 13.15.86s9.73 1.2 13.05 1.8l5 .93c.25 0 .38.06.38 0a1.15 1.15 0 0 0-.36-.12l-1.05-.3a71.54 71.54 0 0 0-3.91-.86c-3.3-.67-7.93-1.4-13.06-1.94s-9.8-.74-13.2-.73c-1.7 0-3 0-4 .1l-1.08.07a1.31 1.31 0 0 0-.39.13zm56.2 42.42a3.32 3.32 0 0 0 .2-.47l.5-1.35 1.74-5c1.4-4.27 3.18-10.23 5.06-16.84l4.93-16.86 2.03-6.46a2.28 2.28 0 0 0 .13-.49 2 2 0 0 0-.21.46l-.5 1.36c-.44 1.18-1 2.9-1.73 5-1.42 4.27-3.2 10.23-5.06 16.84l-4.94 16.86-2.04 6.47a2.58 2.58 0 0 0-.12.49z"/><path d="M43.72 377.8a1.71 1.71 0 0 0 .49.15l1.45.34L51 379.5c4.5 1 10.7 2.53 17.55 4.2l17.58 4.1 5.36 1.08 1.46.26a2.89 2.89 0 0 0 .52.07 1.89 1.89 0 0 0-.5-.15l-1.45-.34-5.33-1.22c-4.5-1-10.7-2.53-17.54-4.2l-17.58-4.1-5.36-1.08-1.47-.27a3.19 3.19 0 0 0-.52-.06z"/></g><path d="M158.31 136.06l72.3-21.746 14.658 48.733-72.3 21.746z" fill="#fff"/><g class="B"><path d="M245.28 163l-.3-.9-.8-2.58-3-9.8-10.77-35.4.26.14-72.28 21.83.18-.33 14.64 48.74-.3-.16 67-19.96 4-1.17 1-.3.36-.1-.32.1-1 .32-18.74 5.73-52.4 15.88-.07-.23L158 135.86l.24-.07 72.5-21.76.06.2 10.6 35.6 3.87 13.18z"/><path d="M230.62 114.3a1.31 1.31 0 0 1-.1.22l-.34.62-1.34 2.36-5.05 8.67-17.06 28.92-.2-.08-2.2-.85-32.57-12.7-9.85-3.9-2.66-1.1-.7-.3a.82.82 0 0 1-.23-.12.7.7 0 0 1 .25.07l.7.24 2.7 1 9.9 3.75 34.84 13.42-.32.1 17.08-28.66 5.2-8.58 1.42-2.32.4-.6c.08-.13.13-.2.14-.2z"/></g><path d="M441 309s-4.7-4.64-13.83 6.95A172.23 172.23 0 0 0 414 334.44s-2.28 2.36-3.78.22-3.05-7.66-6.4-7.38-5.26 3.72-5.7 9.2-1.86 17.5-2 18.58-1 2.5-2.3 1.2-7.78-12.27-12.83-8.9-3.77 18.92-3.66 20.6-.35 2.33-1.2 2.57-2.7-3.66-4.68-6.7-4.82-6.26-7.56-4.05-5.65 13.08 1.27 33.05l3.8 9 9.75 1.4c21.07 1.7 30.87-3.84 32.32-7.05s-2.35-5.15-5.8-6.3-7.7-2-7.67-2.85.52-1.47 2.2-1.8 17-3 19-8.7-10.25-9.3-11.82-10.2-.4-2.13.6-2.52l17.5-6.58c5.2-1.8 8.08-4.42 7.5-7.84s-6.3-3.4-8.75-4.34-.73-3.7-.73-3.7A171.54 171.54 0 0 0 437.71 324c8.93-11.76 3.1-15.2 3.1-15.2" class="F"/><g class="B"><path d="M432.76 319.32a1.48 1.48 0 0 1-.16.25l-.5.72-2 2.7-7.48 9.9-25.1 32.3-25.22 32.2-7.6 9.8-2.08 2.65-.55.68-.2.22a1.48 1.48 0 0 1 .16-.25l.5-.7 2-2.72 7.47-9.9 25.1-32.3 35.45-45.33c.12-.15.2-.23.2-.22z"/><path d="M405.7 335.1a12.25 12.25 0 0 1 .37 2.62l.37 6.36.18 6.36a15.8 15.8 0 0 1 0 2.64 11.94 11.94 0 0 1-.36-2.62l-.33-6.36-.22-6.36a15.24 15.24 0 0 1-.01-2.64zm1.75 18.32a101.64 101.64 0 0 1 10.33-1.13c5.7-.47 10.36-.74 10.37-.6a103.08 103.08 0 0 1-10.33 1.12c-5.7.48-10.35.75-10.37.6zm-16.6 19.28a16.19 16.19 0 0 1 2.66.43l6.4 1.14 6.42.9a16.89 16.89 0 0 1 2.67.43 12.56 12.56 0 0 1-2.7-.06l-6.47-.77-6.4-1.3a12.61 12.61 0 0 1-2.58-.79zm-5.24-16.22a11.56 11.56 0 0 1 1 2.29l2 5.67 1.85 5.72a13.26 13.26 0 0 1 .62 2.41 10.83 10.83 0 0 1-1-2.3l-2-5.66-1.85-5.72a11.44 11.44 0 0 1-.62-2.41zm-16.82 15.16a20.84 20.84 0 0 1 1.22 2.95l2.6 7.25 2.46 7.3a19 19 0 0 1 .87 3.08 19.36 19.36 0 0 1-1.22-3l-2.6-7.24-2.46-7.3a18.78 18.78 0 0 1-.87-3.03z"/><path d="M375.93 391.67a23.75 23.75 0 0 1 3.39.44l8.15 1.2 8.17 1a25.75 25.75 0 0 1 3.39.45 20.38 20.38 0 0 1-3.42-.08l-8.2-.83-8.15-1.34a21 21 0 0 1-3.32-.84z"/></g><path d="M394.5 288.166l2.37-77.554 56.674 1.732-2.37 77.554z" fill="#f5f5f5"/><path d="M384.057 298.476l2.37-77.554 56.674 1.732-2.37 77.554z" fill="#fff"/><path d="M440.72 300.2a3.64 3.64 0 0 1 0-.38v-1.1l.1-4.24.42-15.93 1.6-55.9.23.24-56.67-1.7.27-.25-2.42 77.55-.2-.22 41.16 1.37 11.45.4 3 .12 1.05.05h-1l-3-.07-11.4-.3-41.5-1.15v-.2l2.32-77.82h.27l56.9 1.76v.24l-1.83 56.06-.54 15.87-.16 4.2-.05 1.07.02.35zM421 238.86c0 .15-6.17.07-13.77-.16s-13.77-.54-13.77-.68 6.18-.07 13.78.16 13.76.54 13.76.68zm14.64 7.2c0 .14-9.5 0-21.22-.4l-21.2-.9c.01-.14 9.5 0 21.23.4l21.2.9zm-.2 7.04c0 .14-9.5 0-21.23-.4l-21.2-.9c0-.14 9.5 0 21.23.4l21.2.9zm-.23 7.02c0 .14-9.5 0-21.22-.4l-21.2-.9c0-.14 9.5 0 21.23.4l21.2.9zm-.2 7.03c0 .14-9.5 0-21.22-.4l-21.22-.9c0-.14 9.5 0 21.23.4l21.2.9zm-.2 7.03c0 .14-9.5 0-21.23-.4l-21.2-.9c0-.14 9.5 0 21.23.4l21.2.9zm-.23 7.02c0 .14-9.5 0-21.22-.4l-21.2-.9c.01-.14 9.5 0 21.22.4l21.2.9zm-19.84 6.44c0 .14-5.1.1-11.4-.1s-11.4-.47-11.4-.6 5.1-.1 11.4.1 11.4.46 11.4.6z" class="B"/><path d="M255.12 194.506l17.733-44.54 55.707 22.18-17.733 44.54z" fill="#fff"/><path d="M328.55 172.15l-.27-.1-.78-.3-3-1.2L272.8 150l.12-.05-17.72 44.53-.06-.14 55.7 22.2h-.1l12.9-32.3 3.6-9 1-2.37.33-.82-.3.8-.93 2.36-3.56 9-12.85 32.38v.08h-.08l-55.88-22.07v-.1l17.74-44.62h.08l55.5 22.2z" class="B"/><path d="M258.117 192.513l15.5-38.928 51.796 20.622-15.5 38.928z" class="F"/><path d="M258.32 192.63l27.73-17 5.18 19.6 10.82-5.06 8.07 23.08-51.8-20.62zM303.2 179a4.39 4.39 0 1 1-2.45-5.7 4.38 4.38 0 0 1 2.45 5.7zm-173.75 61.86a2.61 2.61 0 0 0 1.19.19 2.12 2.12 0 0 0 1.28-.63 12.65 12.65 0 0 0 1.05-1.73l6.5-11.32 2.16-3.74 1.15-2a6.94 6.94 0 0 0 .52-1 1.82 1.82 0 0 0 0-1.06 1.75 1.75 0 0 0-.57-.91 9.66 9.66 0 0 0-1-.62l-2.23-1.24-4.64-2.6-20.66-11.6a1.87 1.87 0 0 0-2.43.6l-1.55 2.66-3 5.22-6.48 11.08a2 2 0 0 0-.33 1.14 1.82 1.82 0 0 0 .41 1.08 3.07 3.07 0 0 0 1 .69L114 232l11.32 6.47 3.07 1.78.8.47c.18.1.27.17.26.18l-.28-.13-.82-.43-3.1-1.7-11.4-6.32-7.82-4.43-4.38-2.45a3.57 3.57 0 0 1-1.13-.79 2.3 2.3 0 0 1-.51-1.36 2.39 2.39 0 0 1 .38-1.4l.68-1.17 5.73-9.9 3-5.22 1.57-2.7a2.39 2.39 0 0 1 3.11-.77l25.28 14.25 2.2 1.26a9.15 9.15 0 0 1 1.1.66 2.22 2.22 0 0 1 .71 1.14 2.39 2.39 0 0 1 0 1.3 7.39 7.39 0 0 1-.57 1.09l-3.35 5.73-6.63 11.24a13.31 13.31 0 0 1-1.12 1.73 2.23 2.23 0 0 1-1.38.63 2 2 0 0 1-.92-.15 1.35 1.35 0 0 1-.33-.17zm-5.28-20.5l2.52 4.47-10.4.2 5.36-9.14 2.52 4.48z" class="B"/><path d="M463.3 411c0 .15-95.65.27-213.6.27s-213.63-.1-213.63-.27 95.63-.28 213.63-.28l213.6.28z" class="C"/><g class="G"><path d="M141.8 347.5l-30.2-30.33 15.18-27.88c15.18-19.44 47.32-18.2 47.32-18.2a184.26 184.26 0 0 1 47.39 2.91c25.53 5 23.47 21.86 23.47 21.86l3.42 62.57 3.67 50.95-94.15 1.9-16.1-63.75"/><path d="M192.53 408.3l-84.33 1a27.41 27.41 0 0 1-25.11-39.1l36.06-66.87 32.85 22.2L129.6 372l68.26 1.22zM242 285.66l67.67 104.48-39.48 2.58-23.05-36.4c.94 1.4-5.14-70.67-5.14-70.67z"/></g><g class="C"><path d="M150.3 331.54a1.81 1.81 0 0 1 .09-.54l.36-1.52 1.24-5.57 1.33-8.36a43.77 43.77 0 0 0 0-10.31 27.08 27.08 0 0 0-3.49-9.61 38.89 38.89 0 0 0-5-6.77 47.61 47.61 0 0 0-4.1-4 19.45 19.45 0 0 1-1.58-1.38 2.68 2.68 0 0 1 .46.29l1.25.93a40.2 40.2 0 0 1 4.24 3.87 37.55 37.55 0 0 1 5.16 6.77 27 27 0 0 1 3.6 9.79 43.07 43.07 0 0 1-.08 10.43 83.71 83.71 0 0 1-1.44 8.38l-1.4 5.56-.45 1.5a3 3 0 0 1-.18.55zm-2.72 3.6a8.41 8.41 0 0 1-.58 1.51l-1.77 4a470.8 470.8 0 0 1-6.2 13.15l-6.6 13-2.1 3.87a10.45 10.45 0 0 1-.84 1.39 10 10 0 0 1 .66-1.48l2-3.95 6.47-13 6.34-13.08 1.92-4a9.45 9.45 0 0 1 .72-1.41z"/><path d="M192.53 408.3v-.7l.2-2 .83-7.5 3-26.3.24.26h-24.9l-43.5-.07-13.2-.08-3.6-.05h-1.26a1.34 1.34 0 0 1 .32 0h.94l3.6-.05 13.2-.08 43.58-.07h25.18v.26l-3.23 26.28-1 7.5q-.16 1.26-.27 2l-.08.5c-.01.03-.02.1-.03.1z"/><path d="M130.18 372.74a21.3 21.3 0 0 1-1.68-2.11 32.82 32.82 0 0 0-9.82-8.29 25.6 25.6 0 0 1-2.36-1.3 9.33 9.33 0 0 1 2.53 1 27.12 27.12 0 0 1 9.94 8.39 9.78 9.78 0 0 1 1.39 2.31zm119.62 6.62a4.81 4.81 0 0 1-.14-.87l-.28-2.5-.87-9.16c-.7-7.75-1.48-18.47-2.18-30.3l-1.47-30.35-.28-9.2c0-1.05 0-1.88-.05-2.5a8.3 8.3 0 0 1 0-.87 5 5 0 0 1 .09.87c0 .6.08 1.45.14 2.5l.45 9.2 1.62 30.34 2 30.3.9 11.67a4.87 4.87 0 0 1 .07.88z"/></g><path d="M174.52 322.5a9.73 9.73 0 0 1 .11-1.37l.46-3.78 1.74-13.06.38.24-6.47 4.53-6.58 4.58-.47.33.08-.57 2-13 .62-3.73a7.65 7.65 0 0 1 .28-1.33 7.64 7.64 0 0 1-.12 1.36l-.47 3.75-1.8 13-.38-.24 6.57-4.6 6.95-4.84-.08.57-1.92 13-.6 3.76a8 8 0 0 1-.3 1.4zm37.64 4.06a7.9 7.9 0 0 1-1-.95l-2.6-2.77-8.93-9.68.43-.15-.66 7.87-.73 8.58-.38-.43-8.7-9.8-2.48-2.86a6.7 6.7 0 0 1-.84-1.07 8.79 8.79 0 0 1 1 1l2.58 2.76 8.82 9.67-.43.15 1.34-15.87.05-.57.38.42 8.8 9.8 2.5 2.87a8.44 8.44 0 0 1 .84 1.02zm18.94-1.34a6.94 6.94 0 0 1-.68 1.2l-2 3.22-7.14 11.08-.24-.38 7.76-1.34 8.47-1.43-.27.43-7.3 10.86-2.2 3.14a8.66 8.66 0 0 1-.82 1.09 9.27 9.27 0 0 1 .68-1.18l2-3.2 7.15-11 .25.38-7.9 1.37-8.37 1.42.32-.47 7.3-11 2.14-3.15a11.13 11.13 0 0 1 .85-1.03zm-25.2 19.38a7.15 7.15 0 0 1-.68 1.19l-2 3.23-7.13 11.07-.25-.38 7.78-1.34 8.47-1.44-.33.47-7.3 10.87-2.15 3.12a7.2 7.2 0 0 1-.82 1.08 10.2 10.2 0 0 1 .68-1.18l2-3.2 7.15-11 .25.38-7.9 1.37-8.36 1.4.32-.48 7.3-11 2.15-3.15a9.14 9.14 0 0 1 .82-1.04zm54.44-19.6a9.7 9.7 0 0 1-.68 1.19l-2 3.23-7.13 11.07-.25-.38 7.78-1.34 8.47-1.44-.32.47-7.3 10.87-2.15 3.1a6.91 6.91 0 0 1-.82 1.09 9.63 9.63 0 0 1 .69-1.18l2-3.2 7.15-11 .25.38-7.9 1.36-7.8 1.32-.56.1.3-.48 7.3-11 2.15-3.15a6.76 6.76 0 0 1 .81-1.04zm31.4 50.34a8.17 8.17 0 0 1-1-.9L288 371.8l-9.4-9.22.42-.17-.25 7.9-.3 8v.58l-.4-.4-9.16-9.35-2.62-2.73a8.67 8.67 0 0 1-.9-1 8.67 8.67 0 0 1 1 .9l2.72 2.63 9.3 9.22-.43.17.26-8 .3-7.9v-.57l.4.4 9.27 9.36 2.65 2.74a8 8 0 0 1 .9.99zm-158.84-66.4a8.88 8.88 0 0 1-.68 1.19l-2 3.23-7.13 11.08-.25-.38 7.78-1.35 8.48-1.43-.32.48-7.3 10.86-2.14 3.12a8.16 8.16 0 0 1-.82 1.08 7.65 7.65 0 0 1 .68-1.17l2-3.2 7.15-11 .25.38-7.9 1.37-8.35 1.4.3-.47 7.3-11 2.15-3.15a8.41 8.41 0 0 1 .81-1.05zm-39.55 74.78a7.34 7.34 0 0 1 .92 1l2.44 2.93 8.3 10.23-.44.12 1.15-7.82 1.18-7.93.08-.57.36.46 8.06 10.32 2.3 3a8 8 0 0 1 .78 1.11 8.85 8.85 0 0 1-.91-1l-2.4-2.92-8.15-10.2.44-.1-1.16 7.93-1.25 8.38-.36-.45-8.16-10.34-2.33-3a10.41 10.41 0 0 1-.83-1.13zm90.3-48.42a8.63 8.63 0 0 1-1.36.18l-3.8.33-13.14 1 .16-.42 5.76 5.4 5.83 5.5.42.4h-.58l-13.07.72-3.78.16a7.87 7.87 0 0 1-1.36 0 9.37 9.37 0 0 1 1.35-.17l3.77-.3 13.06-.9-.15.42-5.85-5.48-6.16-5.82h.57l13.15-.8 3.8-.2a9.14 9.14 0 0 1 1.38-.04zm-22.15 50.4a11.1 11.1 0 0 1 .94 1l2.5 2.88 8.5 10.06-.44.12 1-7.83 1-7.95.08-.58.36.45L183.7 394l2.35 3a10 10 0 0 1 .8 1.1 8.2 8.2 0 0 1-.93-1l-2.46-2.87-8.4-10 .43-.13-1 7.95-1 7.84-.08.57-.36-.44-8.37-10.18-2.38-3a7.12 7.12 0 0 1-.82-1.14zm-39.62-36.96a8.13 8.13 0 0 1-1.36.18l-3.8.32-13.14 1 .15-.43 5.77 5.4 5.83 5.5.42.4h-.58l-13.07.72-3.78.16a7.87 7.87 0 0 1-1.33 0 7.84 7.84 0 0 1 1.35-.17l3.77-.3 13.06-.9-.15.43-5.85-5.48-5.75-5.42-.4-.4h.57l13.15-.8 3.8-.18a8.93 8.93 0 0 1 1.34-.03zm34.02 35.83a8.1 8.1 0 0 1-1.36.17l-3.8.33-13.14 1 .16-.43 5.76 5.4 5.83 5.5.42.4h-.57l-13.08.7-3.78.17a7.87 7.87 0 0 1-1.36 0 7.84 7.84 0 0 1 1.35-.17l3.77-.3 13.06-.9-.15.43-5.85-5.48-6.16-5.8h.57l13.15-.8 3.8-.18a7.57 7.57 0 0 1 1.37-.06zm76.82-91.17a8.63 8.63 0 0 1-1.36.18l-3.8.32-13.13 1 .15-.42 5.76 5.4 5.83 5.5.42.4h-.57l-13.08.72-3.78.16a7.87 7.87 0 0 1-1.36 0 7.84 7.84 0 0 1 1.35-.17l3.77-.3 13.07-.9-.16.42-5.83-5.47-6.16-5.82h.57l13.15-.8 3.8-.18a9 9 0 0 1 1.35-.04z" class="B"/><path d="M195.36 384.57l22.4-6.27c2.17-.55 11.46 4.35 17.88 8.43 0 0 8.84 5.24 8.13 6.85-.8 1.78-4 1.42-9.25-1 0 0 1.82 5.27-1.75 5.15 0 0 1.77 5.7-1.57 6.3s-4.12-6.68-7.06-7.07-9-.8-9-.8-5.07 8.4-9 9-13-.47-13-.47z" class="D"/><path d="M224.07 385.73a28.61 28.61 0 0 1 4.7 2.65 27.92 27.92 0 0 1 4.42 3.1 55 55 0 0 1-9.12-5.75zm-1 3.27a35.72 35.72 0 0 1 5.58 2.29A35.85 35.85 0 0 1 234 394a35 35 0 0 1-5.58-2.28 34.26 34.26 0 0 1-5.34-2.72zm1.8 7.8a28 28 0 0 1 7.52 1 28.18 28.18 0 0 1-7.52-1z" class="E"/><path d="M173.47 211a3.45 3.45 0 0 1-4.87 4.08c-2.28-1.15-2.57-4.3-2.12-6.8s1.3-5.2.25-7.53c-.8-1.78-2.56-2.9-3.92-4.3a11.06 11.06 0 0 1-3.07-9.36 9.29 9.29 0 0 1 6.38-7.3c3.35-.93 7.48.1 10-2.33 1.8-1.76 1.92-4.63 3.32-6.73 2.17-3.26 6.76-3.78 10.64-3.25s7.82 1.78 11.62.83c3.17-.8 5.77-3 8.75-4.36a17.13 17.13 0 0 1 22.3 23.52 11 11 0 0 1-5.31 5.25" class="C"/><path d="M192.77 293.6h0A19.27 19.27 0 0 0 212 274.07l-.25-18.38s15.44-1.55 16.46-16.85.3-50.6.3-50.6h0a53.32 53.32 0 0 0-53.82 3.77l-2.36 1.63 1.15 80.94a19.27 19.27 0 0 0 19.3 19.04z" class="D"/><g class="C"><path d="M224.46 216a2.29 2.29 0 0 1 0-4.55.77.77 0 0 1 .37 0 2.29 2.29 0 0 1 0 4.55 1.15 1.15 0 0 1-.37 0zm3-4.94c-.25.26-1.7-1-3.8-1.1s-3.7.88-3.9.6.15-.6.85-1.06a5.19 5.19 0 0 1 6.16.41c.63.56.83 1.1.7 1.16zm-24.4.52a2.23 2.23 0 1 1-3.1.56 2.23 2.23 0 0 1 3.1-.56z"/><path d="M204.46 211.67c-.26.26-1.7-1-3.8-1.1s-3.7.88-3.92.6c-.1-.13.16-.6.85-1.06a5.19 5.19 0 0 1 6.16.41c.63.56.83 1.05.7 1.16zm7.54 17.86c0-.16 1.3-.36 3.45-.54.55 0 1-.13 1.05-.42a3.12 3.12 0 0 0-.31-1.6l-1.44-4.38c-2-6.23-3.3-11.36-3-11.46s2.17 4.87 4.14 11.1l1.34 4.4a3.54 3.54 0 0 1 .18 2.31 1.43 1.43 0 0 1-1 .83 3.27 3.27 0 0 1-.95.07c-2.16-.04-3.46-.14-3.46-.3z"/></g><path d="M205 231.5a39.5 39.5 0 0 0 10.18 3.57 5.84 5.84 0 0 1-7 1.94c-4.5-1.93-3.18-5.5-3.18-5.5z" fill="#fff"/><path d="M211.8 255.47a35.69 35.69 0 0 1-19.66-6.76s4.12 11.27 19.47 10.73z" class="E"/><path d="M228.63 192.1s-9.25 4.7-21.5-1.12c-8-3.82-17.37-5.6-19.4-3.94s-2.3 9.85-10.13 12.4c0 0 .85 15.66-5.4 15.22s-2.82-24.77-2.82-24.77l15.13-7.76 16.6-3.47 15.75 1.9 12.22 3.1z" class="C"/><path d="M173.34 209.63c-.25-.13-10.35-3.7-10.58 6.8s10.34 8.56 10.36 8.26.22-15.06.22-15.06z" class="D"/><path d="M170 220.64s-.2.13-.5.26a1.82 1.82 0 0 1-1.37 0c-1.1-.43-2-2.2-2-4.1a6.22 6.22 0 0 1 .57-2.61 2.13 2.13 0 0 1 1.41-1.37 1 1 0 0 1 1.07.53c.13.3.06.5.1.52s.23-.17.16-.6a1.2 1.2 0 0 0-.4-.67 1.39 1.39 0 0 0-1-.29 2.57 2.57 0 0 0-1.95 1.58 6.35 6.35 0 0 0-.7 2.91c0 2.1 1.06 4.12 2.56 4.6a2 2 0 0 0 1.68-.24c.36-.25.36-.5.36-.5z" class="E"/><g class="C"><path d="M168 176.8a5.77 5.77 0 0 1 6.48 2.42 16.26 16.26 0 0 0-3-1.8 17 17 0 0 0-3.48-.62zm6.3-6.28c.2 0-.1 2.2.26 4.83a20.71 20.71 0 0 0 1.47 4.57s-.44-.37-.88-1.15a9.82 9.82 0 0 1-1.1-3.34 10.91 10.91 0 0 1 .25-4.91zM217.4 206c-.06-.12.4-.5 1.24-.83a9.46 9.46 0 0 1 7 .07c.84.36 1.3.73 1.23.85-.13.28-2.15-.5-4.74-.5s-4.6.73-4.73.42zm-23.4-2.18c-.06-.12.4-.48 1.24-.83a9.38 9.38 0 0 1 3.51-.63 9.14 9.14 0 0 1 3.51.7c.84.36 1.28.73 1.23.86s-2.15-.5-4.75-.52-4.6.7-4.74.42zm21.6 3.86a2.87 2.87 0 0 1 0 .62l.05 1.7.06 2.62a9.67 9.67 0 0 0 .5 3.4 8.86 8.86 0 0 0 6.34 5.77 8.38 8.38 0 0 0 2.56.22 8.23 8.23 0 0 0 2.61-.55 8.8 8.8 0 0 0 4.32-3.49 9 9 0 0 0 1.4-5.12v-5.16l.24.24-13-.12-3.77-.07h-1.37a10.07 10.07 0 0 1 1.29-.06l3.7-.07 13.47-.12v5.4a9.44 9.44 0 0 1-1.47 5.4 9.3 9.3 0 0 1-4.58 3.69 8.67 8.67 0 0 1-2.77.57 8.92 8.92 0 0 1-2.69-.25 9.17 9.17 0 0 1-6.58-6.12 9.93 9.93 0 0 1-.44-3.54l.05-2.7.05-1.67a3.76 3.76 0 0 1 .02-.6zm-24.52-.52v2.3l.05 2.63a10.23 10.23 0 0 0 .5 3.4 9.14 9.14 0 0 0 2.21 3.49 8.88 8.88 0 0 0 4.13 2.27 8.78 8.78 0 0 0 5.18-.33 8.8 8.8 0 0 0 4.31-3.48 9 9 0 0 0 1.41-5.12v-5.17l.24.24-13-.12-3.76-.06h-1.37a10 10 0 0 1 1.28-.06l3.7-.06 13.38-.12v5.4a9.5 9.5 0 0 1-1.48 5.4 9.31 9.31 0 0 1-4.57 3.68 8.72 8.72 0 0 1-2.77.57 9 9 0 0 1-2.7-.25 9.26 9.26 0 0 1-4.32-2.43 9.35 9.35 0 0 1-2.26-3.69 9.93 9.93 0 0 1-.44-3.54l.06-2.7c.06-.76 0-1.23 0-1.67a2 2 0 0 1 .21-.61z"/><path d="M215.8 208.4a23 23 0 0 1-6.9 0 22.18 22.18 0 0 1 6.9 0zm-43.8.14a90.51 90.51 0 0 1 9.56-.29 91.42 91.42 0 0 1 9.57.23 84.33 84.33 0 0 1-9.56.29 85.55 85.55 0 0 1-9.57-.23z"/></g><g class="D"><path d="M274.87 397.25a24.6 24.6 0 0 0 23.4 12.87h0a24.6 24.6 0 0 0 22.61-20.89l5.8-66.4-23.23-5.74-9.5 52s-4.96 21.8-19.1 28.15z"/><path d="M303.24 321.9l.77-11.65 3.3-28.7c0-2.94 1.4-3.66 2.5-3.58 1.7.1 2.9 2.2 3 4.73l-.08 14.7a31.82 31.82 0 0 1 2.67-3.73c2-2.6 6.84-4.07 11.77-3.9s6.28.64 6.3 2.55a2.45 2.45 0 0 1-1 1.86 4.84 4.84 0 0 1-3.25 1.12c-7.9-.14-10 4.07-10 4.07l-.1 1.53s4.8-3.43 8.6-2a4.51 4.51 0 0 1 1.52.94 6.17 6.17 0 0 1 5.35 9.2 2.56 2.56 0 0 1-2.48 1.55 3.2 3.2 0 0 1-1.39-.85 6.16 6.16 0 0 0-.71-.52l-.88 4.23s-2.5 9.4-3.1 13.62"/><path d="M305.5 321c1.44.4 2.93-.66 3.7-1.94s1.1-2.8 1.8-4.13c2.06-4 7-5.9 8.9-10 .26-.57.4-1.35-.1-1.73s-1.12-.07-1.63.2l-13 7.2"/></g><g class="E"><path d="M305.16 310.6a6.73 6.73 0 0 1 1.33-.92l3.77-2.24 5.65-3.23 1.63-.92a2.92 2.92 0 0 1 2.15-.61 1.23 1.23 0 0 1 .85 1.11 2.6 2.6 0 0 1-.21 1.2 9.63 9.63 0 0 1-1.12 1.88c-1.8 2.34-4.13 3.8-5.8 5.52a11.11 11.11 0 0 0-2.06 2.65c-.5.92-.8 1.88-1.18 2.75a5.23 5.23 0 0 1-3 3.24c-1.07.32-1.67 0-1.63-.06a4 4 0 0 0 1.52-.25 5.07 5.07 0 0 0 2.58-3.16 29.34 29.34 0 0 1 1.11-2.85 11.19 11.19 0 0 1 2.13-2.87c1.72-1.8 4-3.3 5.68-5.48a8.74 8.74 0 0 0 1-1.69c.25-.57.2-1.14-.1-1.2s-.95.2-1.5.52l-1.66.9-5.73 3.12-3.9 2a5.69 5.69 0 0 1-1.49.59zm13.78-9.6a6 6 0 0 1 .91-2.66 4.72 4.72 0 0 1 2.4-1.74 12 12 0 0 1 3.75-.6 20.23 20.23 0 0 0 3.9-.34 6.25 6.25 0 0 0 2.9-1.45 2.45 2.45 0 0 0 .78-2 1.47 1.47 0 0 0-.26-.76c-.05 0 0 .3.05.77a2.31 2.31 0 0 1-.84 1.75 6.28 6.28 0 0 1-2.74 1.24 21.36 21.36 0 0 1-3.81.28 11.88 11.88 0 0 0-3.89.61 5 5 0 0 0-2.55 2 4.39 4.39 0 0 0-.66 2.08 1.5 1.5 0 0 0 .06.82zm-6.2-19.27a14.87 14.87 0 0 0 0 2.75l.07 6.6v6.6a15.79 15.79 0 0 0 .06 2.75 11.59 11.59 0 0 0 .33-2.74l.2-6.62-.23-6.63a12.87 12.87 0 0 0-.42-2.73zm9.33 22.34a3.22 3.22 0 0 0 .8-.31 2.57 2.57 0 0 1 2.12-.1 1.38 1.38 0 0 1 .72 1.15 7.08 7.08 0 0 1-.13 1.78 3 3 0 0 0 .33 2.16 2.62 2.62 0 0 0 2.1 1.1 3 3 0 0 0 2.16-.94 3.62 3.62 0 0 0 1-1.92 12.11 12.11 0 0 0-.05-3.54 6.9 6.9 0 0 0-.71-2.27c-.28-.5-.54-.7-.56-.67s.16.27.37.76a8.19 8.19 0 0 1 .51 2.24 13 13 0 0 1-.05 3.39 3 3 0 0 1-2.68 2.4 2.09 2.09 0 0 1-1.67-.85 2.62 2.62 0 0 1-.27-1.8 7.2 7.2 0 0 0 .08-1.91 1.77 1.77 0 0 0-1-1.43 2.63 2.63 0 0 0-2.38.26c-.47.28-.75.43-.7.5z"/><path d="M329.93 308.5a1.1 1.1 0 0 0 .08.78 2.43 2.43 0 0 0 1.6 1.42 3.19 3.19 0 0 0 3-.94 5.19 5.19 0 0 0 1.35-3.63 6.36 6.36 0 0 0-1.18-3.69 5.94 5.94 0 0 0-2.47-2 5.6 5.6 0 0 0-2.06-.49c-.5 0-.77 0-.77.08a9.35 9.35 0 0 1 2.67.76 5.93 5.93 0 0 1 2.22 1.91 6.06 6.06 0 0 1 1 3.4 4.84 4.84 0 0 1-1.16 3.28 2.81 2.81 0 0 1-2.58.91 2.25 2.25 0 0 1-1.49-1.13c-.14-.38-.14-.66-.2-.66zm-9.5 9.23a2.19 2.19 0 0 0-1.32 0 5.22 5.22 0 0 0-2.88 1.74l.46.14a14.64 14.64 0 0 0-.3-1.84 11.82 11.82 0 0 0-2.85-5.77 29.93 29.93 0 0 1 2.32 5.89l.3 1.78.08.62.4-.5a5.45 5.45 0 0 1 2.55-1.75c.75-.23 1.24-.25 1.24-.32zm.25-23.5c-.13.06.4 1 1.62 1.57s2.3.24 2.25.1-1-.13-2-.6-1.74-1.17-1.87-1.07z"/></g><path d="M299.24 329.45l29.2 2.1-5.36 59.66c-.87 8-6 20.1-23.83 20.1s-21.15-6.07-29.08-18.57c9.35-6.48 24.2-25.83 24.2-25.83z" class="G"/><path d="M313 336.4a9.85 9.85 0 0 1-.54 1.27l-1.63 3.44-5.76 11.9-.3-.35 7.57-2.25 8.26-2.42-.27.5-6 11.65-1.77 3.35a7.86 7.86 0 0 1-.69 1.17 10.59 10.59 0 0 1 .54-1.25l1.64-3.4 5.8-11.73.3.35-7.68 2.28-8.13 2.38.26-.5 5.97-11.77 1.76-3.38a8.27 8.27 0 0 1 .67-1.22zm-2.76 49.68a8.63 8.63 0 0 1-1.36.18l-3.8.33-13.14 1 .16-.43 5.76 5.4 5.83 5.5.42.4h-.58l-13.07.72-3.78.16a7.87 7.87 0 0 1-1.36 0 8.75 8.75 0 0 1 1.35-.16l3.77-.3 13.06-.9-.15.43-12-11.3h.57l13.15-.8 3.8-.2a9 9 0 0 1 1.37-.04z" class="B"/><path d="M362.2 201.57l-29.77-10.7L303 201.43c-3.76 1.77-7.06 2.84-7.06 6.34v17.46a66 66 0 0 0 9.67 34.77 60.51 60.51 0 0 0 27.12 23.95c12-3.9 21-14.35 26.55-23.27a66 66 0 0 0 9.72-34.77v-15.7c0-5-2.66-7.44-6.8-8.64z" class="G"/><path d="M332.73 273.8a48 48 0 0 1-21.45-19.1 52.22 52.22 0 0 1-7.69-27.49V215c0-2.78 1.68-5.38 5-6.93l23.86-8.92v-8.23L303 201.43c-3.1 1.35-7.06 2.84-7.06 6.34v17.46a66 66 0 0 0 9.67 34.77 60.51 60.51 0 0 0 27.12 23.95z" opacity=".3"/><path d="M332.73 283.92a36.13 36.13 0 0 0 5.85-2.5 52.72 52.72 0 0 0 12.42-9.74 66.59 66.59 0 0 0 8.61-11.57A63.5 63.5 0 0 0 369 225v-14.4c0-7.18-3.7-7.7-6.8-9.06l-29.77-10.7v8.23l24.14 9.07c3.32 1.55 5 4.15 5 6.92v12.25a52.18 52.18 0 0 1-7.69 27.48 47 47 0 0 1-21.17 19z" opacity=".4"/><g fill="#fff"><path d="M340.34 226.42v-2.36a7.73 7.73 0 0 0-15.46 0v2.4a4.32 4.32 0 0 0-3.68 4.27v13.9a4.32 4.32 0 0 0 4.32 4.32H340a4.32 4.32 0 0 0 4.32-4.32v-13.9a4.32 4.32 0 0 0-3.98-4.31zm-5.63 14.74h-3.78l.6-2.73a2.29 2.29 0 1 1 2.5 0l.7 2.73zm4-14.76h-12.16v-2.34a6.07 6.07 0 0 1 12.13 0z" opacity=".5"/><path d="M308.42 226.25a9 9 0 0 1-.45-2.42 41.18 41.18 0 0 1-.24-5.93c0-1.16.1-2.26.2-3.26a7 7 0 0 1 .67-2.63 2.94 2.94 0 0 1 1.3-1.31c.4-.2.66-.18.66-.15a3.33 3.33 0 0 0-1.63 1.62 7.32 7.32 0 0 0-.52 2.51l-.17 3.24.1 5.88a15.67 15.67 0 0 1 .08 2.45zm.43 7.6c-.14 0-.27-.7-.3-1.6s.1-1.6.23-1.6.27.7.3 1.6-.08 1.6-.23 1.6z"/></g><path d="M279.32 325.23l-33.2 82.08h-59.85v3.7h178.27l36.47-85.8h-121.7z" class="C"/><path d="M330.06 373.7c-1.2 4.13-4.7 6.74-7.82 5.84s-4.67-5-3.47-9.13 4.7-6.74 7.83-5.84 4.67 5 3.46 9.13z" fill="#fafafa"/></svg>