<svg xmlns="http://www.w3.org/2000/svg" xmlns:xlink="http://www.w3.org/1999/xlink" viewBox="0 0 500 500" xmlns:v="https://vecta.io/nano"><style><![CDATA[.B{fill:#fff}.C{stroke:#263238}.D{stroke-linejoin:round}.E{fill:#263238}.F{fill:#4550e6}.G{fill:none}.H{stroke-linecap:round}.I{opacity:.5}]]></style><defs><clipPath id="A"><path d="M200.5 270.2s-28.5 6.05-52.27 19.44-42.33 24.2-42.33 29.36-9.5 87.26-9.5 87.26h216s-21.17-45.36-24.62-64.8-7.35-32-18.58-44.5-44.07-28.5-68.7-26.77z" class="B C D"/></clipPath><clipPath id="B"><path d="M191 273.23a28.46 28.46 0 0 0-13.4 22.46c-.86 15.55 0 31.54-.86 40.17s-6.9 15.56-2.16 15.12 15.55-17.7 19.44-17.7 5.18 8.2 6.9 10.8 7.8 3.68 7.8 3.68 5.6-6.7 5.6-8.86-1.73-9.5 3-8.64 15.1 17.28 15.55 12.1-4.76-13-4.76-25.48-6-27.22-14.68-36.3-13.6-8-22.43-7.34z" class="B C D"/></clipPath><clipPath id="C"><path d="M194.6 273.34a66.73 66.73 0 0 0-5.18 25c0 13.66 7.06 27.8 9.9 34.38s9.42 15.07 9.42 15.07-.48-17.42 3.76-25.9 8-14.6 8-14.6-5.18-5.18-12.72-16.95-13.17-17-13.17-17z" class="B C D"/></clipPath><clipPath id="D"><path d="M266.1 240.16s-1.3 19.35-3.4 26.15-5 27.73-11.25 36.88-14.38 17-23.54 17.53-21.44-15.7-28.5-26.16-7.84-20.92-10.2-31.12-2.87-22 .8-31.13 22-20.4 37.4-19.1 34.78 9.42 38.7 15.43a10.51 10.51 0 0 1 0 11.51z" class="B C D"/></clipPath><clipPath id="E"><path d="M195.73 202s-17 5.5-18.3 12.3 7.33 30.6 7.07 33.47-2.88 5.24 0 9.42 8.1 10.46 10.2 7.06-.8-8.37 2.6-10.46 8.1-5.5 5.5-9.94-1.3-11 4.2-11.77 10.2-4.44 7.32-.26-11.24 14.4-6.8 15.17 22-11 22-11-6 12-2.88 12.8 27.73-15.43 27.73-15.43 11.77 15.43 14.12 14.38.8-9.67.8-9.67 1.83 11.5 5.5 12 8.63-5.76 7.06-9.68-4.2-9.4-4.2-9.4 5.23-1.3 7.32-3.67 1.83-2.6-2.62-3.4-7.84-5.75-12-10.2-11-10.46-11-10.46 7.84 3.4 3.66-.52-26.42-12.82-38.45-12.82-16.5 6.3-16.5 6.3 2.1-7.85-.27-6.8-5 7.32-5 7.32-5.5-1.57-8.36.27-3.67 3.66-1.3 3.66a13.66 13.66 0 0 1 3.92.52z" class="C D E"/></clipPath><clipPath id="F"><path d="M195.73 269.7s-6.27-14.64-11.77-14.64-5.23 12.3-1.83 18.83 10.73 9.15 12.82 5.23" class="B C D H"/></clipPath><path id="G" d="M427.77 406.92c2.93-11 12.5-47.9 19-85.3 7.76-44.64 14.55-106.14-16.5-131.92s-71.78 4.95-93.12-5-22.3-59.52-79.53-74.4S168.4 147 143.18 174.8 89.83 183.73 53 213.5c-36.46 29.44-5.54 162.7 21.42 193.43z"/><path id="H" d="M200.5 270.2s-28.5 6.05-52.27 19.44-42.33 24.2-42.33 29.36-9.5 87.26-9.5 87.26h216s-21.17-45.36-24.62-64.8-7.35-32-18.58-44.5-44.07-28.5-68.7-26.77z"/><path id="I" d="M116.75 349.35c3.2-2.28 9.6 15.08 11.42 11s-11.42-24.67-12.33-32 7.76-8.23 17.82-15.08 19.2-12.34 19.2-3.2 4.1 26 7.3 19.2 10.05-15.53 10.5-3.66 0 23.76 1.38 23.76 13.7-12.8 16.9-19.2-3.66-22.84-3.66-30.15 6.4-17.36 6.4-17.36l.4-10.35c-10.23 2.8-28.1 8.45-43.87 17.34C124.46 303 105.9 313.83 105.9 319s-9.5 87.26-9.5 87.26h11.82c2.2-20.33 6.3-55.26 8.55-56.9z"/><path id="J" d="M191 273.23a28.46 28.46 0 0 0-13.4 22.46c-.86 15.55 0 31.54-.86 40.17s-6.9 15.56-2.16 15.12 15.55-17.7 19.44-17.7 5.18 8.2 6.9 10.8 7.8 3.68 7.8 3.68 5.6-6.7 5.6-8.86-1.73-9.5 3-8.64 15.1 17.28 15.55 12.1-4.76-13-4.76-25.48-6-27.22-14.68-36.3-13.6-8-22.43-7.34z"/><path id="K" d="M192.06 273.14l-1.07.1a28.46 28.46 0 0 0-13.4 22.46c-.86 15.55 0 31.54-.86 40.17-.56 5.56-3.25 10.4-3.84 13 3.17-2.33 13.2-13.05 16.05-18.73 3.2-6.4-3.66-22.84-3.66-30.15s6.4-17.36 6.4-17.36z"/><path id="L" d="M194.6 273.34a66.73 66.73 0 0 0-5.18 25c0 13.66 7.06 27.8 9.9 34.38s9.42 15.07 9.42 15.07-.48-17.42 3.76-25.9 8-14.6 8-14.6-5.18-5.18-12.72-16.95-13.17-17-13.17-17z"/><path id="M" d="M217.2 312.9l-1.77-11.64c-2.07-2.68-4.68-6.3-7.67-11-7.53-11.78-13.18-17-13.18-17a66.73 66.73 0 0 0-5.18 25 56.44 56.44 0 0 0 2.59 15.81l25-.8z"/><path id="N" d="M266.1 240.16s-1.3 19.35-3.4 26.15-5 27.73-11.25 36.88-14.38 17-23.54 17.53-21.44-15.7-28.5-26.16-7.84-20.92-10.2-31.12-2.87-22 .8-31.13 22-20.4 37.4-19.1 34.78 9.42 38.7 15.43a10.51 10.51 0 0 1 0 11.51z"/><path id="O" d="M190 232.3c-3.66 9.16-3.14 20.93-.8 31.13s3.14 20.66 10.2 31.12 19.36 26.68 28.5 26.16a21.3 21.3 0 0 0 10.47-3.8l-4.65.45c-9.6.9-14.17-5.48-20.1-17.82s-2.28-19.64-4.57-21.93-2.28-18.73-2.28-18.73 1.83-7.3 2.74-10 10.5-6.4 10.5-6.4 0 6.85 6.58 6.35 11.24-7.72 11.24-7.72l-.92-26.33a70.78 70.78 0 0 0-9.53-1.52c-15.4-1.36-33.76 9.9-37.4 19.04z"/><path id="P" d="M195.73 202s-17 5.5-18.3 12.3 7.33 30.6 7.07 33.47-2.88 5.24 0 9.42 8.1 10.46 10.2 7.06-.8-8.37 2.6-10.46 8.1-5.5 5.5-9.94-1.3-11 4.2-11.77 10.2-4.44 7.32-.26-11.24 14.4-6.8 15.17 22-11 22-11-6 12-2.88 12.8 27.73-15.43 27.73-15.43 11.77 15.43 14.12 14.38.8-9.67.8-9.67 1.83 11.5 5.5 12 8.63-5.76 7.06-9.68-4.2-9.4-4.2-9.4 5.23-1.3 7.32-3.67 1.83-2.6-2.62-3.4-7.84-5.75-12-10.2-11-10.46-11-10.46 7.84 3.4 3.66-.52-26.42-12.82-38.45-12.82-16.5 6.3-16.5 6.3 2.1-7.85-.27-6.8-5 7.32-5 7.32-5.5-1.57-8.36.27-3.67 3.66-1.3 3.66a13.66 13.66 0 0 1 3.92.52z"/><path id="Q" d="M195.73 269.7s-6.27-14.64-11.77-14.64-5.23 12.3-1.83 18.83 10.73 9.15 12.82 5.23"/></defs><use xlink:href="#G" class="F"/><use xlink:href="#G" opacity=".7" class="B"/><g class="F"><path d="M298.52 203.44h-3.24a.8.8 0 0 1 0-1.6h3.24a.8.8 0 0 1 0 1.6zm.8 2.9a.8.8 0 0 0-.8-.8h-3.24a.8.8 0 0 0 0 1.6h3.24a.8.8 0 0 0 .8-.8zm0 3.7a.8.8 0 0 0-.8-.8h-3.24a.8.8 0 0 0 0 1.6h3.24a.8.8 0 0 0 .8-.84zm0 3.7a.8.8 0 0 0-.8-.8h-3.24a.8.8 0 0 0 0 1.6h3.24a.8.8 0 0 0 .8-.8zm0 3.7a.8.8 0 0 0-.8-.8h-3.24a.8.8 0 0 0 0 1.59h3.24a.79.79 0 0 0 .8-.79zm0 3.7a.79.79 0 0 0-.8-.79h-3.24a.8.8 0 0 0 0 1.59h3.24a.8.8 0 0 0 .8-.8zm0 3.7a.8.8 0 0 0-.8-.8h-3.24a.8.8 0 0 0 0 1.6h3.24a.8.8 0 0 0 .8-.8zm0 3.7a.8.8 0 0 0-.8-.8h-3.24a.8.8 0 0 0 0 1.6h3.24a.8.8 0 0 0 .8-.8zm12.1-25.9a.79.79 0 0 0-.79-.8h-8.5a.8.8 0 0 0 0 1.6h8.5a.79.79 0 0 0 .79-.8zm0 3.7a.79.79 0 0 0-.79-.8h-8.5a.8.8 0 1 0 0 1.6h8.5a.79.79 0 0 0 .79-.8zm0 3.7a.79.79 0 0 0-.79-.8h-8.5a.8.8 0 0 0 0 1.6h8.5a.79.79 0 0 0 .79-.84zm0 3.7a.79.79 0 0 0-.79-.8h-8.5a.8.8 0 0 0 0 1.6h8.5a.79.79 0 0 0 .79-.8zm0 3.7a.79.79 0 0 0-.79-.8h-8.5a.8.8 0 1 0 0 1.59h8.5a.79.79 0 0 0 .79-.79zm10.18 3.7a.79.79 0 0 0-.8-.79h-8.5a.8.8 0 1 0 0 1.59h8.5a.8.8 0 0 0 .8-.8zm0 3.7a.8.8 0 0 0-.8-.8h-8.5a.8.8 0 0 0 0 1.6h8.5a.8.8 0 0 0 .8-.8zm0 3.7a.8.8 0 0 0-.8-.8h-8.5a.8.8 0 1 0 0 1.6h8.5a.8.8 0 0 0 .8-.8zm-6.44-25.9a.93.93 0 0 0-1.85 0 .93.93 0 1 0 1.85 0zm2.78 0a.93.93 0 1 0-.93.93.93.93 0 0 0 .93-.93zm2.77 0a.93.93 0 0 0-1.85 0 .93.93 0 1 0 1.85 0zm2.77 0a.92.92 0 1 0-.92.93.92.92 0 0 0 .92-.93zm2.78 0a.93.93 0 1 0-.93.93.93.93 0 0 0 .93-.93zm2.77 0a.93.93 0 0 0-1.85 0 .93.93 0 1 0 1.85 0zM315.16 210a.93.93 0 1 0-.92.92.93.93 0 0 0 .92-.92zm2.78 0a.93.93 0 1 0-1.85 0 .93.93 0 0 0 1.85 0zm2.77 0a.93.93 0 1 0-.92.92.93.93 0 0 0 .92-.92zm2.77 0a.92.92 0 1 0-.92.92.93.93 0 0 0 .92-.92zm2.78 0a.93.93 0 1 0-1.85 0 .93.93 0 0 0 1.85 0zm2.77 0a.93.93 0 1 0-.03 0zm-4.4 10.63a.93.93 0 0 0-1.85 0 .93.93 0 1 0 1.85 0zm2.77 0a.92.92 0 1 0 0 .04zm2.78 0a.93.93 0 1 0 0 .04zm2.77 0a.93.93 0 0 0-1.85 0 .93.93 0 1 0 1.85 0zm2.78 0a.93.93 0 1 0 0 .04zm2.77 0a.93.93 0 1 0-.93.93.92.92 0 0 0 .93-.89zm-13.87 7.63a.93.93 0 1 0-.92.92.92.92 0 0 0 .92-.88zm2.77 0a.92.92 0 1 0 0 .04zm2.78 0a.93.93 0 1 0 0 .04zm2.77 0a.93.93 0 1 0-.92.92.92.92 0 0 0 .96-.88zm2.78 0a.93.93 0 1 0 0 .04zm2.77 0a.93.93 0 1 0-.93.92.92.92 0 0 0 .93-.88zM298.52 233h-3.24a.8.8 0 0 1 0-1.6h3.24a.8.8 0 1 1 0 1.6zm.8 2.9a.8.8 0 0 0-.8-.8h-3.24a.8.8 0 0 0 0 1.59h3.24a.79.79 0 0 0 .8-.75zm0 3.7a.79.79 0 0 0-.8-.79h-3.24a.8.8 0 0 0 0 1.59h3.24a.8.8 0 0 0 .8-.76zm0 3.7a.8.8 0 0 0-.8-.8h-3.24a.8.8 0 0 0 0 1.6h3.24a.8.8 0 0 0 .8-.76zm0 3.7a.8.8 0 0 0-.8-.8h-3.24a.8.8 0 0 0 0 1.6h3.24a.8.8 0 0 0 .8-.79zm0 3.7a.8.8 0 0 0-.8-.8h-3.24a.8.8 0 0 0 0 1.6h3.24a.8.8 0 0 0 .8-.76zm0 3.7a.8.8 0 0 0-.8-.8h-3.24a.8.8 0 0 0 0 1.6h3.24a.8.8 0 0 0 .8-.76zm0 3.7a.8.8 0 0 0-.8-.8h-3.24a.795.795 0 1 0 0 1.59h3.24a.79.79 0 0 0 .8-.75zm12.1-25.9a.79.79 0 0 0-.79-.8h-8.5a.8.8 0 0 0 0 1.6h8.5a.79.79 0 0 0 .79-.76zm0 3.7a.79.79 0 0 0-.79-.8h-8.5a.8.8 0 1 0 0 1.59h8.5a.79.79 0 0 0 .79-.75zm0 3.7a.79.79 0 0 0-.79-.79h-8.5a.8.8 0 1 0 0 1.59h8.5a.79.79 0 0 0 .79-.76zm0 3.7a.79.79 0 0 0-.79-.8h-8.5a.8.8 0 0 0 0 1.6h8.5a.79.79 0 0 0 .79-.76zm0 3.7a.79.79 0 0 0-.79-.8h-8.5a.8.8 0 0 0 0 1.6h8.5a.79.79 0 0 0 .79-.79zm10.18 3.7a.8.8 0 0 0-.8-.8h-8.5a.8.8 0 1 0 0 1.6h8.5a.8.8 0 0 0 .8-.76zm0 3.7a.8.8 0 0 0-.8-.8h-8.5a.8.8 0 0 0 0 1.6h8.5a.8.8 0 0 0 .8-.76zm0 3.7a.8.8 0 0 0-.8-.8h-8.5a.8.8 0 0 0-.8.8.79.79 0 0 0 .8.79h8.5a.79.79 0 0 0 .8-.75zm-6.44-25.9a.93.93 0 1 0 0 .04zm2.78 0a.93.93 0 1 0-1.85 0 .93.93 0 0 0 1.85 0zm2.77 0a.93.93 0 1 0 0 .04zm2.77 0a.92.92 0 1 0-.92.92.93.93 0 0 0 .92-.88zm2.78 0a.93.93 0 1 0-1.85 0 .93.93 0 0 0 1.85 0zm2.77 0a.93.93 0 1 0-.03.04zm-13.87 7.4a.93.93 0 0 0-1.85 0 .93.93 0 1 0 1.85 0zm2.78 0a.93.93 0 1 0 0 .04zm2.77 0a.93.93 0 0 0-1.85 0 .93.93 0 1 0 1.85 0zm2.77 0a.92.92 0 1 0 0 .04zm2.78 0a.93.93 0 1 0 0 .04zm2.77 0a.93.93 0 0 0-1.85 0 .93.93 0 1 0 1.85 0zm-4.4 10.64a.93.93 0 1 0 0 .04zm2.77 0a.92.92 0 1 0-.92.92.93.93 0 0 0 .92-.88zm2.78 0a.93.93 0 1 0-1.85 0 .93.93 0 0 0 1.85 0zm2.77 0a.93.93 0 1 0-.92.92.93.93 0 0 0 .96-.88zm2.78 0a.93.93 0 1 0-1.85 0 .93.93 0 0 0 1.85 0zm2.77 0a.93.93 0 1 0-1.85 0 .93.93 0 0 0 1.85 0zm-13.87 7.63a.93.93 0 1 0-.92.92.92.92 0 0 0 .92-.88zm2.77 0a.92.92 0 1 0 0 .04zm2.78 0a.93.93 0 1 0-1.85 0 .93.93 0 0 0 1.85 0zm2.77 0a.93.93 0 1 0-.92.92.92.92 0 0 0 .96-.88zm2.78 0a.93.93 0 1 0-1.85 0 .93.93 0 0 0 1.85 0zm2.77 0a.93.93 0 1 0-.93.92.92.92 0 0 0 .93-.88z"/><path d="M298.52 263.35h-3.24a.8.8 0 0 1 0-1.6h3.24a.8.8 0 0 1 0 1.6zm.8 2.9a.8.8 0 0 0-.8-.8h-3.24a.8.8 0 0 0 0 1.59h3.24a.79.79 0 0 0 .8-.79zm0 3.7a.79.79 0 0 0-.8-.79h-3.24a.8.8 0 0 0 0 1.59h3.24a.8.8 0 0 0 .8-.8zm0 3.7a.8.8 0 0 0-.8-.8h-3.24a.8.8 0 0 0 0 1.6h3.24a.8.8 0 0 0 .8-.8zm0 3.7a.8.8 0 0 0-.8-.8h-3.24a.8.8 0 0 0 0 1.6h3.24a.8.8 0 0 0 .8-.8zm0 3.7a.8.8 0 0 0-.8-.8h-3.24a.8.8 0 0 0 0 1.6h3.24a.8.8 0 0 0 .8-.84zm0 3.7a.8.8 0 0 0-.8-.8h-3.24a.8.8 0 0 0 0 1.6h3.24a.8.8 0 0 0 .8-.8zm0 3.7a.8.8 0 0 0-.8-.8h-3.24a.795.795 0 1 0 0 1.59h3.24a.79.79 0 0 0 .8-.79zm12.1-25.9a.79.79 0 0 0-.79-.8h-8.5a.8.8 0 0 0 0 1.6h8.5a.79.79 0 0 0 .79-.8zm0 3.7a.79.79 0 0 0-.79-.8h-8.5a.8.8 0 1 0 0 1.59h8.5a.79.79 0 0 0 .79-.79zm0 3.7a.79.79 0 0 0-.79-.79h-8.5a.8.8 0 1 0 0 1.59h8.5a.79.79 0 0 0 .79-.8zm0 3.7a.79.79 0 0 0-.79-.8h-8.5a.8.8 0 0 0 0 1.6h8.5a.79.79 0 0 0 .79-.8zm0 3.7a.79.79 0 0 0-.79-.8h-8.5a.8.8 0 0 0 0 1.6h8.5a.79.79 0 0 0 .79-.8zM321.6 281a.8.8 0 0 0-.8-.8h-8.5a.8.8 0 1 0 0 1.6h8.5a.8.8 0 0 0 .8-.8zm0 3.7a.8.8 0 0 0-.8-.8h-8.5a.8.8 0 1 0 0 1.6h8.5a.8.8 0 0 0 .8-.76zm0 3.7a.8.8 0 0 0-.8-.8h-8.5a.8.8 0 0 0-.8.8.79.79 0 0 0 .8.79h8.5a.79.79 0 0 0 .8-.75zm-6.44-25.9a.93.93 0 1 0 0 .04zm2.78 0a.93.93 0 1 0-1.85 0 .93.93 0 0 0 1.85 0zm2.77 0a.93.93 0 1 0 0 .04zm2.77 0a.92.92 0 1 0-.92.92.93.93 0 0 0 .92-.88zm2.78 0a.93.93 0 1 0-1.85 0 .93.93 0 0 0 1.85 0zm2.77 0a.93.93 0 1 0-.03.04zm-13.87 7.4a.93.93 0 0 0-1.85 0 .93.93 0 1 0 1.85 0zm2.78 0a.93.93 0 1 0 0 .04zm2.77 0a.93.93 0 0 0-1.85 0 .93.93 0 1 0 1.85 0zm2.77 0a.92.92 0 1 0 0 .04zm2.78 0a.93.93 0 1 0 0 .04zm2.77 0a.93.93 0 0 0-1.85 0 .93.93 0 1 0 1.85 0zm-4.4 10.64a.93.93 0 1 0 0 .04zm2.77 0a.92.92 0 1 0-.92.92.93.93 0 0 0 .92-.88zm2.78 0a.93.93 0 1 0-1.85 0 .93.93 0 0 0 1.85 0zm2.77 0a.93.93 0 1 0-.92.92.93.93 0 0 0 .96-.88zm2.78 0a.93.93 0 1 0-1.85 0 .93.93 0 0 0 1.85 0zm2.77 0a.93.93 0 1 0-1.85 0 .93.93 0 0 0 1.85 0zm-13.87 7.63a.93.93 0 1 0-.92.92.92.92 0 0 0 .92-.88zm2.77 0a.92.92 0 1 0 0 .04zm2.78 0a.93.93 0 1 0-1.85 0 .93.93 0 0 0 1.85 0zm2.77 0a.93.93 0 1 0-.92.92.92.92 0 0 0 .96-.88zm2.78 0a.93.93 0 1 0-1.85 0 .93.93 0 0 0 1.85 0zm2.77 0a.93.93 0 1 0-.93.92.92.92 0 0 0 .93-.88zm9.7-84.73H345a.8.8 0 0 1 0-1.6h3.23a.8.8 0 1 1 0 1.6zm.8 2.9a.8.8 0 0 0-.8-.8H345a.8.8 0 0 0 0 1.6h3.23a.8.8 0 0 0 .77-.8zm0 3.7a.8.8 0 0 0-.8-.8H345a.8.8 0 0 0 0 1.6h3.23a.8.8 0 0 0 .77-.84zm0 3.7a.8.8 0 0 0-.8-.8H345a.8.8 0 0 0 0 1.6h3.23a.8.8 0 0 0 .77-.8zm0 3.7a.79.79 0 0 0-.8-.8H345a.8.8 0 1 0 0 1.59h3.23a.79.79 0 0 0 .77-.79zm0 3.7a.79.79 0 0 0-.8-.79H345a.8.8 0 1 0 0 1.59h3.23a.79.79 0 0 0 .77-.8zm0 3.7a.8.8 0 0 0-.8-.8H345a.8.8 0 0 0 0 1.6h3.23a.8.8 0 0 0 .77-.8zm0 3.7a.8.8 0 0 0-.8-.8H345a.8.8 0 0 0 0 1.6h3.23a.8.8 0 0 0 .77-.8zm12.1-25.9a.8.8 0 0 0-.8-.8h-8.5a.8.8 0 0 0 0 1.6h8.5a.8.8 0 0 0 .8-.8zm0 3.7a.8.8 0 0 0-.8-.8h-8.5a.8.8 0 0 0 0 1.6h8.5a.8.8 0 0 0 .8-.8zm0 3.7a.8.8 0 0 0-.8-.8h-8.5a.8.8 0 0 0 0 1.6h8.5a.8.8 0 0 0 .8-.84zm0 3.7a.8.8 0 0 0-.8-.8h-8.5a.8.8 0 0 0 0 1.6h8.5a.8.8 0 0 0 .8-.8zm0 3.7a.8.8 0 0 0-.8-.8h-8.5a.8.8 0 1 0 0 1.59h8.5a.79.79 0 0 0 .8-.79zm10.17 3.7a.79.79 0 0 0-.8-.79H362a.8.8 0 1 0 0 1.59h8.5a.8.8 0 0 0 .79-.8zm0 3.7a.8.8 0 0 0-.8-.8H362a.8.8 0 0 0 0 1.6h8.5a.8.8 0 0 0 .79-.8zm0 3.7a.8.8 0 0 0-.8-.8H362a.8.8 0 0 0 0 1.6h8.5a.8.8 0 0 0 .79-.8zm-6.43-25.9a.93.93 0 1 0-.93.93.93.93 0 0 0 .93-.93zm2.77 0a.93.93 0 0 0-1.85 0 .93.93 0 1 0 1.85 0zm2.78 0a.93.93 0 1 0-.93.93.93.93 0 0 0 .93-.93zm2.77 0a.93.93 0 1 0-.93.93.92.92 0 0 0 .93-.93zm2.77 0a.93.93 0 0 0-1.85 0 .93.93 0 1 0 1.85 0zm2.78 0a.93.93 0 1 0-.93.93.93.93 0 0 0 .93-.93zM364.85 210a.93.93 0 1 0-1.85 0 .93.93 0 0 0 1.85 0zm2.77 0a.93.93 0 1 0-.92.92.93.93 0 0 0 .92-.92zm2.78 0a.93.93 0 1 0-1.85 0 .93.93 0 0 0 1.85 0zm2.77 0a.93.93 0 1 0-1.85 0 .93.93 0 0 0 1.85 0zm2.77 0a.93.93 0 1 0-.92.92.93.93 0 0 0 .92-.92zm2.78 0a.93.93 0 1 0-1.85 0 .93.93 0 0 0 1.85 0zm-4.4 10.63a.93.93 0 1 0 0 .04zm2.77 0a.93.93 0 1 0 0 .04zm2.77 0a.93.93 0 0 0-1.85 0 .93.93 0 1 0 1.85 0zm2.78 0a.93.93 0 1 0 0 .04zm2.77 0a.93.93 0 0 0-1.85 0 .93.93 0 1 0 1.85 0zm2.77 0a.93.93 0 0 0-1.85 0 .93.93 0 1 0 1.85 0zm-13.86 7.63a.93.93 0 1 0 0 .04zm2.77 0a.93.93 0 1 0 0 .04zm2.77 0a.93.93 0 1 0-.92.92.92.92 0 0 0 .92-.88zm2.78 0a.93.93 0 1 0 0 .04zm2.77 0a.93.93 0 1 0-.92.92.92.92 0 0 0 .92-.88zm2.77 0a.93.93 0 1 0-.92.92.92.92 0 0 0 .92-.88z"/><path d="M348.2 233.75H345a.8.8 0 0 1 0-1.6h3.23a.8.8 0 1 1 0 1.6zm.8 2.9a.8.8 0 0 0-.8-.8H345a.8.8 0 0 0 0 1.6h3.23a.8.8 0 0 0 .77-.8zm0 3.7a.8.8 0 0 0-.8-.8H345a.8.8 0 0 0 0 1.6h3.23a.8.8 0 0 0 .77-.8zm0 3.7a.8.8 0 0 0-.8-.8H345a.8.8 0 0 0 0 1.6h3.23a.8.8 0 0 0 .77-.8zm0 3.7a.79.79 0 0 0-.8-.8H345a.8.8 0 1 0 0 1.59h3.23a.79.79 0 0 0 .77-.79zm0 3.7a.79.79 0 0 0-.8-.79H345a.8.8 0 1 0 0 1.59h3.23a.79.79 0 0 0 .77-.8zm0 3.7a.8.8 0 0 0-.8-.8H345a.8.8 0 0 0 0 1.6h3.23a.8.8 0 0 0 .77-.8zm0 3.7a.8.8 0 0 0-.8-.8H345a.8.8 0 0 0 0 1.6h3.23a.8.8 0 0 0 .77-.8zM361.1 233a.8.8 0 0 0-.8-.8h-8.5a.8.8 0 0 0 0 1.6h8.5a.8.8 0 0 0 .8-.8zm0 3.7a.8.8 0 0 0-.8-.8h-8.5a.8.8 0 0 0 0 1.6h8.5a.8.8 0 0 0 .8-.85zm0 3.7a.8.8 0 0 0-.8-.8h-8.5a.8.8 0 0 0 0 1.6h8.5a.8.8 0 0 0 .8-.85zm0 3.7a.8.8 0 0 0-.8-.8h-8.5a.8.8 0 0 0 0 1.6h8.5a.8.8 0 0 0 .8-.85zm0 3.7a.8.8 0 0 0-.8-.8h-8.5a.8.8 0 1 0 0 1.59h8.5a.79.79 0 0 0 .8-.84zm10.17 3.7a.79.79 0 0 0-.8-.79H362a.8.8 0 1 0 0 1.59h8.5a.8.8 0 0 0 .79-.85zm0 3.7a.8.8 0 0 0-.8-.8H362a.8.8 0 0 0 0 1.6h8.5a.8.8 0 0 0 .79-.85zm0 3.7a.8.8 0 0 0-.8-.8H362a.8.8 0 0 0 0 1.6h8.5a.8.8 0 0 0 .79-.85zm-6.43-25.9a.93.93 0 1 0-.93.93.93.93 0 0 0 .93-.93zm2.77 0a.93.93 0 0 0-1.85 0 .93.93 0 1 0 1.85 0zm2.78 0a.93.93 0 1 0-.93.93.93.93 0 0 0 .93-.93zm2.77 0a.93.93 0 1 0-.93.93.92.92 0 0 0 .93-.93zm2.77 0a.93.93 0 0 0-1.85 0 .93.93 0 1 0 1.85 0zm2.78 0a.93.93 0 1 0-.93.93.93.93 0 0 0 .93-.93zm-13.87 7.4a.93.93 0 1 0-1.85 0 .93.93 0 0 0 1.85 0zm2.77 0a.93.93 0 1 0 0-.05zm2.78 0a.93.93 0 1 0-1.85 0 .93.93 0 0 0 1.85 0zm2.77 0a.93.93 0 1 0-1.85 0 .93.93 0 0 0 1.85 0zm2.77 0a.93.93 0 1 0 0-.05zm2.78 0a.93.93 0 1 0-1.85 0 .93.93 0 0 0 1.85 0zm-4.4 10.6a.93.93 0 1 0-.93.93.93.93 0 0 0 .93-.93zm2.77 0a.93.93 0 1 0-.93.93.93.93 0 0 0 .93-.93zm2.77 0a.93.93 0 0 0-1.85 0 .93.93 0 1 0 1.85 0zm2.78 0a.93.93 0 1 0-.93.93.93.93 0 0 0 .93-.93zm2.77 0a.93.93 0 0 0-1.85 0 .93.93 0 1 0 1.85 0zm2.77 0a.93.93 0 0 0-1.85 0 .93.93 0 1 0 1.85 0zm-13.86 7.63a.93.93 0 1 0-.93.92.93.93 0 0 0 .93-.94zm2.77 0a.93.93 0 1 0-.93.92.93.93 0 0 0 .93-.94zm2.77 0a.93.93 0 1 0-.92.92.92.92 0 0 0 .92-.94zm2.78 0a.93.93 0 1 0-.93.92.93.93 0 0 0 .93-.94zm2.77 0a.93.93 0 1 0-.92.92.92.92 0 0 0 .92-.94zm2.77 0a.93.93 0 1 0-.92.92.92.92 0 0 0 .92-.94zM189.58 136.2h-3.24a.8.8 0 0 1 0-1.6h3.24a.8.8 0 0 1 0 1.6zm.8 2.9a.8.8 0 0 0-.8-.8h-3.24a.8.8 0 0 0 0 1.6h3.24a.8.8 0 0 0 .8-.8zm0 3.7a.8.8 0 0 0-.8-.8h-3.24a.8.8 0 0 0 0 1.6h3.24a.8.8 0 0 0 .8-.8zm0 3.7a.8.8 0 0 0-.8-.8h-3.24a.795.795 0 0 0 0 1.59h3.24a.79.79 0 0 0 .8-.79zm0 3.7a.79.79 0 0 0-.8-.79h-3.24a.8.8 0 0 0 0 1.59h3.24a.8.8 0 0 0 .8-.8zm0 3.7a.79.79 0 0 0-.8-.79h-3.24a.795.795 0 1 0 0 1.59h3.24a.8.8 0 0 0 .8-.8zm0 3.7a.8.8 0 0 0-.8-.8h-3.24a.8.8 0 0 0 0 1.6h3.24a.8.8 0 0 0 .8-.8zm0 3.7a.8.8 0 0 0-.8-.8h-3.24a.8.8 0 0 0 0 1.6h3.24a.8.8 0 0 0 .8-.8zm12.1-25.9a.8.8 0 0 0-.8-.8h-8.5a.8.8 0 0 0 0 1.6h8.5a.8.8 0 0 0 .8-.8zm0 3.7a.8.8 0 0 0-.8-.8h-8.5a.8.8 0 1 0 0 1.6h8.5a.8.8 0 0 0 .8-.8zm0 3.7a.8.8 0 0 0-.8-.8h-8.5a.8.8 0 0 0 0 1.6h8.5a.8.8 0 0 0 .8-.8zm0 3.7a.8.8 0 0 0-.8-.8h-8.5a.8.8 0 0 0-.8.8.79.79 0 0 0 .8.79h8.5a.79.79 0 0 0 .8-.79zm0 3.7a.79.79 0 0 0-.8-.79h-8.5a.8.8 0 1 0 0 1.59h8.5a.8.8 0 0 0 .8-.8zm10.17 3.7a.79.79 0 0 0-.8-.79h-8.5a.79.79 0 0 0-.8.79.8.8 0 0 0 .8.8h8.5a.8.8 0 0 0 .8-.8zm0 3.7a.8.8 0 0 0-.8-.8h-8.5a.8.8 0 0 0 0 1.6h8.5a.8.8 0 0 0 .8-.8zm0 3.7a.8.8 0 0 0-.8-.8h-8.5a.8.8 0 1 0 0 1.6h8.5a.8.8 0 0 0 .8-.8zm-6.44-25.9a.93.93 0 0 0-1.85 0 .93.93 0 1 0 1.85 0zm2.78 0a.93.93 0 1 0-.93.93.93.93 0 0 0 .93-.93zm2.77 0a.93.93 0 0 0-1.85 0 .93.93 0 1 0 1.85 0zm2.78 0a.93.93 0 1 0-.93.93.93.93 0 0 0 .93-.93zm2.77 0a.93.93 0 1 0-.93.93.92.92 0 0 0 .93-.93zm2.77 0a.93.93 0 0 0-1.85 0 .93.93 0 1 0 1.85 0zm-13.87 7.4a.93.93 0 1 0-.92.92.93.93 0 0 0 .92-.92zm2.78 0a.93.93 0 1 0-1.85 0 .93.93 0 0 0 1.85 0zm2.77 0a.93.93 0 1 0-.92.92.93.93 0 0 0 .92-.92zm2.78 0a.93.93 0 1 0-1.85 0 .93.93 0 0 0 1.85 0zm2.77 0a.93.93 0 1 0-1.85 0 .93.93 0 0 0 1.85 0zm2.77 0a.93.93 0 1 0-.92.92.93.93 0 0 0 .92-.92zm-4.4 10.63a.93.93 0 0 0-1.85 0 .93.93 0 1 0 1.85 0zm2.78 0a.93.93 0 1 0-.93.93.93.93 0 0 0 .93-.93zm2.77 0a.93.93 0 1 0-.93.93.93.93 0 0 0 .93-.93zm2.77 0a.93.93 0 0 0-1.85 0 .93.93 0 1 0 1.85 0zm2.78 0a.93.93 0 1 0-.93.93.93.93 0 0 0 .93-.93zm2.77 0a.93.93 0 0 0-1.85 0 .93.93 0 1 0 1.85 0zm-13.87 7.63a.93.93 0 1 0-.92.92.93.93 0 0 0 .92-.92zm2.78 0a.93.93 0 1 0-1.85 0 .93.93 0 0 0 1.85 0zm2.77 0a.93.93 0 1 0-1.85 0 .93.93 0 0 0 1.85 0zm2.77 0a.93.93 0 1 0-.92.92.93.93 0 0 0 .9-.92zm2.78 0a.93.93 0 1 0-1.85 0 .93.93 0 0 0 1.85 0zm2.77 0a.93.93 0 1 0-.92.92.93.93 0 0 0 .92-.92z"/><path d="M189.58 165.8h-3.24a.795.795 0 0 1 0-1.59h3.24a.8.8 0 0 1 .8.8.79.79 0 0 1-.8.79zm.8 2.9a.79.79 0 0 0-.8-.79h-3.24a.8.8 0 0 0 0 1.59h3.24a.8.8 0 0 0 .8-.8zm0 3.7a.79.79 0 0 0-.8-.79h-3.24a.795.795 0 1 0 0 1.59h3.24a.8.8 0 0 0 .8-.8zm0 3.7a.8.8 0 0 0-.8-.8h-3.24a.8.8 0 0 0 0 1.6h3.24a.8.8 0 0 0 .8-.8zm0 3.7a.8.8 0 0 0-.8-.8h-3.24a.8.8 0 0 0 0 1.6h3.24a.8.8 0 0 0 .8-.8zm0 3.7a.8.8 0 0 0-.8-.8h-3.24a.8.8 0 0 0 0 1.6h3.24a.8.8 0 0 0 .8-.8zm0 3.7a.8.8 0 0 0-.8-.8h-3.24a.8.8 0 0 0 0 1.6h3.24a.8.8 0 0 0 .8-.8zm0 3.7a.8.8 0 0 0-.8-.8h-3.24a.8.8 0 0 0 0 1.59h3.24a.79.79 0 0 0 .8-.79zm12.1-25.9a.8.8 0 0 0-.8-.8h-8.5a.8.8 0 0 0-.8.8.79.79 0 0 0 .8.79h8.5a.79.79 0 0 0 .8-.79zm0 3.7a.79.79 0 0 0-.8-.79h-8.5a.8.8 0 1 0 0 1.59h8.5a.8.8 0 0 0 .8-.79zm0 3.7a.79.79 0 0 0-.8-.79h-8.5a.79.79 0 0 0-.8.79.8.8 0 0 0 .8.8h8.5a.8.8 0 0 0 .8-.79zm0 3.7a.8.8 0 0 0-.8-.8h-8.5a.8.8 0 1 0 0 1.6h8.5a.8.8 0 0 0 .8-.79zm0 3.7a.8.8 0 0 0-.8-.8h-8.5a.8.8 0 1 0 0 1.6h8.5a.8.8 0 0 0 .8-.79zm10.17 3.7a.8.8 0 0 0-.8-.8h-8.5a.8.8 0 0 0 0 1.6h8.5a.8.8 0 0 0 .8-.79zm0 3.7a.8.8 0 0 0-.8-.8h-8.5a.8.8 0 1 0 0 1.6h8.5a.8.8 0 0 0 .8-.79zm0 3.7a.8.8 0 0 0-.8-.8h-8.5a.8.8 0 1 0 0 1.59h8.5a.79.79 0 0 0 .8-.78zM206.2 165a.93.93 0 1 0-.92.92.93.93 0 0 0 .92-.92zm2.78 0a.93.93 0 1 0-1.85 0 .93.93 0 0 0 1.85 0zm2.77 0a.93.93 0 1 0-.92.92.93.93 0 0 0 .92-.92zm2.78 0a.93.93 0 1 0-1.85 0 .93.93 0 0 0 1.85 0zm2.77 0a.93.93 0 1 0-1.85 0 .93.93 0 0 0 1.85 0zm2.77 0a.93.93 0 1 0-.92.92.93.93 0 0 0 .92-.92zm-13.87 7.4a.93.93 0 0 0-1.85 0 .93.93 0 1 0 1.85 0zm2.78 0a.93.93 0 1 0-.93.93.93.93 0 0 0 .93-.92zm2.77 0a.93.93 0 0 0-1.85 0 .93.93 0 1 0 1.85 0zm2.78 0a.93.93 0 1 0-.93.93.93.93 0 0 0 .93-.92zm2.77 0a.93.93 0 1 0-.93.93.92.92 0 0 0 .93-.92zm2.77 0a.93.93 0 0 0-1.85 0 .93.93 0 1 0 1.85 0zm-4.4 10.6a.93.93 0 1 0-.92.92.93.93 0 0 0 .92-.92zm2.78 0a.93.93 0 1 0-1.85 0 .93.93 0 0 0 1.85 0zm2.77 0a.93.93 0 1 0-1.85 0 .93.93 0 0 0 1.85 0zm2.77 0a.93.93 0 1 0-.92.92.93.93 0 0 0 .9-.92zm2.78 0a.93.93 0 1 0-1.85 0 .93.93 0 0 0 1.85 0zm2.77 0a.93.93 0 1 0-.92.92.93.93 0 0 0 .92-.92zm-13.87 7.62a.93.93 0 0 0-1.85 0 .93.93 0 1 0 1.85 0zm2.78 0a.93.93 0 1 0 0 .04zm2.77 0a.93.93 0 1 0 0 .04zm2.77 0a.93.93 0 0 0-1.85 0 .93.93 0 1 0 1.85 0zm2.78 0a.93.93 0 1 0 0 .04zm2.77 0a.93.93 0 0 0-1.85 0 .93.93 0 1 0 1.85 0zm-39.97 5.48h-3.24a.795.795 0 0 1 0-1.59h3.24a.8.8 0 0 1 .8.8.79.79 0 0 1-.8.79zm.8 2.9a.79.79 0 0 0-.8-.79h-3.24a.8.8 0 0 0 0 1.59h3.24a.8.8 0 0 0 .8-.81zm0 3.7a.8.8 0 0 0-.8-.8h-3.24a.8.8 0 0 0 0 1.6h3.24a.8.8 0 0 0 .8-.8zm0 3.7a.8.8 0 0 0-.8-.8h-3.24a.8.8 0 0 0 0 1.6h3.24a.8.8 0 0 0 .8-.8zm0 3.7a.8.8 0 0 0-.8-.8h-3.24a.8.8 0 0 0 0 1.6h3.24a.8.8 0 0 0 .8-.8zm0 3.7a.8.8 0 0 0-.8-.8h-3.24a.8.8 0 0 0 0 1.6h3.24a.8.8 0 0 0 .8-.8zm0 3.7a.8.8 0 0 0-.8-.8h-3.24a.8.8 0 0 0 0 1.6h3.24a.8.8 0 0 0 .8-.8zm0 3.7a.8.8 0 0 0-.8-.8h-3.24a.8.8 0 0 0 0 1.59h3.24a.79.79 0 0 0 .8-.79zm12.1-25.9a.8.8 0 0 0-.8-.8h-8.5a.8.8 0 0 0-.8.8.79.79 0 0 0 .8.79h8.5a.79.79 0 0 0 .8-.79zm0 3.7a.79.79 0 0 0-.8-.79h-8.5a.8.8 0 1 0 0 1.59h8.5a.8.8 0 0 0 .8-.81zm0 3.7a.8.8 0 0 0-.8-.8h-8.5a.8.8 0 1 0 0 1.6h8.5a.8.8 0 0 0 .8-.8zm0 3.7a.8.8 0 0 0-.8-.8h-8.5a.8.8 0 0 0 0 1.6h8.5a.8.8 0 0 0 .8-.8zm0 3.7a.8.8 0 0 0-.8-.8h-8.5a.8.8 0 1 0 0 1.6h8.5a.8.8 0 0 0 .8-.8zm10.17 3.7a.8.8 0 0 0-.8-.8h-8.5a.8.8 0 0 0 0 1.6h8.5a.8.8 0 0 0 .8-.8zm0 3.7a.8.8 0 0 0-.8-.8h-8.5a.8.8 0 1 0 0 1.6h8.5a.8.8 0 0 0 .8-.8zm0 3.7a.8.8 0 0 0-.8-.8h-8.5a.8.8 0 1 0 0 1.59h8.5a.79.79 0 0 0 .8-.79zm-6.44-25.9a.93.93 0 1 0-.92.92.93.93 0 0 0 .92-.92zm2.78 0a.93.93 0 1 0-1.85 0 .93.93 0 0 0 1.85 0zm2.77 0a.93.93 0 1 0-.92.92.93.93 0 0 0 .92-.92zm2.78 0a.93.93 0 1 0-1.85 0 .93.93 0 0 0 1.85 0zm2.77 0a.93.93 0 1 0-1.85 0 .93.93 0 0 0 1.85 0zm2.77 0a.93.93 0 1 0-.92.92.93.93 0 0 0 .92-.92zm-13.87 7.4a.93.93 0 0 0-1.85 0 .93.93 0 1 0 1.85 0zm2.78 0a.93.93 0 1 0-.93.93.93.93 0 0 0 .93-.93zm2.77 0a.93.93 0 0 0-1.85 0 .93.93 0 1 0 1.85 0zm2.78 0a.93.93 0 1 0-.93.93.93.93 0 0 0 .93-.93zm2.77 0a.93.93 0 1 0-.93.93.92.92 0 0 0 .93-.93zm2.77 0a.93.93 0 0 0-1.85 0 .93.93 0 1 0 1.85 0zm-4.4 10.64a.93.93 0 1 0-.92.92.93.93 0 0 0 .92-.92zm2.78 0a.93.93 0 1 0-1.85 0 .93.93 0 0 0 1.85 0zm2.77 0a.93.93 0 1 0-1.85 0 .93.93 0 0 0 1.85 0zm2.77 0a.93.93 0 1 0-.92.92.93.93 0 0 0 .9-.92zm2.78 0a.93.93 0 1 0-1.85 0 .93.93 0 0 0 1.85 0zm2.77 0a.93.93 0 1 0-.92.92.93.93 0 0 0 .92-.92zM215.7 221a.93.93 0 0 0-1.85 0 .93.93 0 1 0 1.85 0zm2.78 0a.93.93 0 1 0-.93.93.93.93 0 0 0 .93-.93zm2.77 0a.93.93 0 1 0-.93.93.93.93 0 0 0 .93-.93zm2.77 0a.93.93 0 0 0-1.85 0 .93.93 0 1 0 1.85 0zm2.78 0a.93.93 0 1 0-.93.93.93.93 0 0 0 .93-.93zm2.77 0a.93.93 0 0 0-1.85 0 .93.93 0 1 0 1.85 0z"/><path d="M239.27 136.2H236a.8.8 0 0 1 0-1.6h3.24a.8.8 0 0 1 0 1.6zm.8 2.9a.79.79 0 0 0-.79-.8H236a.8.8 0 1 0 0 1.6h3.24a.79.79 0 0 0 .82-.8zm0 3.7a.79.79 0 0 0-.79-.8H236a.8.8 0 0 0 0 1.6h3.24a.79.79 0 0 0 .82-.8zm0 3.7a.79.79 0 0 0-.79-.8H236a.8.8 0 0 0-.8.8.79.79 0 0 0 .8.79h3.24a.79.79 0 0 0 .82-.79zm0 3.7a.79.79 0 0 0-.79-.79H236a.8.8 0 1 0 0 1.59h3.24a.79.79 0 0 0 .82-.8zm0 3.7a.79.79 0 0 0-.79-.79H236a.79.79 0 0 0-.8.79.8.8 0 0 0 .8.8h3.24a.79.79 0 0 0 .82-.8zm0 3.7a.79.79 0 0 0-.79-.8H236a.8.8 0 0 0 0 1.6h3.24a.79.79 0 0 0 .82-.8zm0 3.7a.79.79 0 0 0-.79-.8H236a.8.8 0 1 0 0 1.6h3.24a.79.79 0 0 0 .82-.8zm12.1-25.9a.8.8 0 0 0-.8-.8h-8.5a.8.8 0 0 0 0 1.6h8.5a.8.8 0 0 0 .8-.8zm0 3.7a.8.8 0 0 0-.8-.8h-8.5a.8.8 0 1 0 0 1.6h8.5a.8.8 0 0 0 .8-.8zm0 3.7a.8.8 0 0 0-.8-.8h-8.5a.8.8 0 0 0 0 1.6h8.5a.8.8 0 0 0 .8-.8zm0 3.7a.8.8 0 0 0-.8-.8h-8.5a.8.8 0 0 0-.8.8.79.79 0 0 0 .8.79h8.5a.79.79 0 0 0 .8-.79zm0 3.7a.79.79 0 0 0-.8-.79h-8.5a.8.8 0 1 0 0 1.59h8.5a.8.8 0 0 0 .8-.8zm10.17 3.7a.79.79 0 0 0-.8-.79h-8.5a.79.79 0 0 0-.8.79.8.8 0 0 0 .8.8h8.5a.8.8 0 0 0 .8-.8zm0 3.7a.8.8 0 0 0-.8-.8h-8.5a.8.8 0 0 0 0 1.6h8.5a.8.8 0 0 0 .8-.8zm0 3.7a.8.8 0 0 0-.8-.8h-8.5a.8.8 0 1 0 0 1.6h8.5a.8.8 0 0 0 .8-.8zm-6.43-25.9a.93.93 0 1 0-.93.93.93.93 0 0 0 .93-.93zm2.77 0a.93.93 0 0 0-1.85 0 .93.93 0 1 0 1.85 0zm2.78 0a.93.93 0 1 0-.93.93.93.93 0 0 0 .93-.93zm2.77 0a.93.93 0 0 0-1.85 0 .93.93 0 1 0 1.85 0zm2.77 0a.93.93 0 0 0-1.85 0 .93.93 0 1 0 1.85 0zm2.78 0a.93.93 0 1 0-.93.93.93.93 0 0 0 .93-.93zm-13.87 7.4a.93.93 0 1 0-1.85 0 .93.93 0 0 0 1.85 0zm2.77 0a.93.93 0 1 0-.92.92.93.93 0 0 0 .92-.92zm2.78 0a.93.93 0 1 0-1.85 0 .93.93 0 0 0 1.85 0zm2.77 0a.93.93 0 1 0-.92.92.93.93 0 0 0 .92-.92zm2.77 0a.93.93 0 1 0-.92.92.93.93 0 0 0 .92-.92zm2.78 0a.93.93 0 1 0-1.85 0 .93.93 0 0 0 1.85 0zm-4.4 10.63a.93.93 0 1 0-.93.93.93.93 0 0 0 .93-.93zm2.77 0a.93.93 0 0 0-1.85 0 .93.93 0 1 0 1.85 0zm2.77 0a.93.93 0 0 0-1.85 0 .93.93 0 1 0 1.85 0zm2.78 0a.93.93 0 1 0-.93.93.93.93 0 0 0 .93-.93zm2.77 0a.93.93 0 0 0-1.85 0 .93.93 0 1 0 1.85 0zm2.77 0a.92.92 0 1 0-.92.93.92.92 0 0 0 .92-.93zm-13.86 7.63a.93.93 0 1 0-1.85 0 .93.93 0 0 0 1.85 0zm2.77 0a.93.93 0 1 0-.92.92.93.93 0 0 0 .92-.92zm2.77 0a.93.93 0 1 0-.92.92.93.93 0 0 0 .92-.92zm2.78 0a.93.93 0 1 0-1.85 0 .93.93 0 0 0 1.85 0zm2.77 0a.93.93 0 1 0-.92.92.93.93 0 0 0 .92-.92zm2.77 0a.92.92 0 1 0-.92.92.93.93 0 0 0 .92-.92zm-39.97 5.46H236a.8.8 0 0 1 0-1.6h3.24a.8.8 0 0 1 0 1.6zm.8 2.9a.79.79 0 0 0-.79-.8H236a.8.8 0 0 0 0 1.6h3.24a.79.79 0 0 0 .82-.8zm0 3.7a.79.79 0 0 0-.79-.8H236a.8.8 0 1 0 0 1.6h3.24a.79.79 0 0 0 .82-.8zm0 3.7a.79.79 0 0 0-.79-.8H236a.8.8 0 1 0 0 1.59h3.24a.79.79 0 0 0 .82-.79zm0 3.7a.79.79 0 0 0-.79-.79H236a.8.8 0 1 0 0 1.59h3.24a.79.79 0 0 0 .82-.8zm0 3.7a.79.79 0 0 0-.79-.79H236a.79.79 0 0 0-.8.79.8.8 0 0 0 .8.8h3.24a.79.79 0 0 0 .82-.8zm0 3.7a.79.79 0 0 0-.79-.8H236a.8.8 0 1 0 0 1.6h3.24a.79.79 0 0 0 .82-.8zm0 3.7a.79.79 0 0 0-.79-.8H236a.8.8 0 1 0 0 1.6h3.24a.79.79 0 0 0 .82-.8zm12.1-25.9a.8.8 0 0 0-.8-.8h-8.5a.8.8 0 0 0 0 1.6h8.5a.8.8 0 0 0 .8-.8zm0 3.7a.8.8 0 0 0-.8-.8h-8.5a.8.8 0 0 0 0 1.6h8.5a.8.8 0 0 0 .8-.8zm0 3.7a.8.8 0 0 0-.8-.8h-8.5a.8.8 0 1 0 0 1.6h8.5a.8.8 0 0 0 .8-.8zm0 3.7a.8.8 0 0 0-.8-.8h-8.5a.8.8 0 1 0 0 1.59h8.5a.79.79 0 0 0 .8-.79zm0 3.7a.79.79 0 0 0-.8-.79h-8.5a.8.8 0 1 0 0 1.59h8.5a.8.8 0 0 0 .8-.8zm10.17 3.7a.79.79 0 0 0-.8-.79h-8.5a.79.79 0 0 0-.8.79.8.8 0 0 0 .8.8h8.5a.8.8 0 0 0 .8-.8zm0 3.7a.8.8 0 0 0-.8-.8h-8.5a.8.8 0 0 0 0 1.6h8.5a.8.8 0 0 0 .8-.8zm0 3.7a.8.8 0 0 0-.8-.8h-8.5a.8.8 0 1 0 0 1.6h8.5a.8.8 0 0 0 .8-.8zm-6.43-25.9a.93.93 0 1 0-.93.93.93.93 0 0 0 .93-.93zm2.77 0a.93.93 0 0 0-1.85 0 .93.93 0 1 0 1.85 0zm2.78 0a.93.93 0 1 0-.93.93.93.93 0 0 0 .93-.93zm2.77 0a.93.93 0 0 0-1.85 0 .93.93 0 1 0 1.85 0zm2.77 0a.93.93 0 0 0-1.85 0 .93.93 0 1 0 1.85 0zm2.78 0a.93.93 0 1 0-.93.93.93.93 0 0 0 .93-.93zm-13.87 7.4a.93.93 0 1 0-1.85 0 .93.93 0 0 0 1.85 0zm2.77 0a.93.93 0 1 0-.92.92.93.93 0 0 0 .92-.92zm2.78 0a.93.93 0 1 0-1.85 0 .93.93 0 0 0 1.85 0zm2.77 0a.93.93 0 1 0-.92.92.93.93 0 0 0 .92-.92zm2.77 0a.93.93 0 1 0-.92.92.93.93 0 0 0 .92-.92zm2.78 0a.93.93 0 1 0-1.85 0 .93.93 0 0 0 1.85 0zm-4.4 10.63a.93.93 0 1 0-.93.93.93.93 0 0 0 .93-.93zm2.77 0a.93.93 0 0 0-1.85 0 .93.93 0 1 0 1.85 0zm2.77 0a.93.93 0 0 0-1.85 0 .93.93 0 1 0 1.85 0zm2.78 0a.93.93 0 1 0-.93.93.93.93 0 0 0 .93-.93zm2.77 0a.93.93 0 0 0-1.85 0 .93.93 0 1 0 1.85 0zm2.77 0a.92.92 0 1 0-.92.93.92.92 0 0 0 .92-.93zm-13.86 7.63a.93.93 0 1 0-1.85 0 .93.93 0 0 0 1.85 0zm2.77 0a.93.93 0 1 0-.92.92.93.93 0 0 0 .92-.92zm2.77 0a.93.93 0 1 0-.92.92.93.93 0 0 0 .92-.92zm2.78 0a.93.93 0 1 0-1.85 0 .93.93 0 0 0 1.85 0zm2.77 0a.93.93 0 1 0-.92.92.93.93 0 0 0 .92-.92zm2.77 0a.92.92 0 1 0-.92.92.93.93 0 0 0 .92-.92z"/><path d="M80.18 203.44h-3.24a.8.8 0 1 1 0-1.6h3.24a.8.8 0 1 1 0 1.6zm.8 2.9a.8.8 0 0 0-.8-.8h-3.24a.8.8 0 0 0 0 1.6h3.24a.8.8 0 0 0 .82-.8zm0 3.7a.8.8 0 0 0-.8-.8h-3.24a.8.8 0 1 0 0 1.6h3.24A.8.8 0 0 0 81 210zm0 3.7a.8.8 0 0 0-.8-.8h-3.24a.8.8 0 0 0 0 1.6h3.24a.8.8 0 0 0 .82-.8zm0 3.7a.8.8 0 0 0-.8-.8h-3.24a.8.8 0 1 0 0 1.59h3.24a.79.79 0 0 0 .82-.79zm0 3.7a.79.79 0 0 0-.8-.79h-3.24a.8.8 0 1 0 0 1.59h3.24a.8.8 0 0 0 .82-.8zm0 3.7a.8.8 0 0 0-.8-.8h-3.24a.8.8 0 0 0 0 1.6h3.24a.8.8 0 0 0 .82-.8zm0 3.7a.8.8 0 0 0-.8-.8h-3.24a.8.8 0 1 0 0 1.6h3.24a.8.8 0 0 0 .82-.8zm12.1-25.9a.8.8 0 0 0-.8-.8h-8.5a.8.8 0 1 0 0 1.6h8.5a.8.8 0 0 0 .8-.8zm0 3.7a.8.8 0 0 0-.8-.8h-8.5a.8.8 0 1 0 0 1.6h8.5a.8.8 0 0 0 .8-.8zm0 3.7a.8.8 0 0 0-.8-.8h-8.5a.8.8 0 1 0 0 1.6h8.5a.8.8 0 0 0 .8-.84zm0 3.7a.8.8 0 0 0-.8-.8h-8.5a.8.8 0 1 0 0 1.6h8.5a.8.8 0 0 0 .8-.8zm0 3.7a.8.8 0 0 0-.8-.8h-8.5a.8.8 0 1 0 0 1.59h8.5a.79.79 0 0 0 .8-.79zm10.17 3.7a.79.79 0 0 0-.8-.79H94a.8.8 0 1 0 0 1.59h8.5a.79.79 0 0 0 .76-.8zm0 3.7a.8.8 0 0 0-.8-.8H94a.8.8 0 0 0 0 1.6h8.5a.8.8 0 0 0 .76-.8zm0 3.7a.8.8 0 0 0-.8-.8H94a.8.8 0 1 0 0 1.6h8.5a.8.8 0 0 0 .76-.8zm-6.43-25.9a.93.93 0 0 0-1.85 0 .93.93 0 1 0 1.85 0zm2.77 0a.93.93 0 0 0-1.85 0 .93.93 0 1 0 1.85 0zm2.78 0a.93.93 0 1 0-.93.93.93.93 0 0 0 .93-.93zm2.77 0a.93.93 0 0 0-1.85 0 .93.93 0 1 0 1.85 0zm2.78 0a.93.93 0 1 0-.93.93.93.93 0 0 0 .93-.93zm2.77 0a.93.93 0 1 0-.93.93.92.92 0 0 0 .93-.93zM96.82 210a.93.93 0 1 0-.92.92.93.93 0 0 0 .92-.92zm2.77 0a.93.93 0 1 0-.92.92.93.93 0 0 0 .92-.92zm2.78 0a.93.93 0 1 0-1.85 0 .93.93 0 0 0 1.85 0zm2.77 0a.93.93 0 1 0-.92.92.93.93 0 0 0 .92-.92zm2.78 0a.93.93 0 1 0-1.85 0 .93.93 0 0 0 1.85 0zm2.77 0a.93.93 0 1 0-1.85 0 .93.93 0 0 0 1.85 0zm-4.4 10.63a.93.93 0 1 0 0 .04zm2.77 0a.93.93 0 0 0-1.85 0 .93.93 0 1 0 1.85 0zm2.78 0a.93.93 0 1 0 0 .04zm2.77 0a.93.93 0 1 0 0 .04zm2.77 0a.93.93 0 0 0-1.85 0 .93.93 0 1 0 1.85 0zm2.78 0a.93.93 0 1 0 0 .04zm-13.87 7.67a.93.93 0 1 0-.93.92.93.93 0 0 0 .93-.92zm2.77 0a.93.93 0 1 0-.92.92.92.92 0 0 0 .92-.92zm2.78 0a.93.93 0 1 0-.93.92.93.93 0 0 0 .93-.92zm2.77 0a.93.93 0 1 0-.93.92.93.93 0 0 0 .93-.92zm2.77 0a.93.93 0 1 0-.92.92.92.92 0 0 0 .92-.92zm2.78 0a.93.93 0 1 0-.93.92.93.93 0 0 0 .93-.92zM80.18 233h-3.24a.8.8 0 0 1 0-1.6h3.24a.8.8 0 0 1 0 1.6zm.8 2.9a.8.8 0 0 0-.8-.8h-3.24a.8.8 0 1 0 0 1.59h3.24a.79.79 0 0 0 .82-.75zm0 3.7a.79.79 0 0 0-.8-.79h-3.24a.8.8 0 1 0 0 1.59h3.24a.8.8 0 0 0 .82-.76zm0 3.7a.8.8 0 0 0-.8-.8h-3.24a.8.8 0 0 0 0 1.6h3.24a.8.8 0 0 0 .82-.76zm0 3.7a.8.8 0 0 0-.8-.8h-3.24a.8.8 0 1 0 0 1.6h3.24a.8.8 0 0 0 .82-.8zm0 3.7a.8.8 0 0 0-.8-.8h-3.24a.8.8 0 1 0 0 1.6h3.24a.8.8 0 0 0 .82-.76zm0 3.7a.8.8 0 0 0-.8-.8h-3.24a.8.8 0 0 0 0 1.6h3.24a.8.8 0 0 0 .82-.76zm0 3.7a.8.8 0 0 0-.8-.8h-3.24a.8.8 0 0 0-.8.8.79.79 0 0 0 .8.79h3.24a.79.79 0 0 0 .82-.75zm12.1-25.9a.8.8 0 0 0-.8-.8h-8.5a.8.8 0 1 0 0 1.6h8.5a.8.8 0 0 0 .8-.76zm0 3.7a.8.8 0 0 0-.8-.8h-8.5a.8.8 0 1 0 0 1.59h8.5a.79.79 0 0 0 .8-.75zm0 3.7a.79.79 0 0 0-.8-.79h-8.5a.8.8 0 1 0 0 1.59h8.5a.8.8 0 0 0 .8-.76zm0 3.7a.8.8 0 0 0-.8-.8h-8.5a.8.8 0 1 0 0 1.6h8.5a.8.8 0 0 0 .8-.76zm0 3.7a.8.8 0 0 0-.8-.8h-8.5a.8.8 0 1 0 0 1.6h8.5a.8.8 0 0 0 .8-.79zm10.17 3.7a.8.8 0 0 0-.8-.8H94a.8.8 0 1 0 0 1.6h8.5a.8.8 0 0 0 .76-.76zm0 3.7a.8.8 0 0 0-.8-.8H94a.8.8 0 0 0 0 1.6h8.5a.8.8 0 0 0 .76-.76zm0 3.7a.8.8 0 0 0-.8-.8H94a.8.8 0 0 0-.8.8.79.79 0 0 0 .8.79h8.5a.79.79 0 0 0 .76-.75zm-6.43-25.9a.93.93 0 1 0 0 .04zm2.77 0a.93.93 0 1 0 0 .04zm2.78 0a.93.93 0 1 0-1.85 0 .93.93 0 0 0 1.85 0zm2.77 0a.93.93 0 1 0 0 .04zm2.78 0a.93.93 0 1 0-1.85 0 .93.93 0 0 0 1.85 0zm2.77 0a.93.93 0 1 0-1.85 0 .93.93 0 0 0 1.85 0zm-13.87 7.4a.93.93 0 1 0-.92.93.92.92 0 0 0 .92-.89zm2.77 0a.93.93 0 0 0-1.85 0 .93.93 0 1 0 1.85 0zm2.78 0a.93.93 0 1 0 0 .04zm2.77 0a.93.93 0 0 0-1.85 0 .93.93 0 1 0 1.85 0zm2.78 0a.93.93 0 1 0 0 .04zm2.77 0a.93.93 0 1 0-.93.93.92.92 0 0 0 .93-.89zm-4.4 10.64a.93.93 0 1 0-1.85 0 .93.93 0 0 0 1.85 0zm2.77 0a.93.93 0 1 0 0 .04zm2.78 0a.93.93 0 1 0-1.85 0 .93.93 0 0 0 1.85 0zm2.77 0a.93.93 0 1 0-1.85 0 .93.93 0 0 0 1.85 0zm2.77 0a.93.93 0 1 0 0 .04zm2.78 0a.93.93 0 1 0-1.85 0 .93.93 0 0 0 1.85 0zm-13.87 7.67a.93.93 0 1 0-1.85 0 .93.93 0 0 0 1.85 0zm2.77 0a.93.93 0 1 0-.92.92.92.92 0 0 0 .92-.92zm2.78 0a.93.93 0 1 0-1.85 0 .93.93 0 0 0 1.85 0zm2.77 0a.93.93 0 1 0-1.85 0 .93.93 0 0 0 1.85 0zm2.77 0a.93.93 0 1 0-.92.92.92.92 0 0 0 .92-.92zm2.78 0a.93.93 0 1 0-1.85 0 .93.93 0 0 0 1.85 0z"/><path d="M80.18 263.35h-3.24a.8.8 0 1 1 0-1.6h3.24a.8.8 0 0 1 0 1.6zm.8 2.9a.8.8 0 0 0-.8-.8h-3.24a.8.8 0 1 0 0 1.59h3.24a.79.79 0 0 0 .82-.79zm0 3.7a.79.79 0 0 0-.8-.79h-3.24a.8.8 0 1 0 0 1.59h3.24a.8.8 0 0 0 .82-.8zm0 3.7a.8.8 0 0 0-.8-.8h-3.24a.8.8 0 1 0 0 1.6h3.24a.8.8 0 0 0 .82-.8zm0 3.7a.8.8 0 0 0-.8-.8h-3.24a.8.8 0 1 0 0 1.6h3.24a.8.8 0 0 0 .82-.8zm0 3.7a.8.8 0 0 0-.8-.8h-3.24a.8.8 0 0 0 0 1.6h3.24A.8.8 0 0 0 81 281zm0 3.7a.8.8 0 0 0-.8-.8h-3.24a.8.8 0 1 0 0 1.6h3.24a.8.8 0 0 0 .82-.8zm0 3.7a.8.8 0 0 0-.8-.8h-3.24a.8.8 0 0 0-.8.8.79.79 0 0 0 .8.79h3.24a.79.79 0 0 0 .82-.79zm12.1-25.9a.8.8 0 0 0-.8-.8h-8.5a.8.8 0 0 0 0 1.6h8.5a.8.8 0 0 0 .8-.8zm0 3.7a.8.8 0 0 0-.8-.8h-8.5a.8.8 0 1 0 0 1.59h8.5a.79.79 0 0 0 .8-.79zm0 3.7a.79.79 0 0 0-.8-.79h-8.5a.8.8 0 1 0 0 1.59h8.5a.8.8 0 0 0 .8-.8zm0 3.7a.8.8 0 0 0-.8-.8h-8.5a.8.8 0 1 0 0 1.6h8.5a.8.8 0 0 0 .8-.8zm0 3.7a.8.8 0 0 0-.8-.8h-8.5a.8.8 0 1 0 0 1.6h8.5a.8.8 0 0 0 .8-.8zm10.17 3.7a.8.8 0 0 0-.8-.8H94a.8.8 0 0 0 0 1.6h8.5a.8.8 0 0 0 .76-.84zm0 3.7a.8.8 0 0 0-.8-.8H94a.8.8 0 1 0 0 1.6h8.5a.8.8 0 0 0 .76-.8zm0 3.7a.8.8 0 0 0-.8-.8H94a.8.8 0 0 0-.8.8.79.79 0 0 0 .8.79h8.5a.79.79 0 0 0 .76-.79zm-6.43-25.9a.93.93 0 1 0-.92.92.93.93 0 0 0 .92-.92zm2.77 0a.93.93 0 1 0-.92.92.93.93 0 0 0 .92-.92zm2.78 0a.93.93 0 1 0-1.85 0 .93.93 0 0 0 1.85 0zm2.77 0a.93.93 0 1 0-.92.92.93.93 0 0 0 .92-.92zm2.78 0a.93.93 0 1 0-1.85 0 .93.93 0 0 0 1.85 0zm2.77 0a.93.93 0 1 0-1.85 0 .93.93 0 0 0 1.85 0zm-13.87 7.4a.93.93 0 0 0-1.85 0 .93.93 0 1 0 1.85 0zm2.77 0a.93.93 0 0 0-1.85 0 .93.93 0 1 0 1.85 0zm2.78 0a.93.93 0 1 0-.93.93.93.93 0 0 0 .93-.93zm2.77 0a.93.93 0 0 0-1.85 0 .93.93 0 1 0 1.85 0zm2.78 0a.93.93 0 1 0-.93.93.93.93 0 0 0 .93-.93zm2.77 0a.93.93 0 1 0-.93.93.92.92 0 0 0 .93-.93zm-4.4 10.64a.93.93 0 1 0-1.85 0 .93.93 0 0 0 1.85 0zm2.77 0a.93.93 0 1 0-.92.92.93.93 0 0 0 .92-.92zm2.78 0a.93.93 0 1 0-1.85 0 .93.93 0 0 0 1.85 0zm2.77 0a.93.93 0 1 0-1.85 0 .93.93 0 0 0 1.85 0zm2.77 0a.93.93 0 1 0-.92.92.93.93 0 0 0 .92-.92zm2.78 0a.93.93 0 1 0-1.85 0 .93.93 0 0 0 1.85 0zm-13.87 7.63a.93.93 0 1 0-1.85 0 .93.93 0 0 0 1.85 0zm2.77 0a.93.93 0 1 0-.92.92.92.92 0 0 0 .92-.92zm2.78 0a.93.93 0 1 0-1.85 0 .93.93 0 0 0 1.85 0zm2.77 0a.93.93 0 1 0-1.85 0 .93.93 0 0 0 1.85 0zm2.77 0a.93.93 0 1 0-.92.92.92.92 0 0 0 .92-.92zm2.78 0a.93.93 0 1 0-1.85 0 .93.93 0 0 0 1.85 0zm9.7-84.78h-3.23a.8.8 0 1 1 0-1.6h3.23a.8.8 0 0 1 0 1.6zm.8 2.9a.8.8 0 0 0-.8-.8h-3.23a.8.8 0 0 0 0 1.6h3.23a.8.8 0 0 0 .8-.8zm0 3.7a.8.8 0 0 0-.8-.8h-3.23a.8.8 0 1 0 0 1.6h3.23a.8.8 0 0 0 .8-.84zm0 3.7a.8.8 0 0 0-.8-.8h-3.23a.8.8 0 0 0 0 1.6h3.23a.8.8 0 0 0 .8-.8zm0 3.7a.8.8 0 0 0-.8-.8h-3.23a.8.8 0 1 0 0 1.59h3.23a.79.79 0 0 0 .8-.79zm0 3.7a.79.79 0 0 0-.8-.79h-3.23a.8.8 0 1 0 0 1.59h3.23a.8.8 0 0 0 .8-.8zm0 3.7a.8.8 0 0 0-.8-.8h-3.23a.8.8 0 0 0 0 1.6h3.23a.8.8 0 0 0 .8-.8zm0 3.7a.8.8 0 0 0-.8-.8h-3.23a.8.8 0 1 0 0 1.6h3.23a.8.8 0 0 0 .8-.8zm12.1-25.9a.8.8 0 0 0-.8-.8h-8.5a.8.8 0 0 0 0 1.6H142a.8.8 0 0 0 .77-.8zm0 3.7a.8.8 0 0 0-.8-.8h-8.5a.8.8 0 0 0 0 1.6H142a.8.8 0 0 0 .77-.8zm0 3.7a.8.8 0 0 0-.8-.8h-8.5a.8.8 0 0 0 0 1.6H142a.8.8 0 0 0 .77-.84zm0 3.7a.8.8 0 0 0-.8-.8h-8.5a.8.8 0 0 0 0 1.6H142a.8.8 0 0 0 .77-.8zm0 3.7a.8.8 0 0 0-.8-.8h-8.5a.8.8 0 0 0 0 1.59H142a.79.79 0 0 0 .77-.79zm10.17 3.7a.79.79 0 0 0-.8-.79h-8.5a.8.8 0 0 0 0 1.59h8.5a.8.8 0 0 0 .8-.8zm0 3.7a.8.8 0 0 0-.8-.8h-8.5a.8.8 0 0 0 0 1.6h8.5a.8.8 0 0 0 .8-.8zm0 3.7a.8.8 0 0 0-.8-.8h-8.5a.8.8 0 0 0 0 1.6h8.5a.8.8 0 0 0 .8-.8zm-6.44-25.9a.92.92 0 1 0-.92.93.92.92 0 0 0 .92-.93zm2.78 0a.93.93 0 1 0-.93.93.93.93 0 0 0 .93-.93zm2.77 0a.93.93 0 0 0-1.85 0 .93.93 0 1 0 1.85 0zm2.78 0a.93.93 0 1 0-.93.93.93.93 0 0 0 .93-.93zm2.77 0a.93.93 0 0 0-1.85 0 .93.93 0 1 0 1.85 0zm2.77 0a.93.93 0 0 0-1.85 0 .93.93 0 1 0 1.85 0zM146.5 210a.92.92 0 1 0-.92.92.93.93 0 0 0 .92-.92zm2.78 0a.93.93 0 1 0-1.85 0 .93.93 0 0 0 1.85 0zm2.77 0a.93.93 0 1 0-.92.92.93.93 0 0 0 .92-.92zm2.78 0a.93.93 0 1 0-1.85 0 .93.93 0 0 0 1.85 0zm2.77 0a.93.93 0 1 0-.92.92.93.93 0 0 0 .92-.92zm2.77 0a.93.93 0 1 0-.92.92.93.93 0 0 0 .92-.92zM156 220.67a.93.93 0 0 0-1.85 0 .93.93 0 1 0 1.85 0zm2.78 0a.93.93 0 1 0-.93.93.93.93 0 0 0 .91-.93zm2.77 0a.93.93 0 0 0-1.85 0 .93.93 0 1 0 1.85 0zm2.77 0a.93.93 0 0 0-1.85 0 .93.93 0 1 0 1.85 0zm2.78 0a.93.93 0 1 0-.93.93.93.93 0 0 0 .91-.93zm2.77 0a.93.93 0 0 0-1.85 0 .93.93 0 1 0 1.85 0zM156 228.3a.93.93 0 1 0-.92.92.92.92 0 0 0 .92-.92zm2.78 0a.93.93 0 1 0-.93.92.93.93 0 0 0 .91-.92zm2.77 0a.93.93 0 1 0-.92.92.92.92 0 0 0 .9-.92zm2.77 0a.93.93 0 1 0-.92.92.92.92 0 0 0 .9-.92zm2.78 0a.93.93 0 1 0-.93.92.93.93 0 0 0 .91-.92zm2.77 0a.93.93 0 1 0-.92.92.92.92 0 0 0 .9-.92z"/><path d="M129.86 233.75h-3.23a.8.8 0 1 1 0-1.6h3.23a.8.8 0 0 1 0 1.6zm.8 2.9a.8.8 0 0 0-.8-.8h-3.23a.8.8 0 0 0 0 1.6h3.23a.8.8 0 0 0 .8-.8zm0 3.7a.8.8 0 0 0-.8-.8h-3.23a.8.8 0 1 0 0 1.6h3.23a.8.8 0 0 0 .8-.8zm0 3.7a.8.8 0 0 0-.8-.8h-3.23a.8.8 0 0 0 0 1.6h3.23a.8.8 0 0 0 .8-.8zm0 3.7a.8.8 0 0 0-.8-.8h-3.23a.8.8 0 1 0 0 1.59h3.23a.79.79 0 0 0 .8-.79zm0 3.7a.79.79 0 0 0-.8-.79h-3.23a.8.8 0 1 0 0 1.59h3.23a.8.8 0 0 0 .8-.8zm0 3.7a.8.8 0 0 0-.8-.8h-3.23a.8.8 0 1 0 0 1.6h3.23a.8.8 0 0 0 .8-.8zm0 3.7a.8.8 0 0 0-.8-.8h-3.23a.8.8 0 1 0 0 1.6h3.23a.8.8 0 0 0 .8-.8zm12.1-25.84a.8.8 0 0 0-.8-.8h-8.5a.8.8 0 0 0 0 1.6H142a.8.8 0 0 0 .77-.8zm0 3.7a.8.8 0 0 0-.8-.8h-8.5a.8.8 0 0 0 0 1.6H142a.8.8 0 0 0 .77-.85zm0 3.7a.8.8 0 0 0-.8-.8h-8.5a.8.8 0 0 0 0 1.6H142a.8.8 0 0 0 .77-.85zm0 3.7a.8.8 0 0 0-.8-.8h-8.5a.8.8 0 0 0 0 1.6H142a.8.8 0 0 0 .77-.85zm0 3.7a.8.8 0 0 0-.8-.8h-8.5a.8.8 0 0 0 0 1.59H142a.79.79 0 0 0 .77-.84zm10.17 3.7a.79.79 0 0 0-.8-.79h-8.5a.8.8 0 0 0 0 1.59h8.5a.8.8 0 0 0 .8-.85zm0 3.7a.8.8 0 0 0-.8-.8h-8.5a.8.8 0 0 0 0 1.6h8.5a.8.8 0 0 0 .8-.85zm0 3.7a.8.8 0 0 0-.8-.8h-8.5a.8.8 0 0 0 0 1.6h8.5a.8.8 0 0 0 .8-.85zM146.5 233a.92.92 0 1 0-.92.93.92.92 0 0 0 .92-.93zm2.78 0a.93.93 0 1 0-.93.93.93.93 0 0 0 .93-.93zm2.77 0a.93.93 0 0 0-1.85 0 .93.93 0 1 0 1.85 0zm2.78 0a.93.93 0 1 0-.93.93.93.93 0 0 0 .93-.93zm2.77 0a.93.93 0 0 0-1.85 0 .93.93 0 1 0 1.85 0zm2.77 0a.93.93 0 0 0-1.85 0 .93.93 0 1 0 1.85 0zm-13.87 7.4a.92.92 0 1 0-.92.92.93.93 0 0 0 .92-.97zm2.78 0a.93.93 0 1 0-1.85 0 .93.93 0 0 0 1.85 0zm2.77 0a.93.93 0 1 0-.92.92.93.93 0 0 0 .92-.97zm2.78 0a.93.93 0 1 0-1.85 0 .93.93 0 0 0 1.85 0zm2.77 0a.93.93 0 1 0-.92.92.93.93 0 0 0 .92-.97zm2.77 0a.93.93 0 1 0-.92.92.93.93 0 0 0 .92-.97zM156 251a.93.93 0 0 0-1.85 0 .93.93 0 1 0 1.85 0zm2.78 0a.93.93 0 1 0-.93.93.93.93 0 0 0 .91-.93zm2.77 0a.93.93 0 0 0-1.85 0 .93.93 0 1 0 1.85 0zm2.77 0a.93.93 0 0 0-1.85 0 .93.93 0 1 0 1.85 0zm2.78 0a.93.93 0 1 0-.93.93.93.93 0 0 0 .91-.93zm2.77 0a.93.93 0 0 0-1.85 0 .93.93 0 1 0 1.85 0zM156 258.6a.93.93 0 1 0-.92.92.92.92 0 0 0 .92-.92zm2.78 0a.93.93 0 1 0-.93.92.93.93 0 0 0 .91-.92zm2.77 0a.93.93 0 1 0-.92.92.92.92 0 0 0 .9-.92zm2.77 0a.93.93 0 1 0-.92.92.92.92 0 0 0 .9-.92zm2.78 0a.93.93 0 1 0-.93.92.93.93 0 0 0 .91-.92zm2.77 0a.93.93 0 1 0-.92.92.92.92 0 0 0 .9-.92z"/></g><g class="E"><path d="M79.5,406.28s-7-95-12.5-118.5,21.5-28.5,60.5-31.5,57-.5,65.5,5,12.27,70.43,18,93.5,10,53,10,53Z" class="C D"/><path d="M424.27 327.55c-5.35 6.7-8 10.42-9.1 12.1a128.73 128.73 0 0 1 6.11-21.59 63.64 63.64 0 0 0 3.72-16.88l-.5.27-.46-.9c.18-.1 18.42-9.78 23.58-18.9l.87.5c-4.66 8.24-19.06 16.6-23 18.76 3.74-.36 15.42-2.13 22.37-10.72 8.35-10.3 6.88-23.1 6.88-23.1s-15.74 10.8-22.12 19.16a59.45 59.45 0 0 0-7.44 12.41 86.74 86.74 0 0 0-1.55-20.31c5.25-4.13 24.56-20 26.68-31.9 2.46-13.75-1-37.34-1-37.34a121.44 121.44 0 0 1-6.88 14.25c-4.42 7.86-18.18 20.15-20.64 33.4a57.93 57.93 0 0 0-1 10.06 197 197 0 0 0-7.94-21.75 41.4 41.4 0 0 1-2-5.85h0l-.43-.26c.1-.15 8.95-15.1 8.95-19.38h1c0 4-6.76 15.9-8.63 19.1 3.1-1.86 8.13-5.67 10-11.6 2.82-8.8-1.35-16.7-1.35-16.7s-7.47 11-9.5 18a41.51 41.51 0 0 0-1.71 9.85c-1.43-3.64-3.62-8.58-6.14-11.93-4.42-5.9-7.37-14.74-7.37-14.74s-5.4 9.33-1.47 19.16c3.23 8.07 12.42 11.17 15.6 12 .35 1.07.74 2.1 1.17 3.1a168.38 168.38 0 0 1 10.06 30.24c-2.3-3.05-6.6-8.42-10.7-11.42-5.94-4.36-11.33-12-11.33-12s-2.46 10.5 4.15 18.77c5.4 6.75 15 7.08 18.36 7 2.27 11.9 2.53 24.32-1.32 36.32-.25-2.33-1.65-8.67-9.37-15.76-9.74-9-29.23-37.6-29.23-37.6s1.55 33.8 10.9 44.92c8.56 10.2 24.72 9.6 27.38 9.42l-.56 1.6c-6.15 16.53-7.45 28.12-7.6 34.25h-11.5v53.56h31.94v-53.53h-18.3a76 76 0 0 1 1.08-10.42l-.33.1-.27-1c.2-.05 20.2-5.7 34.2-20.08l.72.7c-11.3 11.62-26.43 17.6-32.24 19.58 5.78-.7 19.9-2.84 26.44-7.08 8.36-5.4 15.73-21.62 15.73-21.62s-27.03 5.94-34.9 15.77zm-15.2-87a25.11 25.11 0 0 1-12.82-17.16l1-.2a24 24 0 0 0 12.25 16.45zm14.14 38.16l-.2.3-.38-.16c-.56-.22-13.63-5.6-18.95-13.37l.83-.57c4.65 6.8 15.9 11.9 18.12 12.86 1.7-2.6 12.3-19.08 16-29.44l.94.34c-4.04 11.34-16.22 29.84-16.35 30.03zm-4.65 36.67c-.15-.05-15.73-5.92-22.67-19.38l.9-.45c6.76 13.1 22 18.84 22.13 18.9z"/></g><use xlink:href="#H" class="B"/><g clip-path="url(#A)"><use xlink:href="#I" class="F"/><use xlink:href="#I" class="B I"/><path d="M254.43,290.37s15,7.33,20.67,14.67a44.39,44.39,0,0,0-19.67-18Z" class="C D E"/></g><use xlink:href="#H" class="C D G"/><use xlink:href="#J" class="B"/><g clip-path="url(#B)"><use xlink:href="#K" class="F"/><use xlink:href="#K" class="B I"/></g><use xlink:href="#J" class="C D G"/><use xlink:href="#L" class="B"/><g clip-path="url(#C)"><use xlink:href="#M" class="F"/><use xlink:href="#M" class="B I"/><path d="M207.77 290.3c-7.53-11.78-13.18-17-13.18-17a66.73 66.73 0 0 0-5.18 25 48.56 48.56 0 0 0 .8 8.4l21.08.65 5.15-4.8a148.6 148.6 0 0 1-8.67-12.24z" class="C D E"/></g><g class="C D"><g class="G"><use xlink:href="#L"/><g class="H"><path d="M162.9 303.47s9.5-22.9 25.05-28.5m-66.08 47.5s13 21.17 14.7 39.3m1.28-19.87s4.32 27.22 4.32 41a116.11 116.11 0 0 0 2.16 23.33"/><path d="M141.74 376.9a136.59 136.59 0 0 0 3.46-32.4m114.9-2.16s1.3 15.56 4.32 34.56l4.75 28.5"/></g></g><g class="B"><path d="M189.64 379.2l-10.5 21.34-3.4 7.45H192s9.14-6.1 10.16-6.44 6.77 0 10.83-1.7 8.13-6.1 12.2-7.1 9.48-2.7 11.18-2.7 7.45 1.7 11.17 1.7S256 388 253 386.3s-5.42-.68-9.48-2.7-5.42-2.7-9.48-2-7.45-1.7-17.27-3.72-21.04-2.75-27.13 1.3z"/><path d="M218 368.8s5.33-4.54 9.7-2.35 2.35 16.3 3.45 21.93 2.35 8.6-.47 8.93-3.92-1.88-6.1-6.9S218 368.8 218 368.8z"/><path d="M205 371.6s7.05-6.27 10.18-6.27 5.64 11.12 8 16 5.82 10.66 4.38 12.2-4.4 2.2-6.9-.47-8-14.4-9.55-16.3a48.21 48.21 0 0 0-6.11-5.17z"/><path d="M197.8 373.8s.47-2.2 7.2-2.2 12.53 9.4 16.6 11.6 2.82 3.13-.15 4.54-4.86-.15-10.8-3.44-12.85-10.5-12.85-10.5z"/><path d="M190.3 389.35l4.75-7.8a15 15 0 0 1 6.09 2.71c2.37 2 6.77 6.1 12.2 6.1s7.1-1.7 5.08-3.4-8.13-4.74-12.53-7.8-7.8-8.12-11.17-7.1-5.72 7.45-9.48 15.92" class="H"/></g></g><use xlink:href="#N" class="B"/><g clip-path="url(#D)"><use xlink:href="#O" class="F"/><use xlink:href="#O" class="B I"/></g><g class="C D G"><use xlink:href="#N"/><path d="M239.67 266.05s.26 13.34 7.06 16.74a1.59 1.59 0 0 1 .79 2.36c-.8 1.83-6.8 2.87-11-.27" class="H"/></g><path d="M245.45 254.72a1.5 1.5 0 0 1-.95-2.66c.24-.2 6-4.84 15.16-1.63a1.501 1.501 0 1 1-1 2.83c-7.57-2.66-12.2 1.08-12.25 1.12a1.5 1.5 0 0 1-.96.34zm-15.75-1.82a1.49 1.49 0 0 1-1.3-.74c-.16-.27-3.76-6.2-10.84-5.2a1.5 1.5 0 0 1-1.69-1.28 1.52 1.52 0 0 1 1.28-1.7c9.12-1.26 13.65 6.35 13.84 6.68a1.5 1.5 0 0 1-.54 2.05 1.48 1.48 0 0 1-.75.2z" class="E"/><path d="M234.15 299.25h4.23" class="C D G H"/><use xlink:href="#P" class="E"/><g clip-path="url(#E)" class="B"><g opacity=".2"><path d="M194.7 264.22c2.1-3.4-.8-8.37 2.6-10.46s8.1-5.5 5.5-9.94-1.3-11 4.2-11.77c4.13-.6 7.82-2.8 8.17-2.08 1.77-2.44 2.53-4.3 0-3.55-4.86 1.46-19.92 3.9-18.47 8.75s2.43 7.28-1.45 8.74-3.9 4.86-3.9 8.75c0 3.32-1.57 8.83-2 10.36 2.1 1.98 4.2 3.07 5.35 1.2zm74.53-26.15l.34 4.87.16.77a33 33 0 0 0-.46-5.37c.3 1.73 2.12 11.28 5.45 11.76 3.66.52 8.63-5.76 7.06-9.68l-1.12-2.68c-1.2 1.9-2.87 3.74-4.77 3.74-3.9 0-6.66-3.4-6.66-3.4zm-5.17 6.73c-3.22-7.24-6.75-16.63-8.58-19.36-2.9-4.37-13.12 11.66-21.86 17-3.57 2.18-6.14 3.13-7.77 3.15-.32 1.67-.2 3 .74 3.2 3.14.8 27.73-15.43 27.73-15.43a142.79 142.79 0 0 0 9.74 11.45zm-57.6-.67c-.48 1.5-.3 2.6 1 2.83 3.36.6 14.16-6 19.26-9.22 2.9-3.55 6.47-5.74 6.86-8.9.48-3.9-18 11.66-24.3 14.58a5.4 5.4 0 0 1-2.83.7z"/></g></g><use xlink:href="#P" class="C D G"/><g class="E"><path d="M234.4 255.72s-3.82-4.1-14.1-3.82-17.63 2.06-19.68 3.24-.88 2.64-.3 4.7 2.06 11.74 4.4 15.56 8.52 7.05 12.63 7.05 6.46-.88 10.87-4.1 7.34-15 7.64-15.86 0-2.64 2.93-1.76 3.23 13.8 4.12 16.45 6.75 6.16 11.45 6.16 9.1-2.35 12.93-9.1a21.43 21.43 0 0 0 2.64-13.23s4.1-3.23.88-4.4-14.34-4.26-21.44-2.05c-8.52 2.65-12.93 2.06-14.98 1.18z"/><path d="M202.08 255.43l-19.7 2.64v2.35l19.4-1.17s-1.78-2.94.3-3.82z"/></g><path d="M254.35 280.47c-5.76 0-8.7-3.06-9.34-8.37-.77-6.36-1.45-10.8-3.45-12.92a45.41 45.41 0 0 0 8.66-1.9 17.68 17.68 0 0 1 5.07-.64 48.51 48.51 0 0 1 12.87 2.11l-1.35 1.08.3 1.7a18.78 18.78 0 0 1-2.32 11.3c-3.87 6.86-7.8 7.65-10.44 7.65zm-37-.88c-3 0-8.3-2.63-10.2-5.7-1.5-2.44-2.77-8.62-3.45-11.93-.27-1.34-.47-2.3-.64-2.92s-.3-.95-.47-1.4l-.1-.25c2.3-1 8.85-2.38 17.86-2.64h1c7.9 0 10.93 2.88 11 2.9l.4.45.56.24a12.34 12.34 0 0 0 1.17.41 5 5 0 0 0-1.27 2.67v.2c0 .05-.1.3-.2.65-2.92 10.3-5.45 13.05-6.4 13.75-4.27 3.03-6.05 3.55-9.3 3.55z" class="F"/><path d="M210.43 259.55h-1.5a.38.38 0 0 1-.37-.37.37.37 0 0 1 .37-.37h1.5a.37.37 0 0 1 .37.37.38.38 0 0 1-.37.37zm.37 1.35a.37.37 0 0 0-.37-.37h-1.5a.37.37 0 0 0-.37.37.38.38 0 0 0 .37.37h1.5a.38.38 0 0 0 .37-.37zm0 1.72a.38.38 0 0 0-.37-.37h-1.5a.38.38 0 0 0-.37.37.37.37 0 0 0 .37.37h1.5a.37.37 0 0 0 .37-.37zm0 1.72a.38.38 0 0 0-.37-.37h-1.5a.38.38 0 0 0-.37.37.37.37 0 0 0 .37.37h1.5a.37.37 0 0 0 .37-.37zm0 1.72a.38.38 0 0 0-.37-.37h-1.5a.38.38 0 0 0-.37.37.37.37 0 0 0 .37.37h1.5a.37.37 0 0 0 .37-.37zm0 1.72a.38.38 0 0 0-.37-.37h-1.5a.38.38 0 0 0-.37.37.37.37 0 0 0 .37.37h1.5a.37.37 0 0 0 .37-.37zm0 1.72a.38.38 0 0 0-.37-.37h-1.5a.38.38 0 0 0 0 .75h1.5a.38.38 0 0 0 .37-.38zm0 1.72a.38.38 0 0 0-.37-.37h-1.5a.38.38 0 0 0 0 .75h1.5a.38.38 0 0 0 .37-.38zm5.63-12a.36.36 0 0 0-.37-.37h-3.95a.36.36 0 0 0-.37.37.37.37 0 0 0 .37.37h3.95a.37.37 0 0 0 .37-.41zm0 1.72a.36.36 0 0 0-.37-.37h-3.95a.36.36 0 0 0-.37.37.37.37 0 0 0 .37.37h3.95a.37.37 0 0 0 .37-.41zm0 1.72a.37.37 0 0 0-.37-.37h-3.95a.37.37 0 0 0-.37.37.36.36 0 0 0 .37.37h3.95a.36.36 0 0 0 .37-.41zm0 1.72a.37.37 0 0 0-.37-.37h-3.95a.37.37 0 0 0-.37.37.36.36 0 0 0 .37.37h3.95a.36.36 0 0 0 .37-.41zm0 1.72a.37.37 0 0 0-.37-.37h-3.95a.37.37 0 0 0-.37.37.36.36 0 0 0 .37.37h3.95a.36.36 0 0 0 .37-.41zm4.74 1.72a.38.38 0 0 0-.38-.37h-3.95a.38.38 0 0 0-.37.37.37.37 0 0 0 .37.37h3.95a.37.37 0 0 0 .38-.41zm0 1.72a.38.38 0 0 0-.38-.37h-3.95a.38.38 0 0 0 0 .75h3.95a.38.38 0 0 0 .38-.42zm0 1.72a.38.38 0 0 0-.38-.37h-3.95a.38.38 0 0 0 0 .75h3.95a.38.38 0 0 0 .38-.42zm-3-12a.43.43 0 1 0-.43.43.43.43 0 0 0 .43-.51zm1.3 0a.43.43 0 1 0-.43.43.43.43 0 0 0 .43-.51zm1.3 0a.43.43 0 1 0-.43.43.43.43 0 0 0 .43-.51zm1.3 0a.44.44 0 1 0 0-.08zm1.3 0a.43.43 0 1 0-.43.43.43.43 0 0 0 .43-.51zm1.3 0a.43.43 0 1 0-.43.43.43.43 0 0 0 .43-.51zm-6.46 3.44a.43.43 0 1 0-.43.43.43.43 0 0 0 .43-.51zm1.3 0a.43.43 0 1 0-.43.43.43.43 0 0 0 .43-.51zm1.3 0a.43.43 0 1 0-.43.43.43.43 0 0 0 .43-.51zm1.3 0a.44.44 0 1 0 0-.08zm1.3 0a.43.43 0 1 0-.43.43.43.43 0 0 0 .43-.51zm1.3 0a.43.43 0 1 0-.43.43.43.43 0 0 0 .43-.51zm-2 4.95a.43.43 0 1 0-.05-.08zm1.3 0a.43.43 0 1 0-.05-.08zm1.3 0a.43.43 0 1 0-.05-.08zm1.3 0a.43.43 0 1 0-.05-.08zm1.3 0a.44.44 0 1 0-.43.43.43.43 0 0 0 .38-.51zm1.3 0a.43.43 0 1 0-.09-.08zm-6.46 3.55a.43.43 0 0 0-.86 0 .43.43 0 0 0 .86 0zm1.3 0a.43.43 0 0 0-.86 0 .44.44 0 0 0 .43.43.43.43 0 0 0 .38-.51zm1.3 0a.43.43 0 1 0-.86 0 .44.44 0 0 0 .43.43.43.43 0 0 0 .38-.51zm1.3 0a.43.43 0 1 0-.86 0 .44.44 0 0 0 .43.43.43.43 0 0 0 .38-.51zm1.3 0a.44.44 0 0 0-.87 0 .44.44 0 0 0 .87 0zm1.3 0a.43.43 0 1 0-.43.43.44.44 0 0 0 .34-.51zm17.95-11.65h-1.5a.38.38 0 0 1-.38-.37.37.37 0 0 1 .38-.37h1.5a.36.36 0 0 1 .37.37.37.37 0 0 1-.37.37zm.37 1.35a.36.36 0 0 0-.37-.37h-1.5a.37.37 0 0 0-.38.37.38.38 0 0 0 .38.37h1.5a.37.37 0 0 0 .37-.37zm0 1.72a.37.37 0 0 0-.37-.37h-1.5a.38.38 0 0 0-.38.37.37.37 0 0 0 .38.37h1.5a.36.36 0 0 0 .37-.37zm0 1.72a.37.37 0 0 0-.37-.37h-1.5a.38.38 0 0 0-.38.37.37.37 0 0 0 .38.37h1.5a.36.36 0 0 0 .37-.37zm0 1.72a.37.37 0 0 0-.37-.37h-1.5a.38.38 0 0 0-.38.37.37.37 0 0 0 .38.37h1.5a.36.36 0 0 0 .37-.37zm0 1.72a.37.37 0 0 0-.37-.37h-1.5a.38.38 0 0 0-.38.37.37.37 0 0 0 .38.37h1.5a.36.36 0 0 0 .37-.37zm0 1.72a.37.37 0 0 0-.37-.37h-1.5a.38.38 0 1 0 0 .75h1.5a.37.37 0 0 0 .37-.38zm0 1.72a.37.37 0 0 0-.37-.37h-1.5a.38.38 0 1 0 0 .75h1.5a.37.37 0 0 0 .37-.38zm5.64-12a.37.37 0 0 0-.38-.37h-4a.37.37 0 0 0-.37.37.38.38 0 0 0 .37.37h4a.38.38 0 0 0 .38-.41zm0 1.72a.37.37 0 0 0-.38-.37h-4a.37.37 0 0 0-.37.37.38.38 0 0 0 .37.37h4a.38.38 0 0 0 .38-.41zm0 1.72a.38.38 0 0 0-.38-.37h-4a.38.38 0 0 0-.37.37.37.37 0 0 0 .37.37h4a.37.37 0 0 0 .38-.41zm0 1.72a.38.38 0 0 0-.38-.37h-4a.38.38 0 0 0-.37.37.37.37 0 0 0 .37.37h4a.37.37 0 0 0 .38-.41zm0 1.72a.38.38 0 0 0-.38-.37h-4a.38.38 0 0 0-.37.37.37.37 0 0 0 .37.37h4a.37.37 0 0 0 .38-.41zm4.73 1.72a.38.38 0 0 0-.37-.37h-4a.38.38 0 0 0-.37.37.37.37 0 0 0 .37.37h4a.37.37 0 0 0 .42-.41zm0 1.72a.38.38 0 0 0-.37-.37h-4a.38.38 0 0 0 0 .75h4a.38.38 0 0 0 .42-.42zm0 1.72a.38.38 0 0 0-.37-.37h-4a.38.38 0 0 0 0 .75h4a.38.38 0 0 0 .42-.42zm-3-12a.43.43 0 1 0-.43.43.43.43 0 0 0 .48-.51zm1.3 0a.43.43 0 1 0-.43.43.43.43 0 0 0 .43-.51zm1.3 0a.43.43 0 1 0-.43.43.43.43 0 0 0 .43-.51zm1.3 0a.43.43 0 1 0-.43.43.43.43 0 0 0 .43-.51zm1.3 0a.43.43 0 1 0-.43.43.43.43 0 0 0 .43-.51zm1.3 0a.43.43 0 1 0-.43.43.43.43 0 0 0 .43-.51zm-6.4 3.36a.43.43 0 1 0-.43.43.43.43 0 0 0 .43-.43zm1.3 0a.43.43 0 1 0-.05 0zm1.3 0a.43.43 0 1 0-.05 0zm1.3 0a.43.43 0 1 0-.05 0zm1.3 0a.43.43 0 1 0-.05 0zm1.3 0a.43.43 0 1 0-.05 0zm-2.05 4.95a.43.43 0 1 0-.05 0zm1.3 0a.44.44 0 1 0-.05 0zm1.3 0a.43.43 0 1 0-.43.43.43.43 0 0 0 .43-.43zm1.3 0a.43.43 0 1 0-.05 0zm1.3 0a.43.43 0 1 0-.05 0zm1.3 0a.43.43 0 1 0-.05 0zm-6.46 3.55a.43.43 0 1 0-.86 0 .44.44 0 0 0 .43.43.43.43 0 0 0 .38-.43zm1.3 0a.44.44 0 0 0-.87 0 .44.44 0 0 0 .87 0zm1.3 0a.43.43 0 1 0-.43.43.44.44 0 0 0 .43-.43zm1.3 0a.43.43 0 1 0-.43.43.44.44 0 0 0 .38-.43zm1.3 0a.43.43 0 1 0-.43.43.44.44 0 0 0 .38-.43zm1.3 0a.43.43 0 0 0-.86 0 .43.43 0 0 0 .86 0z" class="E"/><use xlink:href="#Q" class="B"/><g clip-path="url(#F)"><use xlink:href="#Q" class="F"/><use xlink:href="#Q" class="B I"/></g><g class="C D"><g class="G H"><use xlink:href="#Q"/><path d="M182.14 264s-.8-6.37 2.23-5.25 6.53 11.15 6.53 11.15-2.55-2.7-2.23-.16a2.89 2.89 0 0 0 2.55 2.7"/></g><g class="E"><path d="M405.5 315.13H281.54l-21.17 85.1h123.98l21.16-85.1z"/><path d="M198.17 400.23h184.88v6.05H198.17z"/></g><g class="F"><path d="M260.37 400.23h123.98v6.05H260.37z"/><path d="M406.9 315.13H282.9l-21.17 85.1h123.98l21.17-85.1z"/></g></g><ellipse cx="333.61" cy="359.3" rx="17.68" ry="17.51" class="E"/><g class="B"><path d="M319.24 362a1.5 1.5 0 0 1-.8-.87 1.72 1.72 0 0 1 0-1.28 1.78 1.78 0 0 1 1-1l7.5-3c.25-.1.5 0 .8.33a1.71 1.71 0 0 1 .43 1 .94.94 0 0 1-.51.87l-6.28 2.44 6.3 2.53a.89.89 0 0 1 .39.82 1.73 1.73 0 0 1-.36 1c-.24.32-.48.43-.73.33zm11.7 4.2a.85.85 0 0 1-.32-.69 5.48 5.48 0 0 1 .24-1.06l4.16-12q.4-1.35 1.1-1.35a1.08 1.08 0 0 1 .72.26 1 1 0 0 1 .29.75 3.4 3.4 0 0 1-.23 1l-4.35 12.7a.89.89 0 0 1-.91.68 1.1 1.1 0 0 1-.71-.29zm8.17-1.3a1.73 1.73 0 0 1-.36-1 .89.89 0 0 1 .39-.82l6.3-2.53-6.28-2.44a.94.94 0 0 1-.51-.87 1.71 1.71 0 0 1 .43-1c.28-.33.54-.44.8-.33l7.5 3a1.87 1.87 0 0 1 .88.72 1.64 1.64 0 0 1 .29.94 1.91 1.91 0 0 1-.26.89 1.37 1.37 0 0 1-.66.6l-7.77 3.23c-.25.04-.5-.07-.73-.4z"/><path d="M51.67 404.94H453v6H51.67z" class="C D"/></g></svg>