<svg xmlns="http://www.w3.org/2000/svg" xmlns:xlink="http://www.w3.org/1999/xlink" viewBox="0 0 500 500" xmlns:v="https://vecta.io/nano"><style><![CDATA[.B{fill:#4550e6}.C{fill:#fff}.D{fill:#263238}.E{fill:#f0f0f0}.F{opacity:.4}.G{fill:#ff8b7b}.H{opacity:.3}.I{fill:#f5f5f5}.J{fill:#ebebeb}.K{fill:#e6e6e6}]]></style><path d="M0 382.4l500 .25H0zm237-44.6H43.9a5.71 5.71 0 0 1-5.7-5.71V60.66A5.71 5.71 0 0 1 43.9 55H237a5.71 5.71 0 0 1 5.71 5.71v271.4a5.71 5.71 0 0 1-5.71 5.71zM43.9 55.2a5.46 5.46 0 0 0-5.45 5.46V332.1a5.46 5.46 0 0 0 5.45 5.46H237a5.47 5.47 0 0 0 5.46-5.46V60.66A5.47 5.47 0 0 0 237 55.2zm409.4 282.6H260.2a5.72 5.72 0 0 1-5.71-5.71V60.66A5.72 5.72 0 0 1 260.2 55h193.1a5.71 5.71 0 0 1 5.69 5.66V332.1a5.71 5.71 0 0 1-5.69 5.71zM260.2 55.2a5.47 5.47 0 0 0-5.46 5.46V332.1a5.47 5.47 0 0 0 5.46 5.46h193.1a5.47 5.47 0 0 0 5.46-5.46V60.66a5.47 5.47 0 0 0-5.46-5.46zm-85.76 336.72h26v.25h-26zM52.46 389.2h54.1v.25h-54.1zm94.66 12h26.32v.25h-26.32zm111.1-1.67h38.83v.25h-38.83zm47.73 0h10.7v.25h-10.7zm89.4-4.23h54.56v.25h-54.56z" class="J"/><g class="E"><path d="M426.7 373.53h-45.65V248.06h45.65z"/><path d="M417.94 382.4h-236.2v-8.87h236.2z"/></g><path d="M172.97 248.05h208.1v125.47h-208.1z" class="I"/><path d="M172.97 256.55h208.9v45.93h-208.9zm0 54.3h208.9v45.93h-208.9z" class="E"/><path d="M388.96 302.47h-7.9v-45.93h7.9zm0 54.3h-7.9v-45.93h7.9z" class="K"/><path d="M381.06 248.05H166.9v-7.72h214.17z" class="E"/><path d="M381.06 240.33h52.03v7.72h-52.03z" class="K"/><path d="M435.58 216.73H328.15V81.7h107.43z" class="E"/><path d="M431.46 216.73H304.43V81.7h127.03z" class="I"/><path d="M315.07 206.1V92.33h105.75V206.1z" class="C"/><path d="M379.65 161.52l20.2-9.37v-5.9l-20.2-9.4v7.06l12.28 5.3-12.28 5.3zm-13.18-27.37h-3.7l6.54 30.1h3.7zm-10.24 20.35L344 149.2l12.28-5.3v-7.06l-20.28 9.4v5.9l20.2 9.37z" class="K"/><g class="E"><path d="M124.26 382.4h-7.04V153.22h7.04z"/><path d="M115.75 380.8l-.2-1a5.58 5.58 0 0 0 3.33-2.91c1.83-3.24 2.94-10.15-2.15-24.63-7.84-22.32-3.16-40.32 6.17-76.2l5.37-21c7.17-28.67.54-46.45-4.8-60.74-4.13-11.1-7.4-19.85-3.22-30l.93.38c-4 9.78-.83 18.38 3.23 29.27 5.38 14.4 12.07 32.36 4.82 61.32l-5.37 21c-9.28 35.7-13.94 53.63-6.2 75.7 5.23 14.9 4 22.1 2 25.5a6.48 6.48 0 0 1-3.94 3.3z"/><path d="M108 382.4h25.5l-7.1-4.18h-11.3l-7.1 4.18z"/></g><path d="M70.3 182.4h100.85l-11.1-84.74H81.4L70.3 182.4z" class="I"/><path d="M219.88 196.38h53.84l-7.1 43.95h-39.66l-7.1-43.95z" class="E"/><path d="M241.5 210.68c14.68-5.3 25.92-13.3 13.34-29.44s-32.07-16.07-45.2-8.92c-16.74 9.1-13.38 35.45-13.38 35.45s30.57 8.23 45.25 2.9z" fill="#e0e0e0"/><path d="M255.78 196c-11.23-7.65-19.2-16.5-6.16-25.84s29.1-4.55 38.76 4.12c12.3 11.06 5.2 30.47 5.2 30.47S267 203.6 255.78 196z" class="K"/><path d="M236 176.6c13.14-.8 24.16-4.22 17.94-18.45s-22-18.22-34.3-15.78c-15.73 3.1-19.44 22.8-19.44 22.8s22.68 12.24 35.8 11.44z" class="E"/><path d="M252.5 168.2c-10.93-3.52-19.5-8.8-11.17-19.48s22.5-10.63 32.4-5.9c12.62 6 11.5 23.46 11.5 23.46s-21.8 5.44-32.73 1.93z" class="J"/><path d="M232 150c10.9 3.6 20.94 4.38 20.5-9.16s-11.9-21.84-22.7-23.9c-13.75-2.56-23.1 12.2-23.1 12.2S221.1 146.37 232 150z" class="I"/><path d="M259.7 144.15c-7.8.54-14.56-.64-12-9.5s11.56-12.4 19-11.9c9.5.63 13.2 12 13.2 12s-12.4 8.9-20.2 9.42z" fill="#fafafa"/><ellipse cx="250" cy="416.24" rx="193.89" ry="11.32" class="I"/><path d="M79.5 251.1h339.75v12.2H79.5z" class="B"/><path d="M79.5 251.1h90.93v12.2H79.5z" class="C H"/><path d="M171.9 263.28h-7.9l4.14 152.78h7.54l4.15-152.78h-7.92z" class="B"/><path d="M168.12 416.06h3.77v-149.5l-7.78 1.42 4 148.08z" class="C H"/><path d="M96.92 263.28H89l4.14 152.78h7.54l4.14-152.78h-7.9z" class="B"/><path d="M93.15 416.06h3.77v-149.5l-7.8 1.42 4.02 148.08z" class="C H"/><path d="M401.85 263.28h-7.9l4.14 152.78h7.54l4.15-152.78h-7.92z" class="B"/><path d="M398.08 416.06h3.77v-149.5l-7.78 1.42 4 148.08z" class="C H"/><path d="M326.88 263.28h-7.9l4.14 152.78h7.54l4.14-152.78h-7.9z" class="B"/><path d="M323.1 416.06h3.77v-149.5l-7.78 1.42 4 148.08z" class="C H"/><path d="M240.78 185.83H160a4.16 4.16 0 0 0-4.17 5.28l10.76 51.35a6.87 6.87 0 0 0 6.38 5.27h80.84a4.16 4.16 0 0 0 4.17-5.27L247.2 191.1a6.87 6.87 0 0 0-6.43-5.28z" class="D"/><path d="M173.67,244.8a4.79,4.79,0,0,1-4.32-3.6l-10.76-51.35a2.35,2.35,0,0,1,.37-2,2.17,2.17,0,0,1,1.73-.73h80.84a4.79,4.79,0,0,1,4.32,3.6l10.76,51.35a2.35,2.35,0,0,1-.37,2,2.14,2.14,0,0,1-1.73.73Z" class="C"/><g class="B"><path d="M234.66 240.7l-10.2-48.7a2 2 0 0 1 1.94-2.39h13.12a2 2 0 0 1 1.94 1.58l10.2 48.65a2 2 0 0 1-1.94 2.39H236.6a2 2 0 0 1-1.94-1.54z" class="F"/><path d="M165.32 193.87l-.44-2.1h16.2l.44 2.1h-16.2z"/></g><path d="M172.8 199.1l-.44-2.1h28.4l.45 2.1h-28.4zm1.5 5.24l-.45-2.1h31.83l.44 2.1H174.3zm1.5 5.24l-.44-2.1h25.62l.45 2.1H175.8z" class="J"/><path d="M170.25 218.07l-.45-2.1h10.25l.44 2.1h-10.24z" class="B"/><path d="M177.72 223.3l-.44-2.1h12.48l.45 2.1h-12.5zm15.48 0l-.45-2.1h12.5l.44 2.1h-12.5zm-13.98 5.24l-.44-2.1h42.2l.44 2.1h-42.2zm1.48 5.23l-.44-2.1h32.18l.44 2.1H180.7z" class="J"/><path d="M278.52 247.42H172.16c-2.9 0-4.78 1.65-4.17 3.67h116.9c-.6-2.02-3.48-3.67-6.38-3.67z" class="D"/><g class="B"><path d="M137.2 172.85L127 124.2a2 2 0 0 1 1.94-2.38h82.6a2 2 0 0 1 1.94 1.57L223.7 172a2 2 0 0 1-1.94 2.39h-82.6a2 2 0 0 1-1.94-1.54z" opacity=".1"/><path d="M166.57 123.4h-17.34l-.4-1.87h17.34l.4 1.87z"/><path d="M163.75 126.4h-6.96l-.4-1.87h6.96l.4 1.87zm11.58 0H164.6l-.4-1.87h10.72l.4 1.87zm4.67 2.96h-22.6l-.4-1.87h22.6l.38 1.87zm-2.87 2.98h-19.1l-.4-1.87h19.1l.4 1.87zm12.67 31.6h-12.16l.4 1.86h12.16l-.4-1.86z" class="F"/><path d="M174.64 159.87h-17.8l-.4-1.87h17.8l.4 1.87z"/><path d="M181.8 166.92h-16.56l.4 1.87h16.56l-.4-1.87zm-5.02-2.97h-12.16l.4 1.86h12.16l-.4-1.86zm11.54-2.98H164l.4 1.87h24.32l-.4-1.87z" class="F"/><path d="M165.96 109.53h-19.62l-.4-1.86h19.62l.4 1.86z"/><path d="M175.65 116.6H154l.4 1.87h21.63l-.38-1.87zm-4.33-2.98H153.4l.4 1.86h17.93l-.4-1.86zm1.18-2.98h-19.74l.4 1.87h19.74l-.4-1.87z" class="F"/><path d="M165.74 137.18H152.1l-.4-1.87h13.64l.4 1.87z"/><path d="M187.16 144.23H160.5l.4 1.87h26.64l-.38-1.87zm-16.23-2.97H159.9l.4 1.87h11.04l-.4-1.87zm11.97 0h-11.04l.4 1.87h11.04l-.4-1.87zm.7-2.98h-24.32l.4 1.87h24.3l-.38-1.87zm-.06 14.88h-21.17l.4 1.86h21.17l-.4-1.86zm-15.64-2.98h-6.16l.4 1.87h6.15l-.38-1.87zm9.64 0h-8.8l.4 1.87h8.8l-.4-1.87zm7.9-2.98h-24.32l.4 1.86h24.32l-.4-1.86zm19.15-.5h-8.7l-.4-1.87h8.72l.38 1.87zm14.5 0h-13.42l-.4-1.87h13.42l.4 1.87zm5.7 3h-28.3l-.4-1.87h28.3l.4 1.87zm-3.76 2.96h-23.9l-.4-1.87h23.9l.4 1.87zm10.7-17.78h-27.1l.4 1.86h27.1l-.4-1.86zm-5.25-2.98h-22.45l.4 1.87h22.44l-.38-1.87z" class="F"/><path d="M222.43 128.93H197.7l.4 1.86h24.72l-.4-1.86z"/><path d="M232.97 164.56H199.6l.4 1.87h33.36l-.4-1.87zm-20.17-2.96H199l.4 1.86h13.82l-.4-1.86zm15 0H214l.4 1.86h13.82l-.4-1.86zm1-3h-30.44l.4 1.87h30.44l-.4-1.87zm-.83 14.88h-26.5l.4 1.87h26.5l-.4-1.87zm-19.4-2.98h-7.7l.4 1.87h7.7l-.4-1.87zm12.06 0h-11l.4 1.87h11l-.4-1.87zm10.06-2.97h-30.45l.4 1.87h30.44l-.38-1.87zm-81.08 8.27h-20.74l.4 1.87H150l-.4-1.87zm-6.13-2.98h-15.23l.4 1.86h15.22l-.38-1.86zm16.3 0h-15.22l.4 1.86h15.23l-.4-1.86zm-1.7-2.98h-30.45l.4 1.87h30.44l-.38-1.87z" class="F"/><path d="M390.95 231.66H378.1l1.5 19.43h9.84l1.5-19.43z"/></g><path d="M390.95 231.66H378.1l1.5 19.43h9.84l1.5-19.43z" class="C F"/><path d="M111.13 218.17h18.46l-6.3 32.92h-18.46l6.3-32.92z" class="D"/><g class="B"><path d="M134.64 209.35h-26.07l7.3 41.74h26.07l-7.3-41.74z"/><path d="M107.03 209.35h1.54l7.3 41.74h-1.54l-7.3-41.74z"/></g><path d="M107.03 209.35h1.54l7.3 41.74h-1.54l-7.3-41.74z" class="H"/><path d="M119.62 246.62l-5.74-32.8h17.02l5.73 32.8h-17z" class="C"/><path d="M135.82 246.62l-5.73-32.8h.8l5.73 32.8h-.8z" opacity=".6" class="B"/><path d="M263.77 156c.37.8.25 1.65-.28 1.9s-1.25-.2-1.62-1-.24-1.65.28-1.9 1.25.16 1.62 1z" class="D"/><path d="M264.1 157.58s.32 5.46-.66 8.62c2 .67 4.16-1 4.16-1z" fill="#ff5652"/><path d="M263.87 149.4a.53.53 0 0 1-.3.12 4.12 4.12 0 0 0-3.29 1.79.52.52 0 1 1-.9-.52 5.14 5.14 0 0 1 4.13-2.31.52.52 0 0 1 .36.92z" class="D"/><path d="M293.22 154.76c3.1 10.7 6.54 19 10.75 23.74 0 0 .08 8.4-14.25 12.4-15.76 4.4-9.72-5.72-9.72-5.72 8-4.45 7.24-11.17 1.22-13.73z" class="G"/><path d="M307.3 176.45c-.28-3.9-.65-8.37-3.06-8.5-2.66-.12-18.06 6.76-21.35 11.6s3.14 9.6 3.14 9.6z" class="D"/><g class="G"><path d="M275.8 237l-13.3-.44.24 11.14s11.6-1.2 12.1-4.25z"/><path d="M255.46 242.03l-1.4 5.7 8.67-.02-.24-11.14-7.03 5.46z"/></g><use xlink:href="#B" class="B"/><use xlink:href="#B" opacity=".2"/><path d="M270.12 204a326.55 326.55 0 0 1 8.33 65.14H337c.32-7.23-.9-48-6.8-77.45a20.4 20.4 0 0 0-24.4-16l-.28.07c-7.3 1.66-17.8 4.34-24 6.7l-.25.1A18.33 18.33 0 0 0 270.12 204z" class="B"/><path d="M273.93 222.7l1.36 8.9c4.8-5 6.3-20.32 6.3-20.32z" opacity=".2"/><g class="G"><path d="M225.3 237.73L212 236.5l-.44 11.13a12.48 12.48 0 0 0 12.44-3.51z"/><path d="M205.68 239.77l-4.26 7.65 10.18.2.44-11.13-6.36 3.28z"/></g><path d="M292.1 198.87l-2.66 4.9-2.75 4.7a199.1 199.1 0 0 1-5.89 9.21 153.64 153.64 0 0 1-13.71 17.64 75.7 75.7 0 0 1-8.69 8.27l-1.28 1a10.02 10.02 0 0 1-1.45 1l-1.76 1.06s-1.18.6-1.77.87a31.42 31.42 0 0 1-6.88 2.09 43.44 43.44 0 0 1-12.52.28 52 52 0 0 1-5.8-1q-1.43-.33-2.82-.75c-1-.28-1.8-.6-2.88-1l1.65-10.32c6.28-.85 13.07-1.94 17.75-4.06a12.83 12.83 0 0 0 2.91-1.67 6.81 6.81 0 0 0 1-.84c.07-.1.38-.36.6-.58s.5-.43.75-.7a71.37 71.37 0 0 0 6-6.75 195.49 195.49 0 0 0 11.27-16.16l5.3-8.6 2.58-4.34 2.5-4.27z" class="B"/><path d="M276.02 407.6h-10.94l-5.5-25.35h10.95l5.5 25.35z" class="G"/><path d="M264.47 405.26h12.3a1 1 0 0 1 .93.74l2.16 9.74a1.6 1.6 0 0 1-1.6 1.94c-4.3-.07-6.38-.32-11.8-.32-3.33 0-7.6.34-12.2.34s-5.2-4.54-3.32-4.95c8.44-1.85 9-4.4 11.73-6.82a2.64 2.64 0 0 1 1.78-.67z" class="D"/><path d="M270.53 382.26h-10.96l3.06 14.04 10.74-.97-2.84-13.07z" opacity=".2"/><path d="M289.7 141.9c4 10.12 6.78 15.85 4.14 23.2-4 11.05-18.2 12.17-25.1 3.43-6.2-7.87-11.62-23.1-3.8-31.47a14.81 14.81 0 0 1 24.74 4.84z" class="G"/><path d="M270.5 157.06l-2.9 3.87s-3.37-8.37-2.08-12.2c-1.64-3.25-4.95 1.54-6.2-4.8s4.16-13.13 6.2-14.54a7.41 7.41 0 0 1 .28 2.27 28 28 0 0 1 19.6-6.19 6.77 6.77 0 0 0-1.1 2.94s11.87 2 14.57 8.72a12.83 12.83 0 0 0-3-1 14.49 14.49 0 0 1 2.4 10.72 110.21 110.21 0 0 0-1.34 16.53c.1 2.84-7.68 8.27-12.43 2.47s-14-8.8-14-8.8z" class="D"/><path d="M275.44 154.88a11.07 11.07 0 0 1-.5 7.1c-1.27 3-3.88 2.28-5.17-.34-1.17-2.35-1.92-6.7.15-8.8s4.74-.8 5.52 2.04z" class="G"/><use xlink:href="#C" class="B"/><use xlink:href="#C" opacity=".5" class="C"/><path d="M254.62,386.23c-.08,0,2.68,7.48,2.68,7.48l21-2.06-1.05-6.8Z" class="B"/><path d="M228.73 408.85h-10.95l-3.2-25.36h10.95l3.2 25.36z" class="G"/><path d="M217.7 405.25h12a.94.94 0 0 1 .93.74l2.18 9.73a1.59 1.59 0 0 1-1.57 2l-16-.3c-6.34 0-7.55.35-15 .36-4.5 0-5.75-4.53-3.87-5 8.56-1.88 11.3-2.1 18.7-6.66a5 5 0 0 1 2.64-.87z" class="D"/><path d="M214.6 383.5l1.74 13.8 10.86-.74-1.65-13.07H214.6z" opacity=".2"/><use xlink:href="#D" class="B"/><use xlink:href="#D" opacity=".5" class="C"/><path d="M209.43 386.83c-.07 0 2.8 7.52 2.8 7.52l19.64-1.4-1.15-6.8z" class="B"/><g class="D"><path d="M300.32 222.08l-10.57 40.73a127.1 127.1 0 0 0-4.06 31.95v18.93c0 4.78 3.52 8.66 7.87 8.66h54.18c4.35 0 7.87-3.88 7.87-8.66v-18.93a127.11 127.11 0 0 1 4.07-31.95l9.33-36c1.44-5.53-2.34-11-7.57-11h-53.56a8 8 0 0 0-7.56 6.27z"/><path d="M232.93 302.63l1.77 10.1c.94 5.3 5.6 9.62 10.44 9.62h60.23c4.83 0 8-4.3 7.06-9.62l-1.77-10.1c-1.07-6.05-6.38-10.95-11.88-10.95H241c-5.54 0-9.13 4.9-8.07 10.95z"/></g><g class="B"><path d="M311.17 332.5h-31.55l-3.08-10.14h37.7l-3.08 10.14z"/><path d="M289.76 332.5h11.27v75.4h-11.27z"/></g><g class="C"><path d="M301.03 407.9h-11.27v-73.6l11.27 1.15v72.45z" opacity=".7"/><path d="M298.28 407.9h-2.7v-73l2.7.28v72.73z" opacity=".7"/></g><path d="M321.3 419.56h-51.84a1.44 1.44 0 0 1-.84-2.6l8.22-6a23.08 23.08 0 0 1 13.62-4.46h9.85a23.07 23.07 0 0 1 13.61 4.46l8.23 6a1.44 1.44 0 0 1-.85 2.6z" class="B"/><defs ><path id="B" d="M329.17 190.7l-.28 2.86-.33 2.73-.83 5.42c-.6 3.6-1.38 7.2-2.28 10.8a107.83 107.83 0 0 1-3.32 10.87c-.7 1.83-1.4 3.66-2.27 5.52a45.73 45.73 0 0 1-3 5.65c-.27.47-.6 1-.94 1.44s-.65 1-1 1.46-.72 1-1.18 1.47l-.65.74a10.06 10.06 0 0 1-.74.78 22.81 22.81 0 0 1-6.93 4.65 41 41 0 0 1-12.43 3.15c-1.95.23-3.88.32-5.77.37s-3.78 0-5.64-.1-3.7-.26-5.53-.48a70.16 70.16 0 0 1-5.55-.9l.32-10.45a160.33 160.33 0 0 0 18.9-4.5 41.44 41.44 0 0 0 4.06-1.56 18.63 18.63 0 0 0 3.22-1.75 4.48 4.48 0 0 0 1.46-1.42l.3-.46a6.53 6.53 0 0 0 .37-.61 7.56 7.56 0 0 0 .39-.71c.13-.26.27-.5.4-.8a52.59 52.59 0 0 0 2.89-7.94c.82-2.94 1.6-6 2.2-9.17l1.77-9.6.76-4.86.7-4.73z"/><path id="C" d="M296 269.1s-50.84 18.44-52.33 42.83c-2.76 44.93 15.6 80.5 15.6 80.5l16.84-1.8s-3-14.46-5.23-55.16c-2.8-51.15 84 1.2 66.12-66.37z"/><path id="D" d="M278.45 269.1s-83.3 7.4-82.4 49.23c.93 43.52 17.2 72.87 17.2 72.87h16.26s-3.08-22.58-2.53-65.42c.16-12.83 26.1-17.07 51.42-18.57 21.88-1.3 42.36-13.77 50.86-34l1.75-4.1z"/></defs></svg>