<svg xmlns="http://www.w3.org/2000/svg" xmlns:xlink="http://www.w3.org/1999/xlink" viewBox="0 0 500 500" xmlns:v="https://vecta.io/nano"><style><![CDATA[.B{stroke:#263238}.C{stroke-linejoin:round}.D{fill:#fff}.E{fill:#263238}.F{fill:none}.G{fill:#4550e6}.H{stroke-linecap:round}.I{stroke-miterlimit:10}]]></style><defs><clipPath id="A"><path d="M212.75 195.8s.38 7-.78 10.26-2.7 5.42-2.7 7 2.52 3.5 2.52 6.58-5.6 18-7.16 20.9-1 3.87-2.9 4.06-6.77-2.12-6.77-2.12-2.9.38-3.3 1.54-1.36 5.23-1.36 5.23l-28.25-12.58a28.26 28.26 0 0 0 5.81-9.87c1.74-5.6-1-14.32-1-14.32s-2.7-20.3 9.67-26.12 30.38-2.13 33.3.78 2.93 8.66 2.93 8.66z" class="B C D"/></clipPath><clipPath id="B"><path d="M156.25 240.5l-.7.5c-2.72 1.87-12.76 8.83-20.38 14.8-8.9 7-9.48 19.93-9.87 30s-6.88 72.7-8.43 80.44 12.3 9.72 25.65 11.66 30.57-.2 38.9-4.06 10.26-3.68 10.26-7.94l.2-14.7c0-.77 6-48.18 5.6-62.1s.78-21.48-2.5-28.45-11.6-12.38-22.64-16.06-16.06-4.07-16.06-4.07z" class="B C G"/></clipPath><clipPath id="C"><path d="M158.18 233.93l-5.18 8.7s15.67 3.68 23.8 7 19 12 19 12-1.74-9.87-3.3-12.38-17.6-11-24.2-13.55-10.14-1.78-10.14-1.78z" class="B C G"/></clipPath><clipPath id="D"><path d="M179.47 280.36s-5.42 7.36-7.16 13.17.38 14.12 1 16.06 31.53 62.88 34.82 68.88 7 6.38 9.68 5.42 33.86-23.22 35-24.38 6.4-5.6 6.4-5.6 1-6.2-3.3-9.48-6.4-1.55-6.4-1.55l-27.1 7.35s-15.28-52.63-17-62.7 1-9.48-4.45-14.9a75.81 75.81 0 0 0-12-9.5" class="B C G H"/></clipPath><path id="E" d="M84.3 283.67s14.34 57.67 70.9 85.33 124 15.12 178.92 6.4 89.87-49 86.14-97-48-52.2-81.83-100-35.56-65.74-90-87.45S124 106.2 97 171 84.3 283.67 84.3 283.67z"/><path id="F" d="M252.33 352.04l-3.1 2.5h6.34l3.08-2.5h-6.33z"/><path id="G" d="M239.65 352.04l-3.08 2.5h6.34l3.08-2.5h-6.34z"/><path id="H" d="M261.75 349.55l3.08-2.5h-6.33l-3.1 2.5h6.34z"/><path id="I" d="M287.1 349.55l3.08-2.5h-6.34l-3.08 2.5h6.34z"/><path id="J" d="M255.4 349.55l-3.08 2.5h6.33l3.1-2.5h-6.34z"/><path id="K" d="M212.75 195.8s.38 7-.78 10.26-2.7 5.42-2.7 7 2.52 3.5 2.52 6.58-5.6 18-7.16 20.9-1 3.87-2.9 4.06-6.77-2.12-6.77-2.12-2.9.38-3.3 1.54-1.36 5.23-1.36 5.23l-28.25-12.58a28.26 28.26 0 0 0 5.81-9.87c1.74-5.6-1-14.32-1-14.32s-2.7-20.3 9.67-26.12 30.38-2.13 33.3.78 2.93 8.66 2.93 8.66z"/><path id="L" d="M156.25 240.5l-.7.5c-2.72 1.87-12.76 8.83-20.38 14.8-8.9 7-9.48 19.93-9.87 30s-6.88 72.7-8.43 80.44 12.3 9.72 25.65 11.66 30.57-.2 38.9-4.06 10.26-3.68 10.26-7.94l.2-14.7c0-.77 6-48.18 5.6-62.1s.78-21.48-2.5-28.45-11.6-12.38-22.64-16.06-16.06-4.07-16.06-4.07z"/><path id="M" d="M158.18 233.93l-5.18 8.7s15.67 3.68 23.8 7 19 12 19 12-1.74-9.87-3.3-12.38-17.6-11-24.2-13.55-10.14-1.78-10.14-1.78z"/><path id="N" d="M179.47 280.36s-5.42 7.36-7.16 13.17.38 14.12 1 16.06 31.53 62.88 34.82 68.88 7 6.38 9.68 5.42 33.86-23.22 35-24.38 6.4-5.6 6.4-5.6 1-6.2-3.3-9.48-6.4-1.55-6.4-1.55l-27.1 7.35s-15.28-52.63-17-62.7 1-9.48-4.45-14.9a75.81 75.81 0 0 0-12-9.5"/></defs><use xlink:href="#E" class="G"/><use xlink:href="#E" opacity=".7" class="D"/><path d="M412.84 340c-3.62 4.53-5.4 7.05-6.15 8.2a86.42 86.42 0 0 1 4.13-14.6 42.81 42.81 0 0 0 2.51-11.41l-.33.18-.32-.6c.13-.06 12.46-6.6 15.95-12.78l.58.33c-3.15 5.58-12.88 11.22-15.55 12.7 2.53-.24 10.43-1.45 15.13-7.25 5.64-7 4.65-15.6 4.65-15.6s-10.63 7.3-14.95 12.95a40.58 40.58 0 0 0-5 8.39 58.4 58.4 0 0 0-1.05-13.73c3.56-2.75 16.56-13.52 18-21.55 1.66-9.3-.67-25.25-.67-25.25a81.91 81.91 0 0 1-4.65 9.64c-3 5.3-12.3 13.62-13.95 22.6a38.79 38.79 0 0 0-.66 6.8 133.53 133.53 0 0 0-5.36-14.71 25.91 25.91 0 0 1-1.33-4h0l-.3-.17c.06-.1 6-10.2 6-13.1h.68c0 2.7-4.57 10.75-5.83 12.9 2.1-1.25 5.5-3.83 6.77-7.83a16 16 0 0 0-.91-11.3s-5.05 7.42-6.43 12.17a28.56 28.56 0 0 0-1.16 6.66 37 37 0 0 0-4.15-8.07 41.57 41.57 0 0 1-5-10s-3.65 6.32-1 13c2.2 5.46 8.4 7.55 10.55 8.13.24.72.5 1.43.8 2.1a113.55 113.55 0 0 1 6.81 20.45 40.75 40.75 0 0 0-7.24-7.72 41.51 41.51 0 0 1-7.66-8.1s-1.67 7.1 2.8 12.7c3.66 4.57 10.16 4.8 12.42 4.72 1.54 8.05 1.7 16.45-.9 24.56-.17-1.57-1.12-5.86-6.34-10.66-6.58-6.05-19.77-25.42-19.77-25.42s1.06 22.86 7.37 30.38c5.8 6.88 16.72 6.48 18.5 6.37l-.37 1.07c-4.16 11.17-5 19-5.14 23.16h-7.85v36.2h21.6V356.3h-12.32a52.06 52.06 0 0 1 .73-7.05l-.23.07-.18-.66c.14 0 13.67-3.85 23.13-13.58l.48.48c-7.63 7.85-17.86 11.9-21.8 13.23 3.9-.48 13.44-1.92 17.88-4.78 5.64-3.66 10.63-14.62 10.63-14.62s-18.27 4-23.6 10.6zm-10.28-58.84a16.92 16.92 0 0 1-8.66-11.6l.66-.13a16.23 16.23 0 0 0 8.28 11.11zm9.56 25.8l-.15.23-.25-.1c-.38-.15-9.22-3.8-12.82-9.05l.56-.38c3.15 4.6 10.76 8.05 12.25 8.7 1.15-1.76 8.33-12.9 10.83-19.9l.64.23c-2.73 7.68-10.97 20.18-11.06 20.32zM409 331.78c-.1 0-10.64-4-15.33-13.1l.6-.3c4.57 8.87 14.86 12.74 15 12.78z" class="E"/><g class="B F I"><path d="M198.05 215.9h155.78v176.6H198.05z"/><path d="M198.05 230.9H340.6V392.5H198.05z"/></g><path d="M340.62 230.9l13.22-15v176.6h-13.22V230.9z" class="E"/><g class="B C"><path d="M347.4 359.98h6.44v32.54h-6.44z" class="D"/><path d="M381.8 392.5v-55.08l-27.97 22.55v32.53h27.97z" class="E"/><path d="M128.44 359.98h6.44v32.54h-6.44z" class="D"/><path d="M162.85 392.5v-55.08l-27.97 22.55v32.53h27.97z" class="E"/><g class="D"><path d="M361.6 365.73H103.64l-.1-2.1 298.85-31.38v2.12l-40.8 31.36z"/><path d="M361.6 363.6H103.64l65.08-31.36H402.4l-40.8 31.36z"/></g><path d="M346.57 358.3h-27.32l15.77-12.6h28.77l-17.22 12.6z" class="G"/><path d="M361.6 365.73v-2.12l40.8-31.36v2.12l-40.8 31.36z" class="E"/><path d="M327.6 333.7h47.07s7-.65 5.67 2.84-7.4 3.7-20.92 4.14-17 8.7-17 8.7" class="F H"/></g><path d="M346 346.62s-4.44-.8-7.58.78c-2 1-3.73 4.45-4.77 6.9a1.81 1.81 0 0 0 1.67 2.52h5.95a1.81 1.81 0 0 0 1.35-.6l6-6.72s-.23-2.6-2.62-2.87z" class="E"/><g class="C"><path d="M342.3,355a6.74,6.74,0,0,1,3.7-6.53" stroke="#fff" stroke-width=".5" class="F H"/><g class="B"><path d="M310.67 360.1H214.7l23.34-18.63H334l-23.34 18.63z" class="D"/><path d="M334 342.63v-1.17l-23.34 18.63v1.16L334 342.63z" class="F"/><path d="M214.7 360.1h95.97v1.17H214.7z" class="D"/><g class="F"><path d="M246 352.04l-3.08 2.5h6.33l3.1-2.5H246z"/><use xlink:href="#F"/><use xlink:href="#G"/><path d="M249.07 349.55h-6.33l-3.1 2.5H246l3.08-2.5z"/><path d="M255.4 349.55l3.1-2.5h-6.34l-3.1 2.5h6.34z"/><path d="M252.16 347.06h-6.34l-3.08 2.5h6.33l3.1-2.5z"/><use xlink:href="#G" x="19.01"/><path d="M290.35 352.04l-3.1 2.5h6.34l3.1-2.5h-6.34z"/><use xlink:href="#H"/><path d="M265 352.04l-3.08 2.5h6.33l3.1-2.5H265zm34.94 2.5h6.33l3.1-2.5h-6.34l-3.08 2.5z"/><path d="M303.02 352.04h6.34l3.08-2.5h-6.33l-3.1 2.5z"/><use xlink:href="#F" x="44.37"/><path d="M284 352.04l-3.08 2.5h6.33l3.1-2.5H284zm-12.66 0l-3.1 2.5h6.34l3.1-2.5h-6.34z"/><use xlink:href="#F" x="25.35"/><use xlink:href="#I"/><use xlink:href="#G" x="53.78" y="-2.49"/><path d="M280.76 349.55l-3.08 2.5H284l3.1-2.5h-6.34z"/><use xlink:href="#G" x="28.43" y="-2.49"/><use xlink:href="#F" x="34.77" y="-2.49"/><path d="M268.08 349.55l3.1-2.5h-6.34l-3.08 2.5h6.33z"/><use xlink:href="#G" x="9.42" y="-2.49"/><path d="M261.75 349.55l-3.1 2.5H265l3.08-2.5h-6.33z"/><use xlink:href="#J"/><use xlink:href="#G" x="34.77" y="-2.49"/><use xlink:href="#H" x="19.01"/><path d="M306.1 349.55h6.33l3.1-2.5h-6.34l-3.08 2.5zm-31.68 0l3.1-2.5h-6.34l-3.1 2.5h6.34z"/><use xlink:href="#H" x="38.02"/><use xlink:href="#I" x="19"/><path d="M296.7 352.04h6.33l3.1-2.5h-6.34l-3.08 2.5zm-3.27-2.5l3.1-2.5h-6.34l-3.08 2.5h6.33z"/><use xlink:href="#J" x="19.2" y="4.98"/><use xlink:href="#F" x="28.6" y="2.49"/><use xlink:href="#G" x="28.6" y="2.49"/><use xlink:href="#G" x="47.61" y="2.49"/><use xlink:href="#F" x="9.59" y="2.49"/><use xlink:href="#J" x="0.18" y="4.98"/><use xlink:href="#J" x="38.2" y="4.98"/><use xlink:href="#F" x="-9.43" y="2.49"/><use xlink:href="#G" x="9.59" y="2.49"/><path d="M309.36 352.04h6.34l3.08-2.5h-6.34l-3.08 2.5z"/><use xlink:href="#J" x="63.2" y="-4.98"/><path d="M312.44 349.55h6.34l3.08-2.5h-6.33l-3.1 2.5z"/><use xlink:href="#J" x="-18.83" y="4.98"/><use xlink:href="#F" x="47.61" y="2.49"/><path d="M303.2 357.02h6.34l3.08-2.5h-6.34l-3.08 2.5z"/><path d="M306.27 354.53h6.34l3.1-2.5h-6.34l-3.1 2.5zm-63.53-4.98h-6.34l-3.08 2.5h6.33l3.1-2.5zm41.1-2.5l3.1-2.5h-6.34l-3.08 2.5h6.33z"/><use xlink:href="#H" x="28.43" y="-2.49"/><use xlink:href="#I" x="-9.6" y="-2.49"/><use xlink:href="#I" x="9.42" y="-2.49"/><use xlink:href="#H" x="47.45" y="-2.49"/><path d="M302.85 347.06l3.1-2.5h-6.34l-3.08 2.5h6.33z"/><use xlink:href="#H" x="9.42" y="-2.49"/><path d="M239.65 352.04h-6.33l-3.1 2.5h6.34l3.08-2.5zm6.17-4.98h-6.34l-3.08 2.5h6.34l3.08-2.5z"/><use xlink:href="#I" x="28.43" y="-2.49"/><use xlink:href="#G" x="-9.42" y="2.49"/><path d="M248.9 344.57h-6.34l-3.1 2.5h6.34l3.1-2.5z"/><use xlink:href="#I" x="-28.6" y="-2.49"/><use xlink:href="#H" x="-9.59" y="-2.49"/><path d="M264.83 347.06l3.1-2.5h-6.34l-3.08 2.5h6.33z"/></g><path d="M337.42 339h-33.08a.52.52 0 0 1-.23-1l6.8-3.28a.59.59 0 0 1 .23 0h30.54a.53.53 0 0 1 .32.94l-4.26 3.27a.54.54 0 0 1-.32.07z" class="E"/><path d="M321.63 314.07h6.08v23.17h-6.08z" class="D"/><path d="M320.68 314.07h7.98v16.82h-7.98z" class="E"/><path d="M275.77 237h100.68v78.75H275.77z" class="D"/><path d="M281.15 241.2h89.9v70.33h-89.9z" class="E"/></g></g><g class="G"><path d="M289.7 246h-2.32a.57.57 0 0 1-.57-.57.58.58 0 0 1 .57-.57h2.32a.58.58 0 0 1 .57.57.57.57 0 0 1-.57.57zm.57 2.08a.57.57 0 0 0-.57-.57h-2.32a.57.57 0 0 0 0 1.14h2.32a.57.57 0 0 0 .57-.53zm0 2.65a.57.57 0 0 0-.57-.57h-2.32a.57.57 0 0 0-.57.57.58.58 0 0 0 .57.57h2.32a.58.58 0 0 0 .57-.53zm0 2.65a.57.57 0 0 0-.57-.57h-2.32a.57.57 0 0 0-.57.57.58.58 0 0 0 .57.57h2.32a.58.58 0 0 0 .57-.53zm0 2.65a.58.58 0 0 0-.57-.58h-2.32a.58.58 0 0 0 0 1.15h2.32a.58.58 0 0 0 .57-.53zm0 2.64a.58.58 0 0 0-.57-.57h-2.32a.58.58 0 0 0 0 1.15h2.32a.58.58 0 0 0 .57-.54zm0 2.65a.58.58 0 0 0-.57-.57h-2.32a.58.58 0 0 0-.57.57.57.57 0 0 0 .57.57h2.32a.57.57 0 0 0 .57-.53zm0 2.65a.58.58 0 0 0-.57-.57h-2.32a.58.58 0 0 0-.57.57.57.57 0 0 0 .57.57h2.32a.57.57 0 0 0 .57-.54zm8.72-18.5a.58.58 0 0 0-.57-.57h-6.13a.58.58 0 0 0-.58.57.57.57 0 0 0 .58.57h6.08a.57.57 0 0 0 .62-.57zm0 2.65a.57.57 0 0 0-.57-.57h-6.13a.57.57 0 1 0 0 1.14h6.08a.57.57 0 0 0 .62-.57zm0 2.65a.57.57 0 0 0-.57-.57h-6.13a.57.57 0 0 0-.58.57.58.58 0 0 0 .58.57h6.08a.58.58 0 0 0 .62-.57zm0 2.65a.57.57 0 0 0-.57-.57h-6.13a.57.57 0 0 0-.58.57.58.58 0 0 0 .58.57h6.08a.58.58 0 0 0 .62-.57zm0 2.65a.58.58 0 0 0-.57-.58h-6.13a.58.58 0 1 0 0 1.15h6.08a.58.58 0 0 0 .62-.57zm7.28 2.64a.57.57 0 0 0-.57-.57h-6.08a.58.58 0 0 0 0 1.15h6.08a.57.57 0 0 0 .52-.58zm0 2.65a.57.57 0 0 0-.57-.57h-6.08a.57.57 0 0 0-.57.57.56.56 0 0 0 .57.57h6.08a.56.56 0 0 0 .52-.57zm0 2.65a.57.57 0 0 0-.57-.57h-6.08a.57.57 0 0 0-.57.57.56.56 0 0 0 .57.57h6.08a.56.56 0 0 0 .52-.58zm-4.6-18.54a.67.67 0 1 0-.05 0zm2 0a.66.66 0 1 0-.07 0zm2 0a.66.66 0 0 0-1.32 0 .66.66 0 1 0 1.32 0zm2 0a.67.67 0 0 0-1.33 0 .67.67 0 0 0 1.33 0zm2 0a.66.66 0 1 0-.11 0zm2 0a.66.66 0 0 0-1.32 0 .66.66 0 0 0 1.32 0zm-9.93 5.3a.67.67 0 0 0-1.33 0 .67.67 0 0 0 1.33 0zm2 0a.66.66 0 0 0-1.32 0 .66.66 0 0 0 1.32 0zm2 0a.66.66 0 1 0-.15 0zm2 0a.67.67 0 1 0-.67.66.66.66 0 0 0 .51-.66zm2 0a.66.66 0 1 0-1.32 0 .66.66 0 1 0 1.32 0zm2 0a.66.66 0 1 0-.19 0zm-3.15 7.6a.66.66 0 1 0-1.32 0 .66.66 0 1 0 1.32 0zm2 0a.66.66 0 1 0-.66.67.67.67 0 0 0 .46-.67zm2 0a.67.67 0 1 0-.21 0zm2 0a.66.66 0 1 0-1.32 0 .66.66 0 1 0 1.32 0zm2 0a.66.66 0 1 0-.66.67.67.67 0 0 0 .42-.67zm2 0a.67.67 0 1 0-.25 0zm-9.94 5.47a.66.66 0 1 0-.25 0zm2 0a.66.66 0 1 0-1.32 0 .66.66 0 0 0 1.32 0zm2 0a.67.67 0 1 0-.66.66.67.67 0 0 0 .39-.66zm2 0a.66.66 0 1 0-.66.66.66.66 0 0 0 .37-.66zm2 0a.66.66 0 1 0-1.32 0 .66.66 0 0 0 1.32 0zm2 0a.67.67 0 1 0-.67.66.67.67 0 0 0 .36-.66zm-28.95 3.4h-2.32a.58.58 0 0 1 0-1.15h2.32a.58.58 0 0 1 0 1.15zm.57 2.07a.58.58 0 0 0-.57-.57h-2.32a.58.58 0 0 0 0 1.15h2.32a.58.58 0 0 0 .57-.58zm0 2.65a.58.58 0 0 0-.57-.57h-2.32a.58.58 0 0 0-.57.57.57.57 0 0 0 .57.57h2.32a.57.57 0 0 0 .57-.53zm0 2.65a.58.58 0 0 0-.57-.57h-2.32a.58.58 0 0 0-.57.57.57.57 0 0 0 .57.57h2.32a.57.57 0 0 0 .57-.57zm0 2.65a.57.57 0 0 0-.57-.57h-2.32a.57.57 0 0 0 0 1.14h2.32a.57.57 0 0 0 .57-.57zm0 2.65a.57.57 0 0 0-.57-.57h-2.32a.57.57 0 0 0 0 1.14h2.32a.57.57 0 0 0 .57-.57zm0 2.65a.57.57 0 0 0-.57-.57h-2.32a.57.57 0 0 0-.57.57.58.58 0 0 0 .57.57h2.32a.58.58 0 0 0 .57-.57zm0 2.65a.58.58 0 0 0-.57-.58h-2.32a.58.58 0 0 0 0 1.15h2.32a.58.58 0 0 0 .57-.57zm8.72-18.54a.58.58 0 0 0-.57-.58h-6.13a.58.58 0 1 0 0 1.15h6.08a.58.58 0 0 0 .62-.57zm0 2.64a.58.58 0 0 0-.57-.57h-6.13a.58.58 0 1 0 0 1.15h6.08a.58.58 0 0 0 .62-.58zm0 2.65a.58.58 0 0 0-.57-.57h-6.13a.58.58 0 0 0-.58.57.57.57 0 0 0 .58.57h6.08a.57.57 0 0 0 .62-.53zm0 2.65a.58.58 0 0 0-.57-.57h-6.13a.58.58 0 0 0-.58.57.57.57 0 0 0 .58.57h6.08a.57.57 0 0 0 .62-.57zm0 2.65a.57.57 0 0 0-.57-.57h-6.13a.57.57 0 1 0 0 1.14h6.08a.57.57 0 0 0 .62-.57zm7.28 2.65a.56.56 0 0 0-.57-.57h-6.08a.57.57 0 1 0 0 1.14h6.08a.56.56 0 0 0 .52-.57zm0 2.65a.56.56 0 0 0-.57-.57h-6.08a.56.56 0 0 0-.57.57.57.57 0 0 0 .57.57h6.08a.57.57 0 0 0 .52-.57zm0 2.65a.57.57 0 0 0-.57-.58h-6.08a.58.58 0 0 0 0 1.15h6.08a.57.57 0 0 0 .52-.57zm-4.6-18.54a.67.67 0 1 0-.05 0zm2 0a.66.66 0 1 0-.07 0zm2 0a.66.66 0 1 0-1.32 0 .66.66 0 0 0 1.32 0zm2 0a.67.67 0 1 0-.09 0zm2 0a.66.66 0 1 0-.11 0zm2 0a.66.66 0 1 0-1.32 0 .66.66 0 0 0 1.32 0zM301.63 272a.67.67 0 1 0-.66.67.67.67 0 0 0 .66-.67zm2 0a.66.66 0 1 0-1.32 0 .66.66 0 1 0 1.32 0zm2 0a.66.66 0 1 0-.66.67.67.67 0 0 0 .63-.67zm2 0a.67.67 0 1 0-.04 0zm2 0a.66.66 0 1 0-1.32 0 .66.66 0 1 0 1.32 0zm2 0a.66.66 0 1 0-.66.67.67.67 0 0 0 .59-.67zm-3.15 7.62a.66.66 0 1 0-1.32 0 .66.66 0 0 0 1.32 0zm2 0a.66.66 0 1 0-.08-.04zm2 0a.67.67 0 0 0-1.33 0 .67.67 0 0 0 1.33 0zm2 0a.66.66 0 1 0-1.32 0 .66.66 0 1 0 1.32 0zm2 0a.66.66 0 1 0-.12-.04zm2 0a.67.67 0 1 0-.67.66.66.66 0 0 0 .54-.7zM308.4 285a.66.66 0 1 0-.66.66.65.65 0 0 0 .66-.66zm2 0a.66.66 0 1 0-.66.66.66.66 0 0 0 .65-.66zm2 0a.67.67 0 1 0-.66.66.66.66 0 0 0 .64-.66zm2 0a.66.66 0 1 0-.66.66.65.65 0 0 0 .62-.66zm2 0a.66.66 0 1 0-.05 0zm2 0a.67.67 0 1 0-.67.66.66.66 0 0 0 .61-.66z"/><path d="M289.7 288.94h-2.32a.57.57 0 0 1-.57-.57.58.58 0 0 1 .57-.57h2.32a.58.58 0 0 1 .57.57.57.57 0 0 1-.57.57zm.57 2.08a.57.57 0 0 0-.57-.57h-2.32a.57.57 0 0 0 0 1.14h2.32a.57.57 0 0 0 .57-.59zm0 2.65a.57.57 0 0 0-.57-.57h-2.32a.57.57 0 0 0-.57.57.58.58 0 0 0 .57.57h2.32a.58.58 0 0 0 .57-.57zm0 2.65a.57.57 0 0 0-.57-.57h-2.32a.57.57 0 0 0-.57.57.58.58 0 0 0 .57.57h2.32a.58.58 0 0 0 .57-.57zm0 2.65a.58.58 0 0 0-.57-.58h-2.32a.58.58 0 0 0 0 1.15h2.32a.58.58 0 0 0 .57-.54zm0 2.65a.58.58 0 0 0-.57-.58h-2.32a.58.58 0 0 0 0 1.15h2.32a.58.58 0 0 0 .57-.57zm0 2.64a.58.58 0 0 0-.57-.57h-2.32a.58.58 0 0 0 0 1.15h2.32a.58.58 0 0 0 .57-.58zm0 2.65a.58.58 0 0 0-.57-.57h-2.32a.58.58 0 0 0-.57.57.57.57 0 0 0 .57.57h2.32a.57.57 0 0 0 .57-.57zm8.72-18.54a.58.58 0 0 0-.57-.57h-6.13a.58.58 0 0 0-.58.57.57.57 0 0 0 .58.57h6.08a.57.57 0 0 0 .62-.57zm0 2.65a.57.57 0 0 0-.57-.57h-6.13a.57.57 0 1 0 0 1.14h6.08a.57.57 0 0 0 .62-.59zm0 2.65a.57.57 0 0 0-.57-.57h-6.13a.57.57 0 0 0-.58.57.58.58 0 0 0 .58.57h6.08a.58.58 0 0 0 .62-.57zm0 2.65a.57.57 0 0 0-.57-.57h-6.13a.57.57 0 0 0-.58.57.58.58 0 0 0 .58.57h6.08a.58.58 0 0 0 .62-.57zm0 2.65a.58.58 0 0 0-.57-.58h-6.13a.58.58 0 1 0 0 1.15h6.08a.58.58 0 0 0 .62-.54zm7.28 2.65a.57.57 0 0 0-.57-.58h-6.08a.58.58 0 0 0 0 1.15h6.08a.57.57 0 0 0 .52-.57zm0 2.64a.57.57 0 0 0-.57-.57h-6.08a.58.58 0 0 0 0 1.15h6.08a.57.57 0 0 0 .52-.58zm0 2.65a.57.57 0 0 0-.57-.57h-6.08a.57.57 0 0 0-.57.57.56.56 0 0 0 .57.57h6.08a.56.56 0 0 0 .52-.57zm-4.6-18.54a.67.67 0 1 0-.05 0zm2 0a.66.66 0 1 0-.07 0zm2 0a.66.66 0 1 0-1.32 0 .66.66 0 0 0 1.32 0zm2 0a.67.67 0 0 0-1.33 0 .67.67 0 0 0 1.33 0zm2 0a.66.66 0 1 0-.11 0zm2 0a.66.66 0 0 0-1.32 0 .66.66 0 0 0 1.32 0zm-9.93 5.3a.67.67 0 0 0-1.33 0 .67.67 0 0 0 1.33 0zm2 0a.66.66 0 0 0-1.32 0 .66.66 0 0 0 1.32 0zm2 0a.66.66 0 1 0-.15 0zm2 0a.67.67 0 1 0-.67.66.66.66 0 0 0 .51-.66zm2 0a.66.66 0 0 0-1.32 0 .66.66 0 0 0 1.32 0zm2 0a.66.66 0 1 0-.19 0zm-3.15 7.6a.66.66 0 1 0-1.32 0 .66.66 0 1 0 1.32 0zm2 0a.66.66 0 1 0-.66.67.67.67 0 0 0 .46-.67zm2 0a.67.67 0 1 0-.21 0zm2 0a.66.66 0 1 0-1.32 0 .66.66 0 1 0 1.32 0zm2 0a.66.66 0 1 0-.66.67.67.67 0 0 0 .42-.67zm2 0a.67.67 0 1 0-.25 0zm-9.94 5.47a.66.66 0 1 0-.25 0zm2 0a.66.66 0 1 0-1.32 0 .66.66 0 0 0 1.32 0zm2 0a.67.67 0 1 0-.66.66.67.67 0 0 0 .39-.66zm2 0a.66.66 0 1 0-.66.66.66.66 0 0 0 .37-.66zm2 0a.66.66 0 1 0-1.32 0 .66.66 0 1 0 1.32 0zm2 0a.67.67 0 1 0-.67.66.67.67 0 0 0 .36-.66zM325.3 246H323a.57.57 0 0 1-.57-.57.58.58 0 0 1 .57-.57h2.32a.57.57 0 0 1 .57.57.56.56 0 0 1-.6.57zm.57 2.08a.56.56 0 0 0-.57-.57H323a.57.57 0 1 0 0 1.14h2.32a.56.56 0 0 0 .54-.53zm0 2.65a.56.56 0 0 0-.57-.57H323a.57.57 0 0 0-.57.57.58.58 0 0 0 .57.57h2.32a.57.57 0 0 0 .54-.53zm0 2.65a.56.56 0 0 0-.57-.57H323a.57.57 0 0 0-.57.57.58.58 0 0 0 .57.57h2.32a.57.57 0 0 0 .54-.53zm0 2.65a.57.57 0 0 0-.57-.58H323a.58.58 0 0 0 0 1.15h2.32a.57.57 0 0 0 .54-.53zm0 2.64a.57.57 0 0 0-.57-.57H323a.58.58 0 0 0 0 1.15h2.32a.57.57 0 0 0 .54-.54zm0 2.65a.57.57 0 0 0-.57-.57H323a.58.58 0 0 0-.57.57.57.57 0 0 0 .57.57h2.32a.56.56 0 0 0 .54-.53zm0 2.65a.57.57 0 0 0-.57-.57H323a.58.58 0 0 0-.57.57.57.57 0 0 0 .57.57h2.32a.56.56 0 0 0 .54-.54zm8.67-18.54a.57.57 0 0 0-.57-.57h-6.08a.58.58 0 0 0-.58.57.57.57 0 0 0 .58.57h6.1a.56.56 0 0 0 .53-.53zm0 2.65a.56.56 0 0 0-.57-.57h-6.08a.57.57 0 1 0 0 1.14h6.1a.56.56 0 0 0 .53-.53zm0 2.65a.56.56 0 0 0-.57-.57h-6.08a.57.57 0 0 0-.58.57.58.58 0 0 0 .58.57h6.1a.57.57 0 0 0 .53-.53zm0 2.65a.56.56 0 0 0-.57-.57h-6.08a.57.57 0 0 0-.58.57.58.58 0 0 0 .58.57h6.1a.57.57 0 0 0 .53-.53zm0 2.65a.57.57 0 0 0-.57-.58h-6.08a.58.58 0 1 0 0 1.15h6.1a.57.57 0 0 0 .53-.53zm7.3 2.64a.58.58 0 0 0-.58-.57h-6.08a.58.58 0 0 0 0 1.15h6.08a.58.58 0 0 0 .58-.54zm0 2.65a.58.58 0 0 0-.58-.57h-6.08a.57.57 0 0 0-.57.57.56.56 0 0 0 .57.57h6.08a.57.57 0 0 0 .58-.53zm0 2.65a.58.58 0 0 0-.58-.57h-6.08a.57.57 0 0 0-.57.57.56.56 0 0 0 .57.57h6.08a.57.57 0 0 0 .58-.54zm-4.6-18.54a.67.67 0 1 0 0 .04zm2 0a.67.67 0 0 0-1.33 0 .67.67 0 0 0 1.33 0zm2 0a.66.66 0 1 0-.03.04zm2 0a.67.67 0 1 0-.04.04zm2 0a.66.66 0 1 0-.06.04zm2 0a.66.66 0 1 0-1.32 0 .66.66 0 1 0 1.32 0zm-9.93 5.3a.67.67 0 0 0-1.33 0 .67.67 0 0 0 1.33 0zm2 0a.67.67 0 1 0-.67.66.66.66 0 0 0 .59-.62zm2 0a.66.66 0 1 0-.66.66.65.65 0 0 0 .56-.62zm2 0a.67.67 0 0 0-1.33 0 .67.67 0 0 0 1.33 0zm2 0a.66.66 0 1 0-1.32 0 .66.66 0 1 0 1.32 0zm2 0a.66.66 0 1 0-.14.04zm-3.28 7.65a.67.67 0 1 0-.67.67.67.67 0 0 0 .67-.67zm2 0a.66.66 0 1 0-.66.67.66.66 0 0 0 .66-.67zm2 0a.67.67 0 1 0-.66.67.67.67 0 0 0 .66-.67zm2 0a.67.67 0 1 0-.67.67.67.67 0 0 0 .67-.67zm2 0a.66.66 0 1 0-.06 0zm2 0a.67.67 0 1 0-.07 0zm-10 5.47a.67.67 0 1 0-.67.66.67.67 0 0 0 .67-.66zm2 0a.66.66 0 1 0-.66.66.66.66 0 0 0 .66-.66zm2 0a.67.67 0 1 0-.66.66.67.67 0 0 0 .66-.66zm2 0a.67.67 0 1 0-.67.66.67.67 0 0 0 .67-.66zm2 0a.66.66 0 1 0-.06 0zm2 0a.67.67 0 1 0-.07 0z"/><path d="M325.3 267.75H323a.58.58 0 0 1-.57-.57.57.57 0 0 1 .57-.57h2.32a.56.56 0 0 1 .57.57.57.57 0 0 1-.6.57zm.57 2.08a.57.57 0 0 0-.57-.58H323a.58.58 0 0 0 0 1.15h2.32a.57.57 0 0 0 .54-.57zm0 2.64a.57.57 0 0 0-.57-.57H323a.58.58 0 0 0 0 1.15h2.32a.57.57 0 0 0 .54-.58zm0 2.65a.57.57 0 0 0-.57-.57H323a.58.58 0 0 0-.57.57.57.57 0 0 0 .57.57h2.32a.56.56 0 0 0 .54-.57zm0 2.65a.57.57 0 0 0-.57-.57H323a.58.58 0 0 0-.57.57.57.57 0 0 0 .57.57h2.32a.56.56 0 0 0 .54-.57zm0 2.65a.56.56 0 0 0-.57-.57H323a.57.57 0 1 0 0 1.14h2.32a.56.56 0 0 0 .54-.57zm0 2.65a.56.56 0 0 0-.57-.57H323a.57.57 0 1 0 0 1.14h2.32a.56.56 0 0 0 .54-.57zm0 2.65a.56.56 0 0 0-.57-.57H323a.57.57 0 0 0-.57.57.58.58 0 0 0 .57.57h2.32a.57.57 0 0 0 .54-.57zm8.67-18.54a.56.56 0 0 0-.57-.57h-6.08a.57.57 0 0 0-.58.57.58.58 0 0 0 .58.57H334a.57.57 0 0 0 .53-.57zm0 2.65a.57.57 0 0 0-.57-.58h-6.08a.58.58 0 1 0 0 1.15H334a.57.57 0 0 0 .53-.57zm0 2.64a.57.57 0 0 0-.57-.57h-6.08a.58.58 0 1 0 0 1.15H334a.57.57 0 0 0 .53-.58zm0 2.65a.57.57 0 0 0-.57-.57h-6.08a.58.58 0 0 0-.58.57.57.57 0 0 0 .58.57H334a.56.56 0 0 0 .53-.57zm0 2.65a.57.57 0 0 0-.57-.57h-6.08a.58.58 0 0 0-.58.57.57.57 0 0 0 .58.57H334a.56.56 0 0 0 .53-.57zm7.3 2.65a.57.57 0 0 0-.58-.57h-6.08a.57.57 0 1 0 0 1.14h6.08a.57.57 0 0 0 .58-.57zm0 2.65a.57.57 0 0 0-.58-.57h-6.08a.57.57 0 1 0 0 1.14h6.08a.57.57 0 0 0 .58-.57zm0 2.65a.57.57 0 0 0-.58-.57h-6.08a.56.56 0 0 0-.57.57.57.57 0 0 0 .57.57h6.08a.58.58 0 0 0 .58-.57zm-4.6-18.54a.67.67 0 0 0-1.33 0 .67.67 0 0 0 1.33 0zm2 0a.67.67 0 1 0-.67.66.66.66 0 0 0 .66-.66zm2 0a.66.66 0 1 0-.66.66.65.65 0 0 0 .63-.66zm2 0a.67.67 0 0 0-1.33 0 .67.67 0 0 0 1.33 0zm2 0a.66.66 0 0 0-1.32 0 .66.66 0 0 0 1.32 0zm2 0a.66.66 0 1 0-.07 0zm-9.93 5.3a.67.67 0 1 0-.07 0zm2 0a.67.67 0 1 0-.08 0zm2 0a.66.66 0 1 0-.1 0zm2 0a.67.67 0 1 0-.11 0zm2 0a.66.66 0 0 0-1.32 0 .66.66 0 1 0 1.32 0zm2 0a.66.66 0 1 0-.66.67.67.67 0 0 0 .52-.67zM344 280.1a.67.67 0 1 0-.67.66.66.66 0 0 0 .67-.66zm2 0a.66.66 0 1 0-.66.66.65.65 0 0 0 .66-.66zm2 0a.67.67 0 1 0-.66.66.66.66 0 0 0 .66-.66zm2 0a.67.67 0 1 0-.67.66.66.66 0 0 0 .67-.66zm2 0a.66.66 0 1 0-.66.66.65.65 0 0 0 .6-.66zm2 0a.67.67 0 1 0-.66.66.66.66 0 0 0 .59-.66zm-10 5.46a.67.67 0 0 0-1.33 0 .67.67 0 0 0 1.33 0zm2 0a.66.66 0 1 0-.66.66.66.66 0 0 0 .66-.66zm2 0a.67.67 0 1 0-.66.66.67.67 0 0 0 .66-.66zm2 0a.67.67 0 0 0-1.33 0 .67.67 0 0 0 1.33 0zm2 0a.66.66 0 1 0-.06 0zm2 0a.67.67 0 1 0-.07 0z"/></g><g class="B C"><path d="M287.27 224.2H254.2a.52.52 0 0 1-.23-1l6.8-3.27a.43.43 0 0 1 .22-.06h30.55a.52.52 0 0 1 .31.94l-4.26 3.28a.51.51 0 0 1-.32.11z" class="E"/><path d="M271.5 199.23h6.08v23.17h-6.08z" class="D"/><path d="M270.54 199.23h8v16.82h-8z" class="E"/><path d="M225.63 122.15H326.3v78.75H225.63z" class="D"/><path d="M231 126.37h89.9v70.33H231z" class="E"/></g><g stroke="#4550e6" class="F I"><path d="M238.04 134.23h36.64v16.28h-36.64zm4.76 27.57h8.54a26.37 26.37 0 0 1 11.15 2.48l4 1.87a15.64 15.64 0 0 0 14.19-.47l1.15-.62a26.24 26.24 0 0 1 12.67-3.26h10.1m-61.8 5.98h8.54a26.22 26.22 0 0 1 11.15 2.48l4 1.86a15.67 15.67 0 0 0 14.19-.46l1.15-.63a26.34 26.34 0 0 1 12.67-3.25h10.1m-61.8 19.16h8.54a26.37 26.37 0 0 0 11.15-2.48l4-1.87a15.67 15.67 0 0 1 14.19.46l1.15.63a26.24 26.24 0 0 0 12.67 3.26h10.1"/><path d="M242.8 181h8.54a26.37 26.37 0 0 0 11.15-2.48l4-1.87a15.64 15.64 0 0 1 14.19.47l1.15.62a26.24 26.24 0 0 0 12.65 3.26h10.1"/></g><path d="M305.6 157.84h5.73v5.73h-5.73zm0 7.06h5.73v5.73h-5.73zm0 12.12h5.73v5.73h-5.73zm0 7.05h5.73v5.73h-5.73zm-69.65-26.23h5.73v5.73h-5.73zm0 7.06h5.73v5.73h-5.73zm0 12.12h5.73v5.73h-5.73zm0 7.05h5.73v5.73h-5.73zM282.8 134h-2.3a.57.57 0 1 1 0-1.14h2.3a.57.57 0 1 1 0 1.14zm.57 2.08a.56.56 0 0 0-.57-.57h-2.3a.57.57 0 0 0-.58.57.58.58 0 0 0 .58.57h2.3a.57.57 0 0 0 .57-.65zm0 2.65a.57.57 0 0 0-.57-.58h-2.3a.58.58 0 1 0 0 1.15h2.3a.57.57 0 0 0 .57-.62zm0 2.64a.57.57 0 0 0-.57-.57h-2.3a.58.58 0 1 0 0 1.15h2.3a.57.57 0 0 0 .57-.63zm0 2.65a.57.57 0 0 0-.57-.57h-2.3a.58.58 0 1 0 0 1.15h2.3a.57.57 0 0 0 .57-.6zm0 2.65a.57.57 0 0 0-.57-.57h-2.3a.58.58 0 0 0-.58.57.57.57 0 0 0 .58.57h2.3a.56.56 0 0 0 .57-.62zm0 2.65a.57.57 0 0 0-.57-.57h-2.3a.58.58 0 0 0-.58.57.57.57 0 0 0 .58.57h2.3a.56.56 0 0 0 .57-.62zm0 2.65a.56.56 0 0 0-.57-.57h-2.3a.57.57 0 1 0 0 1.14h2.3a.56.56 0 0 0 .57-.62zm8.63-18.6a.56.56 0 0 0-.57-.57h-6.08a.57.57 0 0 0 0 1.14h6.08a.56.56 0 0 0 .57-.57zm0 2.65a.56.56 0 0 0-.57-.57h-6.08a.56.56 0 0 0-.57.57.57.57 0 0 0 .57.57h6.08a.57.57 0 0 0 .57-.6zm0 2.65a.57.57 0 0 0-.57-.58h-6.08a.58.58 0 0 0 0 1.15h6.08a.57.57 0 0 0 .57-.57zm0 2.64a.57.57 0 0 0-.57-.57h-6.08a.58.58 0 0 0 0 1.15h6.08a.57.57 0 0 0 .57-.58zm0 2.65a.57.57 0 0 0-.57-.57h-6.08a.58.58 0 0 0 0 1.15h6.08a.57.57 0 0 0 .57-.55zm7.3 2.65a.58.58 0 0 0-.57-.57h-6.1a.58.58 0 0 0-.57.57.57.57 0 0 0 .57.57h6.1a.57.57 0 0 0 .61-.57zm0 2.65a.58.58 0 0 0-.57-.57h-6.1a.58.58 0 0 0-.57.57.57.57 0 0 0 .57.57h6.1a.57.57 0 0 0 .61-.57zm0 2.65a.57.57 0 0 0-.57-.57h-6.1a.57.57 0 0 0 0 1.14h6.1a.57.57 0 0 0 .61-.57zm-4.6-18.54a.66.66 0 1 0-.66.66.65.65 0 0 0 .7-.66zm2 0a.67.67 0 0 0-1.33 0 .67.67 0 0 0 1.33 0zm2 0a.66.66 0 1 0-1.32 0 .66.66 0 1 0 1.32 0zm2 0a.66.66 0 1 0-.66.66.66.66 0 0 0 .66-.66zm2 0a.67.67 0 0 0-1.33 0 .67.67 0 0 0 1.33 0zm2 0a.66.66 0 0 0-1.32 0 .66.66 0 0 0 1.32 0zm-9.93 5.3a.66.66 0 1 0-.03 0zm2 0a.67.67 0 1 0-.04 0zm2 0a.66.66 0 1 0-.06 0zm2 0a.66.66 0 1 0-1.32 0 .66.66 0 1 0 1.32 0zm2 0a.67.67 0 1 0-.08 0zm2 0a.66.66 0 1 0-.1 0zm-3.14 7.6a.67.67 0 1 0-.1 0zm2 0a.67.67 0 0 0-1.33 0 .67.67 0 0 0 1.33 0zm2 0a.66.66 0 1 0-.13 0zm2 0a.67.67 0 1 0-.14 0zm2 0a.66.66 0 1 0-.16 0zm2 0a.66.66 0 1 0-1.32 0 .66.66 0 1 0 1.32 0zm-9.93 5.46a.67.67 0 1 0-.17 0zm2 0a.67.67 0 1 0-.18 0zm2 0a.66.66 0 1 0-.2 0zm2 0a.67.67 0 1 0-.21 0zm2 0a.66.66 0 0 0-1.32 0 .66.66 0 1 0 1.32 0zm2 0a.66.66 0 1 0-.66.67.67.67 0 0 0 .42-.67z" class="G"/><g class="B C"><path d="M219.52 339h-33.08a.52.52 0 0 1-.22-1l6.8-3.28a.64.64 0 0 1 .23 0h30.54a.52.52 0 0 1 .32.94l-4.26 3.27a.52.52 0 0 1-.32.07z" class="E"/><path d="M203.74 314.07h6.08v23.17h-6.08z" class="D"/><path d="M202.8 314.07h8v16.82h-8z" class="E"/><path d="M157.87 237h100.68v78.75H157.87z" class="D"/><path d="M163.26 241.2h89.9v70.33h-89.9z" class="E"/></g><g class="G"><path d="M183.2 246h-2.32a.57.57 0 0 1-.57-.57.58.58 0 0 1 .57-.57h2.32a.57.57 0 0 1 .57.57.56.56 0 0 1-.57.57zm.57 2.08a.56.56 0 0 0-.57-.57h-2.32a.57.57 0 0 0 0 1.14h2.32a.56.56 0 0 0 .57-.53zm0 2.65a.56.56 0 0 0-.57-.57h-2.32a.57.57 0 0 0-.57.57.58.58 0 0 0 .57.57h2.32a.57.57 0 0 0 .57-.53zm0 2.65a.56.56 0 0 0-.57-.57h-2.32a.57.57 0 0 0-.57.57.58.58 0 0 0 .57.57h2.32a.57.57 0 0 0 .57-.53zm0 2.65a.57.57 0 0 0-.57-.58h-2.32a.58.58 0 0 0 0 1.15h2.32a.57.57 0 0 0 .57-.53zm0 2.64a.57.57 0 0 0-.57-.57h-2.32a.58.58 0 0 0 0 1.15h2.32a.57.57 0 0 0 .57-.54zm0 2.65a.57.57 0 0 0-.57-.57h-2.32a.58.58 0 0 0-.57.57.57.57 0 0 0 .57.57h2.32a.56.56 0 0 0 .57-.53zm0 2.65a.57.57 0 0 0-.57-.57h-2.32a.58.58 0 0 0-.57.57.57.57 0 0 0 .57.57h2.32a.56.56 0 0 0 .57-.54zm8.67-18.54a.57.57 0 0 0-.57-.57h-6.08a.57.57 0 0 0-.57.57.56.56 0 0 0 .57.57h6.08a.56.56 0 0 0 .57-.53zm0 2.65a.56.56 0 0 0-.57-.57h-6.08a.57.57 0 1 0 0 1.14h6.08a.56.56 0 0 0 .57-.53zm0 2.65a.56.56 0 0 0-.57-.57h-6.08a.56.56 0 0 0-.57.57.57.57 0 0 0 .57.57h6.08a.57.57 0 0 0 .57-.53zm0 2.65a.56.56 0 0 0-.57-.57h-6.08a.56.56 0 0 0-.57.57.57.57 0 0 0 .57.57h6.08a.57.57 0 0 0 .57-.53zm0 2.65a.57.57 0 0 0-.57-.58h-6.08a.58.58 0 0 0 0 1.15h6.08a.57.57 0 0 0 .57-.53zm7.3 2.64a.58.58 0 0 0-.57-.57h-6.1a.58.58 0 0 0 0 1.15h6.1a.58.58 0 0 0 .57-.54zm0 2.65a.58.58 0 0 0-.57-.57h-6.1a.58.58 0 0 0-.57.57.57.57 0 0 0 .57.57h6.1a.57.57 0 0 0 .57-.53zm0 2.65a.58.58 0 0 0-.57-.57h-6.1a.58.58 0 0 0-.57.57.57.57 0 0 0 .57.57h6.1a.57.57 0 0 0 .57-.54zm-4.6-18.54a.66.66 0 0 0-1.32 0 .66.66 0 0 0 1.32 0zm2 0a.67.67 0 0 0-1.33 0 .67.67 0 0 0 1.33 0zm2 0a.66.66 0 1 0-.03.04zm2 0a.66.66 0 1 0-1.32 0 .66.66 0 1 0 1.32 0zm2 0a.67.67 0 0 0-1.33 0 .67.67 0 0 0 1.33 0zm2 0a.66.66 0 1 0-.07.04zm-9.93 5.3a.66.66 0 1 0-.07.04zm2 0a.67.67 0 1 0-.67.66.66.66 0 0 0 .59-.62zm2 0a.66.66 0 1 0-1.32 0 .66.66 0 1 0 1.32 0zm2 0a.66.66 0 1 0-.11.04zm2 0a.67.67 0 1 0-.67.66.66.66 0 0 0 .55-.62zm2 0a.66.66 0 1 0-.66.66.65.65 0 0 0 .52-.62zm-3.14 7.6a.67.67 0 1 0-.14.04zm2 0a.66.66 0 1 0-1.32 0 .66.66 0 1 0 1.32 0zm2 0a.66.66 0 1 0-.66.67.67.67 0 0 0 .49-.63zm2 0a.67.67 0 1 0-.18.04zm2 0a.66.66 0 1 0-1.32 0 .66.66 0 1 0 1.32 0zm2 0a.66.66 0 1 0-.66.67.67.67 0 0 0 .45-.63zm-9.93 5.47a.67.67 0 1 0-.66.66.67.67 0 0 0 .45-.62zm2 0a.66.66 0 1 0-.66.66.66.66 0 0 0 .43-.62zm2 0a.66.66 0 1 0-1.32 0 .66.66 0 0 0 1.32 0zm2 0a.67.67 0 1 0-.67.66.67.67 0 0 0 .42-.62zm2 0a.66.66 0 1 0-.66.66.66.66 0 0 0 .39-.62zm2 0a.66.66 0 1 0-1.32 0 .66.66 0 0 0 1.32 0zm-28.94 3.44h-2.32a.58.58 0 0 1 0-1.15h2.32a.58.58 0 0 1 0 1.15zm.57 2.07a.57.57 0 0 0-.57-.57h-2.32a.58.58 0 0 0 0 1.15h2.32a.57.57 0 0 0 .57-.58zm0 2.65a.57.57 0 0 0-.57-.57h-2.32a.58.58 0 0 0-.57.57.57.57 0 0 0 .57.57h2.32a.56.56 0 0 0 .57-.53zm0 2.65a.57.57 0 0 0-.57-.57h-2.32a.58.58 0 0 0-.57.57.57.57 0 0 0 .57.57h2.32a.56.56 0 0 0 .57-.57zm0 2.65a.56.56 0 0 0-.57-.57h-2.32a.57.57 0 0 0 0 1.14h2.32a.56.56 0 0 0 .57-.57zm0 2.65a.56.56 0 0 0-.57-.57h-2.32a.57.57 0 0 0 0 1.14h2.32a.56.56 0 0 0 .57-.57zm0 2.65a.56.56 0 0 0-.57-.57h-2.32a.57.57 0 0 0-.57.57.58.58 0 0 0 .57.57h2.32a.57.57 0 0 0 .57-.57zm0 2.65a.57.57 0 0 0-.57-.58h-2.32a.58.58 0 0 0 0 1.15h2.32a.57.57 0 0 0 .57-.57zm8.67-18.54a.57.57 0 0 0-.57-.58h-6.08a.58.58 0 0 0 0 1.15h6.08a.57.57 0 0 0 .57-.57zm0 2.64a.57.57 0 0 0-.57-.57h-6.08a.58.58 0 0 0 0 1.15h6.08a.57.57 0 0 0 .57-.58zm0 2.65a.57.57 0 0 0-.57-.57h-6.08a.57.57 0 0 0-.57.57.56.56 0 0 0 .57.57h6.08a.56.56 0 0 0 .57-.53zm0 2.65a.57.57 0 0 0-.57-.57h-6.08a.57.57 0 0 0-.57.57.56.56 0 0 0 .57.57h6.08a.56.56 0 0 0 .57-.57zm0 2.65a.56.56 0 0 0-.57-.57h-6.08a.57.57 0 1 0 0 1.14h6.08a.56.56 0 0 0 .57-.57zm7.3 2.65a.57.57 0 0 0-.57-.57h-6.1a.57.57 0 0 0 0 1.14h6.1a.57.57 0 0 0 .57-.57zm0 2.65a.57.57 0 0 0-.57-.57h-6.1a.57.57 0 0 0-.57.57.58.58 0 0 0 .57.57h6.1a.58.58 0 0 0 .57-.57zm0 2.65a.58.58 0 0 0-.57-.58h-6.1a.58.58 0 0 0 0 1.15h6.1a.58.58 0 0 0 .57-.57zm-4.6-18.54a.66.66 0 1 0-1.32 0 .66.66 0 0 0 1.32 0zm2 0a.67.67 0 1 0-.67.66.67.67 0 0 0 .66-.66zm2 0a.66.66 0 1 0-.03 0zm2 0a.66.66 0 1 0-1.32 0 .66.66 0 0 0 1.32 0zm2 0a.67.67 0 1 0-.05 0zm2 0a.66.66 0 1 0-.07 0zm-10 5.33a.66.66 0 1 0-.66.67.67.67 0 0 0 .66-.67zm2 0a.67.67 0 1 0-.67.67.67.67 0 0 0 .66-.67zm2 0a.66.66 0 1 0-1.32 0 .66.66 0 1 0 1.32 0zm2 0a.66.66 0 1 0-.66.67.67.67 0 0 0 .62-.67zm2 0a.67.67 0 1 0-.05 0zm2 0a.66.66 0 1 0-.07 0zm-3.14 7.62a.67.67 0 0 0-1.33 0 .67.67 0 0 0 1.33 0zm2 0a.66.66 0 1 0-1.32 0 .66.66 0 1 0 1.32 0zm2 0a.66.66 0 1 0-.1-.04zm2 0a.67.67 0 1 0-.67.66.66.66 0 0 0 .56-.7zm2 0a.66.66 0 1 0-1.32 0 .66.66 0 1 0 1.32 0zm2 0a.66.66 0 1 0-.14-.04zM201.92 285a.67.67 0 1 0-.66.66.66.66 0 0 0 .66-.66zm2 0a.66.66 0 1 0-.66.66.65.65 0 0 0 .64-.66zm2 0a.66.66 0 1 0-.03 0zm2 0a.67.67 0 1 0-.67.66.66.66 0 0 0 .63-.66zm2 0a.66.66 0 1 0-.66.66.65.65 0 0 0 .6-.66zm2 0a.66.66 0 1 0-.07 0z"/><path d="M183.2 288.94h-2.32a.57.57 0 0 1-.57-.57.58.58 0 0 1 .57-.57h2.32a.57.57 0 0 1 .57.57.56.56 0 0 1-.57.57zm.57 2.08a.56.56 0 0 0-.57-.57h-2.32a.57.57 0 0 0 0 1.14h2.32a.56.56 0 0 0 .57-.59zm0 2.65a.56.56 0 0 0-.57-.57h-2.32a.57.57 0 0 0-.57.57.58.58 0 0 0 .57.57h2.32a.57.57 0 0 0 .57-.57zm0 2.65a.56.56 0 0 0-.57-.57h-2.32a.57.57 0 0 0-.57.57.58.58 0 0 0 .57.57h2.32a.57.57 0 0 0 .57-.57zm0 2.65a.57.57 0 0 0-.57-.58h-2.32a.58.58 0 0 0 0 1.15h2.32a.57.57 0 0 0 .57-.54zm0 2.65a.57.57 0 0 0-.57-.58h-2.32a.58.58 0 0 0 0 1.15h2.32a.57.57 0 0 0 .57-.57zm0 2.64a.57.57 0 0 0-.57-.57h-2.32a.58.58 0 0 0 0 1.15h2.32a.57.57 0 0 0 .57-.58zm0 2.65a.57.57 0 0 0-.57-.57h-2.32a.58.58 0 0 0-.57.57.57.57 0 0 0 .57.57h2.32a.56.56 0 0 0 .57-.57zm8.67-18.54a.57.57 0 0 0-.57-.57h-6.08a.57.57 0 0 0-.57.57.56.56 0 0 0 .57.57h6.08a.56.56 0 0 0 .57-.57zm0 2.65a.56.56 0 0 0-.57-.57h-6.08a.57.57 0 1 0 0 1.14h6.08a.56.56 0 0 0 .57-.59zm0 2.65a.56.56 0 0 0-.57-.57h-6.08a.56.56 0 0 0-.57.57.57.57 0 0 0 .57.57h6.08a.57.57 0 0 0 .57-.57zm0 2.65a.56.56 0 0 0-.57-.57h-6.08a.56.56 0 0 0-.57.57.57.57 0 0 0 .57.57h6.08a.57.57 0 0 0 .57-.57zm0 2.65a.57.57 0 0 0-.57-.58h-6.08a.58.58 0 0 0 0 1.15h6.08a.57.57 0 0 0 .57-.54zm7.3 2.65a.58.58 0 0 0-.57-.58h-6.1a.58.58 0 0 0 0 1.15h6.1a.58.58 0 0 0 .57-.57zm0 2.64a.58.58 0 0 0-.57-.57h-6.1a.58.58 0 0 0 0 1.15h6.1a.58.58 0 0 0 .57-.58zm0 2.65a.58.58 0 0 0-.57-.57h-6.1a.58.58 0 0 0-.57.57.57.57 0 0 0 .57.57h6.1a.57.57 0 0 0 .57-.57zm-4.6-18.54a.66.66 0 0 0-1.32 0 .66.66 0 0 0 1.32 0zm2 0a.67.67 0 0 0-1.33 0 .67.67 0 0 0 1.33 0zm2 0a.66.66 0 1 0-.03 0zm2 0a.66.66 0 0 0-1.32 0 .66.66 0 0 0 1.32 0zm2 0a.67.67 0 0 0-1.33 0 .67.67 0 0 0 1.33 0zm2 0a.66.66 0 1 0-.07 0zm-9.93 5.3a.66.66 0 1 0-.07 0zm2 0a.67.67 0 1 0-.67.66.66.66 0 0 0 .59-.66zm2 0a.66.66 0 0 0-1.32 0 .66.66 0 0 0 1.32 0zm2 0a.66.66 0 1 0-.11 0zm2 0a.67.67 0 1 0-.67.66.66.66 0 0 0 .55-.66zm2 0a.66.66 0 1 0-.66.66.65.65 0 0 0 .52-.66zm-3.14 7.6a.67.67 0 1 0-.14 0zm2 0a.66.66 0 1 0-1.32 0 .66.66 0 1 0 1.32 0zm2 0a.66.66 0 1 0-.66.67.67.67 0 0 0 .49-.67zm2 0a.67.67 0 1 0-.18 0zm2 0a.66.66 0 1 0-1.32 0 .66.66 0 1 0 1.32 0zm2 0a.66.66 0 1 0-.66.67.67.67 0 0 0 .45-.67zm-9.93 5.47a.67.67 0 1 0-.66.66.67.67 0 0 0 .45-.66zm2 0a.66.66 0 1 0-.66.66.66.66 0 0 0 .43-.66zm2 0a.66.66 0 1 0-1.32 0 .66.66 0 1 0 1.32 0zm2 0a.67.67 0 1 0-.67.66.67.67 0 0 0 .42-.66zm2 0a.66.66 0 1 0-.66.66.66.66 0 0 0 .39-.66zm2 0a.66.66 0 1 0-1.32 0 .66.66 0 0 0 1.32 0zM218.8 246h-2.3a.57.57 0 0 1-.58-.57.58.58 0 0 1 .58-.57h2.3a.57.57 0 0 1 .57.57.56.56 0 0 1-.57.57zm.57 2.08a.56.56 0 0 0-.57-.57h-2.3a.57.57 0 1 0 0 1.14h2.3a.56.56 0 0 0 .57-.53zm0 2.65a.56.56 0 0 0-.57-.57h-2.3a.57.57 0 0 0-.58.57.58.58 0 0 0 .58.57h2.3a.57.57 0 0 0 .57-.53zm0 2.65a.56.56 0 0 0-.57-.57h-2.3a.57.57 0 0 0-.58.57.58.58 0 0 0 .58.57h2.3a.57.57 0 0 0 .57-.53zm0 2.65a.57.57 0 0 0-.57-.58h-2.3a.58.58 0 1 0 0 1.15h2.3a.57.57 0 0 0 .57-.53zm0 2.64a.57.57 0 0 0-.57-.57h-2.3a.58.58 0 1 0 0 1.15h2.3a.57.57 0 0 0 .57-.54zm0 2.65a.57.57 0 0 0-.57-.57h-2.3a.58.58 0 0 0-.58.57.57.57 0 0 0 .58.57h2.3a.56.56 0 0 0 .57-.53zm0 2.65a.57.57 0 0 0-.57-.57h-2.3a.58.58 0 0 0-.58.57.57.57 0 0 0 .58.57h2.3a.56.56 0 0 0 .57-.54zm8.64-18.5a.57.57 0 0 0-.57-.57h-6.08a.57.57 0 0 0-.57.57.56.56 0 0 0 .57.57h6.08a.56.56 0 0 0 .57-.57zm0 2.65a.56.56 0 0 0-.57-.57h-6.08a.57.57 0 0 0 0 1.14h6.08a.56.56 0 0 0 .57-.57zm0 2.65a.56.56 0 0 0-.57-.57h-6.08a.56.56 0 0 0-.57.57.57.57 0 0 0 .57.57h6.08a.57.57 0 0 0 .57-.57zm0 2.65a.56.56 0 0 0-.57-.57h-6.08a.56.56 0 0 0-.57.57.57.57 0 0 0 .57.57h6.08a.57.57 0 0 0 .57-.57zm0 2.65a.57.57 0 0 0-.57-.58h-6.08a.58.58 0 0 0 0 1.15h6.08a.57.57 0 0 0 .57-.57zm7.3 2.64a.58.58 0 0 0-.57-.57h-6.1a.58.58 0 0 0 0 1.15h6.1a.58.58 0 0 0 .6-.58zm0 2.65a.58.58 0 0 0-.57-.57h-6.1a.58.58 0 0 0-.57.57.57.57 0 0 0 .57.57h6.1a.57.57 0 0 0 .6-.57zm0 2.65a.58.58 0 0 0-.57-.57h-6.1a.58.58 0 0 0-.57.57.57.57 0 0 0 .57.57h6.1a.57.57 0 0 0 .6-.58zm-4.6-18.54a.66.66 0 1 0-1.32 0 .66.66 0 0 0 1.32 0zm2 0a.67.67 0 1 0-.66.66.67.67 0 0 0 .68-.66zm2 0a.66.66 0 1 0-.66.66.66.66 0 0 0 .66-.66zm2 0a.66.66 0 1 0-1.32 0 .66.66 0 1 0 1.32 0zm2 0a.67.67 0 0 0-1.33 0 .67.67 0 0 0 1.33 0zm2 0a.66.66 0 1 0-.04 0zm-9.93 5.3a.66.66 0 1 0-.04 0zm2 0a.67.67 0 0 0-1.33 0 .67.67 0 0 0 1.33 0zm2 0a.66.66 0 0 0-1.32 0 .66.66 0 0 0 1.32 0zm2 0a.66.66 0 1 0-.08 0zm2 0a.67.67 0 1 0-.67.66.66.66 0 0 0 .58-.66zm2 0a.66.66 0 0 0-1.32 0 .66.66 0 0 0 1.32 0zm-3.14 7.6a.67.67 0 1 0-.11 0zm2 0a.66.66 0 1 0-1.32 0 .66.66 0 1 0 1.32 0zm2 0a.66.66 0 1 0-.66.67.67.67 0 0 0 .52-.67zm2 0a.67.67 0 1 0-.15 0zm2 0a.66.66 0 1 0-1.32 0 .66.66 0 1 0 1.32 0zm2 0a.66.66 0 1 0-.66.67.67.67 0 0 0 .48-.67zm-9.93 5.47a.67.67 0 1 0-.18 0zm2 0a.66.66 0 1 0-.2 0zm2 0a.66.66 0 1 0-1.32 0 .66.66 0 0 0 1.32 0zm2 0a.67.67 0 1 0-.22 0zm2 0a.66.66 0 1 0-.24 0zm2 0a.66.66 0 1 0-1.32 0 .66.66 0 0 0 1.32 0z"/><path d="M218.8 267.75h-2.3a.58.58 0 0 1-.58-.57.57.57 0 0 1 .58-.57h2.3a.56.56 0 0 1 .57.57.57.57 0 0 1-.57.57zm.57 2.08a.57.57 0 0 0-.57-.58h-2.3a.58.58 0 1 0 0 1.15h2.3a.57.57 0 0 0 .57-.57zm0 2.64a.57.57 0 0 0-.57-.57h-2.3a.58.58 0 1 0 0 1.15h2.3a.57.57 0 0 0 .57-.58zm0 2.65a.57.57 0 0 0-.57-.57h-2.3a.58.58 0 0 0-.58.57.57.57 0 0 0 .58.57h2.3a.56.56 0 0 0 .57-.57zm0 2.65a.57.57 0 0 0-.57-.57h-2.3a.58.58 0 0 0-.58.57.57.57 0 0 0 .58.57h2.3a.56.56 0 0 0 .57-.57zm0 2.65a.56.56 0 0 0-.57-.57h-2.3a.57.57 0 1 0 0 1.14h2.3a.56.56 0 0 0 .57-.57zm0 2.65a.56.56 0 0 0-.57-.57h-2.3a.57.57 0 1 0 0 1.14h2.3a.56.56 0 0 0 .57-.57zm0 2.65a.56.56 0 0 0-.57-.57h-2.3a.57.57 0 0 0-.58.57.58.58 0 0 0 .58.57h2.3a.57.57 0 0 0 .57-.57zm8.64-18.54a.56.56 0 0 0-.57-.57h-6.08a.56.56 0 0 0-.57.57.57.57 0 0 0 .57.57h6.08a.57.57 0 0 0 .57-.57zm0 2.65a.57.57 0 0 0-.57-.58h-6.08a.58.58 0 0 0 0 1.15h6.08a.57.57 0 0 0 .57-.57zm0 2.64a.57.57 0 0 0-.57-.57h-6.08a.58.58 0 0 0 0 1.15h6.08a.57.57 0 0 0 .57-.58zm0 2.65a.57.57 0 0 0-.57-.57h-6.08a.57.57 0 0 0-.57.57.56.56 0 0 0 .57.57h6.08a.56.56 0 0 0 .57-.57zm0 2.65a.57.57 0 0 0-.57-.57h-6.08a.57.57 0 0 0-.57.57.56.56 0 0 0 .57.57h6.08a.56.56 0 0 0 .57-.57zm7.3 2.65a.57.57 0 0 0-.57-.57h-6.1a.57.57 0 0 0 0 1.14h6.1a.57.57 0 0 0 .6-.57zm0 2.65a.57.57 0 0 0-.57-.57h-6.1a.57.57 0 0 0 0 1.14h6.1a.57.57 0 0 0 .6-.57zm0 2.65a.57.57 0 0 0-.57-.57h-6.1a.57.57 0 0 0-.57.57.58.58 0 0 0 .57.57h6.1a.58.58 0 0 0 .6-.57zm-4.6-18.54a.66.66 0 1 0-.66.66.66.66 0 0 0 .69-.66zm2 0a.67.67 0 0 0-1.33 0 .67.67 0 0 0 1.33 0zm2 0a.66.66 0 0 0-1.32 0 .66.66 0 0 0 1.32 0zm2 0a.66.66 0 1 0-.66.66.66.66 0 0 0 .65-.66zm2 0a.67.67 0 1 0-.67.66.66.66 0 0 0 .65-.66zm2 0a.66.66 0 0 0-1.32 0 .66.66 0 0 0 1.32 0zm-9.93 5.3a.66.66 0 1 0-.66.67.67.67 0 0 0 .62-.67zm2 0a.67.67 0 1 0-.05 0zm2 0a.66.66 0 0 0-1.32 0 .66.66 0 1 0 1.32 0zm2 0a.66.66 0 1 0-.66.67.67.67 0 0 0 .58-.67zm2 0a.67.67 0 1 0-.09 0zm2 0a.66.66 0 0 0-1.32 0 .66.66 0 1 0 1.32 0zm-3.14 7.62a.67.67 0 1 0-.66.66.66.66 0 0 0 .55-.66zm2 0a.66.66 0 1 0-.66.66.65.65 0 0 0 .53-.66zm2 0a.66.66 0 1 0-.14 0zm2 0a.67.67 0 1 0-.66.66.66.66 0 0 0 .51-.66zm2 0a.66.66 0 1 0-.66.66.65.65 0 0 0 .49-.66zm2 0a.66.66 0 1 0-.18 0zm-9.93 5.46a.67.67 0 1 0-.18 0zm2 0a.66.66 0 1 0-.2 0zm2 0a.66.66 0 1 0-1.32 0 .66.66 0 1 0 1.32 0zm2 0a.67.67 0 1 0-.22 0zm2 0a.66.66 0 1 0-.24 0zm2 0a.66.66 0 1 0-1.32 0 .66.66 0 1 0 1.32 0z"/></g><path d="M215.64 215.34c-.3 3.78-2.1 6.72-4 6.57s-3.24-3.33-2.95-7.1 2.1-6.73 4-6.58 3.24 3.33 2.95 7.12z" class="B C F"/><use xlink:href="#K" class="D"/><g clip-path="url(#A)"><path d="M194.7 227.93c.35-9-2.08-20.5-2.08-20.5s.34-2.78-4.87-11.46a115.14 115.14 0 0 0-7-11.19 29.3 29.3 0 0 0-4.14 1.54c-12.38 5.8-9.67 26.12-9.67 26.12s2.7 8.7 1 14.32a28.26 28.26 0 0 1-5.81 9.87l16.35 7.36 13.1-1.8s.68.3 1.66.7a9.44 9.44 0 0 1 1.73-.41s4.83 2.32 6.77 2.12c1.28-1.62-7.38-7.62-7.03-16.7zm2.42-29.86l6.94-.35s-4.16 4.5.7 4.5 8-1.2 8-3.82 2.43-6.6-6.94-6.6-11.48 3.82-8.7 6.25z" opacity=".4"/></g><g class="B C"><use xlink:href="#K" class="F"/><path d="M189.34 213.8s4.64 1.35 5.22 0-1.16-1.74 1-2.52 7.16-3.87 7.16-7-5.8-8.32-2.9-9.1 11.8-.38 11.8-.38-6.2 2.9-3.1 4.25 10.64-.38 13.54-4.64-1.16-11-6.77-14.7-16.83-6.77-27.86-6.38-19.16 4.26-21.48 10.64 1.36 28.83 1.55 34.83 3.87 7.74 8.13 7.74 7.93-3.68 8.9-7 1.35-6.58 1.93-7.35 2.88 1.62 2.88 1.62z" class="E"/></g><g class="F H C"><path d="M176.47 213a14.52 14.52 0 0 1-2.36 2.1m46.8-27.1s-1.3 1.94-6.46 3.23-16.14-4.2-28.1 1.3c-8.13 3.74-6.08 9.43-7.2 15m19.16-9.88s-4.2.64-7.43 6.13-2.9 13.88-12.6 16.47" stroke="#707070"/><path d="M187.6 210.52l27.67 2.9" class="B"/></g><path d="M191.46 216.7s.4-6.77-2.12-10.06-4.65-1-5.8 5.6-1.16 10.06 1.35 11a7.14 7.14 0 0 0 5-.19" class="B C D H"/><path d="M262 392.5c-2.33-2.3-8.48-7.72-16.2-9.57-9.9-2.35-53.28-7.3-53.28-7.3l-2.13-8.73s-6.13-1.9-7.54-1.9-7.78 2.13-21.93 5.2-39.48-4.44-39.48-4.44a19.25 19.25 0 0 0-6.89 14.7c0 6 .56 11 1.25 12z" class="B C E"/><use xlink:href="#L" class="G"/><g clip-path="url(#B)"><path d="M188.62 268.58C185.35 262 174.8 250 174.8 250s8-2.37-19.26-9h0c-2.72 1.87-12.76 8.83-20.38 14.8-8.9 7-9.48 19.93-9.87 30s-6.88 72.7-8.43 80.44 12.3 9.72 25.65 11.66a74.77 74.77 0 0 0 10.65.72l38.9-31.93.25.33c1.05-8.92 3.56-30.22 4.64-45.3-2.8-13.1-6.1-28.56-8.35-33.14z" opacity=".4"/><g class="B C F H"><path d="M143.1 280.7s1.77 17.18 10.07 28.14m14.83.58s1.78 4.15 10.67 11m-17.8 1.44s9.47 3.26 18.65 1.48m-21.62 55.1s19.55-10.07 27.25-19.85"/></g></g><use xlink:href="#L" class="B C F"/><use xlink:href="#M" class="G"/><g clip-path="url(#C)"><path d="M182.34 252.4a2.08 2.08 0 0 0 1.44-1.62c.56-4.6-7.24-11.17-7.64-11.5-3.06-1.52-5.9-2.83-7.9-3.6-6.57-2.5-10.06-1.74-10.06-1.74l-5.18 8.7s15.67 3.68 23.8 7a46.79 46.79 0 0 1 5.54 2.75z" opacity=".4"/></g><g class="B C"><use xlink:href="#M" class="F"/><path d="M251.25 343.45s5-4.26 7.35-8.52 3.87-5.4 5.62-5a15.68 15.68 0 0 0 3.09.39s6.2-3.68 8.13-4.06 5.8 4.25 5.8 4.25 6.58 5 5.8 6.2-1.94.58-2.7.58-2.52-1.36-3.48-1-5.23 3.1-5.23 3.1 5 0 6.4.58 6.38 5 5.42 5.62-1 .77-2.13.58a17.69 17.69 0 0 1-3.87-1.94l-5.23 1s3.1 3.3 4.07 4.06 4.64 1.94 3.1 2.9-2.7.6-4.64-.77-6.2-3.48-7-3.48-2.9 2.7-6.38 3.87a34 34 0 0 1-8.71 1.16l-1 1-5.8-7-1.16-1z" class="D"/><path d="M281.24 330.48s-1.74-1-2.9-.38l-8.5 4.83m-2.54-4.63l-3.48 2.32" class="F H"/><path d="M216.42 346.54s12.77-.2 14.7-1.35 6.58-4.45 6.77-5.8-1-2.12-2.9-1.35-7 2.7-7.74 2.7a27.65 27.65 0 0 1-4.06-1.16s5.6-5 7.93-6.4a6.35 6.35 0 0 1 6.19 0c1.36.78 3.48-1.74 1.74-3.1a9.55 9.55 0 0 0-6.19-2.13 8.62 8.62 0 0 0-2.71.58s-2.13-3.48-3.67-3.1a6.61 6.61 0 0 0-2.71 1.55 3.52 3.52 0 0 0-3.49.19c-1.74 1.17-3.48 1.55-5.4 3.1s-7.55 5.22-8.32 6.58 9.86 9.67 9.86 9.67z" class="D"/><path d="M230.16 328.55l-5.42 3.1m-.96-4.65l-3.87 2.7" class="F H"/></g><use xlink:href="#N" class="G"/><g clip-path="url(#D)"><path d="M252.8 359.5c1.16-1.16 6.4-5.6 6.4-5.6a13.17 13.17 0 0 0-.25-4.51c-10.9 4.3-33.2 13.24-34.5 14.55-1.73 1.72-.86-1.3-.86-4.75s-5.18 6-6 8.2-2.83-6.14-3.46-9.5-10.78-29.35-13.8-41.43-8.4-41.3-11.65-47.9a32.93 32.93 0 0 0-2-3.34l-8.17 14.55s-4.45 7.93-6.2 13.74.38 14.12 1 16.06c.3 1.05 9.63 19.6 18.6 37.25l.2-.16s16.4 41.52 24.46 37.5c7.9-5 35.24-23.65 36.25-24.66z" opacity=".4"/></g><g class="B C F H"><use xlink:href="#N"/><path d="M245.83 344.6s8.8 1.1 9.3 12.77"/></g><path d="M151.5 392.5h4.5l-46.1-86.9c-1.4-3.54-3.53-3.54-4.24-5s.24-7.54 0-11.55-13.2-41.26-16.74-47.4-9-5.43-9-5.43l-1.42 3.78 22.4 61.07z" class="B C D"/><path d="M63.7 304.9l37.94 87.6h49.85c-5.85-10.53-40.63-73.42-48-93.27-8-21.7-20.52-60.36-23.58-63s-18.4-2.6-24.52-.7-6.37 2.6-6.13 6.6 5.17 41.34 14.44 62.77z" class="B C E"/><path d="M81.56 392.5h360.6" class="B C D H"/></svg>