<svg xmlns="http://www.w3.org/2000/svg" xmlns:xlink="http://www.w3.org/1999/xlink" viewBox="0 0 500 500"><defs><clipPath id="clip-path--inject-1"><path d="M212.75,195.81s.38,7-.78,10.26-2.71,5.42-2.71,7,2.52,3.49,2.52,6.58-5.61,18-7.16,20.9-1,3.87-2.9,4.06-6.77-2.12-6.77-2.12-2.91.38-3.29,1.54-1.36,5.23-1.36,5.23l-28.25-12.58a28.26,28.26,0,0,0,5.81-9.87c1.74-5.61-1-14.32-1-14.32s-2.71-20.31,9.67-26.12,30.38-2.13,33.29.78S212.75,195.81,212.75,195.81Z" style="fill:#fff;stroke:#263238;stroke-linecap:round;stroke-linejoin:round"></path></clipPath><clipPath id="clip-path-2--inject-1"><path d="M156.25,240.51l-.71.49c-2.72,1.87-12.76,8.83-20.38,14.8-8.9,7-9.48,19.93-9.87,30s-6.88,72.7-8.43,80.44,12.3,9.72,25.65,11.66,30.57-.19,38.89-4.06,10.26-3.68,10.26-7.94.19-13.93.19-14.7,6-48.18,5.61-62.11.78-21.48-2.51-28.45-11.61-12.38-22.64-16.06S156.25,240.51,156.25,240.51Z" style="fill:#4550E6;stroke:#263238;stroke-linecap:round;stroke-linejoin:round"></path></clipPath><clipPath id="clip-path-3--inject-1"><path d="M158.18,233.93,153,242.64s15.67,3.68,23.8,7,19,12,19,12-1.74-9.87-3.29-12.38-17.61-11-24.19-13.55S158.18,233.93,158.18,233.93Z" style="fill:#4550E6;stroke:#263238;stroke-linecap:round;stroke-linejoin:round"></path></clipPath><clipPath id="clip-path-4--inject-1"><path d="M179.47,280.36s-5.42,7.36-7.16,13.17.38,14.12,1,16.06,31.53,62.88,34.82,68.88,7,6.38,9.68,5.42,33.86-23.22,35-24.38,6.39-5.61,6.39-5.61,1-6.2-3.29-9.48-6.39-1.55-6.39-1.55l-27.09,7.35s-15.28-52.63-17-62.69,1-9.48-4.45-14.9a75.81,75.81,0,0,0-12-9.5" style="fill:#4550E6;stroke:#263238;stroke-linecap:round;stroke-linejoin:round"></path></clipPath></defs><g id="background-simple--inject-1"><path d="M84.3,283.67S98.64,341.34,155.2,369s124,15.12,178.92,6.39,89.87-49,86.14-97-48-52.19-81.83-100-35.56-65.74-90-87.45S124,106.19,97,171,84.3,283.67,84.3,283.67Z" style="fill:#4550E6"></path><path d="M84.3,283.67S98.64,341.34,155.2,369s124,15.12,178.92,6.39,89.87-49,86.14-97-48-52.19-81.83-100-35.56-65.74-90-87.45S124,106.19,97,171,84.3,283.67,84.3,283.67Z" style="fill:#fff;opacity:0.7000000000000001"></path></g><g id="Plants--inject-1"><path d="M412.84,340c-3.62,4.53-5.39,7.05-6.15,8.19a86.42,86.42,0,0,1,4.13-14.6,42.81,42.81,0,0,0,2.51-11.41l-.33.18-.32-.6c.13-.06,12.46-6.61,15.95-12.78l.58.33c-3.15,5.58-12.88,11.22-15.55,12.69,2.53-.24,10.43-1.45,15.13-7.25,5.64-7,4.65-15.61,4.65-15.61s-10.63,7.3-14.95,12.95a40.58,40.58,0,0,0-5,8.39,58.4,58.4,0,0,0-1.05-13.73C416,304,429,293.23,430.45,285.2c1.66-9.3-.67-25.25-.67-25.25a81.91,81.91,0,0,1-4.65,9.64c-3,5.31-12.29,13.62-13.95,22.59a38.79,38.79,0,0,0-.66,6.8,133.53,133.53,0,0,0-5.36-14.71,25.91,25.91,0,0,1-1.33-4h0l-.29-.17c.06-.1,6-10.2,6-13.1h.68c0,2.71-4.57,10.75-5.83,12.91,2.09-1.25,5.49-3.83,6.77-7.83a16,16,0,0,0-.91-11.3s-5.05,7.42-6.43,12.17a28.56,28.56,0,0,0-1.16,6.66,37,37,0,0,0-4.15-8.07,41.57,41.57,0,0,1-5-10s-3.65,6.32-1,13c2.19,5.46,8.4,7.55,10.55,8.13.24.72.5,1.43.79,2.1a113.55,113.55,0,0,1,6.81,20.45,40.75,40.75,0,0,0-7.24-7.72,41.51,41.51,0,0,1-7.66-8.1s-1.67,7.1,2.8,12.69c3.66,4.57,10.16,4.79,12.42,4.72,1.54,8.05,1.71,16.45-.89,24.56-.17-1.57-1.12-5.86-6.34-10.66-6.58-6.05-19.77-25.42-19.77-25.42s1.06,22.86,7.37,30.38c5.79,6.88,16.72,6.48,18.51,6.37-.12.35-.24.71-.37,1.07-4.16,11.17-5,19-5.14,23.16h-7.85v36.21h21.6V356.3H405.78a52.06,52.06,0,0,1,.73-7.05l-.23.07-.18-.66c.14,0,13.67-3.85,23.13-13.58l.48.48c-7.63,7.85-17.86,11.89-21.79,13.23,3.9-.48,13.44-1.92,17.88-4.78,5.64-3.66,10.63-14.62,10.63-14.62S418.16,333.38,412.84,340Zm-10.28-58.84a16.92,16.92,0,0,1-8.66-11.6l.66-.13a16.23,16.23,0,0,0,8.28,11.11Zm9.56,25.8-.15.23-.25-.1c-.38-.15-9.22-3.79-12.82-9.05l.56-.38c3.15,4.6,10.76,8.05,12.25,8.7,1.15-1.76,8.33-12.9,10.83-19.91l.64.23C420.45,294.36,412.21,306.86,412.12,307ZM409,331.78c-.11,0-10.64-4-15.33-13.1l.6-.31c4.57,8.87,14.86,12.74,15,12.78Z" style="fill:#263238"></path></g><g id="Table--inject-1"><rect x="198.05" y="215.9" width="155.78" height="176.61" style="fill:none;stroke:#263238;stroke-miterlimit:10"></rect><rect x="198.05" y="230.89" width="142.56" height="161.62" style="fill:none;stroke:#263238;stroke-miterlimit:10"></rect><polygon points="340.62 230.89 353.84 215.9 353.84 392.51 340.62 392.51 340.62 230.89" style="fill:#263238"></polygon><rect x="347.4" y="359.98" width="6.44" height="32.54" style="fill:#fff;stroke:#263238;stroke-linecap:round;stroke-linejoin:round"></rect><polygon points="381.81 392.51 381.81 337.43 353.84 359.98 353.84 392.51 381.81 392.51" style="fill:#263238;stroke:#263238;stroke-linecap:round;stroke-linejoin:round"></polygon><rect x="128.44" y="359.98" width="6.44" height="32.54" style="fill:#fff;stroke:#263238;stroke-linecap:round;stroke-linejoin:round"></rect><polygon points="162.85 392.51 162.85 337.43 134.88 359.98 134.88 392.51 162.85 392.51" style="fill:#263238;stroke:#263238;stroke-linecap:round;stroke-linejoin:round"></polygon><polygon points="361.6 365.73 103.64 365.73 103.54 363.63 402.39 332.25 402.39 334.37 361.6 365.73" style="fill:#fff;stroke:#263238;stroke-linecap:round;stroke-linejoin:round"></polygon><polygon points="361.6 363.61 103.64 363.61 168.72 332.25 402.39 332.25 361.6 363.61" style="fill:#fff;stroke:#263238;stroke-linecap:round;stroke-linejoin:round"></polygon><polygon points="346.57 358.31 319.25 358.31 335.02 345.7 363.79 345.7 346.57 358.31" style="fill:#4550E6;stroke:#263238;stroke-linecap:round;stroke-linejoin:round"></polygon><polygon points="361.6 365.73 361.6 363.61 402.39 332.25 402.39 334.37 361.6 365.73" style="fill:#263238;stroke:#263238;stroke-linecap:round;stroke-linejoin:round"></polygon><path d="M327.61,333.71h47.07s7-.65,5.67,2.84-7.41,3.7-20.92,4.14-17,8.71-17,8.71" style="fill:none;stroke:#263238;stroke-linecap:round;stroke-linejoin:round"></path><path d="M346,346.62s-4.44-.79-7.58.78c-2,1-3.73,4.45-4.77,6.89a1.81,1.81,0,0,0,1.67,2.52h5.95a1.81,1.81,0,0,0,1.35-.6l6-6.72S348.39,346.88,346,346.62Z" style="fill:#263238"></path><path d="M342.3,355a6.74,6.74,0,0,1,3.7-6.53" style="fill:none;stroke:#fff;stroke-linecap:round;stroke-linejoin:round;stroke-width:0.5px"></path><polygon points="310.67 360.09 214.7 360.09 238.04 341.46 334.01 341.46 310.67 360.09" style="fill:#fff;stroke:#263238;stroke-linecap:round;stroke-linejoin:round"></polygon><polygon points="334.01 342.63 334.01 341.46 310.67 360.09 310.67 361.25 334.01 342.63" style="fill:none;stroke:#263238;stroke-linecap:round;stroke-linejoin:round"></polygon><rect x="214.7" y="360.09" width="95.97" height="1.17" style="fill:#fff;stroke:#263238;stroke-linecap:round;stroke-linejoin:round"></rect><polygon points="245.99 352.04 242.91 354.53 249.24 354.53 252.33 352.04 245.99 352.04" style="fill:none;stroke:#263238;stroke-linecap:round;stroke-linejoin:round"></polygon><polygon points="252.33 352.04 249.24 354.53 255.58 354.53 258.66 352.04 252.33 352.04" style="fill:none;stroke:#263238;stroke-linecap:round;stroke-linejoin:round"></polygon><polygon points="239.65 352.04 236.57 354.53 242.91 354.53 245.99 352.04 239.65 352.04" style="fill:none;stroke:#263238;stroke-linecap:round;stroke-linejoin:round"></polygon><polygon points="249.07 349.55 242.74 349.55 239.65 352.04 245.99 352.04 249.07 349.55" style="fill:none;stroke:#263238;stroke-linecap:round;stroke-linejoin:round"></polygon><polygon points="255.41 349.55 258.5 347.06 252.16 347.06 249.07 349.55 255.41 349.55" style="fill:none;stroke:#263238;stroke-linecap:round;stroke-linejoin:round"></polygon><polygon points="252.16 347.06 245.82 347.06 242.74 349.55 249.07 349.55 252.16 347.06" style="fill:none;stroke:#263238;stroke-linecap:round;stroke-linejoin:round"></polygon><polygon points="258.66 352.04 255.58 354.53 261.92 354.53 265 352.04 258.66 352.04" style="fill:none;stroke:#263238;stroke-linecap:round;stroke-linejoin:round"></polygon><polygon points="290.35 352.04 287.26 354.53 293.6 354.53 296.69 352.04 290.35 352.04" style="fill:none;stroke:#263238;stroke-linecap:round;stroke-linejoin:round"></polygon><polygon points="261.75 349.55 264.83 347.06 258.5 347.06 255.41 349.55 261.75 349.55" style="fill:none;stroke:#263238;stroke-linecap:round;stroke-linejoin:round"></polygon><polygon points="265 352.04 261.92 354.53 268.25 354.53 271.34 352.04 265 352.04" style="fill:none;stroke:#263238;stroke-linecap:round;stroke-linejoin:round"></polygon><polygon points="299.94 354.53 306.27 354.53 309.36 352.04 303.02 352.04 299.94 354.53" style="fill:none;stroke:#263238;stroke-linecap:round;stroke-linejoin:round"></polygon><polygon points="303.02 352.04 309.36 352.04 312.44 349.55 306.11 349.55 303.02 352.04" style="fill:none;stroke:#263238;stroke-linecap:round;stroke-linejoin:round"></polygon><polygon points="296.69 352.04 293.6 354.53 299.94 354.53 303.02 352.04 296.69 352.04" style="fill:none;stroke:#263238;stroke-linecap:round;stroke-linejoin:round"></polygon><polygon points="284.01 352.04 280.93 354.53 287.26 354.53 290.35 352.04 284.01 352.04" style="fill:none;stroke:#263238;stroke-linecap:round;stroke-linejoin:round"></polygon><polygon points="271.34 352.04 268.25 354.53 274.59 354.53 277.68 352.04 271.34 352.04" style="fill:none;stroke:#263238;stroke-linecap:round;stroke-linejoin:round"></polygon><polygon points="277.68 352.04 274.59 354.53 280.93 354.53 284.01 352.04 277.68 352.04" style="fill:none;stroke:#263238;stroke-linecap:round;stroke-linejoin:round"></polygon><polygon points="287.1 349.55 290.18 347.06 283.84 347.06 280.76 349.55 287.1 349.55" style="fill:none;stroke:#263238;stroke-linecap:round;stroke-linejoin:round"></polygon><polygon points="293.43 349.55 290.35 352.04 296.69 352.04 299.77 349.55 293.43 349.55" style="fill:none;stroke:#263238;stroke-linecap:round;stroke-linejoin:round"></polygon><polygon points="280.76 349.55 277.68 352.04 284.01 352.04 287.1 349.55 280.76 349.55" style="fill:none;stroke:#263238;stroke-linecap:round;stroke-linejoin:round"></polygon><polygon points="268.08 349.55 265 352.04 271.34 352.04 274.42 349.55 268.08 349.55" style="fill:none;stroke:#263238;stroke-linecap:round;stroke-linejoin:round"></polygon><polygon points="287.1 349.55 284.01 352.04 290.35 352.04 293.43 349.55 287.1 349.55" style="fill:none;stroke:#263238;stroke-linecap:round;stroke-linejoin:round"></polygon><polygon points="268.08 349.55 271.17 347.06 264.83 347.06 261.75 349.55 268.08 349.55" style="fill:none;stroke:#263238;stroke-linecap:round;stroke-linejoin:round"></polygon><polygon points="249.07 349.55 245.99 352.04 252.33 352.04 255.41 349.55 249.07 349.55" style="fill:none;stroke:#263238;stroke-linecap:round;stroke-linejoin:round"></polygon><polygon points="261.75 349.55 258.66 352.04 265 352.04 268.08 349.55 261.75 349.55" style="fill:none;stroke:#263238;stroke-linecap:round;stroke-linejoin:round"></polygon><polygon points="255.41 349.55 252.33 352.04 258.66 352.04 261.75 349.55 255.41 349.55" style="fill:none;stroke:#263238;stroke-linecap:round;stroke-linejoin:round"></polygon><polygon points="274.42 349.55 271.34 352.04 277.68 352.04 280.76 349.55 274.42 349.55" style="fill:none;stroke:#263238;stroke-linecap:round;stroke-linejoin:round"></polygon><polygon points="280.76 349.55 283.84 347.06 277.51 347.06 274.42 349.55 280.76 349.55" style="fill:none;stroke:#263238;stroke-linecap:round;stroke-linejoin:round"></polygon><polygon points="306.11 349.55 312.44 349.55 315.53 347.06 309.19 347.06 306.11 349.55" style="fill:none;stroke:#263238;stroke-linecap:round;stroke-linejoin:round"></polygon><polygon points="274.42 349.55 277.51 347.06 271.17 347.06 268.08 349.55 274.42 349.55" style="fill:none;stroke:#263238;stroke-linecap:round;stroke-linejoin:round"></polygon><polygon points="299.77 349.55 302.85 347.06 296.52 347.06 293.43 349.55 299.77 349.55" style="fill:none;stroke:#263238;stroke-linecap:round;stroke-linejoin:round"></polygon><polygon points="306.11 349.55 309.19 347.06 302.85 347.06 299.77 349.55 306.11 349.55" style="fill:none;stroke:#263238;stroke-linecap:round;stroke-linejoin:round"></polygon><polygon points="296.69 352.04 303.02 352.04 306.11 349.55 299.77 349.55 296.69 352.04" style="fill:none;stroke:#263238;stroke-linecap:round;stroke-linejoin:round"></polygon><polygon points="293.43 349.55 296.52 347.06 290.18 347.06 287.1 349.55 293.43 349.55" style="fill:none;stroke:#263238;stroke-linecap:round;stroke-linejoin:round"></polygon><polygon points="274.59 354.53 271.51 357.02 277.84 357.02 280.93 354.53 274.59 354.53" style="fill:none;stroke:#263238;stroke-linecap:round;stroke-linejoin:round"></polygon><polygon points="280.93 354.53 277.84 357.02 284.18 357.02 287.26 354.53 280.93 354.53" style="fill:none;stroke:#263238;stroke-linecap:round;stroke-linejoin:round"></polygon><polygon points="268.25 354.53 265.17 357.02 271.51 357.02 274.59 354.53 268.25 354.53" style="fill:none;stroke:#263238;stroke-linecap:round;stroke-linejoin:round"></polygon><polygon points="287.26 354.53 284.18 357.02 290.52 357.02 293.6 354.53 287.26 354.53" style="fill:none;stroke:#263238;stroke-linecap:round;stroke-linejoin:round"></polygon><polygon points="261.92 354.53 258.83 357.02 265.17 357.02 268.25 354.53 261.92 354.53" style="fill:none;stroke:#263238;stroke-linecap:round;stroke-linejoin:round"></polygon><polygon points="255.58 354.53 252.5 357.02 258.83 357.02 261.92 354.53 255.58 354.53" style="fill:none;stroke:#263238;stroke-linecap:round;stroke-linejoin:round"></polygon><polygon points="293.6 354.53 290.52 357.02 296.85 357.02 299.94 354.53 293.6 354.53" style="fill:none;stroke:#263238;stroke-linecap:round;stroke-linejoin:round"></polygon><polygon points="242.91 354.53 239.82 357.02 246.16 357.02 249.24 354.53 242.91 354.53" style="fill:none;stroke:#263238;stroke-linecap:round;stroke-linejoin:round"></polygon><polygon points="249.24 354.53 246.16 357.02 252.5 357.02 255.58 354.53 249.24 354.53" style="fill:none;stroke:#263238;stroke-linecap:round;stroke-linejoin:round"></polygon><polygon points="309.36 352.04 315.7 352.04 318.78 349.55 312.44 349.55 309.36 352.04" style="fill:none;stroke:#263238;stroke-linecap:round;stroke-linejoin:round"></polygon><polygon points="318.61 344.57 315.53 347.06 321.86 347.06 324.95 344.57 318.61 344.57" style="fill:none;stroke:#263238;stroke-linecap:round;stroke-linejoin:round"></polygon><polygon points="312.44 349.55 318.78 349.55 321.86 347.06 315.53 347.06 312.44 349.55" style="fill:none;stroke:#263238;stroke-linecap:round;stroke-linejoin:round"></polygon><polygon points="236.57 354.53 233.49 357.02 239.82 357.02 242.91 354.53 236.57 354.53" style="fill:none;stroke:#263238;stroke-linecap:round;stroke-linejoin:round"></polygon><polygon points="299.94 354.53 296.85 357.02 303.19 357.02 306.27 354.53 299.94 354.53" style="fill:none;stroke:#263238;stroke-linecap:round;stroke-linejoin:round"></polygon><polygon points="303.19 357.02 309.53 357.02 312.61 354.53 306.27 354.53 303.19 357.02" style="fill:none;stroke:#263238;stroke-linecap:round;stroke-linejoin:round"></polygon><polygon points="306.27 354.53 312.61 354.53 315.7 352.04 309.36 352.04 306.27 354.53" style="fill:none;stroke:#263238;stroke-linecap:round;stroke-linejoin:round"></polygon><polygon points="242.74 349.55 236.4 349.55 233.32 352.04 239.65 352.04 242.74 349.55" style="fill:none;stroke:#263238;stroke-linecap:round;stroke-linejoin:round"></polygon><polygon points="283.84 347.06 286.93 344.57 280.59 344.57 277.51 347.06 283.84 347.06" style="fill:none;stroke:#263238;stroke-linecap:round;stroke-linejoin:round"></polygon><polygon points="290.18 347.06 293.26 344.57 286.93 344.57 283.84 347.06 290.18 347.06" style="fill:none;stroke:#263238;stroke-linecap:round;stroke-linejoin:round"></polygon><polygon points="277.51 347.06 280.59 344.57 274.25 344.57 271.17 347.06 277.51 347.06" style="fill:none;stroke:#263238;stroke-linecap:round;stroke-linejoin:round"></polygon><polygon points="296.52 347.06 299.6 344.57 293.26 344.57 290.18 347.06 296.52 347.06" style="fill:none;stroke:#263238;stroke-linecap:round;stroke-linejoin:round"></polygon><polygon points="309.19 347.06 312.27 344.57 305.94 344.57 302.85 347.06 309.19 347.06" style="fill:none;stroke:#263238;stroke-linecap:round;stroke-linejoin:round"></polygon><polygon points="302.85 347.06 305.94 344.57 299.6 344.57 296.52 347.06 302.85 347.06" style="fill:none;stroke:#263238;stroke-linecap:round;stroke-linejoin:round"></polygon><polygon points="271.17 347.06 274.25 344.57 267.92 344.57 264.83 347.06 271.17 347.06" style="fill:none;stroke:#263238;stroke-linecap:round;stroke-linejoin:round"></polygon><polygon points="239.65 352.04 233.32 352.04 230.23 354.53 236.57 354.53 239.65 352.04" style="fill:none;stroke:#263238;stroke-linecap:round;stroke-linejoin:round"></polygon><polygon points="245.82 347.06 239.48 347.06 236.4 349.55 242.74 349.55 245.82 347.06" style="fill:none;stroke:#263238;stroke-linecap:round;stroke-linejoin:round"></polygon><polygon points="315.53 347.06 318.61 344.57 312.27 344.57 309.19 347.06 315.53 347.06" style="fill:none;stroke:#263238;stroke-linecap:round;stroke-linejoin:round"></polygon><polygon points="230.23 354.53 227.15 357.02 233.49 357.02 236.57 354.53 230.23 354.53" style="fill:none;stroke:#263238;stroke-linecap:round;stroke-linejoin:round"></polygon><polygon points="248.91 344.57 242.57 344.57 239.48 347.06 245.82 347.06 248.91 344.57" style="fill:none;stroke:#263238;stroke-linecap:round;stroke-linejoin:round"></polygon><polygon points="258.5 347.06 261.58 344.57 255.24 344.57 252.16 347.06 258.5 347.06" style="fill:none;stroke:#263238;stroke-linecap:round;stroke-linejoin:round"></polygon><polygon points="252.16 347.06 255.24 344.57 248.91 344.57 245.82 347.06 252.16 347.06" style="fill:none;stroke:#263238;stroke-linecap:round;stroke-linejoin:round"></polygon><polygon points="264.83 347.06 267.92 344.57 261.58 344.57 258.5 347.06 264.83 347.06" style="fill:none;stroke:#263238;stroke-linecap:round;stroke-linejoin:round"></polygon></g><g id="device-3--inject-1"><path d="M337.42,339H304.34a.52.52,0,0,1-.23-1l6.8-3.28a.59.59,0,0,1,.23,0h30.54a.53.53,0,0,1,.32.94l-4.26,3.27A.54.54,0,0,1,337.42,339Z" style="fill:#263238;stroke:#263238;stroke-linecap:round;stroke-linejoin:round"></path><rect x="321.63" y="314.07" width="6.08" height="23.17" style="fill:#fff;stroke:#263238;stroke-linecap:round;stroke-linejoin:round"></rect><rect x="320.68" y="314.07" width="7.98" height="16.82" style="fill:#263238;stroke:#263238;stroke-linecap:round;stroke-linejoin:round"></rect><rect x="275.77" y="236.99" width="100.68" height="78.75" style="fill:#fff;stroke:#263238;stroke-linecap:round;stroke-linejoin:round"></rect><rect x="281.15" y="241.2" width="89.91" height="70.33" style="fill:#263238;stroke:#263238;stroke-linecap:round;stroke-linejoin:round"></rect><path d="M289.71,246h-2.32a.57.57,0,0,1-.57-.57.58.58,0,0,1,.57-.57h2.32a.58.58,0,0,1,.57.57A.57.57,0,0,1,289.71,246Zm.57,2.08a.57.57,0,0,0-.57-.57h-2.32a.57.57,0,0,0,0,1.14h2.32A.57.57,0,0,0,290.28,248.12Zm0,2.65a.57.57,0,0,0-.57-.57h-2.32a.57.57,0,0,0-.57.57.58.58,0,0,0,.57.57h2.32A.58.58,0,0,0,290.28,250.77Zm0,2.65a.57.57,0,0,0-.57-.57h-2.32a.57.57,0,0,0-.57.57.58.58,0,0,0,.57.57h2.32A.58.58,0,0,0,290.28,253.42Zm0,2.65a.58.58,0,0,0-.57-.58h-2.32a.58.58,0,0,0,0,1.15h2.32A.58.58,0,0,0,290.28,256.07Zm0,2.64a.58.58,0,0,0-.57-.57h-2.32a.58.58,0,0,0,0,1.15h2.32A.58.58,0,0,0,290.28,258.71Zm0,2.65a.58.58,0,0,0-.57-.57h-2.32a.58.58,0,0,0-.57.57.57.57,0,0,0,.57.57h2.32A.57.57,0,0,0,290.28,261.36Zm0,2.65a.58.58,0,0,0-.57-.57h-2.32a.58.58,0,0,0-.57.57.57.57,0,0,0,.57.57h2.32A.57.57,0,0,0,290.28,264ZM299,245.47a.58.58,0,0,0-.57-.57H292.3a.58.58,0,0,0-.58.57.57.57,0,0,0,.58.57h6.08A.57.57,0,0,0,299,245.47Zm0,2.65a.57.57,0,0,0-.57-.57H292.3a.57.57,0,1,0,0,1.14h6.08A.57.57,0,0,0,299,248.12Zm0,2.65a.57.57,0,0,0-.57-.57H292.3a.57.57,0,0,0-.58.57.58.58,0,0,0,.58.57h6.08A.58.58,0,0,0,299,250.77Zm0,2.65a.57.57,0,0,0-.57-.57H292.3a.57.57,0,0,0-.58.57.58.58,0,0,0,.58.57h6.08A.58.58,0,0,0,299,253.42Zm0,2.65a.58.58,0,0,0-.57-.58H292.3a.58.58,0,1,0,0,1.15h6.08A.58.58,0,0,0,299,256.07Zm7.28,2.64a.57.57,0,0,0-.57-.57h-6.08a.58.58,0,0,0,0,1.15h6.08A.57.57,0,0,0,306.23,258.71Zm0,2.65a.57.57,0,0,0-.57-.57h-6.08a.57.57,0,0,0-.57.57.56.56,0,0,0,.57.57h6.08A.56.56,0,0,0,306.23,261.36Zm0,2.65a.57.57,0,0,0-.57-.57h-6.08a.57.57,0,0,0-.57.57.56.56,0,0,0,.57.57h6.08A.56.56,0,0,0,306.23,264Zm-4.6-18.54a.67.67,0,1,0-.66.66A.67.67,0,0,0,301.63,245.47Zm2,0a.66.66,0,1,0-.66.66A.66.66,0,0,0,303.61,245.47Zm2,0a.66.66,0,0,0-1.32,0,.66.66,0,1,0,1.32,0Zm2,0a.67.67,0,0,0-1.33,0,.67.67,0,0,0,1.33,0Zm2,0a.66.66,0,1,0-.66.66A.66.66,0,0,0,309.57,245.47Zm2,0a.66.66,0,0,0-1.32,0,.66.66,0,0,0,1.32,0Zm-9.93,5.3a.67.67,0,0,0-1.33,0,.67.67,0,0,0,1.33,0Zm2,0a.66.66,0,0,0-1.32,0,.66.66,0,0,0,1.32,0Zm2,0a.66.66,0,1,0-.66.66A.66.66,0,0,0,305.6,250.77Zm2,0a.67.67,0,1,0-.67.66A.66.66,0,0,0,307.59,250.77Zm2,0a.66.66,0,1,0-1.32,0,.66.66,0,1,0,1.32,0Zm2,0a.66.66,0,1,0-.66.66A.66.66,0,0,0,311.56,250.77Zm-3.15,7.61a.66.66,0,1,0-1.32,0,.66.66,0,1,0,1.32,0Zm2,0a.66.66,0,1,0-.66.67A.67.67,0,0,0,310.4,258.38Zm2,0a.67.67,0,1,0-.66.67A.67.67,0,0,0,312.39,258.38Zm2,0a.66.66,0,1,0-1.32,0,.66.66,0,1,0,1.32,0Zm2,0a.66.66,0,1,0-.66.67A.67.67,0,0,0,316.36,258.38Zm2,0a.67.67,0,1,0-.67.67A.67.67,0,0,0,318.35,258.38Zm-9.94,5.47a.66.66,0,1,0-.66.66A.66.66,0,0,0,308.41,263.85Zm2,0a.66.66,0,1,0-1.32,0,.66.66,0,0,0,1.32,0Zm2,0a.67.67,0,1,0-.66.66A.67.67,0,0,0,312.39,263.85Zm2,0a.66.66,0,1,0-.66.66A.66.66,0,0,0,314.37,263.85Zm2,0a.66.66,0,1,0-1.32,0,.66.66,0,0,0,1.32,0Zm2,0a.67.67,0,1,0-.67.66A.67.67,0,0,0,318.35,263.85Z" style="fill:#4550E6"></path><path d="M289.71,267.24h-2.32a.58.58,0,0,1,0-1.15h2.32a.58.58,0,0,1,0,1.15Zm.57,2.07a.58.58,0,0,0-.57-.57h-2.32a.58.58,0,0,0,0,1.15h2.32A.58.58,0,0,0,290.28,269.31Zm0,2.65a.58.58,0,0,0-.57-.57h-2.32a.58.58,0,0,0-.57.57.57.57,0,0,0,.57.57h2.32A.57.57,0,0,0,290.28,272Zm0,2.65a.58.58,0,0,0-.57-.57h-2.32a.58.58,0,0,0-.57.57.57.57,0,0,0,.57.57h2.32A.57.57,0,0,0,290.28,274.61Zm0,2.65a.57.57,0,0,0-.57-.57h-2.32a.57.57,0,0,0,0,1.14h2.32A.57.57,0,0,0,290.28,277.26Zm0,2.65a.57.57,0,0,0-.57-.57h-2.32a.57.57,0,0,0,0,1.14h2.32A.57.57,0,0,0,290.28,279.91Zm0,2.65a.57.57,0,0,0-.57-.57h-2.32a.57.57,0,0,0-.57.57.58.58,0,0,0,.57.57h2.32A.58.58,0,0,0,290.28,282.56Zm0,2.65a.58.58,0,0,0-.57-.58h-2.32a.58.58,0,0,0,0,1.15h2.32A.58.58,0,0,0,290.28,285.21ZM299,266.67a.58.58,0,0,0-.57-.58H292.3a.58.58,0,1,0,0,1.15h6.08A.58.58,0,0,0,299,266.67Zm0,2.64a.58.58,0,0,0-.57-.57H292.3a.58.58,0,1,0,0,1.15h6.08A.58.58,0,0,0,299,269.31Zm0,2.65a.58.58,0,0,0-.57-.57H292.3a.58.58,0,0,0-.58.57.57.57,0,0,0,.58.57h6.08A.57.57,0,0,0,299,272Zm0,2.65a.58.58,0,0,0-.57-.57H292.3a.58.58,0,0,0-.58.57.57.57,0,0,0,.58.57h6.08A.57.57,0,0,0,299,274.61Zm0,2.65a.57.57,0,0,0-.57-.57H292.3a.57.57,0,1,0,0,1.14h6.08A.57.57,0,0,0,299,277.26Zm7.28,2.65a.56.56,0,0,0-.57-.57h-6.08a.57.57,0,1,0,0,1.14h6.08A.56.56,0,0,0,306.23,279.91Zm0,2.65a.56.56,0,0,0-.57-.57h-6.08a.56.56,0,0,0-.57.57.57.57,0,0,0,.57.57h6.08A.57.57,0,0,0,306.23,282.56Zm0,2.65a.57.57,0,0,0-.57-.58h-6.08a.58.58,0,0,0,0,1.15h6.08A.57.57,0,0,0,306.23,285.21Zm-4.6-18.54a.67.67,0,1,0-.66.66A.67.67,0,0,0,301.63,266.67Zm2,0a.66.66,0,1,0-.66.66A.66.66,0,0,0,303.61,266.67Zm2,0a.66.66,0,1,0-1.32,0,.66.66,0,0,0,1.32,0Zm2,0a.67.67,0,1,0-.67.66A.67.67,0,0,0,307.59,266.67Zm2,0a.66.66,0,1,0-.66.66A.66.66,0,0,0,309.57,266.67Zm2,0a.66.66,0,1,0-1.32,0,.66.66,0,0,0,1.32,0ZM301.63,272a.67.67,0,1,0-.66.67A.67.67,0,0,0,301.63,272Zm2,0a.66.66,0,1,0-1.32,0,.66.66,0,1,0,1.32,0Zm2,0a.66.66,0,1,0-.66.67A.67.67,0,0,0,305.6,272Zm2,0a.67.67,0,1,0-.67.67A.67.67,0,0,0,307.59,272Zm2,0a.66.66,0,1,0-1.32,0,.66.66,0,1,0,1.32,0Zm2,0a.66.66,0,1,0-.66.67A.67.67,0,0,0,311.56,272Zm-3.15,7.62a.66.66,0,1,0-1.32,0,.66.66,0,0,0,1.32,0Zm2,0a.66.66,0,1,0-.66.66A.66.66,0,0,0,310.4,279.58Zm2,0a.67.67,0,0,0-1.33,0,.67.67,0,0,0,1.33,0Zm2,0a.66.66,0,1,0-1.32,0,.66.66,0,1,0,1.32,0Zm2,0a.66.66,0,1,0-.66.66A.66.66,0,0,0,316.36,279.58Zm2,0a.67.67,0,1,0-.67.66A.66.66,0,0,0,318.35,279.58ZM308.41,285a.66.66,0,1,0-.66.66A.65.65,0,0,0,308.41,285Zm2,0a.66.66,0,1,0-.66.66A.66.66,0,0,0,310.4,285Zm2,0a.67.67,0,1,0-.66.66A.66.66,0,0,0,312.39,285Zm2,0a.66.66,0,1,0-.66.66A.65.65,0,0,0,314.37,285Zm2,0a.66.66,0,1,0-.66.66A.66.66,0,0,0,316.36,285Zm2,0a.67.67,0,1,0-.67.66A.66.66,0,0,0,318.35,285Z" style="fill:#4550E6"></path><path d="M289.71,288.94h-2.32a.57.57,0,0,1-.57-.57.58.58,0,0,1,.57-.57h2.32a.58.58,0,0,1,.57.57A.57.57,0,0,1,289.71,288.94Zm.57,2.08a.57.57,0,0,0-.57-.57h-2.32a.57.57,0,0,0,0,1.14h2.32A.57.57,0,0,0,290.28,291Zm0,2.65a.57.57,0,0,0-.57-.57h-2.32a.57.57,0,0,0-.57.57.58.58,0,0,0,.57.57h2.32A.58.58,0,0,0,290.28,293.67Zm0,2.65a.57.57,0,0,0-.57-.57h-2.32a.57.57,0,0,0-.57.57.58.58,0,0,0,.57.57h2.32A.58.58,0,0,0,290.28,296.32Zm0,2.65a.58.58,0,0,0-.57-.58h-2.32a.58.58,0,0,0,0,1.15h2.32A.58.58,0,0,0,290.28,299Zm0,2.65a.58.58,0,0,0-.57-.58h-2.32a.58.58,0,0,0,0,1.15h2.32A.58.58,0,0,0,290.28,301.62Zm0,2.64a.58.58,0,0,0-.57-.57h-2.32a.58.58,0,0,0,0,1.15h2.32A.58.58,0,0,0,290.28,304.26Zm0,2.65a.58.58,0,0,0-.57-.57h-2.32a.58.58,0,0,0-.57.57.57.57,0,0,0,.57.57h2.32A.57.57,0,0,0,290.28,306.91ZM299,288.37a.58.58,0,0,0-.57-.57H292.3a.58.58,0,0,0-.58.57.57.57,0,0,0,.58.57h6.08A.57.57,0,0,0,299,288.37Zm0,2.65a.57.57,0,0,0-.57-.57H292.3a.57.57,0,1,0,0,1.14h6.08A.57.57,0,0,0,299,291Zm0,2.65a.57.57,0,0,0-.57-.57H292.3a.57.57,0,0,0-.58.57.58.58,0,0,0,.58.57h6.08A.58.58,0,0,0,299,293.67Zm0,2.65a.57.57,0,0,0-.57-.57H292.3a.57.57,0,0,0-.58.57.58.58,0,0,0,.58.57h6.08A.58.58,0,0,0,299,296.32Zm0,2.65a.58.58,0,0,0-.57-.58H292.3a.58.58,0,1,0,0,1.15h6.08A.58.58,0,0,0,299,299Zm7.28,2.65a.57.57,0,0,0-.57-.58h-6.08a.58.58,0,0,0,0,1.15h6.08A.57.57,0,0,0,306.23,301.62Zm0,2.64a.57.57,0,0,0-.57-.57h-6.08a.58.58,0,0,0,0,1.15h6.08A.57.57,0,0,0,306.23,304.26Zm0,2.65a.57.57,0,0,0-.57-.57h-6.08a.57.57,0,0,0-.57.57.56.56,0,0,0,.57.57h6.08A.56.56,0,0,0,306.23,306.91Zm-4.6-18.54a.67.67,0,1,0-.66.66A.67.67,0,0,0,301.63,288.37Zm2,0a.66.66,0,1,0-.66.66A.66.66,0,0,0,303.61,288.37Zm2,0a.66.66,0,1,0-1.32,0,.66.66,0,0,0,1.32,0Zm2,0a.67.67,0,0,0-1.33,0,.67.67,0,0,0,1.33,0Zm2,0a.66.66,0,1,0-.66.66A.66.66,0,0,0,309.57,288.37Zm2,0a.66.66,0,0,0-1.32,0,.66.66,0,0,0,1.32,0Zm-9.93,5.3a.67.67,0,0,0-1.33,0,.67.67,0,0,0,1.33,0Zm2,0a.66.66,0,0,0-1.32,0,.66.66,0,0,0,1.32,0Zm2,0a.66.66,0,1,0-.66.66A.66.66,0,0,0,305.6,293.67Zm2,0a.67.67,0,1,0-.67.66A.66.66,0,0,0,307.59,293.67Zm2,0a.66.66,0,0,0-1.32,0,.66.66,0,0,0,1.32,0Zm2,0a.66.66,0,1,0-.66.66A.66.66,0,0,0,311.56,293.67Zm-3.15,7.61a.66.66,0,1,0-1.32,0,.66.66,0,1,0,1.32,0Zm2,0a.66.66,0,1,0-.66.67A.67.67,0,0,0,310.4,301.28Zm2,0a.67.67,0,1,0-.66.67A.67.67,0,0,0,312.39,301.28Zm2,0a.66.66,0,1,0-1.32,0,.66.66,0,1,0,1.32,0Zm2,0a.66.66,0,1,0-.66.67A.67.67,0,0,0,316.36,301.28Zm2,0a.67.67,0,1,0-.67.67A.67.67,0,0,0,318.35,301.28Zm-9.94,5.47a.66.66,0,1,0-.66.66A.66.66,0,0,0,308.41,306.75Zm2,0a.66.66,0,1,0-1.32,0,.66.66,0,0,0,1.32,0Zm2,0a.67.67,0,1,0-.66.66A.67.67,0,0,0,312.39,306.75Zm2,0a.66.66,0,1,0-.66.66A.66.66,0,0,0,314.37,306.75Zm2,0a.66.66,0,1,0-1.32,0,.66.66,0,1,0,1.32,0Zm2,0a.67.67,0,1,0-.67.66A.67.67,0,0,0,318.35,306.75Z" style="fill:#4550E6"></path><path d="M325.29,246H323a.57.57,0,0,1-.57-.57.58.58,0,0,1,.57-.57h2.32a.57.57,0,0,1,.57.57A.56.56,0,0,1,325.29,246Zm.57,2.08a.56.56,0,0,0-.57-.57H323a.57.57,0,1,0,0,1.14h2.32A.56.56,0,0,0,325.86,248.12Zm0,2.65a.56.56,0,0,0-.57-.57H323a.57.57,0,0,0-.57.57.58.58,0,0,0,.57.57h2.32A.57.57,0,0,0,325.86,250.77Zm0,2.65a.56.56,0,0,0-.57-.57H323a.57.57,0,0,0-.57.57.58.58,0,0,0,.57.57h2.32A.57.57,0,0,0,325.86,253.42Zm0,2.65a.57.57,0,0,0-.57-.58H323a.58.58,0,0,0,0,1.15h2.32A.57.57,0,0,0,325.86,256.07Zm0,2.64a.57.57,0,0,0-.57-.57H323a.58.58,0,0,0,0,1.15h2.32A.57.57,0,0,0,325.86,258.71Zm0,2.65a.57.57,0,0,0-.57-.57H323a.58.58,0,0,0-.57.57.57.57,0,0,0,.57.57h2.32A.56.56,0,0,0,325.86,261.36Zm0,2.65a.57.57,0,0,0-.57-.57H323a.58.58,0,0,0-.57.57.57.57,0,0,0,.57.57h2.32A.56.56,0,0,0,325.86,264Zm8.67-18.54a.57.57,0,0,0-.57-.57h-6.08a.58.58,0,0,0-.58.57.57.57,0,0,0,.58.57H334A.56.56,0,0,0,334.53,245.47Zm0,2.65a.56.56,0,0,0-.57-.57h-6.08a.57.57,0,1,0,0,1.14H334A.56.56,0,0,0,334.53,248.12Zm0,2.65a.56.56,0,0,0-.57-.57h-6.08a.57.57,0,0,0-.58.57.58.58,0,0,0,.58.57H334A.57.57,0,0,0,334.53,250.77Zm0,2.65a.56.56,0,0,0-.57-.57h-6.08a.57.57,0,0,0-.58.57.58.58,0,0,0,.58.57H334A.57.57,0,0,0,334.53,253.42Zm0,2.65a.57.57,0,0,0-.57-.58h-6.08a.58.58,0,1,0,0,1.15H334A.57.57,0,0,0,334.53,256.07Zm7.29,2.64a.58.58,0,0,0-.58-.57h-6.08a.58.58,0,0,0,0,1.15h6.08A.58.58,0,0,0,341.82,258.71Zm0,2.65a.58.58,0,0,0-.58-.57h-6.08a.57.57,0,0,0-.57.57.56.56,0,0,0,.57.57h6.08A.57.57,0,0,0,341.82,261.36Zm0,2.65a.58.58,0,0,0-.58-.57h-6.08a.57.57,0,0,0-.57.57.56.56,0,0,0,.57.57h6.08A.57.57,0,0,0,341.82,264Zm-4.61-18.54a.67.67,0,1,0-.66.66A.67.67,0,0,0,337.21,245.47Zm2,0a.67.67,0,0,0-1.33,0,.67.67,0,0,0,1.33,0Zm2,0a.66.66,0,1,0-.66.66A.66.66,0,0,0,341.18,245.47Zm2,0a.67.67,0,1,0-.66.66A.67.67,0,0,0,343.17,245.47Zm2,0a.66.66,0,1,0-.66.66A.66.66,0,0,0,345.15,245.47Zm2,0a.66.66,0,1,0-1.32,0,.66.66,0,1,0,1.32,0Zm-9.93,5.3a.67.67,0,0,0-1.33,0,.67.67,0,0,0,1.33,0Zm2,0a.67.67,0,1,0-.67.66A.66.66,0,0,0,339.2,250.77Zm2,0a.66.66,0,1,0-.66.66A.65.65,0,0,0,341.18,250.77Zm2,0a.67.67,0,0,0-1.33,0,.67.67,0,0,0,1.33,0Zm2,0a.66.66,0,1,0-1.32,0,.66.66,0,1,0,1.32,0Zm2,0a.66.66,0,1,0-.66.66A.66.66,0,0,0,347.14,250.77ZM344,258.38a.67.67,0,1,0-.67.67A.67.67,0,0,0,344,258.38Zm2,0a.66.66,0,1,0-.66.67A.66.66,0,0,0,346,258.38Zm2,0a.67.67,0,1,0-.66.67A.67.67,0,0,0,348,258.38Zm2,0a.67.67,0,1,0-.67.67A.67.67,0,0,0,350,258.38Zm2,0a.66.66,0,1,0-.66.67A.66.66,0,0,0,351.94,258.38Zm2,0a.67.67,0,1,0-.66.67A.67.67,0,0,0,353.93,258.38ZM344,263.85a.67.67,0,1,0-.67.66A.67.67,0,0,0,344,263.85Zm2,0a.66.66,0,1,0-.66.66A.66.66,0,0,0,346,263.85Zm2,0a.67.67,0,1,0-.66.66A.67.67,0,0,0,348,263.85Zm2,0a.67.67,0,1,0-.67.66A.67.67,0,0,0,350,263.85Zm2,0a.66.66,0,1,0-.66.66A.66.66,0,0,0,351.94,263.85Zm2,0a.67.67,0,1,0-.66.66A.67.67,0,0,0,353.93,263.85Z" style="fill:#4550E6"></path><path d="M325.29,267.75H323a.58.58,0,0,1-.57-.57.57.57,0,0,1,.57-.57h2.32a.56.56,0,0,1,.57.57A.57.57,0,0,1,325.29,267.75Zm.57,2.08a.57.57,0,0,0-.57-.58H323a.58.58,0,0,0,0,1.15h2.32A.57.57,0,0,0,325.86,269.83Zm0,2.64a.57.57,0,0,0-.57-.57H323a.58.58,0,0,0,0,1.15h2.32A.57.57,0,0,0,325.86,272.47Zm0,2.65a.57.57,0,0,0-.57-.57H323a.58.58,0,0,0-.57.57.57.57,0,0,0,.57.57h2.32A.56.56,0,0,0,325.86,275.12Zm0,2.65a.57.57,0,0,0-.57-.57H323a.58.58,0,0,0-.57.57.57.57,0,0,0,.57.57h2.32A.56.56,0,0,0,325.86,277.77Zm0,2.65a.56.56,0,0,0-.57-.57H323a.57.57,0,1,0,0,1.14h2.32A.56.56,0,0,0,325.86,280.42Zm0,2.65a.56.56,0,0,0-.57-.57H323a.57.57,0,1,0,0,1.14h2.32A.56.56,0,0,0,325.86,283.07Zm0,2.65a.56.56,0,0,0-.57-.57H323a.57.57,0,0,0-.57.57.58.58,0,0,0,.57.57h2.32A.57.57,0,0,0,325.86,285.72Zm8.67-18.54a.56.56,0,0,0-.57-.57h-6.08a.57.57,0,0,0-.58.57.58.58,0,0,0,.58.57H334A.57.57,0,0,0,334.53,267.18Zm0,2.65a.57.57,0,0,0-.57-.58h-6.08a.58.58,0,1,0,0,1.15H334A.57.57,0,0,0,334.53,269.83Zm0,2.64a.57.57,0,0,0-.57-.57h-6.08a.58.58,0,1,0,0,1.15H334A.57.57,0,0,0,334.53,272.47Zm0,2.65a.57.57,0,0,0-.57-.57h-6.08a.58.58,0,0,0-.58.57.57.57,0,0,0,.58.57H334A.56.56,0,0,0,334.53,275.12Zm0,2.65a.57.57,0,0,0-.57-.57h-6.08a.58.58,0,0,0-.58.57.57.57,0,0,0,.58.57H334A.56.56,0,0,0,334.53,277.77Zm7.29,2.65a.57.57,0,0,0-.58-.57h-6.08a.57.57,0,1,0,0,1.14h6.08A.57.57,0,0,0,341.82,280.42Zm0,2.65a.57.57,0,0,0-.58-.57h-6.08a.57.57,0,1,0,0,1.14h6.08A.57.57,0,0,0,341.82,283.07Zm0,2.65a.57.57,0,0,0-.58-.57h-6.08a.56.56,0,0,0-.57.57.57.57,0,0,0,.57.57h6.08A.58.58,0,0,0,341.82,285.72Zm-4.61-18.54a.67.67,0,0,0-1.33,0,.67.67,0,0,0,1.33,0Zm2,0a.67.67,0,1,0-.67.66A.66.66,0,0,0,339.2,267.18Zm2,0a.66.66,0,1,0-.66.66A.65.65,0,0,0,341.18,267.18Zm2,0a.67.67,0,0,0-1.33,0,.67.67,0,0,0,1.33,0Zm2,0a.66.66,0,0,0-1.32,0,.66.66,0,0,0,1.32,0Zm2,0a.66.66,0,1,0-.66.66A.66.66,0,0,0,347.14,267.18Zm-9.93,5.29a.67.67,0,1,0-.66.67A.67.67,0,0,0,337.21,272.47Zm2,0a.67.67,0,1,0-.67.67A.67.67,0,0,0,339.2,272.47Zm2,0a.66.66,0,1,0-.66.67A.66.66,0,0,0,341.18,272.47Zm2,0a.67.67,0,1,0-.66.67A.67.67,0,0,0,343.17,272.47Zm2,0a.66.66,0,0,0-1.32,0,.66.66,0,1,0,1.32,0Zm2,0a.66.66,0,1,0-.66.67A.67.67,0,0,0,347.14,272.47ZM344,280.09a.67.67,0,1,0-.67.66A.66.66,0,0,0,344,280.09Zm2,0a.66.66,0,1,0-.66.66A.65.65,0,0,0,346,280.09Zm2,0a.67.67,0,1,0-.66.66A.66.66,0,0,0,348,280.09Zm2,0a.67.67,0,1,0-.67.66A.66.66,0,0,0,350,280.09Zm2,0a.66.66,0,1,0-.66.66A.65.65,0,0,0,351.94,280.09Zm2,0a.67.67,0,1,0-.66.66A.66.66,0,0,0,353.93,280.09ZM344,285.55a.67.67,0,0,0-1.33,0,.67.67,0,0,0,1.33,0Zm2,0a.66.66,0,1,0-.66.66A.66.66,0,0,0,346,285.55Zm2,0a.67.67,0,1,0-.66.66A.67.67,0,0,0,348,285.55Zm2,0a.67.67,0,0,0-1.33,0,.67.67,0,0,0,1.33,0Zm2,0a.66.66,0,1,0-.66.66A.66.66,0,0,0,351.94,285.55Zm2,0a.67.67,0,1,0-.66.66A.67.67,0,0,0,353.93,285.55Z" style="fill:#4550E6"></path></g><g id="device-2--inject-1"><path d="M287.27,224.2H254.2a.52.52,0,0,1-.23-1l6.8-3.27a.43.43,0,0,1,.22-.06h30.55a.52.52,0,0,1,.31.94l-4.26,3.28A.51.51,0,0,1,287.27,224.2Z" style="fill:#263238;stroke:#263238;stroke-linecap:round;stroke-linejoin:round"></path><rect x="271.49" y="199.23" width="6.08" height="23.17" style="fill:#fff;stroke:#263238;stroke-linecap:round;stroke-linejoin:round"></rect><rect x="270.54" y="199.23" width="7.99" height="16.82" style="fill:#263238;stroke:#263238;stroke-linecap:round;stroke-linejoin:round"></rect><rect x="225.63" y="122.15" width="100.68" height="78.75" style="fill:#fff;stroke:#263238;stroke-linecap:round;stroke-linejoin:round"></rect><rect x="231.01" y="126.37" width="89.91" height="70.33" style="fill:#263238;stroke:#263238;stroke-linecap:round;stroke-linejoin:round"></rect><rect x="238.04" y="134.23" width="36.64" height="16.28" style="fill:none;stroke:#4550E6;stroke-miterlimit:10"></rect><path d="M242.81,161.81h8.54a26.37,26.37,0,0,1,11.15,2.48l4,1.87a15.64,15.64,0,0,0,14.19-.47l1.15-.62a26.24,26.24,0,0,1,12.67-3.26h10.09" style="fill:none;stroke:#4550E6;stroke-miterlimit:10"></path><path d="M242.81,167.78h8.54a26.22,26.22,0,0,1,11.15,2.48l4,1.86a15.67,15.67,0,0,0,14.19-.46l1.15-.63a26.34,26.34,0,0,1,12.67-3.25h10.09" style="fill:none;stroke:#4550E6;stroke-miterlimit:10"></path><path d="M242.81,186.94h8.54a26.37,26.37,0,0,0,11.15-2.48l4-1.87a15.67,15.67,0,0,1,14.19.46l1.15.63a26.24,26.24,0,0,0,12.67,3.26h10.09" style="fill:none;stroke:#4550E6;stroke-miterlimit:10"></path><path d="M242.81,181h8.54a26.37,26.37,0,0,0,11.15-2.48l4-1.87a15.64,15.64,0,0,1,14.19.47l1.15.62A26.24,26.24,0,0,0,294.49,181h10.09" style="fill:none;stroke:#4550E6;stroke-miterlimit:10"></path><rect x="305.59" y="157.84" width="5.73" height="5.73" style="fill:#4550E6"></rect><rect x="305.59" y="164.9" width="5.73" height="5.73" style="fill:#4550E6"></rect><rect x="305.59" y="177.02" width="5.73" height="5.73" style="fill:#4550E6"></rect><rect x="305.59" y="184.07" width="5.73" height="5.73" style="fill:#4550E6"></rect><rect x="235.95" y="157.84" width="5.73" height="5.73" style="fill:#4550E6"></rect><rect x="235.95" y="164.9" width="5.73" height="5.73" style="fill:#4550E6"></rect><rect x="235.95" y="177.02" width="5.73" height="5.73" style="fill:#4550E6"></rect><rect x="235.95" y="184.07" width="5.73" height="5.73" style="fill:#4550E6"></rect><path d="M282.8,134h-2.31a.57.57,0,1,1,0-1.14h2.31a.57.57,0,1,1,0,1.14Zm.57,2.08a.56.56,0,0,0-.57-.57h-2.31a.57.57,0,0,0-.58.57.58.58,0,0,0,.58.57h2.31A.57.57,0,0,0,283.37,136Zm0,2.65a.57.57,0,0,0-.57-.58h-2.31a.58.58,0,1,0,0,1.15h2.31A.57.57,0,0,0,283.37,138.68Zm0,2.64a.57.57,0,0,0-.57-.57h-2.31a.58.58,0,1,0,0,1.15h2.31A.57.57,0,0,0,283.37,141.32Zm0,2.65a.57.57,0,0,0-.57-.57h-2.31a.58.58,0,1,0,0,1.15h2.31A.57.57,0,0,0,283.37,144Zm0,2.65a.57.57,0,0,0-.57-.57h-2.31a.58.58,0,0,0-.58.57.57.57,0,0,0,.58.57h2.31A.56.56,0,0,0,283.37,146.62Zm0,2.65a.57.57,0,0,0-.57-.57h-2.31a.58.58,0,0,0-.58.57.57.57,0,0,0,.58.57h2.31A.56.56,0,0,0,283.37,149.27Zm0,2.65a.56.56,0,0,0-.57-.57h-2.31a.57.57,0,1,0,0,1.14h2.31A.56.56,0,0,0,283.37,151.92ZM292,133.38a.56.56,0,0,0-.57-.57h-6.08a.57.57,0,0,0,0,1.14h6.08A.56.56,0,0,0,292,133.38Zm0,2.65a.56.56,0,0,0-.57-.57h-6.08a.56.56,0,0,0-.57.57.57.57,0,0,0,.57.57h6.08A.57.57,0,0,0,292,136Zm0,2.65a.57.57,0,0,0-.57-.58h-6.08a.58.58,0,0,0,0,1.15h6.08A.57.57,0,0,0,292,138.68Zm0,2.64a.57.57,0,0,0-.57-.57h-6.08a.58.58,0,0,0,0,1.15h6.08A.57.57,0,0,0,292,141.32Zm0,2.65a.57.57,0,0,0-.57-.57h-6.08a.58.58,0,0,0,0,1.15h6.08A.57.57,0,0,0,292,144Zm7.29,2.65a.58.58,0,0,0-.57-.57h-6.09a.58.58,0,0,0-.57.57.57.57,0,0,0,.57.57h6.09A.57.57,0,0,0,299.33,146.62Zm0,2.65a.58.58,0,0,0-.57-.57h-6.09a.58.58,0,0,0-.57.57.57.57,0,0,0,.57.57h6.09A.57.57,0,0,0,299.33,149.27Zm0,2.65a.57.57,0,0,0-.57-.57h-6.09a.57.57,0,0,0,0,1.14h6.09A.57.57,0,0,0,299.33,151.92Zm-4.61-18.54a.66.66,0,1,0-.66.66A.65.65,0,0,0,294.72,133.38Zm2,0a.67.67,0,0,0-1.33,0,.67.67,0,0,0,1.33,0Zm2,0a.66.66,0,1,0-1.32,0,.66.66,0,1,0,1.32,0Zm2,0a.66.66,0,1,0-.66.66A.66.66,0,0,0,300.68,133.38Zm2,0a.67.67,0,0,0-1.33,0,.67.67,0,0,0,1.33,0Zm2,0a.66.66,0,0,0-1.32,0,.66.66,0,0,0,1.32,0Zm-9.93,5.3a.66.66,0,1,0-.66.66A.66.66,0,0,0,294.72,138.68Zm2,0a.67.67,0,1,0-.66.66A.67.67,0,0,0,296.71,138.68Zm2,0a.66.66,0,1,0-.66.66A.66.66,0,0,0,298.69,138.68Zm2,0a.66.66,0,1,0-1.32,0,.66.66,0,1,0,1.32,0Zm2,0a.67.67,0,1,0-.66.66A.67.67,0,0,0,302.67,138.68Zm2,0a.66.66,0,1,0-.66.66A.66.66,0,0,0,304.65,138.68Zm-3.14,7.61a.67.67,0,1,0-.66.66A.67.67,0,0,0,301.51,146.29Zm2,0a.67.67,0,0,0-1.33,0,.67.67,0,0,0,1.33,0Zm2,0a.66.66,0,1,0-.66.66A.66.66,0,0,0,305.48,146.29Zm2,0a.67.67,0,1,0-.66.66A.67.67,0,0,0,307.47,146.29Zm2,0a.66.66,0,1,0-.66.66A.66.66,0,0,0,309.45,146.29Zm2,0a.66.66,0,1,0-1.32,0,.66.66,0,1,0,1.32,0Zm-9.93,5.46a.67.67,0,1,0-.66.67A.67.67,0,0,0,301.51,151.75Zm2,0a.67.67,0,1,0-.67.67A.67.67,0,0,0,303.5,151.75Zm2,0a.66.66,0,1,0-.66.67A.66.66,0,0,0,305.48,151.75Zm2,0a.67.67,0,1,0-.66.67A.67.67,0,0,0,307.47,151.75Zm2,0a.66.66,0,0,0-1.32,0,.66.66,0,1,0,1.32,0Zm2,0a.66.66,0,1,0-.66.67A.67.67,0,0,0,311.44,151.75Z" style="fill:#4550E6"></path></g><g id="device-1--inject-1"><path d="M219.52,339H186.44a.52.52,0,0,1-.22-1l6.79-3.28a.64.64,0,0,1,.23,0h30.54a.52.52,0,0,1,.32.94l-4.26,3.27A.52.52,0,0,1,219.52,339Z" style="fill:#263238;stroke:#263238;stroke-linecap:round;stroke-linejoin:round"></path><rect x="203.74" y="314.07" width="6.08" height="23.17" style="fill:#fff;stroke:#263238;stroke-linecap:round;stroke-linejoin:round"></rect><rect x="202.79" y="314.07" width="7.99" height="16.82" style="fill:#263238;stroke:#263238;stroke-linecap:round;stroke-linejoin:round"></rect><rect x="157.87" y="236.99" width="100.68" height="78.75" style="fill:#fff;stroke:#263238;stroke-linecap:round;stroke-linejoin:round"></rect><rect x="163.26" y="241.2" width="89.91" height="70.33" style="fill:#263238;stroke:#263238;stroke-linecap:round;stroke-linejoin:round"></rect><path d="M183.21,246h-2.32a.57.57,0,0,1-.57-.57.58.58,0,0,1,.57-.57h2.32a.57.57,0,0,1,.57.57A.56.56,0,0,1,183.21,246Zm.57,2.08a.56.56,0,0,0-.57-.57h-2.32a.57.57,0,0,0,0,1.14h2.32A.56.56,0,0,0,183.78,248.12Zm0,2.65a.56.56,0,0,0-.57-.57h-2.32a.57.57,0,0,0-.57.57.58.58,0,0,0,.57.57h2.32A.57.57,0,0,0,183.78,250.77Zm0,2.65a.56.56,0,0,0-.57-.57h-2.32a.57.57,0,0,0-.57.57.58.58,0,0,0,.57.57h2.32A.57.57,0,0,0,183.78,253.42Zm0,2.65a.57.57,0,0,0-.57-.58h-2.32a.58.58,0,0,0,0,1.15h2.32A.57.57,0,0,0,183.78,256.07Zm0,2.64a.57.57,0,0,0-.57-.57h-2.32a.58.58,0,0,0,0,1.15h2.32A.57.57,0,0,0,183.78,258.71Zm0,2.65a.57.57,0,0,0-.57-.57h-2.32a.58.58,0,0,0-.57.57.57.57,0,0,0,.57.57h2.32A.56.56,0,0,0,183.78,261.36Zm0,2.65a.57.57,0,0,0-.57-.57h-2.32a.58.58,0,0,0-.57.57.57.57,0,0,0,.57.57h2.32A.56.56,0,0,0,183.78,264Zm8.67-18.54a.57.57,0,0,0-.57-.57H185.8a.57.57,0,0,0-.57.57.56.56,0,0,0,.57.57h6.08A.56.56,0,0,0,192.45,245.47Zm0,2.65a.56.56,0,0,0-.57-.57H185.8a.57.57,0,1,0,0,1.14h6.08A.56.56,0,0,0,192.45,248.12Zm0,2.65a.56.56,0,0,0-.57-.57H185.8a.56.56,0,0,0-.57.57.57.57,0,0,0,.57.57h6.08A.57.57,0,0,0,192.45,250.77Zm0,2.65a.56.56,0,0,0-.57-.57H185.8a.56.56,0,0,0-.57.57.57.57,0,0,0,.57.57h6.08A.57.57,0,0,0,192.45,253.42Zm0,2.65a.57.57,0,0,0-.57-.58H185.8a.58.58,0,0,0,0,1.15h6.08A.57.57,0,0,0,192.45,256.07Zm7.29,2.64a.58.58,0,0,0-.57-.57h-6.09a.58.58,0,0,0,0,1.15h6.09A.58.58,0,0,0,199.74,258.71Zm0,2.65a.58.58,0,0,0-.57-.57h-6.09a.58.58,0,0,0-.57.57.57.57,0,0,0,.57.57h6.09A.57.57,0,0,0,199.74,261.36Zm0,2.65a.58.58,0,0,0-.57-.57h-6.09a.58.58,0,0,0-.57.57.57.57,0,0,0,.57.57h6.09A.57.57,0,0,0,199.74,264Zm-4.61-18.54a.66.66,0,0,0-1.32,0,.66.66,0,0,0,1.32,0Zm2,0a.67.67,0,0,0-1.33,0,.67.67,0,0,0,1.33,0Zm2,0a.66.66,0,1,0-.66.66A.66.66,0,0,0,199.1,245.47Zm2,0a.66.66,0,1,0-1.32,0,.66.66,0,1,0,1.32,0Zm2,0a.67.67,0,0,0-1.33,0,.67.67,0,0,0,1.33,0Zm2,0a.66.66,0,1,0-.66.66A.66.66,0,0,0,205.06,245.47Zm-9.93,5.3a.66.66,0,1,0-.66.66A.66.66,0,0,0,195.13,250.77Zm2,0a.67.67,0,1,0-.67.66A.66.66,0,0,0,197.12,250.77Zm2,0a.66.66,0,1,0-1.32,0,.66.66,0,1,0,1.32,0Zm2,0a.66.66,0,1,0-.66.66A.66.66,0,0,0,201.09,250.77Zm2,0a.67.67,0,1,0-.67.66A.66.66,0,0,0,203.08,250.77Zm2,0a.66.66,0,1,0-.66.66A.65.65,0,0,0,205.06,250.77Zm-3.14,7.61a.67.67,0,1,0-.66.67A.67.67,0,0,0,201.92,258.38Zm2,0a.66.66,0,1,0-1.32,0,.66.66,0,1,0,1.32,0Zm2,0a.66.66,0,1,0-.66.67A.67.67,0,0,0,205.89,258.38Zm2,0a.67.67,0,1,0-.67.67A.67.67,0,0,0,207.88,258.38Zm2,0a.66.66,0,1,0-1.32,0,.66.66,0,1,0,1.32,0Zm2,0a.66.66,0,1,0-.66.67A.67.67,0,0,0,211.85,258.38Zm-9.93,5.47a.67.67,0,1,0-.66.66A.67.67,0,0,0,201.92,263.85Zm2,0a.66.66,0,1,0-.66.66A.66.66,0,0,0,203.9,263.85Zm2,0a.66.66,0,1,0-1.32,0,.66.66,0,0,0,1.32,0Zm2,0a.67.67,0,1,0-.67.66A.67.67,0,0,0,207.88,263.85Zm2,0a.66.66,0,1,0-.66.66A.66.66,0,0,0,209.86,263.85Zm2,0a.66.66,0,1,0-1.32,0,.66.66,0,0,0,1.32,0Z" style="fill:#4550E6"></path><path d="M183.21,267.24h-2.32a.58.58,0,0,1,0-1.15h2.32a.58.58,0,0,1,0,1.15Zm.57,2.07a.57.57,0,0,0-.57-.57h-2.32a.58.58,0,0,0,0,1.15h2.32A.57.57,0,0,0,183.78,269.31Zm0,2.65a.57.57,0,0,0-.57-.57h-2.32a.58.58,0,0,0-.57.57.57.57,0,0,0,.57.57h2.32A.56.56,0,0,0,183.78,272Zm0,2.65a.57.57,0,0,0-.57-.57h-2.32a.58.58,0,0,0-.57.57.57.57,0,0,0,.57.57h2.32A.56.56,0,0,0,183.78,274.61Zm0,2.65a.56.56,0,0,0-.57-.57h-2.32a.57.57,0,0,0,0,1.14h2.32A.56.56,0,0,0,183.78,277.26Zm0,2.65a.56.56,0,0,0-.57-.57h-2.32a.57.57,0,0,0,0,1.14h2.32A.56.56,0,0,0,183.78,279.91Zm0,2.65a.56.56,0,0,0-.57-.57h-2.32a.57.57,0,0,0-.57.57.58.58,0,0,0,.57.57h2.32A.57.57,0,0,0,183.78,282.56Zm0,2.65a.57.57,0,0,0-.57-.58h-2.32a.58.58,0,0,0,0,1.15h2.32A.57.57,0,0,0,183.78,285.21Zm8.67-18.54a.57.57,0,0,0-.57-.58H185.8a.58.58,0,0,0,0,1.15h6.08A.57.57,0,0,0,192.45,266.67Zm0,2.64a.57.57,0,0,0-.57-.57H185.8a.58.58,0,0,0,0,1.15h6.08A.57.57,0,0,0,192.45,269.31Zm0,2.65a.57.57,0,0,0-.57-.57H185.8a.57.57,0,0,0-.57.57.56.56,0,0,0,.57.57h6.08A.56.56,0,0,0,192.45,272Zm0,2.65a.57.57,0,0,0-.57-.57H185.8a.57.57,0,0,0-.57.57.56.56,0,0,0,.57.57h6.08A.56.56,0,0,0,192.45,274.61Zm0,2.65a.56.56,0,0,0-.57-.57H185.8a.57.57,0,1,0,0,1.14h6.08A.56.56,0,0,0,192.45,277.26Zm7.29,2.65a.57.57,0,0,0-.57-.57h-6.09a.57.57,0,0,0,0,1.14h6.09A.57.57,0,0,0,199.74,279.91Zm0,2.65a.57.57,0,0,0-.57-.57h-6.09a.57.57,0,0,0-.57.57.58.58,0,0,0,.57.57h6.09A.58.58,0,0,0,199.74,282.56Zm0,2.65a.58.58,0,0,0-.57-.58h-6.09a.58.58,0,0,0,0,1.15h6.09A.58.58,0,0,0,199.74,285.21Zm-4.61-18.54a.66.66,0,1,0-1.32,0,.66.66,0,0,0,1.32,0Zm2,0a.67.67,0,1,0-.67.66A.67.67,0,0,0,197.12,266.67Zm2,0a.66.66,0,1,0-.66.66A.66.66,0,0,0,199.1,266.67Zm2,0a.66.66,0,1,0-1.32,0,.66.66,0,0,0,1.32,0Zm2,0a.67.67,0,1,0-.67.66A.67.67,0,0,0,203.08,266.67Zm2,0a.66.66,0,1,0-.66.66A.66.66,0,0,0,205.06,266.67ZM195.13,272a.66.66,0,1,0-.66.67A.67.67,0,0,0,195.13,272Zm2,0a.67.67,0,1,0-.67.67A.67.67,0,0,0,197.12,272Zm2,0a.66.66,0,1,0-1.32,0,.66.66,0,1,0,1.32,0Zm2,0a.66.66,0,1,0-.66.67A.67.67,0,0,0,201.09,272Zm2,0a.67.67,0,1,0-.67.67A.67.67,0,0,0,203.08,272Zm2,0a.66.66,0,1,0-.66.67A.66.66,0,0,0,205.06,272Zm-3.14,7.62a.67.67,0,0,0-1.33,0,.67.67,0,0,0,1.33,0Zm2,0a.66.66,0,1,0-1.32,0,.66.66,0,1,0,1.32,0Zm2,0a.66.66,0,1,0-.66.66A.66.66,0,0,0,205.89,279.58Zm2,0a.67.67,0,1,0-.67.66A.66.66,0,0,0,207.88,279.58Zm2,0a.66.66,0,1,0-1.32,0,.66.66,0,1,0,1.32,0Zm2,0a.66.66,0,1,0-.66.66A.66.66,0,0,0,211.85,279.58ZM201.92,285a.67.67,0,1,0-.66.66A.66.66,0,0,0,201.92,285Zm2,0a.66.66,0,1,0-.66.66A.65.65,0,0,0,203.9,285Zm2,0a.66.66,0,1,0-.66.66A.66.66,0,0,0,205.89,285Zm2,0a.67.67,0,1,0-.67.66A.66.66,0,0,0,207.88,285Zm2,0a.66.66,0,1,0-.66.66A.65.65,0,0,0,209.86,285Zm2,0a.66.66,0,1,0-.66.66A.66.66,0,0,0,211.85,285Z" style="fill:#4550E6"></path><path d="M183.21,288.94h-2.32a.57.57,0,0,1-.57-.57.58.58,0,0,1,.57-.57h2.32a.57.57,0,0,1,.57.57A.56.56,0,0,1,183.21,288.94Zm.57,2.08a.56.56,0,0,0-.57-.57h-2.32a.57.57,0,0,0,0,1.14h2.32A.56.56,0,0,0,183.78,291Zm0,2.65a.56.56,0,0,0-.57-.57h-2.32a.57.57,0,0,0-.57.57.58.58,0,0,0,.57.57h2.32A.57.57,0,0,0,183.78,293.67Zm0,2.65a.56.56,0,0,0-.57-.57h-2.32a.57.57,0,0,0-.57.57.58.58,0,0,0,.57.57h2.32A.57.57,0,0,0,183.78,296.32Zm0,2.65a.57.57,0,0,0-.57-.58h-2.32a.58.58,0,0,0,0,1.15h2.32A.57.57,0,0,0,183.78,299Zm0,2.65a.57.57,0,0,0-.57-.58h-2.32a.58.58,0,0,0,0,1.15h2.32A.57.57,0,0,0,183.78,301.62Zm0,2.64a.57.57,0,0,0-.57-.57h-2.32a.58.58,0,0,0,0,1.15h2.32A.57.57,0,0,0,183.78,304.26Zm0,2.65a.57.57,0,0,0-.57-.57h-2.32a.58.58,0,0,0-.57.57.57.57,0,0,0,.57.57h2.32A.56.56,0,0,0,183.78,306.91Zm8.67-18.54a.57.57,0,0,0-.57-.57H185.8a.57.57,0,0,0-.57.57.56.56,0,0,0,.57.57h6.08A.56.56,0,0,0,192.45,288.37Zm0,2.65a.56.56,0,0,0-.57-.57H185.8a.57.57,0,1,0,0,1.14h6.08A.56.56,0,0,0,192.45,291Zm0,2.65a.56.56,0,0,0-.57-.57H185.8a.56.56,0,0,0-.57.57.57.57,0,0,0,.57.57h6.08A.57.57,0,0,0,192.45,293.67Zm0,2.65a.56.56,0,0,0-.57-.57H185.8a.56.56,0,0,0-.57.57.57.57,0,0,0,.57.57h6.08A.57.57,0,0,0,192.45,296.32Zm0,2.65a.57.57,0,0,0-.57-.58H185.8a.58.58,0,0,0,0,1.15h6.08A.57.57,0,0,0,192.45,299Zm7.29,2.65a.58.58,0,0,0-.57-.58h-6.09a.58.58,0,0,0,0,1.15h6.09A.58.58,0,0,0,199.74,301.62Zm0,2.64a.58.58,0,0,0-.57-.57h-6.09a.58.58,0,0,0,0,1.15h6.09A.58.58,0,0,0,199.74,304.26Zm0,2.65a.58.58,0,0,0-.57-.57h-6.09a.58.58,0,0,0-.57.57.57.57,0,0,0,.57.57h6.09A.57.57,0,0,0,199.74,306.91Zm-4.61-18.54a.66.66,0,0,0-1.32,0,.66.66,0,0,0,1.32,0Zm2,0a.67.67,0,0,0-1.33,0,.67.67,0,0,0,1.33,0Zm2,0a.66.66,0,1,0-.66.66A.66.66,0,0,0,199.1,288.37Zm2,0a.66.66,0,0,0-1.32,0,.66.66,0,0,0,1.32,0Zm2,0a.67.67,0,0,0-1.33,0,.67.67,0,0,0,1.33,0Zm2,0a.66.66,0,1,0-.66.66A.66.66,0,0,0,205.06,288.37Zm-9.93,5.3a.66.66,0,1,0-.66.66A.66.66,0,0,0,195.13,293.67Zm2,0a.67.67,0,1,0-.67.66A.66.66,0,0,0,197.12,293.67Zm2,0a.66.66,0,0,0-1.32,0,.66.66,0,0,0,1.32,0Zm2,0a.66.66,0,1,0-.66.66A.66.66,0,0,0,201.09,293.67Zm2,0a.67.67,0,1,0-.67.66A.66.66,0,0,0,203.08,293.67Zm2,0a.66.66,0,1,0-.66.66A.65.65,0,0,0,205.06,293.67Zm-3.14,7.61a.67.67,0,1,0-.66.67A.67.67,0,0,0,201.92,301.28Zm2,0a.66.66,0,1,0-1.32,0,.66.66,0,1,0,1.32,0Zm2,0a.66.66,0,1,0-.66.67A.67.67,0,0,0,205.89,301.28Zm2,0a.67.67,0,1,0-.67.67A.67.67,0,0,0,207.88,301.28Zm2,0a.66.66,0,1,0-1.32,0,.66.66,0,1,0,1.32,0Zm2,0a.66.66,0,1,0-.66.67A.67.67,0,0,0,211.85,301.28Zm-9.93,5.47a.67.67,0,1,0-.66.66A.67.67,0,0,0,201.92,306.75Zm2,0a.66.66,0,1,0-.66.66A.66.66,0,0,0,203.9,306.75Zm2,0a.66.66,0,1,0-1.32,0,.66.66,0,1,0,1.32,0Zm2,0a.67.67,0,1,0-.67.66A.67.67,0,0,0,207.88,306.75Zm2,0a.66.66,0,1,0-.66.66A.66.66,0,0,0,209.86,306.75Zm2,0a.66.66,0,1,0-1.32,0,.66.66,0,0,0,1.32,0Z" style="fill:#4550E6"></path><path d="M218.79,246h-2.31a.57.57,0,0,1-.58-.57.58.58,0,0,1,.58-.57h2.31a.57.57,0,0,1,.57.57A.56.56,0,0,1,218.79,246Zm.57,2.08a.56.56,0,0,0-.57-.57h-2.31a.57.57,0,1,0,0,1.14h2.31A.56.56,0,0,0,219.36,248.12Zm0,2.65a.56.56,0,0,0-.57-.57h-2.31a.57.57,0,0,0-.58.57.58.58,0,0,0,.58.57h2.31A.57.57,0,0,0,219.36,250.77Zm0,2.65a.56.56,0,0,0-.57-.57h-2.31a.57.57,0,0,0-.58.57.58.58,0,0,0,.58.57h2.31A.57.57,0,0,0,219.36,253.42Zm0,2.65a.57.57,0,0,0-.57-.58h-2.31a.58.58,0,1,0,0,1.15h2.31A.57.57,0,0,0,219.36,256.07Zm0,2.64a.57.57,0,0,0-.57-.57h-2.31a.58.58,0,1,0,0,1.15h2.31A.57.57,0,0,0,219.36,258.71Zm0,2.65a.57.57,0,0,0-.57-.57h-2.31a.58.58,0,0,0-.58.57.57.57,0,0,0,.58.57h2.31A.56.56,0,0,0,219.36,261.36Zm0,2.65a.57.57,0,0,0-.57-.57h-2.31a.58.58,0,0,0-.58.57.57.57,0,0,0,.58.57h2.31A.56.56,0,0,0,219.36,264ZM228,245.47a.57.57,0,0,0-.57-.57h-6.08a.57.57,0,0,0-.57.57.56.56,0,0,0,.57.57h6.08A.56.56,0,0,0,228,245.47Zm0,2.65a.56.56,0,0,0-.57-.57h-6.08a.57.57,0,0,0,0,1.14h6.08A.56.56,0,0,0,228,248.12Zm0,2.65a.56.56,0,0,0-.57-.57h-6.08a.56.56,0,0,0-.57.57.57.57,0,0,0,.57.57h6.08A.57.57,0,0,0,228,250.77Zm0,2.65a.56.56,0,0,0-.57-.57h-6.08a.56.56,0,0,0-.57.57.57.57,0,0,0,.57.57h6.08A.57.57,0,0,0,228,253.42Zm0,2.65a.57.57,0,0,0-.57-.58h-6.08a.58.58,0,0,0,0,1.15h6.08A.57.57,0,0,0,228,256.07Zm7.29,2.64a.58.58,0,0,0-.57-.57h-6.09a.58.58,0,0,0,0,1.15h6.09A.58.58,0,0,0,235.32,258.71Zm0,2.65a.58.58,0,0,0-.57-.57h-6.09a.58.58,0,0,0-.57.57.57.57,0,0,0,.57.57h6.09A.57.57,0,0,0,235.32,261.36Zm0,2.65a.58.58,0,0,0-.57-.57h-6.09a.58.58,0,0,0-.57.57.57.57,0,0,0,.57.57h6.09A.57.57,0,0,0,235.32,264Zm-4.61-18.54a.66.66,0,1,0-1.32,0,.66.66,0,0,0,1.32,0Zm2,0a.67.67,0,1,0-.66.66A.67.67,0,0,0,232.7,245.47Zm2,0a.66.66,0,1,0-.66.66A.66.66,0,0,0,234.68,245.47Zm2,0a.66.66,0,1,0-1.32,0,.66.66,0,1,0,1.32,0Zm2,0a.67.67,0,0,0-1.33,0,.67.67,0,0,0,1.33,0Zm2,0a.66.66,0,1,0-.66.66A.66.66,0,0,0,240.64,245.47Zm-9.93,5.3a.66.66,0,1,0-.66.66A.66.66,0,0,0,230.71,250.77Zm2,0a.67.67,0,0,0-1.33,0,.67.67,0,0,0,1.33,0Zm2,0a.66.66,0,0,0-1.32,0,.66.66,0,0,0,1.32,0Zm2,0a.66.66,0,1,0-.66.66A.66.66,0,0,0,236.67,250.77Zm2,0a.67.67,0,1,0-.67.66A.66.66,0,0,0,238.66,250.77Zm2,0a.66.66,0,0,0-1.32,0,.66.66,0,0,0,1.32,0Zm-3.14,7.61a.67.67,0,1,0-.66.67A.67.67,0,0,0,237.5,258.38Zm2,0a.66.66,0,1,0-1.32,0,.66.66,0,1,0,1.32,0Zm2,0a.66.66,0,1,0-.66.67A.67.67,0,0,0,241.47,258.38Zm2,0a.67.67,0,1,0-.66.67A.67.67,0,0,0,243.46,258.38Zm2,0a.66.66,0,1,0-1.32,0,.66.66,0,1,0,1.32,0Zm2,0a.66.66,0,1,0-.66.67A.67.67,0,0,0,247.43,258.38Zm-9.93,5.47a.67.67,0,1,0-.66.66A.67.67,0,0,0,237.5,263.85Zm2,0a.66.66,0,1,0-.66.66A.66.66,0,0,0,239.48,263.85Zm2,0a.66.66,0,1,0-1.32,0,.66.66,0,0,0,1.32,0Zm2,0a.67.67,0,1,0-.66.66A.67.67,0,0,0,243.46,263.85Zm2,0a.66.66,0,1,0-.66.66A.66.66,0,0,0,245.44,263.85Zm2,0a.66.66,0,1,0-1.32,0,.66.66,0,0,0,1.32,0Z" style="fill:#4550E6"></path><path d="M218.79,267.75h-2.31a.58.58,0,0,1-.58-.57.57.57,0,0,1,.58-.57h2.31a.56.56,0,0,1,.57.57A.57.57,0,0,1,218.79,267.75Zm.57,2.08a.57.57,0,0,0-.57-.58h-2.31a.58.58,0,1,0,0,1.15h2.31A.57.57,0,0,0,219.36,269.83Zm0,2.64a.57.57,0,0,0-.57-.57h-2.31a.58.58,0,1,0,0,1.15h2.31A.57.57,0,0,0,219.36,272.47Zm0,2.65a.57.57,0,0,0-.57-.57h-2.31a.58.58,0,0,0-.58.57.57.57,0,0,0,.58.57h2.31A.56.56,0,0,0,219.36,275.12Zm0,2.65a.57.57,0,0,0-.57-.57h-2.31a.58.58,0,0,0-.58.57.57.57,0,0,0,.58.57h2.31A.56.56,0,0,0,219.36,277.77Zm0,2.65a.56.56,0,0,0-.57-.57h-2.31a.57.57,0,1,0,0,1.14h2.31A.56.56,0,0,0,219.36,280.42Zm0,2.65a.56.56,0,0,0-.57-.57h-2.31a.57.57,0,1,0,0,1.14h2.31A.56.56,0,0,0,219.36,283.07Zm0,2.65a.56.56,0,0,0-.57-.57h-2.31a.57.57,0,0,0-.58.57.58.58,0,0,0,.58.57h2.31A.57.57,0,0,0,219.36,285.72ZM228,267.18a.56.56,0,0,0-.57-.57h-6.08a.56.56,0,0,0-.57.57.57.57,0,0,0,.57.57h6.08A.57.57,0,0,0,228,267.18Zm0,2.65a.57.57,0,0,0-.57-.58h-6.08a.58.58,0,0,0,0,1.15h6.08A.57.57,0,0,0,228,269.83Zm0,2.64a.57.57,0,0,0-.57-.57h-6.08a.58.58,0,0,0,0,1.15h6.08A.57.57,0,0,0,228,272.47Zm0,2.65a.57.57,0,0,0-.57-.57h-6.08a.57.57,0,0,0-.57.57.56.56,0,0,0,.57.57h6.08A.56.56,0,0,0,228,275.12Zm0,2.65a.57.57,0,0,0-.57-.57h-6.08a.57.57,0,0,0-.57.57.56.56,0,0,0,.57.57h6.08A.56.56,0,0,0,228,277.77Zm7.29,2.65a.57.57,0,0,0-.57-.57h-6.09a.57.57,0,0,0,0,1.14h6.09A.57.57,0,0,0,235.32,280.42Zm0,2.65a.57.57,0,0,0-.57-.57h-6.09a.57.57,0,0,0,0,1.14h6.09A.57.57,0,0,0,235.32,283.07Zm0,2.65a.57.57,0,0,0-.57-.57h-6.09a.57.57,0,0,0-.57.57.58.58,0,0,0,.57.57h6.09A.58.58,0,0,0,235.32,285.72Zm-4.61-18.54a.66.66,0,1,0-.66.66A.66.66,0,0,0,230.71,267.18Zm2,0a.67.67,0,0,0-1.33,0,.67.67,0,0,0,1.33,0Zm2,0a.66.66,0,0,0-1.32,0,.66.66,0,0,0,1.32,0Zm2,0a.66.66,0,1,0-.66.66A.66.66,0,0,0,236.67,267.18Zm2,0a.67.67,0,1,0-.67.66A.66.66,0,0,0,238.66,267.18Zm2,0a.66.66,0,0,0-1.32,0,.66.66,0,0,0,1.32,0Zm-9.93,5.29a.66.66,0,1,0-.66.67A.67.67,0,0,0,230.71,272.47Zm2,0a.67.67,0,1,0-.66.67A.67.67,0,0,0,232.7,272.47Zm2,0a.66.66,0,0,0-1.32,0,.66.66,0,1,0,1.32,0Zm2,0a.66.66,0,1,0-.66.67A.67.67,0,0,0,236.67,272.47Zm2,0a.67.67,0,1,0-.67.67A.67.67,0,0,0,238.66,272.47Zm2,0a.66.66,0,0,0-1.32,0,.66.66,0,1,0,1.32,0Zm-3.14,7.62a.67.67,0,1,0-.66.66A.66.66,0,0,0,237.5,280.09Zm2,0a.66.66,0,1,0-.66.66A.65.65,0,0,0,239.48,280.09Zm2,0a.66.66,0,1,0-.66.66A.66.66,0,0,0,241.47,280.09Zm2,0a.67.67,0,1,0-.66.66A.66.66,0,0,0,243.46,280.09Zm2,0a.66.66,0,1,0-.66.66A.65.65,0,0,0,245.44,280.09Zm2,0a.66.66,0,1,0-.66.66A.66.66,0,0,0,247.43,280.09Zm-9.93,5.46a.67.67,0,1,0-.66.66A.67.67,0,0,0,237.5,285.55Zm2,0a.66.66,0,1,0-.66.66A.66.66,0,0,0,239.48,285.55Zm2,0a.66.66,0,1,0-1.32,0,.66.66,0,1,0,1.32,0Zm2,0a.67.67,0,1,0-.66.66A.67.67,0,0,0,243.46,285.55Zm2,0a.66.66,0,1,0-.66.66A.66.66,0,0,0,245.44,285.55Zm2,0a.66.66,0,1,0-1.32,0,.66.66,0,1,0,1.32,0Z" style="fill:#4550E6"></path></g><g id="Character--inject-1"><path d="M215.64,215.34c-.29,3.78-2.09,6.72-4,6.57s-3.24-3.33-2.95-7.11,2.09-6.73,4-6.58S215.93,211.55,215.64,215.34Z" style="fill:none;stroke:#263238;stroke-linecap:round;stroke-linejoin:round"></path><path d="M212.75,195.81s.38,7-.78,10.26-2.71,5.42-2.71,7,2.52,3.49,2.52,6.58-5.61,18-7.16,20.9-1,3.87-2.9,4.06-6.77-2.12-6.77-2.12-2.91.38-3.29,1.54-1.36,5.23-1.36,5.23l-28.25-12.58a28.26,28.26,0,0,0,5.81-9.87c1.74-5.61-1-14.32-1-14.32s-2.71-20.31,9.67-26.12,30.38-2.13,33.29.78S212.75,195.81,212.75,195.81Z" style="fill:#fff"></path><g style="clip-path:url(#clip-path--inject-1)"><path d="M194.69,227.93c.35-9-2.08-20.49-2.08-20.49s.34-2.78-4.87-11.46a115.14,115.14,0,0,0-7-11.19,29.3,29.3,0,0,0-4.14,1.54c-12.38,5.81-9.67,26.12-9.67,26.12s2.71,8.71,1,14.32a28.26,28.26,0,0,1-5.81,9.87L178.47,244l13.09-1.79s.68.3,1.66.7a9.44,9.44,0,0,1,1.73-.41s4.83,2.32,6.77,2.12C203,243,194.34,237,194.69,227.93Z" style="opacity:0.4"></path><path d="M197.12,198.07l6.94-.35s-4.16,4.51.7,4.51,8-1.21,8-3.82,2.43-6.59-6.94-6.59S194.34,195.64,197.12,198.07Z" style="opacity:0.4"></path></g><path d="M212.75,195.81s.38,7-.78,10.26-2.71,5.42-2.71,7,2.52,3.49,2.52,6.58-5.61,18-7.16,20.9-1,3.87-2.9,4.06-6.77-2.12-6.77-2.12-2.91.38-3.29,1.54-1.36,5.23-1.36,5.23l-28.25-12.58a28.26,28.26,0,0,0,5.81-9.87c1.74-5.61-1-14.32-1-14.32s-2.71-20.31,9.67-26.12,30.38-2.13,33.29.78S212.75,195.81,212.75,195.81Z" style="fill:none;stroke:#263238;stroke-linecap:round;stroke-linejoin:round"></path><path d="M189.34,213.81s4.64,1.35,5.22,0-1.16-1.74,1-2.52,7.16-3.87,7.16-7-5.81-8.32-2.91-9.1,11.81-.38,11.81-.38-6.2,2.9-3.1,4.25,10.64-.38,13.54-4.64-1.16-11-6.77-14.71-16.83-6.77-27.86-6.38-19.16,4.26-21.48,10.64,1.36,28.83,1.55,34.83,3.87,7.74,8.13,7.74,7.93-3.68,8.9-7,1.35-6.58,1.93-7.35S189.34,213.81,189.34,213.81Z" style="fill:#263238;stroke:#263238;stroke-linecap:round;stroke-linejoin:round"></path><path d="M176.47,213a14.52,14.52,0,0,1-2.36,2.1" style="fill:none;stroke:#707070;stroke-linecap:round;stroke-linejoin:round"></path><path d="M220.92,188s-1.29,1.94-6.46,3.23-16.14-4.2-28.09,1.29c-8.13,3.74-6.08,9.43-7.21,15" style="fill:none;stroke:#707070;stroke-linecap:round;stroke-linejoin:round"></path><path d="M198.32,197.65s-4.2.64-7.43,6.13-2.9,13.88-12.59,16.47" style="fill:none;stroke:#707070;stroke-linecap:round;stroke-linejoin:round"></path><line x1="187.59" y1="210.52" x2="215.26" y2="213.42" style="fill:none;stroke:#263238;stroke-linecap:round;stroke-linejoin:round"></line><path d="M191.46,216.71s.39-6.77-2.12-10.06-4.65-1-5.81,5.61-1.16,10.06,1.35,11a7.14,7.14,0,0,0,5-.19" style="fill:#fff;stroke:#263238;stroke-linecap:round;stroke-linejoin:round"></path><path d="M262,392.51c-2.33-2.29-8.48-7.72-16.21-9.57-9.9-2.35-53.28-7.3-53.28-7.3l-2.13-8.73s-6.13-1.89-7.54-1.89-7.78,2.13-21.93,5.19-39.48-4.44-39.48-4.44a19.25,19.25,0,0,0-6.89,14.7c0,6,.56,11,1.25,12Z" style="fill:#263238;stroke:#263238;stroke-linecap:round;stroke-linejoin:round"></path><path d="M156.25,240.51l-.71.49c-2.72,1.87-12.76,8.83-20.38,14.8-8.9,7-9.48,19.93-9.87,30s-6.88,72.7-8.43,80.44,12.3,9.72,25.65,11.66,30.57-.19,38.89-4.06,10.26-3.68,10.26-7.94.19-13.93.19-14.7,6-48.18,5.61-62.11.78-21.48-2.51-28.45-11.61-12.38-22.64-16.06S156.25,240.51,156.25,240.51Z" style="fill:#4550E6"></path><g style="clip-path:url(#clip-path-2--inject-1)"><path d="M188.62,268.58C185.35,262,174.81,250,174.81,250s8-2.37-19.26-9h0c-2.72,1.87-12.76,8.83-20.38,14.8-8.9,7-9.48,19.93-9.87,30s-6.88,72.7-8.43,80.44,12.3,9.72,25.65,11.66a74.77,74.77,0,0,0,10.65.72l38.91-31.93.25.33c1.05-8.92,3.56-30.22,4.64-45.3C194.16,288.63,190.88,273.16,188.62,268.58Z" style="opacity:0.4"></path><path d="M143.1,280.69s1.77,17.18,10.07,28.14" style="fill:none;stroke:#263238;stroke-linecap:round;stroke-linejoin:round"></path><path d="M168,309.42s1.78,4.15,10.67,11" style="fill:none;stroke:#263238;stroke-linecap:round;stroke-linejoin:round"></path><path d="M160.87,321.86s9.47,3.26,18.65,1.48" style="fill:none;stroke:#263238;stroke-linecap:round;stroke-linejoin:round"></path><path d="M157.9,378.43s19.55-10.07,27.25-19.85" style="fill:none;stroke:#263238;stroke-linecap:round;stroke-linejoin:round"></path></g><path d="M156.25,240.51l-.71.49c-2.72,1.87-12.76,8.83-20.38,14.8-8.9,7-9.48,19.93-9.87,30s-6.88,72.7-8.43,80.44,12.3,9.72,25.65,11.66,30.57-.19,38.89-4.06,10.26-3.68,10.26-7.94.19-13.93.19-14.7,6-48.18,5.61-62.11.78-21.48-2.51-28.45-11.61-12.38-22.64-16.06S156.25,240.51,156.25,240.51Z" style="fill:none;stroke:#263238;stroke-linecap:round;stroke-linejoin:round"></path><path d="M158.18,233.93,153,242.64s15.67,3.68,23.8,7,19,12,19,12-1.74-9.87-3.29-12.38-17.61-11-24.19-13.55S158.18,233.93,158.18,233.93Z" style="fill:#4550E6"></path><g style="clip-path:url(#clip-path-3--inject-1)"><path d="M182.34,252.39a2.08,2.08,0,0,0,1.44-1.62c.56-4.61-7.24-11.17-7.64-11.51-3.06-1.52-5.91-2.83-7.9-3.59-6.57-2.51-10.06-1.74-10.06-1.74L153,242.64s15.67,3.68,23.8,7A46.79,46.79,0,0,1,182.34,252.39Z" style="opacity:0.4"></path></g><path d="M158.18,233.93,153,242.64s15.67,3.68,23.8,7,19,12,19,12-1.74-9.87-3.29-12.38-17.61-11-24.19-13.55S158.18,233.93,158.18,233.93Z" style="fill:none;stroke:#263238;stroke-linecap:round;stroke-linejoin:round"></path><path d="M251.25,343.45s5-4.26,7.35-8.52,3.87-5.41,5.62-5a15.68,15.68,0,0,0,3.09.39s6.19-3.68,8.13-4.06,5.8,4.25,5.8,4.25,6.58,5,5.81,6.2-1.94.58-2.71.58-2.52-1.36-3.48-1-5.23,3.09-5.23,3.09,5,0,6.39.58,6.38,5,5.42,5.62-1,.77-2.13.58a17.69,17.69,0,0,1-3.87-1.94l-5.23,1s3.1,3.29,4.07,4.06,4.64,1.94,3.09,2.9-2.71.59-4.64-.77-6.19-3.48-7-3.48-2.9,2.71-6.38,3.87a34,34,0,0,1-8.71,1.16l-1,1-5.8-7-1.16-1Z" style="fill:#fff;stroke:#263238;stroke-linecap:round;stroke-linejoin:round"></path><path d="M281.24,330.48s-1.74-1-2.9-.38-8.51,4.83-8.51,4.83" style="fill:none;stroke:#263238;stroke-linecap:round;stroke-linejoin:round"></path><line x1="267.31" y1="330.29" x2="263.83" y2="332.61" style="fill:none;stroke:#263238;stroke-linecap:round;stroke-linejoin:round"></line><path d="M216.42,346.54s12.77-.19,14.71-1.35,6.58-4.45,6.77-5.81-1-2.12-2.9-1.35-7,2.71-7.74,2.71a27.65,27.65,0,0,1-4.06-1.16s5.61-5,7.93-6.39a6.35,6.35,0,0,1,6.19,0c1.36.78,3.48-1.74,1.74-3.09a9.55,9.55,0,0,0-6.19-2.13,8.62,8.62,0,0,0-2.71.58s-2.13-3.48-3.67-3.1a6.61,6.61,0,0,0-2.71,1.55,3.52,3.52,0,0,0-3.49.19c-1.74,1.17-3.48,1.55-5.41,3.1s-7.55,5.22-8.32,6.58S216.42,346.54,216.42,346.54Z" style="fill:#fff;stroke:#263238;stroke-linecap:round;stroke-linejoin:round"></path><line x1="230.16" y1="328.55" x2="224.74" y2="331.64" style="fill:none;stroke:#263238;stroke-linecap:round;stroke-linejoin:round"></line><line x1="223.78" y1="327" x2="219.91" y2="329.71" style="fill:none;stroke:#263238;stroke-linecap:round;stroke-linejoin:round"></line><path d="M179.47,280.36s-5.42,7.36-7.16,13.17.38,14.12,1,16.06,31.53,62.88,34.82,68.88,7,6.38,9.68,5.42,33.86-23.22,35-24.38,6.39-5.61,6.39-5.61,1-6.2-3.29-9.48-6.39-1.55-6.39-1.55l-27.09,7.35s-15.28-52.63-17-62.69,1-9.48-4.45-14.9a75.81,75.81,0,0,0-12-9.5" style="fill:#4550E6"></path><g style="clip-path:url(#clip-path-4--inject-1)"><path d="M252.8,359.51c1.16-1.16,6.39-5.61,6.39-5.61a13.17,13.17,0,0,0-.25-4.51c-10.89,4.31-33.21,13.24-34.51,14.55-1.73,1.72-.86-1.3-.86-4.75s-5.18,6-6,8.2-2.83-6.14-3.46-9.49-10.78-29.35-13.8-41.43-8.39-41.29-11.65-47.89a32.93,32.93,0,0,0-2-3.34l-8.17,14.55s-4.45,7.93-6.19,13.74.38,14.12,1,16.06c.31,1.05,9.63,19.6,18.59,37.25l.2-.16s16.4,41.52,24.46,37.49C224.44,379.16,251.79,360.52,252.8,359.51Z" style="opacity:0.4"></path></g><path d="M179.47,280.36s-5.42,7.36-7.16,13.17.38,14.12,1,16.06,31.53,62.88,34.82,68.88,7,6.38,9.68,5.42,33.86-23.22,35-24.38,6.39-5.61,6.39-5.61,1-6.2-3.29-9.48-6.39-1.55-6.39-1.55l-27.09,7.35s-15.28-52.63-17-62.69,1-9.48-4.45-14.9a75.81,75.81,0,0,0-12-9.5" style="fill:none;stroke:#263238;stroke-linecap:round;stroke-linejoin:round"></path><path d="M245.83,344.61s8.79,1.11,9.29,12.77" style="fill:none;stroke:#263238;stroke-linecap:round;stroke-linejoin:round"></path></g><g id="Chair--inject-1"><path d="M151.51,392.51H156c-6.88-12.83-44.81-83.69-46.1-86.9-1.41-3.54-3.53-3.54-4.24-5s.24-7.54,0-11.55-13.2-41.26-16.74-47.39-9-5.43-9-5.43l-1.42,3.78,22.4,61.07Z" style="fill:#fff;stroke:#263238;stroke-linecap:round;stroke-linejoin:round"></path><path d="M63.71,304.91c9.31,21.5,35.74,81.69,37.94,87.6H151.5c-5.85-10.53-40.63-73.42-48-93.27-8-21.69-20.52-60.36-23.58-63s-18.39-2.59-24.52-.7-6.37,2.59-6.13,6.6S54.44,283.48,63.71,304.91Z" style="fill:#263238;stroke:#263238;stroke-linecap:round;stroke-linejoin:round"></path><line x1="81.56" y1="392.51" x2="442.17" y2="392.51" style="fill:#fff;stroke:#263238;stroke-linecap:round;stroke-linejoin:round"></line></g></svg>