<svg width="177" height="227" viewBox="0 0 177 227" fill="none" xmlns="http://www.w3.org/2000/svg">
<path d="M35.76 34.8L168.95 117.81C179.79 124.56 179.61 137.41 168.59 143.98L35.4 223.43C21.29 231.85 0.880005 224.04 0.880005 210.23V47.77C0.880005 33.8 21.72 26.05 35.76 34.8Z" fill="#424242"/>
<path d="M141.54 160.12L71.92 70.5L0.880005 125.68V210.23C0.880005 224.04 21.3 231.84 35.4 223.43L141.54 160.12Z" fill="#383838"/>
<path d="M75.49 16.73H71.09V19.87H75.49V16.73Z" fill="#FFCE00"/>
<path d="M94.96 16.73H78V19.87H94.96V16.73Z" fill="#FFCE00"/>
<path d="M94.96 14.85V8.73999C94.95 8.73999 94.95 8.73999 94.94 8.73999C94.93 8.73999 94.93 8.73999 94.92 8.73999H78V14.85H94.96Z" fill="#FFCE00"/>
<path d="M75.49 21.76H71.09V24.9H75.49V21.76Z" fill="#FFCE00"/>
<path d="M49.82 16.73C49.94 16.41 50.07 16.09 50.21 15.78C50.07 16.09 49.94 16.41 49.82 16.73Z" fill="#FFCE00"/>
<path d="M90.88 180.36H94.02V155.71C92.96 155.68 91.91 155.61 90.88 155.49V180.36Z" fill="#FFCE00"/>
<path d="M50.21 25.85C50.07 25.54 49.94 25.22 49.82 24.9C49.94 25.23 50.07 25.54 50.21 25.85Z" fill="#FFCE00"/>
<path d="M50.68 26.78C50.51 26.49 50.36 26.19 50.22 25.89C50.37 26.2 50.52 26.49 50.68 26.78Z" fill="#FFCE00"/>
<path d="M50.23 15.74C50.37 15.44 50.52 15.14 50.69 14.85C50.52 15.14 50.37 15.44 50.23 15.74Z" fill="#FFCE00"/>
<path d="M90.88 32.9V88.39C91.91 88.27 92.96 88.2 94.02 88.17V32.9V21.76H78V24.9H90.89V32.9H90.88Z" fill="#FFCE00"/>
<path d="M75.49 26.79H71.09V32.9H75.49V26.79Z" fill="#FFCE00"/>
<path d="M81.64 182.87C80.95 182.87 80.38 182.31 80.38 181.61C80.38 180.92 80.94 180.35 81.64 180.35H89V155.21C73.14 152.44 61.04 138.57 61.04 121.93C61.04 105.29 73.14 91.43 89 88.65V32.9V26.79H78V32.9H82.84V61.36C82.84 63.13 81.84 64.75 80.24 65.49C55.47 77.04 37.21 115.36 37.21 142.17C37.21 168.42 54.73 190.57 78.72 197.59L94.97 187.89V182.86H81.64V182.87ZM65.31 174.71C59.41 174.71 54.63 169.93 54.63 164.03C54.63 158.13 59.41 153.35 65.31 153.35C71.21 153.35 75.99 158.13 75.99 164.03C75.99 169.92 71.21 174.71 65.31 174.71Z" fill="#FFCE00"/>
<path d="M61.66 8.73999H61.18C56.68 8.73999 52.76 11.2 50.68 14.85H61.66V8.73999Z" fill="#FFCE00"/>
<path d="M68.58 26.79H64.18V32.9H68.58V26.79Z" fill="#FFCE00"/>
<path d="M61.66 16.73H49.82C49.46 17.72 49.23 18.78 49.14 19.87H61.66V16.73Z" fill="#FFCE00"/>
<path d="M50.68 26.79C52.76 30.44 56.68 32.9 61.18 32.9H61.66V26.79H50.68Z" fill="#FFCE00"/>
<path d="M61.66 21.76H49.14C49.22 22.86 49.46 23.91 49.82 24.9H61.66V21.76Z" fill="#FFCE00"/>
<path d="M75.49 8.73999H71.09V14.85H75.49V8.73999Z" fill="#FFCE00"/>
<path d="M68.58 16.73H64.18V19.87H68.58V16.73Z" fill="#FFCE00"/>
<path d="M68.58 8.73999H64.18V14.85H68.58V8.73999Z" fill="#FFCE00"/>
<path d="M68.58 21.76H64.18V24.9H68.58V21.76Z" fill="#FFCE00"/>
<path d="M94.96 187.9L103.39 182.87H94.96V187.9Z" fill="#F9B835"/>
<path d="M109.69 65.5C108.09 64.75 107.09 63.13 107.09 61.37V20.87C107.09 14.18 101.66 8.74998 94.97 8.74998V14.86H100.94V31.29V88.71C116.67 91.59 128.63 105.39 128.63 121.94C128.63 138.49 116.67 152.29 100.94 155.17V180.36H107.61L118.98 173.58C115.47 171.83 113.06 168.22 113.06 164.03C113.06 158.13 117.84 153.35 123.74 153.35C129.64 153.35 134.42 158.13 134.42 164.03C134.42 164.15 134.41 164.26 134.4 164.38L151.46 154.2C152.28 150.32 152.72 146.3 152.72 142.17C152.72 115.36 134.45 77.04 109.69 65.5Z" fill="#F9B835"/>
<path d="M95.91 155.71V180.36H99.05V155.46C98.02 155.59 96.97 155.67 95.91 155.71Z" fill="#F9B835"/>
<path d="M95.91 19.88V32.85V88.18C96.97 88.21 98.02 88.3 99.05 88.42V32.16V16.73H94.96V19.87H95.91V19.88Z" fill="#F9B835"/>
<path d="M65.16 121.94C65.16 107.55 75.4 95.55 89 92.84V89.67C73.69 92.43 62.04 105.84 62.04 121.93C62.04 138.02 73.69 151.43 89 154.19V151.02C75.41 148.33 65.16 136.33 65.16 121.94Z" fill="white"/>
<path d="M90.88 154.49C91.91 154.61 92.96 154.69 94.02 154.72V151.6C92.96 151.57 91.91 151.49 90.88 151.35V154.49Z" fill="white"/>
<path d="M94.02 89.17C92.96 89.2 91.91 89.27 90.88 89.4V92.54C91.91 92.4 92.96 92.32 94.02 92.29V89.17Z" fill="white"/>
<path d="M90.88 155.49C91.91 155.61 92.96 155.68 94.02 155.71V154.71C92.96 154.68 91.91 154.61 90.88 154.48V155.49Z" fill="#FFB600"/>
<path d="M94.02 88.17C92.96 88.2 91.91 88.27 90.88 88.39V89.4C91.91 89.28 92.96 89.2 94.02 89.17V88.17Z" fill="#FFB600"/>
<path d="M89 154.2C73.69 151.44 62.04 138.03 62.04 121.94C62.04 105.85 73.69 92.44 89 89.68V88.66C73.14 91.43 61.04 105.3 61.04 121.94C61.04 138.58 73.14 152.44 89 155.22V154.2Z" fill="#FFB600"/>
<path d="M123.73 153.35C117.83 153.35 113.05 158.13 113.05 164.03C113.05 168.22 115.46 171.83 118.97 173.58L134.39 164.38C134.39 164.26 134.41 164.15 134.41 164.03C134.41 158.13 129.63 153.35 123.73 153.35Z" fill="#7A5537"/>
<path d="M95.91 92.29C96.97 92.33 98.02 92.42 99.05 92.57V89.43C98.02 89.3 96.97 89.21 95.91 89.18V92.29Z" fill="#EAEAEA"/>
<path d="M114.85 100.03C115.19 100.34 115.53 100.66 115.86 100.99C115.87 101 115.88 101.01 115.89 101.02C116.21 101.34 116.53 101.68 116.84 102.02C116.86 102.04 116.88 102.07 116.9 102.09C117.2 102.42 117.49 102.75 117.77 103.1C117.8 103.14 117.83 103.18 117.87 103.23C118.14 103.56 118.4 103.89 118.65 104.22C118.69 104.27 118.72 104.32 118.76 104.37C119 104.7 119.25 105.04 119.48 105.38C119.53 105.46 119.58 105.54 119.63 105.61C119.84 105.93 120.05 106.25 120.25 106.58C120.3 106.67 120.35 106.76 120.4 106.85C120.59 107.17 120.78 107.49 120.96 107.82C121.02 107.93 121.08 108.05 121.14 108.16C121.3 108.47 121.47 108.78 121.62 109.09C121.68 109.22 121.74 109.36 121.8 109.49C121.94 109.79 122.08 110.09 122.21 110.4C122.27 110.55 122.33 110.71 122.39 110.86C122.51 111.15 122.63 111.44 122.74 111.74C122.81 111.92 122.86 112.11 122.93 112.29C123.02 112.57 123.12 112.84 123.21 113.12C123.27 113.32 123.33 113.53 123.38 113.73C123.46 113.99 123.54 114.26 123.6 114.52C123.66 114.74 123.7 114.97 123.76 115.19C123.82 115.44 123.88 115.69 123.93 115.95C123.98 116.2 124.02 116.45 124.06 116.71C124.1 116.94 124.15 117.18 124.19 117.41C124.23 117.69 124.26 117.98 124.3 118.27C124.33 118.48 124.36 118.68 124.38 118.89C124.42 119.29 124.45 119.69 124.47 120.09C124.48 120.19 124.49 120.29 124.49 120.39C124.52 120.9 124.53 121.4 124.53 121.92C124.53 122.44 124.52 122.94 124.49 123.45C124.48 123.55 124.47 123.65 124.47 123.75C124.45 124.15 124.42 124.56 124.38 124.95C124.36 125.16 124.33 125.36 124.3 125.57C124.26 125.86 124.23 126.15 124.19 126.43C124.15 126.67 124.11 126.9 124.06 127.13C124.02 127.38 123.98 127.64 123.93 127.89C123.88 128.15 123.81 128.4 123.76 128.65C123.71 128.87 123.66 129.1 123.6 129.32C123.53 129.59 123.45 129.85 123.38 130.11C123.32 130.31 123.27 130.52 123.21 130.72C123.12 130.99 123.03 131.26 122.94 131.53C122.88 131.72 122.82 131.91 122.75 132.09C122.64 132.38 122.53 132.66 122.41 132.95C122.34 133.11 122.29 133.28 122.22 133.44C122.09 133.74 121.96 134.03 121.82 134.32C121.75 134.46 121.69 134.61 121.63 134.75C121.48 135.06 121.32 135.37 121.16 135.68C121.1 135.8 121.04 135.91 120.98 136.03C120.8 136.35 120.62 136.67 120.43 136.99C120.37 137.08 120.32 137.18 120.27 137.27C120.07 137.6 119.86 137.92 119.65 138.23C119.6 138.31 119.55 138.39 119.5 138.47C119.27 138.81 119.03 139.15 118.78 139.48C118.74 139.53 118.71 139.58 118.67 139.63C118.42 139.96 118.16 140.29 117.9 140.61C117.86 140.66 117.83 140.71 117.79 140.75C117.51 141.09 117.23 141.41 116.94 141.74C116.91 141.77 116.89 141.8 116.86 141.83C116.55 142.17 116.24 142.5 115.92 142.82C115.91 142.83 115.9 142.84 115.89 142.85C115.56 143.18 115.23 143.5 114.88 143.81C114.87 143.82 114.87 143.82 114.86 143.83C111.02 147.34 106.25 149.85 100.96 150.95V154.12C116.14 151.25 127.65 137.9 127.65 121.9C127.65 105.9 116.13 92.55 100.96 89.68V92.85C106.25 93.95 111.01 96.46 114.86 99.97C114.84 100.02 114.84 100.03 114.85 100.03Z" fill="#EAEAEA"/>
<path d="M95.91 154.71C96.97 154.68 98.02 154.59 99.05 154.46V151.32C98.02 151.47 96.97 151.56 95.91 151.6V154.71Z" fill="#EAEAEA"/>
<path d="M95.91 89.17C96.97 89.2 98.02 89.29 99.05 89.42V88.41C98.02 88.28 96.97 88.2 95.91 88.17V89.17Z" fill="#FF9700"/>
<path d="M100.93 89.72C116.11 92.59 127.62 105.94 127.62 121.94C127.62 137.94 116.1 151.29 100.93 154.16V155.18C116.66 152.3 128.62 138.5 128.62 121.95C128.62 105.4 116.66 91.6 100.93 88.72V89.72Z" fill="#FF9700"/>
<path d="M95.91 155.71C96.97 155.68 98.02 155.59 99.05 155.47V154.46C98.02 154.59 96.97 154.68 95.91 154.71V155.71Z" fill="#FF9700"/>
<path d="M75.197 168.105C77.4543 162.656 74.8665 156.408 69.417 154.151C63.9674 151.893 57.7198 154.481 55.4625 159.931C53.2052 165.38 55.793 171.628 61.2425 173.885C66.692 176.142 72.9397 173.555 75.197 168.105Z" fill="#916B49"/>
<path d="M94.02 180.36H90.88V181.62H89V180.36H81.64C80.95 180.36 80.38 180.92 80.38 181.62C80.38 182.31 80.94 182.88 81.64 182.88H94.96V181.62H94.02V180.36Z" fill="white"/>
<path d="M75.49 19.88H71.09V21.76H75.49V19.88Z" fill="white"/>
<path d="M94.02 32.9V88.17V89.17V92.29C94.29 92.28 94.56 92.27 94.83 92.27C94.87 92.27 94.91 92.27 94.96 92.27V32.9V19.88H78V21.76H94.03V32.9H94.02Z" fill="white"/>
<path d="M61.66 19.88H49.14C49.12 20.19 49.09 20.5 49.09 20.82C49.09 21.14 49.11 21.45 49.14 21.76H61.66V19.88Z" fill="white"/>
<path d="M68.58 19.88H64.18V21.76H68.58V19.88Z" fill="white"/>
<path d="M94.96 151.61C94.92 151.61 94.88 151.61 94.83 151.61C94.56 151.61 94.29 151.6 94.02 151.59V154.71V155.71V180.36V181.62H94.96V180.36V151.61Z" fill="white"/>
<path d="M61.66 24.9H49.82C49.94 25.22 50.07 25.54 50.21 25.85C50.22 25.86 50.22 25.87 50.23 25.89C50.37 26.19 50.52 26.49 50.69 26.78H61.67V24.9H61.66Z" fill="white"/>
<path d="M68.58 24.9H64.18V26.78H68.58V24.9Z" fill="white"/>
<path d="M75.49 24.9H71.09V26.78H75.49V24.9Z" fill="white"/>
<path d="M89 89.68V92.85C89.62 92.73 90.25 92.63 90.88 92.54V89.4V88.39V32.9V24.9H78V26.78H89V32.89V88.65V89.68Z" fill="white"/>
<path d="M90.88 181.62V180.36V155.49V154.48V151.34C90.25 151.26 89.62 151.16 89 151.03V154.2V155.22V180.36V181.62H90.88Z" fill="white"/>
<path d="M99.05 16.73V32.15V88.41V89.42V92.56C99.68 92.65 100.31 92.76 100.93 92.89V89.72V88.7V31.28V14.85H94.96V16.73H99.05Z" fill="#EAEAEA"/>
<path d="M100.93 154.15V150.98C100.31 151.11 99.68 151.22 99.05 151.31V154.45V155.46V180.36H100.93V155.17V154.15Z" fill="#EAEAEA"/>
<path d="M61.66 16.73V14.85H50.68C50.51 15.14 50.36 15.44 50.22 15.74C50.22 15.75 50.21 15.76 50.21 15.77V15.78C50.07 16.09 49.94 16.41 49.82 16.73H61.66Z" fill="white"/>
<path d="M68.58 14.85H64.18V16.73H68.58V14.85Z" fill="white"/>
<path d="M75.49 14.85H71.09V16.73H75.49V14.85Z" fill="white"/>
<path d="M94.96 14.85H78V16.73H94.96V14.85Z" fill="white"/>
<path d="M64.18 24.9V21.76V19.88V16.74V14.86V8.74998V5.53998C63.81 5.75998 63.38 5.88998 62.92 5.88998C62.46 5.88998 62.03 5.75998 61.66 5.53998V8.74998V14.86V16.74V19.88V21.76V24.9V26.78V32.89V35.74C62.03 35.52 62.46 35.39 62.92 35.39C63.38 35.39 63.81 35.52 64.18 35.74V32.89V26.78V24.9Z" fill="#F9B835"/>
<path d="M64.18 5.52998C64.93 5.08998 65.44 4.28999 65.44 3.36999C65.44 1.97999 64.31 0.859985 62.93 0.859985C61.54 0.859985 60.42 1.98999 60.42 3.36999C60.42 4.29999 60.93 5.09998 61.68 5.52998C62.05 5.74998 62.48 5.87998 62.94 5.87998C63.4 5.87998 63.8 5.73998 64.18 5.52998Z" fill="#916B49"/>
<path d="M61.66 35.75C60.91 36.19 60.4 36.99 60.4 37.91C60.4 39.3 61.52 40.42 62.91 40.42C64.3 40.42 65.42 39.29 65.42 37.91C65.42 36.98 64.91 36.18 64.16 35.75C63.79 35.53 63.36 35.4 62.9 35.4C62.44 35.4 62.03 35.53 61.66 35.75Z" fill="#7A5537"/>
<path d="M71.09 24.9V21.76V19.88V16.74V14.86V8.74998V5.53998C70.72 5.75998 70.29 5.88998 69.83 5.88998C69.37 5.88998 68.94 5.75998 68.57 5.53998V8.74998V14.86V16.74V19.88V21.76V24.9V26.78V32.89V35.74C68.94 35.52 69.37 35.39 69.83 35.39C70.29 35.39 70.72 35.52 71.09 35.74V32.89V26.78V24.9Z" fill="#F9B835"/>
<path d="M71.09 5.52998C71.84 5.08998 72.35 4.28999 72.35 3.36999C72.35 1.97999 71.23 0.859985 69.84 0.859985C68.45 0.859985 67.33 1.98999 67.33 3.36999C67.33 4.29999 67.84 5.09998 68.59 5.52998C68.96 5.74998 69.39 5.87998 69.85 5.87998C70.31 5.87998 70.71 5.73998 71.09 5.52998Z" fill="#916B49"/>
<path d="M68.57 35.75C67.82 36.19 67.31 36.99 67.31 37.91C67.31 39.3 68.44 40.42 69.82 40.42C71.21 40.42 72.33 39.29 72.33 37.91C72.33 36.98 71.82 36.18 71.07 35.75C70.7 35.53 70.27 35.4 69.81 35.4C69.35 35.4 68.94 35.53 68.57 35.75Z" fill="#7A5537"/>
<path d="M78 24.9V21.76V19.88V16.74V14.86V8.74998V5.53998C77.63 5.75998 77.2 5.88998 76.74 5.88998C76.28 5.88998 75.85 5.75998 75.48 5.53998V8.74998V14.86V16.74V19.88V21.76V24.9V26.78V32.89V35.74C75.85 35.52 76.28 35.39 76.74 35.39C77.2 35.39 77.63 35.52 78 35.74V32.89V26.78V24.9Z" fill="#F9B835"/>
<path d="M78 5.52998C78.75 5.08998 79.26 4.28999 79.26 3.36999C79.26 1.97999 78.14 0.859985 76.75 0.859985C75.36 0.859985 74.24 1.98999 74.24 3.36999C74.24 4.29999 74.75 5.09998 75.5 5.52998C75.87 5.74998 76.3 5.87998 76.76 5.87998C77.22 5.87998 77.62 5.73998 78 5.52998Z" fill="#916B49"/>
<path d="M75.48 35.75C74.73 36.19 74.22 36.99 74.22 37.91C74.22 39.3 75.34 40.42 76.73 40.42C78.12 40.42 79.24 39.29 79.24 37.91C79.24 36.98 78.73 36.18 77.98 35.75C77.61 35.53 77.18 35.4 76.72 35.4C76.26 35.4 75.85 35.53 75.48 35.75Z" fill="#7A5537"/>
<path d="M95.91 92.29V89.17V88.17V32.84V19.88H94.96V32.9V92.27C95.28 92.27 95.59 92.28 95.91 92.29Z" fill="#EAEAEA"/>
<path d="M95.91 154.71V151.59C95.6 151.6 95.28 151.61 94.96 151.61V180.36H95.91V155.71V154.71Z" fill="#EAEAEA"/>
<path d="M124.36 124.97C124.34 125.18 124.31 125.38 124.28 125.59C124.3 125.38 124.33 125.18 124.36 124.97Z" fill="#916B49"/>
<path d="M123.91 127.91C123.86 128.17 123.79 128.42 123.74 128.67C123.79 128.42 123.86 128.17 123.91 127.91Z" fill="#916B49"/>
<path d="M124.45 120.11C124.46 120.21 124.47 120.31 124.47 120.41C124.47 120.31 124.45 120.21 124.45 120.11Z" fill="#916B49"/>
<path d="M124.47 123.47C124.46 123.57 124.45 123.67 124.45 123.77C124.45 123.67 124.47 123.57 124.47 123.47Z" fill="#916B49"/>
<path d="M124.17 126.45C124.13 126.69 124.09 126.92 124.04 127.15C124.08 126.92 124.13 126.69 124.17 126.45Z" fill="#916B49"/>
<path d="M118.64 139.66C118.39 139.99 118.13 140.32 117.87 140.64C118.13 140.32 118.39 139.99 118.64 139.66Z" fill="#916B49"/>
<path d="M123.73 115.21C123.79 115.46 123.85 115.71 123.9 115.97C123.86 115.71 123.79 115.46 123.73 115.21Z" fill="#916B49"/>
<path d="M124.28 118.29C124.31 118.5 124.34 118.7 124.36 118.91C124.33 118.7 124.3 118.49 124.28 118.29Z" fill="#916B49"/>
<path d="M124.04 116.72C124.08 116.95 124.13 117.19 124.17 117.42C124.13 117.19 124.08 116.96 124.04 116.72Z" fill="#916B49"/>
<path d="M123.18 130.75C123.09 131.02 123 131.29 122.91 131.56C123 131.29 123.09 131.02 123.18 130.75Z" fill="#916B49"/>
<path d="M120.23 137.3C120.03 137.63 119.82 137.95 119.61 138.26C119.82 137.94 120.03 137.62 120.23 137.3Z" fill="#916B49"/>
<path d="M121.59 134.78C121.44 135.09 121.28 135.4 121.12 135.71C121.28 135.4 121.44 135.1 121.59 134.78Z" fill="#916B49"/>
<path d="M123.58 129.34C123.51 129.61 123.43 129.87 123.36 130.13C123.43 129.87 123.51 129.61 123.58 129.34Z" fill="#916B49"/>
<path d="M119.46 138.5C119.23 138.84 118.99 139.18 118.74 139.51C118.99 139.18 119.23 138.84 119.46 138.5Z" fill="#916B49"/>
<path d="M120.94 136.06C120.76 136.38 120.58 136.7 120.39 137.02C120.58 136.7 120.77 136.38 120.94 136.06Z" fill="#916B49"/>
<path d="M122.18 133.47C122.05 133.77 121.92 134.06 121.78 134.35C121.92 134.06 122.06 133.77 122.18 133.47Z" fill="#916B49"/>
<path d="M123.35 113.74C123.43 114 123.51 114.27 123.57 114.53C123.51 114.27 123.43 114.01 123.35 113.74Z" fill="#916B49"/>
<path d="M122.71 132.13C122.6 132.42 122.49 132.7 122.37 132.99C122.49 132.7 122.61 132.42 122.71 132.13Z" fill="#916B49"/>
<path d="M116.83 141.85C116.52 142.19 116.21 142.52 115.89 142.84C116.21 142.52 116.53 142.19 116.83 141.85Z" fill="#916B49"/>
<path d="M115.89 101.03C116.21 101.35 116.53 101.69 116.84 102.03C116.53 101.69 116.21 101.36 115.89 101.03Z" fill="#916B49"/>
<path d="M117.86 103.23C118.13 103.56 118.39 103.89 118.64 104.22C118.39 103.88 118.13 103.55 117.86 103.23Z" fill="#916B49"/>
<path d="M116.89 102.1C117.19 102.43 117.48 102.76 117.76 103.11C117.48 102.76 117.19 102.42 116.89 102.1Z" fill="#916B49"/>
<path d="M114.85 100.03C115.19 100.34 115.53 100.66 115.86 100.99C115.53 100.67 115.19 100.35 114.85 100.03Z" fill="#916B49"/>
<path d="M94.96 151.61C95.28 151.61 95.59 151.6 95.91 151.59C96.97 151.55 98.02 151.46 99.05 151.31C99.68 151.22 100.31 151.11 100.93 150.98C106.22 149.88 110.98 147.37 114.83 143.86C109.59 148.65 102.62 151.58 94.96 151.61Z" fill="#916B49"/>
<path d="M122.9 112.3C122.99 112.58 123.09 112.85 123.18 113.13C123.09 112.85 122.99 112.58 122.9 112.3Z" fill="#916B49"/>
<path d="M115.86 142.88C115.53 143.21 115.2 143.53 114.85 143.84C115.19 143.53 115.53 143.21 115.86 142.88Z" fill="#916B49"/>
<path d="M117.76 140.78C117.48 141.12 117.2 141.44 116.91 141.77C117.2 141.44 117.48 141.11 117.76 140.78Z" fill="#916B49"/>
<path d="M121.78 109.5C121.92 109.8 122.06 110.1 122.19 110.41C122.06 110.1 121.91 109.8 121.78 109.5Z" fill="#916B49"/>
<path d="M121.12 108.16C121.28 108.47 121.44 108.78 121.6 109.09C121.44 108.78 121.28 108.47 121.12 108.16Z" fill="#916B49"/>
<path d="M122.37 110.87C122.49 111.16 122.61 111.45 122.72 111.75C122.61 111.46 122.49 111.16 122.37 110.87Z" fill="#916B49"/>
<path d="M120.38 106.85C120.57 107.17 120.76 107.49 120.94 107.82C120.76 107.49 120.57 107.17 120.38 106.85Z" fill="#916B49"/>
<path d="M118.74 104.37C118.98 104.7 119.23 105.04 119.46 105.38C119.23 105.04 118.99 104.7 118.74 104.37Z" fill="#916B49"/>
<path d="M119.61 105.61C119.82 105.93 120.03 106.25 120.23 106.58C120.03 106.25 119.82 105.93 119.61 105.61Z" fill="#916B49"/>
<path d="M94.83 92.27C94.56 92.27 94.29 92.28 94.02 92.29C92.96 92.32 91.91 92.4 90.88 92.54C90.25 92.62 89.62 92.72 89 92.85C75.41 95.56 65.16 107.56 65.16 121.95C65.16 136.34 75.4 148.34 89 151.05C89.62 151.17 90.25 151.27 90.88 151.36C91.91 151.5 92.96 151.58 94.02 151.61C94.29 151.62 94.56 151.63 94.83 151.63C94.87 151.63 94.91 151.63 94.96 151.63V92.29C94.92 92.27 94.88 92.27 94.83 92.27Z" fill="#916B49"/>
<path d="M94.96 92.27C102.61 92.3 109.58 95.23 114.83 100.02C110.99 96.51 106.22 94 100.93 92.9C100.31 92.77 99.68 92.66 99.05 92.57C98.02 92.42 96.97 92.33 95.91 92.29C95.59 92.28 95.28 92.27 94.96 92.27Z" fill="#916B49"/>
<path d="M114.83 143.86C114.84 143.85 114.84 143.85 114.85 143.84C115.19 143.53 115.53 143.21 115.86 142.88C115.87 142.87 115.88 142.86 115.89 142.85C116.21 142.53 116.53 142.19 116.83 141.86C116.86 141.83 116.88 141.8 116.91 141.77C117.2 141.45 117.49 141.12 117.76 140.78C117.8 140.73 117.83 140.68 117.87 140.64C118.13 140.32 118.39 139.99 118.64 139.66C118.68 139.61 118.71 139.56 118.75 139.51C118.99 139.18 119.24 138.84 119.47 138.5C119.52 138.42 119.57 138.34 119.62 138.26C119.83 137.94 120.04 137.62 120.24 137.3C120.3 137.21 120.35 137.11 120.4 137.02C120.59 136.7 120.77 136.39 120.95 136.06C121.01 135.95 121.07 135.83 121.13 135.71C121.29 135.4 121.45 135.1 121.6 134.78C121.67 134.64 121.73 134.49 121.79 134.35C121.93 134.06 122.06 133.76 122.19 133.47C122.26 133.31 122.32 133.14 122.38 132.98C122.49 132.7 122.61 132.41 122.72 132.12C122.79 131.93 122.85 131.74 122.91 131.56C123 131.29 123.1 131.02 123.18 130.75C123.24 130.55 123.3 130.34 123.35 130.14C123.43 129.88 123.51 129.61 123.57 129.35C123.63 129.13 123.67 128.9 123.73 128.68C123.79 128.43 123.85 128.18 123.9 127.92C123.95 127.67 123.99 127.42 124.03 127.16C124.07 126.93 124.12 126.69 124.16 126.46C124.2 126.18 124.23 125.89 124.27 125.6C124.3 125.39 124.33 125.19 124.35 124.98C124.39 124.58 124.42 124.18 124.44 123.78C124.45 123.68 124.46 123.58 124.46 123.48C124.49 122.97 124.5 122.47 124.5 121.95C124.5 121.43 124.49 120.93 124.46 120.42C124.45 120.32 124.44 120.22 124.44 120.12C124.42 119.72 124.39 119.31 124.35 118.92C124.33 118.71 124.3 118.51 124.27 118.3C124.23 118.01 124.2 117.72 124.16 117.44C124.12 117.2 124.08 116.97 124.03 116.74C123.99 116.49 123.95 116.23 123.9 115.98C123.85 115.72 123.78 115.47 123.73 115.22C123.68 115 123.63 114.77 123.57 114.55C123.5 114.28 123.42 114.02 123.35 113.76C123.29 113.56 123.24 113.35 123.18 113.15C123.09 112.87 123 112.6 122.9 112.32C122.84 112.14 122.78 111.95 122.71 111.77C122.6 111.47 122.48 111.18 122.36 110.89C122.3 110.74 122.24 110.58 122.18 110.43C122.05 110.12 121.91 109.82 121.77 109.52C121.71 109.39 121.65 109.25 121.59 109.12C121.44 108.8 121.28 108.5 121.11 108.19C121.05 108.08 121 107.96 120.93 107.85C120.75 107.52 120.56 107.2 120.37 106.88C120.32 106.79 120.27 106.7 120.22 106.61C120.02 106.28 119.81 105.96 119.6 105.64C119.55 105.56 119.5 105.48 119.45 105.41C119.22 105.07 118.98 104.73 118.73 104.4C118.69 104.35 118.66 104.3 118.62 104.25C118.37 103.91 118.11 103.58 117.84 103.26C117.81 103.22 117.78 103.18 117.74 103.13C117.46 102.79 117.17 102.45 116.87 102.12C116.85 102.1 116.83 102.07 116.81 102.05C116.5 101.71 116.19 101.38 115.86 101.05C115.85 101.04 115.84 101.03 115.83 101.02C115.5 100.69 115.17 100.37 114.82 100.06C114.81 100.05 114.81 100.05 114.8 100.04C109.55 95.25 102.58 92.32 94.93 92.29V151.63C102.62 151.58 109.59 148.65 114.83 143.86Z" fill="#7A5537"/>
<path d="M99.05 180.36H95.91H94.96V181.62V182.87H103.39L107.6 180.36H100.93H99.05Z" fill="#EAEAEA"/>
</svg>
