<?xml version="1.0" encoding="iso-8859-1"?>
<!-- Generator: Adobe Illustrator 19.0.0, SVG Export Plug-In . SVG Version: 6.00 Build 0)  -->
<svg version="1.1" id="Layer_1" xmlns="http://www.w3.org/2000/svg" xmlns:xlink="http://www.w3.org/1999/xlink" x="0px" y="0px"
	 viewBox="0 0 512 512" style="enable-background:new 0 0 512 512;" xml:space="preserve">
<path style="fill:#FFD592;" d="M389.717,431.392c-89.11,88.833-234.012,88.917-323.017,0.188
	c-89.006-88.729-88.923-233.182,0.186-322.015c40.982-40.853,95.482-64.486,153.465-66.551
	c57.673-2.053,113.398,17.361,156.91,54.667c8.361,7.169,13.343,17.485,13.749,28.48c0.409,10.99-3.798,21.659-11.604,29.441
	l-37.777,37.663c-11.139,11.1-11.149,29.159-0.024,40.251c11.124,11.09,29.24,11.078,40.378-0.024l6.43-6.41
	c10.937-10.905,27.231-14.485,41.734-9.171c14.506,5.312,24.581,18.549,25.816,33.912
	C461.323,318.627,437.178,384.078,389.717,431.392z"/>
<path style="fill:#D644A4;" d="M312.729,103.163c15.089,13.363,16.447,36.408,3.019,51.471
	c-13.422,15.064-36.537,16.437-51.626,3.073c-15.093-13.366-16.447-36.413-3.023-51.478
	C274.524,91.168,297.639,89.794,312.729,103.163z"/>
<path style="opacity:0.1;enable-background:new    ;" d="M280.807,157.707c-15.092-13.366-16.447-36.413-3.023-51.478
	c5.229-5.866,11.929-9.645,19.051-11.296c-12.651-2.955-26.491,0.925-35.737,11.296c-13.425,15.065-12.071,38.112,3.023,51.478
	c9.212,8.16,21.414,10.815,32.577,8.225C290.98,164.598,285.504,161.868,280.807,157.707z"/>
<path style="fill:#FF8828;" d="M169.214,92.703c20.161-1.197,37.464,14.125,38.641,34.228c1.18,20.101-14.21,37.37-34.371,38.567
	c-20.165,1.201-37.464-14.121-38.646-34.227C133.658,111.17,149.05,93.902,169.214,92.703z"/>
<path style="opacity:0.1;enable-background:new    ;" d="M150.529,131.272c-1.067-18.167,11.401-34.017,28.697-37.784
	c-3.211-0.702-6.567-0.99-10.011-0.785c-20.165,1.199-35.556,18.468-34.375,38.568c1.183,20.106,18.481,35.427,38.646,34.227
	c1.939-0.115,3.834-0.382,5.675-0.784C163.573,161.315,151.509,147.944,150.529,131.272z"/>
<path style="fill:#22E0C3;" d="M60.2,186.5c13.424-15.062,36.536-16.439,51.63-3.073c15.091,13.368,16.444,36.412,3.019,51.476
	c-13.424,15.063-36.536,16.435-51.63,3.07C48.127,224.609,46.777,201.562,60.2,186.5z"/>
<path style="opacity:0.1;enable-background:new    ;" d="M80.183,237.972c-15.091-13.363-16.441-36.409-3.019-51.472
	c5.193-5.826,11.838-9.596,18.906-11.265c-12.688-3.015-26.593,0.855-35.87,11.265c-13.424,15.062-12.074,38.108,3.019,51.472
	c9.256,8.196,21.526,10.841,32.728,8.194C90.276,244.82,84.846,242.101,80.183,237.972z"/>
<path style="fill:#4351B5;" d="M49.546,329.598c-1.18-20.099,14.207-37.368,34.373-38.568c20.163-1.197,37.464,14.127,38.643,34.228
	c1.18,20.103-14.21,37.368-34.373,38.57C68.025,365.027,50.724,349.704,49.546,329.598z"/>
<path style="opacity:0.1;enable-background:new    ;" d="M65.893,329.598c-1.06-18.054,11.251-33.816,28.382-37.708
	c-3.314-0.758-6.788-1.072-10.355-0.86c-20.165,1.201-35.552,18.47-34.373,38.568c1.178,20.105,18.479,35.429,38.643,34.23
	c2.051-0.122,4.048-0.419,5.987-0.86C78.756,359.446,66.861,346.146,65.893,329.598z"/>
<path style="fill:#543B93;" d="M143.492,438.183c-15.089-13.368-16.445-36.411-3.022-51.476
	c13.425-15.062,36.542-16.437,51.632-3.071c15.091,13.368,16.444,36.409,3.021,51.472
	C181.7,450.174,158.584,451.551,143.492,438.183z"/>
<path style="fill:#FFFFFF;" d="M287.009,448.638c-20.162,1.197-37.462-14.122-38.643-34.226
	c-1.178-20.1,14.211-37.368,34.374-38.568c20.16-1.196,37.463,14.126,38.641,34.226C322.56,430.172,307.171,447.44,287.009,448.638z
	"/>
<path style="fill:#EF3E3B;" d="M396.023,354.843c-13.424,15.062-36.538,16.439-51.63,3.071
	c-15.091-13.368-16.444-36.413-3.019-51.474c13.424-15.063,36.539-16.437,51.63-3.07
	C408.097,316.735,409.447,339.784,396.023,354.843z"/>
<path style="opacity:0.1;enable-background:new    ;" d="M160.362,438.183c-15.089-13.368-16.445-36.411-3.022-51.476
	c5.205-5.84,11.87-9.613,18.957-11.277c-12.675-2.993-26.559,0.88-35.825,11.277c-13.424,15.065-12.069,38.107,3.022,51.476
	c9.24,8.185,21.484,10.831,32.674,8.204C170.479,445.046,165.035,442.323,160.362,438.183z"/>
<path style="opacity:0.1;enable-background:new    ;" d="M265.234,414.412c-1.052-17.965,11.133-33.658,28.132-37.648
	c-3.396-0.804-6.963-1.138-10.627-0.921c-20.164,1.201-35.552,18.469-34.374,38.568c1.183,20.104,18.482,35.423,38.643,34.226
	c2.141-0.128,4.222-0.446,6.242-0.92C277.963,444.103,266.202,430.862,265.234,414.412z"/>
<path style="opacity:0.1;enable-background:new    ;" d="M361.261,357.915c-15.091-13.368-16.444-36.413-3.019-51.474
	c5.204-5.841,11.868-9.613,18.954-11.277c-12.675-2.993-26.558,0.879-35.823,11.277c-13.426,15.061-12.074,38.105,3.019,51.474
	c9.241,8.185,21.486,10.831,32.674,8.207C371.38,364.777,365.936,362.055,361.261,357.915z"/>
<rect x="413.262" y="72.939" transform="matrix(0.7071 -0.7071 0.7071 0.7071 68.2383 336.3516)" style="fill:#22E0C3;" width="53.739" height="25.732"/>
<g>
	<path style="fill:#38CCAA;" d="M464.258,79.867l42.811-42.811c5.886-5.886,6.608-14.796,1.604-19.8
		c-5.004-5.004-13.915-4.282-19.8,1.604l-42.811,42.808L464.258,79.867z"/>
	<path style="fill:#38CCAA;" d="M322.3,168.968l1.73,1.728c-0.488,0.541-0.983,1.073-1.473,1.612l31.865,31.865
		c0.539-0.49,1.071-0.985,1.612-1.473l0.927,0.927c27.711-30.576,54.067-62.394,78.939-95.402l-18.198-18.196
		C384.696,114.901,352.876,141.257,322.3,168.968z"/>
</g>
<path style="fill:#B59472;" d="M281,281.209c0.449,0.451,0.606,1.122,0.414,1.753c-3.982,12.843-14.173,24.502-31.155,35.636
	c-14.637,9.6-32.546,17.649-48.348,24.752c-12.645,5.683-24.59,11.049-33.428,16.494c-0.711,0.441-1.61,0.349-2.175-0.22
	c-0.569-0.567-0.661-1.465-0.223-2.178c5.445-8.839,10.813-20.782,16.496-33.426c7.102-15.802,15.151-33.711,24.752-48.35
	c11.137-16.982,22.793-27.174,35.636-31.153c0.629-0.194,1.302-0.037,1.753,0.414L281,281.209z"/>
<path style="opacity:0.1;enable-background:new    ;" d="M194.978,324.005c7.102-15.804,15.153-33.713,24.752-48.348
	c8.839-13.479,18.01-22.665,27.837-27.88l-2.845-2.845c-0.451-0.451-1.124-0.608-1.753-0.414
	c-12.843,3.98-24.5,14.172-35.636,31.153c-9.601,14.639-17.649,32.547-24.752,48.35c-5.683,12.645-11.051,24.587-16.496,33.426
	c-0.439,0.713-0.347,1.61,0.223,2.178c0.565,0.569,1.465,0.661,2.175,0.22c3.696-2.276,7.953-4.539,12.558-6.816
	C185.621,344.804,190.186,334.666,194.978,324.005z"/>
<g>
	<path style="fill:#967659;" d="M264.78,264.99l-12.551,12.551c-3.196,3.194-3.196,8.374,0,11.569c3.194,3.194,8.374,3.194,11.567,0
		l12.551-12.553L264.78,264.99z"/>
	<path style="fill:#967659;" d="M249.371,249.582l-22.577,22.575c-3.194,3.196-3.194,8.374,0,11.567
		c3.194,3.196,8.374,3.196,11.567,0l22.577-22.576L249.371,249.582z"/>
</g>
<path style="fill:#E5E5E5;" d="M280.774,281.314c20.088-18.908,39.586-38.434,58.495-58.516l-36.135-36.137
	c-20.086,18.908-39.61,38.408-58.521,58.493L280.774,281.314z"/>
<path style="fill:#D1D3D4;" d="M248.196,241.39l36.345,36.343c25.065-23.776,49.226-48.496,72.426-74.1l-34.672-34.672
	C296.692,192.164,271.974,216.325,248.196,241.39z"/>
<g>
	<path style="fill:#E5E5E5;" d="M301.637,261.219c5.293-5.198,10.537-10.441,15.742-15.723l-36.947-36.947
		c-5.282,5.208-10.524,10.451-15.723,15.742L301.637,261.219z"/>
	<path style="fill:#E5E5E5;" d="M329.95,232.594c5.139-5.355,10.226-10.753,15.277-16.188l-35.704-35.704
		c-5.435,5.051-10.832,10.139-16.185,15.277L329.95,232.594z"/>
</g>
<path style="opacity:0.1;enable-background:new    ;" d="M244.615,245.156l8.21,8.21c53.149-56.457,111.057-108.384,173.087-155.129
	l-8.21-8.208C355.67,136.771,297.764,188.701,244.615,245.156z"/>
<path style="fill:#E5E5E5;" d="M293.008,282.312c-3.102,3.102-8.135,3.104-11.237,0l-38.155-38.153
	c-3.102-3.104-3.102-8.135,0-11.239c3.104-3.104,8.135-3.104,11.239,0l38.153,38.153
	C296.113,274.178,296.113,279.209,293.008,282.312z"/>
<path style="opacity:0.1;enable-background:new    ;" d="M243.616,232.921c-3.102,3.104-3.102,8.135,0,11.239l8.916,8.914
	c-3.104-3.104-3.104-8.135-0.002-11.239c3.104-3.104,8.135-3.104,11.239,0l-8.914-8.914
	C251.752,229.817,246.721,229.817,243.616,232.921z"/>
<g style="opacity:0.1;">
	<path d="M95.88,431.58C6.874,342.851,6.957,198.399,96.066,109.565c39.486-39.362,91.523-62.728,147.133-66.231
		c-7.566-0.475-15.189-0.592-22.847-0.321c-57.983,2.066-112.483,25.698-153.465,66.551
		c-89.108,88.833-89.191,233.286-0.186,322.015c48.169,48.019,112.708,70.011,175.916,66.017
		C189.133,494.21,136.644,472.217,95.88,431.58z"/>
</g>
<g>
</g>
<g>
</g>
<g>
</g>
<g>
</g>
<g>
</g>
<g>
</g>
<g>
</g>
<g>
</g>
<g>
</g>
<g>
</g>
<g>
</g>
<g>
</g>
<g>
</g>
<g>
</g>
<g>
</g>
</svg>
