<svg height="512pt" viewBox="-36 0 512 512" width="512pt" xmlns="http://www.w3.org/2000/svg"><path d="m433.5 256c0 117.636719-95.363281 213-213 213s-213-95.363281-213-213 95.363281-213 213-213 213 95.363281 213 213zm0 0" fill="#ffc843"/><path d="m433.5 256c0 117.640625-95.359375 213-213 213-5.101562 0-10.160156-.179688-15.171875-.53125 110.5625-7.789062 197.820313-99.929688 197.820313-212.46875s-87.257813-204.679688-197.820313-212.46875c5.011719-.351562 10.070313-.53125 15.171875-.53125 117.640625 0 213 95.359375 213 213zm0 0" fill="#e79732"/><path d="m160.027344 504.5c-20.792969 0-37.648438-16.855469-37.648438-37.648438v-4.953124c0-20.792969 16.855469-37.648438 37.648438-37.648438 20.792968 0 37.648437 16.855469 37.648437 37.648438v4.953124c0 20.792969-16.855469 37.648438-37.648437 37.648438zm0 0" fill="#fff"/><path d="m158.265625 138.582031c1.539063-14.296875 7.882813-27.511719 18.273437-37.757812 11.8125-11.648438 27.390626-18.027344 43.964844-18.027344.296875 0 .601563 0 .898438.003906 33.550781.46875 61.230468 28.144531 61.699218 61.699219.234376 16.90625-6.164062 32.839844-18.023437 44.859375-11.859375 12.027344-27.691406 18.652344-44.582031 18.652344l-.429688-.003907c-.222656 0-.445312 0-.667968 0-25.902344 0-50.222657 10.003907-68.554688 28.214844-18.355469 18.234375-28.464844 42.523438-28.464844 68.398438v72.949218c0 5.523438 4.476563 10 10 10h55.292969c5.523437 0 10-4.476562 10-10v-72.40625c0-5.816406 2.15625-11.507812 6.304687-15.589843 4.113282-4.050781 9.585938-6.273438 15.34375-6.273438h.148438l1.027344.007813c37.199218 0 72.070312-14.589844 98.195312-41.074219 26.117188-26.484375 40.214844-61.566406 39.695313-98.78125-.5-35.972656-14.871094-69.878906-40.464844-95.472656s-59.5-39.964844-95.472656-40.464844c-.664063-.007813-1.320313-.015625-1.980469-.015625-36.476562 0-70.785156 14.058594-96.800781 39.714844-24.859375 24.515625-39.234375 56.746094-40.90625 91.367187v23.117188c0 5.523437 4.476562 10 10 10h55.492187c5.519532 0 9.996094-4.472657 10-9.996094zm0 0" fill="#fff"/><path d="m361.238281 405.726562c-38.25 35.96875-88.230469 55.773438-140.738281 55.773438-5.109375 0-10.253906-.191406-15.351562-.570312-.515626-24.445313-20.550782-44.179688-45.121094-44.179688-15.566406 0-29.320313 7.921875-37.4375 19.945312-31.253906-16.96875-57.660156-41.777343-76.546875-72.035156-20.308594-32.535156-31.042969-70.109375-31.042969-108.660156 0-57.363281 24.152344-111.898438 65.652344-150.53125-3.015625 10.585938-4.839844 21.5625-5.382813 32.753906-.003906.117188-.007812.238282-.007812.359375v23.117188c0 9.648437 7.851562 17.5 17.5 17.5h55.496093c9.644532 0 17.492188-7.847657 17.5-17.492188l.011719-22.710937c1.433594-12.546875 6.976563-23.894532 16.039063-32.835938 10.375-10.230468 24.117187-15.863281 38.695312-15.863281l.796875.003906c8.175781.113281 16.066407 2.039063 23.449219 5.71875 3.703125 1.847657 8.210938.34375 10.058594-3.363281s.34375-8.210938-3.363282-10.058594c-9.417968-4.695312-19.488281-7.148437-29.964843-7.296875l-.972657-.003906c-18.546874 0-36.03125 7.167969-49.230468 20.1875-11.648438 11.488281-18.726563 26.113281-20.464844 42.296875-.027344.265625-.042969.53125-.042969.796875l-.011719 23.121094c0 1.378906-1.121093 2.5-2.5 2.5h-55.496093c-1.375 0-2.5-1.121094-2.5-2.5v-22.933594c1.621093-32.597656 15.351562-63.207031 38.675781-86.214844 24.554688-24.214843 57.0625-37.550781 91.535156-37.550781.621094 0 1.242188.003906 1.875.015625 34.007813.472656 66.070313 14.0625 90.273438 38.265625 24.203125 24.207031 37.792968 56.265625 38.269531 90.277344.488281 35.191406-12.84375 68.367187-37.539063 93.40625-24.703124 25.050781-57.675781 38.84375-92.808593 38.84375l-1.222657-.007813c-7.765624 0-15.082031 2.992188-20.605468 8.429688-5.425782 5.34375-8.539063 12.972656-8.539063 20.9375v72.402343c0 1.378907-1.125 2.5-2.5 2.5h-55.296875c-1.378906 0-2.5-1.121093-2.5-2.5v-72.949218c0-23.859375 9.324219-46.261719 26.25-63.074219 16.902344-16.789063 39.371094-26.039063 63.269532-26.039063l1.101562.003907c18.910156 0 36.640625-7.414063 49.917969-20.882813 13.277343-13.460937 20.445312-31.300781 20.179687-50.230468-.183594-13.347657-4.242187-26.34375-11.734375-37.585938-2.300781-3.445312-6.957031-4.375-10.402343-2.078125-3.445313 2.296875-4.375 6.953125-2.078126 10.398437 5.886719 8.832032 9.074219 19.023438 9.21875 29.472657.207032 14.886719-5.425781 28.910156-15.859374 39.492187-10.441407 10.585938-24.378907 16.414063-39.207032 16.414063l-1.132812-.003907c-27.886719 0-54.113282 10.796876-73.84375 30.394532-19.785156 19.65625-30.679688 45.835937-30.679688 73.722656v72.945312c0 9.652344 7.851563 17.5 17.5 17.5h55.296875c9.648438 0 17.5-7.847656 17.5-17.5v-72.402343c0-3.96875 1.480469-7.703125 4.0625-10.246094 2.699219-2.65625 6.277344-4.117187 10.082031-4.117187l1.179688.003906c39.21875 0 75.988281-15.378906 103.53125-43.308594 27.539062-27.921875 42.402344-64.910156 41.859375-104.148438-.183594-12.992187-2.082031-25.726562-5.578125-37.941406 37.007812 34.351563 60.269531 81.1875 64.835938 131.933594.351562 3.898438 3.621093 6.828125 7.460937 6.828125.226563 0 .453125-.011719.679687-.03125 4.125-.371094 7.171876-4.015625 6.800782-8.140625-5.753906-63.933594-39.132813-122.085938-91.578125-159.546875-.015625-.011719-.03125-.019531-.046875-.03125-6.648438-12.253906-15.105469-23.617187-25.234375-33.746094-26.984375-26.984375-62.738281-42.132812-100.667969-42.660156-.699219-.01171875-1.394531-.015625-2.089844-.015625-38.441406 0-74.6875 14.871094-102.070312 41.871094-10.449219 10.308594-19.167969 21.988281-25.984375 34.632812-27.882813 19.929688-51.050781 46.425782-67.023438 76.671875-16.613281 31.460938-25.394531 67.015625-25.394531 102.824219 0 41.363281 11.519531 81.683594 33.320312 116.601562 20.449219 32.761719 49.117188 59.5625 83.054688 77.777344-.972656 3.679688-1.496094 7.539063-1.496094 11.519532v4.953124c0 24.894532 20.253906 45.148438 45.148438 45.148438 21.792968 0 40.027344-15.523438 44.234375-36.089844 5.390625.390625 10.832031.589844 16.238281.589844 56.34375 0 109.972656-21.253906 151.011719-59.84375 3.019531-2.839844 3.164062-7.585938.328125-10.601562-2.839844-3.019532-7.585938-3.164063-10.601563-.328126zm-171.0625 61.125c0 16.625-13.527343 30.148438-30.148437 30.148438-16.625 0-30.148438-13.523438-30.148438-30.148438v-4.953124c0-16.621094 13.523438-30.144532 30.148438-30.144532 16.621094 0 30.148437 13.523438 30.148437 30.144532zm0 0" fill="#474d54"/><path d="m433.546875 261.84375c-4.144531-.265625-7.691406 2.890625-7.949219 7.023438-2.5625 41.5-17.460937 80.765624-43.082031 113.550781-2.546875 3.265625-1.96875 7.980469 1.292969 10.527343 1.371094 1.074219 3 1.589844 4.613281 1.589844 2.230469 0 4.4375-.988281 5.914063-2.878906 27.496093-35.1875 43.480468-77.328125 46.234374-121.863281.253907-4.136719-2.890624-7.691407-7.023437-7.949219zm0 0" fill="#474d54"/><g fill="#fff"><path d="m238.726562 325.273438h20.644532c4.144531 0 7.5-3.355469 7.5-7.5 0-4.140626-3.355469-7.5-7.5-7.5h-20.644532c-4.144531 0-7.5 3.359374-7.5 7.5 0 4.144531 3.355469 7.5 7.5 7.5zm0 0"/><path d="m309.726562 337.929688h-71c-4.144531 0-7.5 3.359374-7.5 7.5 0 4.144531 3.355469 7.5 7.5 7.5h71c4.140626 0 7.5-3.355469 7.5-7.5 0-4.140626-3.359374-7.5-7.5-7.5zm0 0"/><path d="m309.726562 360.914062h-71c-4.144531 0-7.5 3.359376-7.5 7.5 0 4.144532 3.355469 7.5 7.5 7.5h71c4.140626 0 7.5-3.355468 7.5-7.5 0-4.140624-3.359374-7.5-7.5-7.5zm0 0"/></g></svg>