<svg width="200" height="190" xmlns="http://www.w3.org/2000/svg"><style>line,path,rect{stroke:#000;stroke-width:2}.red{fill:#f99}.yellow{fill:#ff9}.green{fill:#9f9}.teal{fill:#9ff}.blue{fill:#99f}.purple{fill:#f9f}.l-red{stroke:#b31919}.l-yellow{stroke:#b3b319}.l-green{stroke:#19b319}.l-teal{stroke:#19b3b3}.l-blue{stroke:#1919b3}.l-purple{stroke:#b319b3}text{text-anchor:middle;font-family:Helvetica,Arial,sans-serif;font-size:22px;fill:#000}.algorithm{fill:#fff}marker path,path path{stroke-width:1}</style><marker id="arrow" viewBox="-1 0 12 10" refX="10.5" refY="5" markerWidth="8" markerHeight="8" orient="auto"><path d="M0 0l10 5-10 5" fill="transparent"/></marker><path marker-end="url(#arrow)" d="M50 30v110" transform="translate(50 10)"/><path class="teal" d="M50 10h20v30H50z"/><path class="green" d="M70 10h20v30H70z"/><path class="blue" d="M90 10h20v30H90z"/><path class="yellow" d="M110 10h20v30h-20z"/><path class="red" d="M130 10h20v30h-20z"/><text y="23" x="10" transform="translate(50 10)">4</text><text y="23" x="30" transform="translate(50 10)">3</text><text y="23" x="50" transform="translate(50 10)">5</text><text y="23" x="70" transform="translate(50 10)">2</text><text y="23" x="90" transform="translate(50 10)">1</text><g><path class="red" d="M50 150h20v30H50z"/><path class="yellow" d="M70 150h20v30H70z"/><path class="green" d="M90 150h20v30H90z"/><path class="teal" d="M110 150h20v30h-20z"/><path class="blue" d="M130 150h20v30h-20z"/><text y="23" x="10" transform="translate(50 150)">1</text><text y="23" x="30" transform="translate(50 150)">2</text><text y="23" x="50" transform="translate(50 150)">3</text><text y="23" x="70" transform="translate(50 150)">4</text><text y="23" x="90" transform="translate(50 150)">5</text></g><path d="M10 70h180v40H10z"/><text x="100" y="98" class="algorithm">Algorithm</text></svg>