<svg xmlns="http://www.w3.org/2000/svg" xmlns:xlink="http://www.w3.org/1999/xlink" viewBox="0 0 500 500" xmlns:v="https://vecta.io/nano"><style><![CDATA[.B{fill:#263238}.C{fill:#407bff}.D{opacity:.2}.E{fill:#fff}.F{fill:#ffc3bd}.G{fill:#ff8b7b}.H{fill:#e0e0e0}.I{fill:#f0f0f0}]]></style><path d="M0 382.4l500 .25H0zm237-44.6H43.9a5.71 5.71 0 0 1-5.7-5.71V60.66A5.71 5.71 0 0 1 43.9 55H237a5.71 5.71 0 0 1 5.71 5.71v271.4a5.71 5.71 0 0 1-5.71 5.71zM43.9 55.2a5.46 5.46 0 0 0-5.45 5.46V332.1a5.46 5.46 0 0 0 5.45 5.46H237a5.47 5.47 0 0 0 5.46-5.46V60.66A5.47 5.47 0 0 0 237 55.2zm409.4 282.6H260.2a5.72 5.72 0 0 1-5.71-5.71V60.66A5.72 5.72 0 0 1 260.2 55h193.1a5.71 5.71 0 0 1 5.69 5.66V332.1a5.71 5.71 0 0 1-5.69 5.71zM260.2 55.2a5.47 5.47 0 0 0-5.46 5.46V332.1a5.47 5.47 0 0 0 5.46 5.46h193.1a5.47 5.47 0 0 0 5.46-5.46V60.66a5.47 5.47 0 0 0-5.46-5.46zm158.13 336.72h31.57v.25h-31.57zm-116.4-2.72h33.4v.25h-33.4zm94.67 12h62.43v.25H396.6zm-344.14-1.67H71.7v.25H52.46zm28.14 0h30.3v.25H80.6zm108.98-4.23h54.56v.25h-54.56z" fill="#ebebeb"/><path d="M272.26 118.13l-56.98 57v189.8h200V118.13h-143z" class="E"/><path d="M415.27 365.45h-200a.54.54 0 0 1-.54-.54v-189.8a.53.53 0 0 1 .16-.38l57-57a.57.57 0 0 1 .38-.16h143a.54.54 0 0 1 .54.54v246.8a.54.54 0 0 1-.54.54zm-199.45-1.07h198.9v-245.7H272.5l-56.67 56.67z" class="H"/><path d="M215.28 175.12l59.8 7.7-2.8-64.7-56.98 57z" fill="#e6e6e6"/><path d="M215.28 175.12h56.98v-57l-56.98 57z" class="E"/><path d="M272.26 175.65h-57a.54.54 0 0 1-.5-.33.52.52 0 0 1 .12-.58l57-57a.56.56 0 0 1 .59-.12.55.55 0 0 1 .33.5v57a.54.54 0 0 1-.54.53zm-55.68-1.07h55.15v-55.15z" class="H"/><path d="M326.84 257.2l34-34a8.181 8.181 0 1 0-11.57-11.57l-34 34-34-34a8.181 8.181 0 0 0-11.57 11.57l34 34-34 34a8.181 8.181 0 0 0 11.57 11.57l34-34 34 34a8.181 8.181 0 1 0 11.57-11.57zM223 229h0a10.23 10.23 0 0 1-14.46 0l-32.8-32.82 14.46-14.46 32.8 32.86a10.23 10.23 0 0 1 0 14.42z" class="I"/><g class="H"><path d="M175.725 196.244l14.46-14.46 1.336 1.336a7.39 7.39 0 0 1 0 10.451l-4.01 4.01a7.39 7.39 0 0 1-10.451 0l-1.336-1.336z"/><path d="M84.7 90.7a71 71 0 1 0 100.46 0 71 71 0 0 0-100.46 0zm96.36 96.36a65.23 65.23 0 1 1 0-92.25 65.23 65.23 0 0 1 0 92.25zm-8.8-6.4a2.38 2.38 0 0 1-1.68-4.06 50.48 50.48 0 0 0 0-71.29 2.38 2.38 0 1 1 3.36-3.36 55.22 55.22 0 0 1 0 78 2.38 2.38 0 0 1-1.68.71zm-88.68-25.12a2.37 2.37 0 0 1-2.31-1.83 55.37 55.37 0 0 1 7.6-43.11 2.391 2.391 0 0 1 4 2.62 50.65 50.65 0 0 0-7 39.4 2.36 2.36 0 0 1-1.76 2.86 2.64 2.64 0 0 1-.53.06zm14.04 25.12a2.38 2.38 0 0 1-1.68-.7 54.8 54.8 0 0 1-10.5-14.64 2.375 2.375 0 0 1 4.26-2.1 50.51 50.51 0 0 0 9.6 13.38 2.38 2.38 0 0 1 0 3.36 2.41 2.41 0 0 1-1.68.7z"/></g><path d="M211.033 320.405l9.348 9.348-21.708 21.708a5.92 5.92 0 0 1-8.372 0l-.983-.983a5.92 5.92 0 0 1 0-8.372l21.708-21.708z" class="I"/><path d="M211.047 320.425l9.334 9.334-.445.445a5.37 5.37 0 0 1-7.594 0l-1.754-1.754a5.37 5.37 0 0 1 0-7.594l.445-.445.014.014z" class="H"/><path d="M284.35 269.7l-21.9 21.9A13.74 13.74 0 0 0 281.88 311l8.86-8.85a47.07 47.07 0 0 0-6.39-32.45z" class="I"/><path d="M292.6 290.82a45.94 45.94 0 1 0-42.64 49 45.94 45.94 0 0 0 42.64-49zm-87.9 6.12a42.18 42.18 0 1 1 45 39.15 42.18 42.18 0 0 1-45-39.15zm18.68 23.96a35.58 35.58 0 0 1-12.19-24.42 1.54 1.54 0 1 1 3.07-.21A32.64 32.64 0 0 0 249 326.53a1.534 1.534 0 1 1 .21 3.06 35.53 35.53 0 0 1-25.83-8.68zm55.26-34.9a1.51 1.51 0 0 1-.47-.75 32.72 32.72 0 0 0-16.27-20.1 1.54 1.54 0 0 1 1.42-2.73 35.82 35.82 0 0 1 17.81 22 1.53 1.53 0 0 1-1.07 1.89 1.56 1.56 0 0 1-1.42-.31zm-35.24-24.87a1.56 1.56 0 0 1-.52-1.06 1.54 1.54 0 0 1 1.42-1.64 35.88 35.88 0 0 1 11.6 1.09 1.551 1.551 0 1 1-.79 3 32.48 32.48 0 0 0-10.59-1 1.58 1.58 0 0 1-1.12-.39z" class="H"/><ellipse cx="250" cy="416.24" rx="193.89" ry="11.32" fill="#f5f5f5"/><g class="B"><path d="M137.82 145.88c-8.06 8.1 5.64 20.7-3.4 26.48 7.4 3.7 33.3 8.42 40-6.17-4.9-3.8-1.5-13.14-6-22.1-6.75-13.3-38.65-7.4-30.6 1.8z"/><path d="M138.55 145.67c-2.5-.42-11 3.8-4.68 15.13 5.1 9.16.85 9.8.85 9.8s5 .14 2-6.67c-3.18-7.27-4.67-14.8 1.83-18.27z"/></g><g class="G"><path d="M198 217.6a2.46 2.46 0 0 0-3.3-1l-.6.3c-.2.1-.55.34-.84.5l-.95.52a15.54 15.54 0 0 1-1.95.82 12.28 12.28 0 0 1-3.85.73 10.57 10.57 0 0 1-3.55-.57 12.76 12.76 0 0 1-2.09-1l-2.38-5.8-2.26-7.06-1.72-7.24-.67-3.64-.27-1.8-.22-1.7v-.2a5 5 0 0 0-10 1l.22 2.2.3 2.08.75 4.1a76.87 76.87 0 0 0 2.1 8l1.32 3.93c.45 1.3 1 2.6 1.57 3.86a72.36 72.36 0 0 0 3.71 7.49l.12.22a3.89 3.89 0 0 0 1.55 1.54 20.26 20.26 0 0 0 6.05 2.14 16.83 16.83 0 0 0 6.56-.14 17.3 17.3 0 0 0 8.09-4.39c.37-.34.72-.7 1-1.06l1-1.24a2.46 2.46 0 0 0 .31-2.61z"/><path d="M204.65 208.25h-.3a6.23 6.23 0 0 0-5 2.34l-4.83 6.06v4.14c3.88 1.54 8.8-2.6 8.8-2.6l2.5-.63a3.49 3.49 0 0 0 2.61-3.88l-.36-2.43a3.48 3.48 0 0 0-3.42-2.99z"/></g><use xlink:href="#B" class="C"/><use xlink:href="#B" class="D E"/><path d="M151.85 407.67l7.14.78.98-19.4-7.14-.8-.98 19.4z" class="G"/><path d="M160.16 403.8h-8.4a.65.65 0 0 0-.67.61l-.56 7.93a1.59 1.59 0 0 0 1.55 1.59H172c3.66 0 3.67-3.7 2.1-4.05-7.1-1.5-9.88-3.58-12.4-5.56a2.5 2.5 0 0 0-1.54-.52z" class="B"/><path d="M159.97 389.06l-.5 10h-7.18l.55-10.8 7.14.8z" class="D"/><path d="M163.82 234.27S170 286 170 309c-4.87 32-9 88.16-9 88.16l-9.88-.26s-4.5-61.16-.33-87.57c-5.33-23.66-11.9-78.26-11.9-78.26z" class="B"/><path d="M144.77 248.67a29.51 29.51 0 0 0-3.42 1.78l5.05 34.92c3.24-9.76 1.5-31.22-1.63-36.7z" class="D"/><path d="M74.53 389.66l5.9 4.1 10.16-16.56-5.9-4.1-10.16 16.56z" class="G"/><path d="M81.9 391.6l-5-6.73a.64.64 0 0 0-.88-.17l-6.7 4.3a1.58 1.58 0 0 0-.35 2.19l4.76 6.4 7.12 9.55c2.24 3 5.17.73 4.5-.75-3-6.6-3-10-2.94-13.24a2.54 2.54 0 0 0-.5-1.56z" class="B"/><path d="M90.57 377.2l-5.23 8.54-6.3-3.44 5.66-9.2 5.88 4.1z" class="D"/><path d="M110.66 396.6c-5.1 0-15.75 0-15.93-7.52-.14-5.9 7.16-8.35 13.46-8.65a5.32 5.32 0 0 1 5.57 5.06v.4c7.14-.34 11.76-1.9 13.45-4.56 3.8-6-3.5-21.5-10.54-36.46-8.3-17.6-17.7-37.56-17.88-56.67a5.32 5.32 0 0 1 5.27-5.37h0a5.33 5.33 0 0 1 5.32 5.27c.16 16.78 9 35.6 16.86 52.23 9 19.18 16.85 35.75 9.9 46.7-4.03 6.44-12.38 9.57-25.48 9.57z" class="C"/><path d="M155.9 233.25s-17.06 59.12-25.4 80.56c-16.14 28.06-42.92 71-42.92 71l-8.55-5s20-49.6 33.45-72.7c3.6-24 17.26-77.26 17.26-77.26z" class="B"/><g class="C"><path d="M83.45 396.43a2.85 2.85 0 0 0 1.48 1.21 1 1 0 0 0 1-.33.7.7 0 0 0 .22-.61c-.12-1.2-3.22-2.76-3.84-3.06a.16.16 0 0 0-.2.07.23.23 0 0 0 0 .25 14.78 14.78 0 0 0 1.34 2.47zm2.13 0a.83.83 0 0 1 .17.38.24.24 0 0 1-.08.21.69.69 0 0 1-.66.22c-.66-.13-1.53-1.2-2.37-2.9a10.54 10.54 0 0 1 2.94 2.04z"/><path d="M82.06 394l.06.05c1 .55 3.6 1 4.17.17a.87.87 0 0 0-.05-1c-1-1.77-4 .3-4.13.4a.24.24 0 0 0-.09.2.33.33 0 0 0 .04.18zm3.8-.58a1 1 0 0 1 .08.11c.1.2.13.33.07.4-.33.48-2.25.3-3.37-.13.75-.45 2.5-1.36 3.22-.4zM165 405.44a2.89 2.89 0 0 0 1.86-.47 1 1 0 0 0 .31-1 .75.75 0 0 0-.36-.55c-1-.6-4.13.94-4.74 1.26a.17.17 0 0 0-.08.2.27.27 0 0 0 .19.17 13.93 13.93 0 0 0 2.82.39zm1.24-1.73a.76.76 0 0 1 .41.09c.05 0 .1.07.12.2a.68.68 0 0 1-.22.66c-.5.45-1.87.5-3.73.18a10.42 10.42 0 0 1 3.37-1.12z"/><path d="M162.18 405.1h.07c1-.46 2.95-2.3 2.63-3.24a.87.87 0 0 0-.8-.53c-2-.23-2.14 3.4-2.15 3.54a.24.24 0 0 0 .25.23zm1.8-3.4h.14c.2 0 .34.1.37.2.2.55-1.1 2-2.12 2.63.1-.87.4-2.82 1.63-2.82z"/><use xlink:href="#C"/></g><use xlink:href="#C" opacity=".3" class="E"/><path d="M132 209.32c4.5-5.82 6.13-12.48 4.67-16.15l-5.08 1.14c.4 5.98.52 10.8.4 15z" opacity=".3" class="C"/><path d="M163.05 180.84l-2.63-.64a110.65 110.65 0 0 0-15.47-2l-2.3-.14-1.33-.06 1 1.75c.14.24 3.54 5.8 12 11.78l1.8 1.26 1.74-1.33a13.14 13.14 0 0 0 5.48-10.53z" class="E"/><path d="M148.7 167.92c-.32 4.2-1.3 8.5-3.76 10.3 0 0 3.12 5.2 11.2 10.86 5.06-3.87 4.27-8.88 4.27-8.88-5.38-2-5-5.73-2.73-11.68l-4.2-2.26a2.75 2.75 0 0 0-4.78 1.66z" class="G"/><path d="M153.5 166.26a2.75 2.75 0 0 0-4.73 1.28 17 17 0 0 0 7.35 7.51 18.21 18.21 0 0 1 1.57-6.53z" class="D"/><path d="M142.17 154.72c2.1 8.13 2.8 11.6 7.77 15 7.47 5.14 17 .8 17.37-7.78.35-7.73-3.12-19.73-11.8-21.45a11.45 11.45 0 0 0-13.34 14.23z" class="G"/><path d="M162.86 142.17a43.9 43.9 0 0 1-17 9.37s6.2 13.2-5.4 9.88c-3.37-11.25 0-17.1 3-19.84 9.24-3 15.74-4 19.4.6z" class="B"/><path d="M141.78 162.73a6.14 6.14 0 0 0 3.44 3.18c2 .72 3.2-1 2.76-3-.4-1.8-1.9-4.33-4-4.2a2.75 2.75 0 0 0-2.2 4.02z" class="G"/><path d="M129.5 227.84l-1.93 2.85c-.15.22.1.5.5.55l35.72 4.58c.3 0 .58-.08.63-.27l.7-3c0-.2-.2-.42-.53-.47l-34.5-4.42a.6.6 0 0 0-.58.18z" class="C"/><g class="B"><path d="M133.64 232.3l-.92-.12c-.18 0-.3-.14-.28-.25l.94-3.9a.33.33 0 0 1 .38-.16l.93.12c.18 0 .3.13.28.25l-.94 3.9c-.03.12-.2.2-.4.17zm27.5 3.5l-.92-.1c-.18 0-.3-.14-.28-.26l.94-3.9c0-.1.2-.2.38-.17l.93.12c.18 0 .3.14.28.25l-.94 3.9c-.03.1-.2.2-.4.16zm-13.75-1.75l-.92-.12c-.2 0-.32-.13-.3-.25l.94-3.9c0-.12.2-.2.4-.17l.92.12c.18 0 .3.14.3.25l-.95 3.9c-.02.1-.2.18-.38.16zm8.7-79.68c.12.67.58 1.15 1 1.06s.7-.7.56-1.36-.6-1.15-1-1.06-.66.7-.56 1.36zm7.56-1.45c.13.67.6 1.14 1 1.06s.7-.7.56-1.37-.6-1.14-1-1.06-.68.7-.56 1.37z"/><path d="M164 151.63l1.52-.78s-.52 1.42-1.52.78z"/></g><path d="M161.66,154.42a18.53,18.53,0,0,0,3.21,3.81,2.91,2.91,0,0,1-2.3.91Z" fill="#ff5652"/><path d="M156.94 161.84a.2.2 0 0 0 .24.31 5.37 5.37 0 0 1 4.88 0 .2.2 0 0 0 .27-.07.21.21 0 0 0-.06-.28 5.78 5.78 0 0 0-5.27 0s0 .02-.06.04zm-3.44-9.54a.36.36 0 0 0 .14-.16 3.17 3.17 0 0 1 2.26-1.79.4.4 0 0 0 .35-.45.39.39 0 0 0-.44-.35 4 4 0 0 0-2.89 2.24.4.4 0 0 0 .58.51zm12.4-5.06l.05-.05a.4.4 0 0 0-.1-.56 4 4 0 0 0-3.62-.54.41.41 0 0 0-.22.52.4.4 0 0 0 .52.22 3.16 3.16 0 0 1 2.86.46.39.39 0 0 0 .51-.05zm-9.43 5.84l1.52-.77s-.6 1.4-1.52.77z" class="B"/><g class="C"><path d="M104.1 293.47a5.32 5.32 0 0 1-5.32-5.27c-.14-14.2 4.6-26.2 13.68-34.67 11.2-10.44 28.64-15.3 49.16-13.67 14.4 1.14 23.62-2.36 34.3-6.43l5.35-2a5.32 5.32 0 1 1 3.64 10l-5.2 1.95c-10.9 4.14-22.14 8.4-38.93 7.1-17.5-1.4-32.08 2.46-41.06 10.84-7 6.48-10.4 15.5-10.3 26.8a5.32 5.32 0 0 1-5.27 5.37z"/><use xlink:href="#D"/></g><use xlink:href="#D" opacity=".7" class="E"/><g class="C"><path d="M203.84 214.84l9.55-3.5 13.76 37.58-9.55 3.5a5.77 5.77 0 0 1-1.42-2.2l-12-32.8a5.7 5.7 0 0 1-.34-2.6z" class="D"/><path d="M233.897 221.055l.94-.344 2.3 6.254-.94.344zm-1.447-3.895l-3.37-9.22a8.16 8.16 0 0 0-7.65-5.33 8 8 0 0 0-2.78.49l-6.08 2.23-.35-.94 6.1-2.23a9 9 0 0 1 3.12-.55 9.18 9.18 0 0 1 8.59 6l3.37 9.22z"/><rect x="212.75" y="205.65" width="20.74" height="46.89" rx="5.62" transform="matrix(-.94 .34 -.34 -.94 511.43 367.47)"/></g><path d="M222.2 217.87a3 3 0 1 1-3.84-1.79 3 3 0 0 1 3.84 1.79zm7.47 20.4a3 3 0 1 1-3.85-1.79 3 3 0 0 1 3.85 1.79z" class="B"/><g class="G"><path d="M142 235.85l-.08-.1-4.7-5-4.28-5.28a49.41 49.41 0 0 1-3.55-5.51 28.72 28.72 0 0 1-1.93-4.27l2-5.92 2.92-6.82 3.44-6.6 1.88-3.2 1-1.54.94-1.43.1-.16a5 5 0 0 0-8.16-5.77l-1.28 1.8-1.14 1.77-2.12 3.58a79 79 0 0 0-3.67 7.44l-1.57 3.84c-.57 1.3-.95 2.6-1.35 3.94a73.83 73.83 0 0 0-2.09 8.09v.23a4 4 0 0 0 .15 2.19 32.78 32.78 0 0 0 3.83 7.24 48.22 48.22 0 0 0 4.94 6 61.7 61.7 0 0 0 5.59 5.05 59.47 59.47 0 0 0 6.17 4.31 2.48 2.48 0 0 0 3-3.9z"/><path d="M153.62 240.82l-.13-.26a6.2 6.2 0 0 0-4.37-3.4l-7.6-1.54-3.7 1.85c.4 4.16 6.34 6.65 6.34 6.65l1.7 1.93a3.5 3.5 0 0 0 4.64.55l2-1.43a3.48 3.48 0 0 0 1.13-4.35z"/></g><use xlink:href="#E" class="C"/><use xlink:href="#E" opacity=".3" class="E"/><path d="M423.3 399.43c-8.8 0-17.47-1.8-21.67-7.3-19.88-26-19.7-78.3-19.53-128.9.1-27.25 2.25-53-.78-73-1.78-11.8-8-19.88-14.28-24.06-9.32-6.16-22.12-2.85-27.6-1.44a5.32 5.32 0 1 1-2.66-10.3c6.83-1.77 22.85-5.9 36.1 2.86 8.95 5.9 16.7 16.46 18.94 31.35 3.15 20.8 1 46.93.9 74.6-.17 48.83-.34 99.32 17.34 122.4 1.43 1.86 7 3.53 16.25 3.05.82 0 1.62-.1 2.4-.16a5.22 5.22 0 0 1-.54-2.33 5.32 5.32 0 0 1 5.32-5.32c11.63 0 17.75 1 18.93 6.32.34 1.53.52 5.37-5.1 8-4.2 1.97-14.22 4.23-24.05 4.23z" class="C"/><path d="M306.87 404.02l-10.85-4.27 5.72-18.8 10.86 4.26-5.73 18.82z" class="F"/><path d="M295.76 398.6l12.24 4.8a.75.75 0 0 1 .46.8l-1.2 7.62a1.25 1.25 0 0 1-1.7.95l-11.77-4.9c-2.4-.94-6.94-2.44-10.25-3.74s-2.45-4.74-1-4.5c6.6 1.06 9.1-.07 11.74-1.05a2 2 0 0 1 1.48.02z" class="B"/><path d="M312.6 385.2l-10.86-4.27-2.95 9.7 10.86 4.27 2.95-9.7z" class="D"/><path d="M326.17 239.6L312.6 312.1c-4.22 26.83-15.37 75.84-15.37 75.84l14.43 5.67s20.6-50.18 23.48-74.48c8.65-19.75 25.85-77.87 25.85-77.87z" class="C"/><path d="M296.53 388l15.84 6.23 2.7-4.8-17.7-7.34-.84 5.9z" class="B"/><g class="C"><path d="M292.65 398.8a2.59 2.59 0 0 1-1.36-1 1.24 1.24 0 0 1 0-1.14.62.62 0 0 1 .52-.4c1.05-.1 3 2.45 3.2 2.75a.2.2 0 0 1-.2.31 10.18 10.18 0 0 1-2.15-.52zm-.53-2.1a.5.5 0 0 0-.26-.05c-.06 0-.13 0-.2.17a.8.8 0 0 0 0 .78c.3.53 1.3 1 2.74 1.24a7.86 7.86 0 0 0-2.28-2.14z"/><path d="M294.78 399.32a.16.16 0 0 1-.08-.06c-.64-.76-1.54-3.1-1-3.92a.66.66 0 0 1 .79-.25 1.1 1.1 0 0 1 .7.55c.62 1.1-.08 3.45-.1 3.55a.21.21 0 0 1-.16.14.14.14 0 0 1-.14-.01zm-.34-3.82h-.08c-.26-.06-.32 0-.35.1-.3.48.2 2.18.76 3.1a4.82 4.82 0 0 0 0-2.84.7.7 0 0 0-.33-.36z"/></g><path d="M347.34 269c-5.44 6.74-7.6 23.92-7.57 38.24 3.67-10.1 7.88-22.95 11.58-34.6z" class="D"/><path d="M372.17 405.83H360.5l-1.55-19.6h11.66l1.55 19.6z" class="F"/><path d="M359.85 404.85H373a.73.73 0 0 1 .72.58l1.67 7.52a1.25 1.25 0 0 1-1.24 1.51l-12.73-.26c-2.58 0-7.36.27-10.9.27s-4-3.5-2.57-3.83c6.53-1.43 8.47-3.4 10.55-5.27a2.06 2.06 0 0 1 1.36-.52z" class="B"/><path d="M370.62 386.23h-11.67l.8 10.1h11.67l-.8-10.1z" class="D"/><path d="M340.3 240.22l7.82 73.56c1.9 27.1 9.2 80.6 9.2 80.6h15.5s1.66-54.64-1.14-78.95c3.86-21.2 2.64-73.58 2.64-73.58z" class="C"/><path d="M356.7 394.7h17.02l.77-5.45-19.17-.36 1.38 5.8z" class="B"/><g class="C"><path d="M357 406.18a2.58 2.58 0 0 1-1.63-.43 1.25 1.25 0 0 1-.42-1.06.64.64 0 0 1 .35-.57c.94-.48 3.67 1.2 4 1.4a.2.2 0 0 1 .1.2.23.23 0 0 1-.16.17 10 10 0 0 1-2.24.3zm-1.26-1.75a.53.53 0 0 0-.26.05c-.05 0-.1.08-.12.23a.8.8 0 0 0 .27.73c.46.4 1.57.44 3 .15a8.08 8.08 0 0 0-2.86-1.16z"/><path d="M359.2 405.88h-.1c-.87-.48-2.57-2.33-2.4-3.28a.65.65 0 0 1 .64-.52 1.07 1.07 0 0 1 .85.25c1 .8 1.2 3.25 1.2 3.35a.22.22 0 0 1-.09.19.23.23 0 0 1-.11.01zm-1.7-3.43h-.1c-.26 0-.28.16-.3.2-.1.55 1 2 1.84 2.62a4.86 4.86 0 0 0-1-2.66.75.75 0 0 0-.46-.17z"/></g><path d="M345.64 165.63h0l-9.34-.12c-3.14 0-6.26-.1-9.35-.15-.94 0-1.86-.06-2.8-.1.06 0 .1-.1.15-.16l2-2.1q.5-.54 1-1.05l.92-1 .85-1.08a5.17 5.17 0 0 0-5.42-8.18l-1.85.5-1.7.55-3.3 1.3a49.09 49.09 0 0 0-6.35 3.38 45.63 45.63 0 0 0-5.95 4.53 39.42 39.42 0 0 0-5.31 5.91 9.07 9.07 0 0 0-1 1.72 8.76 8.76 0 0 0 4.52 11.53l.9.4a38.36 38.36 0 0 0 6.36 2.1c1.9.5 3.7.8 5.47 1.1l5.22.75 5.12.5c3.4.3 6.75.45 10.1.55s6.63.1 10.1-.06a10.42 10.42 0 0 0-.34-20.83z" class="F"/><g class="B"><path d="M351.08 183.88c-8.07 9.2-27.5 5.76-27.5 5.76l1.07-22.92a101 101 0 0 1 20.26-2.35c11.4-.02 12.62 12.13 6.16 19.5z"/><path d="M329.54 176.83c-.48 3.7-1 8.68-1.3 15.38-4.2 21.3-5.78 36.4-2.06 47.4 2.94 3.63 41.25 2.93 48.14 2.23 4-9.9 4.42-38.32 4.9-62.2a13.77 13.77 0 0 0-11.45-13.82 92.49 92.49 0 0 0-26.12-.88 13.76 13.76 0 0 0-12.09 11.9z"/></g><path d="M366.7 191.37c.13 7.28 5.4 18.9 11.35 24.8.36-6.15.6-12.82.77-19.55z" class="D"/><path d="M400.1 205.52l-.34-.8a76 76 0 0 0-4.89-9.67c-1.78-3-3.7-5.83-5.7-8.56s-4.1-5.34-6.26-7.88l-3.34-3.74-1.73-1.82-1.84-1.86a10.42 10.42 0 0 0-15.08 14.37l.3.33 5.87 6.53c2 2.22 3.9 4.48 5.8 6.73.92 1.13 1.87 2.26 2.73 3.4s1.77 2.26 2.63 3.4c1.24 1.73 2.44 3.45 3.5 5.14a25.68 25.68 0 0 1-.62 2.53 72.68 72.68 0 0 1-2.53 7.14l-3.16 7.5-3.33 7.6-.1.22a5.26 5.26 0 0 0 8.4 5.91 83 83 0 0 0 6.27-6.48q3-3.37 5.63-7.1c.9-1.25 1.74-2.55 2.58-3.9a45.2 45.2 0 0 0 2.39-4.25 39.75 39.75 0 0 0 2.1-4.92 22.39 22.39 0 0 0 1.28-6.71 7.49 7.49 0 0 0-.59-3.1z" class="F"/><g class="B"><path d="M368.43 165.94c13.5 2.3 22.28 20.57 22.28 20.57L374.45 204s-9.37-9.54-15-18.38c-6.07-9.62-.68-21.32 8.98-19.68zm-24.63-28.8c-2.26-3.8-3-9 1.14-14.3a4.2 4.2 0 0 1-4.12-2 24.79 24.79 0 0 1 16.09-5.6c12.1 0 13 4.67 12.6 7.86 8.28.53 14.32 22.06-6.67 25.87-12-12.65-19.03-11.82-19.03-11.82z"/><path d="M368.73 123.5s3.37-3.44-.82-7.6a5.64 5.64 0 0 1 3.94 3.92c.6 2.42-1.04 4.36-3.12 3.68z"/></g><path d="M364.1 146.34c-.32 6.63-.92 14.17.2 19.46-1.72 2.7-6.12 5.83-14 6.53-2.8-1.6-6.5-5.48-5.2-7.48 3.35-2.15 4.77-8.66 3.8-13.53z" class="F"/><path d="M360.25 147.6l-11.4 3.73a17.87 17.87 0 0 1 .05 6.28c3.4-.1 8.1-2.67 9.88-5.07a6.32 6.32 0 0 0 1.46-4.94z" class="D"/><path d="M367.4 135.84c-2.1 8.13-2.93 13-7.9 16.4-7.5 5.13-16.9-.62-17.28-9.2-.32-7.74 3.18-19.74 11.88-21.45a11.46 11.46 0 0 1 13.31 14.25z" class="F"/><g class="B"><path d="M365.73 124.2c-3.57 2.54-8 13.3 1 17.62 8.08-7.1 6-17.62-1-17.62z"/><path d="M367.8 125.5c1.53-7.08-16.34-10.74-22-2.47-1.92 4.98 20.92 9.38 22 2.47zm-13.34 18.97h0a17.28 17.28 0 0 0-5.88-1.49.21.21 0 0 0-.21.22.29.29 0 0 0 .27.24 16.75 16.75 0 0 1 5.64 1.42.24.24 0 0 0 .31-.11.21.21 0 0 0-.13-.28z"/></g><path d="M369.36 144.73a8 8 0 0 1-5.56 2.51c-2.8.06-3.5-2.6-2.16-4.9 1.22-2 4.14-4.56 6.68-3.54s2.8 4 1.04 5.92z" class="F"/><path d="M354.48 135.7c-.13.67-.6 1.15-1 1.06s-.68-.7-.55-1.37.6-1.14 1-1 .68.6.55 1.3zm-7.58-1.47c-.13.67-.6 1.14-1 1.06s-.7-.7-.56-1.37.6-1.15 1-1.06.65.7.56 1.37z" class="B"/><path d="M349.25 135a24.53 24.53 0 0 1-4.32 5.11c1 1.33 3.2 1.07 3.2 1.07z" fill="#ed847e"/><path d="M353.4 131.8a.43.43 0 0 1 .4.12 3.19 3.19 0 0 0 2.66 1.15.41.41 0 0 1 .46.34.39.39 0 0 1-.34.45 4 4 0 0 1-3.38-1.41.39.39 0 0 1 0-.56.51.51 0 0 1 .2-.09zm-8.83-2.2a.36.36 0 0 1-.21-.13.4.4 0 0 1 .07-.57 4 4 0 0 1 3.57-.77.41.41 0 0 1 .26.51.43.43 0 0 1-.51.25h0a3.19 3.19 0 0 0-2.83.64.35.35 0 0 1-.35.07z" class="B"/><g class="F"><path d="M376.85 235.56l-8.6-.06 4.44 9.86s7.33-1.57 6.93-5.55z"/><path d="M363.9 242.27l1.4 2.78a3.34 3.34 0 0 0 4.21 1.58l3.2-1.27-4.44-9.86-3.4 2.6a3.33 3.33 0 0 0-.96 4.17z"/></g><path d="M311.46 228.3a5.33 5.33 0 0 1-3.81-9c3.82-3.94 7.27-7 10.3-9.67 7.34-6.47 9.87-9 9.63-13.85a48.72 48.72 0 0 0-1.9-8.82c-2.2-8.05-4.67-17.16-.42-24.47 2.28-3.93 6.15-6.62 11.5-8a5.32 5.32 0 0 1 2.66 10.3c-3.77 1-4.68 2.53-5 3.05-2 3.45-.07 10.6 1.5 16.32a55.55 55.55 0 0 1 2.26 11.1c.5 10.25-5.55 15.6-13.22 22.35-2.9 2.56-6.18 5.46-9.72 9.1a5.29 5.29 0 0 1-3.79 1.59z" class="C"/><path d="M323.13 151.9l8.32-2.13-1.94 10.64s-7.5.23-8.05-3.72zm14.17 3.5l-.64 2.78a3.49 3.49 0 0 1-3.88 2.67l-3.26-.45 1.94-10.64 3.82 1.65a3.49 3.49 0 0 1 2.02 3.99z" class="F"/><g class="B"><rect x="289.06" y="203.83" width="5.5" height="46.89" rx="2.59" transform="matrix(.70723 .706983 -.706983 .70723 246.1 -139.77)"/><rect x="304.41" y="219.18" width="5.5" height="46.89" rx="2.59" transform="matrix(.707107 .707107 -.707107 .707107 261.53 -146.14)"/></g><use xlink:href="#F" class="C"/><use xlink:href="#F" opacity=".7" class="E"/><g class="C"><path d="M291.58 214.56l-7.2 7.2 28.3 28.3 7.2-7.2a5.74 5.74 0 0 0-1.39-2.22L293.8 216a5.74 5.74 0 0 0-2.22-1.44z" class="D"/><rect x="293.5" y="211.51" width="11.97" height="46.89" rx="5.62" transform="matrix(.707107 -.707107 .707107 .707107 -78.42 280.59)"/></g><rect x="130.06" y="37.96" width="239.88" height="57.52" rx="8.42" class="E"/><path d="M361.52 96.22h-223a9.17 9.17 0 0 1-9.16-9.16V46.38a9.17 9.17 0 0 1 9.16-9.16h223a9.17 9.17 0 0 1 9.16 9.16v40.68a9.17 9.17 0 0 1-9.16 9.16zm-223-57.52a7.69 7.69 0 0 0-7.68 7.68v40.68a7.69 7.69 0 0 0 7.68 7.68h223a7.69 7.69 0 0 0 7.68-7.68V46.38a7.69 7.69 0 0 0-7.68-7.68z" class="B"/><path d="M149.78 76.72V55.08h8.16a20.86 20.86 0 0 1 3.3.2 6.68 6.68 0 0 1 2.67 1 5.28 5.28 0 0 1 1.73 2.09 7 7 0 0 1-1.1 7.63q-1.75 1.9-6.34 1.9h-5.56v8.8zm2.86-11.35h5.6a5.92 5.92 0 0 0 3.94-1 3.66 3.66 0 0 0 1.17-2.9 3.91 3.91 0 0 0-.69-2.33 3.26 3.26 0 0 0-1.81-1.28 12.77 12.77 0 0 0-2.67-.19h-5.54zm27.2 9.43a10.24 10.24 0 0 1-2.84 1.77 8.32 8.32 0 0 1-2.93.51 5.73 5.73 0 0 1-4-1.26 4.16 4.16 0 0 1-1.38-3.22 4.31 4.31 0 0 1 .52-2.11A4.5 4.5 0 0 1 170.6 69a6.72 6.72 0 0 1 1.92-.87 20.59 20.59 0 0 1 2.36-.4 24.45 24.45 0 0 0 4.74-.91v-.7a2.93 2.93 0 0 0-.75-2.29 4.46 4.46 0 0 0-3-.9 4.77 4.77 0 0 0-2.77.65 4.1 4.1 0 0 0-1.32 2.33l-2.6-.36a6.48 6.48 0 0 1 1.17-2.69 5.12 5.12 0 0 1 2.35-1.58 10.44 10.44 0 0 1 3.56-.55 9.33 9.33 0 0 1 3.26.47 3.74 3.74 0 0 1 2.67 3 14.87 14.87 0 0 1 .13 2.45v3.54a38.39 38.39 0 0 0 .17 4.69 6.23 6.23 0 0 0 .67 1.88h-2.77a5.59 5.59 0 0 1-.55-1.98zm-.22-5.94a18.94 18.94 0 0 1-4.34 1 9.8 9.8 0 0 0-2.32.54 2.29 2.29 0 0 0-1.05.86 2.34 2.34 0 0 0 .44 3 3.41 3.41 0 0 0 2.35.71 5.47 5.47 0 0 0 2.73-.67 4.16 4.16 0 0 0 1.76-1.84 6.47 6.47 0 0 0 .43-2.65zm6.32 9.14l2.58.38a2.46 2.46 0 0 0 .9 1.74 4.37 4.37 0 0 0 2.7.74 4.69 4.69 0 0 0 2.85-.74 3.65 3.65 0 0 0 1.36-2.06 16.84 16.84 0 0 0 .19-3.41 5.46 5.46 0 0 1-4.34 2 5.91 5.91 0 0 1-5-2.33 9 9 0 0 1-1.78-5.6 10.3 10.3 0 0 1 .82-4.14 6.5 6.5 0 0 1 2.35-2.93 6.36 6.36 0 0 1 3.63-1 5.63 5.63 0 0 1 4.57 2.24V61h2.45v13.6a13 13 0 0 1-.74 5.19 5.48 5.48 0 0 1-2.37 2.42 8.15 8.15 0 0 1-4 .88 7.53 7.53 0 0 1-4.54-1.26 4.26 4.26 0 0 1-1.63-3.82zm2.2-9.42a6.76 6.76 0 0 0 1.23 4.5 3.88 3.88 0 0 0 3.07 1.42 3.93 3.93 0 0 0 3.07-1.41 6.55 6.55 0 0 0 1.24-4.42 6.37 6.37 0 0 0-1.28-4.34 3.91 3.91 0 0 0-3.07-1.46 3.82 3.82 0 0 0-3 1.44 6.36 6.36 0 0 0-1.26 4.29zm25.86 3.1l2.75.34a6.79 6.79 0 0 1-2.41 3.74 7.27 7.27 0 0 1-4.49 1.32 7.16 7.16 0 0 1-5.48-2.07 8.28 8.28 0 0 1-2-5.95 8.67 8.67 0 0 1 2-6.14 6.91 6.91 0 0 1 5.28-2.18 6.69 6.69 0 0 1 5.14 2.14 8.48 8.48 0 0 1 2 6v.7h-11.7a6 6 0 0 0 1.46 4 4.36 4.36 0 0 0 3.28 1.37 4.08 4.08 0 0 0 2.49-.77 5.06 5.06 0 0 0 1.67-2.51zm-8.72-4.3H214a5.34 5.34 0 0 0-1-3 4.08 4.08 0 0 0-3.3-1.54 4.19 4.19 0 0 0-3.07 1.23 4.76 4.76 0 0 0-1.38 3.31zm23.17 9.35V61h2.4v2.23a5.65 5.65 0 0 1 5-2.58 6.53 6.53 0 0 1 2.61.51 4.1 4.1 0 0 1 1.78 1.33 5.24 5.24 0 0 1 .83 2 16.37 16.37 0 0 1 .14 2.58v9.64h-2.65v-9.53a7.37 7.37 0 0 0-.31-2.43 2.62 2.62 0 0 0-1.1-1.28 3.53 3.53 0 0 0-1.86-.48 4.3 4.3 0 0 0-2.93 1.08c-.82.72-1.23 2.08-1.23 4.1v8.56zm15.83-7.84q0-4.35 2.42-6.45a7.3 7.3 0 0 1 4.93-1.74 7 7 0 0 1 5.28 2.12 8 8 0 0 1 2.09 5.85 10.44 10.44 0 0 1-.91 4.76 6.46 6.46 0 0 1-2.64 2.69 7.71 7.71 0 0 1-3.79 1 7 7 0 0 1-5.35-2.11 8.42 8.42 0 0 1-2.03-6.12zm2.73 0a6.71 6.71 0 0 0 1.31 4.51 4.22 4.22 0 0 0 3.31 1.5 4.16 4.16 0 0 0 3.29-1.51 6.8 6.8 0 0 0 1.32-4.59 6.4 6.4 0 0 0-1.33-4.4 4.38 4.38 0 0 0-6.59 0 6.66 6.66 0 0 0-1.32 4.49zm20.87 5.46l.4 2.35a9.75 9.75 0 0 1-2 .24 4.59 4.59 0 0 1-2.24-.46 2.66 2.66 0 0 1-1.13-1.2 9.8 9.8 0 0 1-.32-3.14v-9h-1.95V61h1.95v-3.84l2.64-1.6V61h2.67v2.07h-2.67v9.17a4.79 4.79 0 0 0 .14 1.46 1.13 1.13 0 0 0 .46.51 1.73 1.73 0 0 0 .91.2 8.62 8.62 0 0 0 1.15-.07zm11.64 2.38V63.1h-2.35V61h2.35v-1.63a7.18 7.18 0 0 1 .28-2.37 3.35 3.35 0 0 1 1.35-1.68 4.85 4.85 0 0 1 2.71-.64 13.59 13.59 0 0 1 2.48.26l-.4 2.32a8.76 8.76 0 0 0-1.57-.15 2.36 2.36 0 0 0-1.71.52 2.83 2.83 0 0 0-.5 1.93V61h3.06v2.07h-3.06v13.65zm6.78-7.84q0-4.35 2.42-6.45a7.33 7.33 0 0 1 4.94-1.74 7 7 0 0 1 5.28 2.12 8 8 0 0 1 2.07 5.85 10.45 10.45 0 0 1-.9 4.76 6.42 6.42 0 0 1-2.65 2.69 7.67 7.67 0 0 1-3.78 1 7.06 7.06 0 0 1-5.35-2.11 8.42 8.42 0 0 1-2.03-6.12zm2.74 0a6.65 6.65 0 0 0 1.31 4.51 4.37 4.37 0 0 0 6.6 0 6.85 6.85 0 0 0 1.31-4.59 6.45 6.45 0 0 0-1.32-4.4 4.38 4.38 0 0 0-6.59 0 6.61 6.61 0 0 0-1.34 4.48zm25.33 7.84v-2.3a5.73 5.73 0 0 1-5 2.65 6.22 6.22 0 0 1-2.59-.53 4.25 4.25 0 0 1-1.78-1.33 5.09 5.09 0 0 1-.82-2 13.46 13.46 0 0 1-.16-2.48V61h2.66v8.7a15.3 15.3 0 0 0 .16 2.8 2.8 2.8 0 0 0 1.06 1.65 3.28 3.28 0 0 0 2 .6 4.35 4.35 0 0 0 2.24-.62 3.4 3.4 0 0 0 1.49-1.67 8.36 8.36 0 0 0 .43-3.06V61h2.66v15.72zm6.53 0V61h2.4v2.23a5.65 5.65 0 0 1 5-2.58 6.53 6.53 0 0 1 2.61.51 4.1 4.1 0 0 1 1.78 1.33 5.24 5.24 0 0 1 .83 2 16.37 16.37 0 0 1 .14 2.58v9.64H331v-9.53a7.37 7.37 0 0 0-.31-2.43 2.62 2.62 0 0 0-1.1-1.28 3.53 3.53 0 0 0-1.86-.48 4.32 4.32 0 0 0-2.93 1.08c-.82.72-1.23 2.08-1.23 4.1v8.56zm27 0v-2a4.87 4.87 0 0 1-4.39 2.33 6.12 6.12 0 0 1-3.44-1 6.81 6.81 0 0 1-2.44-2.89 10 10 0 0 1-.86-4.25 11.15 11.15 0 0 1 .78-4.26 6.06 6.06 0 0 1 2.35-2.93 6.26 6.26 0 0 1 3.5-1 5.21 5.21 0 0 1 2.52.6 5.12 5.12 0 0 1 1.8 1.55v-7.8h2.64V76.7zm-8.4-7.82a6.81 6.81 0 0 0 1.27 4.5 3.84 3.84 0 0 0 3 1.49 3.78 3.78 0 0 0 3-1.43 6.55 6.55 0 0 0 1.21-4.34 7.37 7.37 0 0 0-1.24-4.73 3.8 3.8 0 0 0-3.05-1.5 3.69 3.69 0 0 0-3 1.44 7.12 7.12 0 0 0-1.19 4.57z" opacity=".4" class="B"/><circle cx="250" cy="106.49" r="18.54" class="B"/><circle cx="250" cy="106.49" r="15.78" class="E"/><path d="M260.67 103.1h-7.4l6.2-18.37-20.15 25.17h7.4l-6.2 18.37 20.15-25.17z" class="C"/><path d="M263.51 117.786l-2.206 2.206L236.49 95.18l2.206-2.206z" class="B"/><defs ><path id="B" d="M173.23 184.88c3.23 3.32 3.43 13.23 3.43 13.23l-12.92 10.4s-5.3-14.7-2.37-19.9c2.5-4.4 7.74-7.97 11.86-3.74z"/><path id="C" d="M129.76 229.9l34.06 4.36c7.68-25.86 10.2-38.35 10.9-44.36a6.53 6.53 0 0 0-4.52-7c-2-.64-4.58-1.4-7.14-2-.87-.23-1.76-.44-2.63-.64a109.08 109.08 0 0 0-15.46-2c-.77-.07-1.53-.1-2.3-.15a82.79 82.79 0 0 0-4.36-.1 7.35 7.35 0 0 0-7.33 8l.64 8.35c.38 6 .5 10.8.4 15a129.36 129.36 0 0 1-2.26 20.54z"/><path id="D" d="M227.145 248.94l-21.4 7.84a7.17 7.17 0 0 1-9.199-4.266l-8.837-24.122a7.17 7.17 0 0 1 4.266-9.199l21.4-7.84 13.77 37.587z"/><path id="E" d="M135.2 178.65c-4.2 1.93-8.7 8.6-8.7 8.6l9 16.85s10.23-11.8 9.37-17.7c-.7-5-4.32-10.23-9.68-7.77z"/><path id="F" d="M284.412 221.783L305.194 201a7.17 7.17 0 0 1 10.14 0l18.166 18.166a7.17 7.17 0 0 1 0 10.14l-20.782 20.782-28.305-28.305z"/></defs></svg>