<svg xmlns="http://www.w3.org/2000/svg" xmlns:xlink="http://www.w3.org/1999/xlink" viewBox="0 0 500 500" xmlns:v="https://vecta.io/nano"><style><![CDATA[.B{stroke-linejoin:round}.C{stroke-width:1.047}.D{fill:#fff}.E{fill:#263238}.F{fill:#c82333}.G{stroke-linecap:round}.H{fill:none}.I{fill:#b8b8b8}.J{stroke:#263238}.K{fill:#737373}.L{stroke-width:3.142}]]></style><use xlink:href="#B" class="F"/><use xlink:href="#B" opacity=".8" class="D"/><use xlink:href="#C" class="F"/><use xlink:href="#C" opacity=".5" class="D"/><g class="I"><path d="M436.76 159.12L436 307.66h3.87l-3.1-148.54z"/><use xlink:href="#D"/><path d="M437.93 201.3s7.73-13.93 21.66-18.2c0 0-14.7 3.48-22 15.48z"/><use xlink:href="#D" y="-19.75"/><path d="M436.78 211.34s-7.47-13.92-20.9-18.18c0 0 14.2 3.48 21.28 15.48zm0 19.36s-7.47-13.93-20.9-18.18c0 0 14.2 3.48 21.28 15.47z"/></g><use xlink:href="#C" x="-375.13" class="F"/><use xlink:href="#C" x="-375.13" opacity=".5" class="D"/><g class="I"><path d="M61.65 159.12l-.78 148.54h3.87l-3.1-148.54z"/><use xlink:href="#D" x="-375.13"/><path d="M62.8 201.3s7.73-13.93 21.66-18.2c0 0-14.7 3.48-22 15.48z"/><use xlink:href="#D" x="-375.13" y="-19.75"/><path d="M61.66 211.34s-7.47-13.92-20.9-18.18c0 0 14.2 3.48 21.28 15.48zm0 19.36s-7.47-13.93-20.9-18.18c0 0 14.2 3.48 21.28 15.47z"/></g><use xlink:href="#E" class="F"/><use xlink:href="#E" opacity=".5" class="D"/><g class="I"><path d="M337.5 186.08l-.63 121.58h3.17l-2.54-121.58z"/><use xlink:href="#F"/><path d="M338.46,220.6s6.34-11.4,17.73-14.88c0,0-12,2.85-18,12.66Z"/><use xlink:href="#F" y="-16.15"/><path d="M337.52 228.83s-6.1-11.4-17.1-14.88c0 0 11.6 2.85 17.42 12.66zm0 15.83s-6.1-11.4-17.1-14.88c0 0 11.6 2.85 17.42 12.67z"/></g><use xlink:href="#G" class="F"/><use xlink:href="#G" opacity=".5" class="D"/><g class="I"><path d="M156 186.08l-.63 121.58h3.17L156 186.08z"/><use xlink:href="#F" x="-181.46"/><path d="M157,220.6s6.34-11.4,17.73-14.88c0,0-12,2.85-18,12.66Z"/><use xlink:href="#F" x="-181.46" y="-16.15"/><path d="M156 228.83s-6.1-11.4-17.1-14.83c0 0 11.6 2.85 17.42 12.66zm0 15.83s-6.1-11.4-17.1-14.88c0 0 11.6 2.85 17.42 12.67z"/></g><path d="M34.77 308.2H466.3" stroke-miterlimit="10" class="C H J"/><path d="M164.14 413.28a4.61 4.61 0 0 1-4.92 4.87h-5.36a.11.11 0 0 0-.1.11v7.88a.3.3 0 0 1-.31.31h-.75a.3.3 0 0 1-.31-.31v-17.47a.3.3 0 0 1 .31-.31h6.57a4.63 4.63 0 0 1 4.87 4.92zm-1.36 0a3.45 3.45 0 0 0-3.61-3.71h-5.3a.11.11 0 0 0-.1.1v7.2a.11.11 0 0 0 .1.1h5.3a3.46 3.46 0 0 0 3.61-3.65zm14.82 12.92l-1.1-3.37c0-.08 0-.08-.1-.08h-8c-.05 0-.08 0-.1.08l-1.1 3.37a.32.32 0 0 1-.33.26H166a.24.24 0 0 1-.25-.36l5.72-17.42a.33.33 0 0 1 .33-.26h1.1a.33.33 0 0 1 .33.26L179 426.1c.08.23 0 .36-.26.36h-.8a.32.32 0 0 1-.35-.26zm-8.84-4.58H176a.11.11 0 0 0 .11-.13l-3.66-11.3a.08.08 0 0 0-.16 0l-3.6 11.3s-.02.13.06.13zm13-.48v-7.42c0-3.32 2.34-5.5 5.9-5.5s5.85 2.2 5.85 5.36v.3a.3.3 0 0 1-.31.31h-.75a.3.3 0 0 1-.31-.31v-.3c0-2.47-1.8-4.17-4.48-4.17s-4.54 1.7-4.54 4.25v7.52c0 2.55 1.83 4.25 4.56 4.25s4.46-1.6 4.46-4.1v-2.6a.11.11 0 0 0-.1-.11h-4a.3.3 0 0 1-.31-.31v-.6a.3.3 0 0 1 .31-.31h5.13a.3.3 0 0 1 .31.31v3.3c0 3.5-2.35 5.62-5.85 5.62s-5.87-2.18-5.87-5.48zm27.36-11.5h-9.72a.11.11 0 0 0-.1.1v6.95a.11.11 0 0 0 .1.11h6.88a.3.3 0 0 1 .31.31v.6a.3.3 0 0 1-.31.31h-6.88a.11.11 0 0 0-.1.1v7a.11.11 0 0 0 .1.11h9.72a.29.29 0 0 1 .3.31v.6a.29.29 0 0 1-.3.31h-10.88a.3.3 0 0 1-.31-.31v-17.4a.3.3 0 0 1 .31-.31h10.88a.29.29 0 0 1 .3.31v.6a.29.29 0 0 1-.3.31zm9.7 16.5v-17.42a.3.3 0 0 1 .31-.31h.78a.38.38 0 0 1 .36.21l9.25 15c0 .1.12.08.12 0v-14.9a.3.3 0 0 1 .31-.31h.75a.3.3 0 0 1 .31.31v17.42a.3.3 0 0 1-.31.31h-.77a.35.35 0 0 1-.36-.21l-9.25-15c0-.1-.13-.07-.13 0v14.9a.3.3 0 0 1-.31.31h-.75a.3.3 0 0 1-.31-.3zm16.85-5.34v-6.75a5.57 5.57 0 0 1 6-5.85c3.6 0 6 2.34 6 5.85v6.75c0 3.5-2.4 5.85-6 5.85a5.57 5.57 0 0 1-6-5.85zm10.6.05V414a4.62 4.62 0 0 0-9.23 0v6.83a4.62 4.62 0 0 0 9.23 0zm16.27-12.13v.6a.3.3 0 0 1-.31.31h-5.1a.11.11 0 0 0-.11.1v16.4a.3.3 0 0 1-.31.31h-.7a.3.3 0 0 1-.31-.31v-16.4a.11.11 0 0 0-.11-.1h-4.84a.3.3 0 0 1-.31-.31v-.6a.3.3 0 0 1 .31-.31h11.52a.3.3 0 0 1 .28.31zm20.14.9H273a.11.11 0 0 0-.1.1v6.95a.11.11 0 0 0 .1.11h6.85a.29.29 0 0 1 .31.31v.6a.29.29 0 0 1-.31.31H273a.11.11 0 0 0-.1.1v8a.3.3 0 0 1-.31.31h-.75a.3.3 0 0 1-.31-.31v-17.38a.3.3 0 0 1 .31-.31h10.85a.3.3 0 0 1 .31.31v.6a.3.3 0 0 1-.32.31zm2.82 11.17v-6.75a5.57 5.57 0 0 1 5.95-5.85c3.6 0 6 2.34 6 5.85v6.75c0 3.5-2.4 5.85-6 5.85a5.57 5.57 0 0 1-5.95-5.85zm10.6.05V414a4.61 4.61 0 1 0-9.22 0v6.83a4.61 4.61 0 1 0 9.22 0zm5.82.15v-12.28a.3.3 0 0 1 .31-.31h.77a.3.3 0 0 1 .31.31V421a4.62 4.62 0 0 0 9.23 0v-12.28a.3.3 0 0 1 .31-.31h.74a.3.3 0 0 1 .31.31V421c0 3.4-2.37 5.67-6 5.67s-5.98-2.28-5.98-5.67zm17.02 5.14v-17.42a.3.3 0 0 1 .31-.31h.75a.38.38 0 0 1 .36.21l9.25 15c.05.1.12.08.12 0v-14.9a.3.3 0 0 1 .31-.31h.75a.3.3 0 0 1 .31.31v17.42a.3.3 0 0 1-.31.31h-.77a.35.35 0 0 1-.36-.21l-9.25-15c-.05-.1-.13-.07-.13 0v14.9a.3.3 0 0 1-.31.31h-.75a.3.3 0 0 1-.28-.3zm17.06 0v-17.42a.3.3 0 0 1 .31-.31h5.92c3.3 0 5.36 1.86 5.36 4.85v8.35c0 3-2.06 4.84-5.36 4.84h-5.92a.3.3 0 0 1-.31-.31zm1.47-.9h4.84a3.6 3.6 0 0 0 3.92-3.79v-8a3.57 3.57 0 0 0-3.92-3.78h-4.84a.12.12 0 0 0-.11.1v15.4a.12.12 0 0 0 .08.07z" class="E"/><path d="M152.6 356.45c0 3-18.43 5.4-41.18 5.4s-41.18-2.4-41.18-5.4 18.44-5.4 41.18-5.4 41.18 2.42 41.18 5.4zm86.2 0c0 3-18.44 5.4-41.18 5.4s-41.18-2.4-41.18-5.4 18.44-5.4 41.18-5.4 41.18 2.42 41.18 5.4zm114.2 0c0 3-18.43 5.4-41.17 5.4s-41.18-2.4-41.18-5.4 18.43-5.4 41.18-5.4 41.17 2.42 41.17 5.4zm95.4 0c0 3-18.44 5.4-41.18 5.4s-41.22-2.4-41.22-5.4 18.44-5.4 41.18-5.4 41.22 2.42 41.22 5.4z" opacity=".3"/><g class="B C J"><path d="M316.28 198.77l-1.7 8.18a10.06 10.06 0 0 1-.24 2.17s-3.6 4.33-3.13 5.53a5.83 5.83 0 0 0 2.41 2.16s1.92 7 3.85 7.46a46.34 46.34 0 0 0 6 .72l.72 5.77 9.62-1.44-2.4-8.66 1-7.46s1.68-3.12 0-8.17-5.3-5.3-7.7-5.3a83.06 83.06 0 0 1-8.44-.97z" class="D"/><path d="M320.6 195.17s-8.42-.25-8.18 1.92 8.9 5 8.9 5-2.9 1.92-1.45 3.85 4.8 3.6 4.8 3.6-1 4.1.5 4.33 2.4-1.93 2.64-2.65 2.9-.48 3.6 1.44a10 10 0 0 1 .72 3.13s2.9-8.66 3.37-12.5-10.34-8.12-14.9-8.12z" class="E"/><path d="M325.94 214s2.9-6.4 4.65-3.25 1 6.43-.7 6.78l-3.14.7" class="D G"/><g class="E"><path d="M314.1 280.8c-.47.55-8.18 17.08-9.14 22.6l-7.46 39.93c-.25 1.44-13.46 4.33-14.43 4.57s1 2.9 3.85 3.6 11.07 4.1 13 2.16 4.57-12.75 5.3-13.95 14.26-33.1 14.26-33.1 6.94-15.3 8.38-16.76-1.7-7.86-2.92-9.8-7.46-3.13-10.83.72z"/><path d="M312.67 281s3.37 16.12 5.05 21.9a46.07 46.07 0 0 0 7 13.47c1.93 2.65 11.3 26 11.3 26l1.44 3.6s-.48 1.44-3.12 3.36-10.1 5.05-8.18 5.78 9.62.72 13.23.48a12.5 12.5 0 0 0 8.17-3.85c1.45-1.7-2.4-6.5-2.4-7.46s-8.42-30.3-8.9-31.75-2.9-11.78-2.9-11.78V289s1.2-2.16 1.2-7-3.6-5.78-3.6-5.78l-19.73 1.93z"/></g><g class="F"><path d="M311 279.6s.5 4.1 1.93 4.33 16.35 4.33 22.85-.48c0 0 1.2-3.6.48-4.57s-2.4-.48-11.06-.48-14.2 0-14.2 1.2z"/><path d="M333.1 225.7s-8.9 1.2-12.75 5-7.2 10.83-8.9 17.32-2.9 30.3-.5 31.5 22.6 2.4 26 1-.24-12.75-.24-17.08 3.85-19 3.13-27.17-6.76-10.58-6.76-10.58z"/></g><path d="M301 250.7c-.1-9.9-4.15-18.35-9.52-22v-2l-14.8.15c-8.33.1-15 11-14.83 24.3s7 24.07 15.34 24L292 275v-2c5.2-3.87 9.06-12.4 9-22.3z" class="E"/><path d="M307.64 250.64c-.1-10.4-4.12-19.28-9.76-23.14v-2.13l-6.34.07c-8.76.1-15.73 11.52-15.58 25.53s7.36 25.3 16.12 25.2l6.34-.07v-2.12c5.5-3.98 9.33-12.98 9.22-23.34z" class="D"/><ellipse cx="298.13" cy="250.74" rx="15.85" ry="25.37" transform="matrix(.999943 -.010646 .010646 .999943 -2.63 3.16)" class="K"/><path d="M310.36 250.14c.07 6.63-3.24 12.05-7.4 12.1s-7.57-5.3-7.64-12 3.24-12 7.4-12.1 7.57 5.36 7.64 12zM428.2 300a121.35 121.35 0 0 0 1.05-18.59c-3.25 1.5-22.2 2.05-23.95 2.1s-20.7-.6-23.95-2.1a121.35 121.35 0 0 0 1 18.59c1.3 8.12 12.83 40.6 13.1 42.16a34.94 34.94 0 0 0 1.31 4.46s-6.55 4.7-9.43 6.54-.78 2.62 2.1 2.62 8.9-.8 10.73-.8c1.62 0 4.44-1.4 5.1-1.75.66.34 3.48 1.75 5.1 1.75 1.84 0 7.86.8 10.74.8s5-.8 2.1-2.62-9.43-6.54-9.43-6.54a34.94 34.94 0 0 0 1.31-4.46c.3-1.6 11.83-34.08 13.14-42.16z" class="E"/><path d="M401.34 230.5s-10.13 3.3-15.36 6.63-10.48 21.3-10.48 22a22.41 22.41 0 0 1-1.22 3.66s-5.24-1.22-6.28 3.14 5.23 9.95 8.55 10.13 4.36-.87 4.36-.87-2.1 4.2-1.22 5.93 8.2 8.2 22.7 8 25-2.62 26.53-4.7 1.75-6.46 1.75-6.46 5.4-1.4 7.33-4.9 1.57-7.16.52-10.82-6.46-14.3-10.12-20.23-11.35-9.25-15-10.3-9.62-1.2-12.06-1.2z" class="F"/><path d="M404.4 245.2c1.45-.48 6-4.52 7.75-8.56a19.47 19.47 0 0 0 1.45-4.85l-.23-.07c-3.66-1.05-9.6-1.22-12-1.22 0 0-2.12.7-4.9 1.76a17.77 17.77 0 0 0 1.19 6.32c1.58 4.04 5.34 7.1 6.75 6.62z" class="D"/><path d="M421.06 253.35s4.2 22.35 8.94 24.65m-49.1-2.82l5.6-21.65m41.33 9.92s-2.9.65-2.9 2.75m-46.37-2.43s3.23 2.1 2.9 5.33" class="G H"/><path d="M400.2 355c1.62 0 4.44-1.4 5.1-1.75.66.34 3.48 1.75 5.1 1.75 1.84 0 7.86.8 10.74.8s5-.8 2.1-2.62c-2.5-1.6-7.77-5.35-9.1-6.3-3.1 2.82-9.2 2.12-9.2 2.12a31.37 31.37 0 0 1-3.67-.78c-1.83-.53-4.45-1.57-4.45-1.57s-6.55 4.7-9.43 6.54-.78 2.62 2.1 2.62 8.9-.8 10.73-.8z" class="F"/></g><g class="G H B C"><path d="M404.92 346.67V301" stroke="#fff"/><path d="M405.3 353.2l-.38-4.27v-2.26" class="J"/><path d="M401.25 299.44h7.6" stroke="#fff"/></g><g class="J B"><path d="M391.33 204.3s-5.44 3.26-4.63 6.12 3.27 3.4 2.73 5-2.43 2.6-.28 3.6a18.36 18.36 0 0 0 3.82 1.23s2 6.94 5.44 8.16 9.4.4 13.62-.13a7.05 7.05 0 0 0 6.12-5.18c.4-1.5-1.77.28-2.86-1.36s.55-5.85 1.77-9.53-2.45-10.62-7.2-12.93-13.85-1.1-18.52 5.03z" class="C E"/><g class="D C"><path d="M400.47 228a36.87 36.87 0 0 0-1.4 7c-.18 3 2.27 6.3 4.9 6.1s4.88-5.4 5.23-8-.87-9.6-.87-9.6-4 .18-5.6 1.57a9.68 9.68 0 0 0-2.26 2.92z"/><path d="M396.92 208.1s.13 4.08 4.22 8a25.29 25.29 0 0 0 8.57 5.45 7.53 7.53 0 0 1-.68 2.58 1.89 1.89 0 0 1-1.9 1h-1.37s-2 4.7-4.42 5.37-8.37.2-9.2-5.78-.95-10.9-.27-12.12 5.04-4.5 5.04-4.5zm42.78 52.7a11 11 0 0 0 1.11-4c0-1.82-3.38-4.43-4-5.08s-1.24-.58-1.37.33a3.74 3.74 0 0 0 1.17 2.73 3.06 3.06 0 0 1 1.05 1.57c.06.45-1.12 2.66-.53 4.1s2.25 1.86 2.57.36z"/></g><g class="G"><path d="M304.28 250.6s14.72 4.7 23.57 15.7 14.66 9.42 25.66 5.76 15.2-16.76 30.38-5.76 18.33 15.18 30.9 8.9 19.37-21.47 30.9-16.24 6.28 32 7.33 45-.53 45.57 2.1 49.76 29.33 1 29.33 1" class="H L"/><path d="M331.85 233.1s-2.93-4.78-7.25-3.53c-4.57 1.32-6.93 7.85-8 11.92s-1.8 8.47-3.75 12.26c0 0-8.66-.15-13.5-1.55a114.2 114.2 0 0 1-10.86-4s-1.7-2.4-2.92-2.86-4.35-1.4-4.58-.67 3.64 3.1 3.64 3.1-7.2 1-7.92 1.77 5.1 3.07 5.1 3.07 2.17.7 7.45-.56c0 0 19.37 12.3 23.23 13.7s6 1.86 8.63-3.22 11.36-17.68 12.75-22.75" class="C F"/></g><g class="D C"><path d="M293.53 250.25l-5-2s-1.7-2.4-2.92-2.86-4.35-1.4-4.58-.67 3.64 3.1 3.64 3.1-7.2 1-7.92 1.77 5.1 3.07 5.1 3.07 2.17.7 7.45-.56l2.7 1.7zm74.67 12.4a11 11 0 0 1-1.11-4c0-1.82 3.4-4.42 4-5.07s1.23-.58 1.36.33a3.74 3.74 0 0 1-1.17 2.73 3.06 3.06 0 0 0-1.05 1.57c-.06.44 1.12 2.66.53 4.1s-2.24 1.84-2.56.35z"/><path d="M370.52 257.15s-2.8 5.15-1.17 7 3.2-4.16 3.5-5.82-1.3-3.33-2.32-1.18z"/><path d="M372.82 259s-2.8 5.15-1.17 7 3.2-4.16 3.5-5.82-1.3-3.4-2.32-1.18z"/><path d="M375.35 259.43s-2.8 5.15-1.17 7 3.2-4.16 3.5-5.82-1.3-3.34-2.32-1.18z"/><path d="M378.6 259.47s-2.6 4-1.18 5.5 2.95-3.24 3.25-4.6-1.1-2.7-2.07-.9zm59.25-2.12s2.8 5.15 1.17 7-3.2-4.17-3.5-5.83 1.3-3.33 2.32-1.17z"/><path d="M435.55 259.15s2.8 5.15 1.17 7-3.2-4.17-3.5-5.83 1.3-3.32 2.32-1.17z"/><path d="M433 259.63s2.8 5.15 1.17 7-3.2-4.16-3.48-5.83 1.3-3.33 2.3-1.17z"/><path d="M429.78 259.67s2.6 4.05 1.18 5.5-2.95-3.24-3.24-4.6 1.1-2.7 2.06-.9zM85.72 316.65v5.68a18 18 0 0 0-4.13 7.58c-1.2 4.64-5 24.6-4 25.13S88 357.7 91 357.26c3.44-.52 6.37-.34 4.64-2.24s-10.82-7.2-10.82-7.2 10-14.46 12.22-19.8 2.58-13.6 2.58-13.6l-13.42-.5z"/></g><path d="M91 357.26c3.44-.52 6.37-.34 4.64-2.24s-10.82-7.2-10.82-7.2l-.34 2.06-6.55-.8c-.48 3.34-.7 5.8-.34 6 1.07.48 10.4 2.64 13.4 2.2z" class="C E"/><path d="M118.6 319.6l1.55 2.76a10.07 10.07 0 0 0-.52 8.09c1.55 4.82 5.17 22.55 5.17 23.58s2.23 1.72 4 1.72 6.67.34 7.36.34 5.68.86 7.4-.17-2.2-3.1-4.77-4.3-8.26-4.3-8.26-4.3 1.37-14.12 1.37-20.32 1.38-8.26-.5-12.05-13.77 1.73-13.77 1.73z" class="C D"/><path d="M138.74 351.6l-8.26-4.3-.7 2.58-5.53 1 .54 3.14c0 1 2.23 1.72 4 1.72l7.36.34c.7 0 5.68.86 7.4-.17s-2.24-3.1-4.82-4.3z" class="C E"/><path d="M109.33 205a47.36 47.36 0 0 0-4.61-6.54c-2.37-2.67-9.8-2.52-13.06 1s-2.23 9.8-1 11.58 3.7 10.1 3.7 10.1l.6 5.94 13.8 4.9-2.82-9.65s5.35-1 5.8-2.67-.9-7.28-.9-7.28 1.78-1.2 1.63-2.23-3.15-5.15-3.15-5.15z" class="C D"/><path d="M93.44 211.4s2.36 2 3.65-.3 2.27-4.53 2.27-6.47-4.85-3.55-1.62-4.85 5.56 1.6 7-1.3.13-3.2-7.63-3.2-11.64 3.88-10 8.73a65.31 65.31 0 0 0 4.85 10.34z" class="C E"/><g class="H C"><path d="M109.77 208.43a3.71 3.71 0 1 1-3.71-3.71 3.71 3.71 0 0 1 3.71 3.71z"/><path d="M109.23,205.14a3.62,3.62,0,0,1,1.36-.27,3.49,3.49,0,0,1,1.69,6.54" class="G"/></g><g class="D C G"><path d="M102.35 208.43l-8.9 2.97"/><path d="M96 213.33s-1.78-3.7-3.56-3-.9 6.54.9 7.13a3.84 3.84 0 0 0 3.41-.89s1.5 3.12 3.27 4"/></g><path d="M84.32 280l-1.1 14.22-3.32 21.05s7.76 6.1 15 6.1 9.23-.92 9.23-.92l4.06-21.6 4.06 22.7s8-1.3 13.3-2.6a35.08 35.08 0 0 0 10.34-4.8l-10.7-27.88-2.32-14.38s-12 1.1-19.2 1.48-16.8-1.48-16.8-1.48z" class="C F"/><path d="M91.93 223.18s17 5.93 22.25 11.7c2.9 3.2 6.15 25.1 7.32 30.45s3.2 16 3.2 16-10.37 4.68-18.4 4.85-23.4-3.5-23.4-3.5 1.83-23.73 1.83-34.76.17-18.23 2-21.74c.01.03 3.02-3.32 5.2-2.98z" class="C E"/><g class="G H C"><path d="M87.46 284.38s.92 15.5 0 21.24a44.06 44.06 0 0 1-3.32 10.71m3.7-24.56a8.47 8.47 0 0 0 5.54-6.28"/><path d="M80.8 312.27s9.24 7.94 23.64 5m7.4-.4s15.14-1.66 21.8-6.1"/></g><g class="E C"><path d="M179.56 216l-6.55 4.8c-5.1 3.72-1.08 9.34-1.08 9.34s-3.64.57-8.5 5.68 2.17 13.88 8.74 15.25 14.25-6.76 16.55-14.3-.74-18.9-2.27-21.26-6.9.5-6.9.5z"/><path d="M198.84 215s2.53-3.9.24-9.58-9.13-8.26-15.8-4.15a11.73 11.73 0 0 0-5.29 13.27c.65 2.62 3.93 6.65 4.62 6.7s6.68 2.24 10.77.33 5.45-6.58 5.45-6.58z"/></g><path d="M169.4 347s4.75 7.4 13 8.65.83-6.14-.56-7.26-11.32-3.54-12.44-1.4zm43.96 1.9s9.07 2.23 8.37 4.2-8.1 1.8-12.4.7-8.38-2.8-7.82-4.6 11.86-.28 11.86-.28z" class="K C"/><path d="M187.57 229.7s-12.14 1.78-14.36 6.07.9 27.67.9 27.67-5.18 11.42-5.25 18.78 3.2 20.3 2.95 23.54l-3.58 41c0 1 7 3.24 17.1 4.44s29.4-2.4 29.4-2.4-.38-21.7.63-34.64-.43-24.57-3-29.4-14.54-22.22-14.54-22.22 5.8-10.52 6.16-15.12-1.5-7-5.9-12.3a15.27 15.27 0 0 0-10.51-5.44z" class="C F"/><path d="M197.84 262.56s5.8-10.52 6.16-15.12-1.5-7-5.9-12.3l-.65-.73-.16.15c-4.5 7.35-19.38 19.9-23.8 23.57l.63 5.3s-5.18 11.42-5.25 18.78a67.11 67.11 0 0 0 1 10c10.5-6 24.57-17.23 32.18-23.5l-4.2-6.17z" class="C K"/><g class="D C"><path d="M185.33 221.12a75.07 75.07 0 0 1 .55 8.27c-.16 2.05.5 6.73 4 8.2s5.7-.58 5.7-2.64a20.8 20.8 0 0 0-1-5l.1-5.65s-6.04-3.78-9.34-3.18z"/><path d="M182.2 217.45s-2.57-2.26-2.65 1 2.92 4.34 3.58 4.56a2.21 2.21 0 0 0 1.58-.39s4.66 4 8.4 4.26 5.26-1.47 6.14-8.26-6.13-13.68-6.13-13.68-6 11.06-10.92 12.5zM125 281.18a9 9 0 0 1 .56-3.4c.62-1.36 4-2.14 4.75-2.4s1.13 0 .9.72a3.1 3.1 0 0 1-1.81 1.64 2.54 2.54 0 0 0-1.33.81c-.2.32-.07 2.37-1 3.24s-2.4.63-2.08-.6z"/></g><g class="G"><path d="M201.64 251.1s-12-1.57-17.3 6.8-15.18 37.7-33.5 42.42-23.57-33-34.57-31.95c-10.48 1-17.8 0-24.1 11.52-3.36 6.17-20.16 73.54-28.1 74.23-25.3 2.2-41.57.77-41.57.77" class="H L"/><path d="M92.7 223.66s-2.77-1.1-6.47 1.1-13.66 26.4-12.92 29 11.26 7.4 17.17 9.05 16.62 3.7 16.62 3.7 3.32 5.17 4.43 5.35a24.06 24.06 0 0 0 4.8-.55s2 1.66 2.77-.2-.74-4.24-2.4-6.1-8.68-2.77-8.68-2.77L89 249.14l8-14.77" class="C E"/></g><path d="M111.54 271.85a24.06 24.06 0 0 0 4.8-.55s2 1.66 2.77-.2-.74-4.24-2.4-6.1-8.68-2.77-8.68-2.77L89 249.14l2.84-5.3c-7.1-4.43-11.83-4.1-14.38-3.2-2.55 6.12-4.5 11.92-4.15 13.1.74 2.6 11.26 7.4 17.17 9.05s16.62 3.7 16.62 3.7 3.33 5.17 4.44 5.35z" class="C D"/><path d="M230.5 251.52c-.8-8.73-5-15.9-10-18.75l-.16-1.78-13.06 1.2c-7.35.68-12.42 10.77-11.33 22.53s7.93 20.73 15.28 20l13.06-1.2-.17-1.78c4.4-3.68 7.2-11.5 6.38-20.22z" class="C E"/><g class="D C"><path d="M236.4 251c-.85-9.17-5-16.72-10.3-19.72l-.18-1.87-5.6.52c-7.72.72-13.05 11.3-11.9 23.67s8.34 21.8 16.06 21.07l5.6-.52-.17-1.87c4.62-3.94 7.34-12.14 6.5-21.28z"/><ellipse cx="228.01" cy="251.75" rx="14.04" ry="22.47" transform="matrix(.995725 -.092371 .092371 .995725 -22.28 22.14)"/></g><path d="M248 243.23l-21.7 2a2.32 2.32 0 0 1-2.53-2.1h0a2.32 2.32 0 0 1 2.1-2.53l21.7-2a2.32 2.32 0 0 1 2.53 2.1h0a2.32 2.32 0 0 1-2.1 2.53zm1.6 17.2l-21.7 2a2.32 2.32 0 0 1-2.53-2.1h0a2.32 2.32 0 0 1 2.1-2.53l21.7-2a2.34 2.34 0 0 1 2.53 2.1h0a2.32 2.32 0 0 1-2.1 2.53z" class="K C"/><path d="M180.07 231.33s-5.22 1-7.7 4-7.54 26.15-6.37 28.8 19.92 6 25.7 6.48a83.17 83.17 0 0 0 13.94-.62s5-.13 6.37-.36 3.9-1.58 3.93-2.1-.2-1.73-2.08-1.88-5.88-1.5-6.4-1.53a32.6 32.6 0 0 1 3.65-.74s.26-1-1.8-1-3.93-.14-4.7 1a17.2 17.2 0 0 0-1.42 2.8s-11.55.8-17.82-2.25l-8.25-4.08 4.5-18" class="C F G"/><g class="D C"><path d="M212 269.67c1.4-.23 3.9-1.58 3.93-2.1s-.2-1.73-2.08-1.88-5.88-1.5-6.4-1.53a32.6 32.6 0 0 1 3.65-.74s.26-1-1.8-1-3.93-.14-4.7 1a17.2 17.2 0 0 0-1.42 2.8s-11.55.8-17.82-2.25l-8.25-4.08 2.74-11a39.2 39.2 0 0 0-11.17-2.77c-1.87 7.54-3.4 16.42-2.7 18 1.16 2.66 19.92 6 25.7 6.48a83.17 83.17 0 0 0 13.94-.62s5-.1 6.37-.32zm-84.46 9.57s-3.86 2.9-3.27 4.8 3.8-2 4.6-3.15.17-2.9-1.34-1.65z"/><path d="M128.3 281.83s-3.85 2.9-3.27 4.8 3.82-2 4.6-3.15.17-2.9-1.34-1.65zm1.83 1.67s-3.85 2.9-3.26 4.8 3.8-2 4.6-3.15.17-2.9-1.35-1.65z"/><path d="M131.64 284.87s-3.33 2.14-2.77 3.72 3.3-1.4 4-2.33.13-2.4-1.23-1.4z"/></g><path d="M176.18 138.7V124c0-8.84 6.1-14.76 15.25-14.76s15.32 5.92 15.32 14.76v14.7c0 8.9-6.1 14.82-15.32 14.82s-15.25-5.9-15.25-14.8zm24.64.25V124c0-5.74-3.77-9.57-9.4-9.57s-9.32 3.83-9.32 9.57v15c0 5.68 3.77 9.45 9.32 9.45s9.4-3.8 9.4-9.45zm14.38 5.75a25 25 0 0 1-1.11-7.53 24 24 0 0 1 1.05-7.41c1.8-5.44 6.55-8.7 12.84-8.7 6 0 10.63 3.27 12.48 8.65a23.34 23.34 0 0 1 1.11 7.41 24.54 24.54 0 0 1-1.11 7.59c-1.85 5.5-6.55 8.77-12.54 8.77-6.17 0-10.93-3.27-12.72-8.77zm19.7-1.66a22.88 22.88 0 0 0 .68-5.81 23.59 23.59 0 0 0-.62-5.74 7.4 7.4 0 0 0-14.2 0 20.65 20.65 0 0 0-.68 5.74 21.83 21.83 0 0 0 .68 5.81 7.36 7.36 0 0 0 14.14 0zm41.02-5.7a25.28 25.28 0 0 1-.93 7.48c-1.67 5.3-5.62 8.64-11.86 8.64a9.33 9.33 0 0 1-7.16-3.15c-.2-.18-.37-.12-.37.13v13.4a.87.87 0 0 1-.93.92h-4.07a.87.87 0 0 1-.93-.92v-41.38a.88.88 0 0 1 .93-.93h4.07a.88.88 0 0 1 .93.93v1.6c0 .24.18.37.37.18a9.19 9.19 0 0 1 7.16-3.21c6.06 0 9.95 3.2 11.67 8.4a23.29 23.29 0 0 1 1.12 7.9zm-5.93-.12a16.15 16.15 0 0 0-1.55-7.66 6.26 6.26 0 0 0-5.92-3.39 5.94 5.94 0 0 0-5.38 3.33c-1 1.8-1.48 4.4-1.48 7.78s.56 6.05 1.6 7.9a5.74 5.74 0 0 0 5.25 3.15 6.2 6.2 0 0 0 5.49-3 14.62 14.62 0 0 0 1.99-8.12zm12.1 7.67v-.37a.88.88 0 0 1 .93-.93h3.83c.55 0 .92.2.92.43v.5c0 2.22 2.72 4.32 6.6 4.32s6.3-1.85 6.3-4.26c0-2.66-3.1-3.52-6.8-4.57-5.44-1.48-11.55-3.4-11.55-9.76 0-5.62 4.82-9 11.86-9 7.28 0 12 3.76 12 8.9 0 .5-.37.8-.93.8h-3.7c-.56 0-.93-.18-.93-.43v-.37c0-2.3-2.4-4.2-6.54-4.2-3.6 0-6.12 1.42-6.12 3.9 0 2.66 3 3.58 6.92 4.7 5.3 1.42 11.67 3.22 11.67 9.7 0 5.62-4.82 9.14-12.17 9.14s-12.3-3.78-12.3-8.47zm32.72 3.63a4.5 4.5 0 0 1 9 0 4.37 4.37 0 0 1-4.51 4.26 4.28 4.28 0 0 1-4.49-4.26zm2.16-10.8l-.55-27a.88.88 0 0 1 .93-.93h4.07a.88.88 0 0 1 .93.93l-.5 27a.87.87 0 0 1-.92.92h-3a.88.88 0 0 1-.94-.92z" class="E C"/></g><defs ><path id="B" d="M81.9 305.64s25 57 88.2 75.64 130.7-6.2 185.87-24.87 84.17-66.4 71.88-115.36-58.76-45.43-102.1-88.9-48.28-61.6-108.34-74.45S91.63 115.4 75.2 187s6.72 118.64 6.72 118.64z"/><path id="C" d="M403,228.6s22.92,2.27,34.53,16.48c0,0,12.28-16.46,34.32-16.12a44.55,44.55,0,1,0-68.86-.32Z"/><path id="D" d="M437.93 240.75s7.73-13.93 21.66-18.2c0 0-14.7 3.5-22 15.48z"/><path id="E" d="M309.87 243s18.76 1.85 28.26 13.48c0 0 10.05-13.47 28.1-13.2a36.46 36.46 0 1 0-56.36-.25z"/><path id="F" d="M338.46 252.9s6.34-11.4 17.73-14.9c0 0-12 2.85-18 12.67z"/><path id="G" d="M128.36 243s18.76 1.85 28.26 13.48c0 0 10-13.47 28.1-13.2a36.46 36.46 0 1 0-56.36-.25z"/></defs></svg>