<svg xmlns="http://www.w3.org/2000/svg" xmlns:xlink="http://www.w3.org/1999/xlink" viewBox="0 0 500 500" xmlns:v="https://vecta.io/nano"><style><![CDATA[.B{fill:#218838}.C{fill:#263238}.D{fill:#ffa8a7}.E{fill:#37474f}.F{fill:#455a64}.G{opacity:.2}.H{fill:#f28f8f}.I{fill:#e0e0e0}]]></style><ellipse cx="249.03" cy="368.25" rx="228.44" ry="118.95" fill="#f5f5f5"/><g fill="#e6e6e6"><ellipse cx="395.38" cy="348.61" rx="60.93" ry="35.18"/><path d="M150 327.73c23.3 13.46 24.26 35.68.94 49.14s-62.05 13.06-85.37-.4-23.3-35.28 0-48.74 61.1-13.46 84.43 0z"/><path d="M340.14 400.26l-76.52-44.18a9.57 9.57 0 0 0-8.66 0l-76.52 44.18c-2.4 1.38-2.4 3.62 0 5l34.85 20.12-32.55 18.8c-6.6 3.8-17.37 3.8-24 0l-51.2-29.56c-2.82-1.63-4.38-3.68-4.38-5.76s1.56-4.14 4.38-5.77l45.37-26.2a2 2 0 1 0-2-3.46l-45.35 26.18c-4.1 2.38-6.38 5.66-6.38 9.24s2.27 6.85 6.38 9.23l51.2 29.56a30.56 30.56 0 0 0 28 0l34.55-19.94 37.7 21.75a9.57 9.57 0 0 0 8.66 0l76.52-44.18c2.35-1.38 2.35-3.62-.04-5z"/></g><path d="M427.58 332.1s2.78-41.18 2-56.36c-.65-12-2.28-17-2.62-19.7 0 0-2.95-28-3.2-51.9-.12-11.48-1.18-19.64-7.47-33.28l-40.43 9.67c-.82 6.06-3.6 46.36-4.26 82.2-.57 31.37.32 58.83.32 58.83v1.65c0 1.84-.4 3.12-1.58 6.06a35.32 35.32 0 0 1-6.26 10.36c-.83.9-6.6 5.94-7.36 7-2.48 2.9 2.66 4.52 6.47 4 4-.54 10.26-2.07 12-4.5 1.18-1.64 2.07-7.35 3.28-9 4.1-5.58 5.77-8 5.8-9.76.06-3.22-1.05-4.5-1.45-6.3.33-3.8 8.54-35.05 8.68-46.12.07-5.27-.3-12.53-.3-12.53l6.36-36.52c2.46 9.12 6.78 31.76 8.24 40.45l9.14 54.14 2 12.35.1 1.24c.1 1.58 1.24 18.48 1.86 22 1.3 7.4 7.87 6.46 8.92.48.9-5.08-.22-20.84-.25-22.77z" class="D"/><path d="M427.58 332.1c1.86 0 .64 7.2 1.12 11.82.5 4.95 2.13 8.57 2.6 12.62a16.48 16.48 0 0 1-1.55 10.39c-1.3 3-7.8 7-10.26 2.8s-3-9.08-2.7-13.7 0-7.72.1-11.35c.1-3.2-2.26-11.37.15-11.83l.1 1.24c.87 1.73 9.65 2.07 10.53-.27z" class="E"/><path d="M384.7 331.27c.57 2.3 0 8.65 0 8.65s-1 2.2-4.57 3.64l-1.6-8.82z" class="C"/><path d="M380.1 343.56l-7.86-2.58-1.9-6.98 8.84 4.47.92 5.1z"/><path d="M371.93 323.2v-1.65c-1.07.52-3.42 9.13-6.6 15-2.9 5.4-8.65 8.4-10.52 10.74-2.5 3.13 2.36 7.18 10.15 5.5 3.87-.83 9.73-3.3 11.32-5.9s2.12-7.4 3.42-9.33 4.4-4.13 5-6.3a12 12 0 0 0 0-6c-.6-2-1.15-4.4-1.83-4.17v1.5c-.52 1.06-2.4 2.3-6.34 2.52-1.92.1-3.74-.2-4.6-1.9z" class="E"/><path d="M375.05 180s-2.67 29.67-3.53 55.94-.1 60.17-.1 60.17 2.7 1.94 8.68 2.2 8-1.72 8-1.72 3.65-11.9 4.22-20.3a85.71 85.71 0 0 0 0-13.63l5.33-35.06 7.53 38.7 7.24 41.06s2.54 2.34 9.06 2.22c5.77-.1 7.44-2.18 7.44-2.18s1.4-22.62 1.07-32.28c-.27-8.52-2.22-15.3-2.6-20.83s-.6-37-1-49-1.4-22.3-11.66-36.74z" class="F"/><path d="M397.7 227.65l-4.44-22s-7.73-2-11.34-6.74c0 0 1 5.24 9 8.6l4.72 21.88L394 252z" class="E"/><path d="M318.56 174.53a19.1 19.1 0 0 0 8.51-.63 16.74 16.74 0 0 1-3.37-2.23 2.33 2.33 0 0 1-.4-3.22c.37-.4 1.3.53 3.37 1.12 2.66.75 4.6.9 7.15 2.4a4.69 4.69 0 0 0 3.2.56c6.24-1.17 20.8-8 27.46-11.56 1.36-5.55 3.72-13.7 6.63-23.9 2.7-9.38 7-13.48 13.88-13.33l-1 20.37s-3.28 14.07-7.34 25.56c-.7 2-3.56 4.33-8.78 6.27-6.76 2.5-14.92 4.88-24.9 7.6a77.29 77.29 0 0 1-12.34 2.45c-10.54.9-14.58-2-16-4.08-4.04-5.74-1.65-8.5 3.9-7.4z" class="D"/><path d="M402.72 123.6l9.62.74a22.36 22.36 0 0 0 7.24 21.54l-4.3 17.28c.14 2.14 3.68 9.34 7.1 17.08-6.45 8.64-38.1 11.6-48.4 4 1.6-8.14 2.78-14.32 3.1-17.4l-.52-11.17c-12.94-10.6 2.67-26.78 8.42-31.92l7.22-.32z" class="B"/><path d="M443.23 209.68a5.39 5.39 0 0 1-2.06-4.64c.17-1.6.54-3.63 1.2-4.4s4.87-6.5 6.73-3.17c2 3.62 1.6 5.1 1.6 5.1z" class="H"/><g class="E"><path d="M430.27 286a25.84 25.84 0 0 1-12.75-3.86L367.6 253.3c-7.7-4.45-14-15.32-14-24.23v-41.9a8 8 0 0 0-12-6.9L324.1 190.4a2 2 0 1 1-2-3.46l17.53-10.13a12 12 0 0 1 18 10.37v41.9c0 7.5 5.5 17 12 20.77l49.93 28.82c6.4 3.7 12.32 4.33 16.68 1.82s6.77-8 6.77-15.35v-53.48c0-9.06 5.8-19.5 13.18-23.77l12.2-7a2 2 0 1 1 2 3.46l-12.2 7c-6.06 3.5-11.18 12.8-11.18 20.3v53.48c0 8.86-3.12 15.54-8.77 18.8a15.68 15.68 0 0 1-7.98 2.07z"/><path d="M344 193.3v3.27c0 5.23-3.67 11.6-8.2 14.2l-30.28 17.5-30.8-17.78v-26.66L304.58 170c4.75-2.2 12.27-1.85 16.8.76l14.38 8.3c4.53 2.62 8.23 9 8.23 14.22z"/></g><path d="M304.58 170c4.75-2.2 12.27-1.85 16.8.76l14.38 8.3c4.53 2.6 4.35 6.5-.4 8.7l-29.9 13.8-30.8-17.77z" class="F"/><path d="M308.4 195.18a9.07 9.07 0 0 1 4.1 7.1v21.93l-7 4-30.8-17.78v-26.6l7.8-3.6z" opacity=".15"/><path d="M272.07 179.23a2.85 2.85 0 0 1 2.88.28l30.28 17.5a9.06 9.06 0 0 1 4.1 7.11v26.08a2.85 2.85 0 0 1-1.2 2.64l-3.86 2.23a2.87 2.87 0 0 1-2.89-.28l-30.3-17.5a9.07 9.07 0 0 1-4.1-7.1V184.1a2.89 2.89 0 0 1 1.19-2.65z" class="E"/><path d="M301.38 199.22l-30.3-17.48c-2.26-1.3-4.1-.25-4.1 2.37v26.08a9.07 9.07 0 0 0 4.1 7.1l30.3 17.5c2.26 1.3 4.1.25 4.1-2.37v-26.08a9.09 9.09 0 0 0-4.1-7.11z" class="F"/><path d="M265.5 229.58v4.5c0 1.83.63 3.1 1.67 3.7l2.72 1.57a4 4 0 0 0 4.1-.36l25-14.46v-17.8l-2.72-1.57-25.05 14.46a12.69 12.69 0 0 0-5.72 9.95zm11.33-5.58a4 4 0 0 1 .16 1 8.5 8.5 0 0 1-3.85 6.67 3.62 3.62 0 0 1-1 .4 4.11 4.11 0 0 1-.14-1 8.51 8.51 0 0 1 3.85-6.67 4.74 4.74 0 0 1 .98-.4z" class="B"/><path d="M269.76 239.26a1 1 0 0 0 .17.12h0l-.1-.06-2.63-1.53c-1.05-.58-1.67-1.85-1.67-3.7v-4.5a11.64 11.64 0 0 1 1.69-5.67l2.72 1.57a11.8 11.8 0 0 0-1.68 5.67v4.5a4.59 4.59 0 0 0 1.05 3.22 2.45 2.45 0 0 0 .45.37z" class="G"/><path d="M299 206.74l-25 14.46a11.72 11.72 0 0 0-4.06 4.28l-2.72-1.57a11.78 11.78 0 0 1 4.05-4.28l25.05-14.46zm-29 32.7h-.07.07z" opacity=".5" fill="#fff"/><path d="M270 239.43h0zm7-14.43a4.27 4.27 0 0 0-.14-1.07h0c1.65-.45 2.86.58 2.86 2.64a8.52 8.52 0 0 1-3.84 6.67c-1.78 1-3.3.5-3.72-1.17a3.27 3.27 0 0 0 1-.4A8.53 8.53 0 0 0 277 225z" class="G"/><path d="M242.42 216.24v4.52c0 1.82.63 3.1 1.67 3.7l2.72 1.58a4 4 0 0 0 4.08-.38l25-14.47V193.4l-2.72-1.58-25 14.46a12.72 12.72 0 0 0-5.75 9.95zm11.33-5.6a4.33 4.33 0 0 1 .14 1.07 8.51 8.51 0 0 1-3.85 6.67 4.6 4.6 0 0 1-1 .4 3.81 3.81 0 0 1-.14-1.05 8.52 8.52 0 0 1 3.84-6.67 3.91 3.91 0 0 1 1.01-.42z" class="B"/><path d="M246.93 226.1h-.12l-2.72-1.6c-1.05-.6-1.67-1.86-1.67-3.7v-4.5a9.88 9.88 0 0 1 .45-2.84 13.48 13.48 0 0 1 1.23-2.82h0l2.72 1.56a12.69 12.69 0 0 0-.69 1.38 10.89 10.89 0 0 0-1 4.28v4.5a4.61 4.61 0 0 0 1 3.22 2.8 2.8 0 0 0 .8.51z" class="G"/><path d="M275.92 193.4l-25 14.46a11.64 11.64 0 0 0-4.06 4.28l-2.72-1.56a11.77 11.77 0 0 1 4-4.3l25-14.46zM247 226.12h-.02z" opacity=".5" fill="#fff"/><path d="M253.88 211.7a4.21 4.21 0 0 0-.13-1.06h0c1.64-.46 2.86.58 2.86 2.64a8.52 8.52 0 0 1-3.84 6.67c-1.8 1-3.3.5-3.72-1.18a3.12 3.12 0 0 0 1-.4 8.5 8.5 0 0 0 3.83-6.67z" class="G"/><path d="M250 199.55a1.49 1.49 0 0 1-1.45-1.13l-4-15.68a1.503 1.503 0 0 1 2.91-.75l4 15.7a1.48 1.48 0 0 1-1.08 1.82 1.57 1.57 0 0 1-.38.05zm-11.26 6.55a1.5 1.5 0 0 1-.93-.32L222.92 194a1.5 1.5 0 1 1 1.86-2.35l14.9 11.76a1.51 1.51 0 0 1 .25 2.11 1.48 1.48 0 0 1-1.18.57zm-20.52 14.35a1.501 1.501 0 0 1-.11-3l17.4-1.35a1.49 1.49 0 0 1 1.61 1.38 1.51 1.51 0 0 1-1.38 1.61l-17.4 1.35z" class="I"/><path d="M456.84 193.36a98.58 98.58 0 0 0-1.64-11 148.11 148.11 0 0 0-9.06-24.81c-1.67-3.2-5.44-7.84-8.1-11.77-3.78-5.55-6.44-8.66-9.3-12.43-6.32-8.27-9-8.75-16.38-9-1 2.63-3.28 13.4 4.1 22.12l15.84 16.7c.9 1.45 10.58 18 12.2 24.1a4.52 4.52 0 0 1-.38 3.23 39 39 0 0 0-2.77 8.76c-.47 2.12-1.73 3.8-1.3 4.13a2.84 2.84 0 0 0 3.51-.28 15.05 15.05 0 0 0 2.73-4.12 2.15 2.15 0 0 1 2.29 2.19c.1 1.23-.47 2.94-.9 5.07-.08.42-.18.9-.37 2.06a13.42 13.42 0 0 0-.28 2.38c2 .37 4.1-.85 7.45-4 3.03-2.94 3.23-6.8 2.38-13.34z" class="D"/><path d="M404.44 118.73c.06-2 6.56-6.68 9.85-11.66 3-4.62 7.3-17.32-2.8-21.38 0 0 2.18-6.1-1.78-9.68s-9.3-1.37-10.13.13a9 9 0 0 0-8.46-6.64 7.87 7.87 0 0 0-8.28 6.17 7.59 7.59 0 0 0-9.21 2.58c-3.7 5.1 1.2 9.8 1.2 9.8A4.25 4.25 0 0 0 373 92c.3 2.16 2.36 2.7 2.6 3.77a1.06 1.06 0 0 1-1.81.94 2.18 2.18 0 0 0 2.56 1.73c2.33-.13 4.4-3.3 4.4-3.3z" class="C"/><path d="M383.24 85.05c-3 1.3-5.83 5.87-5.8 18.65 0 10.83 3.36 13.57 5 14.38s4.95.4 8.14-.1v6.23s-5.77 7.16-.6 10.72c13.32-2.33 14.34-11.07 14.34-11.07l.24-13.58s1.83 1.92 5-.9c2.66-2.33 3.62-6.32 1.62-8.52s-4.56-2.37-6.88.08c0 0-4.25.28-10.64-3.73s-8.67-8.08-10.43-12.16z" class="D"/><path d="M390.9 110.48a1.56 1.56 0 0 1-1.48 1.66 1.61 1.61 0 1 1 1.48-1.66z" fill="#b16668"/><path d="M382.68 100a1.44 1.44 0 1 1-1.5-1.45 1.47 1.47 0 0 1 1.5 1.45zm11.07.66a1.56 1.56 0 0 1-1.48 1.66 1.59 1.59 0 0 1-1.6-1.56 1.541 1.541 0 1 1 3.08-.1zm-12.07-6.4l-3.05 1.8a1.7 1.7 0 0 0 2.4.65 1.83 1.83 0 0 0 .65-2.44zm22.7 4.9v6a2.82 2.82 0 0 1-2.89-2.92 3.1 3.1 0 0 1 2.89-3.08z" class="C"/><path d="M386.62 98.57l-.6 8.64-4.56-1.07 5.17-7.57zm4 19.43c3.35-.4 10.27-2.3 11.4-5.13a7.35 7.35 0 0 1-2.48 3.57c-2.1 1.8-8.93 3.66-8.93 3.66z" class="H"/><g class="B"><path d="M430.9 51.18a13.78 13.78 0 0 1 3.55 2 10.75 10.75 0 0 1 2.65 2.79 8.68 8.68 0 0 1 1.3 3.44 7.65 7.65 0 0 1-.47 3.87 7.9 7.9 0 0 1-1.59 2.66 9.5 9.5 0 0 1-2.13 1.68 14.81 14.81 0 0 1-2.4 1.1l-2.36.85a11.94 11.94 0 0 0-2 .94 3.57 3.57 0 0 0-1.45 1.34 1.76 1.76 0 0 1-.66.64 1 1 0 0 1-.86.05l-3.12-1.17a1.18 1.18 0 0 1-.67-.63 1 1 0 0 1 0-.89 7.71 7.71 0 0 1 1.74-2.56 10.91 10.91 0 0 1 2.25-1.63 15.6 15.6 0 0 1 2.46-1.06l2.35-.83a10.4 10.4 0 0 0 1.89-.92 2.79 2.79 0 0 0 1.12-1.38 3.29 3.29 0 0 0-.34-3.06 6 6 0 0 0-3.11-2.31 5.73 5.73 0 0 0-6.43 1.55 2.59 2.59 0 0 1-.69.52 1.15 1.15 0 0 1-.84-.06l-3.32-1.25a.93.93 0 0 1-.54-.49.85.85 0 0 1 0-.75 6.67 6.67 0 0 1 2-2.6 10.71 10.71 0 0 1 3.27-1.86 13 13 0 0 1 4.07-.74 11.48 11.48 0 0 1 4.33.76zm-7.12 23.9a1.1 1.1 0 0 1 .65.62 1.13 1.13 0 0 1 0 .9l-1.36 3.6a1.1 1.1 0 0 1-.62.65 1.13 1.13 0 0 1-.9 0l-3.53-1.33a1.1 1.1 0 0 1-.65-.62 1.13 1.13 0 0 1 0-.9l1.36-3.6a1.15 1.15 0 0 1 .62-.66 1.17 1.17 0 0 1 .9 0z"/><use xlink:href="#B"/></g><use xlink:href="#B" fill="#fff" opacity=".6"/><path d="M76.8 345.7c3.17 1.93 7.38 2 11.35.6l3-21-14-3.58z" class="D"/><path d="M99.4 365.8c.35.36.14 3-.3 3.6s-2.84 2.6-7.28 2.67c-4.23.07-8-.7-10.36-2.4s-3.5-3.5-3.6-5.92.3-4.7-.75-6.62-2.3-3.5-2.6-4.45a12 12 0 0 1 0-5.17z" class="C"/><use xlink:href="#C" class="B"/><use xlink:href="#C" class="G"/><path d="M92.2 354.28c-1.18-1-3.94-1.15-5.46-1.07a9.22 9.22 0 0 0-4.37 1.27 1 1 0 0 1-1.25-.17h0a.92.92 0 0 1 .16-1.4 9.45 9.45 0 0 1 4.93-1.53c3.8-.06 4.8.62 4.8.62s1.64 1.2 1.2 2.28zm2.66 3.54c-1.5-1-4.54-1-6.06-.95a8.6 8.6 0 0 0-4.25 1.36 1 1 0 0 1-1.26-.17h0a.91.91 0 0 1 .17-1.4 9.55 9.55 0 0 1 5-1.66c3.73-.07 4.66.75 4.66.75a3.07 3.07 0 0 1 1.74 2.07zm-9.93-10.07a9.27 9.27 0 0 1 4.65.64c.63.4 1 1.46.57 1.7a8.66 8.66 0 0 0-4.15-.79 12.24 12.24 0 0 0-4.07.89 7.62 7.62 0 0 0-1 .46.87.87 0 0 1-1.2-.44h0a.84.84 0 0 1 .38-1 11.93 11.93 0 0 1 4.82-1.46z" class="F"/><path d="M116.27 337.82c2.44 6.1 6.26 4.23 12.08.7l.88-20.86-14.8-1.37z" class="D"/><path d="M150.7 352.53a4 4 0 0 1-.32 2.93c-.46.84-5.1 3.14-11.14 2.4a25.22 25.22 0 0 1-12.32-5.06c-2.23-1.66-4.62-2.07-7.62-2.4s-5.25-1.38-5.84-2.82.3-3.82.3-3.82z" class="C"/><use xlink:href="#D" class="B"/><use xlink:href="#D" class="G"/><path d="M134.4 340a2.76 2.76 0 0 0-2.1-1.57c-1.32-.32-3.73.54-5.26 1.67a1.1 1.1 0 0 0 .06 1.82h0a1.12 1.12 0 0 0 1.26-.07 8.32 8.32 0 0 1 6.04-1.85zm4 2.57a3.15 3.15 0 0 0-2.5-1.46 9.76 9.76 0 0 0-5.76 1.81 1.07 1.07 0 0 0 0 1.76h0a1.07 1.07 0 0 0 1.22-.08 8.42 8.42 0 0 1 7.04-2.03zm4.47 2.33a3.51 3.51 0 0 0-2.6-1.34 9.46 9.46 0 0 0-5.53 1.84 1.07 1.07 0 0 0 .06 1.76h0a1 1 0 0 0 1.21-.07 8 8 0 0 1 6.86-2.19zm-66.45-55.5c.45-10.07 2.6-15.3 2.9-18.1 0 0 .82-55.4 2.17-72.2l49.6-2.1c.73 18 1.4 66.36 1 72.76l-2.86 59.3c-7 2.2-14.47-1-14.47-1l-4.84-36.92a85.23 85.23 0 0 1 .46-18l-3.17-43.07-5.72 46c-2.17 14.4-11.5 59.07-11.5 59.07-6.7 1.67-13.22-1.22-13.22-1.22s-1.02-29.92-.36-44.5z" class="F"/><path d="M107.2 230.1l.94-5.94c2.9-.43 10.2-5 14.54-9a34.5 34.5 0 0 1-12.16 11.21l-.15 46.78z" class="E"/><path d="M127.55 167.8l-9.17-20.64-1.47-21a56.64 56.64 0 0 1 6.41.57c3.12.5 8.07 3.47 10.33 9.1 1.7 4.17 10.47 29.6 10.47 29.6l15.3-8.06c3.92-2.5 5.3-6.62 7.8-9s5-2.74 7.77-4.65 3.86-3.44 4.56-1.53-2.4 4.84-3 5.57-3.6 2.3.23 2.5 11.6-3.54 13.47-4.18 1.7 1.57.73 2.94-1.07 5.4-2.7 7.64c-1.72 2.4-2.65 3.43-6.34 4.86-3.43 1.32-10.54 1.66-14.2 3.77s-12.52 10.12-18.43 14.23c-7.93 5.52-12.4 5.88-15.5 1.48s-5.1-10.48-6.28-13.2z" class="D"/><path d="M114.84 125.72c5.2-.4 11.33-.08 14.72 3 2.7 2.47 3.73 4 6.75 12.54l6.28 18.93a27.32 27.32 0 0 0-15 9.19l-9.75-21.9z" class="I"/><path d="M144.12 165.4a13.09 13.09 0 0 0-6.47 5s.37-4 6-6.4z" class="H"/><path d="M102.4 124.78a24.57 24.57 0 0 0-7.31.8l-12.76 3.5c-2.6 1.35-3.6 5.85-4.2 8.44-1.88 8.3 3 27 3.75 34.3S81 201.44 81 201.44c5.6 6.48 35.88 10.78 50.63 0 0 0 .64-51.27-.8-58.63-2.2-11.14-5.47-16.43-17-17.1z" fill="#f5f5f5"/><g class="C"><path d="M108.86 97.28l-3.3 1.8a2 2 0 0 1 .77-2.62 1.83 1.83 0 0 1 2.52.81zm14.3 1.32l-3-2.3a1.82 1.82 0 0 1 2.61-.4 2 2 0 0 1 .39 2.71zM93.74 86.8s-3.54.5-4.84 3.2c-1.12 2.32-.72 7.92.8 14a56.45 56.45 0 0 0 3.8 11.46 4.7 4.7 0 0 0 2.7 2.17l-.2-7.26-.26-5s3.23-4.42 3.6-8c.46-4.66-.52-6.57-.52-6.57z"/><path d="M99.45 93.8A13.53 13.53 0 0 0 113 107.29c7.46 0 13.06-6.15 13-13.62s-5.66-13.45-13.13-13.42a13.52 13.52 0 0 0-13.42 13.56z"/></g><path d="M96 104.52c-1.22 1.06-2.2-1.67-3.23-2.74s-4.37-2.5-6 1 1.46 8.6 4 9.58a3.65 3.65 0 0 0 4.31-1.36v16c3.85 6.94 10.64 6.72 14.27 6.33s4.42-4.16 1.77-7.2v-5a28.29 28.29 0 0 0 6.1.29c3.32-.52 5-3 6-6.63 1.6-5.8 2.25-15.5 0-26.74-3.72-2.88-16.62-2.4-24.43 2.55.6 10.07-1.63 12.87-2.8 13.92z" class="D"/><path d="M123.88 82.5a24.39 24.39 0 0 0 .67-6.37c0-.84-.2-1.86-1-2.18s-1.57.26-2.25.72c-2.88 1.94-6.46 2.5-9.93 2.68-6 .33-15.17-.06-18.22 6.5-.85 1.82-1 3.74.68 5a11.5 11.5 0 0 0 5 1.86c3 .53 6 1.2 9.08 1.6s6.74.8 9.8-.13c2.57-.8 5.18-1.47 7.1-3.5a9.78 9.78 0 0 0 2.62-6.54c0-.34-.07-.77-.4-.86a.78.78 0 0 0-.49.1z" class="C"/><path d="M111.1 121.24s-7.42-1.47-10-2.84a8.57 8.57 0 0 1-3.6-3.54 11.65 11.65 0 0 0 2 4.18c1.9 2.42 11.58 4.17 11.58 4.17z" class="H"/><path d="M109.6 102.2a1.67 1.67 0 1 1-1.67-1.72 1.7 1.7 0 0 1 1.67 1.72z" class="C"/><path d="M112 113.74a1.6 1.6 0 0 1-1.56 1.63 1.61 1.61 0 0 1-1.58-1.63 1.59 1.59 0 0 1 1.56-1.62 1.61 1.61 0 0 1 1.58 1.62z" fill="#b16668"/><path d="M107.5 96.94l-3.44 2.17a2.13 2.13 0 0 1 .66-2.88 2 2 0 0 1 2.78.71zm12.14-2.12l3.62 1.62a1.9 1.9 0 0 1-2.56 1 2.09 2.09 0 0 1-1.06-2.62zm1.9 6.88a1.61 1.61 0 1 1-1.62-1.67 1.65 1.65 0 0 1 1.62 1.67z" class="C"/><path d="M113.37 98.87l.6 11.12 5.27-1.4-5.87-9.72z" class="H"/><path d="M20 144.67c1.73.93 8.78 5.9 12.6 6.32 1.62.18 2.06-.08 2-.5-.08-.58-1.1-1.45-1.36-1.92-.43-.82-3-4.22-2-6s1.87-.08 4.25 2.25 4.82 3.14 6.9 5.85 2.8 7 6.25 10.1l13.78 9.4s6.42-29.8 9.24-33.3c3-3.7 15.87 4.35 13.17 16.08s-8.85 32.1-13.13 36.08c-2.76 2.6-8.57.15-15.82-6.3L39 167.3c-3.32-2.7-10.22-4.17-13.4-6-3.4-2-4.16-3.17-5.47-5.82-1.23-2.5-.68-6.48-1.4-8s-.5-3.73 1.27-2.8z" class="D"/><path d="M82.32 129.1c4.42 2.76 4.64 6.78 4.86 11.38a47.57 47.57 0 0 1-2.52 15.84c-1.87 5.8-4.84 16.36-4.84 16.36s-11.54.27-17.48-4.86l4.62-20c1.9-8.6 4.23-17.75 15.36-18.72z" class="I"/><path d="M62.4 170.2c3.15 1.75 5 5.5 5.57 7a11 11 0 0 0-5.24-8.53z" class="H"/><path d="M182.1 386.34l77.18 44.56v16.42l-77.18-44.56v-16.42z" class="B"/><path d="M182.1 386.34l77.18 44.56v16.42l-77.18-44.56v-16.42z" opacity=".35"/><path d="M336.47 386.34L259.3 430.9v16.42l77.18-44.56v-16.42z" class="B"/><path d="M336.47 386.34L259.3 430.9v16.42l77.18-44.56v-16.42z" class="G"/><path d="M336.47 386.34L259.3 341.8l-77.18 44.55 77.18 44.56 77.18-44.56z" class="B"/><path d="M336.47 386.34L259.3 341.8l-77.18 44.55 77.18 44.56 77.18-44.56z" opacity=".15"/><path d="M259.3 430.9v-4.7l-69.06-39.87h-8.12l77.18 44.56zm0-89.1v4.7l69.06 39.86h8.12L259.3 341.8z" opacity=".1"/><path d="M336.47 386.34h-8.12L259.3 426.2v4.7l77.18-44.56zM259.3 341.8v4.7l-69.06 39.86h-8.12l77.18-44.55z" class="B"/><path d="M259.57 367l33.16 19.14c2.48 1.44 2.48 3.76 0 5.2L268 405.65a9.89 9.89 0 0 1-9 0l-33.16-19.14c-2.48-1.44-2.48-3.76 0-5.2L250.58 367a9.89 9.89 0 0 1 8.99 0z" class="E"/><path d="M268 405.65l23.9-13.8-32.34-18.67a10 10 0 0 0-9 0L226.66 387 259 405.65a9.89 9.89 0 0 0 9 0z" class="F"/><path d="M239.54 386.37l14.5-8.37a1.94 1.94 0 0 1 1.74 0l1.78 1c.48.27.48.72 0 1l-14.5 8.37a1.92 1.92 0 0 1-1.73 0l-1.78-1a.53.53 0 0 1-.01-1zm21.66 12.53l14.5-8.37a1.92 1.92 0 0 1 1.73 0l1.8 1c.48.27.48.72 0 1l-14.5 8.37a1.92 1.92 0 0 1-1.73 0l-1.78-1a.53.53 0 0 1-.01-1z" class="C"/><path d="M225.76 418.77a9.64 9.64 0 0 0-4.38-7.57 3.05 3.05 0 0 0-3.09-.3l-1.9 1.1a3.06 3.06 0 0 0-1.28 2.82 9.69 9.69 0 0 0 4.37 7.58 3.07 3.07 0 0 0 3.1.3l1.88-1.13a3.08 3.08 0 0 0 1.29-2.8z" class="B"/><path d="M219.5 412.33a9.64 9.64 0 0 1 4.38 7.57c0 2.8-2 3.92-4.38 2.53a9.69 9.69 0 0 1-4.37-7.58c0-2.78 1.96-3.9 4.37-2.52z" opacity=".1"/><path d="M168.76 444.27a28.55 28.55 0 0 1-14-3.39l-51.2-29.56c-4.1-2.38-6.38-5.66-6.38-9.24s2.27-6.85 6.38-9.23l59.32-34.25c6.5-3.75 12-13.26 12-20.77V150.1a2 2 0 0 1 4 0v187.73c0 9.06-6.14 19.7-14 24.24l-59.32 34.25c-2.82 1.63-4.38 3.67-4.38 5.76s1.56 4.14 4.38 5.77l51.2 29.56c6.6 3.82 17.37 3.82 24 0l37.75-21.78a2 2 0 1 1 2 3.46l-37.75 21.8a28.5 28.5 0 0 1-14 3.39z" class="E"/><g class="B"><path d="M78.92 78.3a1 1 0 0 1 .84-1.24l4.86-.94a1 1 0 0 1 .8.16 1.09 1.09 0 0 1 .45.68l.75 3.9a1 1 0 0 1-.17.79 1 1 0 0 1-.67.46l-4.87.93a1 1 0 0 1-1.24-.84zm-4.06-21.06A1.06 1.06 0 0 1 75.7 56l4.87-.94a1 1 0 0 1 .79.17 1 1 0 0 1 .45.67L85 72.57a1 1 0 0 1-.17.79 1 1 0 0 1-.67.45l-4.87.94a1 1 0 0 1-.79-.17 1 1 0 0 1-.45-.67z"/><use xlink:href="#E"/></g><use xlink:href="#E" fill="#fff" opacity=".6"/><path d="M166 48a7.12 7.12 0 0 1 4.77 1.45 5.24 5.24 0 0 1 1.7 4.23 5.34 5.34 0 0 1-1.7 4.26 7.07 7.07 0 0 1-4.77 1.5h-4v5.65a.66.66 0 0 1-.2.49.67.67 0 0 1-.48.2h-2.05a.68.68 0 0 1-.69-.69V48.7a.68.68 0 0 1 .69-.68zm-4 8.27h3.93a4.11 4.11 0 0 0 2.31-.57 2.19 2.19 0 0 0 .86-2 2.14 2.14 0 0 0-.86-2 4.29 4.29 0 0 0-2.31-.54H162zm12.76-.43a3.58 3.58 0 0 1 .47-1.14 4.24 4.24 0 0 1 1-1.14 5.61 5.61 0 0 1 1.65-.88 6.82 6.82 0 0 1 2.27-.34 7.36 7.36 0 0 1 2.33.34 5.13 5.13 0 0 1 1.79 1 4.38 4.38 0 0 1 1.15 1.66 6.13 6.13 0 0 1 .41 2.3v7.45a.67.67 0 0 1-.21.49.66.66 0 0 1-.48.2h-1.92a.68.68 0 0 1-.69-.69v-.83a4.13 4.13 0 0 1-1.53 1.25 5.48 5.48 0 0 1-2.55.52 6.15 6.15 0 0 1-2-.29 4 4 0 0 1-1.45-.82 3.74 3.74 0 0 1-.9-1.26 3.91 3.91 0 0 1-.31-1.58 3.3 3.3 0 0 1 1.24-2.74 7.21 7.21 0 0 1 3.41-1.34l4.13-.7a1.62 1.62 0 0 0-.68-1.47 3.22 3.22 0 0 0-1.7-.43 2.24 2.24 0 0 0-1 .18 2.81 2.81 0 0 0-.68.48 1.6 1.6 0 0 1-.42.28 1.16 1.16 0 0 1-.42.08h-2.36a.6.6 0 0 1-.43-.16.39.39 0 0 1-.12-.41zM179 63a4.55 4.55 0 0 0 1.53-.24 3.46 3.46 0 0 0 1.13-.65 2.68 2.68 0 0 0 .68-.91 2.42 2.42 0 0 0 .23-1v-.3l-3.45.6a3.67 3.67 0 0 0-1.49.52 1.09 1.09 0 0 0-.46.93.83.83 0 0 0 .55.79A3.14 3.14 0 0 0 179 63zm16 5.3a3.89 3.89 0 0 0 1.09-.16 2.94 2.94 0 0 0 1-.52 3 3 0 0 0 .75-.9 2.75 2.75 0 0 0 .29-1.28v-.94a4.37 4.37 0 0 1-.53.49 4.06 4.06 0 0 1-.8.5 5.54 5.54 0 0 1-1.09.38 6.1 6.1 0 0 1-1.41.15 5.2 5.2 0 0 1-2.29-.49 5.36 5.36 0 0 1-1.75-1.32 6.17 6.17 0 0 1-1.14-1.9 6.9 6.9 0 0 1-.47-2.25V58.3a6.9 6.9 0 0 1 .47-2.25 6.29 6.29 0 0 1 1.14-1.9 5.36 5.36 0 0 1 1.74-1.32 5.2 5.2 0 0 1 2.29-.49 6.1 6.1 0 0 1 1.41.15 5.54 5.54 0 0 1 1.09.38 4.06 4.06 0 0 1 .8.5 4.37 4.37 0 0 1 .53.49v-.58a.7.7 0 0 1 .68-.69h1.93a.72.72 0 0 1 .69.69v11.9a6 6 0 0 1-1.72 4.63 6.74 6.74 0 0 1-4.7 1.56 8 8 0 0 1-2.4-.35 6.51 6.51 0 0 1-1.91-.91 4.84 4.84 0 0 1-1.3-1.29 3 3 0 0 1-.53-1.49.57.57 0 0 1 .19-.48.71.71 0 0 1 .49-.2h1.73a.85.85 0 0 1 .61.24l.43.44a2.39 2.39 0 0 0 .9.71 4.21 4.21 0 0 0 1.79.28zm-3-9.83a6.74 6.74 0 0 0 0 1.42 3.37 3.37 0 0 0 1 2.37 3.15 3.15 0 0 0 2.1.72 3.07 3.07 0 0 0 2.09-.74 3 3 0 0 0 1-2.1 8.31 8.31 0 0 0 .05-1 8.5 8.5 0 0 0-.05-1 3 3 0 0 0-3.07-2.84 3.15 3.15 0 0 0-2.1.72 3.37 3.37 0 0 0-1.02 2.45zm12.27.73a8.14 8.14 0 0 1 .44-2.68 6.32 6.32 0 0 1 1.29-2.18 5.82 5.82 0 0 1 2-1.46 6.58 6.58 0 0 1 5.15 0 6.06 6.06 0 0 1 2 1.39 6.35 6.35 0 0 1 1.26 2.06 7.06 7.06 0 0 1 .44 2.47v1.14a.62.62 0 0 1-.2.48.64.64 0 0 1-.48.21h-8.47a2.11 2.11 0 0 0 .24 1 2.24 2.24 0 0 0 .65.75 2.84 2.84 0 0 0 .94.46 3.93 3.93 0 0 0 1.09.15 4.25 4.25 0 0 0 1.31-.17 3 3 0 0 0 .84-.41 2.34 2.34 0 0 1 .46-.28 1.26 1.26 0 0 1 .48-.08h2a.71.71 0 0 1 .49.2.55.55 0 0 1 .19.49 2.19 2.19 0 0 1-.39.91 4.55 4.55 0 0 1-1.1 1.09 7.19 7.19 0 0 1-1.82.91 7.53 7.53 0 0 1-2.49.38 6.49 6.49 0 0 1-2.58-.49 5.44 5.44 0 0 1-2-1.41 6.19 6.19 0 0 1-1.3-2.12 8.38 8.38 0 0 1-.44-2.81zm6.22-3.8a3.19 3.19 0 0 0-1.26.22 2.56 2.56 0 0 0-.87.56 2.38 2.38 0 0 0-.55.76 2.59 2.59 0 0 0-.24.8h5.73a4.2 4.2 0 0 0-.19-.8 2 2 0 0 0-.46-.76 2.29 2.29 0 0 0-.83-.56 3.39 3.39 0 0 0-1.33-.22zm27.15 9.7a.68.68 0 0 1-.68.69H235a.66.66 0 0 1-.48-.2.67.67 0 0 1-.21-.49v-6.44a3.82 3.82 0 0 0-.71-2.43 2.58 2.58 0 0 0-2.18-.91 2.61 2.61 0 0 0-2.11.91 3.62 3.62 0 0 0-.78 2.43v6.44a.66.66 0 0 1-.2.49.67.67 0 0 1-.48.2H226a.67.67 0 0 1-.48-.2.66.66 0 0 1-.2-.49V53.3a.62.62 0 0 1 .2-.48.64.64 0 0 1 .48-.21h1.93a.64.64 0 0 1 .48.21.62.62 0 0 1 .2.48v.58a5.77 5.77 0 0 1 1.55-1.09 4.71 4.71 0 0 1 2.1-.43 6.14 6.14 0 0 1 2.59.48 4.44 4.44 0 0 1 1.67 1.29 4.87 4.87 0 0 1 .9 1.89 9.35 9.35 0 0 1 .27 2.27zm9.18-12.76a6.94 6.94 0 0 1 2.52.43 6.19 6.19 0 0 1 1.95 1.23 5.94 5.94 0 0 1 1.32 1.78 5.72 5.72 0 0 1 .57 2.18 4.51 4.51 0 0 1 0 .58v1.4a4.45 4.45 0 0 1 0 .57 6.4 6.4 0 0 1-.58 2.18 5.55 5.55 0 0 1-1.31 1.76 6.16 6.16 0 0 1-1.95 1.18 7.6 7.6 0 0 1-5 0 6.1 6.1 0 0 1-2-1.18 5.52 5.52 0 0 1-1.3-1.76 6.41 6.41 0 0 1-.59-2.18q0-.23 0-.57v-2a6.11 6.11 0 0 1 .57-2.18 5.94 5.94 0 0 1 1.32-1.78 6.13 6.13 0 0 1 2-1.19 6.94 6.94 0 0 1 2.48-.47zm3.07 5.7a3.38 3.38 0 0 0-.37-1.3 2.52 2.52 0 0 0-.72-.82 2.41 2.41 0 0 0-.94-.42 4.55 4.55 0 0 0-1-.12 4.48 4.48 0 0 0-1 .12 2.41 2.41 0 0 0-.94.42 2.31 2.31 0 0 0-.72.82 3.21 3.21 0 0 0-.37 1.3v1.8a4.81 4.81 0 0 0 0 .5 3.17 3.17 0 0 0 .37 1.3 2.44 2.44 0 0 0 .72.83 2.74 2.74 0 0 0 .94.42 5.1 5.1 0 0 0 1 .11 5.17 5.17 0 0 0 1-.11 2.74 2.74 0 0 0 .94-.42 2.67 2.67 0 0 0 .72-.83 3.33 3.33 0 0 0 .37-1.3v-1.78c.02-.2.01-.37 0-.55zm10.5 2.96a1.83 1.83 0 0 0 .42 1.26 2.06 2.06 0 0 0 1.56.47h1.55a.65.65 0 0 1 .48.2.66.66 0 0 1 .2.48v1.67a.68.68 0 0 1-.68.69H262a5.27 5.27 0 0 1-3.66-1.16 4.47 4.47 0 0 1-1.28-3.53v-5.44h-1.68a.7.7 0 0 1-.68-.69v-1.67a.7.7 0 0 1 .68-.69h1.68v-4.13a.68.68 0 0 1 .68-.68h1.93a.65.65 0 0 1 .48.2.66.66 0 0 1 .2.48v4.13h3.27a.72.72 0 0 1 .69.69V55a.72.72 0 0 1-.69.69h-3.27zM277 52.6h3.52a.67.67 0 0 1 .49.21.66.66 0 0 1 .2.48V55a.66.66 0 0 1-.2.48.67.67 0 0 1-.49.21H277v9.45a.68.68 0 0 1-.68.69h-1.93a.66.66 0 0 1-.48-.2.67.67 0 0 1-.21-.49v-9.5H272a.63.63 0 0 1-.48-.21.62.62 0 0 1-.2-.48v-1.67a.62.62 0 0 1 .2-.48.63.63 0 0 1 .48-.21h1.67v-1.14a5.24 5.24 0 0 1 .36-2.06 3.41 3.41 0 0 1 1-1.39 4.2 4.2 0 0 1 1.59-.76 8.68 8.68 0 0 1 2.06-.22h2.06a.65.65 0 0 1 .48.2.66.66 0 0 1 .2.48v1.67a.68.68 0 0 1-.68.69H279a2.58 2.58 0 0 0-1.47.34 1.47 1.47 0 0 0-.51 1.31zm12-.26a6.94 6.94 0 0 1 2.52.43 6.19 6.19 0 0 1 1.91 1.23 5.94 5.94 0 0 1 1.32 1.78 5.72 5.72 0 0 1 .57 2.18 4.51 4.51 0 0 1 0 .58v1.4a4.45 4.45 0 0 1 0 .57 6.4 6.4 0 0 1-.58 2.18 5.55 5.55 0 0 1-1.31 1.76 6.16 6.16 0 0 1-1.95 1.18A6.94 6.94 0 0 1 289 66a7 7 0 0 1-2.53-.43 6.16 6.16 0 0 1-1.95-1.18 5.52 5.52 0 0 1-1.3-1.76 6.19 6.19 0 0 1-.59-2.18V57.9a5.72 5.72 0 0 1 .57-2.18 5.94 5.94 0 0 1 1.28-1.71 6.19 6.19 0 0 1 1.95-1.19 7 7 0 0 1 2.57-.47zm3 5.66a3.38 3.38 0 0 0-.36-1.3 2.43 2.43 0 0 0-.73-.82 2.37 2.37 0 0 0-.93-.42 4.55 4.55 0 0 0-1-.12 4.42 4.42 0 0 0-1 .12 2.41 2.41 0 0 0-.94.42 2.31 2.31 0 0 0-.72.82 3.21 3.21 0 0 0-.37 1.3v1.8a4.81 4.81 0 0 0 0 .5 3.17 3.17 0 0 0 .37 1.3 2.44 2.44 0 0 0 .72.83 2.74 2.74 0 0 0 .94.42 5 5 0 0 0 1 .11 5.17 5.17 0 0 0 1-.11 2.7 2.7 0 0 0 .93-.42 2.57 2.57 0 0 0 .73-.83 3.33 3.33 0 0 0 .36-1.3 3.25 3.25 0 0 0 0-.5v-1.24a3.68 3.68 0 0 0 0-.55zm6.1-4.72a.7.7 0 0 1 .68-.69h1.93a.72.72 0 0 1 .69.69v6.44a4.14 4.14 0 0 0 .64 2.43 2.42 2.42 0 0 0 2.12.92 2.44 2.44 0 0 0 2.05-.92 3.82 3.82 0 0 0 .71-2.43v-6.44a.72.72 0 0 1 .69-.69h1.92a.67.67 0 0 1 .49.21.66.66 0 0 1 .2.48v11.8a.68.68 0 0 1-.69.69h-1.92a.66.66 0 0 1-.48-.2.67.67 0 0 1-.21-.49v-.58a6.22 6.22 0 0 1-1.44 1 4.23 4.23 0 0 1-2.08.47 6 6 0 0 1-2.56-.48 4.19 4.19 0 0 1-1.62-1.29 5 5 0 0 1-.87-1.89 9.87 9.87 0 0 1-.25-2.27zm28 11.82a.68.68 0 0 1-.68.69h-1.93a.66.66 0 0 1-.48-.2.67.67 0 0 1-.21-.49v-6.44a3.82 3.82 0 0 0-.71-2.43 2.58 2.58 0 0 0-2.18-.91 2.61 2.61 0 0 0-2.11.91 3.62 3.62 0 0 0-.78 2.43v6.44a.66.66 0 0 1-.2.49.67.67 0 0 1-.48.2h-1.93a.67.67 0 0 1-.48-.2.66.66 0 0 1-.2-.49V53.3a.62.62 0 0 1 .2-.48.64.64 0 0 1 .48-.21h1.93a.64.64 0 0 1 .48.21.62.62 0 0 1 .2.48v.58a5.77 5.77 0 0 1 1.55-1.09 4.71 4.71 0 0 1 2.1-.43 6.14 6.14 0 0 1 2.59.48 4.44 4.44 0 0 1 1.67 1.29 4.87 4.87 0 0 1 .9 1.89 9.35 9.35 0 0 1 .27 2.27zm8.44-12.76a6 6 0 0 1 1.41.15 5.54 5.54 0 0 1 1.09.38 4.06 4.06 0 0 1 .8.5 3.73 3.73 0 0 1 .53.49v-5.4a.68.68 0 0 1 .69-.68H341a.62.62 0 0 1 .48.2.63.63 0 0 1 .21.48V65.1a.67.67 0 0 1-.21.49.66.66 0 0 1-.48.2h-1.92a.68.68 0 0 1-.69-.69v-.58a3.73 3.73 0 0 1-.53.49 4.06 4.06 0 0 1-.8.5 5.54 5.54 0 0 1-1.09.38 6 6 0 0 1-1.41.15 5.2 5.2 0 0 1-2.29-.49 5.36 5.36 0 0 1-1.75-1.32 6.37 6.37 0 0 1-1.14-1.9 6.9 6.9 0 0 1-.47-2.25V58.3a6.9 6.9 0 0 1 .47-2.25 6.49 6.49 0 0 1 1.14-1.9 5.36 5.36 0 0 1 1.75-1.32 5.2 5.2 0 0 1 2.27-.49zm-2.36 6.14a6.74 6.74 0 0 0 0 1.42 3.41 3.41 0 0 0 1 2.37 3.17 3.17 0 0 0 2.1.72 3.11 3.11 0 0 0 2.1-.74 3 3 0 0 0 1-2.1 8.31 8.31 0 0 0 .05-1 8.5 8.5 0 0 0-.05-1 3 3 0 0 0-3.07-2.84 3.17 3.17 0 0 0-2.1.72 3.41 3.41 0 0 0-1.03 2.45z" class="F"/><path d="M196.44 90.76a.59.59 0 0 1 .44.19.6.6 0 0 1 .18.44v2.46a.6.6 0 0 1-.18.44.59.59 0 0 1-.44.19h-11a.58.58 0 0 1-.44-.19.61.61 0 0 1-.19-.44v-15a.61.61 0 0 1 .19-.44.58.58 0 0 1 .44-.19h10.83a.65.65 0 0 1 .63.63v2.45a.61.61 0 0 1-.19.45.6.6 0 0 1-.44.18h-7.16v2.5h6.65a.58.58 0 0 1 .44.19.61.61 0 0 1 .19.44v2.46a.61.61 0 0 1-.19.44.58.58 0 0 1-.44.19h-6.65v2.6zm10.22-12.56a10.39 10.39 0 0 1 2.74.33 6 6 0 0 1 2.06 1 4.3 4.3 0 0 1 1.3 1.67 5.73 5.73 0 0 1 .45 2.35 5.37 5.37 0 0 1-.72 2.9 4.61 4.61 0 0 1-2 1.75l2.88 5.53a.56.56 0 0 1 .07.26.51.51 0 0 1-.51.51h-3.16a.87.87 0 0 1-.66-.21 2 2 0 0 1-.32-.42l-2.58-5H204v5a.6.6 0 0 1-.18.44.59.59 0 0 1-.44.19h-3a.59.59 0 0 1-.44-.19.6.6 0 0 1-.18-.44v-15a.6.6 0 0 1 .18-.44.59.59 0 0 1 .44-.19zm-2.63 7h2.63a3.18 3.18 0 0 0 1.62-.37 1.43 1.43 0 0 0 .63-1.35 1.41 1.41 0 0 0-.63-1.34 3.18 3.18 0 0 0-1.62-.37H204zm18.77-7a10.39 10.39 0 0 1 2.74.33 6 6 0 0 1 2.06 1 4.21 4.21 0 0 1 1.3 1.67 5.73 5.73 0 0 1 .45 2.35 5.37 5.37 0 0 1-.72 2.9 4.61 4.61 0 0 1-2 1.75l2.88 5.53a.56.56 0 0 1 .07.26.51.51 0 0 1-.51.51h-3.16a.87.87 0 0 1-.66-.21 2 2 0 0 1-.32-.42l-2.58-5h-2.13v5a.61.61 0 0 1-.19.44.59.59 0 0 1-.44.19h-3.05a.59.59 0 0 1-.44-.19.6.6 0 0 1-.18-.44v-15a.6.6 0 0 1 .18-.44.59.59 0 0 1 .44-.19zm-2.62 7h2.62a3.18 3.18 0 0 0 1.62-.37 1.43 1.43 0 0 0 .63-1.35 1.41 1.41 0 0 0-.63-1.34 3.18 3.18 0 0 0-1.62-.37h-2.62zm11.32-.92a7.14 7.14 0 0 1 .57-2.45 5.8 5.8 0 0 1 1.42-2 6.62 6.62 0 0 1 2.23-1.35 9.4 9.4 0 0 1 6.05 0 6.72 6.72 0 0 1 2.23 1.35 5.77 5.77 0 0 1 1.41 2 6.71 6.71 0 0 1 .57 2.45l.05 2.1-.05 2a6.81 6.81 0 0 1-.57 2.46 6.1 6.1 0 0 1-1.41 2 6.54 6.54 0 0 1-2.25 1.34 9.58 9.58 0 0 1-6.05 0 6.45 6.45 0 0 1-2.23-1.34 6.13 6.13 0 0 1-1.42-2 7.25 7.25 0 0 1-.57-2.46v-2l.02-2.1zm10.2 4c0-.28 0-.6.05-.93s0-.7 0-1.05v-1c0-.3 0-.63-.05-.9a3.57 3.57 0 0 0-.24-1.06 2.47 2.47 0 0 0-.56-.85 2.62 2.62 0 0 0-.89-.57 3.47 3.47 0 0 0-1.26-.21 3.37 3.37 0 0 0-1.25.21 2.57 2.57 0 0 0-.9.57 2.62 2.62 0 0 0-.56.85 3.57 3.57 0 0 0-.24 1.06q0 .4-.06.9v2.05c0 .34 0 .65.06.93a3.13 3.13 0 0 0 .8 1.93 2.79 2.79 0 0 0 2.15.76 2.75 2.75 0 0 0 2.14-.76 3.26 3.26 0 0 0 .81-1.91zm13.95-10.08a10.45 10.45 0 0 1 2.74.33 5.91 5.91 0 0 1 2.05 1 4.32 4.32 0 0 1 1.31 1.67 5.73 5.73 0 0 1 .45 2.35 5.37 5.37 0 0 1-.72 2.9 4.58 4.58 0 0 1-2.05 1.75l2.88 5.53a.59.59 0 0 1 .08.26.5.5 0 0 1-.16.36.49.49 0 0 1-.36.15h-3.16a.87.87 0 0 1-.66-.21 1.89 1.89 0 0 1-.31-.42l-2.58-5H253v5a.65.65 0 0 1-.63.63h-3a.65.65 0 0 1-.63-.63v-15a.65.65 0 0 1 .63-.63zm-2.63 7h2.63a3.14 3.14 0 0 0 1.61-.37 1.41 1.41 0 0 0 .64-1.35 1.4 1.4 0 0 0-.64-1.34 3.14 3.14 0 0 0-1.61-.37H253zm24.45 9.28a.61.61 0 0 1-.45-.19.6.6 0 0 1-.18-.44v-2.37h-7.32a.6.6 0 0 1-.44-.18.61.61 0 0 1-.19-.45V88.4a1.63 1.63 0 0 1 .3-1l6.95-8.76a1.38 1.38 0 0 1 .38-.34 1.26 1.26 0 0 1 .48-.08h3.5a.58.58 0 0 1 .44.19.61.61 0 0 1 .19.44v8.92h2a.63.63 0 0 1 .44.19.6.6 0 0 1 .18.44v2.46a.64.64 0 0 1-.18.45.62.62 0 0 1-.44.18h-2v2.37a.61.61 0 0 1-.19.44.58.58 0 0 1-.44.19zm-.47-6.72V83.5l-3.4 4.27zM292.5 78a8 8 0 0 1 3 .51 6 6 0 0 1 2.08 1.37 5.62 5.62 0 0 1 1.23 2 8.82 8.82 0 0 1 .48 2.41v4.1a8.82 8.82 0 0 1-.48 2.41 5.46 5.46 0 0 1-1.23 2 6 6 0 0 1-2.08 1.37 9.08 9.08 0 0 1-6 0 6 6 0 0 1-2.08-1.37 5.46 5.46 0 0 1-1.23-2 8.82 8.82 0 0 1-.48-2.41v-4.1a8.82 8.82 0 0 1 .48-2.41 5.62 5.62 0 0 1 1.23-2 6 6 0 0 1 2.08-1.37 8 8 0 0 1 3-.51zm2.5 10.3v-3.9a5.58 5.58 0 0 0-.18-1.06 2.31 2.31 0 0 0-.4-.85 2 2 0 0 0-.75-.57 2.8 2.8 0 0 0-1.16-.21 2.83 2.83 0 0 0-1.16.21 2 2 0 0 0-.75.57 2.49 2.49 0 0 0-.41.85 4.35 4.35 0 0 0-.17 1.06 36.43 36.43 0 0 0 0 3.91 5.75 5.75 0 0 0 .15 1.07 2.42 2.42 0 0 0 .42.85 2 2 0 0 0 .76.56 2.83 2.83 0 0 0 1.16.21 2.8 2.8 0 0 0 1.16-.21 2 2 0 0 0 .76-.56 2.42 2.42 0 0 0 .42-.85 5.75 5.75 0 0 0 .15-1.07zm14.8 6.18a.65.65 0 0 1-.63-.63v-2.37h-7.32a.6.6 0 0 1-.44-.18.65.65 0 0 1-.19-.45V88.4a1.57 1.57 0 0 1 .31-1l6.94-8.76a1.27 1.27 0 0 1 .39-.34 1.17 1.17 0 0 1 .47-.08h3.5a.65.65 0 0 1 .63.63v8.92h2a.65.65 0 0 1 .63.63v2.46a.65.65 0 0 1-.19.45.6.6 0 0 1-.44.18h-2v2.37a.65.65 0 0 1-.63.63zm-.5-6.72V83.5l-3.4 4.27z" class="B"/><defs ><path id="B" d="M432.63 94.28a1.1 1.1 0 0 1 0 1.57l-2.5 2.64a1.08 1.08 0 0 1-.78.34 1.11 1.11 0 0 1-.8-.3L426 96.08a1.08 1.08 0 0 1-.34-.78 1.07 1.07 0 0 1 .3-.8l2.5-2.63a1.12 1.12 0 0 1 1.57 0zm15-18.13a13.34 13.34 0 0 1 2.37 3 10.44 10.44 0 0 1 1.27 3.4 8.25 8.25 0 0 1-.17 3.45 8 8 0 0 1-4.19 4.91 8.77 8.77 0 0 1-2.46.68 14.86 14.86 0 0 1-2.49.07l-2.36-.13a12.13 12.13 0 0 0-2.11.07 3.4 3.4 0 0 0-1.72.7 1.56 1.56 0 0 1-.81.31.94.94 0 0 1-.77-.27l-2.27-2.16a1.15 1.15 0 0 1-.36-.79.92.92 0 0 1 .32-.79 7.27 7.27 0 0 1 2.44-1.6 10.23 10.23 0 0 1 2.55-.59 15.29 15.29 0 0 1 2.53 0q1.25.1 2.34.15a9.53 9.53 0 0 0 2-.11 2.61 2.61 0 0 0 1.49-.78 3.13 3.13 0 0 0 .82-2.78 5.62 5.62 0 0 0-1.85-3.15 5.42 5.42 0 0 0-6.16-1 2.3 2.3 0 0 1-.78.19 1 1 0 0 1-.71-.36l-2.42-2.3a.92.92 0 0 1-.3-.61.88.88 0 0 1 .26-.67 6.45 6.45 0 0 1 2.68-1.53 10.2 10.2 0 0 1 3.52-.41 12.17 12.17 0 0 1 3.81.86 10.6 10.6 0 0 1 3.49 2.25z"/><path id="C" d="M89.13 345.44a11.56 11.56 0 0 0 .38 2.7 24.77 24.77 0 0 0 2.29 5.42 22.77 22.77 0 0 0 1.63 2.57c1.2 1.6 2.7 2.92 4 4.45a8.61 8.61 0 0 1 2.33 5.32c0 3.32-3.65 4.25-6.44 4.6a20.33 20.33 0 0 1-9-.93 8.26 8.26 0 0 1-5.69-6.92c-.1-.93 0-1.86-.06-2.8a12.93 12.93 0 0 0-2.26-5.93 17 17 0 0 1-1.8-3.26c-.76-2.1.06-4.36.72-6.37.57-1.73 1-3.82 1.64-3.62v1.13c.18.4.62.67.73 1.13a8.59 8.59 0 0 0 .43 1.39 3.6 3.6 0 0 0 1.38 1.7l.32-3.74a1.31 1.31 0 0 1 1.43-1.49 23.59 23.59 0 0 1 7.11-.21 1.36 1.36 0 0 1 .93.47 1.44 1.44 0 0 1 .11.85 32.79 32.79 0 0 0-.18 3.54z"/><path id="D" d="M127.13 333.3a11.94 11.94 0 0 0 1.61-.46 1.31 1.31 0 0 1 .91 0c.38.17.5.63.6 1a13.86 13.86 0 0 0 .52 2.67 6.54 6.54 0 0 0 1.6 1.88 27.83 27.83 0 0 0 4.69 3.39c1.93 1.18 3.83 2.1 5.82 3.14s4.78 1.77 6.36 3c2.3 1.74 2.38 5.8-.42 7.23-2.4 1.25-8.65 2.4-15 .23-3.47-1.2-7.17-5.16-11.77-5.77-2.93-.38-6.83-.84-8.6-3.17-.64-1-.08-3.9.44-7.3.47-3 .9-7.8 1.87-7.48l.07.92L117 334a10.07 10.07 0 0 0 .82.78 14.84 14.84 0 0 0 1 1.06 3 3 0 0 0 1.69.71 1.56 1.56 0 0 0 .85-.19c.5-.28.57-.94 1-1.35a4.88 4.88 0 0 1 1.64-1.11 9.61 9.61 0 0 1 2.66-.54 3.65 3.65 0 0 0 .47-.06z"/><path id="E" d="M70.8 94.63a1.06 1.06 0 0 1 .08-1.5l3.7-3.3a1 1 0 0 1 .77-.26 1 1 0 0 1 .73.34l2.65 3a1.06 1.06 0 0 1-.08 1.5L75 97.67a1 1 0 0 1-.77.26 1 1 0 0 1-.73-.34zm-14.3-16a1.07 1.07 0 0 1-.27-.77 1 1 0 0 1 .35-.73l3.7-3.3a1 1 0 0 1 .77-.27 1 1 0 0 1 .73.35l11.32 12.66a1 1 0 0 1 .26.77 1 1 0 0 1-.34.73l-3.7 3.3a1 1 0 0 1-.76.26 1 1 0 0 1-.74-.34z"/></defs></svg>