<svg xmlns="http://www.w3.org/2000/svg" xmlns:xlink="http://www.w3.org/1999/xlink" viewBox="0 0 750 500" xmlns:v="https://vecta.io/nano"><style><![CDATA[.B{fill:#263238}.C{fill:#e0a800}.D{fill:#fff}.E{fill:#e0e0e0}.F{fill:#ebebeb}.G{opacity:.6}.H{opacity:.3}.I{fill:#f4d3bd}.J{fill:#455a64}.K{fill:#b78876}.L{fill:#aa6550}.M{fill:#eaae94}]]></style><path d="M71.63 377.56s-2.9 6.8 13 11.55 24.77 6 24.77 6 3.4 1.4 1.8 3.85-6.73 6.35-5.06 9.72 6.06 4 12 2.15 19-5.3 20.2-5.6 3 .05 2.2 1.9-9.62 13.2-4 17.06 21.3-3.9 23-4.7 2.57-.6 3.18.2-2.7 4.32-5.08 7.65-4.53 7.6-1.1 9.56 16 .48 33.95-15l7.86-7.7-2.58-10.76c-6.94-22.67-16.76-30.6-20.7-30.8s-4.4 4.6-4.18 8.67 1.13 8.85.2 9.18-1.75.07-2.78-1.54-10.12-16.5-16.95-16.27-5.46 14.54-5.74 16.54-2.06 1.32-2.88.44l-14.1-15.53c-4.03-4.7-7.95-6.6-11.28-4.57s-.95 8-.9 10.9-3.58 2.3-3.58 2.3-8.2-3.66-24.15-8.13-17.13 3-17.13 3" class="F"/><g class="E"><path d="M200.6 415.6l-50.23-14.85-45.6-13.43-13.85-4-3.77-1.08-1-.3-.33-.12.33.08 1 .26 3.78 1 13.88 3.88 45.65 13.33 50.22 15"/><path d="M113.48 403.55a3.64 3.64 0 0 1 .69-.41l1.93-1 6.5-3 8.55-3.72a3.5 3.5 0 0 1 .74-.29 4 4 0 0 1-.68.41l-1.94 1-6.5 2.94-8.53 3.77a3.28 3.28 0 0 1-.74.3zm18.4-9.4c-.08 0-2.47-4.6-5.33-10.36s-5.1-10.47-5-10.52 2.47 4.6 5.33 10.36 5.13 10.47 5 10.52zm26.98 9.33a4.47 4.47 0 0 1-.18-.79l-.4-2.17-1.42-7.15-1.73-7.07-.57-2.14a4 4 0 0 1-.17-.8 4.31 4.31 0 0 1 .3.76l.67 2.1 1.84 7.07 1.32 7.18.28 2.2a2.92 2.92 0 0 1 .05.81z"/><path d="M144.1 415.65a3 3 0 0 1 .53-.53l1.52-1.37 5.1-4.4 5.18-4.3 1.6-1.28a3.4 3.4 0 0 1 .62-.44 3.75 3.75 0 0 1-.53.54l-1.52 1.36-5.12 4.4-5.17 4.32-1.6 1.28a3.14 3.14 0 0 1-.61.43zm22.76 11.27a4.81 4.81 0 0 1 .68-.68l2-1.75 6.5-5.68 6.58-5.6 2-1.67a5.28 5.28 0 0 1 .77-.57 5.13 5.13 0 0 1-.68.67l-1.95 1.76-6.5 5.68-6.57 5.6-2 1.67a4.73 4.73 0 0 1-.83.58zm17.94-15.72a6.23 6.23 0 0 1-.25-1l-.6-2.74-2.1-9-2.4-8.93-.76-2.7a6.31 6.31 0 0 1-.25-1 7.38 7.38 0 0 1 .37 1l.88 2.66 2.5 8.92 2 9 .5 2.76a5.16 5.16 0 0 1 .11 1.03z"/></g><path d="M523 202.12c-14-9.4-17.4-27.2-17.14-43.3 0-2.68-.3-5.5.93-7.88s4.2-4 6.6-2.95c2 .9 2.92 3.2 4.07 5.1a15.62 15.62 0 0 0 6.4 5.9c1.72.86 3.84 1.36 5.5.4 2.3-1.32 2.5-4.52 2.45-7.2l-.36-14.92a24.85 24.85 0 0 1 .67-7.94c.78-2.55 2.57-4.93 5.1-5.7s5.7.65 6.27 3.26a26.1 26.1 0 0 1 .14 3.32 2.79 2.79 0 0 0 1.69 2.61c1.07.3 2.12-.48 2.9-1.27 2.7-2.75 4.5-6.25 6.2-9.73s3.3-7 5.76-10 5.86-5.38 9.68-5.66 7.93 2 9 5.74-1.1 7.6-3.43 10.68a59.49 59.49 0 0 1-12.19 12.05 4.94 4.94 0 0 0-2 2.26c-.55 1.8 1.17 3.53 2.94 4.08 2 .63 4.15.4 6.24.6s4.35 1.1 5.18 3c1.14 2.7-1.1 5.6-3.3 7.52a50.84 50.84 0 0 1-14.94 9 17.15 17.15 0 0 0-5.57 2.83c-1.56 1.4-2.47 3.82-1.48 5.68s3.46 2.42 5.5 2 3.87-1.57 5.8-2.34c3.65-1.45 8.4-1.28 10.8 1.84a8.46 8.46 0 0 1 1 7.46 19.34 19.34 0 0 1-3.93 6.66A51.3 51.3 0 0 1 547.82 201c-8.46 3.1-16.33 4-24.84 1.1" class="F"/><g class="E"><path d="M527 192a240.18 240.18 0 0 1 9-25.91l2.72-6.67 2.78-6.42a119.87 119.87 0 0 1 6.44-11.56c2.22-3.57 4.46-6.9 6.58-10s4.16-5.9 6.13-8.4a94.33 94.33 0 0 1 10.14-11.11c1.3-1.2 2.33-2.12 3-2.72l.8-.7a2.07 2.07 0 0 1 .29-.22 1.65 1.65 0 0 1-.26.26l-.78.72-3 2.8a99.29 99.29 0 0 0-10 11.19c-1.94 2.5-4 5.34-6.07 8.43s-4.32 6.4-6.53 10a120.15 120.15 0 0 0-6.38 11.52c-1 2.06-1.87 4.2-2.77 6.4l-2.72 6.67a244.75 244.75 0 0 0-9.05 25.85"/><path d="M541.63 152.94a5.41 5.41 0 0 1-.28-1.13l-.55-3.13c-.42-2.65-.88-6.33-1.38-10.4s-1-7.73-1.46-10.36l-.57-3.12a5.69 5.69 0 0 1-.17-1.16 5.2 5.2 0 0 1 .35 1.12c.2.72.45 1.78.73 3.1.55 2.63 1.12 6.3 1.6 10.37l1.24 10.4.4 3.15a4.81 4.81 0 0 1 .09 1.16z"/><path d="M575.83 145.92a6.72 6.72 0 0 1-1.36.19l-3.72.44c-3.14.4-7.45 1.1-12.18 2.06s-9 2.06-12 2.93c-1.53.42-2.75.8-3.6 1.05a6.17 6.17 0 0 1-1.34.35 7.9 7.9 0 0 1 1.28-.53 55.26 55.26 0 0 1 3.56-1.21c3-.95 7.26-2.08 12-3.07a119.11 119.11 0 0 1 12.24-1.93c1.58-.17 2.86-.25 3.74-.28a8.12 8.12 0 0 1 1.38 0zm-48.47 45.42a3.44 3.44 0 0 1-.24-.42l-.6-1.23-2.1-4.6c-1.72-3.9-3.94-9.37-6.3-15.43l-6.16-15.47-2-4.65-.52-1.27a2 2 0 0 1-.16-.46s.1.14.25.42l.6 1.23c.52 1.07 1.24 2.64 2.1 4.6 1.72 3.9 3.94 9.36 6.3 15.43l6.2 15.5 2 4.65.52 1.27a1.31 1.31 0 0 1 .11.42z"/><path d="M572.7 175.83a1.6 1.6 0 0 1-.45.2l-1.32.47-4.85 1.66-16 5.66-16 5.52-4.9 1.52-1.35.38a2.31 2.31 0 0 1-.48.1 1.6 1.6 0 0 1 .45-.2l1.32-.47 4.85-1.67 16-5.65 16-5.52 4.9-1.52 1.35-.38a2.31 2.31 0 0 1 .48-.1z"/></g><path d="M675.9 269.23a10.16 10.16 0 0 1-3.73 7 17.94 17.94 0 0 1-7.31 3.48c-5.1 1.28-11.1.35-16.15-1.2 2.06-5.47 8-8.78 11.1-10.26 4.92-2.35 15.25-3.6 16.1 1m-33.48 17.1a8.66 8.66 0 0 1 8.68-.26 11.5 11.5 0 0 1 5.46 7 4.84 4.84 0 0 1-.26 4.07 3.72 3.72 0 0 1-3.5 1.37 7.54 7.54 0 0 1-3.53-1.64c-3.6-2.74-6.55-6.05-6.85-10.55" class="F"/><g class="E"><path d="M629.26 285.72a16.81 16.81 0 0 1 3.42-.64 16.06 16.06 0 0 1 3.81 0 35 35 0 0 1 4.59.71 17.36 17.36 0 0 1 7.52 3.78 12.75 12.75 0 0 1 1.71 1.92 2.68 2.68 0 0 1 .47.82c-.1.06-.82-1.07-2.45-2.42a18.72 18.72 0 0 0-7.39-3.53 43.51 43.51 0 0 0-4.51-.74 18.41 18.41 0 0 0-3.71-.12 22.77 22.77 0 0 1-3.46.22z"/><path d="M668.14 270.88a10.56 10.56 0 0 1-1.59.78l-4.4 1.9a472.26 472.26 0 0 1-14.67 5.93c-5.77 2.22-11.06 4.06-14.9 5.32l-4.58 1.44a9.8 9.8 0 0 1-1.71.44 10.23 10.23 0 0 1 1.64-.66l4.5-1.6 14.84-5.5 14.73-5.76 4.47-1.73a10 10 0 0 1 1.67-.57z"/></g><path d="M638.2 280.84a20.25 20.25 0 0 0 7.79-16.78c-.08-1.64-.6-3.55-2.13-4.1s-3.15.63-4.2 1.88a17.28 17.28 0 0 0-1.88 19.1" class="F"/><path d="M642.38 267.2a2.76 2.76 0 0 1 0 .93c0 .6-.1 1.45-.23 2.5a23 23 0 0 1-2.47 7.95 14.53 14.53 0 0 1-2.89 3.62 14.09 14.09 0 0 1-5.52 3 2.93 2.93 0 0 1-.91.18c0-.12 1.24-.47 3.1-1.44a14.9 14.9 0 0 0 3-2.12 14.48 14.48 0 0 0 2.74-3.5 25.53 25.53 0 0 0 2.57-7.73 31.86 31.86 0 0 1 .62-3.4z" class="E"/><path d="M108.27 97.34a12 12 0 0 1 8.85 3.18 21.21 21.21 0 0 1 5.32 8c2.37 5.76 2.3 12.94 1.36 19.1-6.76-1.47-11.64-7.85-13.9-11.25-3.6-5.36-6.82-17.23-1.62-19M134 133.63a10.27 10.27 0 0 1-1.79-10.13 13.6 13.6 0 0 1 7.28-7.58c1.52-.7 3.32-1.13 4.8-.4a4.36 4.36 0 0 1 2.2 3.86 8.86 8.86 0 0 1-1.32 4.42c-2.6 4.66-6 8.7-11.18 9.82" class="F"/><g class="E"><path d="M135.54 149.16a20.69 20.69 0 0 1-1.34-3.9 19.11 19.11 0 0 1-.66-4.46 42.3 42.3 0 0 1 .05-5.49 20.49 20.49 0 0 1 3.15-9.45 15.55 15.55 0 0 1 1.94-2.34c.54-.48.85-.7.9-.68s-1.1 1.14-2.4 3.28a22 22 0 0 0-2.88 9.25 49.7 49.7 0 0 0-.09 5.41 20.82 20.82 0 0 0 .49 4.36 28.42 28.42 0 0 1 .86 4.02z"/><path d="M111.53 106.17a11.14 11.14 0 0 1 1.18 1.71l3 4.83c2.5 4.1 5.87 9.8 9.44 16.18s6.65 12.25 8.78 16.55l2.47 5.1a10.91 10.91 0 0 1 .8 1.92 12.89 12.89 0 0 1-1.05-1.8l-2.66-5-8.95-16.43-9.26-16.24-2.8-4.94a12.53 12.53 0 0 1-.95-1.89z"/></g><path d="M128.3 139.5a23.92 23.92 0 0 0-21-6.25c-1.9.37-4 1.3-4.42 3.2s1.27 3.57 2.9 4.6A20.47 20.47 0 0 0 128.5 140" class="F"/><path d="M111.6 137a3.19 3.19 0 0 1 1.08-.18c.7-.08 1.72-.13 3-.15a27 27 0 0 1 9.73 1.53 16.61 16.61 0 0 1 4.72 2.77 16.41 16.41 0 0 1 3 3.33 15.9 15.9 0 0 1 1.44 2.62 3.5 3.5 0 0 1 .37 1c-.13.06-.75-1.38-2.2-3.38a17.88 17.88 0 0 0-3-3.12 17.44 17.44 0 0 0-4.56-2.61 30.36 30.36 0 0 0-9.49-1.69 36.52 36.52 0 0 1-4.08-.12z" class="E"/><path d="M345.5 465.58a10.7 10.7 0 0 1 .05-8.38 18.8 18.8 0 0 1 5.12-6.85c4.14-3.7 10.2-5.77 15.66-6.82.76 6.13-3.15 12.13-5.33 15-3.44 4.62-12.46 10.86-15.5 7m22.87-32.4a9.1 9.1 0 0 1-8 4.51 12.11 12.11 0 0 1-8.54-3.87 5.09 5.09 0 0 1-1.75-3.93 3.9 3.9 0 0 1 2.59-3 7.91 7.91 0 0 1 4.1-.2c4.7.8 9.1 2.42 11.58 6.48" class="F"/><g class="E"><path d="M381 427.26a17.23 17.23 0 0 1-2.88 2.28 16.94 16.94 0 0 1-3.55 1.88 37.86 37.86 0 0 1-4.63 1.59 18.28 18.28 0 0 1-8.89.16 13.77 13.77 0 0 1-2.54-.94c-.56-.3-.85-.5-.83-.54s1.28.6 3.47 1.05a19.57 19.57 0 0 0 8.64-.33 48 48 0 0 0 4.57-1.52 18.34 18.34 0 0 0 3.52-1.72 28 28 0 0 1 3.12-1.91z"/><path d="M352 460.22a11.12 11.12 0 0 1 1.1-1.51l3.17-3.94c2.7-3.3 6.5-7.84 10.8-12.75s8.33-9.22 11.3-12.3l3.56-3.6a11.11 11.11 0 0 1 1.38-1.25 10.44 10.44 0 0 1-1.2 1.42c-.9 1-2 2.22-3.42 3.73l-11.17 12.4-10.92 12.6-3.33 3.82a11 11 0 0 1-1.28 1.35z"/></g><path d="M375 436.22a21.37 21.37 0 0 0 1 19.49c.87 1.5 2.3 3 4 2.77s2.63-2.13 3-3.82a18.26 18.26 0 0 0-7.63-18.76" class="F"/><path d="M377.83 451s-.2-.3-.48-.86-.6-1.4-1-2.45a24.28 24.28 0 0 1-1.6-8.64 15.28 15.28 0 0 1 .92-4.8 14.54 14.54 0 0 1 1.92-3.49 13.72 13.72 0 0 1 1.78-2c.46-.43.73-.65.76-.62s-.93 1-2.18 2.86a16.19 16.19 0 0 0-1.74 3.44 15.74 15.74 0 0 0-.84 4.61 27.22 27.22 0 0 0 1.4 8.49 31.3 31.3 0 0 1 1.06 3.46z" class="E"/><use xlink:href="#B" class="C"/><use xlink:href="#B" opacity=".7" class="D"/><use xlink:href="#C" class="C"/><use xlink:href="#C" opacity=".7" class="D"/><use xlink:href="#D" class="C"/><use xlink:href="#D" opacity=".7" class="D"/><use xlink:href="#E" class="C"/><use xlink:href="#E" opacity=".7" class="D"/><path d="M466.52 201.23c2.18-.27 3.9-1.87 5.9-2.8a10.22 10.22 0 0 1 9.42.47c2.8 1.68 4.8 3.7 5 7l-3.67 4" class="B"/><path d="M489.76 221.67l-5.9 35.4c-1 6-3.7 14.67-13.15 12.65h0c-8.07-2.37-8.86-10.55-7.92-16.17l.84-5.17s-8.87-2.35-8-11.38c.4-4.36 2-13.3 3.48-21.34A16.9 16.9 0 0 1 477.44 202l.87.1c9.33 1.52 13.24 10.3 11.45 19.58z" class="I"/><path d="M463.63,248.26a21.1,21.1,0,0,0,12.11-2.11s-3.46,6.2-12.37,4.45Z" class="M"/><path d="M459.9 221.07c.18.16 1.4-.3 3.07-.1s2.84.93 3 .8-.08-.33-.6-.66a5.77 5.77 0 0 0-2.41-.82 5.16 5.16 0 0 0-2.46.26c-.5.2-.7.45-.6.52zm13.7 1.53c.18.16 1.4-.3 3.06-.1s2.83.92 3 .8-.08-.33-.6-.66a6.08 6.08 0 0 0-2.4-.81 5.4 5.4 0 0 0-2.45.25c-.52.2-.7.44-.62.5zm-.32 2.22a1 1 0 0 0 .85 1.1 1 1 0 0 0 1.12-.79 1 1 0 0 0-.85-1.1 1 1 0 0 0-1.12.79zm-12.95-1.42a1 1 0 0 0 .85 1.11 1 1 0 0 0 1.12-.79 1 1 0 0 0-.85-1.11 1 1 0 0 0-1.12.79zm7.67 8.34a8.8 8.8 0 0 0-2.21-.64c-.35-.08-.68-.18-.7-.43a1.77 1.77 0 0 1 .35-1l1.33-2.58a49.16 49.16 0 0 0 3.09-6.8c-.15-.08-1.78 2.85-3.63 6.53L465 229.4a2 2 0 0 0-.33 1.37.91.91 0 0 0 .53.58 2.56 2.56 0 0 0 .59.15 9.06 9.06 0 0 0 2.21.24zm7.26-15.2c.1.36 1.32.32 2.74.65s2.53.86 2.76.57-.07-.5-.5-.87a4.62 4.62 0 0 0-2-1 4.44 4.44 0 0 0-2.2 0c-.54.24-.83.48-.8.65zm-14.66.22c.1.3 1.33.2 2.74.42s2.56.6 2.76.34-.1-.4-.56-.7a5.33 5.33 0 0 0-4.18-.58c-.53.16-.8.38-.76.52z" class="B"/><path d="M488.32 228.27c.16-.05 6.4-1.2 5.55 5s-6.84 4-6.83 3.85 1.28-8.85 1.28-8.85z" class="I"/><path d="M489.24 235a1.72 1.72 0 0 0 .26.2 1.09 1.09 0 0 0 .8.13 2.68 2.68 0 0 0 1.55-2.21 3.45 3.45 0 0 0-.09-1.58 1.23 1.23 0 0 0-.69-.93.55.55 0 0 0-.67.21c-.1.16-.08.3-.12.3s-.12-.12 0-.37a.71.71 0 0 1 .29-.35.81.81 0 0 1 .62-.07 1.51 1.51 0 0 1 1 1.1 3.7 3.7 0 0 1 .14 1.77 2.81 2.81 0 0 1-1.93 2.44 1.16 1.16 0 0 1-1-.3c-.17-.17-.2-.33-.16-.33z" class="M"/><g class="B"><path d="M457.35 213.6a13.08 13.08 0 0 0 11.85-1.39c2.4-1.63 4.36-4.13 7.2-4.68a7.35 7.35 0 0 1 5.52 1.35 14.2 14.2 0 0 1 3.84 4.35c-2.22 4.4-1.6 9.64-.9 14.52a2.45 2.45 0 0 0 .57 1.5 2 2 0 0 0 2.51-.28 7.68 7.68 0 0 0 2.1-3.85 25.53 25.53 0 0 0 1-10 17.35 17.35 0 0 0-3.83-9.21 16.42 16.42 0 0 0-11-5.54 20.15 20.15 0 0 0-12.09 2.94 11.88 11.88 0 0 0-4.24 4"/><path d="M457.9 222.12c.58-2.48.85-5.6 1.43-8.1a15.1 15.1 0 0 0 11.14-2.77c1.64-1.27 3.06-3 5.05-3.56 2.57-.74 5.23.6 7.56 1.92l-.1-.1a11.35 11.35 0 0 1 3 3.1 35.26 35.26 0 0 0-1.13 15 2.57 2.57 0 0 0 1.17 1.85c1.27.77 2.22-.1 3.18-.7.7-.44 1.7-.72 2.3-.15a35 35 0 0 0 4.06-10 2.52 2.52 0 0 0 4.44 2.22 5.31 5.31 0 0 1-1.22-2.52 3.26 3.26 0 0 0 4.65-.37l-1.95-2 2.78.15a14.85 14.85 0 0 1-5.28-4.57 22.94 22.94 0 0 0-4.91-5c-2-1.28-4.64-1.8-6.68-.62.14-3.25-2.2-6.26-5.14-7.63a21.08 21.08 0 0 0-11.18-1.11c-2.46.52-5 2-8.2 4.3a29.94 29.94 0 0 0-4.26 3.68c-1.94 2.05-5.8 5.4-9.52 4.4l.33 3.82c2 1.9 6.13.23 6.13.23s-2.38 2.37-4.6 2.3l.6 3.28s3.37.6 4.85-2z"/></g><g class="J"><path d="M485.76 213.22l-.9-1.3a11.42 11.42 0 0 0-3.1-2.86 11.76 11.76 0 0 0-2.72-1 5.87 5.87 0 0 0-3.25-.08c-2.26.68-3.9 3-6.33 4.43a13.93 13.93 0 0 1-7.52 2.23 17.15 17.15 0 0 1-1.78-.08 1.63 1.63 0 0 0-.74 0 7.72 7.72 0 0 0-.71.35 6.78 6.78 0 0 0-1.9 2.13 5.37 5.37 0 0 1-3.7 2.19 6.15 6.15 0 0 1-1.18 0 1.42 1.42 0 0 1-.4-.07c0-.05.57 0 1.55-.15a5.31 5.31 0 0 0 3.45-2.21 6.86 6.86 0 0 1 2-2.28 6.72 6.72 0 0 1 .76-.38 2.09 2.09 0 0 1 .92-.08 16.38 16.38 0 0 0 1.73.06 13.75 13.75 0 0 0 7.27-2.2 25.91 25.91 0 0 0 3.17-2.45 9.49 9.49 0 0 1 3.29-2 6.28 6.28 0 0 1 3.48.11 12 12 0 0 1 2.79 1.14 10.77 10.77 0 0 1 3.08 3.06 7.14 7.14 0 0 1 .6 1l.14.43zm9.7 5.4s0 .2-.17.5a4.63 4.63 0 0 1-.78 1.28 2.39 2.39 0 0 1-2.14.87 1.68 1.68 0 0 1-1.21-.86 2.5 2.5 0 0 1-.27-1.55l.46.12a2 2 0 0 1-1.74 1.17 2.44 2.44 0 0 1-1.82-.68 3.8 3.8 0 0 1-1-1.49 10 10 0 0 1-.41-2.87 14.18 14.18 0 0 0-.33-2.57 4.75 4.75 0 0 1 .67 2.55 10.43 10.43 0 0 0 .5 2.73 3.33 3.33 0 0 0 .86 1.29 2 2 0 0 0 1.47.55 1.53 1.53 0 0 0 1.32-.86l.83-2.07-.37 2.2a1.61 1.61 0 0 0 1.08 1.94 2.1 2.1 0 0 0 1.84-.67 6.06 6.06 0 0 0 .87-1.15l.34-.43zm-2.27 6.77a2.65 2.65 0 0 1-1.73.45 5.93 5.93 0 0 1-3.93-1.72 11.19 11.19 0 0 1-2.35-3.58 5.47 5.47 0 0 1-.58-1.66 7.38 7.38 0 0 1 .89 1.51 13.8 13.8 0 0 0 2.38 3.38 6.2 6.2 0 0 0 3.61 1.72 13.18 13.18 0 0 0 1.71-.1z"/><path d="M492.92 226.54a3.26 3.26 0 0 1-1.52.11 8.27 8.27 0 0 1-3.49-1.18 8.13 8.13 0 0 1-2.64-2.58 3 3 0 0 1-.59-1.41 10.14 10.14 0 0 1 .88 1.21 9.86 9.86 0 0 0 2.6 2.36 9.72 9.72 0 0 0 3.29 1.25 9.18 9.18 0 0 1 1.47.24zm3.98-23.02a9.88 9.88 0 0 1-1.54-.21 10.3 10.3 0 0 0-3.65.22 10.43 10.43 0 0 0-3.34 1.51c-.77.54-1.2 1-1.26.9a3.55 3.55 0 0 1 1.05-1.19 8.85 8.85 0 0 1 3.43-1.71 8.57 8.57 0 0 1 3.82-.08 3.48 3.48 0 0 1 1.49.55z"/><path d="M488.54 198.17a7.79 7.79 0 0 1-1.28 8.19 19.1 19.1 0 0 0 1.33-4 18.49 18.49 0 0 0-.05-4.19z"/><path d="M452.62 209.35a4.22 4.22 0 0 0 1.29.74 7.12 7.12 0 0 0 4-.47l2.68-1a17.13 17.13 0 0 0 2.93-1.38c2-1.14 4-2.77 6.47-3.88a11.3 11.3 0 0 1 3.84-1 7.08 7.08 0 0 1 3.63.75c2.1 1.1 3.6 2.62 5.2 3.25a5.17 5.17 0 0 0 3.93.18 4.22 4.22 0 0 0 1.19-.87s-.05.12-.2.34a2.9 2.9 0 0 1-.9.71 5.28 5.28 0 0 1-4.14 0c-1.7-.64-3.25-2.16-5.27-3.17a6.68 6.68 0 0 0-3.4-.68 11.21 11.21 0 0 0-3.67 1c-2.4 1.07-4.4 2.68-6.45 3.82a16.8 16.8 0 0 1-3 1.38l-2.7.94a7 7 0 0 1-4.15.32 2.71 2.71 0 0 1-1-.61 1.51 1.51 0 0 1-.27-.37zm34.84-3.5a30.62 30.62 0 0 0-2.37-2.4 14.13 14.13 0 0 0-7.32-3.19 24.53 24.53 0 0 0-4.47.05 25.13 25.13 0 0 1-3.72.08 8.15 8.15 0 0 1-2.46-.54 2.49 2.49 0 0 1-.81-.44 12.36 12.36 0 0 0 3.29.63 29.35 29.35 0 0 0 3.67-.18 22 22 0 0 1 4.56-.09 13.64 13.64 0 0 1 7.49 3.42 12.23 12.23 0 0 1 1.67 1.87 3 3 0 0 1 .47.79z"/></g><path d="M468.7 236.22c0-.17 1.22-.3 2.26-1.28a6.9 6.9 0 0 0 1.13-1.44c.26-.4.45-.67.5-.63s0 .32-.2.8a4.39 4.39 0 0 1-1.1 1.64 3.73 3.73 0 0 1-1.77.92c-.54.1-.82.06-.83 0z" class="B"/><path d="M629.62 408.06l16.38-9.28s14.93 13.53 18.13 12.1l-16.86-32.4-26.1 13.4z" class="C"/><path d="M639.38 389.5a1.5 1.5 0 0 1 1-1.7 1.44 1.44 0 0 1 1.7 1 1.56 1.56 0 0 1-1.08 1.8 1.48 1.48 0 0 1-1.64-1.24m7.9-10.86l-2.58 1.5 17.12 30.52s1.38 1.1 2.3.42z" class="G D"/><path d="M646.1 399.4c.16-.08-.18-.9-.08-1.95s.55-1.8.42-1.92-.93.6-1 1.86.56 2.12.66 2zm3.18 2.66c.17 0 .08-.87.47-1.75s1-1.4.93-1.56-1 .2-1.5 1.32-.06 2.07.1 2zm5.06-.18c0-.17-.94 0-1.6.88s-.6 1.78-.44 1.78.4-.7.94-1.4 1.17-1.14 1.1-1.26zm-12.2-.78c.1-.15-.5-.76-.9-1.68s-.5-1.77-.67-1.78-.4.95.1 2 1.37 1.6 1.46 1.46z" class="B"/><path d="M632.86 406.22l2.92-1.65-8.42-15.84-2.7 1.37 8.2 16.12z" class="H"/><g class="B"><path d="M638.8 402.9c.07 0-.16-.7-.85-1.62a8.55 8.55 0 0 0-1.41-1.43 8.39 8.39 0 0 0-1-.67 2.05 2.05 0 0 0-.63-.29.78.78 0 0 0-.88.36 1 1 0 0 0 0 .88 2.13 2.13 0 0 0 .4.57 6.77 6.77 0 0 0 .87.83 6.29 6.29 0 0 0 1.76 1 3 3 0 0 0 1.81.27c0-.1-.67-.2-1.64-.67a7.77 7.77 0 0 1-1.57-1 7.11 7.11 0 0 1-.77-.78c-.27-.3-.42-.58-.32-.75s.07-.08.2-.06a2.07 2.07 0 0 1 .47.21 9.52 9.52 0 0 1 .94.61 10.71 10.71 0 0 1 1.41 1.25c.76.75 1.12 1.38 1.2 1.3z"/><path d="M638.92 402.58a2.87 2.87 0 0 0-1.79.39 6.1 6.1 0 0 0-1.66 1.14 6 6 0 0 0-.77.93 1.51 1.51 0 0 0-.28 1.46.84.84 0 0 0 .8.44 2.15 2.15 0 0 0 .68-.14 4.19 4.19 0 0 0 2.41-2.13 2.37 2.37 0 0 0 .3-1.81c-.1 0-.13.7-.68 1.6a4.28 4.28 0 0 1-1.26 1.3 3.64 3.64 0 0 1-.95.46c-.37.13-.72.15-.75 0a1 1 0 0 1 .24-.85 5.71 5.71 0 0 1 .67-.85 6.57 6.57 0 0 1 1.45-1.16c.93-.54 1.6-.68 1.6-.78z"/></g><path d="M583 433.57l18.57-3.05s9.34 17.86 12.82 17.63l-4.6-36.22-29.13 3.56z" class="C"/><path d="M598.54 419.53a1.47 1.47 0 0 1 1.55-1.24 1.43 1.43 0 0 1 1.24 1.53 1.56 1.56 0 0 1-1.65 1.3 1.49 1.49 0 0 1-1.12-1.74m11.18-7.45l-2.92.47 5.5 34.6s.9 1.52 2 1.2z" class="G D"/><path d="M601.42 431.14c.18 0 .15-.93.6-1.87s1.15-1.5 1.06-1.66-1.08.24-1.62 1.4-.2 2.18-.04 2.13zm2.06 3.6c.18 0 .38-.78 1-1.48s1.44-1 1.4-1.14-1-.16-1.86.72-.72 1.92-.55 1.9zm4.82 1.57c0-.16-.9-.3-1.8.28s-1.2 1.45-1 1.5.6-.52 1.36-1 1.46-.6 1.45-.8zm-11.2-4.94c.16-.1-.2-.87-.25-1.88s.16-1.83 0-1.9-.7.75-.6 1.94.75 1.94.86 1.84z" class="B"/><path d="M586.64 432.96l3.3-.53-2.43-17.78-3 .35 2.12 17.96z" class="H"/><g class="B"><path d="M593.36 431.9a3.55 3.55 0 0 0-.24-1.82 8.62 8.62 0 0 0-.83-1.82 9.53 9.53 0 0 0-.68-1 2.33 2.33 0 0 0-.5-.49.77.77 0 0 0-1 0 1 1 0 0 0-.31.83 2.7 2.7 0 0 0 .18.67 6.78 6.78 0 0 0 .53 1.08 6.85 6.85 0 0 0 1.31 1.53 3.16 3.16 0 0 0 1.61.88c0-.1-.55-.43-1.3-1.2a7.49 7.49 0 0 1-1.11-1.5 7.06 7.06 0 0 1-.46-1c-.15-.37-.2-.7 0-.82s.08-.05.2 0a2.13 2.13 0 0 1 .36.37 9 9 0 0 1 .67.89 10.16 10.16 0 0 1 .89 1.66 13.45 13.45 0 0 0 .68 1.74z"/><path d="M593.58 431.64a3 3 0 0 0-1.81-.25 6 6 0 0 0-2 .5 6.48 6.48 0 0 0-1 .6 1.52 1.52 0 0 0-.77 1.27.85.85 0 0 0 .6.7 2.61 2.61 0 0 0 .69.1 4.41 4.41 0 0 0 1.23-.15 4.26 4.26 0 0 0 1.77-1c.85-.83 1-1.6.9-1.6s-.35.6-1.2 1.27a4.14 4.14 0 0 1-1.63.79 3.64 3.64 0 0 1-1 .1c-.4 0-.72-.1-.7-.26s.22-.52.5-.7a5.41 5.41 0 0 1 .93-.57 6.87 6.87 0 0 1 1.76-.59c1-.2 1.7-.1 1.7-.2zm-86.85-98.26c-.58.23 8.8 9.25 10.3 15.36 1.8 7.37 6.75 15.8 6.75 15.8l34.62 33.16 65.2-9.54 11 20.1-78.6 21.3a14.3 14.3 0 0 1-12.27-2.32L493 389.54l-29.08-36z"/><path d="M459.1 356.28l4.2 15.44c11.78 24.34 34.22 70.43 40.16 73.4 8.26 4.13 84.23-11 84.23-11l-1.7-20.94-63.75 5.5-42.64-74.9z"/></g><g class="J"><path d="M629.57 409.62s-.14.06-.43.15l-1.28.4-4.93 1.44-18.18 5.2-47.1 13.36a19.83 19.83 0 0 1-13.26-1.45 21.78 21.78 0 0 1-3.87-2.44L537 423.5q-3.5-2.76-6.83-5.5c-4.42-3.66-8.65-7.24-12.6-10.75-7.92-7-14.8-13.56-20.4-19.25s-9.88-10.54-12.68-14l-1.85-2.32-2.04-2.87c-.17-.25-.24-.38-.24-.38s.1.1.3.35.46.6.8 1.06l1.3 1.74 1.88 2.3c2.84 3.44 7.15 8.25 12.78 13.9s12.57 12.17 20.45 19.13l12.6 10.72 6.82 5.5 3.54 2.73a20.22 20.22 0 0 0 3.79 2.4 19.4 19.4 0 0 0 12.92 1.42c1.4-.35 2.8-.78 4.18-1.16l15.94-4.5 27-7.55 18.2-5.06 5-1.35 1.3-.34zM480.4 357.25c.05.06-.42.28-.5.95a1.3 1.3 0 0 0 .29 1 1.15 1.15 0 0 0 1.88-.82 1.28 1.28 0 0 0-.55-.91c-.56-.4-1-.2-1.05-.28s.08-.1.3-.17a1.36 1.36 0 0 1 .93.16 1.54 1.54 0 0 1 .82 1.16 1.57 1.57 0 0 1-2.67 1.16 1.57 1.57 0 0 1-.29-1.4 1.37 1.37 0 0 1 .52-.78c.2-.1.32-.1.33-.07zm33.2-9.02a3 3 0 0 1-.57.61 14.54 14.54 0 0 1-1.83 1.37 15.79 15.79 0 0 1-7.15 2.36 15.55 15.55 0 0 1-7.41-1.24 12.22 12.22 0 0 1-2-1.07 2.74 2.74 0 0 1-.67-.52c.05-.08 1 .6 2.82 1.27a16.53 16.53 0 0 0 14.25-1.1c1.63-.9 2.5-1.75 2.56-1.68z"/><path d="M572.44 292.87s-45.33-17-48.08-19.46-14.72-16-19.7-17.75c0 0-8.08-2.12-13.58-1.8l-5.8.7v-4.4l-23.87.4-.66 5.88-4.07 1.54s-9.56 20-9.56 29.12-4.72 62.5 4.58 72.77c1.43 1.57 7 .56 7 .56s26.84-2.86 53.52-21.52l-9.77-11.3S499 304 503 287.06l.26-1.1c11.55 5.7 29.33 14 34.55 14 0 0 29.24 9.87 34.64 3.55.6-.7-.01-10.64-.01-10.64z"/><path d="M461.3 257.06s-9.35.37-15.44 7.94-16 39.86-16 39.86l-13.64-14-13 7.2s18.38 25.62 22 28.6a19.4 19.4 0 0 0 6.64 2.83c8.73.76 14.63-8.13 16.42-15.46l6-30.13"/></g><path d="M407.18 295.85l-14-8.3s-4.23-10-2.6-10.47 3 5.57 3 5.57l2 1s-2.73-5.08-1.78-5.56 2.28 1 3 2.17c.56.88 2.37 4.57 2.37 4.57l.94-1.3-.74-3.4s-1-2.28.1-2.3 1.1-.1 1.94 1.8l1.4 3.3s4.08 2.42 4.95 2.15a5.11 5.11 0 0 1 4 .31s3.87 2 2.94 6.15" class="I"/><path d="M501.88 258.37c.07 0-.3 1-.75 2.52a28 28 0 0 0-.69 12.47l.45 2.6a9.8 9.8 0 0 1-.8-2.52 23.79 23.79 0 0 1-.5-6.37 23.52 23.52 0 0 1 1.21-6.27 9.62 9.62 0 0 1 1.08-2.42zm-37.48-1.24a9.38 9.38 0 0 1-.25-3.4 9.26 9.26 0 0 1 .52-3.37 16.54 16.54 0 0 1 0 3.39 16.77 16.77 0 0 1-.27 3.38zm5.6.87a14.71 14.71 0 0 1 .08-3.82 15.59 15.59 0 0 1 .58-3.77 14.48 14.48 0 0 1-.09 3.82A15.31 15.31 0 0 1 470 258zm7.44-.23c-.14 0 .2-1.67.34-3.7l.18-3.7a12.36 12.36 0 0 1-.52 7.41zm5.46-1.37c-.14 0 .08-1.4.05-3.1l-.15-3.1a5.91 5.91 0 0 1 .64 3.09 6.21 6.21 0 0 1-.54 3.12zm-35.3 12.88c.13 0 0 13.06-.3 29.16l-.8 29.16c-.14 0 0-13.06.3-29.17l.8-29.15z" class="B"/><path d="M446.7 300a12.4 12.4 0 0 1-2-1.11 27.57 27.57 0 0 0-4.78-2.44 12.15 12.15 0 0 0-5.22-.76c-1.36.12-2.16.47-2.2.4a4.8 4.8 0 0 1 2.15-.74 11.16 11.16 0 0 1 5.43.65 21.47 21.47 0 0 1 4.8 2.61 8.87 8.87 0 0 1 1.81 1.4zm54.66-9.17a3.42 3.42 0 0 1-.47.3l-1.38.8-2.24 1.2-3 1.44-3.76 1.55-4.4 1.52a80.06 80.06 0 0 1-10.42 2.41 81.19 81.19 0 0 1-10.66.88c-1.65 0-3.2 0-4.67-.1l-4.06-.33-3.32-.46-2.5-.45-1.56-.35a2.09 2.09 0 0 1-.54-.15 2.13 2.13 0 0 1 .56.05l1.58.26 2.5.37 3.32.38 4 .27 4.64.06a77.58 77.58 0 0 0 21-3.26l4.4-1.47 3.77-1.5 3-1.37 2.27-1.1 1.42-.72a2 2 0 0 1 .53-.22zm26.3-14.48c.05.07-.8.63-2 1.7a25.89 25.89 0 0 0-4.26 4.68 26.69 26.69 0 0 0-3 5.6l-.9 2.5a2.22 2.22 0 0 1 .08-.71 15.71 15.71 0 0 1 .5-1.9 22 22 0 0 1 7.34-10.43 12.91 12.91 0 0 1 1.61-1.11c.4-.24.62-.35.64-.32zm5.07 1.55c0 .08-1 .54-2.47 1.5a21.91 21.91 0 0 0-8.53 10.65l-.93 2.74c-.08-.02 0-.28.07-.78a14.31 14.31 0 0 1 .53-2.07 19.91 19.91 0 0 1 8.67-10.84 14.66 14.66 0 0 1 1.91-1 2.46 2.46 0 0 1 .75-.21zm-31.02 8.82a2.27 2.27 0 0 1-.51.24l-1.47.6-2.36.88-3.17 1.07-8.4 2.26c-3.2.73-6.75 1.33-10.5 1.78s-7.36.62-10.63.68-6.23-.08-8.7-.28c-1.23-.07-2.34-.2-3.32-.3s-1.82-.2-2.5-.32l-1.58-.24a2 2 0 0 1-.58-.08 2.15 2.15 0 0 1 .56 0l1.58.15a56.02 56.02 0 0 0 2.51.24c.98.07 2.08.2 3.32.23 2.46.16 5.4.22 8.66.17s6.84-.3 10.58-.7 7.27-1.06 10.46-1.73 6-1.44 8.4-2.15c1.2-.33 2.24-.7 3.18-1a80.05 80.05 0 0 0 2.38-.8l1.5-.5a2.21 2.21 0 0 1 .58-.17zm-54.52 5.68a36.08 36.08 0 0 0-5.33-2.89A36.67 36.67 0 0 0 436 288a5.05 5.05 0 0 1 1.81 0 16.66 16.66 0 0 1 4.25 1 16.29 16.29 0 0 1 3.82 2.12 4.76 4.76 0 0 1 1.32 1.27z" fill="#fafafa"/><path d="M587.36 289.1l-9.9 3.32-5 .44v10.66l5.14 1.75 13.8-.75s7.9 4 9.9 3.76 2-.86 2-.86l-9.77-5.9a5.6 5.6 0 0 1 3.76.5c2.25 1 6.14 3.26 7.52 2.64s1.13-1.13 1.13-1.13l-7.65-4.82s6.55 2.94 7.67 2.44a2 2 0 0 0 1.23-1.48l-4.26-3.8-6.4-5z" class="I"/><path d="M581.86 293.5a5.11 5.11 0 0 1 1.08.45l2.83 1.38 4.15 2.2a3.51 3.51 0 0 1 1.11.88 2.63 2.63 0 0 1 .59 1.41 2.44 2.44 0 0 1-.34 1.56 2.29 2.29 0 0 1-1.38.89 4.63 4.63 0 0 1-2.19 0 15.81 15.81 0 0 1-1.91-.69l-3.3-1.53.26-.06a5.9 5.9 0 0 1-2.3 1.83 5.18 5.18 0 0 1-2.22.42 5.27 5.27 0 0 1-1.42-.24c-.3-.1-.47-.2-.46-.2a10.29 10.29 0 0 0 1.89.21 5.32 5.32 0 0 0 2.07-.49 5.77 5.77 0 0 0 2.11-1.77l.1-.14.15.08 3.3 1.47a15.53 15.53 0 0 0 1.85.65 4.38 4.38 0 0 0 1.94 0 1.88 1.88 0 0 0 1.1-.69 2 2 0 0 0 .27-1.24 2.52 2.52 0 0 0-1.46-1.95l-4.07-2.27-2.76-1.52a5 5 0 0 1-.99-.62zm16.88 5.24a19.23 19.23 0 0 1-4.38-2.72 9.66 9.66 0 0 1-.89-.77h.3a6.21 6.21 0 0 1-2.77.75 2.18 2.18 0 0 1-1.14-.11c0-.07.42-.08 1.1-.2a7.45 7.45 0 0 0 2.58-.85l.17-.1.14.14c.25.24.55.48.85.73a45.21 45.21 0 0 1 4.03 3.14z" class="M"/><path d="M615.63 375.37a20.49 20.49 0 0 1-5.9-.85c-19-5.7-18-19.4-17.23-30.42.74-10.27.77-16.73-7.7-19.9-11.2-4.2-15.82-.12-22.8 6.06-8.32 7.36-18.66 16.52-43.76 12.8-13-1.93-34-8.8-59.7-30.58a205.29 205.29 0 0 1-25.33-25.4l3.88-3.12c.4.48 38.78 47.8 81.9 54.17 22.8 3.38 31.8-4.58 39.73-11.6 7.12-6.3 13.84-12.25 27.86-7 12.38 4.65 11.6 15.42 10.92 24.93-.8 11.13-1.5 20.74 13.7 25.3 17.1 5.12 39.6-22 53-38.16 4.8-5.77 8.13-9.95 10.8-12.12l3.76 3c-1.66 2-6.28 7-10.72 12.3-13.66 16.5-33.68 40.6-52.36 40.6z" class="C"/><path d="M545.14 336s-.2.2-.6.44a15.3 15.3 0 0 1-1.75 1 26.83 26.83 0 0 1-6.29 2.16 26.41 26.41 0 0 1-6.62.51 19.27 19.27 0 0 1-2-.21 2.52 2.52 0 0 1-.72-.17c0-.08 1.06 0 2.74 0a31.35 31.35 0 0 0 12.75-2.64l2.5-1.1zm29.24-15.1a11.06 11.06 0 0 1-1.63-.06 11.2 11.2 0 0 0-7.19 2.48 11.08 11.08 0 0 1-1.25 1.05 3.67 3.67 0 0 1 1-1.31 9.55 9.55 0 0 1 7.44-2.56 3.63 3.63 0 0 1 1.63.4zm31.85 47.24a6.58 6.58 0 0 1-2.25-.69 14.52 14.52 0 0 1-7.56-8.18 6.66 6.66 0 0 1-.51-2.29c.08 0 .28.85.84 2.16a16.49 16.49 0 0 0 3 4.64 16.2 16.2 0 0 0 4.39 3.35l2.1 1zm69.63-46.87a61 61 0 0 1-7.88 7.86 64.53 64.53 0 0 1 7.88-7.86z" class="D"/><path d="M437.6 288.17h0a5.75 5.75 0 0 1-8.12.39l-8.78-8 7.74-8.5 8.77 8a5.75 5.75 0 0 1 .39 8.12z" class="C"/><path d="M437.6 288.17a14.17 14.17 0 0 0 .81-1.34 5.67 5.67 0 0 0 .27-4.17 5.6 5.6 0 0 0-1.59-2.47l-2.65-2.37-6.16-5.56h.34l-3.87 4.26-3.87 4.25v-.34L427 286l2.62 2.4a5.63 5.63 0 0 0 2.6 1.35 5.69 5.69 0 0 0 4.13-.67 13.42 13.42 0 0 0 1.26-.94 4.35 4.35 0 0 1-1.17 1.08 5.72 5.72 0 0 1-4.28.83 5.91 5.91 0 0 1-2.79-1.38l-2.65-2.37-6.35-5.73.17-.18 3.86-4.26 3.87-4.24.16-.18.18.16 8.74 8.02a5.84 5.84 0 0 1 1.64 2.65 5.73 5.73 0 0 1-.42 4.33 4.18 4.18 0 0 1-.97 1.29z" class="B"/><g class="C"><use xlink:href="#F"/><use xlink:href="#G"/></g><g class="D"><use xlink:href="#F" class="G"/><use xlink:href="#G" class="G"/></g><path d="M393.24 240.13a3 3 0 0 1 .23-.33l.68-.88 2.53-3.2v.2l-7.1-5.78-4.45-3.66-2.4-2-1.23-1a2.46 2.46 0 0 0-1.33-.58 2.53 2.53 0 0 0-2.24.86 2.57 2.57 0 0 0-.54 2.28 2.36 2.36 0 0 0 .54 1 8.11 8.11 0 0 0 .91.82l1.88 1.56 6.48 5.45 4.4 3.74 1.2 1a4.06 4.06 0 0 1 .43.4 2.64 2.64 0 0 1-.42-.3l-1.2-1-4.47-3.6-8.58-6.98a11 11 0 0 1-1-.87 3 3 0 0 1 2.67-5 3.12 3.12 0 0 1 1.59.69l1.22 1 2.38 2 4.43 3.7 7.12 6-.1.1-2.7 3.16-.72.8a1.77 1.77 0 0 1-.19.4zM379 258.42a1.91 1.91 0 0 1 .24-.33l.68-.88 2.53-3.2v.2l-7.1-5.8-4.45-3.65-2.4-2-1.23-1a2.62 2.62 0 0 0-1.34-.58 2.56 2.56 0 0 0-2.24.87 2.53 2.53 0 0 0-.53 2.28 2.4 2.4 0 0 0 .53 1 8.18 8.18 0 0 0 .92.81l8.36 7.02 4.4 3.74 1.2 1a2.63 2.63 0 0 1 .42.4l-.4-.3-1.2-.95-4.47-3.6-6.65-5.4-1.92-1.58a8.57 8.57 0 0 1-1-.87 2.89 2.89 0 0 1-.64-1.24 3 3 0 0 1 .63-2.71 3.06 3.06 0 0 1 2.67-1 3.13 3.13 0 0 1 1.59.69l1.23 1 2.38 2 4.43 3.68 7 5.9.1.1-.1.1-2.72 3.15-.7.8c-.1.22-.2.3-.2.3z" class="B"/><path d="M427.64,256l.4-.48a5.35,5.35,0,0,0-7.44-7.61l-22.16-18.46-25.35,30.33,22.68,18a5.35,5.35,0,0,0,1.09,7h0a5.34,5.34,0,0,0,7.44-.62,15.41,15.41,0,0,0,21.31-2.67l3.64-4.54A15.42,15.42,0,0,0,427.64,256Z" class="C"/><path d="M427.64 256l.2.17.53.5a7.36 7.36 0 0 1 .81.88l.5.6.5.73a14.62 14.62 0 0 1 2 4.17 15.41 15.41 0 0 1-2.23 13.33l-2.67 3.43a29.26 29.26 0 0 1-3.07 3.53 15.39 15.39 0 0 1-9.26 4.1 15.65 15.65 0 0 1-10.73-3.06h.3a5.64 5.64 0 0 1-3.65 1.89 5.54 5.54 0 0 1-4.11-1.24h0a5.6 5.6 0 0 1-1.14-7.32l.05.3-17.6-14.03-5.13-4.08-.2-.15.16-.2 25.52-30.47.16.14 22.1 18.5h-.17a5.45 5.45 0 0 1 8.82 4.35 5.28 5.28 0 0 1-1 3 6.67 6.67 0 0 1-.52.63l-.2.2s.24-.3.65-.88a5.41 5.41 0 0 0 .9-3 5.28 5.28 0 0 0-2.23-4.29 5.13 5.13 0 0 0-3-1 5.23 5.23 0 0 0-3.31 1.13l-.1.07-.1-.07-22.2-18.4h.3l-25.28 30.4v-.35l22.84 18.2-.12.18a5.13 5.13 0 0 0 1 6.71h0a5.12 5.12 0 0 0 7.13-.59l.14-.15.16.12A15.24 15.24 0 0 0 423.9 283a29.82 29.82 0 0 0 3-3.48l2.7-3.4a15.34 15.34 0 0 0 .42-17.23l-.5-.74-.48-.6a9.2 9.2 0 0 0-.78-.92l-.5-.53q-.12-.1-.1-.1z" class="B"/><path d="M386.634 243.65l15.636 12.93-2.53 3.06-15.636-12.93z" class="E"/><path d="M427.64 256a8.54 8.54 0 0 1-.84 1.18l-2.43 3.1c-2.07 2.6-5 6.16-8.27 10.05l-10.94 12.95a8 8 0 0 1-1 1.06 8.54 8.54 0 0 1 .84-1.18c.56-.75 1.4-1.8 2.43-3.1 2.07-2.6 5-6.16 8.27-10l8.4-10 2.55-3a7.67 7.67 0 0 1 .99-1.06zm-7.04-8.13a8.39 8.39 0 0 1-.9 1.24l-2.62 3.27-8.88 10.58-9 10.5-2.74 3.16a9.44 9.44 0 0 1-1.06 1.12 10.43 10.43 0 0 1 .91-1.24l2.62-3.27 8.88-10.58 9-10.48 2.74-3.17a10 10 0 0 1 1.05-1.12z" class="B"/><path d="M321 167.47c-.14.33-11.17 8.7-11.17 8.7l-.2 7.12 5.7.8 8.1-4.6 5.5-.28s3.35 1.77 4 2a1.94 1.94 0 0 0 2.25-.93l-5-3.64s5.54 3.1 6.07 2.68a1.72 1.72 0 0 0-.53-2.67s1.72.9 2.8.18.7-1.6.7-1.6l-7.32-6.57a5 5 0 0 0-3.41-1.28z" class="K"/><path d="M321.88 170.56a4.81 4.81 0 0 1-.08.85l-.37 2.34-.14-.17 4.2-.28a5.42 5.42 0 0 1 2.67.36 2.55 2.55 0 0 1 1.1 1.08 1.82 1.82 0 0 1 .07 1.63v.06h-.06c-1.33.8-3 .6-4.45.7a5.17 5.17 0 0 0-3.1 1.13 20.47 20.47 0 0 0-2.31 2.24 10.36 10.36 0 0 1-2.3 1.94 5.15 5.15 0 0 1-2.54.71 10 10 0 0 1-3.68-.77 6.07 6.07 0 0 1-1.24-.57 8.36 8.36 0 0 1 1.31.38 10.61 10.61 0 0 0 3.6.61 4.91 4.91 0 0 0 2.34-.71 10.28 10.28 0 0 0 2.18-1.9 20.49 20.49 0 0 1 2.34-2.31 5.65 5.65 0 0 1 3.37-1.24c1.55-.1 3.1.05 4.24-.63l-.1.1a1.73 1.73 0 0 0-.94-2.1 4.92 4.92 0 0 0-2.45-.35l-4.22.16h-.18v-.17l.5-2.32a3.16 3.16 0 0 1 .23-.78zm14.17 6.24a5 5 0 0 1-1.88-1.11c-1.08-.83-2.26-2.28-3.87-3.45a2.73 2.73 0 0 0-1.24-.52c-.44-.05-.9 0-1.35 0h-2.35a9.82 9.82 0 0 1-2.16-.14 8.9 8.9 0 0 1 2.16-.21l2.34-.1a11 11 0 0 1 1.41 0 3 3 0 0 1 1.47.6 40.23 40.23 0 0 1 3.81 3.59l1.66 1.33z" class="L"/><path d="M336.56 388.47L336.3 406s17.7 6.15 17.95 9.4l-33.93.7-.7-27.27z" class="C"/><path d="M325.76 404.7a1.38 1.38 0 0 0-.92 1.6 1.33 1.33 0 0 0 1.58.93 1.46 1.46 0 0 0 1-1.7 1.39 1.39 0 0 0-1.75-.79M320.3 416v-2.75l32.53.37s1.52.62 1.37 1.7z" class="G D"/><path d="M336.83 405.78c0 .16-.82.26-1.63.8s-1.22 1.25-1.38 1.2.08-1 1.06-1.67 2-.48 1.95-.33zm3.6 1.4c.05.16-.67.45-1.22 1.17s-.7 1.45-.86 1.45-.3-.94.4-1.8 1.67-1 1.67-.8zm2.1 4.22c-.15 0-.4-.8 0-1.7s1.18-1.3 1.25-1.16-.4.63-.72 1.4-.36 1.45-.53 1.47zm-6.08-9.6c-.06.15-.83-.07-1.76 0s-1.66.4-1.75.25.6-.75 1.7-.83 1.9.44 1.8.58z" class="B"/><path d="M336.5 391.93l-.04 3.12-16.7.2-.08-2.8 16.8-.5z" class="H"/><g class="B"><path d="M336.44 398.26a3.31 3.31 0 0 1-1.7 0 7.84 7.84 0 0 1-1.79-.51 8.25 8.25 0 0 1-1-.5 1.72 1.72 0 0 1-.52-.39.73.73 0 0 1-.1-.88.93.93 0 0 1 .72-.39 2.08 2.08 0 0 1 .64.08 5.48 5.48 0 0 1 1.06.34 6 6 0 0 1 1.59 1c.8.72 1.1 1.33 1 1.36s-.47-.45-1.28-1a6.69 6.69 0 0 0-1.54-.82 5.61 5.61 0 0 0-1-.28c-.36-.1-.66-.08-.75.08s0 .08 0 .2a2.2 2.2 0 0 0 .38.28l.9.5a9.06 9.06 0 0 0 1.66.59 10.92 10.92 0 0 1 1.72.35z"/><path d="M336.23 398.5a2.71 2.71 0 0 1-.48-1.64 5.49 5.49 0 0 1 .19-1.86 5.66 5.66 0 0 1 .42-1 1.38 1.38 0 0 1 1.06-.88.78.78 0 0 1 .72.46 2 2 0 0 1 .19.62 3.65 3.65 0 0 1 0 1.14 3.8 3.8 0 0 1-.69 1.77c-.64.9-1.33 1.1-1.34 1.05s.5-.4 1-1.27a4 4 0 0 0 .51-1.61 3.67 3.67 0 0 0-.06-1c-.06-.36-.2-.64-.33-.6s-.45.28-.6.57a6.68 6.68 0 0 0-.4.93 6 6 0 0 0-.29 1.71c-.01.97.18 1.6.1 1.62z"/><path d="M274.8 289.57c.83 1.25 37.67 39.47 37.67 39.47s-4.58 17.6-2.93 32.92 6.62 39.7 6.62 39.7l26.7-2.13-7.27-83L306.44 278z"/></g><path d="M345.8 369.13l3.28 17.2s18.57 2.44 19.5 5.56l-33.1 7.55-6.2-26.57z" class="C"/><path d="M338.5 387.22a1.38 1.38 0 0 0-.58 1.76 1.33 1.33 0 0 0 1.73.59 1.46 1.46 0 0 0 .61-1.86 1.37 1.37 0 0 0-1.87-.42m-2.93 12.14l-.52-2.7 31.93-6.23s1.62.3 1.7 1.38z" class="G D"/><path d="M349.57 386c0 .16-.76.42-1.44 1.12s-.94 1.48-1.1 1.45-.14-1 .7-1.86 1.85-.84 1.85-.7zm3.8.67c.07.15-.57.6-1 1.4s-.4 1.57-.55 1.6-.47-.86 0-1.86 1.5-1.28 1.55-1.13zm2.93 3.7c-.14.07-.55-.7-.34-1.67s.9-1.5 1-1.4-.26.7-.42 1.5-.1 1.5-.24 1.55zm-7.9-8.18c0 .16-.83.1-1.73.38s-1.54.72-1.66.6.44-.86 1.5-1.16 1.94.03 1.9.18z" class="B"/><path d="M346.44 372.54l.6 3.06-16.3 3.57-.65-2.74 16.36-3.9z" class="H"/><g class="B"><path d="M347.66 378.74a3.16 3.16 0 0 1-1.66.37 8.22 8.22 0 0 1-2.92-.42 2.21 2.21 0 0 1-.59-.28.71.71 0 0 1-.27-.84.9.9 0 0 1 .62-.53 2.21 2.21 0 0 1 .65-.06 6.62 6.62 0 0 1 1.11.12 5.93 5.93 0 0 1 1.75.65c.93.54 1.33 1.08 1.3 1.13s-.55-.35-1.47-.76a6.74 6.74 0 0 0-1.67-.5 5.57 5.57 0 0 0-1-.07c-.37 0-.67.05-.72.23s0 .1.08.17a1.57 1.57 0 0 0 .43.2 6.91 6.91 0 0 0 1 .3 8.66 8.66 0 0 0 1.74.25 11.44 11.44 0 0 1 1.63.04z"/><path d="M347.5 379c-.06 0-.5-.47-.8-1.5a5.88 5.88 0 0 1-.19-1.87 5.69 5.69 0 0 1 .2-1.1 1.41 1.41 0 0 1 .86-1.08.8.8 0 0 1 .8.31 2.15 2.15 0 0 1 .31.57 3.8 3.8 0 0 1 .26 1.11 4 4 0 0 1-.32 1.88c-.45 1-1.08 1.35-1.1 1.3a13.72 13.72 0 0 0 .73-1.45 4.05 4.05 0 0 0 .17-1.68 3.71 3.71 0 0 0-.25-.95c-.13-.34-.33-.6-.45-.53s-.4.37-.46.68a5.65 5.65 0 0 0-.15 2.72c.18 1 .5 1.6.4 1.6z"/><path d="M208.9 263.42s-2.47 15.8 7.1 26.15 19.9 14.9 38.1 14.07 57.5.1 57.5.1 1.66 21 6.2 38.17 13.63 43 13.63 43l17.8-1.7-6.05-101.85c-1.24-8.27-15-12.46-22.5-14.94s-50.16-11.05-50.16-11.05l-38.77-5.44z"/></g><g class="J"><path d="M349.25 383.16h-.3l-.93.07-3.62.26-13.75.9v-.12l-14.77-47.4c-1-3.2-2.07-6.5-2.8-9.93a67 67 0 0 1-1.49-10.6 50.67 50.67 0 0 1 .67-12.5l.23.3-30.3-.36-13 .07-11.3.2c-6.88 0-12.4-.35-16.18-.68l-4.34-.43-1.13-.15-.38-.06a2.29 2.29 0 0 1 .39 0l1.12.1 4.35.35c3.8.27 9.3.58 16.17.52 3.43 0 7.2-.2 11.28-.27l13-.1 30.6.3-.06.3a50.77 50.77 0 0 0-.65 12.35 67.26 67.26 0 0 0 1.47 10.53c.74 3.4 1.8 6.67 2.8 9.88l14.6 47.47-.15-.1 13.64-.76 3.62-.18h.93a1.57 1.57 0 0 1 .29.04z"/><path d="M321 293c.1.1-2.1 2.24-4.37 5.25l-3.84 5.66a7.32 7.32 0 0 1 .82-1.85 31 31 0 0 1 2.63-4.1 31.78 31.78 0 0 1 3.21-3.67A6.35 6.35 0 0 1 321 293z"/><path d="M325.83 294.68a39 39 0 0 0-7 3.58 39.82 39.82 0 0 0-5.84 5.32 8.45 8.45 0 0 1 1.35-1.92 22 22 0 0 1 9.26-6.4 7.75 7.75 0 0 1 2.23-.58zM246.4 168.5c1.3.65 28.62 17.35 29.92 17.35s33.6-11.8 33.6-11.8l6.62 10.22s-28.33 21.82-37.6 22.14-24-7.13-24-7.13zm-56.83 9.16s-34 34.56-33.57 43.34 4.64 13.63 7.34 14.77c3.77 1.6 46.33-3.64 46.33-3.64l2.52-16.56c-7-1.4-15.87-2.44-25.48-3.36 4.3-4.5 9.1-7.93 15-8.93l10.18-11.07s-12.72-16.7-22.32-14.55z"/><path d="M187.8 188s-1.63-7.46 2-10.45c6-5 11.12-7.27 15.48-9.44 5-2.5 10.3-5.37 10.3-5.37l30.85 5.74s16.47 26.3 16.12 32.77a17.17 17.17 0 0 1-4.45 10.54 39.77 39.77 0 0 0 2.25 21.1c3.7 9.17 10.24 22.42 10.24 22.42s-35.36-5.74-52.13 2.47c-9 4.4-9.8 11.4-9.8 11.4l-1.3-38.52-6.93-23.6z"/></g><g class="B"><path d="M211.18 215.36s-.16-.06-.47-.12l-1.36-.24-5.08-.64-18.56-1.9.48-.38 7-5.53a17.54 17.54 0 0 1 6.65-2.93 17 17 0 0 1 4.87-.32 12.22 12.22 0 0 1 1.31.18 1.53 1.53 0 0 1 .44.11 21.08 21.08 0 0 0-6.55.36 17.55 17.55 0 0 0-6.45 3l-7 5.56-.13-.44 1.14.1c6.57.63 12.52 1.3 16.8 1.87s6.97 1.08 6.9 1.3z"/><path d="M174.66 213a4 4 0 0 1 1.38-1.22 8.88 8.88 0 0 1 4.25-1.35 8.62 8.62 0 0 1 4.36.91 4 4 0 0 1 1.5 1.07c-.05.07-.62-.33-1.65-.76a9.78 9.78 0 0 0-4.19-.73 9.68 9.68 0 0 0-4.09 1.16c-.97.5-1.5.92-1.56.92zM207 191.86c-.1 0-.4-1.26-1.13-3.24a22.45 22.45 0 0 0-4.14-7 14.12 14.12 0 0 0-3.5-2.77l-.9-.45c-.3-.13-.6-.22-.9-.32a9.6 9.6 0 0 0-1.65-.43 12.29 12.29 0 0 0-2.47-.2 3.51 3.51 0 0 1-.93 0 2.93 2.93 0 0 1 .92-.15 10.41 10.41 0 0 1 4.26.43l.93.3 1 .45a14 14 0 0 1 3.65 2.84 20.82 20.82 0 0 1 4.1 7.25 19 19 0 0 1 .66 2.44 3.66 3.66 0 0 1 .09.84zm50.13 20.94l1.08-1.34a15.59 15.59 0 0 0 2.29-4 16.82 16.82 0 0 0 1.18-6.73 15.74 15.74 0 0 0-2.45-7.94 60.9 60.9 0 0 0-5.17-6.73 30.89 30.89 0 0 1-3.95-5.78 14 14 0 0 1-1.45-4.49 8.42 8.42 0 0 1-.08-1.28 1.34 1.34 0 0 1 0-.45s0 .62.24 1.7a14.84 14.84 0 0 0 1.57 4.36 31.4 31.4 0 0 0 4 5.65 57.66 57.66 0 0 1 5.24 6.76 15.94 15.94 0 0 1 2.48 8.19 16.6 16.6 0 0 1-1.31 6.87 14.66 14.66 0 0 1-2.46 4 8.33 8.33 0 0 1-.89.93 1.71 1.71 0 0 1-.32.28z"/></g><path d="M203.38 214a4.62 4.62 0 0 1 2.83-5.63 24.11 24.11 0 0 1 3.72-.48c.78-.13 1.65-.52 1.8-1.3.2-1-.8-1.72-1.7-2.1a15.75 15.75 0 0 0-11.67-.28 18.53 18.53 0 0 1 3.65 9.66m48.13-34.1c-1.6-3.2 4.18 5.77 6.87 8.1a59.34 59.34 0 0 1 7.76 7.35c2.23 2.78 3.88 5.86 3.57 9.42l-6.42-2.26s.8-5.2-2-9l-9.78-13.62zM186.2 212c-1.77-1.92-4.48-2.7-7.08-3a10.88 10.88 0 0 0-4.72.31 5.08 5.08 0 0 0-3.32 3.17 1.52 1.52 0 0 0 .12 1.38 1.33 1.33 0 0 0 1.46.34 5.1 5.1 0 0 0 1.37-.84 12.17 12.17 0 0 1 11.96-1.27" class="H"/><g class="B"><use xlink:href="#H"/><use xlink:href="#I"/><path d="M230.1 174.4a2.11 2.11 0 1 1-2.1-2.1 2.1 2.1 0 0 1 2.1 2.1z"/><use xlink:href="#I" x="39.12" y="-0.45"/><use xlink:href="#H" x="78.68" y="10.59"/><path d="M258.17 195.94a2.11 2.11 0 1 1-2.11-2.1 2.1 2.1 0 0 1 2.11 2.1z"/><use xlink:href="#H" x="65.08" y="-5.53"/><circle cx="285.48" cy="187.66" r="2.11"/><path d="M302.2 189.56a2.11 2.11 0 1 1-2.1-2.1 2.11 2.11 0 0 1 2.1 2.1zm-52.84 22.54a2.11 2.11 0 1 1-2.11-2.1 2.1 2.1 0 0 1 2.11 2.1zm7.64 11.96a2.11 2.11 0 1 1-2.11-2.1 2.1 2.1 0 0 1 2.11 2.1z"/><use xlink:href="#H" x="44.58" y="44.64"/><path d="M231.1 245.34a2.11 2.11 0 1 1-2.1-2.1 2.1 2.1 0 0 1 2.1 2.1zm24.96-2.24A2.11 2.11 0 1 1 254 241a2.1 2.1 0 0 1 2.06 2.1z"/><use xlink:href="#H" x="18.5" y="67.54"/><path d="M224,222a2.11,2.11,0,1,1-2.1-2.11A2.1,2.1,0,0,1,224,222Z"/><use xlink:href="#I" x="8.87" y="63.81"/><use xlink:href="#H" x="45.9" y="2.91"/><path d="M229.5 207.2a2.11 2.11 0 1 1-2.11-2.11 2.1 2.1 0 0 1 2.11 2.11z"/><use xlink:href="#I" x="8.87" y="20.32"/><path d="M165 226.43a2.11 2.11 0 1 1-2.11-2.1 2.12 2.12 0 0 1 2.11 2.1z"/><use xlink:href="#H" x="-21.96" y="12.34"/><path d="M193.48 229.4a2.11 2.11 0 1 1-2.11-2.1 2.11 2.11 0 0 1 2.11 2.1zm12.82-9.83a2.11 2.11 0 1 1-2.1-2.1 2.11 2.11 0 0 1 2.1 2.1z"/><use xlink:href="#H" x="-16.02" y="29.84"/><use xlink:href="#H" x="-5.07" y="15.91"/></g><path d="M182.78 324.93a60.52 60.52 0 0 1-12.93-1.4c-8.82-1.94-15.73-4.8-21-8.7a66.76 66.76 0 0 1-20.45 3.71c-22.68.6-43.2-6.48-68.38-26.85q-1.9-4.06-3.66-8.6c24.23 19.6 50.46 31 71.9 30.46a62.52 62.52 0 0 0 16.17-2.57c-5.85-6.1-8.8-14.07-8.76-23.75 0-10.6 4.56-15.42 8.34-17.58 5.35-3.07 12.67-2.65 19.1 1.1 7.08 4.13 11.3 11.1 11.26 18.68a20.52 20.52 0 0 1-8.08 16 61.48 61.48 0 0 1-11.89 7.15 59.18 59.18 0 0 0 39.6 6.24c21.3-4.23 39.1-11.8 52.9-22.47a85.91 85.91 0 0 0 33.52-70.76v-.1c-1.23-24.65-15.62-48.73-36.68-61.35-18.26-10.95-41.66-13.95-65.88-8.45-15.05 3.42-35.53 11.53-47.6 30.76-13 20.72-9.48 46.43 1.25 58.38 7.65 8.53 22.3 5.45 34.1 3l3.88-.8c12.67-2.52 64.08-26.63 64.28-26.7l1.1 4.1c-.83.3-51.38 24.9-64.4 27.5l-3.83.8c-13 2.73-29.26 6.13-38.83-4.53-6.92-7.72-10.77-18.86-10.84-31.37a63 63 0 0 1 9.08-33c13-20.67 34.75-29.34 50.72-33 25.47-5.78 50.17-2.58 69.54 9 22.4 13.5 37.7 39.17 39.06 65.4.1 1.34 1.45 20.46-8.78 42.1a90.28 90.28 0 0 1-26.66 33c-14.4 11.16-32.9 19-55 23.42a62.06 62.06 0 0 1-12.14 1.19zm-30.7-52.3a11.19 11.19 0 0 0-5.58 1.39c-3.8 2.17-5.8 6.76-5.83 13.28 0 9.33 2.9 16.54 9 21.9a56.75 56.75 0 0 0 13.56-7.7 15.54 15.54 0 0 0 6.15-12.05c0-5.77-3.26-11.13-8.8-14.35a17.13 17.13 0 0 0-8.51-2.47z" class="C"/><path d="M152.83 317.42a5.8 5.8 0 0 1-1.87-.91 34 34 0 0 1-4.05-3 31.49 31.49 0 0 1-3.61-3.5 5.41 5.41 0 0 1-1.17-1.73c.06 0 .53.6 1.43 1.5l3.66 3.35 3.93 3.06a14.66 14.66 0 0 1 1.68 1.23zm5.24-2.92a6.06 6.06 0 0 1-2.25-.57 18.92 18.92 0 0 1-4.8-2.87 23.91 23.91 0 0 1-3.91-4 7.34 7.34 0 0 1-1.22-2c.06 0 .56.68 1.5 1.75a30.52 30.52 0 0 0 4 3.82 22.86 22.86 0 0 0 4.63 2.94c1.22.64 2.08.85 2.06.93z" class="B"/><path d="M138.1 297.27a2.55 2.55 0 0 1-.32-.81 22.73 22.73 0 0 1-.58-2.3 29.66 29.66 0 0 1 1.09-15.44 20 20 0 0 1 .89-2.19 3.12 3.12 0 0 1 .42-.76c.08 0-.4 1.17-1 3.06a35.21 35.21 0 0 0-1.41 7.58 34.63 34.63 0 0 0 .34 7.69l.57 3.17zm-12.44 17.9a8.65 8.65 0 0 1-2.41.42 26.3 26.3 0 0 1-11.61-1.65 9 9 0 0 1-2.2-1.07 19 19 0 0 1 2.32.74 33.38 33.38 0 0 0 5.66 1.32 34.06 34.06 0 0 0 5.81.31 20.17 20.17 0 0 1 2.43-.07zM263.53 282a12 12 0 0 1-1.46 2.18 53 53 0 0 1-8.82 9.05 11.49 11.49 0 0 1-2.14 1.51A17.69 17.69 0 0 1 253 293l4.55-4.33 4.22-4.67a18.22 18.22 0 0 1 1.76-2zM120.9 231.1a6.73 6.73 0 0 1-.51-1.33 35.07 35.07 0 0 1-1-3.73 48.82 48.82 0 0 1-1-5.66 51.13 51.13 0 0 1 .37-14.05 49 49 0 0 1 1.28-5.61 38.41 38.41 0 0 1 1.25-3.67 6.84 6.84 0 0 1 .58-1.3 8.88 8.88 0 0 1-.4 1.37l-1.1 3.7a53.94 53.94 0 0 0-1.17 5.59 62 62 0 0 0-.63 7 57.46 57.46 0 0 0 .27 7 53.82 53.82 0 0 0 .87 5.64l.9 3.74a8.53 8.53 0 0 1 .29 1.32zm6.04-44.9a8.73 8.73 0 0 1-1.21 2.67 8.91 8.91 0 0 1-1.65 2.43 8.91 8.91 0 0 1 1.22-2.67 9.29 9.29 0 0 1 1.64-2.43z" class="D"/><g class="B"><path d="M248 142.1c-1.2 1.9-.17 4.4 1.16 6.2s3 3.53 3.3 5.75c.35 3.05-2.23 5.72-5 7a5.39 5.39 0 0 0-2.36 1.47c-.78 1.08-.46 2.56-.5 3.9a6.45 6.45 0 0 1-3.32 5.57 5.38 5.38 0 0 1-6.27-1 7.73 7.73 0 0 1-1.62-3.6 16.37 16.37 0 0 1 3.57-14.18c1.7-1.86 3.82-3.26 5.67-5s3.46-3.9 3.62-6.4m1.4-22.47c-1.4-3.58-5-5.8-8.66-7.06a24.5 24.5 0 0 0-16.25-.35c-7.62 2.76-12.74 9.86-16.68 16.94-1.7 3.08-3.63 6.52-7 7.55-1.8.54-3.73.3-5.6.5a11.49 11.49 0 0 0-7.48 4c-2.24 2.72-3.4 6.63-6.62 8.06-2.08.92-4.47.53-6.74.6-4.73.15-9.7 3-10.75 7.6-.7 3 .35 6.38-1 9.13-.5 1-1.3 1.84-1.78 2.85a5.19 5.19 0 0 0 7.55 6.55 13.58 13.58 0 0 1 2.07-1.42c1.64-.7 3.5.22 4.94 1.28s2.84 2.36 4.6 2.56c3.62.4 6.43-4 10.07-3.72 2 .14 3.65 1.67 5.4 2.72 3.06 1.84 4.6.2 7.2-2.26s4 7.87 10 5.18c5.58-2.52.06-12.07 2.1-11.85s7.4-.1 8.54-1.82"/><path d="M248.36 130a13.58 13.58 0 0 0-1.58-12.31 17.78 17.78 0 0 0-7.64-5.82 19.11 19.11 0 0 0-12.75-1.18c-4.18 1.22-7.85 4.57-8.78 8.82-.42 1.93-.3 4-1.14 5.8a4.31 4.31 0 0 0-.78 2.41 2 2 0 0 0 1.6 1.54 4.48 4.48 0 0 0 2.32-.2 24.41 24.41 0 0 0 7-3.89"/></g><path d="M234.45 167.7l.64-5.17c0 .03 7.93-.4 10.7-10.38 1.38-5 2.06-13.27 2.4-20.1.3-6.13-2.9-14.07-9-14.1l-19.5 2.64a3.59 3.59 0 0 0-3.61 3.26l-3.08 44.4s8.8 10.42 16.44 9 5-9.55 5-9.55z" class="K"/><path d="M244.93 138.9a1.31 1.31 0 0 1-1.4 1.17 1.25 1.25 0 0 1-1.21-1.33 1.31 1.31 0 0 1 1.4-1.17 1.25 1.25 0 0 1 1.21 1.33zm.97-2.73c-.18.15-1.08-.7-2.5-.85s-2.5.43-2.64.24.14-.37.62-.65a3.67 3.67 0 0 1 2.14-.4 3.39 3.39 0 0 1 1.95.89c.4.38.52.7.42.77zm-13.77 1.4a1.32 1.32 0 0 1-1.41 1.18 1.26 1.26 0 0 1-1.21-1.33 1.31 1.31 0 0 1 1.41-1.17 1.25 1.25 0 0 1 1.21 1.32zm-.03-2.7c-.18.16-1.08-.7-2.48-.84s-2.5.43-2.65.24.14-.37.62-.65a3.67 3.67 0 0 1 2.14-.4 3.51 3.51 0 0 1 2 .88c.35.38.46.7.37.77zm3.9 10.98a9 9 0 0 1 2.32-.16c.37 0 .7 0 .8-.26a1.84 1.84 0 0 0-.12-1.09q-.36-1.35-.75-2.85a47.51 47.51 0 0 1-1.57-7.39c.17 0 1.13 3.2 2.16 7.25l.7 2.86a2 2 0 0 1 0 1.42.9.9 0 0 1-.64.46 3.36 3.36 0 0 1-.62 0 9.52 9.52 0 0 1-2.29-.24z" class="B"/><path d="M235.1 162.53a25.94 25.94 0 0 1-13.19-5.17s2.62 7.42 12.9 7.62zm-.1-13.38a2.53 2.53 0 0 0-2.15-1.2 2.3 2.3 0 0 0-1.69.68 1.44 1.44 0 0 0-.3 1.65 1.7 1.7 0 0 0 1.78.68 5.33 5.33 0 0 0 1.91-.87 1.36 1.36 0 0 0 .45-.37.48.48 0 0 0 .06-.52" class="L"/><path d="M232.76 129.78c-.18.36-1.56 0-3.22 0s-3 .3-3.23-.05c-.08-.18.2-.5.77-.82a5.59 5.59 0 0 1 4.92 0c.57.36.84.7.76.87zm13.44.22c-.28.3-1.2-.15-2.37-.3s-2.17 0-2.36-.38c-.08-.18.1-.48.58-.73a3.46 3.46 0 0 1 3.8.55c.38.36.48.7.35.86z" class="B"/><path d="M217 141.2c.08-.76-.6-2.64-1.32-2.84-2-.54-5.58-.8-6.18 4.28-.84 6.9 6.28 6.32 6.32 6.13s.9-4.96 1.18-7.57z" class="K"/><path d="M214 145.88s-.13.07-.35.14a1.19 1.19 0 0 1-.9-.09 3 3 0 0 1-1.06-2.84 4 4 0 0 1 .55-1.69 1.38 1.38 0 0 1 1-.81.61.61 0 0 1 .67.41c.07.2 0 .34 0 .35s.16-.1.14-.4a.73.73 0 0 0-.22-.46.87.87 0 0 0-.64-.26 1.71 1.71 0 0 0-1.39.92 4.09 4.09 0 0 0-.65 1.88c-.12 1.4.43 2.8 1.4 3.2a1.27 1.27 0 0 0 1.12-.05c.33-.14.33-.3.33-.3z" class="L"/><g class="B"><path d="M240.25 116.86a9.52 9.52 0 0 1-7.11 6.64c-1.8.37-3.9.3-5.07 1.7s-.8 3.7-1.92 5.18c-1.57 2.06-5.27 1.6-6.52 3.86-.54 1-.42 2.24-1 3.22a3.23 3.23 0 0 1-4 1.13 5.16 5.16 0 0 1-2.73-3.4 14 14 0 0 1-.33-4.47 24.73 24.73 0 0 1 1.55-8.68c2.42-5.7 11.7-13 17.82-12m16.28 34.13l4.67-5.83c1.6-1.83 3.05-3.68 3.24-6a9.67 9.67 0 0 0-1.69-5.52 69.38 69.38 0 0 0-6.59-9A9 9 0 0 0 245 116a4.48 4.48 0 0 0-2.09-.7 2.52 2.52 0 0 0-1.74.42 1.39 1.39 0 0 0-.51 1.61 2.65 2.65 0 0 0 1.32 1c2.88 1.47 4.73 4.48 5.55 7.6s.6 6.15.52 9.4c-.06 2.53-.4 5.22-.66 7.55"/><path d="M231 110.25a21 21 0 0 0-19.19 8.08c-2.4 3.24-4.2 7.46-8 8.82-3.1 1.1-6.6-.13-9.86.45a9.12 9.12 0 0 0-6.69 5.3c-.93 2.18-1 4.8-2.67 6.52-2.14 2.27-6 2-8.23 4.25-1.8 1.84-1.86 4.8-1.14 7.28a4.08 4.08 0 0 0 1.7 2.61 4.18 4.18 0 0 0 2.73.21 31 31 0 0 0 8.92-3.53c6.37-3.42 12.5-7.27 18.63-11.1a38.16 38.16 0 0 0 8-6.07c3-3.26 4.75-7.43 6.85-11.34s4.8-7.77 8.8-9.62"/></g><path d="M162.3 176.2a.93.93 0 0 1-.28-.09 3.13 3.13 0 0 1-.77-.38 5 5 0 0 1-1.89-2.65A6.16 6.16 0 0 1 160 168a10.47 10.47 0 0 1 5.43-4.13 52.46 52.46 0 0 1 8.12-1.78 19.2 19.2 0 0 0 4.36-1.34 8.74 8.74 0 0 0 5.5-7.55 38.16 38.16 0 0 1 .9-5.32 13.68 13.68 0 0 1 7.36-8.4 13 13 0 0 1 5.66-1.22c1.9 0 3.76.34 5.56.46a12.36 12.36 0 0 0 5.2-.55 6.4 6.4 0 0 0 2.15-1.28 7.68 7.68 0 0 0 1.47-2l2.17-4.4a11.11 11.11 0 0 1 3.31-3.31 26.78 26.78 0 0 1 7.75-3 47.28 47.28 0 0 0 6.54-2 16.41 16.41 0 0 0 4.42-2.57 9.76 9.76 0 0 0 2.07-2.47l.54-1a6.8 6.8 0 0 1-.45 1 9 9 0 0 1-2 2.56 15.88 15.88 0 0 1-4.44 2.68 45.1 45.1 0 0 1-6.55 2 26.73 26.73 0 0 0-7.61 3 10.49 10.49 0 0 0-3.17 3.19c-.83 1.32-1.33 2.9-2.14 4.4a7.82 7.82 0 0 1-1.56 2.09 6.78 6.78 0 0 1-2.29 1.38 12.76 12.76 0 0 1-5.4.59l-5.53-.45a12.45 12.45 0 0 0-5.45 1.18 13.18 13.18 0 0 0-7.11 8.08 39.61 39.61 0 0 0-.9 5.26 10.32 10.32 0 0 1-1.83 4.87 10.21 10.21 0 0 1-3.95 3 19 19 0 0 1-4.46 1.35 53.67 53.67 0 0 0-8.08 1.71 10.22 10.22 0 0 0-5.31 4 6 6 0 0 0-.67 4.87 5 5 0 0 0 1.77 2.62 10.58 10.58 0 0 0 .92.68zm.62-21.26a2.71 2.71 0 0 1 .7-.68 4.78 4.78 0 0 1 2.67-.83 13.28 13.28 0 0 1 4.38.74 17.41 17.41 0 0 0 2.67.61 5.86 5.86 0 0 0 3-.29 6.2 6.2 0 0 0 2.56-2.05 11.4 11.4 0 0 0 1.66-3.22l1.2-3.76a25 25 0 0 1 1.73-3.87 14.62 14.62 0 0 1 6.35-6.39 11.73 11.73 0 0 1 4.73-1l4.9-.1a7.19 7.19 0 0 0 4.34-1.72 13 13 0 0 0 2.59-3.86 19.77 19.77 0 0 1 2.38-4 11.33 11.33 0 0 1 3.53-2.75 22.21 22.21 0 0 1 7.94-2l7.07-.65a18.78 18.78 0 0 0 5.57-1.57 12.21 12.21 0 0 0 3.57-2.52 8.5 8.5 0 0 0 1.59-2.25l.4-.9a4.56 4.56 0 0 1-.32.93 8.19 8.19 0 0 1-1.54 2.34 12 12 0 0 1-3.59 2.63 18.54 18.54 0 0 1-5.64 1.67c-2.16.34-4.55.45-7.08.7a22 22 0 0 0-7.77 2 10.77 10.77 0 0 0-3.38 2.65 19.2 19.2 0 0 0-2.31 3.9 13.33 13.33 0 0 1-2.69 4 7.67 7.67 0 0 1-4.62 1.85c-1.7.15-3.33 0-4.93.1a11.15 11.15 0 0 0-4.54.94 14.28 14.28 0 0 0-6.16 6.17 26 26 0 0 0-1.71 3.79l-1.24 3.76c-.83 2.4-2.33 4.62-4.47 5.45a6.22 6.22 0 0 1-3.14.28 17.81 17.81 0 0 1-2.7-.65 13.35 13.35 0 0 0-4.3-.82 5 5 0 0 0-2.63.72c-.55.38-.76.7-.78.63zM193.35 176s.16 0 .42-.2a1.81 1.81 0 0 0 .78-1 2.17 2.17 0 0 0-.32-2 5.26 5.26 0 0 0-2.17-1.67 10.84 10.84 0 0 1-3-1.75 6 6 0 0 1-1.68-3.68 7.59 7.59 0 0 1 .9-4.37 9.86 9.86 0 0 1 3.33-3.44 23.31 23.31 0 0 1 8.66-2.91 37.14 37.14 0 0 0 7.16-1.79 12.84 12.84 0 0 0 4.19-2.6c.85-.82 1.2-1.38 1.23-1.35s-.06.15-.23.4a7.63 7.63 0 0 1-.86 1.07 12.38 12.38 0 0 1-4.19 2.79 35.21 35.21 0 0 1-7.21 1.91c-2.73.54-5.8 1.14-8.48 2.88a9.52 9.52 0 0 0-3.18 3.26 7.25 7.25 0 0 0-.87 4.1 5.55 5.55 0 0 0 1.52 3.42 10.8 10.8 0 0 0 2.9 1.74 5.41 5.41 0 0 1 2.25 1.83 2.36 2.36 0 0 1 .27 2.16 1.84 1.84 0 0 1-.91 1 .91.91 0 0 1-.51.18z" class="J"/><path d="M205.9 228.18s-1.15-1.25-.77-2.4 1.06-2 1.35-1.92.2-6.26 1.35-6.74a16.6 16.6 0 0 1 2.5-.77s1.35-3.46 2.12-3.37 9.33 1.64 9.33 1.64 6.74 7.22 6.35 7.9-.77 1.44-1.83 1.06a12 12 0 0 1-2.07-1.06l3.6 3.93s-.7 3-3.63.88l1.44 1.83s-.87 3.76-5.1.58l-4.33-2.6h-2.8l6.35 3.88s.67 1.9-1.25 1.9-6.76-2.56-6.76-2.56-2.88 1.7-3.85 1.7-1.23-1.07-1.23-1.07z" class="K"/><path d="M224.36 227.52a16.61 16.61 0 0 1-1.49-1.28 32.34 32.34 0 0 1-3.52-3.19 3 3 0 0 0-2.16-1 14.63 14.63 0 0 0-2.09.13 3.93 3.93 0 0 1-2-.09c0-.07.75 0 1.93-.25a11.37 11.37 0 0 1 2.16-.25 3.68 3.68 0 0 1 1.31.26 3.31 3.31 0 0 1 1.18.82c1.23 1.38 2.53 2.4 3.4 3.3a5.14 5.14 0 0 1 1.28 1.56zm3.47-1.1a12.11 12.11 0 0 1-1.75-1.71l-4.14-4.2-2.35-2.2a4.34 4.34 0 0 0-2.35-.85c-1.48-.1-2.42 0-2.43 0a2 2 0 0 1 .64-.17 10.28 10.28 0 0 1 1.81-.13 4.59 4.59 0 0 1 2.6.83 30.21 30.21 0 0 1 2.43 2.21l4 4.3a11.23 11.23 0 0 1 1.54 1.9z" class="L"/><path d="M230.87 147.1c.26-.1.85.8 1.76 1.73s1.8 1.53 1.7 1.8-1.34 0-2.4-1.1-1.3-2.34-1.06-2.42z" class="B"/><path d="M304.68 227.28l-8.9-45.7a3.43 3.43 0 0 0-6.73 1.31l.4 2.08-18.4 4.52a12.27 12.27 0 0 0-8.59 7.67l-11.1 2.73a7.17 7.17 0 0 0-5.25 8.67l1 4-10.85 2.68a5.62 5.62 0 1 0 2.7 10.95l10.86-2.67.77 3.13a7.17 7.17 0 0 0 8.67 5.25l11.3-2.78v-.1a12.26 12.26 0 0 0 10.89 2.59l16.32-4 .2 1a3.43 3.43 0 0 0 6.73-1.31z" class="C"/><g class="B"><path d="M304.68 227.28a2.51 2.51 0 0 1 .09.77 3.43 3.43 0 0 1-.78 2.12 3.53 3.53 0 0 1-3.38 1.2A3.5 3.5 0 0 1 298 229c-.13-.44-.2-.9-.3-1.35l.13.08-12 3-3.6.9a13.89 13.89 0 0 1-3.91.54 12.48 12.48 0 0 1-7.88-3l.3-.2v.08l.05.2h-.2l-12.1 2.95a7.41 7.41 0 0 1-6.27-2.2 7.26 7.26 0 0 1-1.77-3.05l-.86-3.43.27.17-9.16 2.3-2.4.54a5.86 5.86 0 0 1-5.77-8.77 6.17 6.17 0 0 1 4.29-2.89l10.22-2.5-.18.3-.63-2.56a16.7 16.7 0 0 1-.55-2.73 7.4 7.4 0 0 1 1.69-5.26 7.33 7.33 0 0 1 2.15-1.77 9.8 9.8 0 0 1 2.6-.9l10.26-2.52-.16.15a12.64 12.64 0 0 1 5.17-6.31 12.78 12.78 0 0 1 3.74-1.53l3.8-.94 14.44-3.53-.16.25-.32-1.63a4.53 4.53 0 0 1-.11-1.69A3.63 3.63 0 0 1 294 179a3.58 3.58 0 0 1 2 2.45l2.2 11.3 5.8 30.33.57 3.14.14.8a1.44 1.44 0 0 1 0 .28 1.23 1.23 0 0 1-.07-.27c0-.2-.1-.46-.17-.8l-.65-3.14-2.37-11.87-3.63-18.4q-1.05-5.32-2.23-11.3a3.2 3.2 0 0 0-1.76-2.17 3.2 3.2 0 0 0-4.54 2.42 3.91 3.91 0 0 0 .1 1.55l.32 1.63v.2l-.2.05-14.43 3.57c-2.5.7-5.17 1-7.4 2.4a12.19 12.19 0 0 0-5 6.08l-.05.12h-.12l-10.26 2.53a9.2 9.2 0 0 0-2.48.85 7 7 0 0 0-2 1.65 6.88 6.88 0 0 0-1.58 4.91 15.58 15.58 0 0 0 .54 2.65l.63 2.57.06.23-.24.06-10.16 2.5a5.61 5.61 0 0 0-4 2.66 5.37 5.37 0 0 0 5.29 8c.76-.1 1.56-.35 2.34-.53l9.37-2.3.05.2.85 3.42a6.84 6.84 0 0 0 1.66 2.87 7 7 0 0 0 5.9 2.09c4.2-.94 8.27-2 12.06-2.9l-.13.23v-.08l-.14-.57.44.38a12.1 12.1 0 0 0 7.65 2.91 13.45 13.45 0 0 0 3.82-.52l15.6-3.78h.1v.1c.1.46.16.93.28 1.34a3.27 3.27 0 0 0 .58 1.11 3.47 3.47 0 0 0 1.91 1.18 3.39 3.39 0 0 0 4.07-3.16 7.52 7.52 0 0 0-.02-.75z"/><path d="M298.16 227.52c-.13 0-2.27-9.46-4.78-21.18l-4.3-21.3c.14-.03 2.27 9.45 4.8 21.18l4.3 21.3zm-27.6 1.48c-.13 0-2-7.1-4.26-15.9s-3.9-16-3.78-16 2 7.1 4.26 15.92 3.9 15.98 3.78 15.98zm-20.7-5.48a24.76 24.76 0 0 1-1.59-5.4 46.12 46.12 0 0 1-1.1-5.52 25.08 25.08 0 0 1 1.58 5.41 47.14 47.14 0 0 1 1.11 5.51z"/></g><path d="M259.7 199.8c0 .07-1.07.23-2.8.6l-3 .72a15.13 15.13 0 0 0-3.46 1.36A4.79 4.79 0 0 0 248 205a7.4 7.4 0 0 0-.06 3l.44 2.8a9.17 9.17 0 0 1-.79-2.76 7.4 7.4 0 0 1 0-3.16 3.63 3.63 0 0 1 1-1.65 7.8 7.8 0 0 1 1.63-1.2 14.14 14.14 0 0 1 3.58-1.38l3-.62a11 11 0 0 1 2.9-.25zm26.3-12.14a3.24 3.24 0 0 1-.95.29l-2.62.6-8.66 1.82a18.33 18.33 0 0 0-4.52 1.58 9.43 9.43 0 0 0-3 2.46 8.17 8.17 0 0 0-1.49 3.26 2.26 2.26 0 0 1 .07-1 6.85 6.85 0 0 1 1.17-2.47 9.38 9.38 0 0 1 3.05-2.64 17.24 17.24 0 0 1 4.63-1.67l8.7-1.68 2.65-.45a4.4 4.4 0 0 1 .96-.1zm-40.75 27.44a4.83 4.83 0 0 1-1.93.77c-1.25.34-3 .48-4.9.88a9.75 9.75 0 0 0-2.51.88 6.33 6.33 0 0 0-1.71 1.3 9.2 9.2 0 0 0-1.09 1.7 3.11 3.11 0 0 1 .82-1.92 6 6 0 0 1 1.76-1.48 9.05 9.05 0 0 1 2.62-1c1.93-.4 3.7-.5 4.92-.74l2-.4zm48.25-35.22c0 .08-.37.07-.9.2a3.62 3.62 0 0 0-1.75 1.08 3.5 3.5 0 0 0-.79 1.91c-.06.54 0 .9-.07.9s-.25-.3-.28-.92a3.23 3.23 0 0 1 .76-2.22 3.29 3.29 0 0 1 2.07-1.1c.6-.07.97.07.96.13z" class="D"/><path d="M296.22 101.2c0 3.62-2.6 5.8-6.93 5.8h-4.56v5.36h-1.8v-17h6.35c4.32.02 6.93 2.2 6.93 5.84zm-1.8 0c0-2.7-1.8-4.26-5.2-4.26h-4.5v8.48h4.5c3.4 0 5.2-1.55 5.2-4.22zm14.82 3.24v7.9h-1.65v-2a4.77 4.77 0 0 1-4.38 2.11c-2.9 0-4.66-1.5-4.66-3.7 0-2 1.26-3.6 4.92-3.6h4v-.78c0-2.18-1.23-3.37-3.6-3.37a6.49 6.49 0 0 0-4.24 1.5l-.78-1.28a8.12 8.12 0 0 1 5.19-1.72c3.35.01 5.2 1.65 5.2 4.95zm-1.72 4.07v-2.08h-4c-2.47 0-3.27 1-3.27 2.28 0 1.48 1.2 2.4 3.22 2.4a4.08 4.08 0 0 0 4.05-2.6zm18.26-8.9v11.2c0 4.4-2.16 6.38-6.38 6.38a8.88 8.88 0 0 1-5.94-2l.87-1.3a7.62 7.62 0 0 0 5 1.74c3.23 0 4.7-1.48 4.7-4.63v-1.62a5.76 5.76 0 0 1-5 2.47 6.18 6.18 0 1 1 0-12.36 5.76 5.76 0 0 1 5 2.54v-2.4zm-1.68 6.06a4.84 4.84 0 1 0-4.84 4.68 4.55 4.55 0 0 0 4.84-4.68zm17.6.84H331a4.72 4.72 0 0 0 5 4.44 5 5 0 0 0 3.91-1.67l1 1.1a6.74 6.74 0 0 1-11.6-4.38 6.15 6.15 0 0 1 6.24-6.47c3.58 0 6.18 2.64 6.18 6.47 0 .1-.03.3-.03.5zm-10.7-1.28h9a4.53 4.53 0 0 0-9 0zm32.33-.22v7.4h-1.72v-7.23c0-2.7-1.4-4.07-3.83-4.07-2.74 0-4.47 1.7-4.47 4.6v6.7h-1.72V99.6h1.65v2.35a5.35 5.35 0 0 1 4.85-2.44c3.1 0 5.24 1.8 5.24 5.5zm3.44 1a6.49 6.49 0 1 1 6.5 6.5 6.27 6.27 0 0 1-6.5-6.5zm11.23 0a4.75 4.75 0 1 0-4.72 5 4.65 4.65 0 0 0 4.72-5zm12 5.57a4.09 4.09 0 0 1-2.69.9 3.38 3.38 0 0 1-3.74-3.71v-7.7h-2.27V99.6h2.27v-2.8h1.73v2.78h3.87v1.46h-3.87v7.6a2 2 0 0 0 2.2 2.33 2.81 2.81 0 0 0 1.89-.66zm11.4-13.47v1.5h3.93v1.46h-3.88v11.3h-1.72v-11.3h-2.28V99.6h2.28V98a3.51 3.51 0 0 1 3.85-3.78 4 4 0 0 1 2.55.8l-.58 1.28a3 3 0 0 0-1.89-.63c-1.48.02-2.26.84-2.26 2.42zm4.76 7.9a6.49 6.49 0 1 1 6.5 6.5 6.28 6.28 0 0 1-6.5-6.5zm11.23 0a4.75 4.75 0 1 0-4.73 5 4.66 4.66 0 0 0 4.73-5zm16.75-6.4v12.76h-1.65V110a5.08 5.08 0 0 1-4.58 2.45c-3.25 0-5.38-1.82-5.38-5.48v-7.4h1.72v7.23c0 2.7 1.4 4.1 3.83 4.1 2.66 0 4.34-1.72 4.34-4.63V99.6zm16.56 5.4v7.4H449v-7.23c0-2.7-1.4-4.07-3.84-4.07-2.73 0-4.46 1.7-4.46 4.6v6.7H439V99.6h1.65v2.35a5.35 5.35 0 0 1 4.85-2.44c3.06 0 5.2 1.8 5.2 5.5zm16.36-10.64v18h-1.65v-2.53a5.51 5.51 0 0 1-4.92 2.65 6.5 6.5 0 0 1 0-13 5.57 5.57 0 0 1 4.85 2.52v-7.64zm-1.7 11.64a4.75 4.75 0 1 0-4.72 5 4.66 4.66 0 0 0 4.72-5zM347 72.63h-8.9v11.45h-12.3V72.63h-29.4v-8.48l25.7-34.6h13.24l-23.83 32.8h14.64v-10.2h11.9v10.2h8.9zm3.74-15.8c0-18 10-28.2 23.37-28.2s23.36 10.2 23.36 28.2S387.58 85 374.1 85s-23.37-10.18-23.37-28.18zm34 0c0-12.38-4.36-17.52-10.67-17.52s-10.6 5.14-10.6 17.52 4.37 17.53 10.6 17.53 10.7-5.14 10.7-17.53zm68.84 15.8h-8.88v11.45h-12.3V72.63H403v-8.48l25.7-34.6H442l-23.86 32.8h14.64v-10.2h11.92v10.2h8.88zm-14.4 100.5a.74.74 0 0 1-.18.12l-.57.3-2.2 1.15-8.2 4.2-27.7 13.96-.13-.17-5.8-8.24.32.07-25.65 14.8-7.64 4.36-2.08 1.15-.54.3-.2.1c0-.01 0 0 .17-.13l.52-.33 2-1.23 7.57-4.48L394.6 184l.13.2 3.43 4.83 2.4 3.4-.3-.08 27.58-13.72 8.27-4.05 2.25-1.08.58-.26zm-7.28 36.12a2.76 2.76 0 0 1-.54.15l-1.58.35-5.86 1.24-19.85 3.85v-.24l-.44-2.43-.28-1.6.28.2c-7.95 1.36-15 3-20 4.36l-6 1.62-1.6.45a2.73 2.73 0 0 1-.57.12 3 3 0 0 1 .54-.22l1.58-.53c1.4-.45 3.4-1.07 5.92-1.77a202.62 202.62 0 0 1 20.05-4.52h.24v.24l.3 1.6.43 2.43-.3-.2 19.64-3.65 5.88-1 1.6-.26a2 2 0 0 1 .57-.19zm-67.05-34.7c.12.06-2.42 5.56-5.7 12.28s-6 12.12-6.13 12.06 2.43-5.55 5.7-12.28 6-12.12 6.13-12.06zm29.85 26.95c0 .13-6.3 2.1-14.13 4.38s-14.24 4-14.27 3.9 6.28-2.1 14.13-4.38 14.23-4.04 14.27-3.9zm-48.93-44.16a5.27 5.27 0 0 1 .41 1l1 2.92 3.55 10.63h-.32l-7.8-.16.25-.3.58 3.1 3.3 18.12.94 5.5.23 1.5a1.91 1.91 0 0 1 .05.53 2.07 2.07 0 0 1-.15-.51l-.32-1.5-1.1-5.47-3.44-18.1-.57-3.1-.06-.3h.3l7.8.2-.2.3-3.28-10.4-.9-3a8.13 8.13 0 0 1-.27-1.01zm-34.53 75.36c-.06-.12 5-2.62 11.33-5.58s11.48-5.26 11.54-5.14-5 2.63-11.33 5.6-11.48 5.25-11.54 5.13zm23.58 7.24a50.2 50.2 0 0 1 4.32-5.58 53.08 53.08 0 0 1 4.71-5.26 48.61 48.61 0 0 1-4.33 5.58 51 51 0 0 1-4.7 5.26zm12.7 34.34c-.13 0 .73-9.75 1.94-21.75l2.43-21.7c.14.02-.74 9.75-1.94 21.75l-2.43 21.7zm-17.35-86.16a22.4 22.4 0 0 1 2.31 4.09 21.86 21.86 0 0 1 1.86 4.31 22.73 22.73 0 0 1-2.3-4.09 22.78 22.78 0 0 1-1.87-4.31z" class="B"/><defs ><path id="B" d="M48.54 242.16c-4.2-24.3 4.24-51.14 23.63-66.36s49.53-16.35 68.32-.4c13.2 11.23 19.4 28.37 27.26 43.82s19.8 31.1 36.92 33.76c14.78 2.3 29.64-5.78 44.47-3.84 14.48 1.9 26.6 13.73 30.77 27.72s1 29.54-6.42 42.08-19 22.3-31.55 29.7c-40.5 23.8-94.22 23-134-1.93s-63.84-73-60-119.83"/><path id="C" d="M283.1 459.66c13.15-9 19.33-28.76 11.1-42.4h0c-8.32-12.4-21.24-22.3-36-24.38s-31.15 4.9-37.73 18.3c-4.15 8.44-4.16 18.64-.72 27.4a43.53 43.53 0 0 0 18.19 20.91c13.6 8.22 32.04 9.14 45.15.16z"/><path id="D" d="M710.1 376.83c-.8-21.05-11.24-41.92-28.7-53.7s-41.77-13.4-59.76-2.44c-11.2 6.82-19.34 17.68-26.1 28.92-3.7 6.16-7.58 12.95-14.25 15.64-8.67 3.5-18.2-1.27-27.37-3.1a43.06 43.06 0 0 0-50 30.94c-8 33.2 15.27 56.88 40.15 71.26 27.8 16.08 63 16.06 93.24 5.34 19.85-7 38.35-18.6 51.87-34.75s21.75-37.06 20.93-58.1z"/><path id="E" d="M662.3 197c-2.57-16.8-18.77-31.9-35.68-30.28h0c-15.8 2.3-31.28 10.16-40.12 23.44s-9.67 32.25.2 44.78c6.2 7.9 16 12.62 26 13.35a46.48 46.48 0 0 0 28.53-7.86c14.25-9.3 23.64-26.6 21.07-43.43z"/><path id="F" d="M393.24 240.13L378.1 227.6a2.79 2.79 0 0 1-.37-3.93h0a2.79 2.79 0 0 1 3.93-.37l15.13 12.52z"/><path id="G" d="M379 258.42l-15.12-12.52a2.79 2.79 0 0 1-.38-3.93h0a2.78 2.78 0 0 1 3.93-.37l15.14 12.5z"/><path id="H" d="M196.72 187.46a2.11 2.11 0 1 1-2.1-2.11 2.1 2.1 0 0 1 2.1 2.11z"/><path id="I" d="M208.05 173.52a2.11 2.11 0 1 1-2.11-2.11 2.11 2.11 0 0 1 2.11 2.11z"/></defs></svg>